<svg width="36" height="36" fill="none" xmlns="http://www.w3.org/2000/svg">
  <rect x="10.0009" y="10" width="16" height="16" rx="8" stroke="#3858E9" stroke-width="1.5"/>
  <path d="M19.75 16.25c0 .4142.3358.75.75.75s.75-.3358.75-.75h-1.5zm-1.75 1c-.5553 0-1.0259-.1588-1.3377-.377-.3141-.2199-.4123-.4517-.4123-.623h-1.5c0 .7952.4614 1.4384 1.0521 1.8519.5931.4151 1.3725.6481 2.1979.6481v-1.5zm-1.75-1c0-.1713.0982-.4031.4123-.623.3118-.2182.7824-.377 1.3377-.377v-1.5c-.8254 0-1.6048.233-2.1979.6481-.5907.4135-1.0521 1.0567-1.0521 1.8519h1.5zm1.75-1c.5553 0 1.0259.1588 1.3377.377.3141.2199.4123.4517.4123.623h1.5c0-.7952-.4614-1.4384-1.0521-1.8519-.5931-.4151-1.3725-.6481-2.1979-.6481v1.5z" fill="#3858E9"/>
  <path d="M16.25 19.75c0-.4142-.3358-.75-.75-.75s-.75.3358-.75.75h1.5zm1.75-1c.5553 0 1.0259.1588 1.3377.377.3141.2199.4123.4517.4123.623h1.5c0-.7952-.4614-1.4384-1.0521-1.8519-.5931-.4151-1.3725-.6481-2.1979-.6481v1.5zm1.75 1c0 .1713-.0982.4031-.4123.623-.3118.2182-.7824.377-1.3377.377v1.5c.8254 0 1.6048-.233 2.1979-.6481.5907-.4135 1.0521-1.0567 1.0521-1.8519h-1.5zm-1.75 1c-.5553 0-1.0259-.1588-1.3377-.377-.3141-.2199-.4123-.4517-.4123-.623h-1.5c0 .7952.4614 1.4384 1.0521 1.8519.5931.4151 1.3725.6481 2.1979.6481v-1.5z" fill="#3858E9"/>
  <path d="M18.75 22c0-.4142-.3358-.75-.75-.75s-.75.3358-.75.75h1.5zm-1.5.5c0 .4142.3358.75.75.75s.75-.3358.75-.75h-1.5zm0-.5v.5h1.5V22h-1.5zM18.75 13.5c0-.4142-.3358-.75-.75-.75s-.75.3358-.75.75h1.5zm-1.5.5c0 .4142.3358.75.75.75s.75-.3358.75-.75h-1.5zm0-.5v.5h1.5v-.5h-1.5z" fill="#3858E9"/>
</svg>
