<svg width="36" height="36" fill="none" xmlns="http://www.w3.org/2000/svg">
  <path fill-rule="evenodd" clip-rule="evenodd" d="M23.5 15c0 1.1046-.8954 2-2 2s-2-.8954-2-2 .8954-2 2-2 2 .8954 2 2zm-4.25 8v-2c0-1.5188-1.2312-2.75-2.75-2.75h-4c-1.5188 0-2.75 1.2312-2.75 2.75v2h1.5v-2c0-.6904.5596-1.25 1.25-1.25h4c.6904 0 1.25.5596 1.25 1.25v2h1.5zm7-2v2h-1.5v-2c0-.6904-.5596-1.25-1.25-1.25H21v-1.5h2.5c1.5188 0 2.75 1.2312 2.75 2.75zM14.5 17c1.1046 0 2-.8954 2-2s-.8954-2-2-2-2 .8954-2 2 .8954 2 2 2z" fill="#3858E9"/>
</svg>
