<svg width="147" height="116" viewBox="0 0 147 116" fill="none" xmlns="http://www.w3.org/2000/svg">
<rect x="32.0005" y="0.5" width="84" height="115" rx="4.59053" fill="#F7EDF7"/>
<g filter="url(#filter0_d_887_116871)">
<rect width="81.7778" height="92.4444" rx="4.30362" transform="matrix(-1 0 0 1 91.7778 11.3438)" fill="white"/>
</g>
<path fill-rule="evenodd" clip-rule="evenodd" d="M63.6653 22.7227H38.8319C37.2603 22.7227 35.9881 23.9625 36.0006 25.4672V34.6158C36.0006 36.1325 37.2728 37.3603 38.8444 37.3603H50.6063L55.9821 40.2493L54.7597 37.3603H63.6653C65.2369 37.3603 66.5091 36.1325 66.5091 34.6158V25.4672C66.5091 23.9505 65.2369 22.7227 63.6653 22.7227ZM38.3088 24.8416C37.9595 24.8657 37.6976 24.9861 37.523 25.2148C37.3484 25.4315 37.286 25.7083 37.3234 26.0213C38.0593 30.5354 38.7453 33.5809 39.3814 35.1578C39.6309 35.7356 39.9178 36.0125 40.2545 35.9884C40.7784 35.9523 41.402 35.2541 42.1379 33.8939C42.5246 33.1235 43.1233 31.9679 43.934 30.4271C44.6075 32.7022 45.5305 34.4115 46.6905 35.5551C47.0148 35.8801 47.3515 36.0245 47.6758 36.0005C47.9627 35.9764 48.1872 35.8319 48.3369 35.5671C48.4616 35.3384 48.5115 35.0736 48.4865 34.7726C48.4117 33.6772 48.524 32.1484 48.8358 30.1863C49.1601 28.164 49.5592 26.7075 50.0456 25.8408C50.1454 25.6602 50.1828 25.4796 50.1704 25.263C50.1454 24.9861 50.0207 24.7574 49.7837 24.5768C49.5467 24.3962 49.2848 24.312 48.9979 24.3361C48.6362 24.3601 48.3618 24.5287 48.1747 24.8657C47.4014 26.226 46.8526 28.4288 46.5283 31.4864C46.0544 30.3308 45.6552 28.9705 45.3434 27.3695C45.2062 26.6593 44.8694 26.3223 44.3206 26.3584C43.9465 26.3824 43.6346 26.6232 43.3852 27.0806L40.6537 32.1003C40.2046 30.3548 39.7806 28.2242 39.3939 25.7083C39.3066 25.0824 38.9449 24.7935 38.3088 24.8416ZM62.3436 25.7089C63.2291 25.8895 63.8902 26.3469 64.3392 27.1053C64.7383 27.7553 64.9379 28.5378 64.9379 29.4767C64.9379 30.7166 64.6136 31.8481 63.965 32.8833C63.2167 34.0871 62.2438 34.689 61.034 34.689C60.8219 34.689 60.5974 34.6649 60.3604 34.6168C59.4749 34.4362 58.8138 33.9788 58.3648 33.2204C57.9657 32.5583 57.7661 31.7639 57.7661 30.837C57.7661 29.5971 58.0904 28.4656 58.739 27.4424C59.4998 26.2386 60.4727 25.6367 61.6701 25.6367C61.8821 25.6367 62.1066 25.6608 62.3436 25.7089ZM61.8197 32.2213C62.2812 31.824 62.593 31.2342 62.7677 30.4397C62.8175 30.1629 62.855 29.8619 62.855 29.5489C62.855 29.1998 62.7801 28.8267 62.6305 28.4535C62.4434 27.984 62.1939 27.7313 61.8946 27.6711C61.4455 27.5868 61.009 27.8276 60.5974 28.4174C60.2606 28.8748 60.0486 29.3563 59.9364 29.8499C59.874 30.1267 59.849 30.4277 59.849 30.7286C59.849 31.0777 59.9239 31.4509 60.0736 31.824C60.2606 32.2935 60.5101 32.5463 60.8094 32.6065C61.1213 32.6667 61.458 32.5343 61.8197 32.2213ZM56.5189 27.1053C56.0699 26.3469 55.3964 25.8895 54.5233 25.7089C54.2863 25.6608 54.0618 25.6367 53.8498 25.6367C52.6524 25.6367 51.6795 26.2386 50.9187 27.4424C50.2701 28.4656 49.9458 29.5971 49.9458 30.837C49.9458 31.7639 50.1454 32.5583 50.5445 33.2204C50.9935 33.9788 51.6546 34.4362 52.5401 34.6168C52.7771 34.6649 53.0016 34.689 53.2136 34.689C54.4235 34.689 55.3964 34.0871 56.1447 32.8833C56.7933 31.8481 57.1176 30.7166 57.1176 29.4767C57.1176 28.5378 56.918 27.7553 56.5189 27.1053ZM54.9474 30.4397C54.7727 31.2342 54.4609 31.824 53.9994 32.2213C53.6377 32.5343 53.301 32.6667 52.9891 32.6065C52.6898 32.5463 52.4403 32.2935 52.2533 31.824C52.1036 31.4509 52.0287 31.0777 52.0287 30.7286C52.0287 30.4277 52.0537 30.1267 52.1161 29.8499C52.2283 29.3563 52.4403 28.8748 52.7771 28.4174C53.1887 27.8276 53.6252 27.5868 54.0743 27.6711C54.3736 27.7313 54.6231 27.984 54.8102 28.4535C54.9598 28.8267 55.0347 29.1998 55.0347 29.5489C55.0347 29.8619 55.0097 30.1629 54.9474 30.4397Z" fill="#7F54B3"/>
<rect x="20.0005" y="84.5" width="62" height="11" rx="1.72145" fill="#674399"/>
<rect x="20.311" y="47.5" width="25.6" height="4.26667" rx="2.13333" fill="#DCDCDE"/>
<rect x="20.311" y="54.3203" width="61.1556" height="4.26666" rx="2.13333" fill="#DCDCDE"/>
<g filter="url(#filter1_d_887_116871)">
<rect x="56.2231" y="40.8555" width="81.4222" height="28.4444" rx="4.30362" fill="white" shape-rendering="crispEdges"/>
<rect x="80.6104" y="46.5936" width="6.59889" height="2.29526" rx="1.14763" fill="#DCDCDE"/>
<rect x="80.6104" y="51.1841" width="33.2813" height="2.29526" rx="1.14763" fill="#DCDCDE"/>
<rect x="80.6104" y="55.7747" width="22.0919" height="2.29526" rx="1.14763" fill="#AF7DD1"/>
<circle cx="69.001" cy="54.5" r="9" fill="#9A69C7"/>
<mask id="mask0_887_116871" style="mask-type:alpha" maskUnits="userSpaceOnUse" x="65" y="50" width="7" height="9">
<path fill-rule="evenodd" clip-rule="evenodd" d="M65.2925 53.9042L67.4008 56.0125L71.7091 51.75L70.7925 50.8334L67.4008 54.225L66.2091 53.0334L65.2925 53.9042ZM71.7091 57.25H65.2925V58.1667H71.7091V57.25Z" fill="white"/>
</mask>
<g mask="url(#mask0_887_116871)">
<rect x="63.001" y="49" width="11" height="11" fill="white"/>
</g>
</g>
<rect x="20.0005" y="68.5" width="3" height="11" fill="#C792E0"/>
<rect x="24.5005" y="68.5" width="1" height="11" fill="#C792E0"/>
<rect x="27.0005" y="68.5" width="5" height="11" fill="#C792E0"/>
<rect x="33.5005" y="68.5" width="3" height="11" fill="#C792E0"/>
<rect x="38.0005" y="68.5" width="3" height="11" fill="#C792E0"/>
<rect x="42.5005" y="68.5" width="4" height="11" fill="#C792E0"/>
<rect x="48.0005" y="68.5" width="3" height="11" fill="#C792E0"/>
<rect x="52.5005" y="68.5" width="3" height="11" fill="#C792E0"/>
<rect x="57.0005" y="68.5" width="5" height="11" fill="#C792E0"/>
<rect x="63.5005" y="68.5" width="2" height="11" fill="#C792E0"/>
<rect x="67.0005" y="68.5" width="3" height="11" fill="#C792E0"/>
<rect x="71.5005" y="68.5" width="2" height="11" fill="#C792E0"/>
<rect x="75.0005" y="68.5" width="4" height="11" fill="#C792E0"/>
<rect x="80.5005" y="68.5" width="1" height="11" fill="#C792E0"/>
<defs>
<filter id="filter0_d_887_116871" x="0.818942" y="2.16269" width="100.14" height="110.807" filterUnits="userSpaceOnUse" color-interpolation-filters="sRGB">
<feFlood flood-opacity="0" result="BackgroundImageFix"/>
<feColorMatrix in="SourceAlpha" type="matrix" values="0 0 0 0 0 0 0 0 0 0 0 0 0 0 0 0 0 0 127 0" result="hardAlpha"/>
<feOffset/>
<feGaussianBlur stdDeviation="4.59053"/>
<feColorMatrix type="matrix" values="0 0 0 0 0 0 0 0 0 0 0 0 0 0 0 0 0 0 0.1 0"/>
<feBlend mode="normal" in2="BackgroundImageFix" result="effect1_dropShadow_887_116871"/>
<feBlend mode="normal" in="SourceGraphic" in2="effect1_dropShadow_887_116871" result="shape"/>
</filter>
<filter id="filter1_d_887_116871" x="47.0421" y="34.5435" width="99.7845" height="46.8066" filterUnits="userSpaceOnUse" color-interpolation-filters="sRGB">
<feFlood flood-opacity="0" result="BackgroundImageFix"/>
<feColorMatrix in="SourceAlpha" type="matrix" values="0 0 0 0 0 0 0 0 0 0 0 0 0 0 0 0 0 0 127 0" result="hardAlpha"/>
<feOffset dy="2.86908"/>
<feGaussianBlur stdDeviation="4.59053"/>
<feComposite in2="hardAlpha" operator="out"/>
<feColorMatrix type="matrix" values="0 0 0 0 0 0 0 0 0 0 0 0 0 0 0 0 0 0 0.1 0"/>
<feBlend mode="normal" in2="BackgroundImageFix" result="effect1_dropShadow_887_116871"/>
<feBlend mode="normal" in="SourceGraphic" in2="effect1_dropShadow_887_116871" result="shape"/>
</filter>
</defs>
</svg>
