<?xml version="1.0" standalone="no"?>
<!DOCTYPE svg PUBLIC "-//W3C//DTD SVG 1.1//EN" "http://www.w3.org/Graphics/SVG/1.1/DTD/svg11.dtd" >
<svg xmlns="http://www.w3.org/2000/svg" xmlns:xlink="http://www.w3.org/1999/xlink" version="1.1">
<metadata>
Created by FontForge 20201107 at Fri Feb 18 01:23:36 2022
 By Dell7010

</metadata>
<defs>
<font id="WooCommerce" horiz-adv-x="1024" >
  <font-face
    font-family="WooCommerce"
    font-weight="400"
    font-stretch="normal"
    units-per-em="1024"
    panose-1="0 0 0 0 0 0 0 0 0 0"
    ascent="960"
    descent="-64"
    bbox="-4 -109 1076 960.031"
    underline-thickness="0"
    underline-position="0"
    unicode-range="U+0001-FFFD"
  />
<missing-glyph
 />
    <glyph glyph-name=".notdef" unicode="&#xfffd;"
 />
    <glyph glyph-name="glyph1" horiz-adv-x="0"
d="M0 0v0v0v0z" />
    <glyph glyph-name="glyph1" horiz-adv-x="0"
d="M0 0v0v0v0z" />
    <glyph glyph-name="uni0001" horiz-adv-x="0"
d="M0 0v0v0v0z" />
    <glyph glyph-name="space" unicode=" " horiz-adv-x="512"
d="M0 0v0v0v0z" />
    <glyph glyph-name="uniE000" unicode="&#xe000;"
d="M934 717l-422 243l-193 -111l430 -233zM710 593l-430 233l-192 -111l424 -229zM512 442l-444 240v-490l444 -256l444 256v490zM420 171q-8 -4 -17.5 -3.5t-21.5 5.5l-158 74q-12 6 -21.5 14.5t-18.5 20.5q-8 12 -11.5 24t-3.5 23t3.5 18.5t10.5 12.5q7 4 15.5 4.5
t18.5 -3.5q0 2 -0.5 4.5t-0.5 5.5q0 8 2.5 13.5t8.5 8.5t13 2.5t15 -4.5q4 -2 7.5 -4.5t8.5 -4.5q4 6 10 9.5t14 4.5q7 1 15.5 -0.5t17.5 -5.5q13 -6 24 -16.5t20 -23.5q10 -13 14.5 -27t4.5 -27v-7t-3 -9q11 -5 19.5 -13.5t15.5 -20.5q7 -11 10.5 -22.5t3.5 -22.5
q1 -10 -3 -18t-13 -12v0z" />
    <glyph glyph-name="uniE001" unicode="&#xe001;"
d="M934 717l-422 243l-193 -111l430 -233zM710 593l-430 233l-192 -111l424 -229zM512 442l-444 240v-490l444 -256l444 256v490zM303 175l-110 169l31 -2l64 -96v188l31 -18v-188l63 30l32 -33l-111 -50v0z" />
    <glyph glyph-name="uniE002" unicode="&#xe002;"
d="M512 958l-442 -256v-508l442 -256l442 256v510l-442 254v0zM792 434l-52 -29l-122 67l55 31l119 -69v0zM728 399l-55 -30l-120 65l54 31l121 -66v0zM512 778l120 -69l-52 -29l-122 67zM446 740l121 -66l-55 -30l-120 65l54 31v0zM352 503l120 -69l-52 -29l-121 67l53 31
v0zM286 465l122 -66l-56 -30l-120 65l54 31v0zM477 287l-125 -73l-124 73v139l124 -68l125 68v-139zM387 560v139l125 -68l125 68v-139l-125 -72l-125 72v0zM798 287l-125 -73l-125 73v139l125 -68l125 68v-139z" />
    <glyph glyph-name="uniE003" unicode="&#xe003;"
d="M512 445l-406 221v-450l406 -234l406 234v450zM728 604l171 92l-387 224l-177 -102zM512 484l182 100l-395 213l-176 -101zM921 -21h-47v8h39v17h8v-25v0zM845 -21h-42v8h42v-8zM773 -21h-43v8h43v-8zM702 -21h-43v8h43v-8zM629 -21h-43v8h43v-8zM556 -21h-42v8h42v-8z
M484 -21h-43v8h43v-8v0zM411 -21h-43v8h43v-8v0zM340 -21h-43v8h43v-8v0zM267 -21h-43v8h43v-8zM194 -21h-42v8h42v-8zM122 -21h-21v31h8v-23h13v-8v0zM921 32h-8v43h8v-43zM109 39h-8v42h8v-42zM921 105h-8v43h8v-43zM109 110h-8v42h8v-42zM921 176h-8v43h8v-43zM109 183
h-8v42h8v-42zM921 249h-8v43h8v-43zM109 255h-8v43h8v-43zM921 322h-8v42h8v-42zM109 328h-8v43h8v-43zM921 394h-8v43h8v-43zM109 401h-8v42h8v-42zM921 467h-8v43h8v-43v0zM109 472h-8v42h8v-42v0zM921 540h-8v42h8v-42zM109 544h-8v45h8v-45zM921 611h-8v42h8v-42z
M109 617h-8v43h8v-43zM921 683h-8v43h8v-43zM109 690h-8v42h8v-42zM921 756h-8v43h8v-43zM109 762h-8v43h8v-43zM921 829h-8v43h8v-43zM109 835h-8v43h8v-43zM921 902h-8v12h-23v6h30v-18h1zM109 906h-8v14h36v-7h-28v-7v0zM863 914h-43v6h43v-6zM790 914h-43v6h43v-6z
M717 914h-42v6h42v-6zM645 914h-43v6h43v-6zM574 914h-43v6h43v-6zM501 914h-43v6h43v-6zM428 914h-42v6h42v-6v0zM356 914h-43v6h43v-6v0zM283 914h-43v6h43v-6zM210 914h-42v6h42v-6zM141 917q0 -14 -10.5 -24t-24.5 -10q-15 0 -25 10t-10 24q0 15 10 25t25 10
q14 0 24.5 -10t10.5 -25zM141 -21q0 -15 -10.5 -25t-24.5 -10q-15 0 -25 10t-10 25q0 14 10 24t25 10q14 0 24.5 -10t10.5 -24zM106 394q-17 0 -29 12.5t-12 28.5q0 17 12 29t29 12q16 0 28.5 -12t12.5 -29q0 -16 -12.5 -28.5t-28.5 -12.5zM106 462q-11 0 -19 -8t-8 -19
q0 -10 8 -18.5t19 -8.5t19 8.5t8 18.5q0 11 -8 19t-19 8v0zM918 394q-16 0 -28.5 12.5t-12.5 28.5q0 17 12.5 29t28.5 12q17 0 29 -12t12 -29q0 -16 -11.5 -28.5t-29.5 -12.5zM918 462q-11 0 -19 -8t-8 -19q0 -10 8 -18.5t19 -8.5t19 8.5t8 18.5q0 11 -7.5 19t-19.5 8v0z
M953 917q0 -14 -10 -24t-25 -10q-14 0 -24.5 10t-10.5 24q0 15 10.5 25t24.5 10q15 0 25 -10t10 -25zM512 876q-17 0 -29 12.5t-12 28.5q0 17 12 29t29 12t29 -12t12 -29q0 -16 -12 -28.5t-29 -12.5zM512 944q-11 0 -19 -8t-8 -19q0 -10 8 -18.5t19 -8.5t19 8.5t8 18.5
q0 11 -8 19t-19 8zM512 -62q-17 0 -29 12t-12 29q0 16 12 28.5t29 12.5t29 -12.5t12 -28.5q0 -17 -12 -29t-29 -12zM512 6q-11 0 -19 -8.5t-8 -18.5q0 -11 8 -19t19 -8t19 8t8 19q0 10 -8 18.5t-19 8.5zM953 -21q0 -15 -10 -25t-25 -10q-14 0 -24.5 10t-10.5 25
q0 14 10.5 24t24.5 10q15 0 25 -10t10 -24z" />
    <glyph glyph-name="uniE004" unicode="&#xe004;"
d="M512 -64q106 0 199.5 40t163 109.5t109.5 163t40 199.5t-40 199.5t-109.5 163t-163 109.5t-199.5 40t-199.5 -40t-163 -109.5t-109.5 -163t-40 -199.5t40 -199.5t109.5 -163t163 -109.5t199.5 -40v0zM512 0q-93 0 -174.5 35t-142.5 96t-96 142.5t-35 174.5t35 174.5
t96 142.5t142.5 96t174.5 35t174.5 -35t142.5 -96t96 -142.5t35 -174.5t-35 -174.5t-96 -142.5t-142.5 -96t-174.5 -35v0zM322 437v-51h83l-90 -96q-8 -9 -7.5 -23.5t10.5 -25.5q9 -9 21 -10t22 7l89 97v-77h51v179h-179v0zM706 463v51h-87l90 96q9 8 8 21t-11 24
q-10 10 -20.5 10.5t-19.5 -9.5l-88 -93v79h-51v-179h179z" />
    <glyph glyph-name="uniE005" unicode="&#xe005;"
d="M525 640v-51h82l-236 -233v79h-51v-179h179v51h-87l241 231v-77h51v179h-179v0zM512 -64q106 0 199.5 40t163 109.5t109.5 163t40 199.5t-40 199.5t-109.5 163t-163 109.5t-199.5 40t-199.5 -40t-163 -109.5t-109.5 -163t-40 -199.5t40 -199.5t109.5 -163t163 -109.5
t199.5 -40v0zM512 0q-93 0 -174.5 35t-142.5 96t-96 142.5t-35 174.5t35 174.5t96 142.5t142.5 96t174.5 35t174.5 -35t142.5 -96t96 -142.5t35 -174.5t-35 -174.5t-96 -142.5t-142.5 -96t-174.5 -35v0z" />
    <glyph glyph-name="uniE006" unicode="&#xe006;"
d="M512 442l-444 240v-490l444 -256l444 256v490zM749 616l185 101l-422 243l-193 -111zM512 486l198 107l-430 233l-192 -111z" />
    <glyph glyph-name="uniE007" unicode="&#xe007;"
d="M269 486v-76h205v-205h76v205h205v76h-205v205h-76v-205h-205v0zM0 448q0 -106 40 -199.5t109.5 -163t163 -109.5t199.5 -40t199.5 40t163 109.5t109.5 163t40 199.5t-40 199.5t-109.5 163t-163 109.5t-199.5 40t-199.5 -40t-163 -109.5t-109.5 -163t-40 -199.5v0z
M64 448q0 93 35 174.5t96 142.5t142.5 96t174.5 35t174.5 -35t142.5 -96t96 -142.5t35 -174.5t-35 -174.5t-96 -142.5t-142.5 -96t-174.5 -35t-174.5 35t-142.5 96t-96 142.5t-35 174.5v0z" />
    <glyph glyph-name="uniE008" unicode="&#xe008;"
d="M552 243l136 141l34 36l18 18l-180 189l-51 -52l83 -89h-246q-22 0 -37 -14.5t-15 -36.5q0 -21 15 -36t37 -15h243l-87 -90l50 -51v0zM512 -64q106 0 199.5 40t163 109.5t109.5 163t40 199.5t-40 199.5t-109.5 163t-163 109.5t-199.5 40t-199.5 -40t-163 -109.5
t-109.5 -163t-40 -199.5t40 -199.5t109.5 -163t163 -109.5t199.5 -40zM512 0q-93 0 -174.5 35t-142.5 96t-96 142.5t-35 174.5t35 174.5t96 142.5t142.5 96t174.5 35t174.5 -35t142.5 -96t96 -142.5t35 -174.5t-35 -174.5t-96 -142.5t-142.5 -96t-174.5 -35v0z" />
    <glyph glyph-name="uniE009" unicode="&#xe009;"
d="M717 488l-141 136l-36 34l-18 18l-189 -180l52 -51l89 83v-246q0 -22 14.5 -37t36.5 -15q21 0 36 15t15 37v243l90 -87zM1024 448q0 106 -40 199.5t-109.5 163t-163 109.5t-199.5 40t-199.5 -40t-163 -109.5t-109.5 -163t-40 -199.5t40 -199.5t109.5 -163t163 -109.5
t199.5 -40t199.5 40t163 109.5t109.5 163t40 199.5zM960 448q0 -93 -35 -174.5t-96 -142.5t-142.5 -96t-174.5 -35t-174.5 35t-142.5 96t-96 142.5t-35 174.5t35 174.5t96 142.5t142.5 96t174.5 35t174.5 -35t142.5 -96t96 -142.5t35 -174.5v0z" />
    <glyph glyph-name="uniE00A" unicode="&#xe00a;"
d="M307 408l141 -136l36 -34l18 -18l189 180l-52 51l-89 -83v246q0 22 -14.5 37t-36.5 15q-21 0 -36 -15t-15 -37v-243l-90 87l-51 -50v0zM0 448q0 -106 40 -199.5t109.5 -163t163 -109.5t199.5 -40t199.5 40t163 109.5t109.5 163t40 199.5t-40 199.5t-109.5 163t-163 109.5
t-199.5 40t-199.5 -40t-163 -109.5t-109.5 -163t-40 -199.5v0zM64 448q0 93 35 174.5t96 142.5t142.5 96t174.5 35t174.5 -35t142.5 -96t96 -142.5t35 -174.5t-35 -174.5t-96 -142.5t-142.5 -96t-174.5 -35t-174.5 35t-142.5 96t-96 142.5t-35 174.5v0z" />
    <glyph glyph-name="uniE00B" unicode="&#xe00b;"
d="M472 653l-136 -141l-34 -36l-18 -18l180 -189l51 53l-83 88h246q22 0 37 14.5t15 36.5q0 21 -15 36t-37 15h-243l87 90l-50 51v0zM512 960q-106 0 -199.5 -40t-163 -109.5t-109.5 -163t-40 -199.5t40 -199.5t109.5 -163t163 -109.5t199.5 -40t199.5 40t163 109.5
t109.5 163t40 199.5t-40 199.5t-109.5 163t-163 109.5t-199.5 40zM512 896q93 0 174.5 -35t142.5 -96t96 -142.5t35 -174.5t-35 -174.5t-96 -142.5t-142.5 -96t-174.5 -35t-174.5 35t-142.5 96t-96 142.5t-35 174.5t35 174.5t96 142.5t142.5 96t174.5 35z" />
    <glyph glyph-name="uniE00C" unicode="&#xe00c;"
d="M845 115l-256 256l-179 -179l-77 77l-154 -154h666v0zM282 474q0 -32 22 -54.5t54 -22.5t54.5 22.5t22.5 54.5t-22.5 54t-54.5 22t-54 -22t-22 -54v0zM947 704v-691h-870v691h870zM1024 960h-1024v-1024h949q18 0 28 6t21 18q13 12 19.5 28t6.5 33v939v0z" />
    <glyph glyph-name="uniE00D" unicode="&#xe00d;"
d="M752 879q-39 38 -95 38t-95 -39l-480 -480q-39 -39 -39 -95t38 -95l17 -17l67 68l-44 44l536 536l44 -44l68 67l-17 17v0zM255 34l17 -17q39 -38 95 -38t95 39l480 480q39 39 39 95t-38 95l-17 17l-67 -68l44 -44l-536 -536l-44 44l-68 -67v0zM993 950q-10 10 -23 10
t-23 -9l-313 -312q-8 -10 -8 -23t8 -23l23 -23q10 -8 23 -8t23 8l312 313q9 10 9 23t-10 23l-21 21v0zM367 326q-10 8 -23 8t-23 -8l-312 -313q-9 -10 -9 -23t10 -23l21 -21q10 -10 23 -10t23 9l313 312q8 10 8 23t-8 23z" />
    <glyph glyph-name="uniE00E" unicode="&#xe00e;"
d="M358 525l-76 -77h76v-230h-76v-52h204v52h-76v307h-52zM589 525q-22 0 -36.5 -15t-14.5 -36v-256q0 -22 14.5 -37t36.5 -15h102q22 0 36.5 15t14.5 37v256q0 21 -14.5 36t-36.5 15h-102zM589 474h102v-256h-102v256zM947 678v-665h-870v665h870v0zM1024 960h-1024v-1024
h949q18 0 28 6t21 18q13 12 19.5 28t6.5 33v939v0zM755 858q16 0 27.5 -11.5t11.5 -27.5t-11.5 -27t-27.5 -11t-27 11t-11 27t11 27.5t27 11.5zM243 858q16 0 27.5 -11.5t11.5 -27.5t-11.5 -27t-27.5 -11t-27 11t-11 27t11 27.5t27 11.5z" />
    <glyph glyph-name="uniE00F" unicode="&#xe00f;"
d="M153 295q-63 0 -108 44.5t-45 108.5q0 63 44.5 108t108.5 45q63 0 108.5 -44.5t45.5 -108.5q0 -63 -45.5 -108t-108.5 -45zM512 295q-63 0 -108 44.5t-45 108.5q0 63 44.5 108t108.5 45q63 0 108 -44.5t45 -108.5q0 -63 -45 -108t-108 -45zM871 295q-63 0 -108.5 44.5
t-45.5 108.5q0 63 45 108t109 45q63 0 108 -44.5t45 -108.5q0 -63 -44.5 -108t-108.5 -45z" />
    <glyph glyph-name="uniE010" unicode="&#xe010;"
d="M306 429q0 -41 16 -76.5t44 -62.5t65.5 -42t80.5 -15t80.5 15t65.5 42t44 62.5t16 76.5q0 35 -13 67t-37 58q77 -18 142.5 -47t112.5 -57t74 -48l27 -20v91l-40.5 29.5t-109.5 65.5t-162 65.5t-197 29.5t-197.5 -29.5t-164 -65.5t-112 -65.5l-41.5 -29.5v-91l26.5 19.5
t74 47t112 56.5t140.5 48q-22 -26 -34.5 -57.5t-12.5 -66.5v0z" />
    <glyph glyph-name="uniE011" unicode="&#xe011;"
d="M512 960q-106 0 -199.5 -40t-163 -109.5t-109.5 -163t-40 -199.5t40 -199.5t109.5 -163t163 -109.5t199.5 -40t199.5 40t163 109.5t109.5 163t40 199.5t-40 199.5t-109.5 163t-163 109.5t-199.5 40zM291 355q-39 0 -67 27.5t-28 67.5q0 39 28 66.5t67 27.5t67 -27.5
t28 -66.5q0 -41 -28 -68t-67 -27zM512 355q-39 0 -67 27.5t-28 67.5q0 39 28 66.5t67 27.5t67 -27.5t28 -66.5q0 -41 -28 -68t-67 -27zM733 355q-39 0 -67 27.5t-28 67.5q0 39 28 66.5t67 27.5t67 -27.5t28 -66.5q0 -41 -28 -68t-67 -27v0z" />
    <glyph glyph-name="uniE012" unicode="&#xe012;"
d="M512 960q-106 0 -199.5 -40t-163 -109.5t-109.5 -163t-40 -199.5t40 -199.5t109.5 -163t163 -109.5t199.5 -40t199.5 40t163 109.5t109.5 163t40 199.5t-40 199.5t-109.5 163t-163 109.5t-199.5 40zM479 385v0q-3 2 -6.5 4.5t-7.5 6.5q-10 9 -14.5 21t-4.5 26v2.5t1 4.5
q1 2 1.5 4l0.5 2v0l65 321l64 -321l203 -213l-302 142v0z" />
    <glyph glyph-name="uniE013" unicode="&#xe013;"
d="M512 960q-106 0 -199.5 -40t-163 -109.5t-109.5 -163t-40 -199.5t40 -199.5t109.5 -163t163 -109.5t199.5 -40t199.5 40t163 109.5t109.5 163t40 199.5t-40 199.5t-109.5 163t-163 109.5t-199.5 40zM798 244l-82 -82l-206 204l-203 -204l-83 82l204 204l-204 204l83 82
l203 -204l206 204l82 -82l-205 -206l205 -202v0z" />
    <glyph glyph-name="uniE014" unicode="&#xe014;"
d="M512 960q-106 0 -199.5 -40t-163 -109.5t-109.5 -163t-40 -199.5t40 -199.5t109.5 -163t163 -109.5t199.5 -40t199.5 40t163 109.5t109.5 163t40 199.5t-40 199.5t-109.5 163t-163 109.5t-199.5 40zM801 247h-441v-80l-159 120l159 120v-81h361v120l80 60v-259v0z
M681 489v81h-360v-120l-81 -60v260h441v81l160 -120l-160 -122v0z" />
    <glyph glyph-name="uniE015" unicode="&#xe015;"
d="M512 960q-106 0 -199.5 -40t-163 -109.5t-109.5 -163t-40 -199.5t40 -199.5t109.5 -163t163 -109.5t199.5 -40t199.5 40t163 109.5t109.5 163t40 199.5t-40 199.5t-109.5 163t-163 109.5t-199.5 40zM479 175h-87l-198 262l87 82l154 -122l308 328l87 -62z" />
    <glyph glyph-name="uniE016" unicode="&#xe016;"
d="M512 960q52 0 102 -10.5t97 -30.5q48 -20 88.5 -47.5t74.5 -61.5t61.5 -74.5t47.5 -88.5q20 -47 30.5 -97t10.5 -102t-10.5 -102t-30.5 -97q-20 -48 -47.5 -88.5t-61.5 -74.5t-74.5 -61.5t-88.5 -47.5q-47 -20 -97 -30.5t-102 -10.5t-102 10.5t-97 30.5
q-48 20 -88.5 47.5t-74.5 61.5t-61.5 74.5t-47.5 88.5q-20 47 -30.5 97t-10.5 102t10.5 102t30.5 97q20 48 47.5 88.5t61.5 74.5t74.5 61.5t88.5 47.5q47 21 97 31t102 10v0zM585 361l22 413h-190l22 -413h146v0zM578 146q12 11 18 26.5t6 35.5t-6 35.5t-18 25.5
q-11 11 -28 17t-40 6q-22 0 -39 -6t-29 -17q-11 -10 -17 -25.5t-6 -35.5q0 -19 6 -34.5t17 -27.5q12 -10 29.5 -16t38.5 -6q23 0 40 5t28 17z" />
    <glyph glyph-name="uniE017" unicode="&#xe017;"
d="M0 418l294 -290l36 -34l18 -17l676 665l-78 77l-599 -590l-270 265z" />
    <glyph glyph-name="uniE018" unicode="&#xe018;"
d="M550 348q69 12 105 57t36 120q0 85 -47 132t-132 47q-82 0 -128 -43t-51 -123h51q5 58 36 86.5t92 28.5q64 0 96 -32t32 -96q0 -54 -22 -84t-68 -40v9l-76 -26v-77h76v41v0zM474 256v-77h76v77h-76v0zM0 448q0 -106 40 -199.5t109.5 -163t163 -109.5t199.5 -40t199.5 40
t163 109.5t109.5 163t40 199.5t-40 199.5t-109.5 163t-163 109.5t-199.5 40t-199.5 -40t-163 -109.5t-109.5 -163t-40 -199.5v0zM64 448q0 93 35 174.5t96 142.5t142.5 96t174.5 35t174.5 -35t142.5 -96t96 -142.5t35 -174.5t-35 -174.5t-96 -142.5t-142.5 -96t-174.5 -35
t-174.5 35t-142.5 96t-96 142.5t-35 174.5v0z" />
    <glyph glyph-name="uniE019" unicode="&#xe019;"
d="M664 192q7 0 11.5 1.5t8.5 4.5q-7 2 -13.5 5t-10.5 8q-10 10 -15 24t-5 27v510q0 13 5 22t15 19t26.5 14.5t28.5 4.5h2v68q0 13 -4.5 24.5t-14.5 21.5q-9 9 -15 11.5t-19 2.5h-589q-12 0 -28.5 -4.5t-26.5 -14.5t-15 -19t-5 -22v-638q0 -13 5 -27t15 -24t26.5 -14.5
t28.5 -4.5h589v0zM717 269v486l230 -51v-435h-230zM971 781l-254 51h-2q-12 0 -28.5 -4.5t-26.5 -14.5t-15 -19t-5 -22v-510q0 -13 5 -27t15 -24q4 -5 10.5 -8t13.5 -5q8 -4 16 -5t15 -1h256q13 0 19 4.5t15 13.5q10 11 14.5 25t4.5 27v459q0 13 -4.5 24.5t-14.5 21.5
q-9 9 -15 11.5t-19 2.5zM77 26q0 -38 26 -64t63 -26q38 0 64 26t26 64q0 37 -26 63t-64 26q-37 0 -63 -26t-26 -63v0zM768 26q0 -38 26 -64t64 -26q37 0 63 26t26 64q0 37 -26 63t-63 26q-38 0 -64 -26t-26 -63v0z" />
    <glyph glyph-name="uniE01A" unicode="&#xe01a;"
d="M303 124q0 -34 -24 -58t-58 -24t-58 24t-24 58t24 58t58 24t58 -24t24 -58zM992 695h-260v175q0 13 -9.5 22.5t-22.5 9.5h-668q-13 0 -22.5 -9.5t-9.5 -22.5v-714q0 -13 9.5 -22.5t22.5 -9.5h60q0 53 38 91.5t91 38.5q54 0 92 -38.5t38 -91.5h317q0 4 0.5 8t1.5 8v2v3
t1 5t1 6v2t1 1q3 7 5.5 14t7.5 14l0.5 1l0.5 1q3 3 4.5 6t3.5 5l0.5 0.5t1.5 0.5q5 6 10.5 12t11.5 11v0v0q4 2 7.5 4.5t6.5 4.5q14 8 30.5 12.5t34.5 4.5q53 0 91.5 -38t38.5 -91h66q13 0 22.5 9t9.5 22v506q-2 17 -11.5 27t-22.5 10v0zM879 124q0 -34 -24.5 -58t-58.5 -24
t-58 24t-24 58t24 58t58 24t58.5 -24t24.5 -58z" />
    <glyph glyph-name="uniE01B" unicode="&#xe01b;"
d="M569 819h-19v-81q9 -9 14.5 -4t11.5 -12v-49q0 -6 5.5 -9t8.5 -3q19 0 58 36.5t56 49.5q-33 30 -67.5 46t-67.5 26zM474 819h-25q-57 -13 -118.5 -46.5t-112.5 -114.5v-7q3 3 9 4.5t8 1.5q5 0 6 -1.5t2 -4.5v-55q0 -10 19 -57.5t31 -50.5q6 -2 12.5 -1t10.5 -3
q13 -15 19.5 -35t17.5 -34q16 -21 38.5 -41.5t43.5 -29.5q8 -5 20 -2t19 -9v-90q0 -14 17 -9t17 -21v-10q-3 -13 -15.5 -7.5t-18.5 -10.5v-151q3 -6 14.5 -7t19.5 -1l20 0.5t20 13.5q0 15 -12.5 13.5t-16.5 -0.5q17 20 34 41.5t36 39.5q28 25 39 52t22 49q4 9 9 21t5 16
q0 22 -58.5 53t-63.5 33h-78q-19 9 -37 26.5t-30 37.5v57l5 7h40l6 -7v-55q1 -3 8 -7t10 -4q5 0 4.5 4t3.5 7v99q0 12 18 25t21 15h56q3 0 12 3.5t9 10.5q0 16 -16 7t-24 -1v54q0 16 -14.5 15.5t-19.5 1.5q11 19 20 30t9 24q0 6 -2 8.5t-4 3.5q-7 2 -16 1.5t-15 5.5
q-8 5 -20.5 13.5t-13.5 21.5v57v0zM0 448q0 -106 40 -199.5t109.5 -163t163 -109.5t199.5 -40t199.5 40t163 109.5t109.5 163t40 199.5t-40 199.5t-109.5 163t-163 109.5t-199.5 40t-199.5 -40t-163 -109.5t-109.5 -163t-40 -199.5v0zM64 448q0 93 35 174.5t96 142.5
t142.5 96t174.5 35t174.5 -35t142.5 -96t96 -142.5t35 -174.5t-35 -174.5t-96 -142.5t-142.5 -96t-174.5 -35t-174.5 35t-142.5 96t-96 142.5t-35 174.5v0z" />
    <glyph glyph-name="uniE01C" unicode="&#xe01c;"
d="M0 338q11 -48 30 -93t45 -86q31 11 64 4.5t57 -31.5q25 -24 31.5 -57t-4.5 -64q41 -26 86.5 -45t92.5 -30q13 33 43 54t67 21t67 -21t43 -54q48 11 93 30t86 45q-11 31 -4.5 64t31.5 57q24 25 57 31.5t64 -4.5q26 41 45 86t30 93q-33 13 -54 43t-21 67t21 67t54 43
q-11 48 -30 93t-45 86q-31 -11 -64 -4.5t-57 31.5q-25 24 -31.5 57t4.5 64q-41 26 -86.5 45t-93.5 30q-12 -33 -42 -54t-67 -21t-67 21t-43 54q-48 -11 -93 -30t-86 -45q11 -31 4.5 -64t-31.5 -57q-24 -25 -57 -31.5t-64 4.5q-26 -41 -45 -86t-30 -93q33 -13 54 -43t21 -67
t-21 -67t-54 -43v0zM154 448q0 74 28 139.5t76.5 114t114 76.5t139.5 28t139.5 -28t114 -76.5t76.5 -114t28 -139.5t-28 -139.5t-76.5 -114t-114 -76.5t-139.5 -28t-139.5 28t-114 76.5t-76.5 114t-28 139.5v0z" />
    <glyph glyph-name="uniE01D" unicode="&#xe01d;"
d="M205 656v149q-1 16 -7.5 29t-18.5 25q-11 12 -31 18t-38 6h-36q-17 0 -27 -7.5t-23 -19.5q-10 -10 -16.5 -22.5t-7.5 -27.5h128v-532q0 -17 6.5 -31.5t19.5 -26.5q12 -12 32 -18t37 -6h477q17 0 27 7.5t23 19.5q10 11 16.5 23t7.5 27h-569v78q5 -1 9.5 -1h8.5h521
q18 0 58.5 8.5t53.5 21.5q13 11 22 24t18 31l128 294q0 17 -7 32t-20 27q-13 11 -23 16.5t-27 5.5h-724h-8.5t-9.5 -1v-75h742l-128 -308h-614v234v0zM614 77q0 -27 19 -45.5t45 -18.5q27 0 45.5 18.5t18.5 45.5q0 26 -18.5 45t-45.5 19q-26 0 -45 -19t-19 -45zM102 77
q0 -27 19 -45.5t45 -18.5q27 0 45.5 18.5t18.5 45.5q0 26 -18.5 45t-45.5 19q-26 0 -45 -19t-19 -45v0z" />
    <glyph glyph-name="uniE01E" unicode="&#xe01e;"
d="M666 218h-256v76h256v-76zM358 218h-179v76h179v-76zM947 576h-870v-461h870v461zM947 781h-870v-128h870v128zM947 858q17 0 27 -5.5t23 -17.5t20 -26.5t7 -31.5v-653q0 -17 -6.5 -33.5t-19.5 -27.5q-11 -12 -21 -18.5t-28 -6.5h-854q-17 0 -37 6.5t-32 18.5
q-13 11 -19.5 27.5t-6.5 33.5v652q0 18 6.5 32t19.5 25q11 12 31.5 18.5t37.5 6.5h852v0z" />
    <glyph glyph-name="uniE01F" unicode="&#xe01f;"
d="M819 166h-77v436h77v-436zM640 166h-77v333h77v-333zM461 166h-77v512h77v-512zM282 166h-77v205h77v-205v0zM947 806h-870v-716h870v716zM971 883q13 0 19 -2t15 -12q10 -10 14.5 -21.5t4.5 -24.5v-740q0 -13 -4.5 -27t-14.5 -25q-9 -9 -15 -13.5t-19 -4.5h-896
q-12 0 -28.5 4.5t-26.5 13.5q-10 11 -15 25t-5 27v740q0 13 5 22t15 20q10 9 26.5 13.5t28.5 4.5h896v0z" />
    <glyph glyph-name="uniE020" unicode="&#xe020;"
d="M512 934l158 -321l354 -51l-256 -249l60 -351l-316 165l-316 -165l60 351l-256 249l354 51z" />
    <glyph glyph-name="uniE021" unicode="&#xe021;"
d="M512 937l-158 -321l-354 -52l256 -249l-60 -351l316 165l316 -165l-60 351l256 249l-354 52l-158 321v0zM512 795l118 -236l266 -39l-192 -183l46 -259l-238 122l-238 -122l46 259l-192 183l266 39l118 236v0z" />
    <glyph glyph-name="uniE022" unicode="&#xe022;"
d="M512 956l-422 -418h844l-422 418v0zM90 358l422 -418l422 418h-844v0z" />
    <glyph glyph-name="uniE023" unicode="&#xe023;"
d="M1024 730q0 21 -17.5 36t-42.5 15h-34q-24 0 -42 -15t-18 -36v-794h154v794v0zM589 909q0 21 -17.5 36t-42.5 15h-34q-25 0 -42.5 -15t-17.5 -36v-973h154v973zM154 499q0 22 -18 36.5t-42 14.5h-34q-25 0 -42.5 -14.5t-17.5 -36.5v-563h154v563v0z" />
    <glyph glyph-name="uniE024" unicode="&#xe024;"
d="M269 825q-59 -59 -92.5 -132t-40.5 -149.5t12 -152t65 -139.5l-5 -5l-185 -186q-23 -21 -23 -51.5t21 -52.5q22 -21 52.5 -21t51.5 23l186 185l5 5q64 -46 139.5 -65t152 -12t149.5 40.5t132 92.5q66 65 100 147.5t35 168t-30.5 167t-96.5 145.5q-64 65 -145.5 96.5
t-167 30.5t-168 -35t-147.5 -100v0zM330 764q53 52 119 79t134.5 28t133.5 -24.5t116 -77.5q52 -51 77.5 -116t24.5 -133.5t-28 -134.5t-79 -119q-53 -53 -119 -80t-134.5 -27.5t-134 25t-116.5 76.5t-76.5 116.5t-25 134t27.5 134.5t80 119v0z" />
    <glyph glyph-name="uniE025" unicode="&#xe025;"
d="M411 629q-49 -49 -56.5 -117t26.5 -125l-2 -2l-2 -2l-70 -70q-15 -14 -15 -34.5t15 -35.5t35.5 -15t34.5 15l70 70l2 2l2 2q57 -34 125 -26.5t117 56.5q28 29 42.5 65.5t14.5 74.5t-14.5 74.5t-44.5 65.5q-29 30 -65.5 44.5t-74.5 14.5t-74.5 -14.5t-65.5 -42.5v0z
M455 585q40 39 96.5 39t95.5 -41q41 -39 41 -95.5t-39 -96.5q-40 -40 -96.5 -39.5t-97.5 39.5q-39 41 -39.5 97.5t39.5 96.5v0zM0 448q0 -106 40 -199.5t109.5 -163t163 -109.5t199.5 -40t199.5 40t163 109.5t109.5 163t40 199.5t-40 199.5t-109.5 163t-163 109.5t-199.5 40
t-199.5 -40t-163 -109.5t-109.5 -163t-40 -199.5v0zM64 448q0 93 35 174.5t96 142.5t142.5 96t174.5 35t174.5 -35t142.5 -96t96 -142.5t35 -174.5t-35 -174.5t-96 -142.5t-142.5 -96t-174.5 -35t-174.5 35t-142.5 96t-96 142.5t-35 174.5v0z" />
    <glyph glyph-name="uniE026" unicode="&#xe026;"
d="M612 492q0 38 -25.5 80t-87.5 42t-87 -36t-25 -82q0 -24 11 -65t30 -63q3 -3 16.5 -14t13.5 -18q0 -11 -3 -11t-7 -4q-12 -26 -49.5 -38t-77.5 -24.5t-71.5 -33.5t-31.5 -67q0 -11 9 -21.5t9 -21.5h558v70q0 37 -34.5 53.5t-77.5 27.5t-83 24.5t-52 45.5q43 50 54 81.5
t11 74.5v0zM947 704v-691h-870v691h870v0zM1024 960h-1024v-1024h949q18 0 28 6t21 18q13 12 19.5 28t6.5 33v939v0z" />
    <glyph glyph-name="uniE027" unicode="&#xe027;"
d="M947 609v-596h-819v-77h825q16 0 27.5 5.5t22.5 15.5q10 11 15.5 25t5.5 28v822h-77v-223v0zM819 730v-589h-742v589h742zM896 960h-896v-896h825q16 0 24.5 5.5t19.5 15.5q11 11 19 27.5t8 31.5v816v0z" />
    <glyph glyph-name="uniE028" unicode="&#xe028;"
d="M947 704h-870v-691h870v691zM1024 960v-939q0 -17 -6.5 -33t-19.5 -28q-11 -12 -21 -18t-28 -6h-949v1024h1024z" />
    <glyph glyph-name="uniE029" unicode="&#xe029;"
d="M990 533l-417 380q-34 44 -69 44t-69 -44v-237h-357q-32 0 -55 -28.5t-23 -68.5v-269q0 -39 22.5 -67t54.5 -28h358v-226q34 -43 69 -49.5t69 36.5l417 381q34 44 34 88.5t-34 87.5zM77 445v154h435v256l461 -410l-461 -409v256h-435v153v0z" />
    <glyph glyph-name="uniE02A" unicode="&#xe02a;"
d="M427 926l-380 -418q-44 -33 -44 -68t44 -69h237v-357q0 -32 28.5 -55t68.5 -23h269q39 0 67 22.5t28 54.5v358h226q43 34 49.5 69t-36.5 68l-381 418q-44 34 -88.5 34t-87.5 -34v0zM515 13h-154v435h-256l410 461l409 -461h-256v-435h-153z" />
    <glyph glyph-name="uniE02B" unicode="&#xe02b;"
d="M230 589v-77h308v77h-308v0zM333 435v-128h461v128h-461zM947 794v-692h-870v692h870zM971 870h-896q-12 0 -28.5 -4.5t-26.5 -13.5q-10 -11 -15 -20t-5 -21v-716q0 -12 5 -26t15 -25q10 -10 26.5 -14t28.5 -4h896q13 0 19 4t15 14q10 11 14.5 25t4.5 26v716
q0 12 -4.5 24t-14.5 21q-9 10 -15 12t-19 2v0z" />
    <glyph glyph-name="uniE02C" unicode="&#xe02c;"
d="M947 90h-870v793h-2q-12 0 -28.5 -4.5t-26.5 -13.5q-10 -11 -15 -20t-5 -22v-740q0 -13 5 -27t15 -25q10 -9 26.5 -13.5t28.5 -4.5h896q13 0 19 4.5t15 13.5q10 11 14.5 25t4.5 27v7h-77v0zM870 371q0 -32 22.5 -54.5t54.5 -22.5t54.5 22.5t22.5 54.5t-22.5 54.5
t-54.5 22.5t-54.5 -22.5t-22.5 -54.5zM909 371q0 16 11 27.5t27 11.5t27.5 -11.5t11.5 -27.5t-11.5 -27t-27.5 -11t-27 11t-11 27zM521 643q9 -18 27 -29.5t41 -11.5t41.5 12t27.5 32q50 -11 87.5 -35t66 -55.5t48 -66t32.5 -65.5q7 8 18 14t23 9q-14 30 -36.5 68t-55.5 74
t-77 65t-100 41q-6 26 -26.5 43t-48.5 17t-49 -17.5t-27 -43.5q-64 -19 -111.5 -63t-81.5 -96.5t-54.5 -105t-30.5 -86.5q-25 -8 -40.5 -28t-15.5 -46q0 -32 22.5 -54.5t54.5 -22.5t54.5 22.5t22.5 54.5q0 22 -12 40t-31 28q12 40 31 87t47 90.5t65.5 78t87.5 50.5v0z
M550 678q0 16 11.5 27.5t27.5 11.5t27 -11.5t11 -27.5t-11 -27t-27 -11t-27.5 11t-11.5 27zM218 269q0 16 11 27t27 11t27 -11t11 -27t-11 -27.5t-27 -11.5t-27 11.5t-11 27.5z" />
    <glyph glyph-name="uniE02D" unicode="&#xe02d;"
d="M947 752v-662h-870v662l387 -386q20 -21 48 -21t48 21zM119 806h786l-360 -361q-14 -13 -33 -13t-33 13l-360 361v0zM971 883h-896q-12 0 -28.5 -4.5t-26.5 -13.5q-10 -11 -15 -20t-5 -22v-740q0 -13 5 -27t15 -25q10 -9 26.5 -13.5t28.5 -4.5h896q13 0 19 4.5t15 13.5
q10 11 14.5 25t4.5 27v740q0 13 -4.5 24.5t-14.5 21.5q-9 10 -15 12t-19 2v0z" />
    <glyph glyph-name="uniE02E" unicode="&#xe02e;"
d="M597 -30l380 417q44 34 44 69t-44 69h-238v357q0 32 -27.5 55t-67.5 23h-269q-40 0 -68 -22.5t-28 -54.5v-358h-225q-44 -34 -50.5 -69t37.5 -69l380 -417q44 -34 88 -34t88 34v0zM509 883h154v-435h256l-410 -461l-410 461h256v435h154v0z" />
    <glyph glyph-name="uniE02F" unicode="&#xe02f;"
d="M34 363l417 -380q34 -44 69 -44t69 44v238h357q32 0 55 28t23 68v268q0 40 -22.5 68t-54.5 28h-358v225q-34 44 -69 50.5t-69 -37.5l-417 -380q-34 -44 -34 -88t34 -88v0zM947 451v-154h-435v-256l-461 410l461 409v-255h435v-154v0z" />
    <glyph glyph-name="uniE030" unicode="&#xe030;"
d="M944 883v-229l76 -57v303q0 13 -4 24.5t-14 21.5q-10 9 -15.5 11.5t-18.5 2.5h-896q-13 0 -29.5 -4.5t-26.5 -14.5q-9 -10 -14.5 -19t-5.5 -22v-894q0 -13 5.5 -27t14.5 -24q10 -10 26.5 -14.5t29.5 -4.5h896q13 0 18.5 4.5t15.5 14.5t14 24t4 27v293l-76 -57v-229h-871
v870h871zM278 397h461v-128l289 179l-289 179v-128h-359q-50 0 -76 -26t-26 -76v0z" />
    <glyph glyph-name="uniE031" unicode="&#xe031;"
d="M922 333q2 6 3.5 12.5t2.5 12.5l-75 19q-1 -6 -2.5 -12.5t-3.5 -11.5q-20 -78 -66.5 -138.5t-110.5 -98.5t-139.5 -50t-152.5 8t-137.5 67t-98 111t-49.5 139t9 152q19 78 66 138.5t111 98t139.5 49.5t152.5 -8q43 -11 81 -31t70 -47t57.5 -60.5t43.5 -70.5l-111 -66
q-2 -11 3 -20t15 -11l199 -51q11 -2 20.5 2.5t11.5 15.5l51 199q2 11 -3 20t-16 12l-103 -62q-22 44 -52 82.5t-68.5 70.5t-83.5 55.5t-96 36.5q-93 24 -183.5 10t-167 -59.5t-133 -118t-80.5 -165.5t-9.5 -183.5t59.5 -167t117.5 -132.5t165.5 -80t183.5 -10t167 59.5
t132.5 118t80 165.5v0z" />
    <glyph glyph-name="uniE032" unicode="&#xe032;"
d="M48 858q-20 0 -34 -14t-14 -33v-9q0 -19 14 -33t34 -14h928q20 0 34 14t14 33v9q0 19 -14 33t-34 14h-928v0zM48 499q-20 0 -34 -14t-14 -33v-8q0 -19 14 -33t34 -14h928q20 0 34 14t14 33v8q0 19 -14 33t-34 14h-928v0zM48 141q-20 0 -34 -14t-14 -33v-9q0 -19 14 -33
t34 -14h928q20 0 34 14t14 33v9q0 19 -14 33t-34 14h-928v0z" />
    <glyph glyph-name="uniE033" unicode="&#xe033;"
d="M512 960q-106 0 -199.5 -40t-163 -109.5t-109.5 -163t-40 -199.5t40 -199.5t109.5 -163t163 -109.5t199.5 -40t199.5 40t163 109.5t109.5 163t40 199.5t-40 199.5t-109.5 163t-163 109.5t-199.5 40zM733 355h-442q-39 0 -67 27.5t-28 67.5q0 39 28 66.5t67 27.5h442
q39 0 67 -27.5t28 -66.5q0 -40 -28 -67.5t-67 -27.5v0z" />
    <glyph glyph-name="uniE034" unicode="&#xe034;"
d="M749 616l185 101l-422 243l-193 -111zM512 486l198 107l-430 233l-192 -111zM512 442l-444 240v-490l444 -256l444 256v490zM367 170q0 -7 -4.5 -9t-11.5 3l-142 82q-8 3 -12 10.5t-4 14.5v142q0 7 4 9t12 -2l110 -64l-31 -12l-64 36v-111l111 -63v48l32 12v-96v0z
M414 222l-32 35v49l-88 -38l-22 35l96 41l-65 38l-15 41l126 -73v-128v0z" />
    <glyph glyph-name="uniE035" unicode="&#xe035;"
d="M572 838h193l-210 -227q-20 -20 -18 -54t25 -59q22 -23 49.5 -25t50.5 18l210 227v-180h120v420h-420v-120zM452 386q-22 23 -47.5 24.5t-45.5 -20.5l-207 -220v186h-120v-420h420v120h-203l210 224q20 20 18 50.5t-25 55.5v0z" />
    <glyph glyph-name="uniE036" unicode="&#xe036;"
d="M66 303h194l-210 -227q-20 -20 -18 -54t24 -59q23 -23 50.5 -25t49.5 18l211 227v-180h120v420h-421v-120v0zM968 934q-23 22 -48.5 24t-45.5 -21l-207 -220v187h-120v-421h421v120h-204l210 224q20 20 18 51t-24 56v0z" />
    <glyph glyph-name="uniE037" unicode="&#xe037;"
d="M251 -55q-24 0 -46 9.5t-40 26.5l-127 112q-36 36 -36 87t36 87l84 84q17 17 39.5 26.5t47.5 9.5q24 0 46.5 -9.5t40.5 -26.5v0v0l5.5 -3t14.5 -3t15 3.5l6 3.5l265 265v0v0l3 5.5t3 14.5q0 6 -1.5 10.5t-3.5 6.5l-2 3q-36 35 -36 86t36 87l84 85q18 17 40.5 26.5
t46.5 9.5q25 0 47 -9t40 -27l127 -112q18 -17 27 -39.5t9 -47.5q0 -24 -9 -46.5t-27 -40.5l-648 -648q-17 -17 -39.5 -26.5t-47.5 -9.5v0zM81 137l127 -112q18 -17 43.5 -17t43.5 17l648 648q8 9 13 20t5 23t-4.5 23t-13.5 20l-127 112q-18 17 -43.5 17t-43.5 -17l-84 -84
q-9 -9 -13.5 -20t-4.5 -24q0 -12 4.5 -23t13.5 -20l8 -9q6 -8 11.5 -22t5.5 -32q0 -28 -11 -45t-13 -18l-266 -267q-2 -2 -19 -13t-45 -11t-44.5 11t-18.5 13q-10 9 -21 13.5t-23 4.5q-13 0 -24 -4.5t-20 -13.5l-84 -84q-17 -18 -17.5 -43t17.5 -43v0z" />
    <glyph glyph-name="uniE038" unicode="&#xe038;"
d="M1024 0h-1024v30q0 9 0.5 18t0.5 19q0 8 0.5 16.5t0.5 17.5q0 54 22.5 89t58 58t78 37t83.5 26q51 13 93.5 29t55.5 43q3 4 5 9t4 9q-3 4 -9 10.5t-12 12.5q-3 4 -6.5 7.5t-7.5 8.5q-18 20 -50 77.5t-32 149.5q0 52 15 94t43 71.5t68.5 45.5t90.5 16q54 0 94.5 -20.5
t68 -53.5t41.5 -75t14 -85q0 -74 -18 -130t-84 -136q22 -31 73 -48t106 -31q40 -10 80.5 -22t73 -30.5t53 -46.5t20.5 -70v-146v0zM60 60h904v86q0 46 -48 68t-133 43q-73 18 -139.5 44t-88.5 87l-6 16l11 14q68 80 84 127.5t16 114.5q0 45 -32 109.5t-126 64.5
q-103 0 -130.5 -60t-27.5 -107q0 -77 26 -124t41 -64l7.5 -7.5l6.5 -6.5q17 -18 27.5 -33t10.5 -34v-6l-2 -6l-4.5 -10t-9.5 -20q-23 -45 -75 -65.5t-112 -37.5q-90 -25 -144.5 -54.5t-54.5 -97.5v-18.5v-18.5q-1 -1 -1 -2v-2v0z" />
    <glyph glyph-name="uniE039" unicode="&#xe039;"
d="M5 448q0 -106 40.5 -199.5t110 -163t162.5 -109.5t199 -40t199.5 40t163 109.5t109.5 163t40 199.5t-40 199.5t-109.5 163t-163 109.5t-199.5 40t-199 -40t-162.5 -109.5t-110 -163t-40.5 -199.5v0zM69 448q0 93 35.5 174.5t96 142.5t142 96t174.5 35t174.5 -35
t142.5 -96t96 -142.5t35 -174.5t-35 -174.5t-96 -142.5t-142.5 -96t-174.5 -35t-174.5 35t-142 96t-96 142.5t-35.5 174.5v0z" />
    <glyph glyph-name="uniE03A" unicode="&#xe03a;"
d="M1024 0h-1024v30q0 9 0.5 18t0.5 19q0 8 0.5 16.5t0.5 17.5q0 54 22.5 89t58 58t78 37t83.5 26q51 13 93.5 29t55.5 43q3 4 5 9t4 9q-3 4 -9 10.5t-12 12.5q-3 4 -6.5 7.5t-7.5 8.5q-18 20 -50 77.5t-32 149.5q0 52 15 94t43 71.5t68.5 45.5t90.5 16q54 0 94.5 -20.5
t68 -53.5t41.5 -75t14 -85q0 -74 -18 -130t-84 -136q22 -31 73 -48t106 -31q40 -10 80.5 -22t73 -30.5t53 -46.5t20.5 -70v-146v0z" />
    <glyph glyph-name="uniE03B" unicode="&#xe03b;"
d="M251 -55q-24 0 -46 9.5t-40 26.5l-127 112q-36 36 -36 87t36 87l84 84q17 17 39.5 26.5t47.5 9.5q24 0 46.5 -9.5t40.5 -26.5v0v0l5.5 -3t14.5 -3t15 3.5l6 3.5l265 265v0v0l3 5.5t3 14.5q0 6 -1.5 10.5t-3.5 6.5l-2 3q-36 35 -36 86t36 87l84 85q18 17 40.5 26.5
t46.5 9.5q25 0 47 -9t40 -27l127 -112q18 -17 27 -39.5t9 -47.5q0 -24 -9 -46.5t-27 -40.5l-648 -648q-17 -17 -39.5 -26.5t-47.5 -9.5v0z" />
    <glyph glyph-name="uniE03C" unicode="&#xe03c;"
d="M5 448q0 -106 40.5 -199.5t110 -163t162.5 -109.5t199 -40t199.5 40t163 109.5t109.5 163t40 199.5t-40 199.5t-109.5 163t-163 109.5t-199.5 40t-199 -40t-162.5 -109.5t-110 -163t-40.5 -199.5v0z" />
    <glyph glyph-name="uniE03D" unicode="&#xe03d;"
d="M612 534q0 5 -4.5 28t-23.5 23q-28 0 -37.5 -37.5t-9.5 -44.5q0 -3 5 -31t24 -28q25 0 35.5 38.5t10.5 51.5v0zM814 534q0 5 -4.5 28t-23.5 23q-28 0 -37 -37.5t-9 -44.5q0 -3 4.5 -31t23.5 -28q25 0 35.5 38.5t10.5 51.5zM141 959q-51 0 -87 -36t-36 -88v-650
q0 -52 36 -88t87 -36h340l124 -124v124h278q51 0 87 36t36 88v650q0 52 -36 88t-87 36h-742v0zM668 537q0 -41 -24.5 -98t-77.5 -57q-5 0 -13 2t-13 4q-24 9 -37.5 31.5t-14.5 34.5l-1.5 12t-1.5 29t1.5 31.5l1.5 14.5q11 56 34 81t62 25q44 0 64 -35.5t20 -74.5zM486 658
q0 -2 -6.5 -25t-14.5 -56t-15 -69.5t-7 -63.5v-76q-2 -9 -5.5 -16.5t-16.5 -7.5q-17 0 -33.5 24t-29 53.5t-20.5 55t-9 29.5q-2 -2 -12.5 -28t-25 -55.5t-30.5 -54t-28 -24.5q-19 0 -32 58.5t-15 65.5q-7 42 -16.5 100.5t-9.5 64.5q0 15 3.5 26.5t22.5 11.5q5 0 13.5 -4
t10.5 -13q8 -46 14 -91.5t15 -94.5q1 -2 1.5 -5t2.5 -5q2 4 13 30.5t26 57.5t30.5 56t25.5 25q17 0 24.5 -24.5t9.5 -37.5q5 -16 10 -39t12 -44q0 5 3 37.5t10.5 69.5t20 66.5t32.5 29.5q14 0 20 -6t6 -21v0zM870 537q0 -41 -24.5 -98t-77.5 -57q-5 0 -13 2t-13 4
q-24 9 -37 31.5t-15 34.5l-2 12t-2 29q0 18 2 32l2 14q12 56 34.5 81t61.5 25q45 0 64.5 -35.5t19.5 -74.5z" />
    <glyph glyph-name="uniE600" unicode="&#xe600;"
d="M992 884h-960q-13 0 -22.5 -9t-9.5 -22v-245q66 0 113 -47t47 -113t-47 -113t-113 -47v-245q0 -13 9.5 -22t22.5 -9h959q13 0 22 9t9 22v245q-66 0 -112.5 47t-46.5 113t46.5 113t112.5 47v245q2 13 -7.5 22t-22.5 9v0v0z" />
    <glyph glyph-name="uniE601" unicode="&#xe601;"
d="M0 421v55h330l-110 111l27 55l192 -192l-192 -193l-27 55l110 111h-330v-2zM694 421l110 -110l-27 -56l-192 193l192 193l27 -56l-110 -110h330v-55h-330v1zM479 960h65v-1024h-65v1024z" />
    <glyph glyph-name="uniE602" unicode="&#xe602;"
d="M512 960q-106 0 -199.5 -40t-163 -109.5t-109.5 -163t-40 -199.5t40 -199.5t109.5 -163t163 -109.5t199.5 -40t199.5 40t163 109.5t109.5 163t40 199.5t-40 199.5t-109.5 163t-163 109.5t-199.5 40zM710 758l-506 -506q-29 44 -44 94.5t-15 103.5q0 75 29 142t79 117
t116.5 78.5t142.5 28.5q53 -1 103.5 -16t94.5 -42zM820 646q29 -44 44 -95t15 -103q0 -76 -29 -142.5t-79 -116.5t-116.5 -79t-142.5 -29q-53 0 -103.5 15t-94.5 44l506 506v0z" />
    <glyph glyph-name="uniE603" unicode="&#xe603;"
d="M1000 815l-120 121q-24 23 -58 23t-57 -23l-679 -679l-86 -320l320 85l1 -1l679 679q24 24 24 58t-24 57zM107 94l35 127l143 -143l-128 -34l-50 50v0zM828 617l-146 146l120 121l146 -147z" />
    <glyph glyph-name="uniE604" unicode="&#xe604;"
d="M689 467h169v-73h-169v73v0zM894 134h-820v420h435q12 25 27.5 47t33.5 40h-496v120h820v-66q21 -10 39 -22t34 -26v109q0 17 -6.5 30.5t-18.5 24.5t-21.5 17t-26.5 6h-802q-17 0 -36 -6t-31 -17q-12 -10 -17.5 -23.5t-5.5 -29.5v-617q0 -16 5.5 -31t17.5 -25
q12 -11 31 -17t36 -6h804q17 0 26.5 6t20.5 17q12 10 18 25.5t6 30.5v72q-16 -15 -34 -26.5t-39 -21.5v-31v0zM774 679q-51 0 -96.5 -19.5t-79 -53t-53 -79t-19.5 -96.5q0 -52 19.5 -97t53 -79t79 -53t96.5 -19q52 0 97 19t79 53t53 79t19 97q0 51 -19.5 96.5t-53 79t-79 53
t-96.5 19.5v0zM585 431q0 78 55.5 133.5t133.5 55.5q79 0 134.5 -55.5t55.5 -133.5q0 -79 -55.5 -134.5t-134.5 -55.5q-78 0 -133.5 55.5t-55.5 134.5zM224 467v-73h260q-2 10 -3 18.5t-1 18.5q0 9 1 17.5t3 18.5h-260v0z" />
    <glyph glyph-name="uniE900" unicode="&#xe900;"
d="M795 503q-20 0 -38.5 8t-32.5 21q-14 -13 -32 -21t-39 -8t-39 8t-32 21q-15 -13 -32.5 -21t-39.5 -8q-20 0 -38 8t-33 21q-14 -13 -31.5 -21t-39.5 -8q-20 0 -38.5 8t-32.5 21q-14 -13 -32 -21t-39 -8t-39 8t-32 21q-13 -12 -30.5 -20t-36.5 -9v-373q0 -19 14 -33t34 -14
h231v2q14 0 27.5 13t13.5 28h1v162q19 -10 43.5 -16t51.5 -6t51.5 6t43.5 16v-162h1q0 -15 13.5 -28t28.5 -13v-2h230q19 0 33.5 13.5t14.5 33.5v375q-17 2 -31 9t-26 18q-12 -13 -30 -21t-38 -8v0zM319 295q0 -13 -9 -22.5t-22 -9.5h-68q-13 0 -22.5 9.5t-9.5 22.5v68
q0 13 9.5 22t22.5 9h68q13 0 22 -9t9 -22v-68zM828 295q0 -13 -9.5 -22.5t-22.5 -9.5h-68q-13 0 -22 9.5t-9 22.5v68q0 13 9 22t22 9h68q13 0 22.5 -9t9.5 -22v-68zM994 813h-966q-11 0 -20.5 -8.5t-9.5 -21.5v-175q0 -36 26 -61.5t61 -25.5q22 0 41 9.5t30 26.5
q12 -17 30.5 -26.5t41.5 -9.5q22 0 40.5 9.5t30.5 26.5q12 -17 30 -26.5t41 -9.5q21 0 40 9.5t31 26.5q12 -17 30 -26.5t41 -9.5t41 9.5t30 26.5q12 -17 30.5 -26.5t40.5 -9.5t40.5 9.5t30.5 26.5q12 -17 30.5 -26.5t40.5 -9.5t41 9.5t31 26.5q11 -17 29.5 -26.5t41.5 -9.5
q35 0 61 25.5t26 61.5v175q-2 13 -10.5 21.5t-21.5 8.5v0z" />
    <glyph glyph-name="S" unicode="S" horiz-adv-x="1076"
d="M538 915l166 -337l372 -54l-268 -262l63 -371l-333 175l-333 -175l64 371l-269 262l372 54z" />
    <glyph glyph-name="s" unicode="s" horiz-adv-x="1078"
d="M538 912l-166 -337l-372 -54l269 -262l-63 -368l332 173l331 -173l-63 368l269 262l-371 54zM538 763l124 -247l279 -41l-202 -193l49 -272l-250 129l-250 -129l48 272l-202 193l280 41z" />
  </font>
</defs>
</svg>
