<svg width="159" height="105" viewBox="0 0 159 105" fill="none" xmlns="http://www.w3.org/2000/svg">
<rect x="1.16943" y="1" width="114.053" height="84.5849" rx="10" fill="white"/>
<path d="M152.274 70.631C151.139 71.8704 149.731 72.793 148.203 73.5094H148.201C148.057 73.5775 147.913 73.6438 147.767 73.7064H147.766L147.764 73.7082L147.762 73.7064H147.76C147.76 73.7066 147.76 73.7069 147.76 73.7071C147.76 73.7073 147.76 73.7076 147.76 73.7077C147.759 73.7079 147.759 73.708 147.759 73.7081C147.759 73.7082 147.759 73.7083 147.758 73.7082H147.756L147.755 73.7064C147.753 73.7082 147.753 73.7082 147.751 73.7064L147.749 73.7082L147.747 73.7064H147.745C147.744 73.7082 147.744 73.7082 147.742 73.7064H147.74C146.717 74.1484 145.667 74.5236 144.595 74.8298C138.295 76.6155 131.673 76.9611 125.22 75.8408C125.097 75.8187 124.975 75.7966 124.852 75.7745V60.8375C124.973 60.786 125.097 60.7344 125.22 60.6847C126.026 60.3514 126.841 60.0451 127.666 59.7657C128.853 59.3606 130.057 59.0132 131.277 58.7234C135.258 57.7608 139.366 57.4289 143.45 57.74C144.193 57.7953 144.934 57.8751 145.673 57.9794C147.22 58.1949 148.842 58.5706 150.269 59.2225H150.271C150.479 59.3201 150.684 59.4214 150.886 59.53C152.155 60.2169 153.224 61.1617 153.876 62.4563C154.111 62.9212 154.279 63.4164 154.378 63.9277V63.9314C154.414 64.1082 154.44 64.2868 154.46 64.4636C154.693 66.644 153.788 68.9773 152.274 70.631Z" fill="#C5D9ED"/>
<path d="M154.46 64.4648C154.442 64.4693 154.424 64.4718 154.405 64.4721C151.248 64.6103 148.094 64.8153 144.945 65.0872H144.94C144.927 65.0891 144.916 65.0891 144.903 65.0909C141.67 65.3708 138.443 65.7213 135.224 66.1424C135.087 66.1609 134.953 66.1793 134.818 66.1959C132.592 66.4924 130.369 66.8214 128.151 67.1829C127.172 67.3431 126.195 67.5101 125.22 67.6838C125.097 67.7059 124.975 67.7262 124.852 67.7501V67.1921C124.975 67.1682 125.099 67.1479 125.22 67.1258C128.468 66.5513 131.727 66.0498 134.997 65.6213C135.819 65.5108 136.643 65.4064 137.467 65.3082C139.849 65.0209 142.234 64.7729 144.623 64.5642C144.798 64.5495 144.971 64.5348 145.146 64.52C148.204 64.2604 151.267 64.0633 154.333 63.9289C154.348 63.9282 154.363 63.9295 154.378 63.9326C154.673 63.9584 154.735 64.4003 154.46 64.4648Z" fill="white"/>
<path d="M147.898 73.1648C143.965 73.1936 140.09 71.5273 137.307 68.7691C136.522 67.9878 135.83 67.1183 135.246 66.178C135.058 65.8775 134.619 66.2089 134.805 66.5068C136.966 69.969 140.565 72.4353 144.534 73.3422C145.661 73.5973 146.814 73.7205 147.969 73.7094C148.322 73.7068 148.249 73.1622 147.898 73.1648V73.1648Z" fill="white"/>
<path d="M131.277 58.7246C131.26 58.7764 131.23 58.8228 131.19 58.8593C131.149 58.8959 131.1 58.9211 131.047 58.9327C130.145 59.1687 129.274 59.5086 128.452 59.9456C127.25 60.5796 126.159 61.4036 125.22 62.3856C125.17 62.4354 125.123 62.4851 125.076 62.5367C124.999 62.6177 124.925 62.7006 124.852 62.7853V61.9823C124.97 61.8571 125.093 61.7337 125.22 61.6159C125.961 60.9071 126.782 60.2866 127.666 59.7669C128.853 59.3618 130.057 59.0143 131.277 58.7246Z" fill="white"/>
<path d="M150.591 59.0785C148.089 60.153 145.995 61.9972 144.615 64.3428C144.587 64.4099 144.587 64.4853 144.614 64.5527C144.641 64.62 144.694 64.6739 144.761 64.7026C144.828 64.7292 144.903 64.7288 144.97 64.7016C145.037 64.6745 145.091 64.6225 145.121 64.5566C146.439 62.3413 148.427 60.6012 150.798 59.5874C151.123 59.4485 150.917 58.9394 150.591 59.0785L150.591 59.0785Z" fill="white"/>
<path d="M158.138 43.4369C157.71 45.0612 156.89 46.5326 155.871 47.8751L155.869 47.877C155.775 48.0022 155.677 48.1293 155.576 48.2508V48.2526C154.868 49.1237 154.104 49.9474 153.288 50.7185C150.356 53.5101 147.044 55.874 143.45 57.7404C137.797 60.6906 131.478 62.4346 125.22 62.534C125.172 62.5358 125.124 62.5358 125.076 62.5358C125.001 62.5377 124.925 62.5377 124.852 62.5377V54.1678C124.971 53.9394 125.095 53.7111 125.22 53.4845C126.847 50.561 128.83 47.8503 131.124 45.4148C131.18 45.354 131.237 45.2932 131.294 45.2343C132.157 44.3246 133.061 43.4584 134.007 42.6359C137.647 39.4382 141.854 36.9492 146.411 35.2972C147.88 34.7705 149.491 34.3488 151.058 34.2659C151.288 34.2531 151.517 34.2475 151.747 34.2494C153.19 34.2696 154.575 34.6103 155.756 35.4538C156.179 35.7574 156.559 36.1173 156.884 36.5237C156.999 36.6655 157.104 36.811 157.205 36.9602V36.962C158.425 38.7851 158.709 41.2694 158.138 43.4369Z" fill="#C5D9ED"/>
<path d="M157.205 36.9608V36.9627C157.191 36.9745 157.177 36.985 157.161 36.994C154.433 38.5796 151.739 40.2228 149.08 41.9238C149.076 41.9257 149.074 41.9275 149.071 41.9294C149.06 41.9368 149.049 41.9435 149.037 41.9496C146.304 43.6991 143.609 45.5075 140.953 47.3749C140.842 47.4522 140.73 47.5314 140.617 47.6106C138.783 48.9052 136.968 50.2275 135.172 51.5773C131.78 54.1297 128.463 56.7767 125.22 59.5182C125.097 59.6213 124.975 59.7262 124.852 59.8312V59.1148C124.973 59.0099 125.097 58.9049 125.22 58.8018C126.463 57.7539 127.716 56.7208 128.981 55.7024C129.358 55.3986 129.738 55.0947 130.118 54.7945C133.491 52.1114 136.94 49.5283 140.464 47.0452H140.466C141.159 46.5572 141.854 46.0735 142.549 45.5941C144.525 44.235 146.523 42.9085 148.544 41.6145C148.689 41.5205 148.837 41.4266 148.984 41.3327C151.57 39.6826 154.19 38.0866 156.844 36.5446C156.857 36.5368 156.87 36.53 156.884 36.5244C157.161 36.4139 157.421 36.7785 157.205 36.9608Z" fill="white"/>
<path d="M155.441 47.7081C151.971 49.5591 147.765 49.8819 144.018 48.7306C142.96 48.4031 141.943 47.9542 140.988 47.3928C140.682 47.2137 140.447 47.7108 140.751 47.8883C144.274 49.9515 148.608 50.4652 152.544 49.4266C153.661 49.1295 154.739 48.7036 155.757 48.1576C156.068 47.9916 155.75 47.5432 155.441 47.708V47.7081Z" fill="white"/>
<path d="M129.478 54.4471C129.307 53.483 129.248 52.5023 129.303 51.5246C129.427 49.295 130.11 47.1323 131.29 45.2356C132.154 44.3262 133.058 43.4599 134.004 42.6367C134.013 42.6906 134.008 42.7458 133.989 42.797C133.97 42.8481 133.938 42.8935 133.896 42.9286C133.208 43.556 132.595 44.261 132.069 45.0294C130.191 47.7678 129.458 51.1308 130.026 54.4015C130.035 54.4386 130.035 54.4774 130.025 54.5143C130.014 54.5511 129.995 54.5848 129.968 54.612C129.929 54.6463 129.881 54.6697 129.83 54.6798C129.778 54.69 129.725 54.6866 129.676 54.6699C129.626 54.6532 129.582 54.6239 129.547 54.5848C129.513 54.5457 129.489 54.4982 129.478 54.4471Z" fill="white"/>
<path d="M151.275 33.9847C149.559 36.0974 148.563 38.7022 148.431 41.42C148.437 41.4924 148.472 41.5593 148.527 41.6063C148.583 41.6533 148.655 41.6765 148.727 41.6708C148.799 41.6631 148.866 41.628 148.912 41.5728C148.959 41.5177 148.983 41.4466 148.978 41.3744C149.115 38.8011 150.066 36.3377 151.695 34.3394C151.919 34.0654 151.499 33.7102 151.275 33.9847Z" fill="white"/>
<path d="M132.19 40.0358V40.0377C132.177 40.1961 132.162 40.3526 132.145 40.5091V40.5128C132.017 41.627 131.817 42.7318 131.546 43.8203C131.417 44.3543 131.277 44.8847 131.124 45.415C131.106 45.4832 131.086 45.5513 131.065 45.6176V45.6195C130.615 47.162 130.077 48.6776 129.454 50.1589C128.308 52.8862 126.89 55.4911 125.22 57.934C125.1 58.1126 124.977 58.2913 124.852 58.4681V29.6291C124.975 29.6218 125.097 29.6218 125.22 29.6255C125.279 29.6255 125.338 29.6273 125.397 29.631C125.917 29.6583 126.431 29.7581 126.923 29.9275C127.097 29.9846 127.264 30.049 127.43 30.1209C129.441 31.0011 131.021 32.9421 131.707 35.0765C132.221 36.675 132.324 38.3563 132.19 40.0358Z" fill="#C5D9ED"/>
<path d="M127.43 30.1201C127.426 30.1381 127.419 30.1555 127.41 30.1716C126.664 31.621 125.934 33.0776 125.22 34.5417C125.097 34.794 124.973 35.0481 124.852 35.3004V34.0481C124.973 33.7977 125.096 33.5472 125.22 33.2968C125.771 32.1808 126.332 31.0697 126.901 29.9635C126.908 29.9506 126.915 29.9383 126.923 29.9267C127.093 29.6836 127.513 29.8494 127.43 30.1201Z" fill="white"/>
<path d="M132.249 40.333C132.216 40.3919 132.182 40.4508 132.145 40.5098C131.604 41.4521 130.96 42.3316 130.225 43.1322C128.813 44.6629 127.112 45.9001 125.22 46.7729C125.099 46.8319 124.975 46.8871 124.852 46.9387V46.3402C124.975 46.2849 125.099 46.2278 125.22 46.1689C127.958 44.864 130.233 42.7555 131.74 40.1249C131.762 40.0873 131.791 40.0549 131.827 40.0297C131.862 40.0046 131.902 39.9873 131.945 39.9791C131.988 39.9709 132.032 39.9719 132.074 39.9822C132.116 39.9924 132.156 40.0115 132.19 40.0383C132.213 40.0538 132.233 40.0737 132.249 40.0969C132.264 40.1201 132.275 40.1461 132.28 40.1734C132.286 40.2008 132.286 40.229 132.28 40.2564C132.275 40.2837 132.264 40.3098 132.249 40.333Z" fill="white"/>
<path d="M125.217 7.07717V21.0731H124.848V20.9239H1.53126V21.0731H1.1626V7.07717C1.16418 5.46589 1.80556 3.92106 2.94598 2.78171C4.0864 1.64236 5.63269 1.00158 7.24549 1H119.134C120.747 1.00158 122.293 1.64236 123.433 2.78171C124.574 3.92106 125.215 5.46589 125.217 7.07717Z" fill="#007CBA"/>
<path d="M119.134 0.5H119.134L7.24549 0.5L7.245 0.5C5.49991 0.501712 3.8267 1.19504 2.5926 2.42799C1.35848 3.66095 0.664311 5.33281 0.662598 7.07668V7.07717L0.662597 87.0011L0.662598 87.0016C0.664311 88.7455 1.35848 90.4174 2.5926 91.6503C3.8267 92.8833 5.49991 93.5766 7.245 93.5783H7.24549H119.134H119.134C120.879 93.5766 122.553 92.8833 123.787 91.6503C125.021 90.4174 125.715 88.7455 125.717 87.0016V87.0011V7.07717V7.07668C125.715 5.33281 125.021 3.66095 123.787 2.42799C122.553 1.19504 120.879 0.501712 119.134 0.5ZM122.819 3.39625C123.796 4.37288 124.346 5.69686 124.348 7.07781V87.0005C124.346 88.3814 123.796 89.7054 122.819 90.6821C121.841 91.6587 120.516 92.2082 119.133 92.21H7.24612C5.86344 92.2082 4.53799 91.6587 3.56044 90.6821C2.58297 89.7055 2.03311 88.3816 2.03126 87.0008V7.07749C2.03311 5.69665 2.58297 4.3728 3.56044 3.39625C4.53792 2.41969 5.86324 1.87016 7.24581 1.86831H119.133C120.516 1.87016 121.841 2.41969 122.819 3.39625Z" fill="#EEEEEE" stroke="#EEEEEE"/>
<path d="M26.233 14.7188C28.269 14.7188 29.9196 13.0698 29.9196 11.0357C29.9196 9.00153 28.269 7.35254 26.233 7.35254C24.1969 7.35254 22.5464 9.00153 22.5464 11.0357C22.5464 13.0698 24.1969 14.7188 26.233 14.7188Z" fill="#C5D9ED"/>
<path d="M100.149 14.7188C102.185 14.7188 103.835 13.0698 103.835 11.0357C103.835 9.00153 102.185 7.35254 100.149 7.35254C98.1125 7.35254 96.4619 9.00153 96.4619 11.0357C96.4619 13.0698 98.1125 14.7188 100.149 14.7188Z" fill="#C5D9ED"/>
<path d="M36.883 52.1039H14.9521C14.023 52.1028 13.1323 51.7336 12.4753 51.0773C11.8184 50.4209 11.4488 49.531 11.4478 48.6028V38.2472C11.4488 37.319 11.8184 36.429 12.4753 35.7727C13.1323 35.1163 14.023 34.7471 14.9521 34.7461H36.883C37.8121 34.7471 38.7028 35.1163 39.3598 35.7727C40.0168 36.429 40.3863 37.319 40.3874 38.2472V48.6028C40.3863 49.531 40.0168 50.4209 39.3598 51.0773C38.7028 51.7336 37.8121 52.1028 36.883 52.1039Z" fill="#007CBA"/>
<path d="M74.1926 52.1039H52.2617C51.3326 52.1028 50.4419 51.7336 49.7849 51.0773C49.1279 50.4209 48.7584 49.531 48.7573 48.6028V38.2472C48.7584 37.319 49.1279 36.429 49.7849 35.7727C50.4419 35.1163 51.3326 34.7471 52.2617 34.7461H74.1926C75.1217 34.7471 76.0124 35.1163 76.6694 35.7727C77.3263 36.429 77.6959 37.319 77.697 38.2472V48.6028C77.6959 49.531 77.3263 50.4209 76.6694 51.0773C76.0124 51.7336 75.1217 52.1028 74.1926 52.1039Z" fill="#007CBA"/>
<path d="M74.1928 78.8611H52.2619C51.3047 78.86 50.3869 78.4796 49.7101 77.8034C49.0332 77.1271 48.6524 76.2103 48.6514 75.2539V64.8982C48.6524 63.9418 49.0332 63.025 49.7101 62.3487C50.3869 61.6725 51.3047 61.2921 52.2619 61.291H74.1928C75.1501 61.2921 76.0678 61.6725 76.7447 62.3487C77.4216 63.025 77.8023 63.9418 77.8034 64.8982V75.2539C77.8023 76.2103 77.4216 77.1271 76.7447 77.8034C76.0678 78.4796 75.1501 78.86 74.1928 78.8611Z" fill="#C5D9ED"/>
<path d="M36.8115 78.8611H14.8806C13.9233 78.86 13.0056 78.4796 12.3287 77.8034C11.6518 77.1271 11.2711 76.2103 11.27 75.2539V64.8982C11.2711 63.9418 11.6518 63.025 12.3287 62.3487C13.0056 61.6725 13.9233 61.2921 14.8806 61.291H36.8115C37.7687 61.2921 38.6865 61.6725 39.3633 62.3487C40.0402 63.025 40.421 63.9418 40.4221 64.8982V75.2539C40.421 76.2103 40.0402 77.1271 39.3633 77.8034C38.6865 78.4796 37.7687 78.86 36.8115 78.8611Z" fill="#C5D9ED"/>
<path d="M111.497 78.8611H89.5666C88.6094 78.86 87.6916 78.4796 87.0147 77.8034C86.3379 77.1271 85.9571 76.2103 85.9561 75.2539V64.8982C85.9571 63.9418 86.3379 63.025 87.0147 62.3487C87.6916 61.6725 88.6094 61.2921 89.5666 61.291H111.497C112.455 61.2921 113.372 61.6725 114.049 62.3487C114.726 63.025 115.107 63.9418 115.108 64.8982V75.2539C115.107 76.2103 114.726 77.1271 114.049 77.8034C113.372 78.4796 112.455 78.86 111.497 78.8611Z" fill="#C5D9ED"/>
<path d="M111.497 52.1248H89.5666C88.6094 52.1237 87.6916 51.7433 87.0147 51.0671C86.3379 50.3908 85.9571 49.4739 85.9561 48.5176V38.1619C85.9571 37.2055 86.3379 36.2886 87.0147 35.6124C87.6916 34.9362 88.6094 34.5558 89.5666 34.5547H111.497C112.455 34.5558 113.372 34.9362 114.049 35.6124C114.726 36.2886 115.107 37.2055 115.108 38.1619V48.5176C115.107 49.4739 114.726 50.3908 114.049 51.0671C113.372 51.7433 112.455 52.1237 111.497 52.1248Z" fill="#C5D9ED"/>
<path d="M25.9166 49.3658C29.2009 49.3658 31.8634 46.7059 31.8634 43.4246C31.8634 40.1434 29.2009 37.4834 25.9166 37.4834C22.6322 37.4834 19.9697 40.1434 19.9697 43.4246C19.9697 46.7059 22.6322 49.3658 25.9166 49.3658Z" fill="white"/>
<path d="M25.3276 45.6914C25.1938 45.6916 25.0636 45.6484 24.9565 45.5682L24.9499 45.5632L23.5523 44.4942C23.4875 44.4447 23.4331 44.3829 23.3922 44.3124C23.3513 44.2419 23.3248 44.164 23.314 44.0832C23.3033 44.0024 23.3086 43.9202 23.3296 43.8415C23.3506 43.7627 23.387 43.6889 23.4366 43.6242C23.4863 43.5595 23.5482 43.5052 23.6188 43.4644C23.6894 43.4236 23.7674 43.3971 23.8483 43.3865C23.9292 43.3758 24.0114 43.3812 24.0902 43.4023C24.169 43.4234 24.2429 43.4598 24.3076 43.5094L25.2128 44.2029L27.352 41.4157C27.4016 41.3511 27.4635 41.2968 27.5341 41.2561C27.6047 41.2153 27.6826 41.1888 27.7635 41.1782C27.8443 41.1675 27.9265 41.1729 28.0052 41.1939C28.084 41.215 28.1578 41.2513 28.2225 41.3009L28.2092 41.319L28.2229 41.3012C28.3534 41.4014 28.4388 41.5492 28.4603 41.7123C28.4819 41.8753 28.4378 42.0403 28.3378 42.1709L25.8216 45.4493C25.7634 45.5248 25.6886 45.586 25.6029 45.6279C25.5172 45.6699 25.423 45.6916 25.3276 45.6914Z" fill="#2C3338"/>
<path d="M63.3335 49.2819C66.6179 49.2819 69.2804 46.6219 69.2804 43.3406C69.2804 40.0594 66.6179 37.3994 63.3335 37.3994C60.0492 37.3994 57.3867 40.0594 57.3867 43.3406C57.3867 46.6219 60.0492 49.2819 63.3335 49.2819Z" fill="white"/>
<path d="M62.7397 45.6064C62.6059 45.6067 62.4757 45.5634 62.3686 45.4832L62.362 45.4783L60.9645 44.4093C60.8337 44.3092 60.7482 44.1614 60.7266 43.9983C60.705 43.8352 60.7491 43.6702 60.8492 43.5396C60.9494 43.409 61.0974 43.3235 61.2606 43.3019C61.4239 43.2803 61.589 43.3244 61.7197 43.4245L62.6249 44.1179L64.7641 41.3308C64.8137 41.2661 64.8756 41.2119 64.9462 41.1711C65.0168 41.1304 65.0948 41.1039 65.1756 41.0932C65.2564 41.0826 65.3386 41.0879 65.4173 41.109C65.4961 41.13 65.5699 41.1664 65.6346 41.2159L65.6213 41.234L65.635 41.2162C65.7655 41.3164 65.8509 41.4643 65.8725 41.6273C65.894 41.7904 65.8499 41.9553 65.7499 42.0859L63.2337 45.3643C63.1755 45.4399 63.1007 45.501 63.015 45.543C62.9294 45.585 62.8352 45.6067 62.7397 45.6064Z" fill="#2C3338"/>
<path d="M103.523 71.3749C103.719 71.1614 103.865 70.9078 103.951 70.6318C104.038 70.3559 104.063 70.0643 104.025 69.7776C103.986 69.4909 103.885 69.2162 103.729 68.9726C103.573 68.7291 103.365 68.5227 103.121 68.3681L99.8008 50.6572L95.7632 52.1531L100.296 69.0919C100.063 69.5197 99.9957 70.0179 100.106 70.4922C100.216 70.9665 100.497 71.3839 100.895 71.6653C101.293 71.9467 101.78 72.0726 102.264 72.0191C102.749 71.9655 103.197 71.7363 103.523 71.3749Z" fill="#FBBEBE"/>
<path d="M71.3034 44.3506C71.3134 44.4605 71.3148 44.5711 71.3074 44.6813L79.158 50.7179L81.3843 49.8045L83.2031 52.9811L79.4192 54.9806C79.1135 55.1421 78.7636 55.2003 78.4221 55.1462C78.0805 55.0922 77.7657 54.9289 77.5249 54.6809L69.6778 46.5984C69.2624 46.692 68.8284 46.657 68.4334 46.4982C68.0384 46.3393 67.7012 46.064 67.4666 45.709C67.232 45.354 67.1111 44.936 67.1201 44.5107C67.1291 44.0854 67.2674 43.6729 67.5168 43.328C67.7662 42.9832 68.1147 42.7224 68.5161 42.5803C68.9174 42.4382 69.3526 42.4215 69.7636 42.5325C70.1747 42.6435 70.5422 42.8769 70.8172 43.2017C71.0923 43.5264 71.2618 43.9272 71.3034 44.3506H71.3034Z" fill="#FBBEBE"/>
<path d="M89.6449 102.811H87.3853L86.3101 95.9443L89.6455 95.9445L89.6449 102.811Z" fill="#FBBEBE"/>
<path d="M90.2217 105L82.9351 105V104.908C82.9351 104.536 83.0084 104.167 83.1509 103.823C83.2935 103.48 83.5024 103.167 83.7657 102.904C84.0291 102.641 84.3418 102.432 84.6859 102.29C85.03 102.147 85.3988 102.074 85.7713 102.074H85.7714L90.2219 102.074L90.2217 105Z" fill="#2C3338"/>
<path d="M98.1259 102.811H95.8662L94.791 95.9443L98.1265 95.9445L98.1259 102.811Z" fill="#FBBEBE"/>
<path d="M98.7007 105L91.4141 105V104.908C91.4141 104.536 91.4874 104.167 91.6299 103.823C91.7725 103.48 91.9814 103.167 92.2448 102.904C92.5081 102.641 92.8208 102.432 93.1649 102.29C93.509 102.147 93.8778 102.074 94.2502 102.074H94.2504L98.7009 102.074L98.7007 105Z" fill="#2C3338"/>
<path d="M86.9192 101.454C86.7128 101.454 86.5139 101.377 86.3613 101.238C86.2087 101.1 86.1135 100.909 86.0943 100.704L84.125 74.2425L84.2181 74.2349L97.7702 73.1221L97.7738 73.2183L98.8511 100.63C98.8553 100.741 98.837 100.853 98.7972 100.957C98.7574 101.061 98.697 101.156 98.6196 101.236C98.5422 101.316 98.4494 101.38 98.3468 101.424C98.2441 101.467 98.1337 101.49 98.0222 101.49H95.365C95.1666 101.491 94.9745 101.42 94.824 101.291C94.6734 101.162 94.5744 100.983 94.5452 100.787L90.9367 78.6432C90.9332 78.6203 90.9211 78.5996 90.903 78.5852C90.8849 78.5708 90.862 78.5637 90.8389 78.5654C90.8158 78.567 90.7942 78.5774 90.7784 78.5942C90.7625 78.6111 90.7536 78.6333 90.7535 78.6565L90.5898 100.52C90.5881 100.731 90.5058 100.934 90.3598 101.087C90.2138 101.239 90.015 101.331 89.8039 101.342L86.9637 101.453C86.9488 101.453 86.9339 101.454 86.9192 101.454Z" fill="#2C3338"/>
<path d="M89.2305 40.801C91.7308 40.801 93.7578 38.776 93.7578 36.278C93.7578 33.7799 91.7308 31.7549 89.2305 31.7549C86.7301 31.7549 84.7031 33.7799 84.7031 36.278C84.7031 38.776 86.7301 40.801 89.2305 40.801Z" fill="#FBBEBE"/>
<path d="M90.1074 75.9301C88.1286 75.9242 86.1593 75.6554 84.2515 75.1306C84.0679 75.0772 83.9083 74.9622 83.7997 74.805C83.6911 74.6478 83.64 74.458 83.6551 74.2675C84.2645 65.1162 84.4078 58.0144 83.1262 53.1007C82.58 51.0065 82.828 48.8008 83.8066 47.0494C85.2794 44.4136 87.9864 42.8093 90.8738 42.8647C91.0118 42.8673 91.1512 42.8722 91.2919 42.8794C95.674 43.1048 99.0886 47.0654 98.9037 51.7082L98.0223 73.838C98.019 73.9995 97.968 74.1564 97.8757 74.2889C97.7833 74.4215 97.6537 74.5237 97.5033 74.5828C95.1388 75.4715 92.6336 75.9278 90.1074 75.9301Z" fill="#135E96"/>
<path d="M83.8726 54.7998L80.4814 50.6481C80.3849 50.53 80.315 50.3925 80.2765 50.2449C80.238 50.0974 80.2318 49.9433 80.2583 49.7931C80.2848 49.643 80.3434 49.5003 80.43 49.3748C80.5167 49.2493 80.6294 49.1439 80.7605 49.0659L85.3543 46.3311C85.962 45.8412 86.7394 45.6121 87.516 45.694C88.2926 45.7759 89.005 46.1622 89.4969 46.7681C89.9888 47.3739 90.2202 48.15 90.1403 48.9261C90.0603 49.7021 89.6756 50.4148 89.0704 50.9079L85.4802 54.8439C85.3773 54.9566 85.2514 55.0458 85.111 55.1054C84.9705 55.1651 84.8188 55.1938 84.6663 55.1896C84.5137 55.1854 84.3639 55.1484 84.2269 55.0812C84.0899 55.0139 83.9691 54.918 83.8726 54.7998Z" fill="#135E96"/>
<path d="M94.538 54.2787C94.3987 54.2164 94.2745 54.1248 94.1738 54.0102C94.0732 53.8956 93.9985 53.7607 93.9548 53.6146L92.4281 48.5125C92.0967 47.806 92.0593 46.997 92.3241 46.263C92.5889 45.529 93.1343 44.9298 93.8406 44.597C94.547 44.2642 95.3566 44.2248 96.092 44.4875C96.8273 44.7502 97.4284 45.2936 97.7633 45.9985L100.716 50.4529C100.8 50.58 100.856 50.7238 100.879 50.8745C100.903 51.0251 100.894 51.179 100.852 51.3258C100.811 51.4726 100.739 51.6088 100.64 51.725C100.541 51.8413 100.419 51.9349 100.28 51.9996L95.4224 54.2713C95.2842 54.3361 95.1336 54.3702 94.981 54.3715C94.8284 54.3727 94.6773 54.3411 94.538 54.2787Z" fill="#135E96"/>
<path d="M91.4685 39.9894L88.1126 39.222C87.7664 39.1428 87.3505 38.9918 87.3025 38.6403C87.238 38.1679 87.9184 37.8388 87.8557 37.3662C87.7949 36.9084 87.175 36.8494 86.733 36.7143C86.3214 36.57 85.9821 36.2714 85.787 35.8816C85.5918 35.4919 85.5561 35.0415 85.6875 34.6259C85.2092 35.2992 84.1167 35.3569 83.4964 34.8114C82.8761 34.2659 82.7572 33.2762 83.1297 32.5393C83.3309 32.1773 83.6148 31.8679 83.9583 31.6362C84.3018 31.4045 84.6952 31.2571 85.1064 31.2059C85.9333 31.1122 86.7694 31.2679 87.507 31.653C87.5561 31.1312 88.2082 30.9197 88.7328 30.915C89.8224 30.9277 90.8811 31.2795 91.7613 31.9213C92.6415 32.5632 93.2996 33.4632 93.6439 34.4962C94.2876 36.5684 93.857 38.8398 92.056 40.0522L91.4685 39.9894Z" fill="#2C3338"/>
</svg>
