<svg xmlns="http://www.w3.org/2000/svg" xmlns:xlink="http://www.w3.org/1999/xlink" version="1.1" id="Layer_1" x="0px" y="0px" style="enable-background:new 0 0 1000 1000;" xml:space="preserve" viewBox="173.9 370.47 652.2 259.06">
<style type="text/css">
	.st0{fill:#FE2C55;}
	.st1{fill:#25F4EE;}
</style>
<g>
	<g>
		<polygon points="206.62,627.76 222.93,627.76 222.93,595.13 249.69,595.13 249.69,580.81 222.93,580.81 222.93,561.32     256.62,561.32 256.62,546.88 206.62,546.88   "/>
		<path d="M286.31,571.65c-15.61,0-29.46,11.27-29.46,28.64c0,17.25,13.85,28.52,29.46,28.52c15.61,0,29.46-11.27,29.46-28.52    C315.78,582.92,301.93,571.65,286.31,571.65z M286.31,614.5c-7.63,0-13.85-5.75-13.85-14.2c0-8.57,6.22-14.32,13.85-14.32    c7.63,0,13.85,5.75,13.85,14.32C300.17,608.74,293.94,614.5,286.31,614.5z"/>
		<path d="M340.19,584.68v-11.62h-15.26v54.7h15.38v-18.78c0-15.61,5.4-22.89,13.26-22.89c1.88,0,4.58,0.23,7.86,2l3.52-14.67    c-2.46-1.29-5.75-1.76-8.68-1.76C349.46,571.65,343.24,575.53,340.19,584.68z"/>
		<path d="M433.72,585.04c8.8-2.7,11.15-10.8,11.15-16.79c0-12.21-9.27-20.89-23.71-20.89h-32.05v80.87h34.51    c17.84,0,25.47-11.97,25.47-23.12C449.09,595.96,444.05,586.8,433.72,585.04z M405.43,561.8h14.79c5.75,0,8.33,3.87,8.33,8.81    c0,5.52-3.17,8.92-8.33,8.92h-14.79V561.8z M421.28,613.8h-15.85v-20.66h16.08c7.75,0,11.15,5.28,11.15,10.33    C432.66,608.87,428.9,613.8,421.28,613.8z"/>
		<path d="M496.04,601.59c0,9.86-6.81,12.8-12.33,12.8c-5.28,0-10.45-3.87-10.45-12.44v-28.41H457.9v30.05    c-0.12,16.43,7.39,25.94,21.72,25.94c5.4,0,14.09-3.05,16.43-10.21v8.92h15.38v-54.7h-15.38V601.59z"/>
		<path d="M551.56,595.96l-9.04-2.35c-3.05-0.82-5.4-2.11-5.4-4.69c0-2.82,2.82-4.58,6.34-4.58c3.64,0,6.69,1.99,6.69,5.63h14.67    c0.12-12.91-11.62-17.84-21.6-17.84c-12.68,0-21.48,7.87-21.48,16.32c0,5.75,1.88,13.62,15.96,17.37l7.28,1.76    c4.11,1.06,5.99,2.23,5.99,4.58c0,3.17-3.4,5.05-7.86,5.05c-5.4,0-8.1-3.4-8.1-6.57h-14.44c0.12,12.09,11.27,18.66,22.77,18.66    c11.27,0,23.01-5.63,23.01-17.14C566.35,607.7,564.71,599.48,551.56,595.96z"/>
		<path d="M583.25,545.37c-5.28,0-9.74,3.99-9.74,9.16c0,5.17,4.46,9.27,9.74,9.27c5.4,0,9.74-4.11,9.74-9.27    C593,549.36,588.65,545.37,583.25,545.37z"/>
		<rect x="575.62" y="573.54" width="15.38" height="54.7"/>
		<path d="M635.37,572.13c-5.4,0-14.09,3.17-16.43,10.56v-9.16h-15.38v54.7h15.38v-28.05c0-9.98,6.81-12.91,12.32-12.91    c5.28,0,10.45,3.87,10.45,12.56v28.4h15.38v-30.05C657.2,581.75,649.69,572.13,635.37,572.13z"/>
		<path d="M694.76,572.13c-15.73,0-29.11,11.03-29.11,28.76c0,16.9,12.32,28.41,29.11,28.41c9.62,0,19.25-3.76,24.42-10.68    l-9.04-9.04c-3.29,3.87-8.8,6.1-14.32,6.1c-7.39,0-12.56-3.52-14.2-9.86h41.32c0.12-2.47,0.23-4.34,0.23-5.87    C723.16,583.16,710.37,572.13,694.76,572.13z M681.61,595.84c1.64-7.4,7.16-10.33,13.38-10.33c6.92,0,12.32,3.87,12.79,10.33    H681.61z"/>
		<path d="M759.67,595.96l-9.04-2.35c-3.05-0.82-5.4-2.11-5.4-4.69c0-2.82,2.82-4.58,6.34-4.58c3.64,0,6.69,1.99,6.69,5.63h14.67    c0.12-12.91-11.62-17.84-21.6-17.84c-12.68,0-21.48,7.87-21.48,16.32c0,5.75,1.88,13.62,15.96,17.37l7.28,1.76    c4.11,1.06,5.99,2.23,5.99,4.58c0,3.17-3.4,5.05-7.86,5.05c-5.4,0-8.1-3.4-8.1-6.57h-14.44c0.12,12.09,11.27,18.66,22.77,18.66    c11.27,0,23.01-5.63,23.01-17.14C774.46,607.7,772.81,599.48,759.67,595.96z"/>
		<path d="M811.31,595.96l-9.04-2.35c-3.05-0.82-5.4-2.11-5.4-4.69c0-2.82,2.82-4.58,6.34-4.58c3.64,0,6.69,1.99,6.69,5.63h14.67    c0.12-12.91-11.62-17.84-21.6-17.84c-12.68,0-21.48,7.87-21.48,16.32c0,5.75,1.88,13.62,15.96,17.37l7.28,1.76    c4.11,1.06,5.99,2.23,5.99,4.58c0,3.17-3.4,5.05-7.86,5.05c-5.4,0-8.1-3.4-8.1-6.57h-14.44c0.12,12.09,11.27,18.66,22.77,18.66    c11.27,0,23.01-5.63,23.01-17.14C826.1,607.7,824.46,599.48,811.31,595.96z"/>
	</g>
	<g>
		<path d="M173.9,370.85h3.81h96.38l-9.2,28.66l-25.99-0.01l0.06,99.96l-0.01,5.99h-32.44c0,0,0-0.95,0-2.06l0-103.89h-28.79    l-3.8,0.06L173.9,370.85z"/>
		<path d="M440.92,370.85h3.81h98.7l-9.2,28.66l-28.31-0.01l0.06,99.96l-0.01,6.06h-32.44c0,0,0-1.01,0-2.13l0-103.89h-28.79    l-3.8,0.06L440.92,370.85z"/>
		<polygon points="280.19,416.6 280.19,413.67 312.31,413.67 312.33,416.6 312.37,497.01 312.28,505.46 280.38,505.46     280.38,500.88   "/>
		<polygon points="327.77,376.82 327.77,370.47 334.18,370.47 354.18,370.47 359.54,370.47 359.54,375.98 359.57,433.17     391.65,401.96 429.96,401.97 389.73,441 434.78,505.46 399.43,505.46 369.37,460.76 359.84,470.01 359.86,505.52 327.9,505.46     327.9,502.58   "/>
		<polygon points="657.4,376.82 657.4,370.47 663.81,370.47 683.81,370.47 689.17,370.47 689.17,375.98 689.2,433.17 721.28,401.96     759.59,401.97 719.36,441 764.41,505.46 729.06,505.46 699,460.76 689.47,470.01 689.49,505.52 657.53,505.46 657.53,502.58   "/>
		<path d="M639.25,428.87c-2.88-6.65-6.79-12.45-11.73-17.38c-4.94-4.93-10.75-8.8-17.41-11.61c-0.61-0.26-1.23-0.5-1.85-0.74    c-0.23-0.08-0.46-0.17-0.68-0.25c-0.39-0.14-0.77-0.27-1.16-0.4c-0.29-0.1-0.59-0.2-0.89-0.29c-0.31-0.1-0.61-0.19-0.92-0.28    c-0.35-0.1-0.7-0.21-1.06-0.31c-0.13-0.04-0.27-0.07-0.4-0.1c-1.55-0.41-3.11-0.75-4.7-1.02c-0.05-0.01-0.1-0.02-0.16-0.03    c-0.56-0.09-1.12-0.18-1.68-0.26h0c-1.21-0.16-2.44-0.3-3.67-0.39c-0.92-0.07-1.85-0.11-2.79-0.13c-0.47-0.01-0.94-0.03-1.41-0.03    c-0.44,0-0.88,0.01-1.31,0.02c-1.01,0.02-2.02,0.06-3.01,0.14c-2.15,0.16-4.25,0.44-6.31,0.83c-0.35,0.07-0.7,0.13-1.04,0.2    c-0.31,0.07-0.63,0.13-0.94,0.2c-0.72,0.16-1.44,0.33-2.15,0.53c-4.71,1.28-9.11,3.09-13.18,5.43c-4.07,2.34-7.77,5.17-11.08,8.48    c-3.32,3.31-6.16,6.99-8.53,11.03c-2.37,4.04-4.21,8.43-5.52,13.16c-1.31,4.73-1.96,9.66-1.96,14.79c0,5.12,0.66,10.04,1.98,14.75    c1.31,4.71,3.16,9.09,5.53,13.16c2.37,4.06,5.22,7.75,8.54,11.07c3.32,3.31,7.02,6.15,11.09,8.52c4.07,2.37,8.47,4.19,13.18,5.47    c0.76,0.21,1.53,0.39,2.3,0.56c0.26,0.06,0.53,0.11,0.8,0.16c0.51,0.11,1.03,0.21,1.54,0.3c0.31,0.06,0.62,0.11,0.93,0.16    c0.53,0.08,1.06,0.16,1.59,0.23c0.27,0.04,0.54,0.08,0.81,0.11c0.84,0.1,1.69,0.18,2.54,0.24c1.07,0.08,2.15,0.12,3.23,0.14    c0.35,0.01,0.69,0.02,1.04,0.02c0.34,0,0.68-0.01,1.02-0.02c1.09-0.02,2.17-0.06,3.24-0.14c1.01-0.07,2.02-0.18,3.02-0.31    c0.64-0.08,1.27-0.17,1.9-0.28c0.35-0.06,0.7-0.12,1.05-0.19c0.45-0.08,0.9-0.17,1.35-0.26c0.28-0.06,0.56-0.12,0.84-0.18    c0.74-0.17,1.47-0.35,2.2-0.54c4.66-1.28,9.02-3.1,13.09-5.47c4.07-2.37,7.77-5.21,11.08-8.52c3.32-3.31,6.16-7,8.53-11.07    s4.21-8.45,5.52-13.16c1.31-4.71,1.96-9.62,1.96-14.75C643.57,442.72,642.13,435.52,639.25,428.87 M614.36,457.64    c-0.64,2.29-1.53,4.42-2.68,6.39c-1.15,1.98-2.53,3.77-4.14,5.38c-1.61,1.61-3.41,2.99-5.38,4.14c-1.98,1.15-4.1,2.04-6.36,2.66    c-1.95,0.53-3.97,0.83-6.07,0.9c0.11,0,0.22,0.01,0.34,0.01c-0.23,0.01-0.45,0.02-0.68,0.02c-0.12,0-0.25-0.01-0.37-0.01    c-0.11,0-0.21,0.01-0.31,0.01c-1.5,0-2.96-0.13-4.39-0.35c-0.94-0.15-1.88-0.33-2.79-0.58c-2.29-0.62-4.42-1.51-6.4-2.66    c-1.98-1.15-3.78-2.53-5.39-4.14c-1.61-1.61-3-3.4-4.15-5.38s-2.05-4.1-2.69-6.39c-0.64-2.29-0.96-4.67-0.96-7.16    c0-2.49,0.31-4.88,0.95-7.18s1.53-4.43,2.68-6.39c1.15-1.96,2.53-3.75,4.14-5.36c1.61-1.61,3.41-2.98,5.38-4.12    c1.98-1.14,4.11-2.02,6.4-2.64c0.94-0.25,1.9-0.44,2.87-0.59c1.4-0.22,2.83-0.34,4.3-0.34c0.12,0,0.24,0.01,0.37,0.01    c0.1,0,0.21-0.01,0.31-0.01c0.26,0,0.52,0.01,0.78,0.02c-0.09,0-0.19,0.01-0.28,0.01c3.24,0.13,6.31,0.8,9.2,2.02    c3.24,1.37,6.06,3.25,8.46,5.64c2.4,2.39,4.3,5.21,5.69,8.44c1.4,3.23,2.1,6.73,2.1,10.49C615.32,452.97,615,455.36,614.36,457.64    "/>
		<path d="M312.43,387c0,8.92-7.23,16.15-16.15,16.15c-8.92,0-16.15-7.23-16.15-16.15c0-8.92,7.23-16.15,16.15-16.15    C305.2,370.85,312.43,378.08,312.43,387"/>
	</g>
	<g>
		<path class="st0" d="M826.1,422.37c0,11.27-9.14,20.4-20.4,20.4c-11.27,0-20.4-9.14-20.4-20.4c0-11.27,9.13-20.4,20.4-20.4    C816.97,401.97,826.1,411.1,826.1,422.37"/>
		<path class="st1" d="M826.1,484.94c0,11.27-9.14,20.4-20.4,20.4c-11.27,0-20.4-9.13-20.4-20.4c0-11.27,9.13-20.4,20.4-20.4    C816.97,464.54,826.1,473.67,826.1,484.94"/>
	</g>
</g>
</svg>