<svg width="36" height="36" viewBox="0 0 36 36" fill="none" xmlns="http://www.w3.org/2000/svg">
<g clip-path="url(#clip0_5404_82493)">
<rect width="36" height="36" rx="3" fill="#F6F7F7"/>
<g clip-path="url(#clip1_5404_82493)">
<path d="M25.8564 9.08257C22.302 9.08257 20.2435 9.70406 19.0697 11.0879C19.8294 8.40974 21.2333 6.39913 23.7979 4.57812C20.7588 4.9705 18.9947 6.12525 18.1403 7.77772C17.2859 6.12657 15.5219 4.97182 12.4828 4.57812C15.0473 6.39913 16.4512 8.40842 17.211 11.0879C16.0371 9.70406 13.9787 9.08257 10.4243 9.08257C14.6609 11.0721 16.2816 12.6732 17.6619 15.5423H18.6175C19.9977 12.6732 21.6198 11.0721 25.855 9.08257H25.8564Z" fill="#BBBBBB"/>
<path d="M20.9742 40.3274C22.3527 39.8165 27.4074 38.6946 27.4074 33.7983C27.4074 30.8901 24.7772 28.6965 21.7913 28.1873C23.1198 27.7533 25.0597 25.8204 25.0597 23.6518C25.0597 20.858 22.5315 19.7433 20.4646 19.311C20.4646 18.6733 22.7622 15.3828 22.7622 15.3828H13.2643C13.2643 15.3828 15.5619 18.6733 15.5619 19.311C13.4931 19.7451 10.9667 20.858 10.9667 23.6518C10.9667 25.8204 12.9067 27.7533 14.2352 28.1873C11.2474 28.6982 8.61905 30.8919 8.61905 33.7983C8.61905 38.6964 13.6737 39.8183 15.0523 40.3274C11.7838 40.6328 10.1496 41.9083 9.89568 42.9283H26.1325C25.8769 41.9083 24.2426 40.6328 20.9759 40.3274H20.9742Z" fill="#DDDDDD"/>
</g>
</g>
<defs>
<clipPath id="clip0_5404_82493">
<rect width="36" height="36" rx="3" fill="white"/>
</clipPath>
<clipPath id="clip1_5404_82493">
<rect width="38.3491" height="29.2493" fill="white" transform="translate(-1.125 1.125)"/>
</clipPath>
</defs>
</svg>
