<svg xmlns="http://www.w3.org/2000/svg" width="36" height="36" fill="none">
  <g clip-path="url(#a)">
    <rect width="36" height="36" fill="#F6F7F7" rx="3"/>
    <g clip-path="url(#b)">
      <path fill="#BBB" d="M25.856 9.083c-3.554 0-5.613.621-6.786 2.005.76-2.678 2.163-4.689 4.728-6.51-3.04.393-4.803 1.547-5.658 3.2-.854-1.651-2.618-2.806-5.657-3.2 2.564 1.821 3.968 3.83 4.728 6.51-1.174-1.384-3.232-2.005-6.787-2.005 4.237 1.99 5.858 3.59 7.238 6.46h.956c1.38-2.87 3.002-4.47 7.237-6.46h.001Z"/>
      <path fill="#DDD" d="M20.974 40.327c1.379-.51 6.433-1.632 6.433-6.529 0-2.908-2.63-5.102-5.616-5.61 1.329-.435 3.269-2.368 3.269-4.536 0-2.794-2.528-3.909-4.595-4.341 0-.638 2.297-3.928 2.297-3.928h-9.498s2.298 3.29 2.298 3.928c-2.069.434-4.595 1.547-4.595 4.34 0 2.17 1.94 4.102 3.268 4.536-2.988.511-5.616 2.705-5.616 5.611 0 4.898 5.055 6.02 6.433 6.53-3.268.305-4.902 1.58-5.156 2.6h16.236c-.255-1.02-1.89-2.295-5.156-2.6h-.002Z"/>
    </g>
  </g>
  <defs>
    <clipPath id="a">
      <rect width="36" height="36" fill="#fff" rx="3"/>
    </clipPath>
    <clipPath id="b">
      <path fill="#fff" d="M-1.125 1.125h38.349v29.249H-1.125z"/>
    </clipPath>
  </defs>
</svg>
