<svg viewBox="0 0 797.12 564.08" xmlns="http://www.w3.org/2000/svg"><g fill-rule="evenodd"><path d="m216.92 118.87 1 .15 1 .25.61.2.7.28.25.12.67.35.25.13.63.4.54.37.78.63.7.7.63.72.55.73.52.8.42.77.36.81.29.8.23.8.17.77.11.77.07.71v2.14l-.13 1.16-.22 1.2-.26 1.17-.34 1.13-.45 1.07-.42 1.1-.45 1.1-.5 1.09-.28.61.41.57.37.6.08.13.27.52.22.53.06.17.3 1v.18l.07.28.72-.48.75-.48.76-.47.79-.45.83-.43.9-.4 1-.39.73-.23.79-.18.4-.09.76-.11.49-.07h1.35l.78.08h.17l.86.17h.15l.95.3.14.05.5.2.46.23.14.08.5.29.46.33.14.08.43.35.42.39.11.1.39.4.36.43.1.12.32.41.28.45.09.14.45.86.08.17.3.8.07.18.21.74.12.53.13.85.07.82v1.21l-.07 1.2-.13 1.19-.2 1.15-.27 1.11-.31 1.09-.35 1.06-.09.24.62-.34 1-.55 1.1-.53 1.12-.48.72-.29.71-.23.8-.22.87-.18.62-.08.76-.07h1.52l.57.07.57.1.25.05.63.17.63.21.24.09.68.3.67.38.2.12.66.45.62.51.18.17.55.57.5.61.15.2.4.6.35.64.14.25.25.56.21.6.1.3.22.84.17.8.15 1.11.06 1.1v1.67h.17l1.45-.08h2.88l1.44.07 1.43.11 1.42.15 1.41.2 1.42.24 1.4.26.58.12 1.14-.27 1.35-.25 1.35-.18 1.38-.15 1.4-.1h5.85l1.52.08 1.55.12 1.58.15 1.6.17 1.63.2 1.65.21 1.67.25 1.7.27 1.7.3 1.73.32 1.74.35 1.75.35 1.76.38 1.79.4 1.78.42 1.8.43 1.78.47 1.8.46 1.8.49 1.8.5 1.79.51 1.78.54 1.78.53 1.77.57 1.77.55 1.75.58 1.71.58 1.72.6 1.7.6 1.67.62 1.65.62 1.61.63 1.6.63 1.57.64 1.53.65 1.52.65 1.47.66 1.43.65 1.4.67 1.37.67 1.31.68 1.29.68 1.23.69 1.2.68 1.17.7 1.1.72 1.08.71 1 .74 1 .76.95.8.91.84.85.86.74.82.66.8.64.83.6.85.56.87.52.87.48.88.47.9.42.9.4.9.36.92.35.91.32.94.28.91.27.94.25.93.22.93.2.94.18.93.17.93.16.94.14 1 .23 1.84.17 1.86.13 1.87.1 1.85.07 1.83v1.15l.09.14.83 1.38.82 1.43.78 1.47.73 1.48.7 1.52.65 1.52.29.68.56.05h.15l.87.17h.15l.88.27h.14l.8.35.15.07.73.4.13.1.65.45.14.1.56.46.37.35.55.59.3.38.48.67.22.31.45.79.35.7.42 1 .31 1 .25 1 .2.93.17.92.12.92.08.91.08.92.05.93v4.82l-.08 2-.12 2-.17 2.05-.18 2.07v.62l.15.35.32.8.25.8.23.8.18.8.14.78.1.78.08.77v.53l.18-.21 1.23-1.6.65-.8.55-1.15.42-.8.38-.69.37-.6.52-.83.7-1.07.85-1.26 1-1.4.58-.77.58-.77.64-.8.66-.78.69-.82.73-.8.77-.8.81-.78.87-.78.92-.77 1-.75 1-.67.62-.36.6-.34.61-.31.65-.3.7-.27.74-.25.78-.22.82-.16.86-.14.92-.06h.93l1 .08 1 .15 1 .25 1 .33.94.42.9.5.83.55.78.62.65.6.59.6.5.53.48.57.47.56.45.57.41.6.42.58.38.62.39.6.38.67.63 1.21.6 1.29.55 1.3.49 1.33.43 1.33.38 1.35.34 1.37.3 1.38.25 1.39.21 1.4.19 1.41.13 1.42.12 1.43.08 1.44.05 1.45v3.91l.66.27.72.4.13.07.65.43.6.48.14.12.48.47.45.51.12.14.33.46.32.47.1.17.45.85.08.2.3.71.18.54.22.83.15.77.1.73.07.7.05.68v3.29l-.06 1.61-.12 1.62-.17 1.62-.2 1.6-.25 1.58-.3 1.58-.33 1.57-.38 1.55-.4 1.55-.45 1.53-.49 1.54-.51 1.51-.55 1.5-.59 1.49-.6 1.48-.63 1.47-.67 1.46-.68 1.45-.7 1.44-.73 1.43-.75 1.42-.77 1.41-.78 1.4-.82 1.39-.82 1.38-.85 1.37-.85 1.36-.86 1.35-.87 1.34-.9 1.35-.43.61-.77 3.07-.43 1.63-.42 1.54-.42 1.43-.43 1.4-.59 1.56-.5 1.4-.55 1.4-.6 1.49-.68 1.56-.75 1.7-1.82 4.05-.36.75-.44.82-.46.83-.52.84-.55.83-.58.85-.62.85-.68.87-.77.86-.83.84-.6.51-.64.5-.46.3-.67.4-.18.1-.49.24-.5.21-.16.07-.67.22-.68.16h-.17l-.93.13h-1.09l-.76-.05-.75-.14-.75-.2-.14-.05-.78-.28-.43-.22-1.45 2-1.33 1.88-.24.35-.23.37-.23.38-.22.4-.52 1-.51 1.05-.54 1.16-.58 1.25-.62 1.32-.66 1.38-.74 1.4-.41.77-.45.75-.47.75-.5.77-.55.76-.58.77-.64.75-.7.75-.73.73-.8.72-.4.32-.45 1.06-.8 1.84-.8 1.8-.83 1.76-.84 1.75-.85 1.74-.88 1.7-.88 1.66-.92 1.65-.93 1.62-.95 1.57-1 1.55-1 1.5-1 1.48-1 1.43-1.08 1.39-1.1 1.35-1.15 1.3-1.15 1.23-.62.63-.61.6-.62.59-.63.56-.64.55-.65.55-.66.52-.67.52-.7.5-.75.51-.57.35-.7.37-.43.2-.73.27-.15.05-.85.23h-.14l-1 .15h-1.98l-.59-.09h-.11l-.62-.13-.6-.19h-.1l-.57-.21-.55-.27-.1-.05-.51-.3-.5-.32-.09-.08-.43-.32-.38-.35-.1-.08-.65-.7-.09-.1-.51-.65-.07-.12-.53-.88-.13-.31-.23-.46-.18-.49-.12-.31-.25-.77-.08-.32v.05l-.2 1.15-.24 1.1-.26 1.07-.3 1.05-.34 1-.36 1-.44 1-.5 1-.4.65-.4.6-.75.94-.73.85-.77.8-.8.76-.81.72-.85.68-.89.64-.88.58-.92.55-.91.5-.95.47-.95.41-1 .39-1 .35-1 .3-1 .26-1 .24-1 .18-1 .17-1 .13-1 .1-1 .07-1 .05h-2l-1-.05-1-.05-1-.1-1-.12-1-.13-1-.15-.95-.19-.95-.21-.95-.22-.94-.25-.15-.05-.06.07-.84.55-.83.55-.87.51-.88.49-.9.46-.92.45-.93.4-.95.39-1 .35-1 .31-.8.22-.81.18-.79.15-.8.14-.76.08-.77.07h-2.98l-1.34-.08-1.33-.15-1-.14-.2.1-1.17.59-1.2.55-1.23.51-1.25.45-1.28.4-1.27.34-.72.16-.68.14-.7.1-.7.08-.72.07h-2.26l-.79-.06-.81-.1-.84-.17-.85-.22-.88-.28-.87-.37-.88-.43-.8-.5-.82-.57-.71-.55-.22-.18-.92.2-1.48.3-1.48.25-1.42.18-.8.09-.73.05h-2.35l-.82-.07-.88-.13-.89-.18-.88-.25-.83-.29-.8-.33-.77-.38-.75-.4-.7-.45-.67-.49-.63-.5-.6-.51-.55-.54-.19-.55-.49-.57-.46-.58-.44-.59-.4-.58-.38-.62-.35-.6-.32-.6-.31-.61-.3-.67-.5-1.18-.44-1.24-.38-1.25-.33-1.25-.27-1.25-.22-1.25-.18-1.25-.13-1.25-.09-1.25-.01-1.21v-2.42l.07-1.2.11-1.2.15-1.18.2-1.17.24-1.17.3-1.15.36-1.15.42-1.15.48-1.06.34-.65.25-.42.5-.78.16-.24.59-.7.41-.46.65-.64.64-.56.65-.55.7-.57.71-.55-.06-.22-.19-.81-.13-.69-.1-.68-.07-.68v-.25l-.82.05h-.18l-.69-.05-.66-.09h-.17l-.85-.2-.82-.28h-.15l-.91-.44-.85-.55-.14-.1-.56-.45-.54-.5-.48-.55-.08-.11-.6-.84-.49-.9-.06-.15-.32-.8-.25-.81v-.19l-.14-.66-.06-.67v-1.78l.06-1 .14-1 .16-.95.22-.92.25-.92.28-.88.32-.85.35-.83.37-.84.38-.8.2-.4-.9-.53-1.92-1.17-1.91-1.2-1.94-1.25-1.97-1.29-2-1.3-2-1.34-2-1.35-2-1.4-2-1.4-2-1.43-2-1.45-1.95-1.48-2-1.49-1.93-1.5-1.95-1.53-1.92-1.53-1.92-1.54-1.88-1.55-1.88-1.56-1.85-1.57-1.57-1.58-1.8-1.58-1.79-1.59-1.75-1.56-1.71-1.57-1.7-1.57-.49-.45-.56.32-1.2.55-1.25.53-1.26.54-1.3.51-1.34.49-1.33.46-1.37.44-1.36.41-1.4.4-1.39.35-1.41.34-1.4.28-1.42.25-1.4.2-1.42.17-1.43.1-1.32-.02h-1.5l-.71-.05-.74-.06-.73-.09-.75-.11-.75-.15-.77-.19-.76-.21-.77-.27-.78-.3-.85-.4-.64-.35-.73-.47-.3-.2-.77-.61-.25-.24-.4-.36-.36-.4-.2-.25-.37-.45-.32-.49-.16-.25-.32-.51-.27-.54-.11-.28-.24-.53-.18-.57-.08-.3-.14-.55-.11-.55v-.3l-.06-.53v-2.09l.12-.83.11-.68.12-.4h-.4l-.85-.05-.48-.05-.79-.13-.78-.2-.78-.27-.74-.31-.73-.37-.68-.42-.64-.46-.58-.49-.37-.33-.51-.55-.49-.58v-.07l-.46-.72-.4-.76-.32-.8v-.09l-.21-.71-.14-.74-.08-.73v-.92l.07-.81v-.1l.12-.6.15-.62v-.12l.29-.8.06-.13.4-.85.17-.28.4-.65.37-.54.53-.7.5-.61.52-.59 1-1.1 1.06-1.13 1.05-1.13 1-1.17.47-.55.45-.55.43-.52.39-.51.33-.47.28-.42.09-.15-.09-.3-.15-.73v-.17l-.1-.88v-1.38l.07-.62.12-.62v-.11l.15-.64.22-.61v-.1l.26-.62.32-.58.05-.1.33-.52.35-.48.09-.09.33-.4.37-.38.08-.08.43-.39.45-.35.2-.15.74-.46.33-.75.42-.95.4-1 .4-1 .36-1 .37-1 .37-1.05.35-1.07.23-.73h-.67l-1-.06-1-.19-1-.31-.92-.42-.86-.53-.79-.64-.71-.73-.62-.8-.27-.47-1 .17-1 .05-1-.05-1-.19-.92-.28-.88-.37-.74-.46-.7-.51-.65-.59-.58-.63-.5-.7v-.08l-.44-.75-.36-.8-.27-.84v-.11l-.15-.69-.09-.68v-2.18l.13-1 .13-.82-.33-.5-.16.25-.54.71-.53.72-.55.68-.58.67-.64.67-.66.65-.77.66-.57.44-.63.41-.33.2-.84.45-.3.15-.85.34-.46.15-.47.11-.75.17h-.13l-.85.08h-1.48l-1-.11-.52-.1-.48-.14-.79-.26-.11-.05-.82-.35-.12-.07-.78-.47-.12-.06-.76-.59-.1-.08-.69-.65-.08-.08-.63-.75-.07-.1-.5-.74-.07-.11-.4-.77v-.12l-.21-.51-.19-.55-.08-.25-.15-.62-.12-.63v-.29l-.08-1v-1.83l.15-.93.19-.85.21-.77.24-.73.23-.69.28-.7.5-1.2.57-1.2.57-1.13.56-1.07 1-1.83.82-1.5.58-1.08.65-1.14.65-1.11.67-1.1.67-1.09.66-1.08 1.35-2.05 1.35-2 1.32-2 1.3-1.94 1.27-1.9 3.05-4.7.15-.26 1-1.94 1.39-2.6.45-.86-.17-1-.25-1.65-.22-1.67-.18-1.7h-.2l-1-.07h-.1l-.95-.16-.93-.29h-.1l-.8-.35-.75-.4-.1-.07-.59-.4-.55-.43-.1-.1-.4-.38-.38-.4-.1-.12-.55-.72-.3-.41-.42-.72-.31-.67-.25-.56-.3-.79-.27-.73-.25-.75-.25-.78-.42-1.47-.36-1.52-.3-1.53-.25-1.53-.2-1.54-.15-1.56-.1-1.55v-4.7l.08-1.59.12-1.56.16-1.59.22-1.58.23-1.58.27-1.59.32-1.56.05-.25-.27-.42-.42-.7-.36-.68-.32-.7-.3-.7-.25-.7-.22-.69-.18-.7-.15-.66-.13-.69-.12-.73-.15-1.23-.08-1.3v-2.54l.07-1.23.12-1.22.15-1.2.18-1.2.22-1.16.23-1.15.25-1.14.27-1.11.26-1.09.3-1.06.3-1.07.6-1.95.6-1.83.57-1.67 1-2.68.36-.95.4-1 .42-1 .47-1 .48-1 .5-1.05.55-1 .57-1.07.58-1.08.62-1.09.63-1.1.67-1.1.68-1.11.72-1.12.73-1.12.75-1.13.78-1.13.8-1.14.82-1.13.83-1.13.87-1.14.88-1.13.9-1.13.92-1.14.93-1.11 1-1.1 1-1.12 1-1.08 1-1.09 1-1.06 1-1.07 1-1 1.06-1 1.09-1 1.1-1 1.11-1 1.14-1 1.15-.94 1.15-.9 1.18-.86 1.18-.85 1.2-.84 1.24-.78 1.23-.77 1.25-.71 1.27-.7 1.28-.65 1.3-.62 1.32-.57 1.33-.53 1.35-.48 1.37-.42 1.4-.38 1.4-.32 1.43-.27 1.38-.2.79-.06.73-.07h3.7l.75.07.73.08.75.1.75.12.75.15.75.16.74.19.75.21.88.27.47.2.81.37.2.1.84.5.16.11.79.62.15.13.71.7.14.15.63.79.12.16.48.77.08.18.39.8.08.19.27.73.18.55.18.88.12.84.05.76v1.52l-.11 1.13-.14.65.24-.15 1-.56.62-.3.6-.27.63-.25.65-.23.7-.22.72-.18.78-.15.82-.12h1.75zm129.63 298.13.09.2.06.2v-.6zm-128.31-72.17.33.25-.1-.31zm-4.72-18.38v2.33h.5l.16-.05-.48-2-.12-.5zm84.25-11.62.4 1.1.33 1.12.3 1.12.25 1.11.24 1.14.2 1.16.06.49.17-.55.2-.79.15-.73.13-.73v-3.09l-.09-.07-.31-.25-.35-.28-.35-.25-.34-.23-.33-.22-.32-.2-.25-.15zm-143.22-.53v.05zm83.1-12.25-.36 1-.34 1-.31 1-.3 1-.29.95-.28.95-.23.95-.24.94-.21.93-.2.92-.07.35.48-.55.89-1.07.1-.53.4-2 .45-2 .45-2 .45-1.85-.27-.17zm-55.83 6.58-.22.7.5.1-.11-1.2v-.2zm235.7-17.1-1.75 1.94-1.2 1.33.05.18.18.77.15.75.12.77.1.73.07.75.05.73v1.4l.05-.06.75-1.45.75-1.4.75-1.35.25-.45v-.07l.18-1.32.19-1.31.16-1.32.14-1.3.06-.55zm.3-19-.38 1.13-.42 1.1-.47 1.1-.35.84.49.21.88.54.8.65.65.66-.07-1.1-.08-1.05-.1-1-.12-1-.15-.95-.16-.91-.19-.87-.06-.22zm-60-41.38.47-.07.71-.08h.42l-.1-.06-.42-.25-.42-.24-.4-.2-.4-.18-.23-.12zm-7.7-26.54.23 1.3.24 1.09.08.36.1.37.42 1.53.73 2.67.15.55h2.73l1 .06 1 .12 1 .13 1 .19.86.2-.06-.2-.19-.5-.18-.47-.2-.47-.2-.43-.22-.42-.21-.38-.24-.38-.23-.35-.23-.34-.25-.33-.25-.3-.24-.27-.23-.25-.33-.28-.42-.35-.52-.4-.6-.43-.7-.47-.76-.48-.84-.52-.91-.52-1-.55-.56-.3zm-105.47 1.85.19.64.31 1 .12.49.43.06 1.1.22-.45-.7-.78-1.23-.38-.65zm25.4-4.35h-2.76l-1.4.08-1.44.1-1.43.13h-.1l.1.12.48.51.49.52.48.5.52.5.5.48.53.47.53.47.54.46.55.45.55.44.4.3.43-.65.45-.64.43-.6.47-.58.48-.57.5-.58.54-.55.56-.57.62-.53.37-.32h-2.04zm48.82-10.11 1.37 1 .28.2.3.2.43.27.55.3.64.33.7.35 1.66.82 1.84.86 2 1 2.05 1 .9.46v-2.85l-1.25-.43-1.61-.55-1.62-.53-1.63-.52-1.65-.52-1.65-.5-1.67-.5-1.57-.45zm-121.77-39-1.35 1.3-1.35 1.34-1.35 1.36-1.35 1.37-1.35 1.36-1.33 1.4-1.32 1.4-1.31 1.42-1.3 1.43-1.3 1.44-1.29 1.45-1.25 1.46-.26.3-.49.92-1.58 3.05-3.22 6.16-.4.75.39-.51.56-.75.74-1 1.85-2.27 5.13-6.25 2-2.5 1.2-1.67 1.4-1.93 1.42-1.92 1.45-1.91 1.5-1.92 1.53-1.92 1.57-1.88.83-1 .82-.95.33-.36.35-.49zm480.9-96.23.8.13.52.13.76.25h.17l.9.4.15.07.55.3.52.35.11.08.57.44.53.5.1.1.39.41.36.45.4.55.55.87.47.9.38 1 .3.93.22 1 .15.94v.25l1.18-.84 1.73-1.23 1.8-1.27 1-.65 1-.63 1-.65 1-.62 1-.6 1.08-.58 1.12-.57 1.16-.51 1.17-.45.68-.25.65-.2.67-.19.67-.16.7-.15.71-.14.78-.13.76-.08h2.37l.8.09.83.13.84.17.81.23.82.27.82.33.8.37.76.43.75.47.72.5.73.56.64.57.63.65.55.67.5.7.45.71.38.72.34.72.28.71.25.7.2.72.17.68.11.69.1.66.09.74.08 1.23v1.28l-.05 1.27-.12 1.25-.16 1.25-.2 1.27-.25 1.26-.29 1.27-.33 1.28-.35 1.3-.38 1.3-.45 1.33-.43 1.33-.25.72h.55l.78-.05h1.57l.8.07.88.11.68.14.77.2.35.1.8.3.33.13.8.38.3.17.8.5.27.2.62.48h.05l.56-.23h.09l.75-.25.75-.18h.1l.91-.1h1l1 .1 1 .23h.09l.93.34.88.43h.09l.73.47.67.55.08.06.52.52.46.55.09.08.31.45.3.47.07.12.42.81.2.44.16.48.24.77.18.68.27 1.53.18 1.44.13 1.45.07 1.46v2.92l-.07 1.48-.1 1.49-.15 1.5-.18 1.5-.23 1.51-.25 1.52-.29 1.53-.31 1.54-.35 1.55-.37 1.56-.4 1.57-.4 1.48-.45 1.58-.46 1.58-.49 1.6-.5 1.6-.53 1.62-.53 1.6-.55 1.62-.59 1.63-1.18 3.23-1.22 3.24-1.3 3.25-1.29 3.23-1.3 3.2-1.31 3.17-1.32 3.13-2.57 6.12-2.46 5.87-1.15 2.8-1.1 2.71-1 2.62-1 2.48-.88 2.39-.38 1.1-.39 1.1-.33 1.05-.32 1-.28.95-.12.4-.16 1.25-.29 2.1-.36 2.7-.47 3.21-.52 3.57-.63 3.8-.34 2-.35 2-.38 2-.38 2-.42 2-.42 1.91-.45 1.87-.43 1.72-.48 1.75-.5 1.65-.27.85-.28.78-.28.78-.32.79-.32.75-.36.76-.39.77-.45.78-.53.8-.42.55-.48.59-.25.25-.53.53-.07.77-.13 1.2-.17 1.2-.2 1.2-.22 1.18-.26 1.2-.29 1.18-.3 1.2-.35 1.19-.35 1.18-.38 1.18-.42 1.19-.43 1.18-.45 1.18-.47 1.19-.5 1.18-.5 1.17-.53 1.18-.55 1.17-.55 1.16-.58 1.17-.59 1.17-.61 1.16-.64 1.17-1.26 2.28-1.32 2.29-1.37 2.26-.61.95-.4 2.07-.24 1.17-.3 1.35-.7 3-1.78 7.28-1 4.14-.52 2.15-.5 2.2-.5 2.23-.5 2.27-.46 2.26-.19.94.6.06.84.12.68.15.77.2.38.12.8.3.35.15.83.41.32.19.82.51.28.22.75.62.25.23.68.72.22.25.57.76.2.29.45.76.16.32.35.75.14.33.25.72.2.68.21 1 .14 1 .06.95v1.75l-.09.83-.11.82-.14.78-.16.78-.19.75-.2.75-.21.72-.25.73-.25.7-.29.75-.56 1.35-.64 1.35-.66 1.32-.7 1.3-.75 1.25-.77 1.23-.8 1.17-.82 1.13-.85 1.09-.86 1-.89 1-.51.51-.5.47-.52.47-.57.45-.61.45-.67.45-.77.43-.55.27-.7.3-.23.08-.9.28-.22.05-.58.12-.57.08h-.21l-.72.05h-.9l-.82-.1-.78-.17h-.18l-.85-.28-.82-.37-.17-.08-.78-.47-.73-.53-.15-.14-.6-.55-.55-.61-.14-.17-.31-.43-.3-.45-.47-.77-.55-1.07-.47-1.06-.38-1.07-.33-1.05-.27-1.07-.23-1.06-.19-1.07-.15-1.07-.11-1.08-.07-.82-1.13.55-1.33.76-1.33.8-1.34.84-1.36.86-1.35.89-1 .66-.07.62-.11.77-.14.75-.16.75-.2.73-.22.72-.23.71-.25.7-.29.69-.3.66-.31.65-.34.65-.35.64-.36.61-.39.62-.41.65-.79 1.12-.88 1.13-.92 1.08-1 1.05-1 1-1.05 1-.67.58-.13.53-.2.69-.25.66-.25.65-.29.62-.3.62-.31.56-.37.64-.67 1-.73 1-.77.92-.8.86-.81.8-.84.77-.83.7-.85.68-.85.64-.85.6-.85.56-.85.54-.83.51-.85.5-1.57.87-1.53.8-1.4.7-1.27.6-1 .47-.37.18-.47.25-1.36.75-1.59.88-.91.5-1 .47-1 .47-1.05.43-.72.23-.75.22-.51.1-.77.13h-.23l-.52.05h-1.47l-.73-.12h-.17l-1-.25-1-.4-.13-.07-.79-.42-.71-.48-.67-.58-.12-.1-.63-.67-.57-.75-.43-.75-.25.23-.8.62-.88.5-.94.4-1 .28-1 .17h-1l-1-.08-1-.2-1-.33-.92-.44-.85-.55-.67-.55-.78 2.35-1 2.9-.51 1.47-.33 1.38-.53 1.43-.55 1.45-.57 1.42-.6 1.4-.63 1.38-.67 1.39-.7 1.33-.75 1.28-.42.69-.41.65-.45.63-.47.63-.48.62-.5.62-.54.6-.63.65-.8.73-.65.52-.4.26-.68.44-.15.06-.47.25-.48.2-.14.05-.7.24-.71.18h-.12l-1 .13h-1.09l-.85-.08-.81-.17-.82-.25h-.07l-.83-.35-.77-.45-.73-.52-.07-.07-.58-.51-.53-.57-.49-.62-.05-.06-.46-.77-.4-.82v-.1l-.23-.61-.18-.64v-.11l-.16-.9v-.15l-.07-1v-1.19l.06-.7.15-1 .19-.88.2-.87.23-.85.25-.88.55-1.75v-.12l-.38-.48-.62-.95-.52-.95-.4-.9-.35-.88-.33-.87-.3-.9-.28-.92-.29-1-.28-1-.53-2.09-.57-2.25-.2-.86-.47-.09.14 1.07.1 1v1.89l-.11.85-.2.83-.29.8-.36.78-.55.87-.65.81-.75.72-.82.62-.9.51-1 .39-1 .28-.8.12-.1.81-.17 1-.2 1-.22 1-.26 1-.32 1-.37 1-.41 1-.5 1-.57 1-.65 1-.77 1-.81.87-.55.52-.52.41-.53.42-.57.38-.6.37-.65.33-1 .47-1 .38-1.05.34-1 .25-1 .18-1.05.12-1 .05h-1l-1-.06-1-.1-1-.14-.95-.18-.92-.23-.9-.25-.88-.29-.87-.31-.85-.34-.83-.35-.82-.38-.8-.4-.78-.43-.77-.44-.77-.45-.75-.48-.75-.48-.73-.49-.72-.51-.73-.54-1.35-1.05-1.49-1.04-1.32-1.14-1.26-1.16-1.22-1.19-.92-.91-.6.28-.66.28-.69.24-.71.2-.74.16-.76.12-.79.07h-1.6l-.8-.08-.8-.15-.76-.19-.77-.25-.73-.28-.67-.32-.75-.38-.68-.4-.67-.43-.65-.47-.63-.47-.6-.5-.57-.51-.55-.55-.53-.55-.5-.57-.49-.58-.45-.59-.43-.61-.42-.62-.38-.62-.37-.63-.35-.65-.33-.65-.1-.22-.37.32-.78.62-.87.51-.91.4-1 .3-1 .19h-1l-1-.07-1-.18-1-.3-.82-.47-.85-.51-.8-.62-.7-.72-.61-.8-.52-.86-.42-.92-.28-1-.18-1-.05-1 .06-1 .19-1 .3-1 .41-.91.54-.85.61-.79.59-.58.1-.13.11-.22.14-.28.16-.33.17-.39.18-.43.19-.45.4-1.1.41-1.22.42-1.33.43-1.4.9-3.12.94-3.3.48-1.71.5-1.74.53-1.73.55-1.73.59-1.74.61-1.71.65-1.67.37-.87.37-.83.38-.83.4-.82.42-.82.43-.8.48-.8.5-.78.54-.78.58-.77.62-.75.68-.75.75-.73.8-.7.9-.67.67-.43.08-.15.82-1.27.86-1.23.9-1.2.94-1.15 1-1.14 1-1 .57-.55.55-.51.56-.5.57-.5.58-.47.6-.47.62-.45.63-.43.64-.4.66-.4.67-.38.68-.37v-.01l.15-1.37.18-1.38.2-1.42.24-1.43.25-1.45.26-1.47.3-1.48.32-1.5.35-1.5.35-1.52.4-1.52.4-1.51.42-1.54.45-1.51.46-1.5.5-1.52.5-1.5.54-1.47.55-1.48.56-1.45.59-1.42.6-1.41.63-1.39.65-1.36.67-1.32.7-1.32.73-1.26.22-.35.45-1 .48-1.05.52-1 .53-1 .55-1 .58-1 .6-1 .65-1 .67-.93.7-.92.73-.9.79-.86.9-.95.51-.47.65-.52.42-.31.42-.27.8-.42.11-.06.52-.22.53-.2h.12l.67-.19.68-.11h.1l.82-.08h.91l.92.1.88.2h.1l.87.3.82.38.08.05.75.45.68.52.07.06.53.5.5.55.07.07.35.47.32.46.4.17.8.37.78.41.75.45.72.49.36.28.29-.25.73-.63.75-.62.77-.58.78-.59.8-.55.82-.55.83-.51.83-.49.87-.46.87-.45.9-.44.9-.4.91-.36.94-.35 1-.32 1-.28 1-.27 1-.23 1-.19 1-.16 1-.15 1-.1 1.05-.07h2.31l-.41-.61-.1-.17-.37-.67-.23-.5-.3-.78-.22-.67-.23-.85-.19-.78-.18-.78-.17-.8-.15-.79-.15-.81-.21-1.55-.15-1.57-.1-1.58v-3.15l.06-1.57.1-1.55.15-1.57.2-1.55.24-1.53.16-1.64.32-1.54.35-1.51.38-1.52.42-1.52.45-1.5.47-1.5.5-1.48.51-1.48.55-1.49.57-1.46.58-1.47.62-1.47.47-1.11v-.09l-.72-3.18-.68-3.2-.63-3.25-.25-1.35-.42.42-.7.75-.73.76-.75.75-.75.74-.79.71-.78.7-.8.69-.8.66-.83.65-.85.62-.87.6-.88.57-.92.55-.93.53-1 .48-1 .45-1 .42-1 .38-.82.24-.87.21-.6.09-.82.15h-1.97l-.55-.08h-.2l-.63-.14-.62-.18-.18-.07-.69-.26-.65-.34-.16-.08-.67-.42-.62-.46-.15-.12-.56-.52-.52-.56-.12-.14-.43-.58-.4-.63-.1-.17-.28-.55-.25-.58-.07-.19-.18-.53-.15-.53v-.22l-.15-.88v-.22l-.06-.77v-1.25l-.16-.56-.27-1.19-.2-1.23-.13-1.23-.07-1.22v-2.4l.1-1.18.14-1.19.18-1.16.22-1.17.25-1.15.28-1.15.32-1.15.33-1.15.37-1.15.4-1.15.41-1.13.12-.32-.18-.22-.42-.53-.4-.53-.38-.57-.37-.57-.35-.58-.33-.58-.3-.6-.27-.6-.27-.6-.23-.62-.23-.68-.35-1.19-.29-1.25-.2-1.25-.13-1.23-.07-1.23v-1.22l.07-1.22.11-1.18.17-1.17.23-1.16.27-1.14.3-1.13.33-1.1.39-1.1.41-1.08.44-1.07.46-1.05.5-1 .52-1 .55-1 .55-1 .6-1 .6-1 .62-1 .65-1 .65-.95.66-.93.69-.92.7-.92.71-.9.72-.88.72-.87.73-.86.75-.84.75-.83.75-.82.77-.81 1.5-1.52 1.53-1.47 1.52-1.4 1.51-1.31 1.5-1.24 1.45-1.13.75-.57.74-.51.71-.5.55-.37.12-1.4.27-3.25.33-3.22.35-3.18.38-3.1.39-3.18.28-2.12.33-2.4.42-2.6.25-1.38.25-1.42.28-1.45.32-1.47.33-1.5.37-1.5.4-1.51.43-1.52.47-1.52.52-1.51.55-1.5.6-1.5.63-1.44.37-.75.36-.73.4-.72.4-.71.42-.7.45-.7.47-.7.5-.67.51-.68.55-.65.59-.65.61-.64.67-.61.68-.59.74-.56.78-.55.82-.5.8-.44 1-.48.94-.42 1-.38.95-.37 1-.31 1-.29 1-.23 1-.22 1-.16 1-.12 1-.08h1l.42-.25.6-.33.61-.33.64-.32.65-.28.66-.29.69-.25.7-.23.71-.22.74-.18.75-.15.76-.13.77-.1.78-.05h1.62l.82.05.81.09.82.11.83.17.82.22.8.23.82.28.78.34.78.35.77.4.75.43.45.3.7-.47 1.52-.95.93-.57 1-.58 1.05-.6 1.13-.62 1.18-.65.97-.79 1.3-.65 1.35-.65 1.39-.63 1.41-.64 1.47-.6 1.48-.56 1.52-.54 1.53-.5 1.54-.43.81-.22.8-.18.82-.17.8-.15.83-.13.82-.1.85-.08.85-.07h2.65l.92.09 1 .15 1 .2 1 .25 1 .35 1 .41 1 .5.95.6.93.69.88.78.55.6.49.55.5.65.66 1 .55 1 .44 1 .31.85.27.76.15.54.3-.09 1-.31 1-.29 1-.26 1-.25 1-.22 1-.2 1-.17 1-.13 1.08-.08h1.08l.75.05zm-149 296.91-.48.89-.5.86-.5.84-.52.81-.15.22-.1.3-.38 1.12-.39 1v1.15l-.07 2.09v1.86l-.12 1-.1.42.33.33 1 .92 1 .88 1 .85 1 .8 1 .77.47.33.47.33.46.34.47.3.47.28.45.27.43.25.42.23.41.2.4.18.37.17.37.13.33.14.32.1.28.08.27.05.23.05h.15l.1-.33.08-.43.1-.49.09-.51.08-.59.07-.61.05-.67v-4.63l-.07-1.77-.1-1.82-.15-1.85-.18-1.9-.2-1.91-.13-1.1-3-.95-3.9-1.2-1.15-.34zm136.2-52.88-.48.6-1.13 1.42-1.22 1.53-1.3 1.65-.78 1 .76-.38 1.45-.68 1.44-.65.56-.25.14-.82.43-2.45.18-1zm-34.2 3.82-1.77 2.2.89-.09h1.23l1.12.05-.12-.65-.15-1.27-.08-1.26v-.34zm-29.5-12.25v.83l-.06.52-.1.5.75.41.45.29.68.5.57.5.55.51.66.74.65.8.55.81.49.8.43.82.38.82.32.8.3.8.25.81.23.8.2.8.1.42 1-1.3 2.62-3.28.75-.95-.45-.1-.72-.19-.71-.21-.72-.24-.7-.28-.7-.3-.7-.33-.67-.37-.66-.4-.64-.43-.63-.45-.62-.49-.6-.5-.56-.53-.84-.83-.78-.85-.75-.9-.27-.35zm-22-24.77-.78.58-.77.59-.75.58-.7.55-1.28 1.1-1.15 1-.93.85-.67.64-.32.31-.31.37-.34.4-.35.43-.35.49-.36.53-.37.57-.38.6-.39.63-.36.67-.39.7-.36.73-.39.77-.36.78-.35.8-.37.85-.35.85-.33.87 1.33-1.62 1.87-2.35 1.86-2.35 1.85-2.37 3.67-4.73 1.82-2.35 1.26-1.6zm17.12 13-.43 1.28-.45 1.3-.15.4.51.22.14.05.51.26.5.3.12.09.17.13-.24-.88-.23-1.07-.17-1.07-.13-1.06v-.37zm40.38-12.53-.45.7-1.48 2.23-1 1.5-1.07 1.68-1.26 1.82-.82 1.16.72-.55.55-.41.3-.39 2.91-3.85 1.59-2.11.26-2v-.18zm-17-4.55-.47.61-.45.64-.45.63-.43.63-.43.62-.4.63-.39.62-.1.17.12-.07 1.14-1.6 1.08-1.59 1-1.51v-.09zm-9.85-14.9h-1.32v.68l.1 1v.31l.37-.45 1.35-1.55zm-18.68-5.7-.5.86-.5.85-.54.84-.13.2h.5l.83.05.82.1v-3.72zm36.23-12.7-.32.95-.31.91-.34.9-.35.9-.35.85.67-.48 1-.73v-.62l.18-2.45.12-1.4zm52.73-36.69-1.6 3.79-.43 1 .43.14.82.31.77.4.55.38v-7.39zm-60.2-23.4-.46.72-.49.7-.45.72-.93 1.5-.88 1.51-.87 1.57-.83 1.58-.82 1.62-.78 1.65-.79 1.68-.73 1.7-.73 1.72-.52 1.27 1.9-2.92.13-.2.49-1.1.7-1.55.4-.85.41-.83.45-.85.49-.85.51-.87.57-.87.62-.86.7-.89.76-.86.57-.57.23-1 .39-1.95.18-1.05v-.2zm-30.83 5.94-.1.13.2 1.65.08.58.2-.38v-2.45zm49.12-40.7-2.52 1.56-2.55 1.59-2.6 1.58-5.18 3.13-2.14 1.29h.09l.86-.26.37-.09.5-.1.53-.08h1.84l.63.05.65.1.28.05.67.15.65.22.27.1.61.25.6.32.25.13.55.33.52.39.23.18.44.37.41.4.2.21.55.64 1-2.72 1.25-3.32 1.27-3.3 1.32-3.26.45-1.07zm76.9-28.07-.8.65-.84.72-.86.75-.89.81-.88.85-.92.92-.91.93-.94 1-.95 1-1 1-.33.37-.27.53-1.35 2.5-1.3 2.4-1.18 2.34-1.18 2.11v1.22l-.05.57-.1.86-.13.95-.32 2.22-.37 2.55-.35 2.6-.15 1.18-.11 1.09-.09.88v.68l-.05 1.12v2.92l.15-.35 1.11-2.69 1.15-2.68 2.29-5.28 2.31-5.25 2.32-5.2 2.32-5.29.36-.75.52-1 .63-1.33.75-1.6.82-1.82.4-.93.42-1 .4-1 .38-1 .23-.61zm-107.42-8.3-1 1.5-1 1.5-1 1.53-1 1.55-1 1.55-.95 1.57-1 1.58-.35.62.08.06.33.35.62-.91 1.45-2.19 1.42-2.21 1.4-2.27.66-1.12.67-1.13.65-1.13.22-.39v-.8zm49.22 6h.06l.42-.47zm48.15-30.5-.62.33-.66.39-.7.43-.74.47-.75.5-.76.51-1.65 1.17-.34.23v.27l.06.92v2.7l-.06.88-.09.88-.11.87-.12.88-.17.87-.16.87-.19.88-.2.87-.23.9-.47 1.7-.53 1.75-.58 1.75-.62 1.75-.61 1.73-.68 1.75-.72 1.75-.72 1.7.14.2.26.45.44-.81 1.3-2.59 1.28-2.61 1.25-2.62 1.22-2.6 1.16-2.55 1.1-2.57.5-1.22.5-1.23.46-1.2.44-1.18.41-1.17.4-1.12.35-1.08.34-1 .3-1 .26-1 .22-.92.2-.85.15-.8.07-.35zm-55.18-10.15-.35.05-.39.07-.4.06-.43.09-.45.11-.43.1-1 .3-1 .34-1.08.38-1.1.43-1.12.45-1.13.5-1.12.5-1.08.54-1.11.53-1 .53-1 .54-.94.51-.86.5-.8.47-.7.42-1.2.75-.15.11.08.37.17.73.15.75.11.75.1.74.07.75v.73l.05.75v.53l.82-.78.91-.87.94-.86.93-.84 1-.83 1-.82 1-.81 1-.79 1-.78 1-.77 1-.75 1-.73 1-.72 1.05-.71 1.06-.69 1.09-.66 1.1-.67 1.02-.65.31-.17v-.23l-.05-.27zm-150.99 344.98 1.34.1 1.33.15 1.37.2.7.14.71.16.7.19.69.21.66.24.67.28.67.28.63.34.62.35.6.38.58.4.57.43.53.45.52.47.48.48.47.5.43.54.42.51.36.54.42.61.58 1 .07.13.43-.33 1.34-.95 1.3-.87.71-.45.69-.4.7-.4.7-.37.73-.35.75-.35.78-.3.82-.3.87-.25.93-.21 1-.15.71-.07h2.09l.33.05.52.1.53.11.3.09.38.11.39.14.38.15.27.13.4.18.38.2.37.24.25.15.36.26.37.27.33.3.24.2.31.3.3.32.29.33.2.23.25.34.23.33.22.35.16.28.19.34.18.35.22.5.3.71.25.72.21.77.17.78.12.78.08.8v1.64l-.08.8-.12.8-.18.76-.23.75-.27.74-.28.68-.34.65-.35.62-.38.6-.38.56-.42.54-.42.5-.48.53-.83.82-.92.8-.95.71-1 .67-1 .6-1 .57-1 .53-1 .5-1.05.47-1.08.45-1.1.41-1.12.39-1.13.38-1.15.35-1.17.35-1.18.32-1.18.3-1.22.3-1.22.26-1.21.27-1.22.23-.33.37-.54.72-1.51 2-.62.8-.3.35-.38.42-.44.42-.43.36-.48.34-.5.3-.52.28-.53.23-.55.19-.55.16-.57.12-.58.07-.59.05h-1.16l-.57-.1-.57-.12-.56-.17-.55-.2-.52-.25-.52-.26-.5-.32-.46-.35-.44-.38-.41-.4-.39-.44-.36-.46-.32-.49-.28-.51-.25-.52-.1-.25h-5.38l-1-.05-1-.07-1-.08-1-.1-1-.12-.95-.15-.94-.16-.93-.2-.93-.25-.95-.3-1-.39-.68-.31-.35-.19-.33-.18-.64-.37-1-.7-.77-.6-.37.33-.4.3-.42.27-.43.27-.43.21-.55.27-.7.3-.72.27-.72.23-.72.39-.72.16-.72.15-.71.14-.7.1-.7.06-.7.05h-2.1l-1.27-.08-1.28-.17-1.25-.21-1.22-.27h-.18l-.45.07-1.07.37-1.08.35-1.12.32-1.11.28-1.14.27-1.16.21-1.19.2-1.2.15-1.21.1-1.24.07h-1.65l-.55-.05-.55-.07-.53-.13-.53-.15-.54-.19-.5-.21-.5-.27-.47-.28-.43-.32-.32.1-.56.14-.59.08-.58.05h-1.15l-.58-.08-.57-.12-.57-.15-.55-.18-.53-.23-.52-.27h-.05l-.58-.07-1.17-.18-1.2-.22-.71-.18-.72-.19-.75-.25-.8-.3-.87-.38-.6-.32-.33-.18-.32-.22-.28-.18-.38-.28-.39-.3-.23-.2-.3-.25-.28-.29-.27-.28-.18-.22-.34-.4-.3-.41-.08-.12-.2-.32-.2-.31-.07-.12-.21-.42-.2-.43-.09-.2-.2-.52-.16-.53-.05-.2-.1-.4-.07-.4-.07-.42v-2.45l.07-.41v-.19l.09-.38.1-.38.11-.39.07-.16.18-.5.22-.49.08-.18.22-.42.25-.4.1-.16.23-.35.25-.34.35-.43.6-.63.57-.54.63-.51.2-.14v-.27l.05-.43.08-.43.1-.44.07-.3.13-.45.17-.43.25-.65.45-.93.48-.82.48-.75.52-.68.42-.49v-.26l.06-1.14.14-1.11.18-1.1.23-1.07.27-1.05.32-1 .36-1 .39-1 .43-1 .47-1 .5-.91.51-.92.55-.9.59-.87.6-.86.61-.84.65-.81.69-.8.68-.79.72-.76.73-.74.75-.73.77-.7.78-.68.82-.67.81-.63.85-.62.85-.6.87-.57.88-.55.92-.51.92-.5.93-.47.95-.43 1-.4 1-.39 1-.33 1-.3 1-.27 1.05-.23 1.07-.18 1.07-.14 1.1-.08h2.4l.41.07.44.08.25.07.5.11.48.17.48.18.22.1.52.24.5.28.46.32.19.11.36.27.34.28.33.3.32.32.15.17.35.41.33.44.3.45.12.2.23.41.22.44.2.45.08.21.13.39.14.36.1.39.05.25.1.5.06.48v1.67l-.05.9v.11h.19l.88.07.92.11.95.17 1 .27.68.23.4.15.39.17.35.16.46.24.45.26.3.2.47.32.43.33.27.22.3.27.28.28.27.28.22.25.25.29.23.31.23.32.19.27.3.5.26.51.15.3.22.49.18.5.1.31.15.47.12.48.07.35.08.44.05.45v1.86l-.08 1.05-.1.69.2-.09 1.07-.41 1.06-.4 1.1-.37 1.14-.35 1.13-.33 1.15-.29 1.18-.26 1.2-.24 1.22-.18 1.25-.17 1.25-.11 1.27-.07h2.6zm-.2 17.3-.45.6-.48.59-.5.53-.35.33 1.75-.11 1.83-.17v-1.57l-.05-.23-.05-.2-.05-.15h-.08l-.79-.11-.33-.05z" fill="#808080"/><path d="m105.75 43.78.9.19 1 .31.92.42.85.53.8.64.7.71v.07l.55.7.46.75.39.8v.13l.2.54.16.55.12.46.1.55.13 1.09v1.08l-.03 1.08-.3 1-.43 1v.1l-.13 1.27-.19 1.92-.3 3.3-.25 2.03-.17 1.9-.16 1.91-.14 1.94-.13 1.91-.12 1.94-.1 2-.08 1.93-.15 3.9-.1 3.88-.07 3.9v9.36l-.05 2.78-.09 2.77-.1 2.76-.11 2.77-.14 2.75-.15 2.77-.33 5.46-.37 5.47-.4 5.43-.44 5.47-.4 5.42-.4 5.38-.35 5.37-.33 5.35-.13 2.65-.14 2.66-.11 2.67-.1 2.65-.07 2.65-.07 2.63v82.92l-.06 15.6v7.8l-.07 7.8-.08 7.82-.1 7.8-.12 7.81-.15 7.8-.17 7.82-.18 7.8-.22 7.8-.25 7.82-.28 7.8-.3 7.8-.35 7.78-.37 7.8-.41 7.78-.45 7.79-.5 7.76-.54 7.77-.58 7.77-.62 7.73-.15 1.07-.3 1.05-.43 1-.57.93-.66.87-.79.75-.88.65-1 .53-1 .4-1.07.27-1.08.13h-1.08l-1.09-.23-1-.29-1-.43-.93-.57-.85-.66-.77-.79-.65-.88-.53-1-.4-1-.27-1.05-.13-1.08v-1.08l.61-7.69.59-7.66.51-7.69.49-7.68.45-7.7.41-7.7.37-7.72.35-7.71.3-7.74.27-7.73.25-7.73.21-7.75.19-7.75.16-7.77.15-7.75.12-7.77.1-7.76.08-7.77.07-7.77.05-7.78.07-15.55v-83.12l.06-2.78.09-2.77.1-2.77.11-2.75.14-2.76.15-2.75.33-5.47.37-5.47.38-5.45.42-5.41.4-5.4.38-5.39.37-5.36.33-5.37.13-2.65.14-2.67.11-2.65.09-2.65.08-2.65.07-2.65v-13.35l.1-4.08.17-4.07.08-2.07.12-2.05.12-2 .13-2 .15-2 .17-2 .18-2 .18-2 .3-3.28.2-2.05.22-2 .12-1 .13-1 .18-1 .15-.69.22-.73v-.15l.37-1 .06-.1.39-.73.45-.69.53-.63.05-.07.8-.76.9-.67 1-.53 1-.39.88-.22.9-.12h.92zm-9.12 10.47.1.35-.1-.37z"/><path d="m619.78 0 1.3.1 1.29.14 1.25.16 1.21.22 1.17.26 1.16.25 1.14.29 1.11.3 1.07.3 1.08.31 2 .64 2 .65 1.88.6 1.83.58.87.25.87.23.85.24.83.2.82.18.81.17.8.13.82.12 2.63.3 2.7.3 2.7.25 2.72.23 2.73.2 2.75.2 2.75.15 2.79.15 2.78.12 2.8.11 2.8.1 2.82.09 5.68.13 5.7.12 11.48.2 5.79.13 5.78.17 2.9.1 2.92.11 2.9.14 2.91.15 2.9.16 2.92.2 2.92.22 2.91.25 1.37.15 1.37.15 1.33.17 1.32.16 1.3.2 1.26.22 1.27.23 1.23.25 1.2.25 1.2.29 1.17.3 1.15.3 1.13.33 1.1.33 1.1.37 1.07.38 1 .39 1 .41 1 .44 1 .43 1 .47 1 .48.94.5.91.52.9.53.87.55.87.57.83.58.82.6.8.62.78.63.75.65.73.67.72.66.7.7.67.72.65.72.63.73.6.75.58.77.57.76.55.79.52.8.5.8.48.81.45.84.43.83.42.83.4.85.38.85.37.87.33.87.34.86.3.89.3.88.26.88.27.89.23.9.24.9.21 1 .39 1.78.31 1.85.29 1.85.23 1.87.2 1.88.15 1.9.12 1.92.08 1.91.05 1.94v6l-.05 2-.07 2-.08 2-.08 2-.24 4.05-.26 4.12-.23 4.06-.3 4.12-.25 4.2-.24 4.23-.1 2.1-.08 2.12-.07 2.11v26.73l.05 6.84.06 6.81.1 6.85.1 6.85.12 6.85.13 6.85.15 6.87.19 6.87.18 6.86.2 6.89.22 6.86.23 6.89.27 6.86.26 6.87.3 6.88.3 6.87.34 6.87.33 6.85.37 6.85.38 6.85.4 6.85.42 6.83.43 6.83.47 6.82.46 6.8.5 6.8.52 6.78.53 6.77.55 6.77.82 9.8.78 9.73.39 4.87.35 4.85.35 4.85.31 4.86.3 4.89.25 4.88.24 4.92.2 4.93.16 5 .12 5 .07 5.05v6.35l.1 1.65.13 1.88.15 2.08.17 2.24.16 2.36.12 2.44.05 1.28v3.87l-.05 1.31-.08 1.32-.12 1.33-.15 1.34-.2 1.33-.27 1.35-.3 1.28-.21.74-.2.66-.24.69-.25.68-.26.67-.3.68-.34.68-.36.67-.4.67-.42.66-.47.65-.5.65-.53.62-.58.6-.54.53-.56.49-.59.45-.6.43-.63.38-.65.37-.65.32-.67.3-.66.25-.67.21-.68.17-.65.15-.67.12-.73.08-1.17.08h-1.2l-1.15-.09-1.08-.15-1.05-.18-1-.23-.95-.25-.9-.29-.86-.28-.84-.32-.81-.3-1.49-.6-1.38-.58-1.27-.52-1.15-.45-.46-.16-.45-.15-.39-.12-.26-.07-.27-.05-.25-.05-1.28-.17-1.42-.17-1.45-.16-1.48-.14-1.54-.11-1.55-.12-1.58-.08-1.62-.09-1.63-.05h-8.4l-1.7.05-1.7.06-1.7.1-1.68.1-1.69.12-1.66.15-1.65.17-1.64.18-1.6.2-1.58.22-1.55.23-1.52.27-1.46.26-1.45.29-1.39.31-1.35.32-1.28.35-1.25.35-2 .62-2 .66-2 .69-2 .73-2 .77-2 .78-2 .82-2 .83-2.05.85-2 .87-4.13 1.78-4.17 1.82-4.2 1.81-2.11.92-2.15.9-2.15.88-2.17.89-2.18.85-2.2.85-2.24.81-2.23.79-2.27.75-2.28.71-2.3.69-2.33.65-2.34.58-1.2.3-1.2.27-1.2.25-1.2.23-1.21.23-1.22.2-1.93.32-2 .28-1.92.25-1.93.22-1.92.2-1.9.17-1.9.13-1.9.13-1.88.09-1.89.08-1.86.05h-9.25l-1.84-.07-1.81-.08-1.82-.08-1.83-.12-3.59-.25-3.58-.3-3.55-.33-3.55-.35-3.52-.4-3.5-.4-7-.84-6.9-.83-3.43-.4-3.42-.37-3.41-.35-3.4-.31-3.42-.27-1.68-.12-1.7-.11-1.7-.1-1.7-.09-1.7-.06-1.69-.05h-10.2l-1.73.04-1.73.08-25.8 1.55-25.8 1.52-12.9.75-12.9.71-12.92.69-12.9.65-6.46.3-6.47.3-6.47.28-6.46.25-6.47.25-6.47.23-6.48.22-6.48.2-6.49.18-6.48.15-6.5.14-6.5.11-6.5.09-6.52.06h-21.2l-2.73-.05-5.43-.14-5.42-.18-5.42-.22-5.38-.25-5.4-.28-5.37-.3-10.71-.62-10.69-.67-5.32-.3-5.31-.28-5.29-.25-5.28-.24-5.27-.2-5.26-.15-2.62-.06h-15.67l-2.6.05-2.6.07-2.58.08-2.6.08-2.58.14-2.57.06-2.58.15-2.58.18-2.57.2-2.58.24-2.57.25-2.57.28-2.55.3-2.56.32-2.55.36-2.57.37-2.55.42-2.55.43-2.53.47-2.55.5-2.6.53-1.9.4-2.84.55-3.63.68-4.27.77-4.78.83-2.57.42-2.63.43-2.7.42-2.75.42-2.78.4-2.8.38-2.8.37-2.8.33-2.75.32-2.74.26-2.66.24-2.59.2-2.51.15-2.4.08h-5.67l-1.07-.07-1-.08-1-.13-1-.15-1-.2-1-.25-1.07-.32-1.23-.45-1.07-.52-.7-.42-.61-.43-.64-.5-.38-.33-.6-.62-.22-.25-.6-.77-.18-.26-.45-.72-.17-.3-.33-.68-.28-.64-.32-.95-.25-.9-.18-.86-.14-.85-.08-.8-.07-.82v-2.33l.05-.82.11-1.52.17-1.56.22-1.57.26-1.6.3-1.62.34-1.63.35-1.65.36-1.65.39-1.65.8-3.27.81-3.21.77-3.07.7-2.88.32-1.32.26-1.25.25-1.13.19-1 .15-.88.1-.73.06-.59v-.45l.15-1.44.42-1.4.63-1.3.85-1.18 1-1 1.22-.82 1.32-.58 1.41-.35 1.45-.1 1.44.17 1.4.4 1.3.63 1.18.85 1 1.05.82 1.22.58 1.31.35 1.42.1 1.45v1.25l-.12 1.27-.18 1.31-.22 1.34-.26 1.36-.29 1.4-.31 1.44-.35 1.48-.74 3-.8 3.11-.78 3.15-.77 3.14-.35 1.51-.35 1.5-.3 1.45-.28 1.4-.25 1.34-.2 1.23-.17 1.17-.08.76h4.03l2.09-.08 2.2-.14 2.35-.16 2.43-.22 2.53-.27 2.6-.28 2.65-.33 2.69-.34 2.68-.38 2.68-.38 2.65-.4 2.62-.4 2.55-.42 2.47-.4 4.67-.74 4.15-.73 3.48-.67 2.7-.53 1.82-.37 2.67-.55 2.73-.53 2.73-.5 2.74-.48 2.73-.44 2.73-.4 2.74-.38 2.73-.35 2.73-.32 2.72-.3 2.73-.26 2.72-.24 2.73-.21 2.72-.19 2.72-.18 2.71-.13 2.72-.14 2.72-.1 2.71-.08 2.72-.07h16.23l2.7.05 2.72.05 5.38.16 5.39.2 5.38.24 5.37.25 5.36.3 5.37.3 10.7.61 10.67.64 5.31.28 5.32.28 5.32.25 5.3.22 5.3.17 5.3.13 2.63.05h20.8l6.45-.07 6.45-.08 6.43-.12 6.44-.13 6.45-.15 6.43-.19 6.42-.18 6.43-.22 6.43-.23 6.44-.25 6.41-.27 6.44-.26 6.43-.3 6.42-.3 12.86-.65 12.85-.69 12.87-.71 12.87-.74 25.8-1.53 25.85-1.53 1.88-.1 1.9-.09 1.88-.05h7.49l1.86.05h1.84l1.85.06 1.81.1 1.84.1 1.81.12 1.82.13 3.6.29 3.57.33 3.56.35 3.54.4 3.5.4 7 .83 6.9.84 3.44.4 3.4.36 3.41.35 3.39.32 3.38.28 3.4.24 1.67.1 1.68.08 1.68.08 1.69.05h10.08l1.68-.06 1.69-.09 1.68-.1 1.68-.13 1.7-.15 1.69-.17 1.7-.2 1.7-.21 1.7-.25 1.7-.27 1-.17 1-.2 1-.2 1-.2 1-.23 1-.23 2-.52 2-.55 2-.6 2-.63 2-.67 2-.72 2-.73 2-.77 2-.8 2-.81 2-.85 2.05-.87 2-.87 4.15-1.8 4.17-1.81 4.2-1.82 2.13-.9 2.15-.9 2.15-.88 2.17-.87 2.18-.85 2.22-.83 2.21-.8 2.25-.79 2.25-.73 2.3-.72 1.59-.45 1.63-.43 1.67-.4 1.7-.38 1.71-.35 1.75-.32 1.77-.3 1.8-.28 1.8-.25 1.83-.22 1.85-.22 1.85-.18 1.87-.15 1.87-.15 1.88-.12 1.88-.1 1.89-.06 1.86-.07h9.3l1.82.06 1.8.09 1.77.1 1.76.11 1.74.15 1.7.15 1.66.19 1.65.2 1.69.21 1 .17 1 .22.93.25.89.26.86.29.85.31 1.5.59 1.44.58 1.33.55 1.25.52.53.2.52.18.48.17.44.13.38.1h.1v-.11l.07-.2.08-.24.07-.23.06-.23.15-.64.14-.66.11-.75.09-.79.08-.86v-5.84l-.1-2.15-.15-2.17.12-2.08-.16-2.12-.14-2.06-.11-2v-6.9l-.07-4.89-.11-4.85-.15-4.83-.2-4.82-.22-4.78-.27-4.78-.28-4.79-.32-4.78-.33-4.78-.35-4.8-.38-4.8-.79-9.69-.81-9.8-.55-6.8-.54-6.81-.51-6.84-.5-6.85-.49-6.85-.45-6.86-.45-6.87-.41-6.88-.4-6.9-.39-6.89-.36-6.9-.35-6.91-.34-6.9-.3-6.92-.3-6.92-.26-6.91-.27-6.92-.23-6.92-.24-6.9-.2-6.91-.18-6.92-.17-6.9-.16-6.92-.14-6.9-.11-6.88-.1-6.88-.09-6.89-.08-6.86v-29.69l.05-2.26v-2.27l.07-2.23.08-2.24.1-2.21.25-4.37.25-4.3.29-4.2.26-4.13.27-4 .22-3.93.08-1.9.08-1.89.07-1.85v-8.78l-.08-1.64-.09-1.6-.13-1.55-.15-1.51-.36-1.47-.22-1.43-.25-1.39-.28-1.35-.15-.61-.17-.64-.17-.61-.16-.62-.19-.6-.2-.58-.2-.59-.2-.55-.21-.55-.24-.55-.23-.51-.25-.52-.25-.5-.25-.5-.27-.48-.28-.47-.28-.47-.3-.45-.3-.45-.32-.43-.33-.42-.3-.43-.35-.4-.36-.4-.39-.4-.38-.38-.4-.39-.42-.38-.43-.37-.45-.36-.45-.35-.48-.37-.5-.35-.52-.33-.55-.34-.55-.33-.57-.32-.6-.31-.6-.32-.63-.3-.67-.3-.68-.3-.72-.28-.73-.27-.77-.27-.78-.26-.82-.25-.83-.25-.87-.24-.9-.21-.92-.22-1-.2-1-.2-1-.18-1-.17-1-.17-1.1-.15-1.1-.13-1.15-.13-1.18-.12-2.78-.2-2.77-.2-2.77-.2-2.78-.17-2.8-.13-2.8-.14-2.82-.16-2.81-.1-5.67-.15-5.7-.14-11.45-.18-5.75-.11-5.76-.15-2.89-.09-2.9-.1-2.88-.1-2.88-.13-2.94-.15-2.89-.17-2.88-.2-2.86-.23-2.89-.25-2.88-.27-2.88-.32-2.9-.35-1.25-.16-1.24-.22-1.21-.23-1.19-.2-1.16-.28-1.14-.3-1.1-.3-1.08-.34-2.05-.63-2-.63-1.89-.62-1.81-.57-.85-.25-.85-.25-.84-.21-.8-.2-.78-.17-.78-.17-.75-.11-.74-.1-.71-.09-.72-.05h-2.07l-.7.05-.68.1-.73.12-1 .23-1.05.25-1 .3-1.07.33-1.06.37-1.09.4-1.08.43-1.08.45-1.1.5-1.12.52-1.12.53-1.11.57-1.14.58-1.11.6-2.32 1.29-2.33 1.31-2.4 1.34-2.39 1.4-2.41 1.4-2.45 1.38-1.25.7-1.25.69-1.29.66-1.28.65-1.28.64-1.3.61-2 .89-1.95.86-2 .85-2 .84-2 .83-2.05.82-2.09.8-2.08.78-2.12.78-2.13.75-2.15.75-2.17.74-2.18.71-2.22.72-2.21.68-2.24.69-2.25.66-2.26.65-2.29.64-2.28.61-2.3.62-2.32.58-2.31.59-2.34.55-2.33.55-2.35.53-2.37.5-2.35.5-2.38.48-2.37.47-2.33.45-2.37.43-2.38.42-2.4.4-2.38.38-2.39.35-2.38.35-2.38.34-2.39.31-2.38.29-2.38.28-2.37.25-2.36.23-2.37.24-2.35.2-2.35.18-2.35.15-2.33.15-2.34.12-2.31.11-2.3.09h-13.59l-2.21-.06-2.2-.09-2.19-.11-2.18-.01-2.15-.17-2.12-.16-2.1-.2-3.68-.47-3.65-.4-3.64-.4-3.61-.43-7.17-.88-7.12-.89-7.06-.86-3.52-.42-3.5-.42-3.5-.38-3.48-.38-3.47-.35-3.47-.32-3.45-.3-3.45-.27-3.43-.2-3.45-.18-3.43-.17-3.45-.1-3.45-.07h-8.57l-1.73.05-1.72.07-1.71.1-1.74.08-1.71.12-1.74.13-1.71.15-1.74.17-1.73.16-1.73.2-1.74.22-1.73.23-1.75.25-1.7.27-1.7.28-3.45.59-3.45.63-3.47.72-3.48.71-3.47.74-3.5.76-3.5.79-7.07 1.63-7.08 1.63-3.57.84-3.58.8-3.6.8-3.6.78-3.63.75-3.64.73-3.65.69-3.66.65-3.67.6-1.85.28-1.85.28-1.87.25-1.85.25-1.86.22-1.87.22-1.87.18-1.88.18-1.87.15-1.88.15-1.9.12-1.88.08-1.9.09h-9.54l-1.91-.05-1.94-.1-1.91-.12-1.94-.08-1.63-.15-1.63-.18-1.64-.2-1.6-.23-1.63-.24-1.6-.29-1.6-.3-1.59-.31-1.58-.34-1.57-.36-1.54-.4-1.52-.4-1.55-.4-1.55-.42-1.53-.43-1.55-.45-3-.92-3-1-3-1-3-1-2.95-1-2.92-1-5.8-2-2.85-1-2.83-1-2.82-.92-2.78-.87-2.87-.69-1.37-.38-1.37-.39-1.35-.36-1.33-.37-1.35-.32-1.35-.32-1.33-.3-1.32-.26-1.31-.25-1.32-.24-1.32-.21-1.28-.2-1.3-.17-1.28-.13-1.29-.12-1.26-.1-1.27-.07h-5l-1.32.07h-1.46l-1.42-.38-1.35-.55-1.22-.77-1.08-1-.9-1.14-.67-1.28-.45-1.38-.2-1.45v-1.45l.3-1.42.55-1.35.82-1.21 1-1.07 1.14-.9 1.28-.68 1.38-.44 1.45-.2 1.52-.08h4.82l1.6.06 1.6.09 1.58.11 1.58.15 1.57.19 1.57.2 1.56.23 1.55.25 1.57.27 1.53.3 1.55.31 1.54.35 1.53.35 1.52.37 1.51.4 1.52.4 1.52.42 1.51.43 3 .88 3 .94 3 1 2.95 1 2.93 1 5.82 2 2.9 1 2.88 1 2.87 1 2.85.94 2.83.9 2.85.85 1.38.4 1.4.4 1.4.38 1.4.37 1.4.33 1.39.33 1.38.32 1.38.3 1.29.15 1.37.25 1.36.24 1.37.21 1.37.2 1.35.17 1.35.15 1.35.12 1.7.13 1.68.1 1.7.08 1.7.07h6.8l1.7-.05 1.7-.07 1.7-.1 1.72-.1 1.7-.13 1.71-.14 1.72-.16 1.72-.19 1.71-.18 1.72-.22 1.72-.21 1.73-.24 1.72-.25 1.71-.26 3.49-.59 3.46-.61 3.47-.65 3.5-.7 3.48-.72 3.5-.77 3.52-.76 3.52-.8 3.53-.82 7.1-1.65 7.1-1.63 3.58-.8 3.6-.79 3.59-.76 3.61-.74 3.62-.71 3.63-.67 3.64-.62 1.83-.3 1.83-.28 1.92-.27 1.9-.26 1.9-.24 1.9-.21 1.88-.19 1.9-.18 1.89-.17 1.86-.13 1.89-.13 1.86-.1 1.87-.1 1.87-.07h11.07l3.65.06 3.66.12 3.64.17 3.63.2 3.62.23 3.61.28 3.6.32 3.59.33 3.61.29 3.58.39 3.57.41 3.57.42 3.55.42 7.11.88 7.1.88 7.12.87 3.55.42 3.57.41 3.56.39 3.55.36 1.94.19 1.93.15 1.95.15 2 .11 2 .1 2 .07 2.05.07h10.55l2.15-.07 2.17-.08 2.17-.09 2.2-.11 2.2-.15 2.21-.15 2.22-.17 2.23-.18 2.24-.22 2.25-.22 2.25-.25 2.25-.26 2.26-.27 2.27-.3 2.27-.32 2.26-.33 2.27-.33 2.27-.37 2.26-.38 2.27-.4 2.27-.4 2.26-.44 2.27-.45 2.25-.45 2.25-.46 2.23-.5 2.24-.5 2.23-.52 2.22-.53 2.2-.55 2.2-.55 2.18-.59 2.17-.58 2.16-.6 2.15-.62 2.12-.63 2.12-.63 2.1-.67 2.08-.67 2-.66 2.05-.7 2-.7 2-.72 2-.72 1.95-.73 1.93-.75 1.9-.77 1.89-.76 1.85-.77 1.83-.78 1.8-.8 1.75-.8 1.07-.52 1.06-.52 1.09-.55 1.1-.58 1.1-.6 1.11-.6 2.29-1.3 2.36-1.37 2.37-1.4 2.43-1.4 2.45-1.42 2.54-1.4 1.3-.7 1.34-.68 1.34-.67 1.33-.65 1.37-.63 1.38-.62 1.4-.58 1.41-.57 1.45-.53 1.47-.5 1.5-.47 1.52-.43 1.57-.35 1.58-.38 1.4-.25 1.42-.19 1.4-.11 1.38-.07h1.35z"/><path d="m201.17 342.78h1.11l.35.07.27.06.28.07.27.08.28.09.35.13.22.1.22.1.21.1.22.12.22.1.28.18.2.12.2.15.2.13.2.15.18.15.25.22.2.18.2.18.19.19.16.2.24.28.15.17.13.2.15.18.12.18.18.3.13.22.12.22.12.23.16.33.1.22.09.22.08.21.07.24.08.21.07.27.06.23.07.24v.23l.05.25v3.48l-.05.29-.07.28-.07.27-.08.28-.08.27-.1.26-.12.27-.1.27-.13.25-.14.25-.15.25-.15.23-.15.23-.16.24-.17.23-.18.22-.2.21-.2.2-.2.2-.2.19-.22.2-.23.16-.22.17-.23.17-.25.15-.24.15-.25.13-.26.13-.25.12-.27.12-.27.1-.26.08-.27.08-.28.09-.27.06-.28.05h-.29l-.2.27-.78 1.08-.8 1.17-.82 1.23-.83 1.3-.83 1.32-.82 1.35-.78 1.32-.74 1.3-.7 1.25-.63 1.18-.37.7v2.43l-.07.29-.06.26-.07.29-.08.26-.1.27-.1.27-.12.26-.12.25-.13.27-.13.23-.15.25-.15.24-.17.23-.17.23-.18.22-.18.22-.2.21-.2.2-.2.2-.47.42-.45.35-.18.17-.22.15-.2.13-.22.15-.2.12-.2.13-.21.12-.22.11-.22.1-.16.09-.25.11-.25.1-.25.1-.27.1-.27.07-.26.08-.18.24-.27.05h-.13l-.28.05h-2.55l-.27-.05-.25-.05-.25-.07-.27-.06-.25-.07-.23-.08-.25-.1-.25-.1-.23-.1-.24-.12-.25-.14-.25-.13-.23-.15-.23-.17-.24-.15-.23-.18-.22-.18-.21-.19-.2-.2-.18-.18-.18-.2-.19-.2-.16-.22-.15-.2-.17-.22-.13-.23-.15-.22-.14-.23v-.05l-.14-.25-.13-.25-.1-.25-.12-.25-.1-.27-.08-.26-.08-.25-.07-.29-.07-.26v-.14l-.05-.26v-2.66l.05-.27.08-.58.2-.84.24-.75.43-1.16.5-1.2.58-1.24.64-1.28.7-1.33.75-1.4.8-1.45.85-1.49.9-1.5.91-1.51.94-1.5 1-1.5 1-1.45 1-1.4 1-1.37 1-1.28 1-1.24.95-1.11.55-.59.53-.55.57-.55.63-.55.73-.56.54-.35.23-.15.23-.14.25-.13.25-.13.2-.12.22-.1.22-.08.21-.1.22-.09.23-.08.25-.08.27-.09.25-.06.27-.07-.2-.05.27-.05h1.87zm16.38 18.75h1.25l.25.05.23.05.25.07.24.06.25.07.23.08.23.1.24.1.23.1.22.1.23.14.22.11.21.14.2.13.22.15.2.15.2.15.18.17.2.16.19.17.16.18.17.19.17.18.16.2.15.2.15.2.15.22.14.2.13.21.12.24.11.21.12.24.1.21.08.24.1.25.09.23.06.23.07.25.05.25.07.24v3.35l-.07.25v.25l-.06.23-.09.25-.08.23-.08.24-.1.23-.1.23-.12.22-.12.23-.13.22-.12.22-.15.2-.13.21-.15.2-.17.2-.15.19-.18.18-.17.18-1.05 1.07-1 1.08-1.12 1.19-1 1.16-2.2 2.52-2.25 2.57-2.26 2.58-1.17 1.3-1.17 1.28-1.2 1.24-1.2 1.21-1.26 1.14-1.15 1-.19.17-.2.15-.18.16-.22.15-.2.14-.21.13-.22.13-.22.12-.21.12-.24.11-.23.1-.23.1-.24.09-.23.08-.25.07-.23.06-.25.07-.25.05-.24.05h-2.51l-.25-.05-.25-.05h-.24l-.25-.05-.25-.08-.23-.07-.23-.08-.24-.1-.23-.08-.23-.12-.24-.1-.21-.12-.22-.13-.22-.13-.21-.14-.2-.15-.2-.15-.2-.15-.2-.16-.19-.17-.18-.17-.17-.18-.18-.18-.17-.19-.15-.2-.16-.2-.15-.2-.14-.2-.13-.21-.13-.22-.12-.22-.12-.23-.11-.22-.1-.23-.1-.23-.09-.24-.08-.23-.07-.25-.06-.23-.07-.25-.05-.25v-3l.05-.25v-.25l.06-.24.07-.25.07-.23.15-.22.1-.23.08-.24.12-.21.1-.24.12-.21.13-.22.13-.22.14-.21.15-.2.15-.2.15-.2.16-.2.17-.19.17-.18.18-.18.18-.17.95-.87.9-.86.95-1 1-1 1-1.1 1-1.16 2.18-2.47 2.23-2.57 2.29-2.6 1.18-1.31 1.18-1.29 1.19-1.28 1.15-1.17.18-.18.18-.17.2-.16.19-.17.2-.15.2-.15.21-.13.22-.14.22-.13.21-.13.22-.12.23-.1.24-.1.23-.1.23-.08.24-.09.23-.08.25-.07h.25l.23-.05.25-.05h1.52zm58.37-103.15h.4l.4.05.38.05.4.08.38.1.39.12.36.13.37.15.37.17.35.18.33.2.33.22.32.23.32.25.3.27.28.27.27.3.25.3.25.31.23.32.2.33.2.35.18.35.15.37.15.37.1.33.32.12 2.73 1 1.5.57.8.33.82.33.82.37.83.42.85.45.88.51.89.6.76.59 1.07.86.92.75 2 1.54 2 1.53 2.09 1.53 2.11 1.55 2.17 1.57 4.4 3.18 2.22 1.62 2.21 1.67 2.22 1.68 2.17 1.72 1.1.88 1.08.9 1.07.9 1.05.92 1.05.93 1 .95 1 1 .95.91.28.29.25.3.25.31.24.32.21.33.2.34.19.35.16.36.17.37.12.37.11.38.1.38.09.4.06.39v1.98l-.07.38-.06.4-.09.39-.11.38-.12.37-.15.38-.17.35-.16.37-.2.33-.22.33-.22.34-.25.31-.25.3-.28.29-.28.28-.3.27-.3.23-.32.23-.33.22-.35.22-.35.18-.35.17-.37.15-.38.13-.41.07-.38.08-.38.08-.4.07h-2.37l-.38-.09-.39-.08-.38-.12-.38-.11-.37-.15-.37-.15-.35-.19-.35-.2-.33-.21-.32-.22-.31-.25-.3-.25-.3-.27-.84-.83-.81-.78-.85-.77-.87-.78-.9-.77-.9-.78-.95-.77-.93-.77-2-1.56-2-1.55-2.07-1.58-2.14-1.55-4.35-3.15-2.2-1.6-2.2-1.6-2.2-1.64-2.18-1.66-2.15-1.69-1.08-.88-.92-.75-.1-.07h-.05l-.15-.1-.27-.13-.35-.17-.4-.18-.48-.22-.52-.2-1.23-.47-1.32-.48-1.43-.52-1.43-.53-.79-.32-.78-.33-.78-.37-.82-.4-.85-.46-.88-.57-.64-.45-.28-.23-.3-.25-.58-.52-.59-.6-.5-.6-.5-.68-.26-.45-.2-.35-.19-.35-.06-.17-.12-.25-.1-.23-.1-.27-.07-.15-.1-.3-.08-.3-.08-.3v-.17l-.06-.3-.07-.3v-3.04l.05-.3.06-.3v-.18l.06-.28.09-.3.08-.29.07-.18.13-.37.15-.35.08-.2.15-.33.19-.33.25-.47.46-.72.34-.43.25-.3.26-.3.29-.28.28-.29.3-.25.32-.25.33-.21.33-.22.34-.2.36-.17.35-.16.39-.15.36-.12.39-.12.38-.08.4-.07.38-.05h.8z"/><path d="m315.58 245.38h.82l.4.07.4.08.4.1.38.12.39.13.38.17.37.18.35.18.35.22.35.23.31.25.32.25.3.29.28.28.29.32.25.31.25.32.21.35.22.35.18.37.19.36.15.39.05.15.1.28.1.28.08.29v.16l.07.27.05.28v.45l.05.37v2.27l-.05.38-.07.38-.08.42v.28l-.09.29-.08.28-.23.77-.42 1-.45.93-.48.89-.5.83-.54.82-.55.8-.58.78-.6.8-.65.82-1.25 1.68-1.43 1.65-1.57 1.7-1.6 1.74-1.65 1.78-3.46 3.63-3.57 3.77-1.72 1.88-1.75 1.9-1.74 1.9-1.68 1.88-1.6 1.85-1.55 1.84-.7.88-.7.88-.68.87-.64.83-.6.84-.56.8-.54.78-.48.75-.45.72-.4.68-.35.65-.32.6-.26.55-.21.5-.15.43-.12.37-.07.27-.05.26v.97l-.07.42-.07.4-.1.4-.11.38-.15.38-.15.39-.17.36-.2.37-.2.35-.23.35-.24.32-.26.31-.27.32-.3.28-.3.29-.32.25-.31.25-.35.23-.35.2-.35.2-.37.17-.38.16-.39.14-.4.13-.38.1-.4.07-.42.06-.4.05h-1.63l-.4-.07-.4-.08-.4-.08-.4-.12-.38-.15-.39-.15-.36-.17-.35-.2-.37-.2-.33-.23-.34-.25-.31-.25-.3-.27-.3-.3-.27-.3-.27-.31-.23-.32-.23-.35-.22-.35-.18-.35-.19-.37-.16-.38-.14-.38-.11-.4-.1-.39-.09-.4-.06-.41v-2.42l.06-.67.1-.71.24-1.2.3-1.22.38-1.18.42-1.15.48-1.12.52-1.1.55-1.08.58-1.09.62-1.05.65-1.05.68-1.05.72-1.05.73-1 .75-1 .78-1.05.8-1 .82-1 .85-1 1.72-2.05 1.76-2 1.82-2 1.83-2 1.85-2 1.85-2 3.6-3.8 3.4-3.6 1.59-1.69 1.48-1.61 1.37-1.5 1.21-1.42 1.07-1.3.45-.55.42-.53.35-.49.3-.43.13-.2v-.72l.07-.4.08-.4.1-.4.12-.38.15-.38.15-.39.18-.36.2-.37.2-.35.23-.33.25-.34.27-.3.27-.3.3-.3.3-.26.31-.27.34-.23.33-.24.35-.2.37-.18.36-.18.39-.15.38-.14.4-.11.4-.1.4-.09h1.22zm-8.16 11 .1.29-.12-.37zm-20.55-118.71h1l.31.05.34.07.31.08.32.08.32.1.31.12.3.13.3.14.3.16.29.15.28.19.27.18.26.2.27.2.25.22.23.23.24.23.23.25.2.25.2.27.2.27.18.28.17.28.15.29.15.3.13.3.14.31.1.32.1.32.08.31.07.32.06.33.05.34v2.43l-.1.52-.22 1.11-.27 1.42-.26 1.52-.22 1.28v3.25l-.05.15-.05.17-.05.15-.05.16-.07.15-.05.15-.06.15-.07.15-.07.15-.39.15-.07.15-.08.15-.08.14-.09.15-.1.13-.08.15-.1.13-.08.14-.1.13-.1.13-.12.14-.1.11-.12.14-.1.11-.11.12-.12.12-.07.06-.11.12-.12.12-.12.1-.13.11-.12.1-.13.1-.13.1-.12.1-.13.09-.14.1-.15.08-.13.08-.13.09-.15.08-.14.08-.15.07-.15.08-.15.07-.15.07-.15.06-.15.07-.15.05-.15.07-.15.05h-.32l-.15.05h-4.33l-.17-.05h-.17l-.15-.06-.15-.05h-.16l-.15-.07-.15-.07-.15-.06-.15-.07-.15-.07-.15-.08-.15-.08-.14-.09-.15-.08-.13-.08-.15-.09-.13-.1-.14-.1-.13-.08-.13-.12-.12-.1-.13-.1-.14-.11-.11-.1-.12-.12-.12-.12-.11-.11-.12-.12-.12-.13-.1-.12-.11-.13-.1-.13-.1-.13-.1-.12-.08-.13-.1-.14-.08-.13-.09-.15-.08-.13-.08-.14-.09-.15-.06-.13-.09-.15-.06-.15-.07-.15-.07-.15-.05-.15-.06-.15-.05-.15-.05-.15v-.15l-.05-.15-.05-.17v-2.88l.06-.92.1-.88.14-.88.26-1.7.32-1.72.28-1.48.2-1-.06.31v.22-1.85l.05-.17v-.15l.07-.17v-.15l.05-.15.07-.16.06-.15.07-.15.08-.15.07-.15.08-.14.09-.15.08-.15.08-.13.09-.15.1-.13.08-.14.1-.13.1-.13.1-.14.12-.11.1-.14.11-.11.1-.14.12-.11.12-.12.11-.12.14-.11.11-.1.14-.12.11-.1.14-.1.13-.1.13-.1.14-.1.15-.08.13-.09.15-.1.13-.08.15-.07.15-.08.14-.08.15-.07.15-.07.16-.06.15-.07.15-.05.15-.07h.17l.15-.05.17-.05h2.45zm17.26-13h1.22l.3.06h.3l.28.09.3.08.29.1.28.1.28.12.29.13.26.13.27.15.27.17.25.17.25.16.23.19.25.2.22.2.23.2.2.23.22.22.18.23.2.23.17.25.16.25.17.27.15.27.15.26.12.27.13.28v.12l.19.2.2.23.18.25.17.25.16.25.17.27.13.27.15.26.12.27.12.28.11.29.09.3.08.28.08.3.07.3.05.3v4.2l-.05.08v.29l-.21.5-.25.46-.05.09v.08l-.05.08-.05.07-.05.08-.05.09v.08l-.05.07-.05.08-.05.08-.05.07-.08.12-.05.08-.07.07-.66.23-.06.08-.07.09v.06l-.07.09-.06.06-.07.09-.07.06-.06.09-.07.06-.07.07-.06.08-.09.07-.06.07-.07.06-.07.07-.06.07-.09.06-.06.07-.09.07-.06.06-.09.07-.06.05-.09.07-.08.06h-.07l-.08.07h-.08l-.09.07-.05.18-.07.05h-.08l-.08.05-.09.06h-.08l-.08.05h-.09l-.08.05h-.1l-.08.05-.09.05h-.18l-.1.05h-6.95l-.09-.05h-.1l-.08-.05h-.25l-.08-.05-.1-.05h-.17l-.08-.05-.1-.05h-.09l-.08-.05-.08-.06h-.09l-.08-.05-.08-.07-.09-.05-.06-.07-.09-.05-.08-.06h-.08l-.07-.07-.08-.07h-.07l-.08-.06-.07-.07-.08-.07-.07-.06-.07-.07-.08-.07-.07-.06-.06-.07-.07-.07-.07-.06-.06-.09-.07-.06-.07-.07-.06-.08-.07-.09-.07-.06-.06-.07-.05-.08-.07-.07-.05-.08-.07-.07-.05-.08-.06-.07-.05-.08-.05-.09v-.06l-.07-.09v-.08l-.05-.08-.12-.2-.05-.09-.05-.08-.05-.08v-.09l-.05-.08-.05-.08v-.09l-.05-.08v-.27l-.26-.56-.3-.82-.2-.68-.19-.65-.23-1-.15-.87-.07-.43v-4.24l.05-.1v-.18l.05-.1v-.18l.05-.09v-.08l.05-.1.05-.08v-.1l.05-.09.05-.08.05-.08.06-.09v-.1l.05-.08.05-.08.07-.09.05-.08.07-.08.06-.09.05-.06.07-.09.07-.08.06-.08.07-.07.07-.08.06-.07.07-.08.07-.07.06-.08.07-.07.08-.08.07-.07.07-.07.08-.06.07-.07.08-.07.08-.06.07-.07.08-.07.09-.06.08-.07.07-.05.08-.07h.08l.09-.06h.08l.08-.07h.17l.1-.07h.35l.08-.05h4zm8.2 7.63v.3-.32zm-14.33-.18-.07.15.05-.1v-.07zm36.07-22.42h1.23l.3.05.3.06.3.07.3.08.3.1.28.12h.12l.37.07.3.06.3.09.3.1.28.1.3.11.28.12.27.15.28.13.27.17.25.17.27.16.25.19.23.2.23.2.24.21.21.22.2.23.22.24.18.23.19.25.18.27.15.26.17.27.13.27.13.28.14.28.1.29.11.3.09.3.08.3.07.3v.3l.05.3v5.03l-.05.08v.27l-.05.07v.06l-.05.07v.13l-.05.07-.05.07-.05.06v.07l-.05.07-.05.06v.07l-.05.07-.05.06-.05.07-.05.05-.05.07-.05.06h-.05l-.05.07h-.05v.07l-.07.05-.05.06h-.16l-.07.05h-.05l-.07.07h-.05l-.06.05h-.3l-.05.05h-.92l-.08.05h-11.31l-.07-.05h-.25l-.06-.05h-.32l-.05-.05h-.18l-.07-.05h-.13l-.05-.05-.05-.07h-.12l-.1-.1-.05-.06h-.1l-.05-.07-.05-.07h-.05l-.05-.06-.05-.05v-.07h-.05l-.05-.07-.05-.06-.05-.07v-.07l-.05-.06v-.07l-.31-.47-.05-.06v-.2l-.05-.07v-.07l-.05-.06v-.14l-.05-.06v-7.98l.05-.07v-.13l.05-.07v-.13l.05-.07v-.06l.05-.07v-.07l.05-.06h.05v-.14l.05-.06h.05l.05-.07v-.07h.05l.05-.06.05-.07.05-.07h.05l.05-.06h.05l.07-.07h.05l.05-.07.06-.05h.1l.07-.06h.05l.07-.05h.18l.07-.05h.55l.06-.05h.4l.07-.05h4.13zm6.73 3.53.1.12-.1-.13zm54.28-11.66h.94l.46.06.45.1.47.12.43.15.44.17.43.2.42.21.4.25.38.25.37.29.36.31.34.32.31.35.3.35.29.38.25.4.23.4.22.42.18.43.17.44.13.45.12.45.08.46.07.47v2.75h-12.44v-1.11.36-3.03h.3-1.18 3.64l.5-.05h.85zm-5.66 15.1.2.15h-.1zm10.4-13 .2.18-.22-.23-.3-.22zm36.78 11.73h1.32l.31.06.32.07.33.08.3.1.32.12.3.13.3.14.3.15.28.16.29.17.28.18.27.19.26.21.25.22.24.22.23.23.23.23.22.27.2.25.18.27.19.28.18.28.2.34.15.3.15.28.12.3.1.23.11.32.1.32.1.31.07.32.07.33.06.32v5.4l-.05.07v.13l-.05.08v.07l-.05.07v.06l-.05.07-.05.07v.06l-.06.1v.14l-.05.06-.05.07-.05.05v.07l-.05.06-.05.07-.05.07-.05.06v.05l-.05.07-.05.07-.06.05-.05.06v.07l-.05.05-.07.07-.05.05h-.07l-.05.06-.06.05v.06l-.05.07v.07l-.05.06-.05.07-.05.07-.05.06v.07l-.05.05-.05.07-.07.06-.05.07-.05.05-.05.07-.07.06h-.05v.07l-.06.07h-.05l-.07.06-.05.05-.07.05-.06.07h-.05l-1.61.41h-.07l-.05.05h-.06l-.07.05-.07.06-.06.05h-.07l-.07.05h-.06l-.07.05h-.07l-.06.05h-.07l-.07.05-.06.05h-.14l-.08.05h-.42l-.08.05h-.37l-.08.05h-7l-.07-.05h-.37l-.06-.05h-.09l-.06-.05h-.14l-.08-.05h-.07l-.06-.05h-.07l-.07-.05h-.13l-.07-.05-.06-.05h-.07l-.07-.05h-.06l-.07-.07-.07-.05h-.06l-.07-.05v-.07l-.07-.05-.06-.06h-.05l-.07-.05-.05-.07-.07-.07-.05-.05-.06-.06-.05-.05-.05-.07-.07-.07-.05-.05v-.06l-.05-.07-.23-.14-.05-.07-.07-.05-.05-.07v-.06l-.05-.07-.05-.07v-.08l-.05-.07-.05-.06v-.07l-.05-.07-.05-.06v-.09l-.05-.06v-.07l-.05-.07v-.15l-.05-.06v-6.33l.07-.22v-1.55l.09-.18.05-.07v-.22l.05-.06v-.07l.05-.08v-.2l.05-.07v-.07l.05-.06.05-.07.05-.07v-.06l.05-.07.05-.07.05-.06.05-.06v-.24l.05-.06v-.22l.05-.07v-.06l.05-.09v-.13l.05-.07.05-.06.05-.07v-.13l.05-.07.05-.07.05-.06.05-.07v-.07l.06-.06.05-.07h.05l.05-.07v-.06h.07v-.07l.07-.07.05-.06.06-.05.05-.07h.07l.07-.07h.11l.07-.06h.12l.06-.05h.07l.07-.07h.06l.05-.05h.35l.07-.05h.2l.07-.05h.36l.07-.05h4.61zm-7.53 12.12.23.41v-.51zm14.7-1v.63l.05-.13v-.52zm18.36 20.83h1.42l.28.07.29.07.26.06.29.09.26.1.27.1.27.11.25.12.25.13.25.14.25.15.25.16.23.15.22.19.23.18.22.18.2.2.2.2.2.2.18.22.18.22.19.23.16.23.15.24.15.25.14.25.13.25.13.26.12.25.1.27.1.28.08.27.07.27.08.28.05.28v3.82l-.05.15v.13l-.05.14-.05.13-.05.13-.05.14v.13l-.05.13-.06.14v.21l.05.72.07.73v3.09l-.05.13v.28l-.05.14-.05.13-.05.13v.14l-.05.13-.05.13-.05.14-.06.13-.07.12-.05.13-.07.13-.06.12-.09.13-.06.12-.07.13-.08.12-.09.12-.06.11-.09.12-.1.12-.08.11-.08.12-.09.1-.1.12-.1.1-.08.11-.1.1-.1.1-.1.1-.1.1-.12.1-.1.1-.11.09-.1.1-.12.08-.12.1-.1.08-.11.09-.12.08-.12.08-.13.07-.12.08-.11.07-.14.08-.11.07-.14.07-.11.06-.14.07h-.13l-.13.07h-.14l-.11.05-.14.06h-.41l-.14.05h-4.93l-.13-.05h-.14l-.13-.05h-.13l-.14-.07-.13-.05-.13-.05-.14-.06-.11-.07-.14-.07-.13-.06-.12-.07-.13-.07-.12-.06-.11-.09-.14-.08-.11-.07-.12-.08-.12-.08-.11-.09-.1-.1-.12-.08-.12-.08-.1-.1-.11-.1-.1-.1-.1-.09-.1-.1-.1-.11-.1-.1-.1-.1-.1-.12-.09-.1-.1-.12-.08-.1-.08-.11-.09-.12-.08-.12-.08-.11-.09-.12-.08-.13-.07-.12-.08-.12-.07-.13-.06-.12-.07-.13-.07-.12-.06-.13-.05-.13-.07-.14-.05-.13-.05-.13-.05-.14v-.13l-.05-.13-.05-.14v-.28l-.05-.13v-1.89l-.05-.68-.09-1.05v-3.05l.09-1 .18-1.08.18-.75v-.72l.15-.45.33-.78.27-.49.07-.11.06-.12.07-.13.08-.12.07-.12.08-.11.1-.15.07-.1.08-.1.07-.1.08-.1.07-.1.08-.1.09-.1.08-.1.1-.12.1-.1.08-.1.09-.1.1-.08.08-.1.1-.09.1-.1.1-.08.1-.08.12-.1.1-.1.11-.09.1-.08.12-.1.12-.08.11-.09.12-.06.13-.09.12-.08.12-.07.11-.08.14-.07.13-.06.12-.07.13-.07.13-.05.12-.06h.13l.14-.07h.13l.13-.05h.27l.15-.05h.13l.14-.05h.98-.57 1.15zm5.77 14.27-.1.1-.1.08-.12.1-.1.1.34-.28.1-.12zm6.32 23.13h.96l.32.05.32.06.31.07.3.08.32.1.3.12.3.12.3.13.28.13.29.17.26.15.29.18.25.19.26.2.25.2.24.21.23.22.22.23.21.25.2.25.2.25.12.19.17.21.15.19.2.2.78.73.87.83.21.24.24.23.2.23.2.27.2.25.16.27.19.28.15.27.15.3.13.28.13.3.12.3.1.3.08.32.09.3.06.31.05.32.05.33v3.9l-.05.1v.29l-.05.1v.1l-.05.1-.05.1v.08l-.05.1-.05.1-.05.08-.06.1v.09l-.05.1-.07.08-.05.1-.07.08-.05.09-.06.1-.07.08-.07.08-.06.09-.07.08-.07.08-.06.09-.07.08-.07.08-.08.09-.07.06-.06.09-.09.08-.06.07-.09.08-.08.07-.07.08-.08.07-.08.06-.09.07-.08.07-.08.08-.09.07h-.08l-.08.06-.09.07-.08.07-.1.06h-.08l-.09.07h-.1l-.08.07-.1.05-.08.05h-.1l-.1.05h-.09l-.1.05-.1.05h-.1l-.08.05h-.2l-.1.05h-.2l-.1.05h-5.98l-.1-.05h-.1l-.1-.05h-.19l-.1-.05-.1-.05h-.1l-.08-.05h-.1l-.1-.05-.08-.05-.1-.06h-.09l-.1-.05-.08-.07-.08-.05-.1-.07-.09-.06-.08-.07-.08-.05-.09-.07-.08-.06-.08-.07-.09-.08-.08-.07-.08-.07-.09-.06-.08-.09-.07-.06-.85-.82-1-.92-.64-.65-.68-.75-.72-.88-.5-.73-.06-.09-.05-.1-.07-.08-.05-.1-.05-.08-.07-.1-.05-.09-.05-.1v-.1l-.05-.08-.05-.1-.05-.1v-.1l-.05-.1-.05-.08v-.1l-.05-.1v-.2l-.05-.1v-1.79.05-3.82l.05-.1v-.2l.05-.1v-.2l.05-.08v-.1l.05-.1.05-.1.05-.08.05-.1v-.09l.07-.1v-.1l.05-.08.06-.08.05-.1.07-.09.07-.08.06-.1.05-.08.07-.09.07-.08.06-.08.07-.09.08-.08.07-.08.07-.07.06-.08.09-.09.06-.06.09-.09.06-.08.09-.07.08-.06.08-.09.07-.06.08-.07.09-.07.08-.06.08-.07.09-.07.08-.06.1-.07.08-.07.09-.06.08-.05.1-.07h.08l.1-.07h.09l.1-.05h.08l.1-.06.1-.05.08-.05h.2l.1-.05.1-.05h.29l.1-.05h3.15zm14.66 34.8h1.22l.25.05.23.05h.24l.23.06.23.07.24.08.23.09.23.1.22.1.22.1.21.11.22.12.22.12.2.13.2.13.2.15.2.15.18.15.2.17.17.17.18.16.17.17.16.18.17.19.15.2.15.18.13.2.55.23.77.37.22.12.21.11.2.12.22.13.2.14.2.13.2.15.2.15.18.15.19.17.16.16.19.19.16.16.17.19.15.2.15.18.15.2.13.2.14.2.13.22.12.2.11.21.12.24.1.21.1.22.08.23.09.24.08.23.07.23.05.24.06.23.05.25v3.87l-.05.11v.24l-.05.11v.24l-.05.11v.22l-.05.12-.05.1-.07.11-.05.12-.05.1-.06.12-.07.1-.05.1-.07.11-.06.1-.07.1-.07.1-.06.1-.07.1-.08.1-.07.1-.08.1-.07.09-.08.1-.09.1-.08.08-.07.1-.08.08-.1.09-.08.08-.09.1-.08.08-.1.09-.08.08-.1.07-.09.08-.1.08-.1.07-.08.08-.1.07-.1.08-.1.07-.1.07-.1.06-.1.07-.12.07-.1.06-.1.05-.11.07-.1.07-.12.05h-.1l-.12.06-.1.05-.11.05h-.24l-.1.05-.11.05h-6.32l-.12-.05-.11-.05h-.22l-.12-.06-.11-.05-.52-.25-.32-.14-.25-.1-.21-.08-.62-.22-.55-.2-.43-.18-.12-.05-.1-.05h-.12l-.11-.07-.1-.05-.12-.06-.1-.05-.18-.1-.1-.07-.1-.05-.1-.07-.1-.06-.1-.07-.1-.07-.1-.06-.1-.07-.1-.07-.09-.06-.16-.14-.1-.06-.09-.09-.1-.06-.08-.09-.08-.06-.1-.09-.09-.08-.08-.08-.08-.09-.09-.08-.08-.08-.15-.17-.08-.08-.07-.09-.08-.08-.07-.08-.08-.09-.07-.08-.07-.1-.06-.08-.09-.09-.06-.1-.14-.2-.06-.1-.07-.1-.07-.1-.06-.1-.07-.1-.07-.1-.06-.1-.29-.5-.36-.75-.45-1.06-.05-.1v-.12l-.05-.12v-.11l-.05-.12v-4.98l.05-.11v-.24l.05-.11v-.12l.05-.12.05-.11.05-.1v-.12l.05-.12.05-.1.07-.11.05-.1.05-.12.06-.1.07-.1.07-.12.05-.1.06-.1.07-.1.08-.1.07-.1.07-.1.08-.1.07-.1.08-.1.07-.08.08-.1.08-.08.09-.1.08-.09.08-.1.09-.08.08-.08.08-.09.1-.08.09-.08.1-.09.08-.08.1-.07.1-.08.08-.07.1-.08.1-.07.1-.06.1-.09.1-.06.12-.07.1-.07.1-.05.1-.06.12-.07h.1l.11-.07h.1l.12-.05h.1l.12-.05.11-.05h.12l.1-.05h.23l.12-.35h2.88zm22 25.07h1.35l.49.08h.23l.23.05h.22l.23.07.22.06.22.09.23.08.22.08.2.1.21.1.2.1.22.12.25.15.5.15h.38l.24.05h.23l.22.05.23.07.22.08.21.07.22.08.22.1.21.1.22.1.2.1.2.12.22.12.18.13.2.13.18.14.2.13.17.15.18.15.19.15.16.17.17.16.15.17.17.18.15.19.13.18.15.18.13.19.12.2.13.2.12.2.12.2.1.21.1.2.1.22.08.22.08.21.09.24.06.21.07.22v.47l.05.23v4.38l-.05.12v.22l-.05.1v.21l-.05.12v.1l-.05.12v.2l-.05.1v.11l-.06.1v.1l-.07.1v.1l-.07.1-.06.1-.07.1-.07.09-.06.1-.07.1-.07.08-.06.1-.09.1-.06.08-.07.09-.08.1-.09.08-.75.08-.09.09-.08.08-.08.08-.09.09-.08.08-.08.08-.1.07-.09.08-.08.09-.1.06-.08.07-.1.08-.09.07-.1.07-.1.06-.08.07-.1.07-.1.06-.1.07-.1.05-.1.07-.1.05-.1.06-.1.05-.1.05-.12.07-.1.05h-.21l-.1.05h-.12l-.1.05h-.22l-.11.05h-4.55l-.5-.1-1.1-.29-1.1-.35-1.05-.35-1.05-.38-.69-.3-.1-.05h-.11l-.1-.05-.1-.05-.1-.05-.1-.05-.12-.07-.1-.05-.1-.06-.1-.05-.1-.07-.1-.07-.1-.06-.08-.05-.1-.07-.1-.07-.09-.06-.1-.07-.08-.08-.1-.07-.08-.07-.09-.08-.1-.07-.08-.08-.08-.07-.09-.08-.06.35-.08-.09-.09-.06-.06-.09-.09-.08-.08-.08-.07-.1-.08-.09-.07-.08-.06-.08-.09-.1-.06-.09-.07-.1-.07-.08-.06-.1-.07-.1-.07-.08-.06-.1v-.1l-.07-.1-.05-.1-.06-.12v-.1l-.05-.1-.07-.1-.05-.1-.05-.11-.05-.1-.05-.1v-.12l-.05-.1-.22-.15v-.21l-.05-.12v-5.25l.05-.1v-.34l.05-.11v-.1l.05-.12.05-.1v-.1l.05-.12.05-.1.05-.1.06-.1v-.1l.05-.11.07-.1.07-.1v-.09l.06-.1.07-.1.07-.1.06-.1.07-.08.08-.1.07-.08.07-.1.08-.09.07-.1.08-.08.08-.08.07-.09.08-.08.09-.08.35-.17.09-.08.08-.09.1-.08.1-.08.08-.07.09-.08.1-.07.08-.07.1-.06.08-.07.1-.07.1-.06.09-.07.1-.07.1-.06.1-.05.1-.07.1-.05h.1l.1-.07.1-.05.1-.05h.1l.1-.05h.21l.1-.05.12-.05h3.19zm-.68 16.66h-.35zm5.57-15.28h.23-.2zm27 17.12h.95l.25.05h.23l.23.05.22.05.23.06.24.07.21.08.24.07.21.1.22.08.22.1.21.12.22.1.2.13.2.12.2.13.2.14.22.15.31.05h.24l.23.05.23.05.24.07.21.06.24.09.21.06.24.1.21.09.22.1.22.1.2.11.21.12.2.13.2.12.2.13.19.15.18.14.18.15.19.16.18.17.17.15.16.18.17.17.15.18.15.19.15.18.13.2.14.2.13.2.12.2.11.2.12.22.1.21.1.22.1.22.08.21.09.24.06.21.07.24.07.23.05.23v4.35l-.05.1v.24l-.05.11v.22l-.05.1v.22l-.05.11v.1l-.07.1v.12l-.06.1v.1l-.07.1-.07.1-.05.1-.06.1-.07.1-.07.1-.08.1-.07.1-.06.08-.07.1-.08.1-.09.09-.06.08-.09.1-.08.08-.08.09-.09.08-.08.1-.08.08-.09.09-.08.06-.08.09-.1.08-.09.08-.1.07-.08.08-.1.07-.08.07-.1.06-.1.09-.1.06-.1.07-.1.07-.1.05-.1.06-.1.07-.1.05-.12.07-.1.05h-.1l-.12.06-.1.05-.1.05-.11.05h-.12l-.1.05-.12.05h-.1l-.11.05h-.24l-.1.05h-3.2l-.75-.07-1.8.52-.72-.12-.66-.15-.7-.16-.74-.2-.81-.29-.57-.23h-.2l-.1-.05-.1-.05-.1-.05-.1-.05h-.12l-.25-.14-.1-.05-.1-.06-.1-.05-.1-.05-.08-.07-.1-.07-.1-.05-.1-.06-.08-.07-.1-.07-.09-.06-.2-.15-.08-.07-.08-.07-.1-.06-.09-.07-.08-.07-.08-.08-.09-.07-.08-.08-.08-.07-.09-.08-.08-.08-.08-.09-.07-.06-.07-.09-.08-.08-.08-.08-.09-.1-.06-.09-.09-.08-.06-.1-.09-.08-.06-.1-.07-.1-.07-.09-.06-.1-.07-.1v-.08l-.07-.08-.06-.1v-.1l-.07-.1-.07-.1v-.2l-.06-.1v-.12l-.05-.1v-.42l-.05-.11v-6.59l.05-.1v-.2l.05-.11v-.1l.05-.1v-.19l.05-.1v-.1l.05-.1.07-.1.05-.1.06-.08v-.1l.07-.1.07-.1.06-.08.07-.1.07-.09.06-.1.07-.08.07-.08.08-.1.07-.07.06-.1.09-.08.06-.09.09-.08.08-.08.08-.09.09-.08.08-.08.08-.09.09-.08.08-.07.08-.08.1-.08.1-.07.09-.08.1-.07.08-.08.1-.07.1-.07.1-.06.1-.07.1-.07.1-.06.1-.07.1-.07h.1l.1-.06.1-.05.12-.07.1-.05.1-.05.11-.05h.1l.12-.05.1-.05h.12l.11-.05.1-.05h.24l.11-.05h2.62zm5.78 14.16-.08.09-.09.08-.08.08-.1.09-.08.08-.09.08.44-.38.15-.18zm.83-1 .06-.07v-.05zm36.42-31.73h1.23l.3.07.3.06.3.09.3.08.3.1.29.12.28.11.28.14.27.15.27.15.26.16.27.17.25.18.23.19.24.2.23.21.22.22.21.22.2.23.2.25.19.25.18.25.17.27.15.26.15.27.13.28.13.29.12.28.1.28.1.3.08.3.07.3.07.3v4.22l-.05.15v.15l-.05.13-.07.15-.07.13v.15l-.06.14-.09.15-.06.13-.07.13-.08.14-.09.13-.08.13-.08.14-.09.11-.08.14-.1.13-.08.12-.1.11-.1.12-.1.13-.1.12-.1.1-.12.12-.1.11-.12.1-.11.12-.1.1-.12.1-.13.1-.12.1-.12.1-.13.08-.12.1-.13.09-.12.08-.13.08-.5.09-.14.08h-.08l-.11.1-.15.13-.47.45-.53.54-.55.6-.57.63-.53.62-1 1.21-.81 1-.32.35-.1.1-.1.1-.1.12-.12.1-.1.1-.11.1-.12.1-.12.1-.11.1-.12.08-.12.1-.13.09-.12.08-.13.08-.12.09-.13.08-.13.08-.14.07-.13.07-.13.06-.14.07-.13.07-.15.06-.13.07h-.14l-.15.05-.13.05-.15.05-.15.05h-.15l-.15.05h-4.28l-.15-.05h-.3l-.15-.05-.15-.05-.14-.05-.15-.07-.13-.05-.15-.06-.13-.07-.15-.07-.14-.06-.13-.07-.13-.08-.15-.07-.12-.08-.13-.09-.14-.08-.13-.08-.12-.1-.13-.09-.12-.1-.13-.1-.12-.1-.11-.1-.12-.1-.12-.1-.1-.11-.11-.1-.1-.12-.12-.12-.1-.1-.1-.11-.1-.14-.1-.11-.08-.12-.1-.13-.09-.12-.1-.13-.08-.14-.08-.11-.09-.14-.06-.13-.09-.13-.06-.15-.07-.14-.07-.13-.06-.15-.05-.15-.07-.13-.05-.15-.06-.15v-.15l-.05-.14v-4.67l.05-.15v-.3l.05-.15v-.14l.07-.15v-.15l.07-.13.06-.15.07-.13.07-.17.06-.12.07-.13.07-.12.06-.11.07-.14.07-.11.25-.39.08-.13.08-.13.09-.12.08-.13.1-.12.1-.13.08-.12.1-.12.1-.11.1-.12.12-.12.1-.11.12-.1.1-.12.11-.1.12-.1.12-.1.11-.1.64-.75.68-.8.75-.84.82-.86.85-.89.88-.83.53-.48.52-.44.57-.45.63-.45.72-.46.51-.29.14-.06.15-.09.13-.06.13-.07.15-.07h.14l.15-.06.15-.05h.13l.15-.05.15-.05h.3l.15-.05h2.03zm24.52-21.67h1.63l.23.05h.22l.23.06.22.07.22.08.23.09.22.08.2.1.21.1.22.12.2.11.2.12.2.12.2.13.18.13.2.15.19.14.16.16.19.15.16.17.17.17.17.16.15.17.15.18.15.19.13.18.13.2.14.2.13.2.12.2.11.2.1.22.1.2.1.21.09.22.08.23.08.22.07.22.07.23.05.22v5.25l-.05.12v.22l-.05.1v.21l-.05.1v.1l-.05.07v2.75l-.05.11v.54l-.05.11v.1l-.05.1v.22l-.06.1v.1l-.07.1v.1l-.07.1-.06.1-.07.1-.07.1-.06.1-.07.1-.07.08-.06.1-.09.09-.06.1-.07.08-.08.1-.09.08-.06.09-.09.08-.08.08-.08.09-.09.08-.08.08-.08.09-.1.08-.09.07-.08.08-.1.07-.08.08-.1.07-.09.08-.1.07-.1.06-.08.07-.1.07-.1.06-.1.05-.12.09-.1.06h-.1l-.1.07h-.11l-.1.07-.1.05-.1.05h-.1l-.12.05h-.1l-.1.05h-.12l-.1.05h-.2l-.11.05h-7.51l-.1-.05h-.22l-.1-.05-.12-.05h-.1l-.1-.05h-.1l-.1-.05-.11-.05-.1-.07h-.1l-.09-.05-.1-.07-.1-.06h-.05l-.1-.06-.1-.05-.08-.07-.1-.07-.1-.06-.08-.09-.09-.06-.1-.07-.08-.07-.08-.08-.09-.07-.1-.08-.08-.07-.08-.08-.09-.08-.06-.09-.09-.08-.08-.08-.08-.09-.07-.08-.08-.08-.07-.09-.07-.08-.08-.1-.07-.08-.06-.1-.07-.09-.07-.1-.06-.08-.07-.1-.07-.1-.07-.1v-.1l-.06-.1-.05-.1-.07-.1-.05-.1v-.1l-.05-.1v-.22l-.05-.1v-.1l-.05-.11v-5.17l.12-.62.23-.85.24-.73.23-.67.28-.7.47-1.08.32-.63.35-.64.25-.4.05-.1.06-.08v-.08l.07-.1v-.09l.07-.08.06-.08.07-.09.07-.08.1-.15.08-.08.07-.09.08-.1.07-.08.08-.08.08-.1.09-.09.06-.08.09-.08.08-.09.1-.06.08-.09.09-.08.08-.08.1-.07.08-.08.1-.07.09-.07.1-.06.1-.09.08-.06.1-.07.1-.07h.1l.1-.06.1-.07.1-.05.1-.07.1-.05h.12l.1-.06.1-.05.11-.05h.1l.1-.05h.12l.1-.05h.22l.11-.05h1.49-.6 1.29zm6.58 13.3-.07.09-.06.1.18-.24zm-11.73-8.25-.37.24.1-.07h.1l.1-.07h.1l.1-.06zm1.26-.56h-.06.09zm26.22-33.62h.88l.44.05.43.08.42.12.38.1.82.26.41.17.4.17.4.2.39.21.36.24.37.26.33.27.34.3.31.3.3.33.29.34.25.36.25.37.21.38.2.39.19.4.16.41.14.42.11.43.09.44.06.43v4.77h-9.72l-1.86 4.05h-.7v-13.1h.85-.15 2.38z"/><path d="m677.68 113.33 1.27.17 1.25.25 1.22.35 1.21.42 1.19.51 1.15.57 1.13.67 1.08.71 1.07.79 1 .85.51.45.49.48.45.5.43.5.4.52.43.6.62 1 .58 1.1.5 1.12.4 1.12.34 1.11.26 1.14.2 1.11.17 1.12.1 1.12.05 1.1v2.21l-.07 1.12-.1 1.1-.11 1.12-.17 1.1-.18 1.11-.22 1.1-.23 1.1-.27 1.1-.28 1.1-.32 1.1-.35 1.1-.35 1.09-.38 1.08-.42 1.08-.42 1.07-.45 1.07-.46 1.06-.49 1-.5 1.05-.53 1-.55 1-.57 1-.56 1-.6 1-.64 1-.63.93-.65.92-.68.88-.7.89-.72.85-.75.83-.77.8-.8.78-.81.75-.85.72-.9.7-.92.65-1 .62-1 .56-1.06.54-1.1.46-1.15.4-1.22.34-1.17.23-.73.08-.65.07h-2.02l-.68-.05-.68-.1-.69-.12-.66-.15-.69-.18-.65-.22-.63-.25-.63-.26-.6-.32-.6-.33-.57-.37-.53-.38-.6-.49-.6-.55-.19-.18-.18-.18-.18-.2-.34-.37-.25-.28-.21-.3-.52-.69-.63-1-.54-1-.45-1-.36-1-.32-1-.23-1-.2-1-.14-1-.11-1-.05-1v-3l.07-1 .1-1 .08-.61v-.24l-.22-1-.16-1-.14-1-.1-1v-4l.07-1 .08-1 .12-1 .15-1 .18-1 .18-1 .24-1 .23-1 .27-1 .3-1 .31-1 .34-1 .36-1 .39-.95.4-1 .43-.94.47-.91.46-.92.5-.9.54-.88.55-.89.58-.85.62-.85.63-.81.67-.8.68-.79.73-.76.77-.74.8-.7.85-.68.88-.65.92-.6 1-.57 1-.51 1.06-.47 1.09-.42 1.15-.33 1.16-.27 1.22-.2 1.23-.1h1.25zm-3.53 35.54v-.65zm-.13-5-.2.19-.24.23-.25.25-.26.3-.27.33-.27.35-.28.4-.27.42-.28.43-.15.29.35-.44.48-.58 1-1.37.65-.83z" fill="#fff"/><path d="m684.42 115.93h2.15l.38-.05h2.5l.35.07.35.08h.1l.37.1.33.12.5-.18.69-.24.7-.2.71-.18.74-.13.75-.1.75-.07h2.3l.76.08.77.12.75.15.75.2.73.21.74.27.7.28.7.34.68.35.67.36.65.4.63.44.62.45.56.43.54.43.51.47.52.48.48.5.47.52.43.53.44.54.4.55.38.56.37.59.33.6.32.58.28.62.27.61.25.62.21.62.22.68.32 1.2.23 1.25.15 1.27.08 1.23v1.23l-.05 1.22-.06.6.15.37.28.93.18.87.14.81.1.79v3.41l-.11 1.22-.15 1.12-.17 1-.18 1-.32 1.48-.22 1-.36 1.52-.25.9-.25.92-.29.95-.31 1-.35 1-.37 1-.4 1-.43 1-.47 1.06-.5 1.07-.55 1.07-.58 1.06-.64 1.07-.68 1-.73 1.05-.8 1-.84 1-.5.55-.48.48-.5.49-.53.46-.55.47-.59.45-.64.7-.64.41-.66.4-.69.37-.73.33-.75.32-.77.27-.81.25-.82.18-.85.17-.87.1-.86.06h-1.77l-.88-.08-.87-.14-.88-.18-.85-.23-.85-.27-.84-.3-.7-.3-.7-.33-.66-.37-.65-.38-.64-.4-.61-.44-.59-.45-.55-.46-.51-.53-.52-.52-.5-.52-.46-.53-.44-.55-.41-.57-.4-.56-.14-.19-.65-.11-.71-.17-.64-.17-.65-.18-.65-.22-.63-.21-.63-.27-.64-.27-.65-.31-.83-.45-.85-.5-.8-.54-.77-.56-.75-.62-.7-.65-.66-.67-.62-.7-.58-.73-.54-.75-.5-.75-.45-.78-.41-.79-.37-.8-.33-.8-.3-.8-.25-.8-.24-.81-.2-.8-.15-.8-.15-.8-.1-.79-.08-.8-.07-.78v-3.91l.07-.78.15-1.45.2-1.47.26-1.45.32-1.42.35-1.4.38-1.36.42-1.34.45-1.31.47-1.27.5-1.25.51-1.2.54-1.15.53-1.13.57-1.07.56-1 .6-1 .6-1 .55-.8.64-.82.68-.8.78-.78.6-.5.2-.17.2-.15.22-.15.33-.23.24-.15.21-.15.24-.13.35-.2.25-.14.23-.11.25-.12.37-.15.23-.1.25-.1.25-.08.72-.24 1-.25 1-.15.9-.08.82-.05h2.01zm-570.8 299.49h.53l.42.07.41.06.42.1.42.12.4.13.4.15.38.19h.07l.4.22.38.21.37.25.36.29.34.28.33.3.32.33.05.05.28.34.27.35.25.35.23.36.2.39.18.38v.08l.19.44.15.45.13.45.12.45v.11l.07.4.07.4v2.15l-.08 1.1-.15 1.09-.2 1.06-.23 1-.3 1-.34 1-.35.95-.4.93-.43.9-.45.89-.48.85-.5.83-.52.82-.12.16.07.22.1.37.1.38v.07l.06.41.07.4v2.12l-.05.37v.25l-.1.45-.12.46-.16.6-.34.87-.33.77-.35.73-.38.73-.42.74-.47.8-1 1.63-1.24 1.9-1.06 1.57.08.13.1.13.23.4.24.4.18.4.08.15.15.4.15.4.12.4.07.22.38-.25.77-.42.86-.4.6-.21.4-.14.4-.11.29-.07.45-.12.48-.06h3.04l.42.08.42.09.4.1.26.08.4.13.4.15.39.17.25.13.36.19.37.2.35.21.25.17.3.22.3.23.28.23.24.22.28.25.27.27.25.28.23.28.1.12.23.33.24.34.2.33.2.37.16.35.07.15.17.4.15.4.13.41.1.44v.15l.09.38v2.71l.08.5-.08.45v.22l-.1.36-.1.35-.17.5v.09l.25.28.29.4.28.4.25.42.22.45.2.45.16.45.15.46.12.49.08.48.05.48v1.47l-.07.48-.08.49-.12.48-.13.47-.17.46-.2.45-.21.44-.25.43v.08l-.24.34-.23.33-.25.3-.27.32-.35.36-.56.54-.57.48-1.13 1-1.39 1.08-1.6 1.24-1.78 1.33-1.92 1.4-2 1.45-2.07 1.45-2.18 1.4-2 1.35-2 1.25-.95.6-.92.55-.9.52-.86.5-.89.45-.91.42-1 .43-.75.22-.42.11-.43.1h-.17l-.43.08h-2.17l-.4.22-2.63 1.43-2.48 1.29-2.28 1.13-1.1.52-1 .46-1 .42-1 .38-1 .37-1 .3-.51.12-.37.06-.38.05h-1.93l-.47-.05-.43-.08-.45-.1-.43-.14h-.09l-.45-.15-.43-.18-.42-.2-.4-.24-.4-.25-.38-.26-.37-.3-.33-.3-.33-.34v-.05l-.32-.36-.3-.37-.27-.4-.25-.4-.23-.43-.2-.44-.17-.43-.16-.45-.12-.47-.07-.33h-2.05l-.4-.07-.4-.06h-.16l-.44-.1-.43-.11-.43-.15-.42-.19-.12-.05-.38-.18-.38-.2-.39-.23-.35-.25-.35-.27-.33-.28-.07-.07-.33-.32-.32-.33-.3-.35-.28-.37-.25-.38-.23-.4-.22-.4v-.08l-.18-.4-.15-.42-.14-.42-.11-.41-.1-.44-.07-.43v-2.3l.06-.43v-.12l.06-.38.1-.39.12-.36.13-.37.05-.13.12-.32.15-.3.15-.3.25-.47.48-.76.69-.89.66-.73.64-.67 1.08-1 1-.93.39-.37.26-.27.1-.11.07-.09 1.35-1.75 1.39-1.94 1.49-1.82 1.51-1.78 1.54-1.84.85-1-.12-.15-.25-.4v-.1l-.47-.09-.48-.11-.47-.14-.45-.15-.44-.19-.43-.21-.42-.24-.4-.26-.46-.29-.37-.3-.35-.33-.31-.34-.32-.36-.3-.37-.27-.4-.23-.4-.23-.42-.19-.43-.18-.45-.13-.45-.14-.47-.08-.45-.07-.48v-1.93l.08-.49.08-.46.12-.45.13-.41.15-.4.18-.4.2-.4.22-.39.23-.36.25-.35.29-.35v-.05l.26-.3.3-.3.32-.29.38-.33.64-.5 1.15-.8 1.46-1 1.75-1.17 2-1.3 1.3-.83.85-.79.93-.81.92-.79 1.73-1.48.72-.63.6-.57.2-.18.15-.17.08-.08v-.07l1.49-1.92 1.13-1.51.87-1.2.76-1.12.82-1.2 1-1.43 1.27-1.8 1.65-2.27 1.25-1.68 1.28-1.72 1.35-1.7.72-.9.68-.8 1.18-1.42.8-.93.49-.55.51-.53.59-.59.7-.63.83-.63.43-.29.34-.2.31-.18.14-.05.31-.17.32-.13.33-.13h.1l.37-.11.35-.12.37-.08.38-.07h.08l.45-.06h1.34z" fill="#fff"/><path d="m161.32 358.78.75.05.75.09.75.1.71.13.74.15.7.17.7.18.7.22.66.23.72.25 1.27.52 1.3.6 1.25.63 1.25.7 1.21.73 1.2.79 1.17.8 1.17.86 1.15.87 1.13.92 1.13 1 1.1 1 1.1 1 1.09 1 1.06 1 1.07 1 1 1.09 1 1.08 1 1.1 1 1.12 1 1.11 1 1.12 1 1.13.91 1.14.92 1.11.88 1.14.87 1.11.83 1.12.82 1.12.82 1.11 1.5 2.14 1.4 2.08 1.26 2 .62 1 .57.95.53.94.52.9.46.88.45.85.42.83.38.84.35.81.32.85.3.87.27 1 .13.69.08.46.05.47v1.92l-.06.58-.12.55-.07.33-.11.44-.12.43-.23.68-.42 1-.45.85-.45.78-.48.74-.5.7-.52.68-.53.67-.55.66-.6.69-1.19 1.3-1.3 1.33-1.38 1.35-1.45 1.38-1.52 1.4-1.56 1.4-1.64 1.44-1.65 1.43-1.71 1.34-1.72 1.43-3.4 2.8-3.33 2.77-3.18 2.55-2.94 2.33-2.56 2.07-2.14 1.71-.83.69-.67.56-.43.39-.27.23-2.73 2.69-2.8 2.78-2.83 2.78-2.85 2.75-2.85 2.75-2.85 2.72-5.72 5.44-5.75 5.41-5.75 5.39-11.5 10.76-11.48 10.69-5.72 5.31-5.68 5.37-5.65 5.38-2.82 2.7-2.8 2.7-2.8 2.72-2.78 2.71-2.77 2.74-2.73 2.73-.54.55-.5.52-1 1.13-1 1.17-1 1.2-1 1.23-1 1.25-2 2.62-2 2.61-1 1.34-1 1.31-1.08 1.32-1.12 1.3-1.15 1.25-.62.65-.63.62-.63.61-.65.6-.69.59-.7.58-.71.57-.75.55-.77.53-.8.5-.83.5-.85.45-.89.43-.91.4-.94.35-1 .34-1 .28-1 .23-1 .19-1 .13-1.06.1h-2.35l-1.08-.05-1.09-.12-1.1-.17-1.1-.21-1.1-.27-1.08-.3-1.1-.37-1.05-.36-1.1-.45-1.1-.48-1.1-.54-.72-.36-.7-.4-.68-.4-.69-.44-.65-.41-.66-.49-1.22-.88-1.18-1-1.15-1-1.12-1-1.07-1-1-1-1-1-.95-1-.94-1-1.7-1.89-1.55-1.78-1.31-1.52-1.25-1.5-1.2-1.46-1.16-1.38-1.07-1.42-1-1.38-1-1.37-.83-1.35-.82-1.3-.76-1.34-.7-1.31-.62-1.35-.59-1.3-.53-1.3-.47-1.3-.4-1.3-.36-1.3-.27-1.3-.2-1.32-.13-1.31v-1.32l-.05-1.25.11-1.28.19-1.32.25-1.25.32-1.22.38-1.18.45-1.13.5-1.1.53-1.07.59-1 .61-1 .65-.95.67-.92.7-.86.72-.85.75-.84.75-.81.76-.79.79-.76.8-.77.83-.77 1.65-1.46 1.7-1.47 1.71-1.48 1.75-1.49 1.77-1.51 1.78-1.57 1.82-1.63.88-.8.9-.85.9-.87.9-.88.9-.9.9-.92.89-.95.91-1 7.19-8 3.63-4 3.65-4 3.67-4 3.71-3.95 3.74-3.93 3.76-3.9 1.94-1.85 1.92-1.94 1.93-1.93 2-1.92 2-1.9 2-1.9 2-1.88 2-1.88 2-1.85 2-1.85 2-1.85 1.95-1.82 2.08-1.82 2.1-1.8 2.12-1.76 2.1-1.74 2.13-1.78 2.09-1.78 2-1.8 2-1.82 2-1.85 2-1.85 2-1.88 2-1.9 4-3.84 4.09-3.86 2.08-1.95 2.1-1.95 2.13-1.94 2.2-2 1.55-1.33 2.32-1.94 2.8-2.3 3-2.45 5.27-4.28 1.71-1.37.7-.53.34-.23.68-.42.72-.35.75-.28.51-.14-.06-.79v-.8l.08-.78.15-.78.22-.77.3-.73.35-.7.43-.67.49-.63.55-.57.48-.47.63-.55.67-.53.67-.5.71-.45.74-.43.73-.39.77-.35.76-.31.79-.27.78-.23.8-.2.8-.15.78-.12.8-.08h2.34zm-.95 16.65h-.22l-.06.05-.07.06-.2.2-.6.52-.65.47-.68.4-.72.31-.75.27-.35.08.08.7v.8l-.06.8-.14.79-.21.76-.29.74-.36.71-.42.69-.48.63-.55.58-.59.52-.53.38.07-.07-.19.15-1.56 1.25-5.2 4.22-2.94 2.4-2.73 2.27-2.22 1.83-1.31 1.13-2 1.8-2 1.85-2 1.89-2 1.88-4.05 3.83-4.39 4.01-2 1.94-2.08 1.93-2.1 1.95-2.13 1.93-2.17 1.92-2.2 1.91-2.25 1.92-2.25 1.87-2 1.7-2 1.68-2 1.7-2 1.73-2 1.74-2 1.75-1.95 1.76-1.87 1.81-1.92 1.8-1.9 1.8-1.88 1.83-1.88 1.83-1.89 1.85-1.85 1.87-1.86 1.87-1.82 1.88-3.68 3.8-3.65 3.83-3.67 3.89-3.62 3.9-3.6 3.91-3.58 3.95-7.2 8-1 1.11-1 1.12-1 1.1-1.17 1.09-1 1-1 1-1 1-1 .95-2 1.76-1.91 1.69-1.92 1.5-1.75 1.5-1.67 1.42-1.58 1.33-1.44 1.28-.56.57-.62.59-.58.56-.53.55-.5.54-.45.51-.42.49-.37.46-.33.45-.28.42-.25.4-.22.37-.17.35-.15.31-.11.3-.1.3-.07.29-.07.26v1.65l.06.42.1.48.14.52.18.58.23.64.27.68.33.73.4.8.45.85.52.9.58 1 .65 1 .74 1 .78 1.1.87 1.15.95 1.2 1 1.25 1.09 1.32 1.18 1.37 1.43 1.63 1.55 1.72.72.86.78.82.8.81.8.79.8.73.79.72.76.65.75.6.77.56.32.22.33.22.33.21.32.19.3.16.28.15.64.3.6.27.58.23.53.2.5.15.47.14.42.1.4.08.36.05h1.75l.24-.05h.25l.23-.07.25-.08.25-.1.25-.1.27-.13.28-.15.28-.17.32-.2.3-.22.33-.25.35-.25.34-.3.36-.31.37-.34.38-.36.39-.39.38-.4.83-.91.85-1 .89-1 .9-1.13.91-1.2 2-2.57 2.08-2.7 1.1-1.41 1.14-1.56 1.2-1.43 1.25-1.45 1.3-1.42.7-.73.7-.7 2.82-2.82 2.81-2.78 2.84-2.77 2.83-2.75 2.85-2.75 2.85-2.73 5.72-5.43 5.73-5.4 5.73-5.39 11.5-10.7 11.5-10.7 5.7-5.35 5.7-5.36 5.67-5.34 2.82-2.7 2.8-2.71 2.8-2.72 2.8-2.73 2.76-2.74 2.87-2.85.63-.6.79-.68.85-.73 1-.8 2.22-1.8 2.61-2.09 2.92-2.33 3.13-2.52 3.27-2.63 3.28-2.72 1.62-1.35 1.6-1.35 1.55-1.33 1.5-1.32 1.42-1.28 1.35-1.25 1.25-1.18 1.13-1.12 1-1 .88-1 .23-.27-.08-.15-.33-.61-.39-.69-.41-.71-.47-.77-.47-.78-1.1-1.72-1.21-1.8-1.34-1.9-.68-.95-.72-1-.75-1-.76-1-.77-1-.8-1-.82-1-.83-1-.83-1-.85-1-.87-1-.87-.95-.88-.92-.87-.9-.88-.88-.88-.87-.89-.82-.88-.8-.87-.76-.86-.72-.85-.68-.84-.65-.81-.6-.82-.55-.77-.5-.75-.47-.71-.4-.69-.33-.63-.3-.63-.25-.24-.09-.25-.1-.25-.06-.21-.07-.22-.05h-.98z"/><path d="m336.5 188.15 1.07.1 1 .13 1 .19 1 .2.95.21.94.24.9.25.9.26 1.65.54 1.58.55 1.52.53 1.38.48 1 .19 2.13.43 1 .17 1.27.21 2.93.47 1.34.23.66.14.82.18.53.17.69.25.63.3.62.36.6.42.56.48.52.52.47.56.41.6.1.19h.12l.2.05.68.19.67.23.2.08.53.25.52.27.2.12.42.26.4.29.2.13.3.25.3.27.43.38.58.62.5.6.42.56.4.59.27.43.25.17 4.2 2.81 1.63 1.12.77.57.45.36.58.52.52.57.1.13.43.57.38.6.34.63.28.67.22.66.15.71.07.4.52.29 1.25.71.68.42.68.42.7.46.7.5.74.55.75.64.75.73.51.58.49.6.46.62.42.67.37.68.18.42.18.43.15.43.05.12.15.52.1.53.09.53v.09l.05.76v.75l-.09.77-.15.73v.07l-.2.65-.24.63-.3.62-.35.58-.4.55-.43.54-.47.48h-.05l-.35.3.2.64.24.9.2.9.18.88.15.88.12.87.1.85.1.88.11 1.6v1.19l.27 1 .35 1.43.18 1.12.29 1.78.35 2.37.36 2.65.17 1.38.15 1.35.13 1.32.1 1.25.05 1.18v1.45l-.05.53-.07.47-.08.45-.05.18-.17.67-.23.65-.27.62-.07.11.05.07.3.5.24.41.4.84.3.73.26.75.24.75.2.75.18.73.13.74.12.73.08.73.07.72v2.87l-.08 1.33-.14 1.37-.2 1.35-.23 1.35-.27 1.31-.31 1.3-.35 1.3-.39 1.27-.4 1.27-.41 1.25-.45 1.21-.47 1.2-.23.55v2.94l-.05.76-.1.77-.19.75-.25.72-.31.7-.37.68-.43.63-.5.59-.55.53-.59.5-.65.43-.66.37-.57.25-.1.17-.83 1.36-.39.65-.65 1.14-.85 1.48-.5.85-.55.87-.58.9-.63.9-.7.93-.17.2-.85 1.6-1 1.68-.83 1.42-.8 1.25-.77 1.13-.82 1.19-1 1.41-.32.45-.28 1.1-.37 1.1-.4 1-.45 1-.47 1-.51 1-.54 1-.36.68-.17.53v.12l-.22.6-.27.57-.08.15-.23.41-.25.4-.42.64-.65.83-.63.73v.05l-.35.55-.66 1-.67 1-.67.95-.65.91-.66.89-.67.83-.68.8-.72.78-.82.8-.9.77-.73.52-.45.26-.42.24-.41.2-.14.06-.61.25h-.05l-1.59 1.59-3.25 3.13-.13.13-.27.54-.41.63-.47.6-.52.55-.83.83-.95.9-1.18 1.12-1.32 1.23-1.4 1.27-1.4 1.2-.73.62-.65.51-2.55 2-1.5 1.15-1.5 1.39-1.73 1.28-1.84 1.35-1.9 1.3-1 .66-1 .65-1 .65-1 .64-1 .61-1.05.6-1.05.59-1.08.55-1.07.53-1.1.5-1.11.48-1.14.44-1.15.4-1.18.35-1.22.3-1.2.21-.71.1-.69.07h-1.95l-.76-.08-.74-.15-.73-.23-.37-.15-.26.11-1.97.87-2 .81-2 .79-1.07.38-1.05.37-1 .33-1.05.33-1.05.29-1.06.26-1.07.24-1.1.2-1.13.15-1.19.1h-1.33l-.78-.05-.74-.09-.76-.15-.84-.2-.51-.18-.72-.27-.2-.1-.35-.21-.23.07-.45.07-1 .11-1 .05-1.15.05h-1.94l-.78-.08-.93-.13-1-.24-1.31-.43-1.12-.4-1.08-.43-1-.44-.23-.11h-4.35l-.76-.1-.74-.18-.73-.23-.7-.32-.67-.37-.63-.43-.6-.48-.53-.54-.5-.6-.44-.61-.25-.45-.53-.17-2.53-.85-1.55-.5-.92-.28-.12.06-1 .54-1 .43-1 .33-1 .27-1 .17-1 .1h-1.88l-.88-.09-.87-.13-.83-.17-.8-.2-.77-.23-.75-.25-.73-.27-.7-.3-.69-.31-.68-.34-.65-.33-.65-.37-.67-.38-1.18-.75-1.18-.82-1.17-.83-1.12-.87-1.08-.9-1.07-.9-1-.91-1-.92-.8-.78-.14-.07-.43-.28-.27-.19-.36-.25-.35-.28-.52-.45-.68-.67-.6-.65-.55-.63-.54-.65-.53-.7-1-1.35-1-1.45-.89-1.28-1.88-2.59-1.25-1.73-1.23-1.72-1.07-1.55-.5-.75-.29-.59-.37-.66-.13-.27-.3-.68-.24-.72-.16-.73v-.07l-.1-.7v-1.4l.07-.68.13-.7.2-.67.25-.65.1-.21-.36-.7-1-1.9-.93-1.9-.45-1-.45-1-.42-1-.42-1-.4-1-.38-1-.37-1.05-.35-1.06-.36-1.22-.34-1.22-.3-1.2-.28-1.2-.27-1.16-.23-1.19-.43-2.26-.75-4.32-.39-2.05-.18-1-.2-.91-.3-1.37-.42-1.83-.18-1-.1-.63-.05-.44v-1.21l.05-.74.11-.73.19-.7.13-.38-.27-.4-.4-.75-.33-.74-.27-.73-.21-.7-.15-.68-.14-.67-.1-.72-.08-1.1v-1.15l.05-1.08.1-1.05.15-1 .18-1 .2-1 .24-.95.25-.92.26-.91.29-.9.3-.89.3-.88.61-1.63.62-1.57.62-1.43.56-1.32.54-1.15.8-1.65.36-.7.3-.55v-.07l.07-.51v-.15l.17-.77v-.17l.12-.4.15-.38.27-.7.45-1 .41-.75.39-.65.36-.58.54-.82.13-.48.22-.74.23-.73.27-.73.51-1.32.57-1.3.57-1.23.58-1.19.58-1.13.57-1.08.43-.82.57-1.27.78-1.66.25-.55.15-.47.44-1.27.48-1.25.53-1.21.55-1.19.59-1.16.6-1.15.63-1.14.63-1.11.65-1.09.67-1.06.67-1.05.68-1 .27-.4v-.08l.2-.38.12-.72.13-.7.17-.68.18-.67.2-.65.23-.63.25-.67.5-1.13.57-1.15.6-1.1.65-1 .67-1 .68-1 .73-1 .74-1 .75-.92.76-.9.77-.88.78-.85.79-.87 1.53-1.56 1.52-1.52 1.46-1.4 2.57-2.45 1.07-1 1.1-1.08 1.63-1.42 3-2.58 3.11-2.64 1.24-1 .91-.73.72-.48.63-.4 1.22-.72 1.3-.7.75-.38.73-.34.79-.33.58-.23.35-.25.72-.54.71-.48.72-.48.75-.47.75-.45.77-.43.78-.42.8-.38.83-.39.87-.33.88-.32.94-.28 1-.22 1-.18 1.08-.12h1.12l1.16.07.82.1.38.06.39.09.45.1.4.11.38.12.43.15.4.15.39.17.41.18.34.17 1-.17 1.07-.52v-.15l.1-.7.15-.68.2-.67.24-.58.28-.58.33-.54.37-.53.43-.5.45-.49.5-.43.52-.38.56-.35h.07l.58-.32.62-.25.62-.22.63-.16h.13l.69-.12.7-.06h1.6l.75.1 1 .18 1 .22.92.25 1.68.48 1.62.47.68.2.55.13.34.09h.16l.77.1.95.09 1.07.06 1.15.09 2.51.13 1.35.08 1.4.12 1.45.13 1.49.17 1.48.22.8.15.77.15.8.16.78.2.8.22.8.25.82.27.81.31.82.35.67.3.68.37.17.1.5.32.46.35.45.38v.05l.53.53.48.59.1.15h.6l.3-.27.62-.46.65-.4.7-.35.72-.29.75-.2.75-.15.78-.06h1.7zm-35.93 17-2.14.33-2.13.3-2 .29-1.89.25-1.68.2-1.43.15-1.19.11-.81.05-1.54.78-3.11 1.6-1.65.79h-.08l-.07.05-.73.41-.75.44-1.4.73-1.42.7-1.35.63-1.26.55-1.15.49-1 .4-1 .35-.62.18-.38.1-.38.08-.54.1-.73.12-1.32.17h-.25l-.6.12-.91.15h-.27l-1.38 1-1.49 1-1.4 1-1 .65-.65.58-1 .87-1 .83-.64.48-.4.69-.76 1.16-.77 1.15-.78 1.12-.79 1.08-.8 1.07-.8 1-.8 1-1.55 1.92-1.43 1.73-.28.35-.34.43-.76 1.07-.17.4-.32.77-.35.76-.66 1.44-.7 1.38-.7 1.35-.7 1.28-1.29 2.34-.55 1-.48.93-.38.79-.3.65-.2.51-.29.79-.73 2.11-.82 2.42-.45 1.27-.46 1.26-.49 1.25-.51 1.19-.35.7-.37.68-.45.75-.37.5-.28.37-.3.36-.17.19-.53.53-.58.5-.17.12-.48.35-.5.3-.54.26h-.06l-.4.16v.17l.12.57.16 1.33.1 1.18v3.4l.12.33.2.73.13.77.05.77v1.26l-.07.55-.1.55-.13.55v.09l-.2.63-.26.62-.3.58-.37.57-.2.26-.2 1-.45 1.88-.9 3.54-.42 1.68-.38 1.6-.33 1.57-.1.53.53.47.53.56.47.6.42.65.36.67.3.72.22.73.15.75.1.77v1.45l-.08.9-.14 1-.15.63-.08.38-.12.39-.1.26-.16.45-.19.45-.1.22-.28.55-.32.52-.11.18-.45.6-.49.57-.13.13-.43.42-.45.38-.49.35-.13.1-.58.35h-.07l.43 1.45.3.92.3.88.3.84.35.91.27.74.33.9.62 1.9.62 2 .28 1 .28 1 .24 1 .21 1 .2 1 .09.71v1.55l-.05.54v.13l-.1.62-.14.6-.05.16.77 1.44.9 1.63.93 1.63 1 1.67 2 3.38 1 1.7 1 1.74 1 1.76.87 1.59.05.08.13.2.25.32.7.86.44.59.5.7.16.23.57-.08h2.35l1.1.09 1.06.13 1 .15 1 .2 1 .23 1 .27 1 .28 1 .3 1 .32.95.33.95.35.94.39.93.38 1.78.77 1.75.8 1.69.81 1.63.8 1.55.79 2.83 1.43 1.25.63 2.07 1 .93.47 1.59.82.78.2.92.21.93.22.72.15h.18l1.82-.35 1.91-.37 1.94-.35 1.71-.28 1.19-.19 1.23-.15.8-.06h2l.5.07.27.05.68.13.67.2h.08l.72.29.66.33h.07l.52.3.23.17 2.5-.34 1.5-.2 1.53-.16 1.57-.17 1.62-.12 1.65-.06h1.46l2.6-1.2 1.9-.86.12-.05.39-.22.5-.31.65-.4 1.53-1 .87-.55.93-.57.95-.55.62-.3.6-.3.68-.28.78-.27.55-.15.39-.1.38-.08.25-.05.48.17.51-.05h.92l.7.05h.2l.6.08.6.15.57.17.18.06.52.2.65-.46 1.55-1.2 1.5-1.13 1.42-1.09 2.45-1.88.43-.35.45-.37 1.12-1 1.18-1.07.87-.82.25-.45.38-.6.45-.55.27-.31 1.88-1.87 1.64-1.6 3.21-3.12 1.55-1.51 1.14-1.15.35-.69.35-.65.38-.6.4-.61.73-1.05.8-1 .84-1 .85-1 .85-.94.86-.88.85-.83.35-.34v-.26l.1-.69.13-.75.17-.83.23-.9.27-1 .38-1.09.45-1.06.37-.7.38-.67.48-.72.37-.45.5-.56.17-.19.31-.31.35-.3.17-.15.42-.34.45-.3.18-.11.53-.3.1-.05.69-.81.76-1.12.34-.46-.07-.32-.07-.48v-1.57l.05-.5v-.32l.06-.48.1-.47.17-.71.32-1 .35-.85.35-.78.36-.72.39-.68.4-.7.75-1.22.8-1.18.8-1.12.73-1 .7-.9 1.05-1.32.42-.52.5-.56.55-.52.61-.47.64-.4.68-.35.7-.28.22-.07.41-.86.17-.35v-8.3l.05-.9.09-.92.05-.5.05-4.3v-13.1l-.05-.17-.24-.7-.35-1.28-.33-1.35-.28-1.38-.25-1.4-.24-1.42-.2-1.45-.18-1.47-.17-1.46-.15-1.47-.11-1.45-.12-1.45-.2-2.75-.13-2.57v-.11l-.37-.79-1-1.93-1-1.92-1.07-2-1.1-2-2.25-4-1.13-2-.37-.67-.51-.32-1.64-.91-1.65-.89-1.68-.86-1.73-.89-1.77-.86-3.63-1.8-1.87-.94-1.88-1-1.9-1-1.93-.94-1-.57-1-.56-1-.6-1-.62-.94-.63-.88-.64-.8-.61-.68-.59-.44-.38h-4.6l-2.48.05h-11.6l-1.57-.07-1.58-.08-1.6-.12-1.62-.15-1.61-.17-1.62-.21-1.63-.25-1.64-.3-1.61-.34-1.59-.38z" fill="#fff"/><path d="m318.07 198.68h2.53l1.27.05 1.26.07 1.27.08 1.25.1 1.27.12 1.25.15 1.25.15 1.23.17 1.25.18 1.23.22 1.24.21 1.21.25 1.22.25 1.2.32 1.2.3 1.2.33 1.2.33 1.18.37 1.18.37 1.17.4 1.17.43 1.15.43 1.13.47 1.13.48 1.12.52 1.17.57 1.1.55 1.08.59 1.08.6 1.07.61 1.05.65 1 .67 1 .7 1 .72 1 .75 1 .76 1 .8.94.82.91.83.9.87.89.9.86.92.84.95.81 1 .8 1 .77 1 .75 1 .72 1.07.7 1.08.68 1.12.63 1.15.64 1.16.58 1.19.57 1.21.53 1.24.52 1.25.46 1.28.45 1.3.44 1.32.38 1.35.37 1.36.31 1.39.3 1.41.32 1.65.27 1.69.25 1.68.2 1.7.16 1.7.12 1.7.1 1.72.07 1.71v5.2l-.07 1.74-.1 1.73-.13 1.75-.17 1.73-.25 1.73-.22 1.75-.25 1.74-.28 1.75-.3 1.73-.32 1.75-.36 1.73-.37 1.74-.42 1.73-.41 1.73-.47 1.74-.47 1.71-.51 1.72-.52 1.7-.55 1.7-.57 1.7-.6 1.68-.6 1.69-.63 1.66-.67 1.65-.66 1.65-.7 1.64-.7 1.63-.74 1.62-.75 1.6-.78 1.6-.78 1.56-.8 1.57-.84 1.55-.83 1.53-.8 1.55-.88 1.5-.89 1.47-.9 1.46-.91 1.45-.94 1.44-.95 1.4-1 1.4-1 1.36-1 1.34-1 1.33-1 1.3-1 1.28-1 1.25-1.07 1.24-1.06 1.2-1.09 1.18-1.1 1.15-1.21 1.15-1.08 1-1.17 1-1.2 1-1.25 1-1.3 1-1.32.9-1.35.87-1.38.83-1.4.8-1.44.77-1.46.75-1.49.71-1.5.7-1.5.65-1.53.65-1.53.6-1.55.57-1.57.55-1.55.52-1.57.48-1.56.45-1.55.42-1.55.38-1.55.35-1.55.32-1.52.28-1.52.23-1.51.2-1.49.17-1.48.12-1.45.06h-3.78l-2.4-.06-2.45-.12-2.49-.18-2.53-.22-2.57-.28-2.56-.34-1.35-.23-1.3-.2-1.31-.23-1.32-.24-1.33-.25-1.32-.25-1.33-.28-1.34-.3-1.31-.32-1.34-.33-1.33-.33-1.33-.37-1.32-.38-1.32-.4-1.33-.42-1.32-.43-1.3-.47-1.31-.47-1.3-.5-1.29-.51-1.28-.54-1.28-.55-1.27-.58-1.27-.6-1.25-.62-1.23-.65-1.23-.66-1.22-.69-1.2-.71-1.18-.74-1.17-.76-1.17-.79-1.13-.81-1.12-.84-1.1-.86-1.08-.9-1.07-.92-1-.95-1-1-1-1-1-1-.95-1.06-.9-1.1-.9-1.12-.85-1.15-.82-1.2-.78-1.2-.75-1.25-.72-1.27-.7-1.35-.57-1.18-.5-1.25-.46-1.28-.4-1.29-.35-1.3-.3-1.31-.27-1.34-.23-1.33-.19-1.37-.15-1.36-.11-1.39-.09-1.4-.06-1.41v-5.77l.08-1.47.09-1.48.11-1.48.14-1.49.15-1.5.18-1.5.18-1.51.22-1.52.22-1.52.25-1.5.25-1.51.26-1.52.29-1.53.6-3 .65-3 .68-2.95.73-2.91.75-2.87.77-2.8.78-2.72.82-2.65.8-2.55.82-2.43.8-2.33.8-2.22.8-2.08.76-1.95.77-1.82.75-1.65.65-1.38.28-.6.25-.57.25-.68.29-.77.28-.83.3-.9.62-2 .63-2.15.68-2.22.35-1.15.39-1.15.38-1.15.42-1.15.45-1.17.46-1.15.52-1.15.58-1.15.62-1.08.38-.63.4-.57.42-.58.45-.59.5-.58.55-.57.62-.56.66-.55.74-.54.83-.5.88-.45.62-.25.4-.14.35-.12.3-.08.38-.12.39-.08h.28l.4-.08.4-.05h2.88l.37.07.68.11.27.07.27-.17 1-.63 1-.62 1-.6 1-.58 1-.58 1-.57 1-.57 1-.53 1.07-.55 1.07-.52 1.08-.51 1.1-.5 1.1-.5 1.12-.49 1.13-.46 1.13-.45 1.14-.45 1.15-.44 1.16-.43 1.17-.42 1.18-.4 1.19-.38 1.24-.37 1.22-.37 2.4-.68 2.41-.65 1.25-.3 1.24-.3 1.23-.29 1.25-.26 1.23-.25 1.25-.24 1.27-.23 1.25-.22 1.27-.2 1.26-.18 1.25-.17 1.29-.16 1.26-.15 1.27-.12 1.27-.12 1.28-.1 1.27-.1 1.28-.06 1.27-.07h5.1zm-2.3 16.67h-2.15l-1.07.05-1.08.05-1.09.08-1.08.08-1.08.1-1.09.12-1.08.12-1.1.13-1.08.15-1.09.17-1.08.16-1.07.19-1.08.2-1.08.2-1.07.21-1.07.24-1.06.23-1.07.27-1 .25-2.12.56-2.08.6-1 .3-1 .34-1 .33-1 .33-1 .35-1 .37-1 .37-1 .38-1 .38-.95.4-.93.4-.93.42-.9.42-.92.43-.88.43-.89.45-.85.45-.85.45-.85.47-.81.47-.8.46-.8.49-.79.5-.75.48-.75.5-.71.5-.64.62-.7.5-.67.51-.66.52-.64.52-.61.53-.6.52-.59.53-.56.53-.6.59-.5.46-.55.42-.59.37-.61.31-.64.29-.65.21-.48.12-.58 1.93-.65 2.19-.69 2.18-.36 1.13-.37 1.1-.4 1.1-.43 1.1-.47 1.1-.45 1-.58 1.22-.57 1.28-.63 1.5-.67 1.67-.7 1.83-.72 2-.73 2.12-.75 2.23-.73 2.35-.75 2.44-.74 2.53-.71 2.58-.69 2.65-.66 2.69-.64 2.71-.6 2.74-.55 2.76-.25 1.35-.28 1.29-.21 1.37-.22 1.35-.2 1.35-.18 1.33-.17 1.33-.17 1.3-.13 1.3-.1 1.29-.1 1.25-.08 1.23v1.22l-.05 1.18v4.47l.06 1 .09 1 .11.95.12.9.15.87.15.82.18.75.19.7.21.65.2.6.22.51.25.52.4.8.47.8.48.8.5.78.53.77.55.75.59.73.6.74.63.7.65.7.68.7.7.66.72.67.75.65.78.63.79.62.81.62.84.6.86.58.89.57.88.56.92.54 1 .53 1 .52 1 .5 1 .5 1 .46 1 .47 1 .45 1 .43 1.05.42 1.06.4 1.09.4 1.08.38 1.1.37 1.1.35 1.12.33 1.11.32 1.14.32 1.13.28 1.13.28 1.14.27 1.13.27 1.15.23 1.15.23 1.13.22 1.15.2 1.14.18 1.13.19 1.12.15 2.28.3 2.23.25 2.2.18 2.17.15 2.12.12 2.06.05h3.85l1-.08 1.05-.12 1.09-.15 1.13-.16 1.17-.22 1.18-.25 1.22-.27 1.23-.3 1.25-.35 1.25-.35 1.27-.4 1.26-.41 1.27-.44 1.27-.46 1.25-.5 1.23-.52 1.22-.52 1.18-.56 1.17-.57 1.15-.58 1.1-.6 1.06-.6 1-.62 1-.63.93-.64.87-.61.82-.64.76-.63.69-.6.66-.63.87-.89.9-.95.9-1 .88-1 .89-1 .88-1.05.87-1.09.86-1.11.87-1.12.85-1.17.83-1.16.84-1.2.83-1.22.8-1.25.8-1.25.8-1.28.77-1.3.76-1.32.75-1.32.74-1.35.73-1.36.7-1.37.7-1.4.68-1.4.65-1.42.65-1.41.64-1.44.61-1.45.59-1.45.58-1.46.57-1.47.53-1.48.52-1.49.5-1.48.48-1.5.47-1.5.43-1.5.42-1.5.4-1.5.36-1.5.35-1.5.34-1.5.3-1.5.28-1.5.27-1.5.23-1.48.2-1.49.18-1.48.17-1.48.13-1.45.12-1.47.08-1.45.05-1.43v-5.66l-.08-1.37-.1-1.37-.14-1.35-.15-1.33-.18-1.32-.22-1.3-.23-1.28-.22-1-.25-1-.25-1-.26-1-.3-.92-.32-.9-.32-.88-.35-.87-.36-.83-.39-.82-.38-.78-.42-.79-.43-.75-.45-.73-.45-.73-.48-.7-.49-.69-.51-.66-.52-.65-.53-.64-.55-.63-.57-.6-.58-.6-.6-.57-.62-.56-.63-.55-.64-.54-.66-.51-.67-.52-.68-.48-.72-.49-.72-.46-.73-.45-.75-.44-.75-.43-.78-.4-.79-.4-.81-.38-.82-.39-.83-.35-.84-.35-.86-.33-.87-.32-.88-.3-.9-.28-.9-.28-.94-.25-.91-.25-.95-.24-.95-.23-.95-.2-1-.2-1-.17-1-.16-1-.15-1-.15-1-.12-1-.12-1-.08-1-.08-1-.09h-1.05l-1.05-.05h-4.4z"/><path d="m296.1 170.57 2 .05 2 .08 2 .13 2 .15 2 .19 1.95.2 1.95.23 1.92.25 1.91.27 1.92.26 3.75.59 7.4 1.21 3.67.59 1.78.26 1.9.29 1.53.25 1.22.21 1.38.27 1.55.32 1.69.36 1.78.42 1.82.45 1.81.48.94.29.9.28.9.28.9.32.88.35.88.37.9.4.9.46 1 .59.92.65.61.51h.17l1.25.12 1.25.13 1.23.15 1.22.19 1.22.21 1.18.24 1.18.25 1.17.26 1.15.3 1.13.34 1.14.33 1.1.38 1.1.39 1.08.41 1.07.44 1.05.45 1 .46 1 .5 1 .52 1 .53 1 .55 1 .59.93.58.94.62.9.63.9.63.86.67.87.68.85.7.82.7.81.74.8.73.79.77.75.76.75.79.73.8.72.8.7.83.68.83.67.85.65.85.63.87.62.88.6.89.6.9.56.91.57.92.55.93.52.94.51.93.5 1 .5.95.47 1 .47 1 .43 1 .43 1 .42 1 .42 1 .38 1 .38 1 .37 1 .35 1.05.67 2 .61 2.09.57 2.11.52 2.12.48 2.13.42 2.15.38 2.15.33 2.17.3 2.18.24 2.17.21 2.18.17 2.19.12 2.2.06 2.18.05 2.18v2.17l-.05 2.18-.08 2.17-.12 2.15-.15 2.15-.2 2.13-.23 2.12-.27 2.1-.3 2.08-.35 2.07-.36 2.05-.42 2-.45 2-.48 2-.52 2-.55 1.9-.53 1.68-.54 1.68-.55 1.67-.58 1.65-.6 1.67-.62 1.65-.65 1.63-.65 1.65-.68 1.63-.7 1.62-.73 1.62-.74 1.61-.88 1.62-.79 1.58-.8 1.6-.81 1.59-.84 1.56-.85 1.57-.86 1.57-.9 1.55-.92 1.53-.92 1.53-.95 1.52-1 1.5-1 1.5-1 1.5-1 1.48-1 1.47-1 1.45-1.05 1.45-1.08 1.43-1.1 1.42-1.13 1.4-1.12 1.4-1.15 1.38-1.15 1.37-1.16 1.35-1.2 1.33-1.2 1.33-1.22 1.34-1.23 1.3-1.24 1.28-1.26 1.27-1.27 1.27-1.3 1.23-1.3 1.23-1.3 1.2-1.33 1.2-1.35 1.17-1.35 1.15-1.37 1.15-1.37 1.12-1.4 1.11-1.4 1.09-1.41 1.06-1.44 1.05-1.43 1-1.45 1-1.47 1-1.48 1-1.48.95-1.5.94-1.5.91-1.52.89-1.53.86-1.54.85-1.55.82-1.56.8-1.57.78-1.58.75-1.59.74-1.6.71-1.61.69-1.62.66-1.63.64-1.64.6-1.63.58-1.65.57-1.67.53-1.66.5-1.69.48-1.68.45-1.65.42-1.7.38-1.7.38-1.72.34-1.72.31-1.71.29-1.74.25-1.73.21-1.75.2-1.75.15-1.75.14-1.75.1-1.77.06h-5.3l-1.78-.07-1.77-.1-1.78-.13-1.78-.17-1.79-.2-1.81-.14-1.8-.27-1.78-.3-1.79-.33-1.8-.38-1.78-.4-1.8-.45-1.78-.49-1.79-.51-1.78-.55-1.8-.6-1.78-.64-1.77-.66-1.78-.7-1.79-.75-1.76-.79-1.77-.81-1.77-.87-1.76-.88-1.75-.95-1.77-1-1.75-1-1.73-1.05-1.74-1.1-1.75-1.13-1.7-1.17-1.66-1.2-1.62-1.23-1.58-1.25-1.54-1.3-1.5-1.32-1.45-1.35-1.41-1.38-1.39-1.4-1.31-1.43-1.3-1.45-1.25-1.49-1.2-1.51-1.17-1.52-1.13-1.57-1.09-1.56-1-1.6-1-1.62-.95-1.63-.93-1.65-.88-1.69-.85-1.68-.8-1.72-.77-1.71-.73-1.74-.69-1.75-.65-1.78-.61-1.77-.59-1.8-.53-1.8-.5-1.81-.47-1.84-.43-1.83-.4-1.85-.37-1.85-.33-1.87-.28-1.88-.27-1.88-.23-1.89-.19-1.88-.16-1.9-.14-1.92-.08-1.9-.07-1.91v-5.77l.06-1.93.09-1.92.11-1.93.14-1.94.18-1.93.2-1.93.23-1.94.27-1.93.28-1.93.32-1.92.33-1.93.39-1.94.38-1.91.43-1.92.45-1.92.47-1.9.5-1.9.52-1.9.55-1.9.58-1.88.6-1.88.62-1.89.65-1.86.66-1.85.7-1.85.72-1.85.73-1.82.77-1.83.78-1.8.82-1.82.82-1.78.86-1.79.87-1.76.9-1.75.92-1.74.93-1.73 1-1.72 1-1.7 1-1.68 1-1.67 1-1.65 1.07-1.63 1.07-1.62 1.1-1.6 1.11-1.58 1.14-1.58 1.16-1.54 1.09-1.57 1.18-1.52 1.22-1.48 1.22-1.47 1.25-1.45 1.26-1.41 1.29-1.4 1.3-1.39 1.31-1.36 1.34-1.34 1.35-1.3 1.35-1.28 1.38-1.27 1.4-1.23 1.42-1.2 1.43-1.18 1.45-1.15 1.47-1.12 1.48-1.1 1.48-1.07 1.52-1 1.53-1 1.54-1 1.56-.94 1.57-.91 1.58-.89 1.6-.83 1.62-.82 1.63-.76 1.64-.74 1.65-.7 1.68-.66 1.68-.64 1.67-.58 1.08-.35 1.07-.32 1.07-.31 1.05-.29 1.06-.26 1.07-.25 1.05-.24 1.05-.21 1.07-.2 1.05-.19 1.05-.16 1-.14 1-.15 1.05-.11 1-.1 1.07-.09 2-.15 2-.08h2.05zm-3.55 16.7-1.65.06-1.67.12-.8.07-.81.08-.82.08-.8.1-.82.12-.8.13-.81.14-.8.16-.8.15-.82.19-.8.18-.8.22-.8.21-.8.22-.8.25-.8.27-1.35.46-1.32.49-1.33.53-1.32.55-1.31.6-1.32.62-1.3.65-1.3.68-1.3.72-1.28.75-1.29.78-1.26.8-1.27.83-1.27.87-1.25.88-1.23.92-1.23.95-1.24 1-1.2 1-1.21 1-1.19 1.05-1.18 1.08-1.18 1.1-1.17 1.14-1.15 1.15-1.13 1.16-1.14 1.2-1.1 1.22-1.11 1.25-1.09 1.27-1.06 1.28-1.07 1.3-1 1.33-1 1.35-1 1.37-1 1.38-1 1.4-1 1.42-.95 1.43-.93 1.47-.93 1.47-.9 1.48-.9 1.5-.87 1.52-.85 1.51-.83 1.55-.82 1.55-.8 1.57-.78 1.58-.77 1.59-.73 1.6-.74 1.61-.7 1.62-.68 1.63-.67 1.64-.63 1.65-.62 1.65-.6 1.66-.58 1.67-.55 1.67-.53 1.68-.52 1.68-.48 1.69-.47 1.68-.45 1.7-.42 1.7-.5 1.7-.38 1.7-.35 1.7-.32 1.7-.3 1.7-.28 1.7-.25 1.7-.23 1.68-.2 1.7-.19 1.69-.15 1.7-.13 1.68-.1 1.67-.07 1.68-.05 1.67v4.96l.07 1.64.08 1.63.1 1.62.15 1.61.15 1.62.2 1.58.22 1.59.25 1.56.27 1.57.3 1.55.33 1.53.37 1.52.38 1.52.42 1.48.43 1.48.48 1.47.5 1.45.54 1.43.55 1.44.58 1.4.62 1.38.65 1.37.68 1.35.7 1.35.73 1.31.77 1.3.8 1.29.82 1.26.86 1.24.89 1.23.93 1.2 1 1.2 1 1.17 1 1.15 1 1.13 1.08 1.1 1.14 1.1 1.15 1.07 1.18 1.05 1.22 1 1.26 1 1.3 1 1.34 1 1.38.93 1.48 1 1.49.95 1.48.88 1.5.87 1.48.83 1.49.8 1.48.75 1.5.74 1.48.68 1.49.65 1.48.63 1.5.59 1.48.56 1.49.52 1.48.5 1.48.45 1.49.43 1.48.4 1.47.37 1.48.35 1.48.3 1.47.28 1.48.25 1.47.22 1.48.2 1.47.15 1.47.15 1.46.1 1.47.08 1.47.05h4.38l1.47-.05 1.45-.09 1.45-.1 1.45-.13 1.45-.17 1.45-.18 1.45-.22 1.43-.23 1.43-.25 1.45-.3 1.44-.3 1.41-.33 1.44-.37 1.41-.38 1.42-.4 1.42-.44 1.41-.45 1.4-.46 1.4-.5 1.4-.54 1.39-.53 1.38-.57 1.38-.58 1.39-.62 1.36-.63 1.37-.65 1.43-.76 1.35-.7 1.35-.71 1.33-.74 1.34-.75 1.33-.78 1.32-.8 1.3-.8 1.3-.83 1.3-.87 1.28-.87 1.28-.88 1.27-.92 1.25-.91 1.25-1 1.25-.95 1.23-1 1.22-1 1.22-1 1.2-1 1.18-1.05 1.18-1.05 1.17-1.08 1.17-1.09 1.15-1.1 1.13-1.13 1.12-1.13 1.11-1.15 1.1-1.15 1.09-1.19 1.08-1.18 1.07-1.2 1.05-1.22 1-1.23 1-1.23 1-1.25 1-1.27 1-1.27 1-1.28 1-1.3.94-1.32.91-1.3.92-1.33.88-1.33.89-1.35.86-1.35.85-1.37.82-1.37.82-1.36.8-1.4.78-1.39.77-1.4.75-1.4.73-1.41.7-1.42.7-1.43.68-1.44.65-1.43.65-1.43.62-1.45.62-1.45.58-1.45.57-1.47.55-1.47.53-1.45.5-1.46.5-1.49.47-1.46.45-1.45.46-1.62.44-1.62.4-1.66.38-1.69.35-1.71.32-1.74.3-1.76.25-1.79.23-1.8.2-1.81.17-1.84.13-1.85.1-1.85.08-1.86v-5.62l-.06-1.88-.1-1.87-.15-1.87-.17-1.86-.22-1.85-.25-1.84-.32-1.72-.32-1.82-.35-1.8-.4-1.77-.41-1.75-.52-1.76-.5-1.7-.55-1.7-.28-.8-.29-.82-.31-.8-.3-.81-.32-.79-.33-.78-.35-.78-.34-.77-.36-.75-.37-.75-.37-.75-.38-.72-.4-.71-.4-.72-.4-.7-.42-.68-.43-.69-.43-.66-.45-.65-.45-.64-.47-.63-.47-.63-.48-.6-.48-.6-.5-.59-.52-.56-.52-.57-.51-.55-.54-.53-.53-.54-.55-.51-.57-.5-.56-.49-.59-.48-.58-.45-.6-.45-.6-.45-.62-.42-.61-.41-.65-.4-.64-.39-.66-.38-.67-.35-.68-.35-.69-.33-.7-.34-.71-.3-.72-.3-.75-.28-.75-.27-.75-.25-.78-.23-.79-.23-.81-.2-.82-.2-.83-.19-.85-.15-.85-.15-.89-.13-.9-.12-.9-.1-.93-.08-.93-.07h-3.83l-.8-.12-.8-.21-.77-.29-.73-.35-.7-.43-.65-.48-.6-.55-.55-.62-.48-.67-.35-.61-.58-.2-.65-.19-.65-.2-1.49-.4-1.51-.38-1.48-.48-1.48-.32-1.37-.28-1.22-.23-1-.17-1.25-.22-1.8-.26-1.9-.29-3.73-.6-7.37-1.2-3.61-.56-1.79-.25-1.76-.25-1.77-.24-1.75-.2-1.75-.18-1.72-.17-1.71-.13-1.72-.1-1.68-.07-1.69-.05h-1.66zm393.75-86.22 1.53.08 1.54.14 1.55.16 1.55.24.75.15.75.15.73.18.75.2.72.22.71.23.72.25.7.27.68.28.69.3.68.32.7.35 1.28.68 1.27.77 1.23.81 1.22.85 1.18.92 1.14 1 1.11 1 1.09 1 1 1.05 1 1.1 1 1.13 1 1.17.94 1.18.9 1.23.86 1.24.85 1.28.82 1.28.78 1.32.75 1.35.72 1.35.68 1.38.67 1.39.62 1.41.6 1.44.56 1.43.52 1.45.5 1.47.45 1.46.42 1.49.38 1.5.35 1.5.3 1.5.27 1.5.23 1.51.18 1.52.14 1.52.1 1.51.05 1.52v1.52l-.05 1.5-.1 1.51-.15 1.5-.22 1.5-.27 1.49-.31 1.43-.2.78-.22.74-.22.73-.23.72-.25.71-.28.72-.29.72-.31.7-.32.7-.35.7-.37.68-.38.68-.4.67-.42.67-.45.65-.45.63-.48.63-.5.62-.52.6-.53.6-.57.58-.56.57-.6.55-.62.53-.63.52-.65.52-.92.65-.92.63-.93.58-.95.57-1 .53-1 .5-1 .45-1 .45-1 .4-1 .37-1 .35-1 .33-1 .29-1 .28-1 .23-1 .24-1 .2-1 .16-1 .17-1 .13-1 .12-1 .1-1 .08-1 .09-1.93.08-2 .05h-1.66l-1.92-.05-1.91-.08-1.89-.1-1.88-.14-1.85-.15-3.62-.33-3.51-.35-3.4-.32-1.64-.15-1.6-.13-1.55-.1-1.5-.08h-3.45l-.48-.05-.5-.08-.48-.1-.47-.13-.47-.17-.45-.18-.45-.22-.43-.25-.42-.27-.4-.3-.36-.31-.37-.34-.33-.36-.22-.24-.17.07-.46.15-.49.13-.48.1-.48.07h-1.97l-.48-.08-.49-.1-.48-.13-.47-.17-.45-.18-.45-.22-.43-.25-.42-.27-.43-.28-.62-.5-.56-.52-.54-.53-.46-.53-.49-.6-.66-1-.59-1.05-.5-1-.4-1-.35-1-.28-1-.23-1-.22-1-.17-1-.15-1-.13-.95-.1-.93-.08-1-.14-1.8-.08-1.8v-10.7l.06-1.3.12-1.3.15-1.3.17-1.28.2-1.28.23-1.29.27-1.28.28-1.28.32-1.27.35-1.27.38-1.25.4-1.25.43-1.25.47-1.23.48-1.22.52-1.21.53-1.22.59-1.18.6-1.19.61-1.16.65-1.15.69-1.15.7-1.12.73-1.12.75-1.1.78-1.06.82-1.07.83-1 .87-1 .88-1 .92-1 1-1 1-.94 1-.9 1-.88 1-.87 1.07-.81 1.1-.8 1.12-.77 1.15-.73 1.18-.7 1.2-.69 1.22-.63 1.25-.6 1.26-.57 1.3-.51 1.32-.49 1.33-.45 1.37-.4 1.38-.35 1.4-.31 1.42-.27 1.43-.22 1.45-.18 1.49-.12 1.48-.08h1.5zm-2.43 16.67h-.94l-.9.06-.9.12-.86.13-.87.17-.87.18-.83.22-.83.25-.82.27-.82.3-.8.31-.78.35-.78.39-.77.4-.75.41-.75.45-.73.47-.72.5-.72.52-.7.53-.68.57-.68.58-.67.6-.65.63-.63.64-.62.66-.62.69-.6.71-.58.72-.57.73-.53.75-.53.79-.52.78-.5.8-.48.8-.47.83-.45.84-.43.85-.4.85-.4.86-.37.89-.35.88-.33.88-.32.9-.28.9-.29.9-.25.92-.21.9-.22.92-.18.91-.17.9-.13.92-.14.9-.1.9-.06.9-.07.9v9.35l.06 1.4.09 1.4.06.62.07.63.08.59.09.55.08.51.1.45.1.4.1.32v.07l.23.21.33.35.24.29.2-.09.46-.15.49-.13.48-.1.5-.07h2.65l1.78.05 1.79.1 1.78.11 1.77.14 1.78.16 3.5.34 3.48.35 3.46.3 1.69.14 1.66.11 1.65.1 1.64.07h4.68l1.53-.07h.7l.72-.06.72-.09.7-.08.7-.08.66-.12.67-.12.65-.13.65-.15.63-.15.62-.17.6-.18.6-.18.58-.22.59-.22.55-.23.55-.23.55-.27.51-.27.54-.28.5-.32.51-.31.49-.34.5-.36.26-.2.25-.2.25-.22.24-.22.21-.23.24-.22.2-.23.21-.25.2-.25.2-.25.19-.27.21-.25.18-.27.17-.28.17-.3.16-.3.15-.32.15-.31.15-.34.14-.33.13-.35.12-.35.11-.37.12-.38.12-.37.08-.35.18-.85.15-.85.14-.86.08-.9.07-.92v-3l-.07-1-.08-1-.14-1.05-.16-1.07-.19-1.07-.21-1.08-.25-1.08-.29-1.1-.31-1.09-.34-1.1-.36-1.08-.39-1.08-.43-1.09-.43-1.06-.52-1.05-.5-1.05-.52-1-.53-1-.55-1-.58-1-.6-.94-.6-.93-.64-.88-.63-.87-.65-.83-.67-.82-.68-.77-.67-.73-.7-.68-.68-.67-.68-.62-.7-.56-.69-.54-.7-.48-.68-.45-.67-.4-.7-.38-.28-.14-.33-.16-.32-.14-.32-.13-.31-.12-.3-.11-.32-.1-.3-.09-.3-.08-.3-.07-.28-.06h-.29l-1-.15-1-.12-1-.08h-2zm-30.65 50.76h-.05z"/></g></svg>