<svg viewBox="0 0 923.65 1082.82" xmlns="http://www.w3.org/2000/svg"><g fill-rule="evenodd"><path d="m296.42 899.72h6.81l3.44.07 3.45.1h.2l.18-.1 1.48-.68 1.49-.63 1.53-.48 1.5-.5 1.5-.5 1.5-.43 1.52-.37 1.51-.35 1.52-.31 1.53-.27 1.54-.25 1.55-.23 1.53-.19 1.57-.18 1.55-.15 1.56-.12 1.57-.11 1.55-.04 1.59-.08h7.93l3.18.05 3.19.09 3.11-.06 3.15.17 3.12.18 3.07.2 3.05.22 5.83.47 5.57.46 5.15.42 2.38.18 2.23.15 2.09.14 1.88.1h11.98l8.87-.07 8.87-.12 8.86-.15 8.9-.18 8.89-.2 17.85-.45 16.88-.42 1-.08 2-.13 2.58-.15 3.05-.15 3.39-.14h11.56l2 .08h3.55l.15-.15 1.22-1 1.06-.73.95-.57 1-.53 1.24-.55 1.23-.45 1.12-.35 1.05-.27 1-.22 1-.18.93-.15 1-.15 1.75-.2 1.86-.15 1.9-.12 2-.08h12.53l4.3.13 4.27.17 4.11.2 3.85.2 3.52.21 5.53.34 1.77.1h1l3 .08 3.15.13 3.13.14 3.12.16 6.15.35 6.08.39 6 .38 6 .37 3 .15h.18l1.45-.05 6.08-.2 6.09-.2 6.1-.16 6.11-.15 6.14-.14 6.13-.1 6.15-.05h6.62l3-.2 2-.12 2.25-.08 2.41-.07h5.4l1.4.05 1.44.08 1.45.1 1.46.13 1.49.19 1.5.21 1.53.27 1.57.33 1.5.39.9.26.83.29.87.3.86.33.89.4.91.43.94.5 1 .57 1 .65 1.2.9.57.52.93-.2 1.92-.39 1.91-.35 2-.35 2-.31 2.05-.27 2-.23 1.1-.1 1.08-.07 1.08-.07h4.47l1.15.05 1.17.08 1.16.12 1.19.13 1.2.19 1.2.21 1.21.27 1.22.3 1.23.35 1.24.4 1.23.45 1.23.52 1.24.55 1.21.61 1.2.67 1.19.73 1.16.79 1.14.83 1.11.9 1.07.95 1.1 1.05.8.83.85 1.05.87 1.24.85 1.5.76 1.75.6 2 .35 2.28v2.43l-.37 2.45-.7 2.29-1 2-1.1 1.72-1.15 1.4-1.13 1.13-1.08.9-1.19.85-1.6.94-1.58.73-1.38.53-1.27.4-1.17.34-1.1.25-1.06.21-1 .19-1 .16-1 .15-1.85.24-1.82.18-1.72.17-3 .25-1.14.11-.91.1-3.54.45-3.53.42-3.42.38-3.33.35-3.27.32-3.2.3-3.18.25-3.17.23-3.16.2-3.19.19-3.23.16-3.3.14-3.37.13-3.48.1-3.6.1-3.68.08h-2.15l-2.44.14-2.6.15-2.81.2-3 .25-3.15.26-6.75.6-7.19.64-3.75.31-3.81.32-3.89.28-3.91.29-4 .25-4 .2-4 .16-2 .09-2 .05h-12l-2-.07-2-.08-1.95-.1-1.93-.14-1.93-.15-1.92-.18-1.92-.22-1.88-.23-1.88-.27-1.87-.3-1.85-.33-1.4-.28h-4.05l-2.72.12-2.71.1-5.29.17-10.11.3-4.79.16-2.28.1-2.27.12-8.5.43-8.56.42-8.59.4-3.13.13.4.05 1.27.24 1.41.33 1.5.48 1.17.49 1.2.58 1.4.87 1.62 1.26 1.8 1.9.81 1.29.82 1.5.63 1.6v.1l.48 1.83.23 1.88v1.95l-.25 1.84-.35 1.66-1.21 2.74-1.34 2-1.26 1.4-1.12 1-1 .77-.88.61-.77.45-.88.5-.87.45-1.56.79-1.64.71-1.63.67-1.64.83-1.64.52-1.6.47-1.61.41-1.59.37-1.58.32-1.55.26-1.55.24-1.52.21-1.5.17-1.48.15-1.47.13-1.43.1-1.45.09-2.75.15-2.68.1-2.59.1-2.48.1-2.42.11-1.1.07-1.11.08-1.07.09-1.13.11-4.15.44-4.24.41-4.23.4-4.22.37-4.23.37-4.22.31-4.23.32-4.22.28-4.21.29-4.22.23-4.22.23-4.21.2-4.24.19-4.21.16-4.22.15-4.22.12-4.21.18-4.22.08-4.22.07h-21.11l-4.22-.05-4.23-.1-4.24-.1-4-.1-.76.16-4.19 1-4.2.9-4.18.85-4.2.84-4.2.78-4.2.75-4.22.72-4.2.68-4.21.65-4.22.6-4.22.58-4.21.55-4.22.54-4.22.48-4.21.47-4.22.45-4.22.4-4.23.38-4.22.37-4.21.33-4.22.32-4.22.3-4.21.26-4.22.25-4.22.24-4.2.2-4.21.2-4.2.18-2.3.08-2.54.44-2.56.41-2.57.4-2.58.4-2.59.37-2.58.37-2.58.33-2.59.33-2.54.32-2.67.32-3 .4-3.25.43-3.45.45-3.61.44-1.9.21-1.9.19-2 .18-2 .17h-.47l-.63.19-1.07.26-1.08.24-1.08.2-1.09.16-1.08.14-1.08.1-1.1.06h-3.3l-1.12-.06-1.13-.1-1.14-.15-1.13-.2-1.17-.24-1.16-.3-1.17-.35-.52-.16-1-.13-1-.15h-.07l-2.38.18-2.4.15-2.42.1h-6.1l-1.21-.05h-1.24l-1.23-.08-1.23-.1-1.24-.12-1.23-.13-1.23-.17-1.24-.18-1.23-.22-1.23-.23-1.24-.27-1.23-.28-1.23-.34-1.24-.35-1.23-.4-1.22-.43-1.23-.47-1.22-.5-1.2-.56-1.21-.59-1.19-.65-1.18-.7-1.37-.86-1.48-1.12-2-2-.94-1.47-.78-1.43-.6-1.5-.45-1.3-.45-2.91.17-2.9.7-2.71 1.1-2.3 1.48-2.14 2-2 2-1.33 1.55-.77 1.25-.5 1-.33 1-.27 1.45-.32 1.43-.23 1.33-.18 1.27-.14 1.22-.11 1.16-.09 2-.13 1.5-.1 3.81-.25 3.84-.28 2.86-.22.92-.92 1.95-1.36 2.15-1 2.3-.63 2.37-.24h2.68l.63-.47.94-.67 1-.63 1-.6 1-.58 1-.55 1-.54 1-.5 1-.5 1-.46 1.05-.45 1.07-.44 1.07-.41 1.08-.4 1.1-.37 1.12-.37 1.11-.33 1.12-.32 1.13-.3 1.15-.28 1.15-.25 1.17-.23 1.18-.2 1.17-.2 1.2-.15 1.2-.14.55-.05-.37-.08-1.16-.28-1.15-.32-1.17-.32-1.15-.35-1.15-.36-1.15-.4-1.15-.42-1.23-.47-.95-.41-1.54-.79-.91-.66-1.87-1.55-1.57-1.85-1.11-1.9-.87-2-.55-2.1-.21-2.17-9.42 3.27-3.75 1.3-2.12.7-4.6 1.38-4.61 1.37-4.79 1.37-2.5.7-2.5.68-2.55.68-2.58.67-2.63.65-2.64.63-2.68.62-2.7.6-2.72.57-2.73.55-2.77.51-2.76.49-2.79.43-2.8.4-2.81.37-2.8.31-2.79.25h-.16l-1.29.08-1.41.07-1.42.07-1.42.05h-7.06l-1.4-.07-1.42-.06-1.4-.1-1.4-.17-1.4-.13-1.4-.15-1.4-.19-1.4-.2-2.08-.33-1.83-.5-1.49-.6-1-.46-1-.47-1.69-.88-1.73-1-1.73-1-1.34-.84-1.41-.16-1.2-.12h-4.95l-1.77-.08-1.77-.09-1.76-.13-1.75-.13-1.75-.17-1.74-.2-1.76-.27-1.73-.25-1.72-.29-1.72-.31-1.7-.37-1.68-.38-1.68-.44-1.67-.46-1.67-.5-1.63-.57-1.63-.6-1.64-.65-1.6-.7-1.58-.8-1.57-.81-1.75-1-1.45-1-2.06-1.87-1-1.4-1.17-2.08-.85-2.27v-.08l-.42-2-.13-2 .17-2v-.17l.4-1.86.65-1.79.89-1.68.05-.08 1.18-1.65 1.38-1.47 1.07-1 2-1.25 1.48-.68 1.32-.48 1.51-.42 1.34-.27 1.15-.16 1-.12 1-.1h.94l1-.05h3.35l3.08.22 2.69.2 2.38.22 2.15.23 1.95.23 1.78.24 1.65.23 1.52.23 2.88.45 1.45.22 1.57.23 1.72.22 2 .23 2.25.25h.6l.13-.56.58-1.32.85-1.65 1.05-1.52.1-.11 1.14-1.38 1.47-1.23 1.2-.89 2.18-1.06 1.7-.59 1.35-.33 1.12-.18 1.06-.15 1.49-.1h3.96l2.12.1 1.75.1h30.46l1.85.05 1.89.09 1.93.11 2 .15 2 .19 2.1.23 2.15.28 2 .3.86.14 1 .11 3 .29 4.48-.09 6-.15 6-.16 6-.22 6-.23h.95l-.28-.63-.6-2-.3-2.08v-2.58l.48-2.53.9-2.42 1.32-2.22 1.66-2 2-1.65 1.85-1.08 2-.82 2.07-.52 2.13-.21 1.47-.05 2 .3 1.05.23 1.21.32 1.24.36 2.56.79 2.87.86 1.42.42 1.35.4 1.21.33 1 .25.77.17h.16l1.69.22 1.76.18 1.8.17 1.82.15 1.85.12 1.87.1 1.9.08 1.68.07h51.2l.83-.08 1.09-.05h4.66l1.54.05 1.23.07 1.07.06 2.51.4 2.42.8 2.23 1.2 2 1.59 1.7 1.88 1.37 2.15.13.33h10.04zm-87.32 57.86h.17-.34z" fill="#808080"/><path d="m419.77 413.53 1.43.19 1.37.26 1.3.35 1.4.44 1.45.58 1.53.77 1.45.93 1.35 1 1.22 1.14 1.08 1.21.93 1.24.79 1.25.65 1.23.53 1.22.43 1.18.34 1.13.25 1.1.2 1.07.13 1 .08 1v1.98l-.09 1.6-.2 1.67-.26 1.58-.37 1.52-.42 1.48-.48 1.44-.55 1.41-.5 1.17-.1.22-.68 1.36-.75 1.34-.82 1.31-.9 1.32-1 1.28-1 1.19-.67.71-.63.64-.69.61-.71.62-.79.6-.81.6-.89.57-.95.55-1 .51-1.09.47-1.15.43-1.23.37-1.3.28-1.35.2-1.42.1h-1.43l-1.45-.13-1.38-.23-1.22-.3-1.15-.37-1.13-.45-1.12-.47-1.07-.6-1-.69-.93-.71-.9-.8-.82-.83-.75-.87-.67-.88-.6-.9-.51-.92-.55-1.07-.64-1.61-.51-1.74-.32-1.7-.17-1.61v-1.57l.09-1.52.16-1.46.09-.39.21-1 .4-1.38.5-1.35.25-.59v-1.81l.05-1 .12-1 .15-1 .2-1 .26-1 .32-1.07.27-.77.11-.31.49-1.1.56-1.1.67-1.12.75-1.1.87-1.12 1-1.06 1.08-1 1.22-1 1.32-.9 1.41-.8 1.49-.68 1.53-.55 1.57-.42 1.58-.28 1.57-.14h1.51zm3.38 29.8-.28.15 1.18-.61v-.22.22l.05-.64v-.48l.05.52-.09-1.07.09.5-.19-1.15.12.47-.27-1-6.35 4.41h1.14-.35l1.18-.08-.35.05 1.23-.17-.31.07 1.25-.29-.32.1 1.27-.4-.3.12zm.65-.3.25-.15zm.05-3.08.1.3zm-6.33-15.72h-.75l.48.15.9.3.58.26 1.52 2.19 5.55.13-.37-.33.19.16-1.05-.8.2.17-1.2-.75.21.13-1.31-.65.21.1-1.45-.55.24.1-1.54-.41.25.06-1.58-.26.25.05-1.6-.1z" fill="#fff"/><path d="m463.47 357.9 1.9.33 1.83.57 1.73.83h.09l1.45.93 1.33 1.1 1.2 1.34 1 1.23 1.22 2.27.55 1.45.37 1.2.28 1 .25 1 .25 1.06.45 2.12.43 2.35.44 2.55.43 2.75.42 2.93.25 1.94.43.71.73 1.45.64 1.5.48 1.4.4 1.34.33 1.31.3 1.3.25 1.3.22 1.3.2 1.34.17 1.36.15 1.39.15 1.41.11 1.44.1 1.46.1 1.5.07 1.54.07 1.55.05 1.58v6.53l-.05 3.39-.1 3.41-.15 3.44-.2 3.41-.13 1.75-.13 1.72-.14 1.72-.16 1.7-.17 1.68-.2 1.67-.2 1.66-.22 1.64-.21 1.61-.07.35-.08 1.12-.17 1.6-.18 1.58-.22 1.55-.12.79.42.8.45 1.05.42 1.1.35 1.16.26 1.2.2 1.24.14 1.25v2.51l-.12 1.24-.18 1.21-.07.3-.23.85-.39 1.12-.51 1.23-.87 1.72-.98 1.67-1.13 1.49-1.15 1.26-1.15 1.12-1.16 1-1.14.87-1.13.78-1.12.69-1.11.63-1.1.57-1.1.53-1.09.48-1.1.45-1.08.42-1.1.38-1.1.37-1.1.33-1.12.32-1.11.3-1.12.28-1.12.27-1.13.23-1.12.24-1.15.2-1.13.18-1.13.18-1.15.17-1.14.13-1.15.14-1.13.11-1.15.09-1.15.08-1.13.07-1.14.05h-5.65l-1.13-.07-1.12-.08-1.13-.12-1.12-.14-1.13-.17-1.13-.18-1.15-.24-1.15-.26-1.19-.32-1.2-.37-1.25-.46-1.27-.52-1.53-.71-1.58-.94-1.7-1.31-1.52-1.52-4.93 1.55-2.69.83-2.71.85-2.77.82-2.8.82-2.82.8-2.83.75-2.83.7-1.45.35-1.44.33-1.43.3-1.43.3-1.44.27-1.45.26-1.43.24-1.43.21-1.45.2-1.44.17-1.45.15-1.45.12-1.45.08h-4.38l-1.48-.06-1.49-.12-1.5-.17h-.28l-1.23-.17-1.52-.28-1.55-.35-1.53-.43-1.57-.5-1.45-.59-.88-.38-1.3-.62-2.1-1.31-1.19-1.12-1.11-1.25-1-1.35-.93-1.45-1.07-3-.4-2.71v-2.27l.28-1.82.43-1.7.72-1.85.8-1.55.15-.21-.32-.32-1.41-2.07-1.05-2.2-.64-2.18-.28-2-.05-1.8.13-1.58.24-1.37.3-1.18.33-1.05.35-.93.37-.84.4-.86.48-.89v-.06l-.72-1-.66-1.08-.59-1.17-.5-1.2-.4-1.23-.3-1.25-.21-1.24-.12-1.21v-1.19l.06-1.35.24-1.86.46-1.89.59-1.65.65-1.46.7-1.3.71-1.19.74-1.06.73-1 .77-.91.75-.87.76-.83.79-.79.8-.76.78-.75.82-.72.81-.7.84-.7.88-.7 1.67-1.3 1.73-1.28 1.78-1.27 1.79-1.23 1.8-1.2 1.8-1.15 1.78-1.14 1.77-1.08 1.71-1.05 1.7-1 3.12-1.81 2.8-1.6 2.32-1.3 1.68-.94.92-.53 1.65-1 .23-.14 2.55-1.48 1.45-.82 1.5-.81 1.55-.8 1.58-.79 1.59-.73.95-.38.56-.22 2.44-2 2.66-2.07 2.42-1.85 2.1-1.36 2.32-1 1.8-.42 1.36-.83 1.39-.82 1.4-.78 1.4-.77 1.4-.73 1.41-.7 1.42-.7 1.42-.67 1.41-.63 1.42-.63 1.42-.6 1.4-.59 1.41-.58 2.72-1.05 2.7-1 2.62-.92 2.51-.85 2.4-.76 2.29-.7 2.11-.64.43-1.07.65-1.33 1.18-1.85.94-1 1.6-1.48 1.8-1.24h.08l2.12-1 2.26-.65 2.35-.25h.07z" fill="#808080"/><path d="m69 892.63 12.82.17 6.5.07h19.62l3.25-.06 3.25-.09 3.23-.11 3.22-.14 3.2-.16 3.16-.19 3.15-.23 3.14-.27 3.1-.28 3.05-.33 3-.39 3-.41 1.47-.22 1.46-.23 1.47-.24 1.45-.26 1.46-.26 1.42-.28 1.4-.29 1.4-.3 1.95-.45 2-.45 2-.48 1.95-.5 4-1 4-1.06 4-1.07 4.08-1 2.07-.52 2.07-.5 2.1-.5 2.1-.48 2.11-.45 2.12-.43 2.15-.42 2.15-.38 2.17-.35 2.18-.32 2.2-.28 2.22-.24 2.23-.2 2.25-.15 2.23-.1h5.77l1.15.05 1.17.06 1.15.07 1.18.1 1.13.1 4 .4 4 .37 4 .35 4 .35 4 .31 4 .3 4 .3 4 .27 4 .27 4 .23 3.95.23 4 .2 4 .2 3.95.19 4 .16 3.95.15 3.95.14 3.95.13 3.95.12 4 .08 3.95.08 3.93.09h3.95l3.95.05h23.7l7.9-.1 7.92-.14 7.92-.18 7.93-.22 7.93-.26 7.95-.3 7.95-.34 8-.38 8-.4 8-.43 8-.47 8.05-.5 8.05-.53 8.08-.55 8.1-.57 8.13-.6 8.19-.62 1.63-.11 1.68-.09h8.35l1.67.08 1.65.08 1.67.12 1.65.13 1.63.15 1.65.17 1.63.18 1.64.2 1.65.2 3.23.47 3.23.5 3.22.53 3.2.55 3.17.57 3.16.58 5.81 1.13 3.1.55 3.08.53 3 .52 3 .47 3 .43 1.47.18 1.5.19 1.46.16 1.49.15 1.46.14 1.45.11 1.45.1 1.45.09 1.44.06h7.05l1.38-.06 1.37-.09 1.36-.11 1.37-.15 1.35-.17 1.35-.2 1.33-.22 1.4-.26 2.14-.42 2.23-.4 2.23-.4 2.25-.37 2.27-.35 2.27-.35 2.3-.31 2.28-.3 2.32-.27 2.3-.27 2.33-.25 2.33-.23 2.34-.22 2.35-.2 2.36-.18 2.37-.17 2.37-.16 2.36-.14 2.39-.13 2.4-.12 2.38-.1 2.42-.08 4.78-.13 4.83-.09 4.82-.05h9.67l4.83.08 4.83.1 4.82.15 4.82.17 4.78.2 4.77.21 4.75.25 4.71.27 4.7.28 4.65.3 4.62.32 4.57.32 9 .66 8.76.67 2.92.2 2.88.2 2.89.17 2.88.13 2.88.13 2.89.1 2.9.09 2.88.08 2.9.05h14.47l2.9-.05 2.9-.07 2.9-.06 2.9-.09 5.81-.2 5.82-.25 5.83-.3 5.82-.31 5.83-.35 5.85-.37 5.84-.4 11.71-.83 11.74-.85 11.75-.82 5.9-.4 5.9-.38 5.9-.34 5.9-.33 5.91-.28 5.94-.24 5.91-.2 3-.08 3-.07 3-.05h8.95l1.62.17 1.56.46 1.45.77 1.27 1 1 1.27.79 1.43.46 1.57.17 1.62-.15 1.63-.48 1.54-.76 1.43-1 1.27-1.26 1-1.44.78-1.54.52-1.62.15h-5.8l-2.9.05h-2.88l-2.9.07-2.89.06-5.8.2-5.8.24-5.81.28-5.82.32-5.82.35-5.83.36-5.83.39-11.72.83-11.72.85-11.76.82-5.89.4-5.91.38-5.9.35-5.92.33-5.93.3-5.94.25-5.93.22-3 .08-3 .07-3 .07h-18l-3-.07-3-.07-3-.08-3-.12-3-.13-3-.15-3-.17-3-.2-3-.21-8.77-.67-8.95-.67-4.53-.31-4.57-.3-4.58-.3-4.63-.29-4.65-.25-4.67-.25-4.68-.21-4.7-.2-4.7-.17-4.72-.13-4.72-.12-4.7-.07h-14.08l-4.65.1-4.65.14-2.3.08-2.3.08-2.28.12-2.29.12-2.28.13-2.27.15-2.25.17-2.25.18-2.23.18-2.23.2-2.22.24-2.2.23-2.18.25-2.17.27-2.17.26-2.15.3-2.13.32-2.12.33-2.1.35-2.08.37-2.07.38-2.11.4-1.62.32-1.68.28-1.7.24-1.67.21-1.68.17-1.69.15-1.68.12-1.67.06-1.68.07h-5l-1.65-.05-1.67-.06-1.65-.1-1.65-.1-1.65-.14-1.63-.16-1.65-.17-1.63-.18-1.64-.2-1.46-.09-3.23-.47-3.22-.5-3.22-.53-3.2-.55-3.16-.59-6.3-1.15-3.14-.58-3.1-.55-3.08-.55-3-.5-3-.47-3-.43-1.48-.18-1.48-.19-1.49-.16-1.48-.15-1.47-.14-1.45-.11-1.45-.1-1.45-.09-1.43-.05h-7.08l-1.39.07-1.41.1-8.15.62-8.17.6-8.15.58-8.12.55-8.11.53-8.1.5-8.07.47-8.07.45-8.06.4-8 .38-8 .34-8 .3-8 .26-8 .24-8 .18-8 .13-8 .1h-24l-4-.05-4-.06-4-.07-4-.08-4-.1-4-.1-4-.14-4-.13-4-.17-4-.16-4-.19-4-.2-4-.21-4-.24-4-.23-4-.27-4-.28-4-.3-4-.3-4-.33-4.05-.35-4-.35-4-.39-4-.4-1-.08-.94-.07-.93-.06h-7.22l-1.9.09-1.89.13-1.88.17-1.9.2-1.9.25-1.9.26-1.92.32-1.91.33-1.92.39-1.93.38-1.95.43-1.94.44-2 .46-2 .49-2 .48-4 1-4 1.05-4.05 1.07-4.07 1.05-2.06.53-2.07.5-2.08.49-2.1.48-1.55.33-1.59.34-1.58.3-1.58.3-1.59.28-1.6.27-1.61.25-1.64.25-3.21.45-3.27.4-3.3.36-3.3.32-3.32.27-3.33.23-3.35.22-3.35.16-3.37.15-3.36.12-3.37.08-3.37.07h-13.31l-6.61-.05-6.57-.06-12.82-.17-6.2-.07h-40.4l-.28.06-.28.07-.89.25-1 .32-1.1.35-1.2.4-1.25.36-.72.2-.73.19-.77.16-.82.15-.86.14-1 .06h-1.07l-.75-.07-.9-.11-.35-.07-1.06-.27-.32-.11-.88-.32-.48-.21-.45-.27-.63-.4-.14-.08-.6-.47-.13-.1-.57-.47-.1-.1-.54-.58-.1-.14-.46-.63-.09-.13-.4-.64-.25-.46-.36-.82-.27-.78-.2-.77-.1-.5-.13-1.68.17-1.64.48-1.55.78-1.43 1.05-1.27 1.27-1 1.45-.77 1.57-.47 1.61-.15 1.64.17 1.55.48 1.11.6.82-.26 1.17-.37 1.25-.4 1.33-.38.77-.2.76-.17.82-.17.87-.11 1-.1h41.28zm-52.51 7.62v-.08l-.1-.39-.13-.4z"/><path d="m365.47 647.05.85.15.85.23.8.32.76.42.74.48.66.55.62.63.53.69.47.73.38.78.3.82.22.85.12.87v1.73l-.05 1-.07 1-.08 1-.1 1-.13 1-.15.94-.19 1-.18.93-.2.93-.23.92-.24.93-.26.92-.27.93-.57 1.79-.63 1.81-.68 1.79-.72 1.76-.75 1.75-.78 1.75-.82 1.72-.83 1.72-.84 1.41-.87 1.68-.88 1.65-.88 1.64-.9 1.61-1.77 3.12-1.7 3.1-1.73 2.9-1.59 2.82-.73 1.33-.7 1.3-.67 1.27-.58 1.28-1.45 2.95-1.44 3-1.4 3-1.39 3.05-1.32 3.05-1.34 3.12-1.3 3.13-1.3 3.15-1.26 3.18-1.27 3.19-1.28 3.18-1.25 3.27-2.47 6.51-2.43 6.55-2.45 6.59-2.45 6.6-2.5 6.6-1.27 3.31-1.27 3.3-1.3 3.29-1.31 3.3-1.34 3.26-1.36 3.29-1.39 3.25-1.41 3.25-1.45 3.23-1.45 3.15-.79 1.73-.73 1.67-.72 1.7-.7 1.72-.66 1.71-.65 1.72-.63 1.75-.62 1.76-.6 1.77-.6 1.78-.57 1.8-.56 1.79-1.1 3.65-1.09 3.7-1.05 3.7-1 3.75-2.15 7.55-1.08 3.82-1.13 3.82-.59 1.91-.6 1.92-.61 1.93-.6 1.84-.07.18v.08l-.1.44-.08.45-.07.56-.06.65-.05.72v10.78l-.07 1.12-.12 1.17-.15 1.18-.21 1.22-.34 1.21-.2.72-.22.63-.25.68-.28.67-.32.68-.38.69-.43.7-.49.7-.53.68-.62.65-.68.63-.73.6-.79.54-.83.48-.87.43-.9.35-.91.27-.92.22-.9.15-.67.05h-1.73l-.87-.15-.83-.23-.82-.32-.76-.42-.74-.48-.66-.55-.6-.63-.55-.69-.47-.73-.38-.78-.3-.82-.22-.85-.15-.87v-.88l.07-.87.13-.85.24-.85.33-.8.4-.78.48-.72.57-.68.62-.6.68-.55.73-.47.79-.38.05-.57.05-.7v-9.7l.05-1.13.07-1.17.12-1.18.16-1.22.22-1.23.27-1.22.2-.7.18-.56.62-1.89.56-1.8.57-1.8.55-1.81 1.08-3.67 1.07-3.7 2.14-7.52 1.07-3.79 1.07-3.8 1.11-3.81 1.15-3.8.62-1.94.62-1.91.63-1.92.65-1.93.68-1.92.7-1.92.72-1.91.75-1.92.78-1.92.8-1.91.84-1.9.85-1.87 1.43-3.1 1.37-3.07 1.36-3.11 1.32-3.12 1.32-3.15 1.3-3.18 1.26-3.19 1.27-3.21 1.25-3.24 1.25-3.23 2.45-6.53 2.45-6.55 2.43-6.6 2.47-6.6 2.48-6.59 1.27-3.3 1.28-3.28 1.3-3.28 1.3-3.29 1.35-3.25 1.35-3.26 1.39-3.24 1.41-3.21 1.44-3.22 1.48-3.18 1.52-3.17 1.55-3.15.71-1.42.75-1.43.79-1.45.8-1.47 1.65-2.91 1.71-3 1.72-3 1.72-3.05.83-1.52.83-1.52.8-1.51.8-1.52.75-1.52.74-1.5.71-1.48.65-1.48.64-1.45.58-1.44.53-1.41.49-1.39.45-1.4.18-.63.18-.65.17-.65.17-.63.13-.64.12-.61.11-.6.1-.6.1-.65v-.56l.05-.55.05-.55v-1.14l.07-.87.15-.85.23-.85.32-.8.42-.78.48-.72.57-.66.61-.62.69-.53.73-.47.78-.38.84-.3.83-.22.87-.13h.86zm27.53 6.95.83.1.82.18.8.27.77.35.73.42.68.5.64.55.56.63.52.67.43.73.35.77.29.8.2.81.1.84v1.93l-.06 1.23-.1 1.22-.15 1.22-.19 1.2-.21 1.2-.25 1.18-.29 1.17-.31 1.16-.34 1.15-.36 1.15-.4 1.14-.42 1.13-.43 1.12-.45 1.1-.49 1.1-.48 1.1-.52 1.08-.51 1.08-.55 1.09-.55 1.06-.59 1.07-1.15 2.08-1.2 2.09-1.23 2.06-1.27 2-1.26 2-1.29 2-1.28 2-2.53 3.88-1.24 1.9-1.2 1.89-1.16 1.85-1.14 1.81-1.06 1.79-1 1.75-.95 1.71-.43.82-.42.83-.42.82-.38.8-.35.78-.35.77-.32.75-.28.75-.27.72-.26.76-1.22 3.64-1.25 3.68-2.53 7.32-2.55 7.3-2.57 7.25-5.15 14.48-2.56 7.22-2.52 7.21-2.48 7.22-1.23 3.6-1.2 3.62-1.2 3.61-1.17 3.64-1.16 3.62-1.14 3.63-1.13 3.65-1.1 3.63-1.07 3.65-1.05 3.67-1 3.67-1 3.68-1 3.68-1 3.84-.32 1.13-.41 1.3-.49 1.37-.53 1.43-.58 1.52-.65 1.61-1.37 3.42-1.55 3.68-1.67 3.92-1.66 3.95-1.65 4-1.59 3.88-.73 1.88-.72 1.82-.65 1.75-.6 1.67-.53 1.56-.48 1.45-.39 1.3-.31 1.17-.12.47-.08.43-.09.37v.11l.13.49.12.83v.85l-.05.85-.13.83-.23.8-.3.8-.39.75-.45.7-.53.67-.58.6-.65.55-.7.47-.75.4-.79.31-.8.25-.83.15-.83.09h-.85l-.84-.1-.83-.18-.8-.27-.77-.33-.73-.44-.68-.48-.64-.57-.58-.61-.5-.67-.43-.73-.14-.24-.28-.6-.25-.63-.1-.35-.15-.5-.13-.54-.07-.31-.12-.8-.06-.69v-1.91l.06-.85.12-.84.13-.81.15-.82.19-.82.2-.83.43-1.63.52-1.7.56-1.77.64-1.83.68-1.87.72-1.93.75-1.95.8-2 1.63-4 1.7-4.07 1.68-4 1.64-3.83 1.51-3.62 1.34-3.27.58-1.45.52-1.35.45-1.18.35-1 .25-.78.18-.65.95-3.72 1-3.82 1-3.8 1.07-3.78 1.08-3.78 1.1-3.75 1.14-3.74 1.15-3.73 1.16-3.72 1.19-3.7 1.21-3.7 1.22-3.68 1.23-3.67 1.24-3.68 2.51-7.28 2.55-7.29 2.57-7.25 5.15-14.48 2.55-7.22 2.53-7.23 2.5-7.25 1.22-3.62 1.23-3.68.35-1 .4-1.05.42-1 .43-1 .47-1.05.47-1 .5-1 .5-1 .53-1 .55-1 1.1-2 1.15-2 1.2-2 1.23-2 1.24-2 1.26-2 1.27-2 2.53-3.88 1.25-1.92 1.22-1.92 1.2-1.88 1.15-1.88 1.12-1.85 1.06-1.85 1-1.84.47-.86.46-.9.44-.87.43-.88.4-.87.38-.85.37-.85.35-.83.32-.82.3-.82.26-.8.27-.78.22-.78.2-.75.18-.75.17-.74.11-.71.12-.7.08-.69v-2.11l.07-.85.13-.84.24-.81.3-.79.38-.75.47-.7.53-.66.58-.6.65-.54.7-.46.75-.4.79-.32.81-.25.82-.15.85-.07zm-78.3 232.38-.05-.18-.2-.35z"/><path d="m395.53 658.87h.22l.63.09.64.13.23.07.53.15.52.2.25.08.4.18.4.2.25.14.65.38.55.35.73.58.5.42.6.6.55.63.49.7.4.74.33.78.25.8.17.83.08.84v.85l-.08.83-.18.83-.25.8-.34.79-.41.73-.49.68-.55.64-.61.58-.69.52-.13.08v.67l.05 1.11.06 1.17.17 2.52.22 2.58.23 2.63.22 2.59.18 2.48.08 1.23.07 1.17v5.5l-.05 1.62-.07 1.61-.08 1.6-.1 1.6-.22 3.15-.28 3.14-.3 3.11-.32 3.09-.33 3.05-.32 3-.31 3-.29 3-.25 3-.21 3-.1 1.45-.07 1.47-.07 1.45v13.27l-.08 4.45-.09 4.45-.11 4.43-.15 4.45-.17 4.43-.17 4.44-.2 4.43-.2 4.43-.45 8.85-.46 8.84-.5 8.85-.49 8.81-.46 8.84-.45 8.81-.2 4.4-.19 4.42-.18 4.4-.15 4.4-.15 4.42-.12 4.4-.08 4.4-.08 4.4v9.68l-.14.83-.2.82-.3.78-.38.77-.45.72-.52.66-.58.6-.63.55-.7.49-.74.4-.78.33-.8.25-.83.17-.84.08h-1.06l-.83-.08-.83-.19-.8-.25-.79-.33-.73-.42-.68-.48-.65-.55-.59-.62-.5-.66-.45-.72-.36-.77-.3-.78-.2-.82-.14-.83v-5.33l.05-4.52.06-4.5.1-4.48.12-4.49.13-4.48.17-4.48.17-4.47.2-4.45.2-4.47.45-8.88.48-8.87.48-8.85.49-8.81.48-8.8.43-8.79.2-4.38.2-4.38.17-4.37.17-4.37.13-4.36.12-4.37.1-4.35.06-4.35v-12l.05-1.65.07-1.63.08-1.62.1-1.63.24-3.17.26-3.17.3-3.13.32-3.1.33-3 .32-3 .32-3 .28-3 .27-2.93.21-2.93.09-1.44.06-1.43.07-1.43.05-1.44v-4.45l-.05-1-.07-1-.18-2.3-.22-2.52-.21-2.65-.24-2.73-.18-2.72-.08-1.37-.05-1.35v-5.2l.1-1.28.16-1.23.12-.72.15-.68.18-.74.24-.75.31-.81.42-.87.32-.53.25-.4.26-.39.14-.18.35-.43.38-.42.15-.17.47-.43.5-.4.16-.12.64-.43.65-.35.18-.1.72-.3.73-.25.2-.05.77-.18.8-.1h.93zm28.79-8.37.83.08.83.17.8.27.77.33.75.42.68.48.64.55.58.62.52.66.45.72.36.77.29.78.21.82.12.83v6.07l-.05 5.26-.1 5.25-.14 5.25-.15 5.25-.2 5.25-.2 5.25-.25 5.25-.25 5.24-.26 5.25-.3 5.25-.3 5.25-.64 10.46-.65 10.49-.66 10.48-.63 10.47-.3 5.23-.28 5.23-.27 5.25-.27 5.22-.23 5.23-.2 5.24-.18 5.23-.17 5.23-.12 5.24-.1 5.21-.06 5.24v6.78l-.07 2.35-.28 6.88-.35 9-.37 9.94-.15 5-.13 4.77-.1 4.42-.07 3.93v6.14l.17.83.1.83v.86l-.08.84-.15.83-.25.8-.34.78-.4.74-.48.7-.53.65-.62.58-.67.52-.7.45-.76.38-.79.3-.81.22-.84.13-.85.05h-.83l-.83-.12-.82-.22-.8-.28-.77-.37-.71-.43-.53-.4-.52-.45-.46-.49-.44-.51-.4-.55-.34-.6-.3-.62-.05-.13-.23-.6-.18-.64-.12-.5-.15-.86-.13-1.2-.07-1.27-.05-1.38v-5.09l.07-4.08.1-4.53.13-4.85.17-5 .37-10 .35-9 .26-6.85.09-2.2v-6.45l.05-5.33.1-5.33.13-5.34.15-5.33.18-5.32.22-5.3.23-5.3.27-5.3.27-5.28.3-5.28.3-5.27.63-10.52.65-10.5.65-10.46.63-10.44.3-5.21.29-5.2.26-5.19.27-5.18.23-5.18.2-5.17.19-5.17.16-5.16.12-5.15.1-5.14.05-5.13v-5.17l.05-.83.13-.85.22-.82.3-.78.36-.75.53-.92.52-.66.58-.62.65-.55.7-.47.74-.41.81-.29.8-.25.83-.16.84-.07zm-1.55 227.65.35.62-.19-.4-.45-.62z"/><path d="m436 653.85.83.12.82.21.78.3.77.37.71.45.67.52.6.58.55.63.48.7.42.74.33.78.25.8.17.83.08.84v.85l-.08.83-.18.83-.17.55.12.47.15.57.18.58.42 1.33.46 1.39.5 1.38.5 1.35.5 1.27.87 2.16.55 1.35.8 2 .82 1.9.83 1.9.88 1.92.9 1.9.92 1.9.95 1.92 1 1.91 2 3.87 2 3.9 2.05 3.93 2 4 1 2 1 2 1 2.05 1 2.09.95 2.1.93 2.11.92 2.14.86 2.18.85 2.18.82 2.24.77 2.25.71 2.26.35 1.19.34 1.15.33 1.16.3 1.19.3 1.18.28 1.2.27 1.2.23 1.18.59 2.82.6 2.92.63 3 .67 3.13.71 3.22.75 3.32.79 3.38.81 3.47.85 3.51.89 3.55.91 3.6.95 3.64 1 3.66 1 3.65 1.05 3.67 1.16 3.73 1.1 3.63 1.13 3.62 1.15 3.56 1.2 3.54 1.2 3.48 1.25 3.42.62 1.65.65 1.66.63 1.64.65 1.6.65 1.58.65 1.57.67 1.53.67 1.5.66 1.48.67 1.45.68 1.4.69 1.39.68 1.35.68 1.3.7 1.28.69 1.22.7 1.2.68 1.15.7 1.1.75 1.15.3.46.35.6.57 1 .53 1.1.48 1.1.47 1.12.43 1.13.42 1.14.4 1.16.8 2.32.78 2.32.79 2.3.38 1.08.4 1.07.4 1 .4 1 .38.9.4.85.39.75.38.7.15.26.17.27.15.23.15.2.11.17.55.1.8.25.79.32.73.4.7.48.65.53.58.62.54.65.45.72.38.75.3.8.22.81.13.84.07.83v.85l-.13.83-.2.82-.28.8-.37.75-.43.73-.52.67-.57.62-.63.56-.68.49-.74.41-.78.34-.8.26-.82.19-.85.1h-1.56l-1-.11-1-.22-1-.28-1-.34-.89-.41-.83-.45-.78-.49-.72-.51-.68-.55-.64-.55-.58-.57-.53-.6-.52-.58-.48-.6-.45-.6-.42-.6-.42-.62-.38-.62-.38-.65-.67-1.2-.62-1.26-.6-1.27-.55-1.27-.51-1.28-.5-1.27-.56-1.3-.45-1.29-.85-2.43-.78-2.35-.75-2.2-.35-1-.35-.94-.32-.85-.32-.75-.26-.63-.25-.5-.22-.4v-.07l-.12-.16-.78-1.22-.85-1.35-.84-1.38-.83-1.42-.82-1.45-.8-1.47-.78-1.5-.78-1.53-.77-1.57-.75-1.56-.75-1.62-.75-1.63-.73-1.65-.72-1.67-.72-1.7-.7-1.72-.7-1.73-.68-1.75-.67-1.77-.68-1.8-1.32-3.6-1.26-3.65-1.28-3.69-1.22-3.74-1.18-3.76-1.12-3.77-1.1-3.8-1.09-3.78-1-3.78-1-3.77-1-3.75-.95-3.7-.9-3.67-.88-3.6-.84-3.53-.8-3.48-.76-3.39-.74-3.3-.74-3.18-.65-3.1-.62-3-.56-2.83-.22-1-.22-1-.23-1-.25-1-.25-1-.27-1-.28-1-.28-.95-.64-2-.65-1.93-.7-1.94-.75-1.91-.76-1.92-.82-1.92-.85-1.9-.87-1.91-.9-1.92-.91-1.92-.95-1.91-1-1.92-2-3.87-2-3.9-2.05-3.93-2-4-1-2-1-2-1-2.05-1-2.07-1-2.08-.94-2.1-.91-2.13-.85-2.09-.59-1.41-.91-2.3-.55-1.44-.59-1.55-.58-1.61-.57-1.69-.53-1.66-.25-.89-.25-.85-.22-.86-.2-.89-.16-.86-.15-.92-.12-1-.07-1v-1.63l.05-.38.07-.45.1-.45v-.17l.2-.73.05-.15.15-.42.18-.42.07-.13.23-.48.29-.49.06-.11.37-.54.42-.5.08-.1.5-.53.55-.48.1-.09.63-.45.67-.4.12-.06.7-.34.73-.26h.12l.81-.21.85-.14h.84zm2.41 15.95-.8.28.64-.2.35-.18zm17.67-36.8.49.07.86.13.35.09.52.13.52.15.35.13.45.17.41.2.37.18.7.39.68.41.89.65.8.69.7.7.66.7.6.71.55.72.54.75.51.75.49.77.46.78.45.8.45.8.45.87.82 1.66.82 1.77.78 1.82.77 1.86.75 1.92.73 1.93.7 1.95.68 2 .67 2 .65 2 .62 1.95 1.16 3.73 1.07 3.52 1.75 5.93.65 2.2.48 1.53.7 2.07.74 2.13.75 2.14.76 2.13.79 2.13.81 2.15.82 2.15.82 2.14 1.71 4.33 1.75 4.33 1.8 4.35 1.84 4.37 1.88 4.37 1.9 4.4 1.93 4.41 2 4.42 3.93 8.92 4 9 2 4.5 2 4.51 1.95 4.54 1.92 4.53 1.77 4.47 1.87 4.58 1.81 4.58 1.79 4.6.86 2.34.87 2.3.85 2.31.83 2.34.82 2.31.8 2.34.78 2.33.77 2.35.75 2.33.73 2.35.7 2.35.7 2.37.67 2.35.65 2.37.63 2.38.59 2.32.3 1.1.28 1.05.33 1.08.35 1.1.37 1.12.4 1.11.42 1.15.43 1.14.47 1.16.48 1.15.5 1.19.53 1.16.54 1.17.55 1.17.58 1.18.58 1.17.6 1.16.62 1.17.63 1.15.64 1.15.65 1.13.66 1.14.67 1.11.67 1.1.68 1.09.68 1.08.7 1.05.7 1 .7 1 .7 1 .7 1 .79 1 .35.5.38.61.35.62.35.65.5 1.1.43 1.13.37 1.12.3 1.08.25 1.07.22 1 .2 1 .16 1 .29 1.86.23 1.77.25 1.76.6.3.73.48.67.55.62.62.55.66.48.74.38.78.32.82.22.83.15.87v1.75l-.13.85-.22.85-.32.81-.4.77-.46.73-.55.69-.64.61-.66.55-.74.47-.78.4-.55.25-.87.3-.56.17-.74.16h-.25l-.81.11h-2.5l-.54-.12-.48-.12-.2-.05-.47-.15-.46-.17-.19-.06-.45-.2-.41-.22-.19-.08-.76-.47-.19-.13-.66-.5-.17-.15-.58-.54-.39-.4-.56-.66-.47-.67-.4-.63-.35-.64-.32-.66-.43-1.05-.35-1.07-.28-1-.24-1-.2-1-.16-1-.15-.94-.27-1.78-.22-1.66-.25-1.63-.12-.73-.13-.69-.14-.61-.13-.55-.12-.49-.13-.36-.08-.25-.07-.15-.72-.95-.81-1.14-.82-1.15-.8-1.16-.8-1.19-.78-1.2-.79-1.23-.78-1.23-.77-1.25-.75-1.27-.75-1.27-.73-1.3-.73-1.3-.7-1.31-.7-1.32-.69-1.32-.68-1.35-.65-1.33-.63-1.35-.62-1.35-.62-1.37-.58-1.35-.57-1.35-.53-1.36-.53-1.37-.5-1.37-.49-1.35-.45-1.36-.43-1.35-.4-1.37-.38-1.35-.34-1.28-.58-2.29-.58-2.21-.62-2.22-.63-2.22-.65-2.23-.67-2.22-.7-2.23-.72-2.22-.71-2.21-.75-2.24-.77-2.21-.78-2.24-.8-2.23-.82-2.22-.82-2.23-.83-2.22-1.73-4.46-1.77-4.45-1.82-4.45-1.85-4.47-1.88-4.45-1.92-4.47-1.91-4.47-1.95-4.48-3.95-8.93-4-8.9-2-4.47-1.95-4.45-1.93-4.46-1.92-4.45-1.88-4.47-1.83-4.45-1.74-4.42-1.75-4.45-.87-2.25-.85-2.21-.83-2.24-.83-2.23-.8-2.25-.79-2.23-.76-2.24-.79-2.28-.56-1.83-.7-2.34-1.75-5.9-1-3.4-1.12-3.6-.58-1.81-.6-1.82-.62-1.83-.63-1.8-.65-1.79-.65-1.71-.65-1.69-.65-1.58-.65-1.5-.63-1.4-.65-1.28-.29-.57-.3-.53-.28-.5-.27-.45-.25-.4-.23-.34-.22-.3-.2-.06-.8-.34-.76-.43-.72-.5-.65-.57-.6-.65-.52-.68-.45-.75-.36-.8-.29-.82-.2-.85-.1-.86v-.94l.08-.86.17-.85.25-.84.35-.8.41-.76.52-.72.57-.65.63-.6.7-.52.75-.45.8-.36.82-.29.85-.2.86-.1h1.35zm-1.21 16.64h.13-.43zm-77.97-37.57h1l.33.05.34.07.31.08.32.1.33.1.3.12.32.13.3.15.3.15.28.17.29.18.28.2.27.2.25.22.25.21.25.24.23.25.22.25.21.26.2.27.19.27.18.28.17.3.15.3.15.3.11.3.14.32.1.31.08.34.08.31.07.34.05.33.05.33v2.25l-.07.7-.1.74-.23 1.23-.32 1.27-.37 1.26-.4 1.24-.51 1.31-.48 1.25-.52 1.25-.55 1.25-.58 1.27-.6 1.26-.62 1.27-.66 1.3-1.32 2.52-1.37 2.53-1.4 2.5-1.36 2.42-1.34 2.31-2.43 4.25-1 1.84-.92 1.66-.17.3-.16.29-.2.26-.2.29-.2.25-.24.25-.21.25-.25.23-.25.22-.27.21-.27.2-.26.2-.29.19-.28.16-.3.15-.3.15-.32.14-.31.11-.32.1-.32.1-.33.09-.32.06h-3l-.32-.07-.33-.08-.32-.08-.32-.12-.31-.12-.32-.13-.3-.13-.3-.15-.28-.17-.29-.18-.28-.19-.27-.21-.26-.2-.25-.24-.25-.21-.24-.25-.21-.25-.22-.25-.2-.27-.18-.28-.19-.29-.16-.28-.17-.3-.15-.3-.13-.32-.12-.31-.1-.32-.1-.32-.08-.33-.07-.32-.05-.33-.05-.33v-2.01l.05-.33.07-.32.08-.33.1-.32.1-.32.12-.31.13-.32.14-.3.16-.3 1-1.77 1.12-2 2.46-4.3 1.3-2.28 1.34-2.34 1.3-2.35 1.27-2.35 1.22-2.31.57-1.1.53-1.1.5-1 .47-1 .43-1 .4-.93.33-.87.29-.8.23-.72.18-.63.14-.5.08-.45v-1.37l.05-.33.08-.32.07-.33.1-.32.12-.31.11-.32.14-.3.13-.32.17-.28.16-.3.19-.28.18-.27.22-.27.2-.26.23-.25.23-.24.24-.23.25-.23.26-.2.27-.2.28-.2.29-.17.28-.17.3-.16.3-.14.32-.13.31-.12.32-.1.32-.1.33-.08.33-.07h1.34z"/><path d="m444.32 609.3 1.1.07 1.11.11 1.12.15 1.12.22 1.15.27 1.13.35 1.13.41 1.14.5 1.11.57 1 .63.6.4.52.39.51.41.5.42.49.45.46.47.45.46.44.5.41.52.4.53.39.54.36.55.35.56.37.64.58 1.13.54 1.22.48 1.26.42 1.3.36 1.32.32 1.38.27 1.4.23 1.45.17 1.5.13 1.54.1 1.6.07 1.63v2.6l-.06.48-.1.49-.14.48-.15.47-.18.46-.2.45-.23.44-.27.41-.28.4-.3.4-.34.37-.35.35-.36.32-.39.3-.41.28-.42.27-.43.21-.45.22-.47.17-.47.15-.48.11-.48.1-.49.07h-2l-.48-.09-.49-.11-.46-.14-.47-.16-.45-.2-.45-.22-.42-.25-.41-.27-.4-.3-.39-.31-.35-.34-.33-.36-.32-.39-.3-.4-.26-.41-.25-.42-.22-.45-.18-.45-.17-.47-.13-.48-.1-.48-.09-.49v-2.38l-.05-1.23-.07-1.15-.1-1-.1-1-.15-.88-.15-.8-.15-.7-.18-.63-.17-.54-.18-.45-.17-.38-.18-.37-.05-.08-.07-.12-.06-.1-.07-.08-.05-.07-.05-.06-.07-.07h-.1l-.17-.1-.11-.06-.15-.07-.19-.07-.23-.06-.28-.07-.34-.07-.38-.05h-3.56l-.72.05-.75.08-.78.1-.8.1-1.78.28-1.87.32-2 .37-4.25.81-2.25.44-2.35.4-2.4.4-1.25.18-1.25.17-1.28.16-1.28.14-1.32.13-1.32.12-1.33.08-1.37.07h-3.65l-.68.09-.82.13-.9.15-1 .22-1.05.21-1.1.27-2.35.58-2.41.62-2.45.65-2.4.62-2.32.56-1.15.25-1.12.24-1.11.18-1.14.17-1.11.1h-1.4l-.77-.05-.88-.11-.55-.12-.47-.12-.45-.13-.18-.07-.39-.15-.38-.15-.38-.18-.15-.08-.35-.2-.34-.2-.33-.24-.33-.23-.12-.1-.37-.32-.36-.33-.34-.37-.31-.38-.09-.1-.26-.37-.24-.35-.21-.38-.22-.38-.17-.4-.06-.14-.15-.4-.14-.4-.11-.4-.09-.41-.08-.42v-.13l-.05-.47v-1.57l.05-.48.07-.48.12-.47.05-.18.1-.37.11-.37.13-.56.08-.2.17-.38.18-.38.28-.54.49-.75.48-.65.37-.45.31-.38.35-.35.37-.33.38-.32.4-.28.42-.27.43-.23.44-.22.46-.18.47-.17.47-.13.48-.1.5-.07h1.97l.48.07.48.1.49.13.46.15.45.18.45.22.44.23.41.27.1.08.74-.18 2.25-.58 2.43-.64 2.53-.65 2.55-.65 1.32-.3 1.3-.28 1.28-.27 1.27-.23 1.28-.18 1.29-.17 1.23-.1h4.48l1.07-.09 1.07-.08 1.05-.1 1.06-.12 1.09-.13 1.06-.15 1.05-.15 2.17-.35 2.13-.38 2.15-.4 4.25-.82 2.12-.4 2.12-.37 2.08-.31 1.07-.15 1.06-.14 1.07-.1 1.05-.1 1.07-.06h2.16z"/><path d="m417.2 620.8h1.13l.39.08.36.08.35.12.37.12.35.15.35.15.33.18.34.18.31.2.32.22.3.23.28.25.29.25.26.27.25.28.25.3.22.3.22.32.2.32.18.33.17.33.15.35.15.35.11.37.1.37.09.36.08.37v1.92l.15 1.71.22 2.4.3 2.94.37 3.35.41 3.65.47 3.81.47 3.87.5 3.82.5 3.63.5 3.33.46 2.94.2 1.21.2 1.09.19.86.05.24.11.2.15.35.15.35.14.35.11.36.1.37.07.37.07.38.05.37v1.51l-.05.39-.05.36-.06.39-.1.36-.1.37-.14.35-.13.35-.17.35-.16.33-.19.34-.2.31-.21.32-.24.3-.25.3-.25.27-.26.26-.29.27-.28.23-.32.24-.3.21-.33.2-.33.19-.34.16-.35.15-.35.15-.36.12-.35.1-.39.1-.35.07-.37.05h-2.18l-.37-.07-.36-.07-.33-.09-.33-.1-.34-.11-.31-.12-.32-.15-.32-.15-.3-.17-.3-.18-.3-.18-.28-.2-.27-.22-.06-.07-.29-.23-.26-.25-.25-.25-.25-.27-.22-.28-.23-.3-.2-.3-.07-.1-.17-.25-.13-.25-.13-.25-.14-.25-.23-.48-.27-.72-.21-.67-.29-1.05-.25-1.11-.25-1.22-.25-1.32-.25-1.43-.5-3.15-.51-3.5-.52-3.77-.5-3.91-.5-4-.47-3.9-.43-3.73-.37-3.44-.31-3.06-.25-2.59-.15-2-.05-.88v-1.73l.05-.37.07-.38.08-.37.1-.37.12-.36.13-.35.15-.35.17-.34.18-.33.2-.33.2-.32.24-.3.23-.3.25-.28.27-.27.26-.27.3-.25.3-.23.3-.22.32-.2.33-.2.34-.16.35-.17.35-.15.35-.13.36-.1.37-.1.37-.09.38-.06h1.13z"/><path d="m401.65 620.8h.4l.42.07.4.07.4.1.38.11.4.12.37.17.38.16.37.19.35.2.33.23.33.23.32.25.32.29.28.28.28.3.27.3.25.33.23.34.22.35.2.35.17.36.16.39.15.38.12.38.1.4.1.4v.4l.05.42v2.97l-.07 2.33-.12 2.4-.16 2.47-.2 2.53-.25 2.55-.29 2.58-.33 2.6-.37 2.59-.41 2.58-.47 2.53-.48 2.49-.29 1.26-.28 1.22-.28 1.2-.3 1.18-.32 1.17-.33 1.15-.34 1.13-.31.95v.25l-.05.25-.05.29-.13.93-.12 1.07-.1 1.2-.08 1.26-.15 2.59-.15 2.33-.09 1.13-.13 1.12-.1.52-.07.28-.06.27-.07.26-.05.17-.12.33-.11.32-.14.33-.15.32-.16.3-.17.3-.05.1-.22.32-.21.31-.24.3-.25.3-.26.29-.27.26-.3.25-.3.25-.3.24-.33.2-.32.2-.35.18-.36.16-.37.17-.37.13-.36.12-.39.1-.38.08-.38.07-.4.05h-1.57l-.4-.05-.38-.07-.36-.08-.39-.1-.36-.12-.37-.13-.35-.15-.35-.17-.33-.18-.34-.2-.33-.2-.3-.23-.3-.25-.29-.25-.26-.25-.25-.27-.25-.28-.24-.28-.21-.3-.21-.35-.22-.35-.18-.37-.17-.37-.08-.16-.12-.29-.1-.28-.1-.3-.15-.5-.15-.6-.08-.4-.07-.4-.05-.42v-2.03l.08-.4.08-.4.12-.4.13-.38.15-.39.12-.26v-.37l.16-2.68.1-1.49.14-1.51.15-1.54.21-1.48.15-.82.15-.78.22-.82.2-.71.32-1 .26-.87.27-.9.25-.93.25-1 .23-1 .24-1 .23-1 .43-2.19.4-2.23.37-2.3.33-2.32.3-2.31.27-2.34.22-2.3.18-2.26.13-2.2.1-2.12.07-2v-2.81l.05-.4.08-.4.08-.4.12-.4.13-.39.15-.38.17-.37.2-.36.2-.35.22-.35.25-.34.25-.31.26-.3.29-.3.3-.29.31-.25.34-.25.33-.23.35-.22.35-.2.37-.18.38-.17.38-.13.39-.13.4-.1.4-.09.4-.06h1.23z"/><path d="m489.6 554.8h2l1 .07 1 .08 1 .1 1 .14 1 .15 1 .18 1 .22 1 .25 1 .26 1 .32 1 .37.95.4.95.45.95.5.94.56.9.64.9.68.86.77.82.81.77.9.71 1 .67 1 .53 1 .5 1 .42.95.4.93.37.95.35 1 .31 1 .3 1 .27 1 .23 1 .22.95.18 1 .17 1 .13 1 .1 1 .09 1 .06.95v4.81l-.1.94-.1.91-.13.92-.17.92-.17.9-.2.9-.21.9-.24.88-.26.87-.27.86-.3.87-.32.85-.33.85-.35.83-.37.84-.38.81-.4.8-.42.8-.43.8-.43.79-.47.76-.48.77-.49.75-.5.75-.51.73-.54.74-.55.71-.55.7-.56.7-.59.69-.58.68-.62.67-.6.65-.63.65-.65.66-1.75.76-1.35 1.2-1.37 1.15-1.42 1.12-1.45 1.08-1.48 1-1.52 1-1.53.93-1.58.89-1.59.85-1.63.78-1.63.73-1.67.7-1.68.64-1.67.56-.9.29-.85.25-.88.23-.87.23-.87.2-.88.2-.88.19-.89.16-.88.15-.88.14-.9.11-.89.1-.9.09-.9.06h-5.4l-.9-.05-.91-.08-.9-.1-.9-.14-.9-.13-.9-.17-.89-.16-.9-.22-.88-.22-.9-.25-.88-.26-.87-.29-.88-.31-.87-.34-.87-.36-.85-.39-.85-.4-.85-.43-.83-.45-.82-.47-.81-.5-.72-.46-.65-.47-.6-.52-.53-.58-.5-.62-.42-.66-.37-.72-.28-.73-.23-.77-.14-.77-.08-.8v-.78l.08-.8.15-.77.24-.76.3-.74.36-.7.44-.66.48-.62.55-.58.6-.52.65-.45.68-.4.74-.33.75-.25.76-.19.79-.11h1.58l.78.12.77.18.75.27.73.33.69.4.51.34.45.28.45.25.45.25.47.23.45.22.47.22.48.18.48.2.49.17.48.16.5.15.5.14.52.13.51.12.52.1.52.1.53.08.53.07.55.06h.54l.55.05h3.4l.58-.05h.58l.59-.07.58-.08.6-.08.58-.1.6-.12.59-.12.6-.13.6-.13.6-.17.6-.17.58-.16.57-.19 1.23-.41 1.18-.45 1.19-.49 1.16-.53 1.17-.55 1.13-.62 1.14-.63 1.11-.67 1.09-.7 1.06-.75 1-.76 1-.79 1-.83.95-.85.95-.9.42-.42.43-.45.42-.45.41-.46.4-.45.4-.49.39-.46.38-.47.37-.48.35-.5.33-.49.33-.48.34-.5.3-.48.3-.5.28-.5.27-.5.26-.5.25-.52.24-.5.23-.52.2-.5.22-.51.18-.5.17-.52.16-.52.15-.5.21-.48.13-.52.12-.52.1-.5.08-.51.07-.5.06-.52.05-.52v-3.1l-.05-.51-.07-.52-.06-.53-.09-.52-.1-.52-.11-.53-.14-.53-.15-.54-.16-.55-.19-.53-.2-.55-.21-.55-.24-.55-.25-.55-.23-.47-.05-.11v-.05h-.05l-.09-.06-.11-.09-.17-.08-.18-.12-.24-.1-.28-.11-.32-.14-.36-.11-.4-.12-.44-.1-.48-.1-.5-.1-.55-.08-.57-.09-.6-.06h-.63l-.65-.05h-5.13l-1.59.08-1.61.13-1.65.15-1.67.17-1.67.2-1.66.22-1.64.21-3.25.45-3.06.44-1.49.21-1.45.17-1.38.17-1.35.11-1.33.09h-24.45l-4.59.06-4.75.12-4.86.15-5 .18-2.52.12-2.53.13-2.57.15-2.58.15-2.59.19-2.58.2-2.6.2-2.6.23-2.6.25-2.6.27-2.58.28-2.59.32-2.56.33-2.55.35-2.54.38-2.51.4-2.49.42-2.46.45-2.44.48-2.4.5-2.35.52-2.33.57-2.27.56-2.27.55-2.18.63-2.14.67-2.1.7-1 .35-1 .35-1 .38-1 .37-.95.38-.93.4-.93.39-.9.41-.89.4-.86.42-.84.42-.83.43-.82.43-.78.45-.77.44-.75.45-.73.46-.7.47-.68.47-.67.46-.63.49-.64.46-.6.5-.56.49-.55.48-.54.5-.51.5-.49.5-.46.52-.45.5-.42.51-.4.52-.22.28.05.09.15.26.19.32.21.33.27.37.3.38.33.4.37.44.4.45.43.45.47.46.48.47.54.48.53.49.57.48.58.48.62.5.61.49.62.46 1.35 1 1.35 1 1.4.91 1.4.9 1.42.85 1.38.82 1.38.75 1.32.72 1.28.65 1.2.56 1.14.52 1 .43.88.35.7.25.57.17h5.58l2.6-.07 2.84-.1 5.91-.2 3-.08h7.95l1.16.07 1.17.11 1.1.17.7.13.7.17.82.27.5.2.46.21.45.24.15.08.6.37.59.43.11.08.54.49.5.51.45.57.06.1.42.63.35.65.3.69.23.71v.1l.15.64.1.65.05.63v.65l-.05.65v.12l-.1.66-.16.67-.22.63-.27.64v.11l-.38.7-.43.65-.5.62-.55.57-.62.51-.65.45-.7.39-.72.31-.75.25-.78.19-.78.1h-.8l-.79-.05-.78-.11-.77-.2-.75-.29-.71-.33-.27-.17h-6.68l-2.78.07-5.85.2-2.88.1-2.74.08h-6.9l-1.07-.08-1.05-.17-.78-.17-.73-.2-1.24-.36-1.31-.49-1.37-.53-1.42-.6-1.46-.67-1.52-.73-1.57-.8-1.61-.85-1.65-.92-1.67-1-1.68-1-1.69-1.08-1.7-1.12-1.66-1.17-1.64-1.2-.83-.63-.82-.63-.8-.64-.78-.66-.78-.67-.75-.68-.75-.69-.74-.7-.71-.71-.7-.74-.69-.75-.66-.76-.64-.79-.61-.8-.6-.83-.57-.87-.53-.88-.52-.92-.47-1-.43-1-.38-1-.32-1.1-.27-1.13-.28-1.16-.08-1.23v-1.27l.11-1.18.12-.74.13-.65.17-.63.18-.63.24-.64.25-.61.28-.6.3-.6.33-.57.34-.53.66-1 .67-.92.7-.9.72-.87.73-.85.77-.83.78-.8.82-.8.81-.77.85-.75.87-.73.88-.72.9-.7.92-.68.95-.67.95-.65 1-.63 1-.62 1-.6 1-.58 1-.58 1-.55 1.06-.55 1.07-.54 1.07-.51 1.1-.52 1.1-.48 1.11-.49 1.14-.46 1.13-.47 1.15-.45 1.17-.43 1.18-.42 1.2-.43 2.37-.79 2.43-.76 2.48-.72 2.5-.68 2.54-.64 2.55-.58 2.59-.59 2.61-.55 2.64-.5 2.66-.5 2.67-.45 2.68-.43 2.7-.4 2.72-.37 2.72-.35 2.73-.33 2.72-.3 2.73-.28 2.72-.27 2.71-.23 2.72-.22 2.7-.2 2.68-.18 2.67-.17 2.67-.15 2.63-.15 2.62-.12 5.11-.2 5-.15 4.87-.11 4.68-.07h24.7l.95-.09 1.12-.13 1.25-.15 1.36-.18 3-.44 3.32-.46 1.75-.24 1.8-.23 1.83-.22 1.88-.18 1.9-.18 1.92-.15 1.93-.1 1.95-.07h1.92z"/><path d="m389.85 479.05h.5l.52.07.5.1.48.13.48.15.47.2.47.22.45.25.43.27.4.3.4.31.37.35.36.37.32.38.32.44.26.4.24.41.21.42.2.45.15.43.15.47.1.47.1.46v2.09l-.06.51-.1.52-.14.5-.15.5-.2.48-.21.49-.25.45-.15.4-.35 1-.4 1.18-.43 1.35-.47 1.45-.45 1.52-.37 1.56-.4 1.52-.35 1.45-.3 1.35-.1.55-.08.51-.07.47v3.45l-.07 2.77-.13 2.85-.18 2.86-.24 2.9-.26 2.92-.3 2.93-.35 2.94-.39 2.93-.41 2.92-.45 2.88-.47 2.87-.5 2.81-.53 2.77-.55 2.72-.54 2.48-.06.32v.3l-.27.43v5.28l.07 1.85.11 3.72.05 1.8v2.65l-.05.9-.11 1-.12.7-.1.42-.1.4-.1.35-.15.47-.18.46v.15l-.2.42-.22.42-.07.11-.21.37-.24.35-.25.35-.08.1-.27.32-.28.31-.3.3-.32.27-.06.08-.35.27-.35.27-.39.23-.38.22-.38.2h-.09l-.45.2-.46.17-.47.13-.47.12-.48.08h-.1l-.47.06h-2l-.48-.09-.48-.11-.47-.14-.55-.16-.11-.05-.45-.19-.44-.23-.43-.23-.12-.09-.31-.2-.3-.21-.29-.22-.13-.12-.3-.25-.3-.28-.35-.37-.58-.66-.5-.7-.3-.44-.27-.45-.23-.46-.22-.47-.17-.5-.15-.5-.11-.52-.09-.51-.05-.52v-1l.05-.52.09-.51.11-.52.14-.5.18-.5.2-.47.25-.46.27-.45.28-.44.17-.23-.12-3.45-.07-2v-6l.07-1 .1-1 .15-1 .18-.92.55-2.6.52-2.52.48-2.56.47-2.64.45-2.66.41-2.7.39-2.72.36-2.73.32-2.74.28-2.71.25-2.69.2-2.66.17-2.62.12-2.55.08-2.52v-3.35l.09-.93.1-.92.11-.9.15-.88.19-.93.38-1.77.43-1.83.49-1.82.51-1.8.52-1.75.53-1.65.5-1.55.49-1.4.43-1.23.42-1.09.4-1 .35-.71.25-.44.23-.36.25-.34.25-.33.28-.33.31-.35.35-.32.37-.3.38-.26.39-.27.41-.23.42-.2.43-.19.44-.16.5-.15.49-.12.51-.08.5-.05h.5zm24.42-1.7h.48l.47.07.48.08.45.13.47.14.45.18.43.2.42.22.41.25.4.26.39.3.35.32.35.33.35.39.28.35.27.38.26.38.22.4.22.42.18.42.15.43v.07l.13.45.12.45.08.45.08.56.07.92v2.32l-.06.48-.09.48-.13.49-.15.46-.17.47-.2.42-.06.71-.32 3.37-.27 3.43-.11 1.54-.07 1.35-.05 1v3.58l-.05 1.47-.06 1.43-.09 1.43-.1 1.44-.23 2.76-.28 2.72-.3 2.68-.32 2.65-.33 2.59-.32 2.55-.32 2.53-.28 2.48-.25 2.49-.22 2.46-.08 1.2-.07 1.22-.06 1.22-.05 1.21v4.04l-.06.78-.09.83-.18 1.57-.22 1.65-.26 1.65-.27 1.63-.5 3-.13.82.05.25.06.48.05.5v.98l-.05.49-.07.5-.1.48-.13.47-.15.46-.18.47-.25.58-.24.47-.2.37-.2.35-.11.18-.25.38-.29.37-.3.37-.05.05-.28.3-.3.3-.32.26-.33.27-.35.25-.42.26-.43.24-.44.21-.46.19-.47.15-.47.13-.48.1-.48.07h-1.99l-.49-.08-.48-.1-.47-.12-.46-.16-.47-.19-.43-.2-.44-.25-.41-.25-.4-.3-.39-.3-.35-.34-.33-.33-.32-.37-.3-.38-.28-.38-.24-.42-.23-.42-.2-.45-.18-.45-.14-.45v-.1l-.13-.48-.1-.48-.07-.49v-1.98l.13-1.15.17-1.23.43-2.65.52-3 .25-1.5.21-1.47.19-1.36.15-1.22.05-.48v-3.75l.05-1.43.06-1.42.09-1.42.1-1.4.23-2.73.28-2.7.3-2.67.32-2.61.33-2.59.32-2.56.32-2.54.28-2.5.25-2.5.22-2.5.08-1.23.08-1.23v-1.25l.05-1.24v-3.63l.07-1.37.1-1.53.12-1.7.28-3.62.33-3.58.17-1.67.17-1.48.18-1.32.2-1.18.1-.5.12-.43.15-.45.05-.15.16-.42.19-.42.2-.41.23-.39.23-.38.27-.39.3-.35.32-.35.33-.31.35-.3.37-.29.4-.26.38-.24.42-.21.41-.2.44-.17.45-.15.45-.12.47-.09.48-.08h.95zm26.58 3.52.5.05.48.08.49.12.46.15.47.16.45.2.43.22.44.25.41.28.39.3.38.32.35.35.33.35.32.38.28.4.27.42.25.43.2.45.2.45.15.47.13.48.1.49.09.48.05.5v6l.05 2.78.08 2.82.1 2.83.12 2.87.15 2.87.18 2.9.22 2.9.25 2.91.26 2.92.32 2.92.35 2.9.38 2.91.42 2.9.45 2.89.65 3.71.38 2.25.42 2.45.4 2.57.37 2.6.18 1.33.15 1.32.15 1.3.12 1.3.1 1.28.06 1.25v2.49l-.05 1.25-.1 1.18-.1.72-.12.68-.17.7-.2.77-.28.8-.23.53-.15.33-.19.35-.11.2-.22.4-.27.39-.11.18-.22.3-.23.28-.25.29-.14.15-.3.31-.31.29-.34.28-.15.12-.38.3-.42.26-.41.25-.17.09-.35.18-.37.17-.36.15-.39.13h-.16l-.39.12-.38.08-.38.07-.39.06h-2.31l-.42-.07-.43-.08h-.22l-.35-.1-.35-.1-.35-.12-.23-.08-.44-.17-.41-.18-.25-.14-.23-.14-.33-.19-.52-.33-.75-.53-.5-.4-.36-.32-.37-.35-.33-.37-.3-.38-.3-.4-.25-.42-.25-.43-.2-.45-.19-.45-.16-.48-.14-.47-.1-.48-.06-.5v-1.99l.08-.48.1-.49.13-.48.15-.47.19-.45.21-.45.25-.43.27-.42.28-.4.32-.38.33-.37.35-.33.37-.33.18-.14v-.28l-.08-1-.12-1.09-.13-1.11-.15-1.15-.35-2.39-.37-2.38-.4-2.32-.37-2.21-.66-3.82-.5-3.12-.45-3.11-.42-3.12-.37-3.12-.33-3.11-.28-3.1-.27-3.1-.22-3.07-.2-3.07-.16-3-.14-3-.1-3-.08-2.95v-9.12l.05-.48.06-.5.1-.49.14-.46.15-.47.18-.47.22-.45.15-.38.27-.42.28-.4.32-.38.33-.37.35-.35.37-.31.4-.3.4-.29.43-.25.43-.23.45-.2.47-.17.47-.15.48-.11.48-.09.49-.06h1zm20.5-5.27h.65l.48.07.48.08.47.12h.13l.4.12.42.15.4.15.12.07.35.16.33.17.32.18.13.09.4.26.38.29.14.1.3.26.3.27.38.37.53.6.52.65.63 1 .54 1 .45 1 .4 1 .35 1 .31 1 .32 1 .28 1 .29 1.1.28 1.14.27 1.18.26 1.25.5 2.53.5 2.7.49 2.85.46 3 .45 3 .45 3.14.44 3.18.41 3.23.42 3.24.38 3.25.75 6.35.69 6.06.61 5.6.55 4.94.49 4.11.2 1.64.18 1.35.15 1 .13.72.07.48.05.49v1.45l-.07.48-.1.48-.12.47-.15.45-.18.45-.2.45-.23.43-.25.4-.27.4-.3.39-.32.36-.35.35-.35.32-.38.3-.4.28-.42.27-.41.23-.44.2-.45.19-.46.15-.47.13-.47.1-.48.07h-1.96l-.5-.09-.48-.1-.47-.12-.45-.15-.45-.18-.45-.2-.43-.24-.4-.25-.4-.26-.38-.3-.37-.32-.35-.35-.32-.35-.3-.38-.28-.4-.27-.42-.23-.42-.2-.43-.18-.45-.15-.47-.14-.46-.1-.47-.18-1-.2-1.35-.2-1.55-.23-1.8-.49-4.2-.56-5-.62-5.6-.68-6-.74-6.29-.38-3.16-.4-3.17-.4-3.15-.42-3.1-.43-3-.43-2.91-.45-2.79-.45-2.65-.45-2.46-.45-2.29-.24-1-.21-1-.22-.91-.22-.84-.2-.73-.2-.67-.18-.53-.35-.33-.33-.35-.32-.39-.28-.38-.27-.4-.23-.43-.22-.44-.2-.43-.17-.47-.13-.46-.12-.47-.08-.48-.05-.47v-1.47l.07-.46.08-.49.1-.46.15-.47.17-.47.18-.43.22-.43.25-.42.26-.42.29-.38.31-.37.34-.35.35-.33.38-.32.38-.28.4-.27.44-.25.43-.21.43-.19.47-.16.45-.14.48-.11.47-.09.48-.05h.49zm-1.58 16.58.6.05-.49-.06-.38-.07z"/><path d="m459.68 356.52 1.74.05 1.71.08 1.72.13 1.68.15 1.67.2 1.65.25 1.63.29 1.6.33 1.6.38 1.54.44.81.25.77.26.77.27.75.28.76.3.75.32.74.35.63.3.35.18.35.2.15.09.52.35.5.38.13.12.38.33.35.37.14.13.28.32.25.31.33.44.45.7.39.66.3.64.28.65.38 1.05.34 1.1.26 1.06.25 1.1.2 1.1.19 1.12.16 1.13.17 1.17.13 1.17.14 1.21.2 2.37.23 2.4.13 2.31.12 2.19.08 2 .05 1.8v5.73l.06.87.17 2 .23 2.22.3 2.42.34 2.6.38 2.78.42 2.9.88 6.22.95 6.55.47 3.4.45 3.41.43 3.47.4 3.48.37 3.47.33 3.45.13 1.75.14 1.7.11 1.72.1 1.7.07 1.68.07 1.67.05 1.65v4.85l-.05 1.58-.07 1.57-.1 1.53-.13 1.52-.17 1.5-.2 1.48-.25 1.45-.26 1.43-.34 1.42-.36 1.38-.44 1.39-.46 1.28-.3.72-.29.66-.31.65-.32.65-.35.65-.38.64-.4.63-.44.62-.45.61-.48.6-.5.59-.53.55-.55.51-.55.5-.57.47-.57.45-.58.42-.58.4-.62.38-.6.37-.62.33-.66.37-1.22.58-1.28.55-1.32.52-1.33.46-1.37.42-1.38.38-1.42.35-1.43.32-1.47.3-1.48.27-1.5.23-1.54.22-1.55.18-1.56.17-1.59.15-1.6.13-1.61.12-1.65.1-1.65.08-1.65.07-1.69.05h-10.18l-3.42-.06-3.38-.12-3.37-.13-3.31-.15-3.27-.19-3.2-.18-6.08-.38-5.62-.37-5-.3-2.22-.13-2-.09-1.76-.05h-13.6l-1.62.07-1.62.08-1.6.1-1.56.13-1.59.15-1.55.2-1.56.22-1.55.25-1.62.3-9.68 1.9-.7.12-.7.05h-.72l-.7-.08-.68-.12-.6-.16-.66-.25-.64-.3-.61-.35-.59-.42-.53-.45-.27-.25-.21.35-.42.57-.47.53-.51.49-.55.45-.59.4-.61.33-.65.3-.67.23-.68.19-.69.11-.71.05h-1.34l-.6-.09-.37-.05-.36-.08-.59-.13-.91-.29-.87-.35-.8-.41-.75-.47-.68-.48-.62-.52-.55-.53-.5-.58-.45-.53-.42-.53-.43-.62-.58-1-.55-1.05-.47-1-.38-1-.34-1-.3-1-.25-1-.23-1-.18-1-.17-1-.15-1-.12-1-.1-1-.06-1-.07-.95v-5.3l.06-.81.09-.8.1-.8.11-.65.22-1.2.17-1.07.15-1.12.13-1.13.1-1.18.07-1.2.06-1.24v-6.52l-.07-1.37-.08-1.4-.1-1.43-.1-1.42-.27-2.95-.31-3-.35-3-.39-3.09-.81-6.3-.82-6.36-.4-3.22-.38-3.22-.34-3.21-.28-3.2-.12-1.64-.11-1.6-.09-1.6-.08-1.6v-6.33l.05-1.58.06-1.57.09-1.57.13-1.55.17-1.55.18-1.53.23-1.53.29-1.52.3-1.52.36-1.5.4-1.5.45-1.48.5-1.45.57-1.45.6-1.43.73-1.55.3-.52.22-.37.25-.35.17-.25.23-.3.25-.3.43-.5.7-.68.7-.6.7-.52.69-.45.7-.4.68-.36.67-.32.66-.28.67-.27.67-.25.71-.23 1.3-.39 1.37-.33 1.37-.3 1.4-.27 1.41-.23 1.44-.2 1.43-.17 1.45-.16 1.45-.14 1.45-.11 1.45-.1 1.42-.09 1.43-.06 2.72-.1 2.56-.07h8.59l1.11-.05 1.17-.05 1.22-.08 1.26-.1 1.3-.12 1.37-.15 1.4-.17 1.43-.18 1.45-.18 3.07-.45 3.18-.52 3.29-.55 3.38-.6 3.47-.62 7.16-1.31 3.65-.67 3.7-.67 3.74-.65 3.73-.63 3.77-.58 3.73-.55 1.88-.27 1.87-.25 1.87-.22 1.86-.21 1.85-.2 1.85-.17 1.84-.17 1.81-.13 1.82-.12 1.8-.08 1.8-.07h3.53zm-3.3 16.65h-1.51l-1.55.05-1.59.08-1.61.1-1.64.12-1.65.15-1.68.15-1.7.18-1.72.2-1.73.22-1.75.22-1.75.25-3.57.51-3.6.57-3.61.62-3.64.63-3.63.65-3.62.65-7.16 1.32-3.54.65-3.48.6-3.42.58-3.35.53-3.26.49-1.62.21-1.6.2-1.57.19-1.53.16-1.52.14-1.5.13-1.48.08-1.45.09h-10.05l-2.37.05-2.5.1-1.25.06-1.28.07-1.27.08-1.25.12-1.23.1-1.2.13-1.15.15-1.12.15-1 .17-1 .18-.89.2-.76.19-.72.21h-.17l-.08.22-.35.88-.3.92-.3.95-.27 1-.23 1-.22 1.05-.2 1.08-.16 1.12-.15 1.15-.12 1.17-.1 1.21-.08 1.24-.05 1.26v6.69l.07 1.41.08 1.42.1 1.43.12 1.45.26 3 .32 3 .35 3.06.38 3.09.82 6.31.82 6.35.4 3.2.36 3.2.34 3.2.28 3.19.13 1.6.1 1.58.1 1.58.07 1.59.05 1.58v4.68l-.05 1.55-.06 1.55-.1 1.54-.14 1.53-.16 1.52-.2 1.51-.24 1.5-.25 1.35v5.17l.05.65.07.65.08.65.09.62.1.6.11.58.12.53.12.49.1.33h.06l.62.35.58.4.55.45.37.33.3-.47.42-.55.48-.53.52-.48.56-.44.59-.38.63-.33.65-.29.67-.21.68-.17 9.7-1.71 1.88-.35 1.94-.31 1.91-.27 1.89-.23 1.88-.19 1.87-.15 1.85-.11 1.83-.1 1.83-.07 1.82-.05h12.68l2 .06 2.2.1 2.35.12 5.1.32 5.61.36 6 .39 3.1.18 3.18.17 3.2.15 3.25.13 3.23.1 3.24.07h9.56l1.53-.05 1.5-.05 1.48-.08 1.45-.09 1.44-.1 1.4-.11 1.36-.12 1.34-.15 1.28-.17 1.25-.16 1.22-.2 1.15-.2 1.1-.22 1.06-.23 1-.25.93-.27.88-.27.8-.28.73-.32.67-.28.61-.32.22-.1.23-.13.27-.17.18-.14.18-.11.15-.12.14-.1.11-.1.1-.08.07-.07.05-.05.05-.07.07-.06.06-.1.09-.12.08-.13.1-.15.1-.19.1-.2.1-.23.12-.25.08-.22.23-.66.22-.69.22-.76.18-.85.18-.9.17-1 .13-1.05.12-1.1.12-1.16.06-1.22.07-1.25v-6.92l-.07-1.48-.07-1.52-.08-1.53-.12-1.57-.11-1.58-.14-1.58-.3-3.27-.35-3.28-.38-3.32-.42-3.33-.43-3.34-.47-3.3-.91-6.5-.9-6.21-.44-3-.38-2.87-.37-2.75-.31-2.61-.25-2.49-.2-2.31-.09-1.14-.05-1.1v-5.07l-.05-1.67-.07-1.86-.1-2-.13-2.12-.15-2.11-.2-2.12-.1-1-.12-.95-.12-.92-.13-.85-.12-.78-.06-.3-.44-.12-.45-.15-1-.28-1.05-.25-1.1-.24-1.15-.2-1.18-.16-1.25-.15-1.3-.14-1.33-.08-1.39-.08h-4.35zm-108.21 111.18h-.24z"/><path d="m422.05 401.57 1.3.05 1.22.11.71.09.67.11.68.14.74.18.76.25.84.32.51.26.39.2.38.22.18.12.3.18.29.2.26.22.17.13.25.22.25.21.25.25.22.25.13.14.25.3.25.31.23.34.2.33.1.15.19.32.16.33.07.17.88.26 1.14.39 1.08.43 1.08.45 1 .48 1 .52 1 .55.95.6.91.62.89.65.85.7.81.71.79.75.73.79.68.8.67.85.6.85.57.88.53.9.47.92.43 1 .4.93.33 1 .3 1 .25 1 .22 1 .18 1 .14 1 .08 1 .07 1v1.93l-.05 1-.09 1-.11.95-.15 1-.17.95-.2.93-.23.93-.25.94-.29.9-.3.91-.33.9-.35.9-.38.89-.4.88-.42.87-.43.85-.47.85-.48.85-.5.83-.54.82-.53.81-.57.8-.58.8-.6.79-.62.76-.63.77-.65.73-.67.74-.7.73-.7.7-.71.7-.75.68-.75.67-.77.65-.78.65-.8.62-.82.6-.83.58-.85.58-.87.55-.88.54-.89.51-.91.49-.92.48-.95.45-.95.42-.95.41-1 .39-1 .35-1 .33-1 .3-1 .28-1 .25-1.05.22-1.06.18-1.07.17-1.08.13-1.1.09-1.09.06h-3.35l-1.11-.08-1.14-.12-1.13-.15-1.13-.2-1.14-.23-1.13-.27-1.13-.32-1.14-.36-1.11-.39-1.12-.45-1.12-.46-1.11-.54-1.1-.55-1.1-.6-1.09-.65-1.06-.68-1.07-.72-1.07-.76-1-.8-1-.85-1-.89-1-.93-1-1-.7-.73-.68-.83-.62-.85-.57-.89-.51-.9-.44-.91-.4-.92-.33-.93-.28-.94-.25-.91-.2-.94-.15-.93-.12-.92-.08-.91-.05-.9v-2.69l.05-.88.08-.87.12-.88.12-.87.15-.85.15-.86.18-.85.18-.84.22-.83.23-.88.47-1.62.53-1.62.57-1.6.62-1.56.65-1.55.66-1.5.7-1.47.7-1.42.74-1.38.75-1.33.75-1.27.75-1.22.76-1.16.77-1.12.78-1.05.79-1 .81-.93.85-.9.64-.62.66-.55.65-.5.67-.47.67-.41.66-.4.69-.37.68-.35.68-.32.72-.33 1.35-.53 1.42-.52 1.43-.45 1.45-.43 1.45-.37 1.47-.35 1.48-.3 1.47-.27 1.45-.21 1.45-.2 1.41-.15 1.4-.14 1.37-.08h1.33zm-10.18 17.91-1 .27-1 .28-.9.3-.85.3-.78.32-.29.13-.28.14-.27.13-.21.12-.19.11-.13.09-.1.06-.21.24-.34.38-.4.52-.46.63-.52.73-.52.8-.55.89-.56.95-.55 1-.57 1.05-.55 1.1-.53 1.11-.5 1.15-.49 1.17-.46 1.17-.42 1.16-.38 1.15-.34 1.19-.15.51-.13.55-.12.55-.11.54-.1.51-.09.5-.06.49-.05.48-.05.45v2.23l.05.29v.26l.05.22.05.18.05.17v.13l.05.12.07.15.08.12.08.08.62.6.67.6.65.58.65.54.66.5.64.46.65.44.63.41.63.37.62.35.63.32.6.28.62.27.62.23.6.2.58.2.6.17.6.13.58.13.59.1.58.09.58.05.59.05h2.31l.59-.05.58-.07.58-.1.57-.1.58-.11.59-.14.56-.16.59-.17.56-.18.59-.22.56-.22.57-.25.57-.25.56-.26.55-.29.55-.3.55-.31.55-.34.54-.35.53-.35.53-.36.52-.4.52-.39.5-.41.48-.42.5-.43.47-.44.46-.45.45-.45.45-.46.44-.47.41-.48.4-.5.4-.49.39-.5.36-.5.35-.5.34-.51.33-.5.3-.52.3-.52.28-.5.25-.51.25-.5.24-.52.21-.5.19-.5.18-.48.17-.49.15-.48.13-.47.1-.46.1-.45.08-.45.07-.42.05-.42v-2.25l-.05-.31-.05-.32-.07-.3-.06-.28-.1-.29-.09-.26-.11-.25-.1-.25-.14-.24-.13-.23-.15-.23-.17-.24-.09-.2-.18-.23-.22-.22-.25-.23-.25-.24-.28-.23-.32-.23-.35-.24-.37-.23-.41-.23-.45-.22-.47-.23-.53-.22-.55-.22-.6-.2-.64-.2-.68-.18-.73-.18-.77-.15-.8-.15-.85-.14-.9-.11-1-.09-1-.08-1-.05h-3.15l-.41-.07-.42-.08-.42-.1-.41-.12-.4-.15-.4-.16-.39-.19-.38-.21-.37-.22-.35-.25-.33-.25-.33-.28-.32-.3-.28-.3-.29-.34zm233.56-183.11 1 .18 1 .3.95.43.88.55.82.65.73.77.62.83.51.92.4 1 .29 1 .13 1v1.05l-.12 1-.25 1-.37 1-.48.94-.62.85-.7.76-.8.69-.86.56-1 .47-1 .33-1 .22-1 .07h-.56l-.7.07-.74.08-.78.14-.87.16-.91.22-1 .27-1 .3-1.06.35-1.12.38-1.15.43-1.18.49-1.24.51-1.25.55-1.28.59-1.32.61-1.33.67-1.35.7-1.38.72-1.4.75-1.42.78-1.43.82-1.45.83-1.47.85-1.47.88-1.46.9-3 1.87-3 1.92-3 2-3 2-3 2.07-3 2.08-2.95 2.09-2.91 2.1-2.85 2.08-2.8 2.05-2.72 2-5.2 3.9-4.81 3.7-4.3 3.27-3.78 2.88-2.62 1.95-2.62 2-2.63 1.92-2.65 1.91-2.65 1.92-2.67 1.9-2.68 1.88-2.68 1.89-2.7 1.86-2.7 1.85-2.72 1.85-2.73 1.85-2.74 1.84-2.75 1.81-5.51 3.57-5.55 3.58-5.57 3.55-5.62 3.5-5.63 3.49-5.67 3.43-5.7 3.42-5.7 3.38-5.73 3.33-5.7 3.32-5.77 3.28-5.78 3.27-5.8 3.22-5.8 3.2-5.85 3.11-5.81 3.14-5.84 3.11-5.83 3.09-5.83 3.05-5.84 3-5.83 3-5.82 3-5.83 3-5.8 2.93-5.77 2.89-.56.28-.59.32-1.45.8-1.68 1-1.92 1.15-2.11 1.28-2.29 1.4-5.05 3.17-11.4 7.18-6.06 3.8-3.1 1.92-3.09 1.92-3.08 1.88-3 1.83-3 1.8-2.95 1.72-2.9 1.65-2.8 1.57-2.7 1.46-1.33.7-1.3.65-1.27.64-1.23.6-1.22.56-1.18.54-1.15.5-1.13.46-1.12.44-1.1.38-1.08.35-1.12.3-1.13.25-1.19.2-1.18.1h-1.52l-.82-.09-.87-.15-.53-.13-.75-.23-.18-.07-1-.42-.9-.53-.83-.63-.74-.74-.65-.83-.53-.9-.42-1-.3-1-.16-1v-1l.1-1.05.22-1 .37-1 .46-.94.59-.86.7-.8.78-.69.85-.6.93-.46 1-.37 1-.23 1-.1h1.05l.5.08.43-.11.54-.19.65-.21.71-.29.82-.33.88-.38.94-.42 1-.47 1.05-.51 1.11-.55 1.15-.59 1.17-.61 2.52-1.37 2.63-1.47 2.73-1.56 2.85-1.65 2.9-1.74 3-1.78 3-1.85 3-1.87 3-1.88 6-3.78 11.41-7.19 5.12-3.2 2.37-1.46 2.21-1.35 2.07-1.24 1.9-1.1 1.72-.95.83-.45.75-.38 5.8-2.92 5.78-2.9 5.77-2.95 5.78-2.95 5.79-3 5.78-3 5.78-3 5.79-3.07 5.76-3.07 5.77-3.11 5.75-3.14 5.73-3.15 5.74-3.18 5.7-3.22 5.7-3.23 5.66-3.28 5.65-3.29 5.64-3.33 5.6-3.37 5.56-3.38 5.55-3.42 5.52-3.45 5.48-3.48 5.45-3.52 5.42-3.56 2.7-1.77 2.67-1.8 2.68-1.8 2.67-1.82 2.65-1.81 2.63-1.84 2.63-1.83 2.62-1.85 2.6-1.87 2.6-1.86 2.58-1.87 2.57-1.88 2.57-1.89 2.55-1.9 3.68-2.78 4.28-3.27 4.84-3.66 5.38-3.95 2.78-2.07 2.87-2.1 2.93-2.13 3-2.15 3-2.17 3.1-2.17 3.14-2.13 3.15-2.12 3.16-2.08 3.19-2 3.15-2 1.6-1 1.58-1 1.58-.94 1.59-.9 1.56-.88 1.57-.87 1.55-.83 1.55-.82 1.53-.78 1.54-.75 1.51-.73 1.52-.69 1.5-.66 1.48-.64 1.49-.58 1.48-.55 1.45-.52 1.45-.48 1.45-.43 1.45-.39 1.43-.33 1.44-.28 1.41-.24 1.44-.18 1.38-.1h1.38zm-339.21 199.33-.19-.07-.36-.08z"/><path d="m580.5 154 .88.14.82.18.77.23.7.25.66.29.62.3.58.31.6.35 1 .62.95.7.9.73.85.74.82.75.78.78.77.78.73.8.72.8.71.82.7.82 1.3 1.56 1.22 1.54 1.13 1.43 1 1.27.85 1.05.69.8.16.2.2.21 1 1 1.2 1.27 1.35 1.46 1.47 1.62 1.61 1.8 1.74 2 1.83 2.08 1.92 2.24 2 2.33 2.07 2.43 2.13 2.54 2.17 2.61 2.2 2.67 2.22 2.72 2.21 2.75 2.2 2.76 2.19 2.79 2.15 2.78 2.03 2.7 2 2.72 1.95 2.68 1.89 2.63 1.75 2.55.85 1.25.81 1.24.79 1.21.76 1.19.72 1.16.68 1.15.65 1.14.62 1.1.58 1.08.54 1.07.51 1.06.45 1.05.44 1.05.38 1.07.33 1.12.29 1.18.18 1.18.07.77v1.57l-.18 1.08-.32 1-.45 1-.56.92-.7.85-.8.73-.89.64-1 .51-1 .39-1.07.25-1.08.1h-1.08l-1.09-.18-1-.32-1-.45-.92-.58-.85-.68-.73-.8-.63-.89-.52-1-.38-1-.25-1.07-.09-.83v-.07l-.08-.23-.13-.37-.19-.48-.25-.57-.31-.66-.37-.72-.43-.8-.47-.85-.53-.9-.57-.95-.6-1-.67-1-.68-1.07-.73-1.1-.77-1.13-1.63-2.37-1.75-2.45-1.85-2.53-1.94-2.64-2-2.64-2.06-2.68-2.14-2.68-2.13-2.69-2.15-2.68-2.15-2.63-2.15-2.6-2.12-2.55-2.1-2.45-2-2.4-2-2.27-1.87-2.17-1.76-2-1.67-1.87-1.48-1.69-1.4-1.53-1.24-1.32-1.05-1.15-.93-1-.45-.49-.53-.6-1-1.13-1-1.25-1-1.32-1.1-1.38-1.12-1.38-1.15-1.39-.55-.65-.55-.63-.55-.62-.53-.56-.5-.54-.49-.46-.18-.17-3.85 1.93-6.8 3.49-6.78 3.51-6.77 3.64-6.7 3.6-6.75 3.65-6.73 3.68-6.72 3.72-6.8 3.77-6.7 3.78-6.65 3.8-6.7 3.85-6.68 3.89-6.67 3.91-6.67 3.95-6.66 4-6.67 4-6.65 4-6.67 4.05-6.65 4-6.63 4.12-6.65 4.1-13.35 8.21-13.31 8.29-13.32 8.31-26.72 16.7-1.45.9-1.5.9-1.5.9-1.53.89-1.55.88-1.57.88-3.15 1.72-3.21 1.72-3.19 1.68-3.3 1.67-3.34 1.66-3.36 1.67-3.39 1.65-6.8 3.28-6.8 3.3-3.38 1.67-3.37 1.67-3.35 1.66-3.3 1.7-3.28 1.72-3.22 1.72-3.21 1.78-1.55.88-1.55.88-1.52.9-1.51.9-1.49.9-1.48.9-1.45.92-1.43.93-1.4.94-1.39.93-1.36.93-1.34.95-1.31 1-1.29 1-1.25 1-1.23 1-1.2 1-1.17 1-1.13 1-1.1 1-1.08 1-.14.13v1.37l.06.7.12.78.13.87.19.93.2 1 .25 1 .28 1.1.3 1.15.35 1.18.37 1.24.4 1.26.41 1.3.45 1.34.49 1.35.48 1.38.52 1.4 1.08 2.87 1.15 2.93 1.22 3 1.23 3 1.27 3 1.3 3 1.32 2.76 2.57 5.74 2.45 5.4 2.23 4.95 1 2.28.93 2.12.85 2 .75 1.8.63 1.64.3.8.2.58.19.5.21.48.29.64.38.71.43.82.5.87.54.93.58.95 1.28 2 1.34 2.07 2.7 4.07 1.25 1.91 1.13 1.79.53.86.49.85.46.87.47 1 .28.71.25.72.05.18.19.75v.15l.1.64v1.7l-.13.95v.1l-.25.95-.35.91-.45.87v.07l-.53.78-.62.72-.7.63-.75.55-.06.05-1 .55-1.05.4-1.1.27h-.09l-1.13.12-1.13-.05h-.12l-.7-.1-.7-.16h-.15l-.88-.3-.47-.2-.72-.35-.65-.38-.78-.5-.87-.65-.78-.77-.67-.86-.56-.94-.42-1-.3-1-.15-1.08v-1.13l-.83-1.29-2.72-4.11-1.45-2.22-1.4-2.23-.71-1.17-.67-1.13-.63-1.14-.62-1.13-.58-1.13-.55-1.15-.5-1.17-.39-1-.2-.57-.16-.5-.52-1.3-.65-1.55-.78-1.81-.89-2-1-2.2-2.22-5.13-2.45-5.43-2.6-5.82-1.34-3-1.31-3.07-1.32-3.1-1.3-3.1-1.27-3.12-1.21-3.1-1.12-3.09-.57-1.54-.53-1.51-.53-1.5-.5-1.49-.49-1.46-.45-1.45-.43-1.44-.4-1.41-.38-1.4-.35-1.39-.32-1.36-.28-1.34-.25-1.33-.22-1.3-.17-1.3-.13-1.3-.08-1.28v-2.52l.05-.72.09-.66.08-.69.12-.66.16-.69.19-.7.21-.71.27-.72.32-.72.36-.73.44-.72.5-.71.55-.7.53-.59 1.37-1.33 1.3-1.22 1.31-1.21 1.35-1.19 1.39-1.16 1.4-1.15 1.41-1.14 1.45-1.11 1.47-1.12 1.48-1.08 1.5-1.07 1.54-1.05 1.53-1.05 1.57-1 1.56-1 1.59-1 1.6-1 1.61-1 1.64-1 1.65-.95 1.65-.95 1.66-.95 3.35-1.84 3.39-1.81 3.4-1.79 3.43-1.75 3.43-1.73 3.45-1.72 3.45-1.68 6.84-3.32 6.78-3.28 3.33-1.62 3.3-1.63 3.24-1.62 3.18-1.61 3.13-1.62 3-1.62 3-1.63 1.43-.82 1.43-.81 1.42-.82 1.38-.82 1.37-.81 1.35-.84 26.67-16.68 13.35-8.33 13.33-8.3 13.33-8.24 6.69-4.11 6.68-4.09 6.68-4.08 6.69-4.05 6.7-4 6.7-4 6.7-4 6.71-4 6.74-4 6.73-3.91 6.75-3.89 6.75-3.86 6.77-3.84 6.78-3.78 6.78-3.77 6.82-3.71 6.82-3.7 6.83-3.65 6.85-3.6 6.87-3.57 6.88-3.53 7.08-3.57.42-.18.83-.32.24-.07.81-.21.25-.05.82-.12h1.65z"/><path d="m596.1 112.83h1.17l1.15.06 1.16.1 1.15.12 1.14.15 1.13.18 1.13.2 1.12.22 1.12.25 1.11.28 1.1.29 1.1.31 1.09.35 1.06.37 1.09.38 1.05.4 1.03.51 1 .45 1 .46 1 .49 1 .5 1 .51 1 .55 1 .55 1 .59 1 .58 1 .6 1 .63 1 .64 1 .65.93.66.94.69.91.7.92.71.92.72.9.73.88.75.88.77.89.78.86.79.89.81 1.66 1.6 1.67 1.69 1.63 1.7 1.6 1.75 1.59 1.8 1.53 1.81 1.52 1.85 1.46 1.89 1.45 1.9 1.42 1.93 1.38 2 1.35 2 1.32 2 1.28 2 1.25 2 1.22 2.05 1.18 2.05 1.15 2 1.12 2.06 1.08 2.09 1.05 2.06 1 2.09 1 2.06.93 2.07.9 2.07.87 2.05.83 2 .8 2 .75 2 .72 2 .66 2 .64 2 .6 2 .55 1.93.51 1.92.47 1.88.43 1.87.35 1.68v.15l.17.57.27.78.36 1 .45 1.17.54 1.33 1.23 3.07 1.38 3.43 1.47 3.74.77 2 .75 2 .75 2 .71 2.05.7 2.06.67 2.07.62 2.07.56 2 .27 1 .25 1 .23 1 .22 1 .18 1 .19 1 .15 1 .11 1 .1 1 .07 1v2l-.05 1-.06 1.35-.17 1.08-.25 1.1-.33 1.14-.32.8-.13.35-.17.35-.36.73-.4.67-.39.56-.43.59-.47.55-.51.51-.54.52-.6.48-.61.44-.65.4-.62.33-.82.38-.78.34-.78.3-.8.26-.79.22-.78.18-.8.17-.78.12-.77.1-.77.06-.76.05h-2.22l-.73-.05-.75-.06-1.35-.17-1.35-.22-1.32-.28-1.28-.3-1.25-.33-1.22-.37-1.18-.38-1.17-.39-2.18-.78-2.09-.77-2-.73-.9-.32-.87-.3-.83-.26-.77-.22-.71-.2-.64-.15-.58-.12-.55-.06h-1.45l-.65-.1-.65-.13-.62-.18-.61-.25-.59-.29-.56-.31-.54-.39-.51-.41-.47-.45-.43-.49-.4-.51-.35-.55-.32-.59-.27-.6-.21-.61-.17-.64-.12-.63-.06-.65v-.67l.05-.65.08-.65.14-.63.18-.63.25-.6.28-.6.32-.57.38-.53.42-.5.45-.49.48-.43.52-.4.55-.35.58-.3.6-.27.62-.21.63-.17.64-.12.66-.06h1.9l.69.05.71.08 1.24.19 1.25.23 1.21.28 1.19.32 1.16.35 1.12.37 1.12.36 1.08.39 2.1.67 2 .75 2 .7.9.3.88.29.87.26.83.22.78.18.74.15.68.12.68.08h1.02v-.48l-.07-.57-.1-.61-.12-.67-.13-.68-.15-.74-.17-.76-.2-.77-.2-.8-.46-1.7-.54-1.75-.58-1.8-.62-1.83-.65-1.87-.68-1.87-.7-1.86-.72-1.84-1.43-3.61-1.37-3.4-1.25-3.12-.56-1.45-.54-1.35-.46-1.27-.42-1.21-.35-1.12-.17-.68-.13-.54-.35-1.65-.35-1.55-.4-1.6-.51-1.6-.49-1.67-.51-1.7-.55-1.73-.6-1.75-.64-1.78-.66-1.79-.72-1.81-.73-1.84-.79-1.85-.8-1.85-.85-1.85-.88-1.86-.9-1.87-.95-1.88-1-1.85-1-1.87-1-1.85-1.06-1.85-1.09-1.83-1.11-1.82-1.15-1.8-1.19-1.78-1.2-1.75-1.21-1.74-1.25-1.71-1.29-1.67-1.28-1.65-1.32-1.62-1.33-1.58-1.37-1.55-1.36-1.5-1.4-1.45-1.4-1.42-1.45-1.38-.7-.65-.72-.65-.72-.65-.73-.62-.73-.61-.74-.6-.73-.59-.73-.58-.75-.55-.74-.55-.75-.53-.75-.5-.75-.5-.75-.49-.75-.48-.75-.45-.75-.43-.75-.42-.76-.42-.75-.38-.77-.37-.75-.36-.75-.34-.77-.33-.75-.3-.76-.28-.75-.29-.77-.25-.75-.23-.77-.23-.75-.2-.76-.19-.75-.16-.77-.15-.77-.14-.75-.11-.76-.1-.77-.09-.75-.06h-4.62l-.76.06-.79.1-.78.1-.78.12-.8.15-.79.17-.78.2-.32.06-.26.09-.25.08-.25.1-.2.08-.2.09-.19.08-.16.08-.15.1-.14.09-.13.08-.12.08-.1.09-.1.08-.1.08-.08.09-.08.08-.09.1-.06.1-.09.08-.06.12-.09.12-.06.11-.09.14-.06.13-.07.15-.07.15-.05.12-.15.43-.13.42-.1.46-.1.5-.08.57-.07.6v3.55l.07.8.08.83.1.85.13.87.14.87.16.9.19.9.18.91.2.89.47 1.86.48 1.85.5 1.82.53 1.8.52 1.75 1 3.35.46 1.58.44 1.54.36 1.45.17.78.15.75.13.78.1.85v2.84l-.08.58-.13.6-.07.25-.18.58-.24.57v.12l-.22.43-.23.43v.1l-.32.5-.35.49-.06.06-.44.5-.45.47-.08.07-.5.41-.52.39-.56.35-.59.28-.6.25-.61.22-.65.15-.64.1-.66.05h-.65l-.65-.05-.65-.12-.64-.15-.69-.2-.6-.25-.59-.3-.56-.33-.54-.4-.48-.42-.47-.47-.43-.5-.38-.51-.34-.57-.3-.58-.31-.67-.2-.64-.15-.63-.1-.65-.05-.65v-.65l.05-.65.1-.65v-.1l-.27-1-.33-1.22-.42-1.41-1-3.3-.55-1.84-.57-1.95-.56-2-.57-2.12-.52-2.16-.26-1.14-.24-1.13-.21-1.13-.22-1.15-.18-1.17-.19-1.18-.15-1.19-.11-1.2-.1-1.2-.07-1.2v-3.68l.08-1.25.14-1.23.18-1.27.25-1.25.3-1.27.38-1.26.42-1.2.28-.67.29-.63.28-.62.32-.62.35-.6.36-.6.39-.6.41-.58.44-.58.46-.55.49-.55.5-.54.53-.51.55-.5.57-.49.58-.46.62-.45.63-.42.63-.4.67-.37.68-.36.69-.34.71-.31.72-.29.73-.26.74-.25.75-.22.76-.2 1.2-.28 1.19-.27 1.2-.22 1.18-.18 1.18-.17 1.19-.13 1.18-.1 1.18-.07h3.52zm-21.3 51.55-.22.29.17-.2.45-.45z"/><path d="m674.83 51.18.54.07.53.08.52.14.51.16.5.19.49.21.46.27.45.28.44.3.41.35.39.37.36.38.35.42.3.43.3.45.25.47.22.48.2.5.17.5.11.52.1.53.07.54v1.63l-.05.37-.06.53-.2.87-.25.8-.3.75-.2.43-.2.35-.2.37-.22.33-.23.38-.27.37-.27.35-.23.28-.25.29-.52.56-.78.72-.75.62-.75.56-.75.5-.73.45-.72.44-.73.4-.75.38-1.37.68-1.38.62-1.32.57-2.32 1-.93.4-.7.3-.38.2-1.69 1.05-1.83 1.18-3.63 2.33-3.69 2.3-3.7 2.25-3.68 2.25-3.7 2.22-7.37 4.42-3.63 2.21-3.62 2.22-3.55 2.25-1.77 1.12-1.76 1.13-1.74 1.14-1.73 1.15-1.72 1.15-1.7 1.16-1.68 1.15-1.65 1.18-1.65 1.19-1.6 1.2-1.37 1.05-2.33 1.83-1.38 1.1-1.52 1.22-1.5 1.25-1.5 1.28-1.41 1.25-1.32 1.22-.55.53-.52.5-.43.47-.14.5-.18.5-.22.5-.25.47-.28.47-.3.43-.33.42-.35.4-.39.36-.41.35-.42.32-.45.3-.47.25-.48.23-.5.2-.5.19-.52.13-.51.1-.54.07h-1.6l-.53-.07-.53-.1-.52-.13-.5-.17-.5-.2-.48-.23-.47-.25-.4-.31-.44-.32-.41-.35-.39-.37-.35-.4-.08-.08-.33-.42-.3-.43-.29-.45-.25-.47v-.11l-.2-.45-.18-.49-.15-.48-.12-.48v-.12l-.07-.42-.05-.4v-1.86l.05-.44v-.15l.1-.51.12-.5.05-.15.12-.39.13-.38.18-.47.39-.8.58-1 .67-.94.63-.81.67-.79.68-.73.72-.73.73-.74.78-.75 1.57-1.45 1.65-1.45 1.67-1.43 1.66-1.4 1.6-1.3 1.5-1.22 2.36-1.94 1.55-1.18 1.78-1.32 1.78-1.28 1.79-1.28 1.8-1.25 1.81-1.25 1.82-1.22 1.83-1.22 1.84-1.18 1.83-1.18 1.87-1.19 3.68-2.3 3.72-2.28 3.71-2.25 7.39-4.43 3.66-2.2 3.64-2.2 3.6-2.22 3.55-2.22 3.5-2.23 1.71-1.12 1.85-1.21.55-.35.67-.37 1.07-.5 1.1-.5 1.1-.46 2.25-.94 1.09-.46 1-.47 1-.48.38-.2.37-.2.26-.15v-.1l.23-.49.28-.45.29-.45.33-.41.35-.4.38-.39.4-.35.42-.33.45-.3.45-.27.48-.25.49-.2.51-.18.5-.13.54-.12.51-.08h1.6zm-81.3 67.14v-.17zm-1.15-2.14.3.44.2.33-.21-.47-.62-.71zm199.62 76.5.57.07.57.12.55.15.53.2.52.21.5.27.5.28.46.34.44.36.41.39.4.41.35.44.34.46.3.49.26.5.22.51.2.55.15.54.12.56.08.57v1.7l-.07.57-.11.55-.15.55-.14.53-.23.53-.25.5-.3.49-.33.46-.35.45-.39.42-.41.38-.45.37-.45.33-.5.3-.5.25-.52.24-.53.2-.55.15-.55.11-.57.09h-1.27l-.33.06-.43.12-.5.15-.59.2-.63.23-.7.29-.75.31-.78.35-.84.39-.86.43-.9.47-.94.48-1 .53-1 .55-1 .57-2.12 1.25-2.18 1.33-2.25 1.42-2.3 1.48-2.35 1.55-2.37 1.6-2.38 1.64-2.4 1.66-2.4 1.69-2.37 1.7-2.35 1.68-4.6 3.35-4.38 3.2-4.09 3-3.71 2.72-1.7 1.33-1.6 1.15-1.48 1-1.35.93-2.85 1.92-2.89 1.83-2.91 1.82-2.92 1.78-2.92 1.77-2.9 1.73-5.73 3.44-.57.31-.68.37-1.48.78-1.67.89-1.68.9-1.52.83-.52.3-.1.1-.41.4-.45.35-.47.33-.48.29-.52.26-.52.22-.53.2-.5.1-.55.12-.57.06h-1.71l-.55-.08-.62-.1-.55-.15-.53-.2-.52-.23-.5-.25-.48-.3-.47-.33-.45-.37-.4-.38-.4-.42-.35-.45-.3-.43-.26-.43-.25-.45-.22-.47-.18-.48-.15-.5-.14-.5-.1-.55-.06-.53v-1.1l.05-.54.08-.55.12-.53.15-.52v-.08l.2-.53.21-.5.27-.5.28-.47.32-.47.07-.08.26-.33.3-.38.3-.3.11-.11.35-.32.37-.28.58-.47.9-.6.85-.52.87-.5 1.78-1 1.84-1 1.68-.88 1.37-.72.41-.25.29-.15 5.61-3.35 2.87-1.71 2.85-1.72 2.82-1.73 2.78-1.74 2.72-1.73 2.65-1.73 1.15-.79 1.33-.93 1.5-1.07 1.63-1.16 3.65-2.67 4.09-3 4.41-3.22 4.65-3.4 2.42-1.71 2.45-1.75 2.45-1.74 2.48-1.73 2.5-1.7 2.49-1.68 2.48-1.64 2.45-1.58 2.43-1.53 2.4-1.47 2.34-1.37 1.16-.68 1.15-.63 1.15-.62 1.12-.58 1.12-.54 1.1-.55 1.08-.52 1.08-.48 1.07-.45 1.07-.42 1.06-.4 1.05-.35 1.07-.33 1.08-.27 1.09-.25 1.13-.18 1.17-.12h1.45z"/><path d="m714 0 1.83.07 1.82.12 1.8.16 1.8.2 1.78.25 1.77.29 1.76.31 1.74.37 1.73.4 1.72.45 1.71.47 1.69.51 1.68.55 1.67.59 1.65.63 1.63.65 1.63.68 1.6.72 1.6.75 1.59.78 1.56.82 1.55.85 1.54.87 1.53.9 1.5.93 1.5 1 1.48 1 1.47 1 1.45 1 1.45 1.06 1.43 1.07 1.4 1.12 1.42 1.11 1.38 1.15 1.39 1.17 1.37 1.2 1.38 1.2 1.33 1.23 1.33 1.25 1.3 1.29 1.3 1.28 1.3 1.3 1.27 1.33 1.27 1.34 1.25 1.35 1.23 1.38 1.22 1.38 1.21 1.4 1.2 1.42 1.2 1.43 1.17 1.44 1.17 1.46 1.16 1.47 1.09 1.47 1.13 1.5 1.13 1.5 1.1 1.51 1.1 1.52 1.09 1.53 1.08 1.54 1.07 1.55 1 1.55 1.05 1.58 2 3.13 2 3.17 2 3.2 1.92 3.2 1.88 3.22 1.83 3.23 1.8 3.22 1.87 3.23 1.7 3.23 1.68 3.22 1.64 3.22 1.58 3.2 1.55 3.13 1.5 3.15 1.47 3.14 1.43 3.1 1.38 3 1.35 3 1.3 3 1.27 2.93 1.22 2.88 1.2 2.84 1.13 2.76 1.1 2.72 1.07 2.63 2.6 6.45 1.41 3.6.74 1.9.73 1.94.73 2 .74 2 .73 2.06.7 2.09.7 2.13.68 2.15.65 2.18.62 2.2.58 2.22.54 2.25.5 2.25.45 2.23.2 1.15.2 1.14.16 1.15.17 1.13.15 1.13.12 1.15.11 1.14.09 1.15.06 1.13v5.72l.02 1.21-.1 1.13-.12 1.14-.15 1.13-.18 1.13-.2 1.12-.25 1.13-.28 1.1-.3 1.12-.37 1.15-.4 1.08-.47 1.09-.53 1.06-.6 1-.67 1-.73.93-.8.89-.85.8-.92.75-.95.67-1 .6-1 .52-1 .43-1 .37-1 .3-1 .21-1 .17-1 .12-1 .05h-2.95l-.92-.1-.91-.13-.9-.17-.89-.18-.88-.2-.87-.24-.85-.23-.85-.27-.81-.28-.84-.3-.8-.32-.83-.33-1.53-.67-1.54-.71-1.48-.77-1.43-.77-1.4-.8-1.32-.8-1.28-.8-1.2-.8-1.07-.73-.47.4-.66.47-.72.4-.75.31-.78.25-.8.19-.82.08h-.82l-.81-.07-.8-.15-.79-.23-.76-.3-.72-.37-.68-.45-.65-.5-.59-.58-.53-.62-.47-.67-.38-.71-.33-.75-.25-.79-.17-.8-.1-.81v-.82l.07-.82.15-.8.21-.78.3-.77.39-.71v-.19l-.07-.4-.08-.47-.1-.52-.13-.56-.17-.62-.18-.67-.22-.7-.23-.71-.25-.77-.29-.78-.3-.79-.66-1.71-.75-1.75-.8-1.82-.85-1.85-.9-1.87-1-1.86-1-1.89-1-1.85-1-1.81-1-1.79-1-1.73-1-1.65-.95-1.57-.93-1.46-.87-1.35-.83-1.24-.75-1.08-.67-.92-.55-.71-.43-.52-.08-.1-.14-.13-.66-.69-.75-.8-.72-.8-.7-.81-.68-.82-.67-.83-.65-.85-.63-.85-.64-.85-.6-.87-.58-.87-.58-.88-1.1-1.73-1.01-1.7-1-1.78-1-1.79-1-1.8-.92-1.78-.9-1.78-.86-1.79-1.7-3.5-1.67-3.45-.82-1.68-.83-1.65-.82-1.62-.83-1.56-.83-1.54-.85-1.5-.87-1.43-.88-1.42-.44-.65-.43-.66-.45-.65-.47-.64-.45-.61-.46-.6-.47-.59-.47-.56-.48-.55-.48-.54-.49-.51-.5-.52-1.71-1.68-1.75-1.69-1.8-1.65-1.85-1.65-1.87-1.61-1.92-1.62-2-1.6-2-1.58-2-1.57-2-1.55-2.06-1.53-2.1-1.52-2.12-1.48-2.13-1.49-2.17-1.46-2.18-1.44-2.2-1.43-2.22-1.4-2.22-1.38-2.25-1.39-2.25-1.33-2.25-1.33-2.26-1.32-2.27-1.28-2.27-1.29-2.28-1.25-2.2-1.28-2.26-1.2-2.27-1.2-2.27-1.17-2.25-1.15-2.35-1.18-1-.52-1-.65-1-.68-1-.72-.92-.78-.85-.8-.82-.85-.76-.87-.74-.9-.66-.91-.65-.95-.6-1-.55-1-.54-1-.48-1-.45-1-.42-1-.38-1-.35-1.07-.33-1.06-.29-1.09-.26-1.08-.24-1.1-.2-1.1-.16-1.1-.15-1.12-.12-1.1-.08-1.11-.07-1.14v-3.35l.05-1.11.08-1.12.1-1.12.13-1.11.15-1.1.19-1.12.21-1.1.25-1.08.27-1.09.3-1.06.33-1.09.37-1.05.4-1.05.43-1 .47-1 .52-1 .53-1 .58-1 .62-1 .65-.93.7-.9.75-.9.78-.85.84-.84.88-.78.89-.8 1-.72 1-.66 1.07-.6 1.1-.55 1.15-.5 1.1-.42 2-.65 1.95-.57 1.94-.53 1.93-.48 1.92-.44 1.91-.38 1.92-.33 1.9-.3 1.9-.24 1.88-.2 1.93-.15 1.88-.1 1.85-.08h1.85zm-3.35 16.65-1.45.05-1.49.09-1.46.11-1.5.15-1.5.2-1.52.24-1.52.26-1.55.3-1.55.35-1.56.4-1.57.42-1.6.48-1.53.49-.35.13-.27.12-.27.13-.26.15-.27.17-.25.2-.28.21-.27.24-.27.26-.26.3-.27.32-.27.35-.26.38-.27.4-.27.45-.25.45-.23.5-.25.5-.22.55-.21.55-.2.59-.19.6-.18.61-.15.64-.15.66-.13.67-.12.67-.1.68-.07.7-.06.7v4.35l.07.71.07.7.1.69.1.68.13.67.13.66.15.65.17.62.18.62.2.58.22.58.22.55.23.52.23.5.25.48.25.44.27.43.27.38.26.37.27.33.28.32.27.28.27.25.26.22.27.22.27.18.26.15.39.2 2.2 1.12 2.33 1.2 2.35 1.21 2.37 1.24 2.36 1.26 2.37 1.29 2.37 1.3 2.36 1.28 2.39 1.35 2.34 1.35 2.37 1.4 2.37 1.41 2.36 1.44 2.35 1.46 2.34 1.49 2.33 1.51 2.32 1.54 2.3 1.55 2.28 1.58 2.25 1.62 2.23 1.62 2.23 1.65 2.2 1.66 2.19 1.69 2.15 1.71 2.11 1.75 2.09 1.75 2.06 1.8 2 1.8 2 1.84 2 1.86 1.91 1.9.74.75.73.79.72.78.68.8.68.82.65.81.64.84.63.83.6.85.6.85.57.85.58.88 1.07 1.72 1 1.75 1 1.77 1 1.76.94 1.79.91 1.76.89 1.79.86 1.76 1.69 3.49 1.66 3.45.84 1.68.83 1.65.83 1.62.84 1.6.85 1.55.86 1.5.94 1.48.92 1.45.43.65.45.68.47.65.46.65.47.63.48.62.49.6.48.58.5.57.5.55.5.55.62.62.38.41.48.54.84 1 .88 1.15.9 1.23.93 1.35 1 1.45 1 1.57 1 1.65 1.07 1.73 1.06 1.82 1.1 1.9 1.1 1.93 1.09 2 1.08 2 1.08 2.07 1 2.08 1 2.09 1 2.1.93 2.08.87 2.08.8 2 .38 1 .37 1 .33 1 .34 1 .3 1v.1h.07l.77.25.75.33.71.4.67.49.62.53.36.33.37.34.5.41.62.49.71.53.79.58.86.59.94.61 1 .62 1 .62 1.05.6 1.08.58 1.05.57 1.06.52 1.12.48.5.2.52.2.5.19.5.16.48.15.48.15.45.12.44.1.41.08.39.07.36.05h1.62l.05-.08.07-.14.08-.2.12-.3.16-.53.17-.62.17-.63.13-.65.13-.65.1-.7.1-.7.07-.73.07-.74v-4.81l-.05-.85-.06-.87-.09-.87-.1-.9-.1-.88-.13-.92-.13-.91-.17-.92-.17-.92-.36-1.91-.44-1.9-.46-1.92-.5-1.93-.55-1.95-.59-2-.6-1.94-.63-1.93-.65-1.92-.68-1.91-.69-1.89-.6-1.75-.7-1.83-.68-1.8-1.39-3.5-2.58-6.4-1-2.6-1.15-2.65-1.11-2.7-1.15-2.75-1.19-2.8-1.23-2.85-1.27-2.9-1.3-2.92-1.35-3-1.36-3-1.42-3-1.45-3-1.5-3.06-1.53-3.07-1.57-3.08-1.57-3.09-1.63-3.08-1.69-3.1-1.68-3.1-1.75-3.07-1.79-3.05-1.83-3-1.85-3-1.9-3-1.93-3-1-1.46-1-1.45-1-1.45-1-1.44-1-1.43-1-1.42-1-1.4-1-1.4-1.05-1.36-1.07-1.37-1.05-1.35-1.18-1.37-1.08-1.32-1.09-1.31-1.1-1.29-1.1-1.28-1.11-1.25-1.12-1.25-1.13-1.22-1.14-1.21-1.15-1.19-1.15-1.16-1.15-1.15-1.16-1.14-1.19-1.1-1.18-1.1-1.18-1.06-1.2-1-1.2-1-1.2-1-1.22-1-1.23-1-1.22-.92-1.23-.92-1.25-.83-1.25-.87-1.25-.82-1.25-.81-1.27-.77-1.28-.73-1.27-.73-1.28-.7-1.3-.67-1.29-.63-1.3-.62-1.31-.65-1.32-.55-1.32-.54-1.31-.5-1.34-.41-1.33-.44-1.35-.41-1.35-.37-1.35-.35-1.37-.32-1.36-.28-1.37-.3-1.38-.21-1.38-.19-1.44-.13-1.4-.12-1.42-.1-1.43-.05h-1.43zm91.55 180.67-.13.16.21-.23zm-542.03 178.3.71.06.65.12.7.13 1.07.29 1.05.35 1 .4.9.4.85.43.82.43.8.45 1.4.84 1.28.81h.6l.55.05.53.07.53.12.54.13.51.18.5.2.49.25.48.27.45.32.43.33.4.35.39.4.36.4.32.43.3.47.28.47.24.48.21.52.17.51.13.52.1.4.09.43.06.44v2.35l-.06.46-.09.47-.11.45v.1l-.13.43-.17.42-.18.42-.2.4-.05.08-.22.38-.25.37-.25.35-.28.35-.3.32-.05.06-.32.32-.33.3-.35.27-.37.26-.38.24-.07.05-.45.25-.45.21-.46.19-.49.16h-.08l-.4.1-.42.1-.4.06-.41.05h-1.9l-.45-.06-.44-.09-.25-.05-.36-.1-.37-.1-.35-.11-.63-.24-.87-.4-.73-.38-.65-.37-.62-.38-1.12-.7-1.11-.72-1.07-.68-1-.62-.44-.25-.26-.13-.29.15-.75.43-1.58.92-1.58 1-1.6 1-1.64 1.08-1.63 1.15-1.63 1.18-1.67 1.22-1.67 1.27-1.68 1.31-1.7 1.34-1.7 1.36-1.7 1.39-3.47 2.86-3.48 2.9-3.5 3-3.55 2.95-3.55 2.92-1.8 1.45-1.8 1.43-1.82 1.42-1.93 1.39-1.84 1.37-1.83 1.33-1.85 1.3-1.88 1.29-.64.4-.68.41-1.37.8-1.5.84-1.6.88-1.65.92-1.68.95-1.67 1-1.65 1-.75.48-.75.47-.7.48-.65.45-.6.43-.53.42-.47.38-.38.35-.22.2-.13.49-.18.51-.22.5-.25.49-.28.46-.3.45-.35.44-.37.4-.38.38-.42.35-.43.32-.47.3-.47.26-.5.24-.5.2-.51.16-.54.14-.53.1-.55.06h-1.63l-.54-.09-.53-.11-.53-.15-.52-.19-.5-.21-.48-.25-.47-.29-.45-.3-.42-.33-.41-.37-.37-.4-.37-.41-.31-.44-.3-.45-.27-.48-.23-.5-.2-.5-.17-.52-.13-.53-.1-.53-.07-.55v-2.09l.08-.61.2-.9.27-.85.3-.79.33-.71.37-.67.36-.63.4-.57.44-.6.76-.93.84-.9.86-.82.87-.78.9-.74.9-.7.93-.68.94-.67 1-.63.95-.62 1-.61 1.9-1.14 1.9-1.1 1.82-1 1.71-.95 1.55-.87 1.34-.75 1.08-.63.37-.22.3-.18 1.6-1.1 1.65-1.15 1.65-1.2 1.66-1.24 1.67-1.28 1.68-1.32 1.7-1.35 1.7-1.36 3.45-2.84 3.47-2.88 3.5-2.93 3.53-3 3.55-2.92 1.79-1.46 1.8-1.44 1.8-1.43 1.81-1.4 1.82-1.38 1.83-1.35 1.85-1.34 1.85-1.28 1.87-1.25 1.87-1.22 1.9-1.16 1.88-1.1 1-.55.95-.52 1-.52 1.11-.56.42-.19.35-.15.37-.13.21-.07.31-.17.35-.1.55-.12.87-.15.85-.07h.78zm25.7 44.06h.86l.42.07.43.08.42.1.4.13h.1l.43.16.44.19.43.21.4.24.4.26.38.29.35.3.35.31.07.07.32.35.31.35.29.38.26.39.24.41.21.42.2.43.17.44v.1l.15.48.12.48.1.5.05.5v1.5l-.07.5-.08.5-.12.49-.15.48-.18.48-.2.45-.24.45-.26.44-.29.41-.3.4-.33.37-.35.37-.38.33-.4.3-.42.3-.42.25-.45.25-.46.2-.47.18-.48.15-.49.12h-.06l-.52.36-.72.54-.8.6-1.83 1.41-2 1.62-2.1 1.73-2.15 1.79-2.1 1.78-3.92 3.33-3.1 2.62-1.17 1-.56.45-.55.38-1.55 1.15-1.57 1-1.61 1-1.67 1-1.7 1-1.73 1-1.77 1-1.8 1-3.65 1.73-3.7 1.94-3.7 1.95-3.68 1.93-3.64 1.95-1.75 1-1.73 1-1.68 1-1.65 1-1.6.95-1.54 1-1.46.94-1.4.95-1.34.91-1.23.92-1.18.9-.52.43-.52.42-.48.43-.47.42-.43.4-.47.47-.36.33-.4.33-.4.29-.44.26-.43.25-.47.22-.46.18-.47.17-.5.12-.48.1-.5.08h-1.5l-.52-.05-.48-.09-.5-.1-.49-.15-.46-.16-.47-.2-.45-.22-.43-.25-.42-.28-.4-.3-.38-.34-.37-.35-.35-.36-.32-.4-.28-.4-.28-.44-.24-.43-.21-.45-.19-.47-.16-.48-.14-.48-.1-.5-.06-.5v-1.5l.05-.5.07-.5.11-.5.15-.49.17-.46.2-.47.22-.45.25-.43.28-.42.3-.4.33-.38.35-.37.59-.58.68-.64.7-.63.72-.62.73-.61.75-.62 1.5-1.17 1.58-1.15 1.62-1.13 1.67-1.12 1.71-1.1 1.75-1.08 1.8-1.25 1.8-1.06 1.83-1.05 1.85-1 1.88-1 3.75-2 3.77-2 3.73-2 3.65-1.92 3.55-1.86 1.7-.94 1.67-.9 1.62-.9 1.53-.88 1.48-.87 1.42-.85 1.33-.83 1.14-.75.16-.12.9-.75 3-2.51 3.91-3.34 2.17-1.83 2.16-1.84 2.21-1.82 2.17-1.75 2-1.58 1-.75.95-.7.91-.65.92-.6.92-.58.95-.52.68-.32.75-.3.5-.15.33-.1.34-.08.35-.07h.15l.4-.07h1.18z"/><path d="m148.25 408.62.6.08.6.12.6.16.17.07h1.71l.62.06.62.1.6.17.6.2.56.25.55.28.54.34.5.36.48.4.43.44.42.48.37.5.33.52.3.55.25.56.22.59v.1l1.75 1.25 3.44 2.5 3.16 2.3 2.54 1.83 1.63 1.18 1.67 1.25 1.7 1.32 1.69 1.42 1.7 1.42 1.68 1.45 1.67 1.5 1.63 1.53.82.82.82.8.8.81.78.84.78.83.77.85.75.87.73.88.74.88.71.9.7.92.67.93.67.94.65.95.61 1 .6 1 .67 1.11.65 1.15.65 1.19.65 1.21.65 1.27.65 1.3.65 1.33.63 1.37.64 1.4.63 1.42.62 1.46.61 1.49.6 1.5.59 1.53.58 1.57.57 1.58.55 1.6.51 1.62.52 1.65.5 1.65.47 1.66.45 1.7.43 1.7.4 1.7.37 1.74.35 1.71.33 1.74.28 1.75.25 1.75.24 1.75.18 1.76.15 1.75.1 1.77.08 1.75v3.52l-.06 1.75-.12 1.73-.2 1.65-.21 1.68-.15.9-.15.87-.15.85-.19.87-.2.83-.2.85-.23.85-.25.85-.27.82-.28.83-.3.83-.32.82-.33.82-.35.8-.38.8-.39.8-.41.8-.45.76-.45.77-.49.77-.5.75-.51.73-.55.73-.57.72-.58.7-.62.68-.62.67-.66.67-.67.63-.7.63-.72.62-.73.58-.75.59-.78.55-.8.53-.82.52-.83.5-.87.48-.87.45-.9.43-.9.42-.93.4-.95.38-1 .35-1 .34-1 .3-1 .3-1.09.28-.85.2-.91.15-.92.13-.92.1-.91.07-.94.05h-2.95l-1-.06-1-.1-1-.14-1-.16-1-.2-1-.22-1-.27-1-.3-1-.35-1-.38-1-.43-1-.49-1-.53-1-.6-.95-.67-.93-.73-.92-.8-.86-.9-.77-.92-.45-.58-.37-.55-.35-.57-.35-.6-.3-.6-.3-.63-.26-.63-.22-.64-.23-.73-.24-.75-.35-1.37-.3-1.38-.23-1.37-.2-1.35-.13-1.31-.12-1.3-.08-1.29v-13.23l-.07-.91-.1-.89-.1-.85-.13-.83-.15-.8-.18-.75-.22-.8-.1-.32-.12-.35-.13-.35-.13-.35-.15-.33-.15-.35-.17-.33-.17-.34-.18-.33-.2-.33-.67-1.1-.73-1.15-.8-1.2-.87-1.25-.9-1.29-.95-1.33-1-1.35-1-1.38-2.16-2.89-2.27-2.95-4.7-6.15-2.4-3.16-2.37-3.19-1.16-1.63-1.17-1.62-1.13-1.63-.89-1.72-1-1.64-1.07-1.63-1-1.63-1-1.65-1-1.65-.93-1.67-.87-1.65-.83-1.67-.75-1.63-.38-.87-.35-.83-.34-.85-.31-.84-.29-.85-.28-.85-.27-.85-.25-.86-.21-.89-.2-.86-.17-.87-.15-.9-.13-.9-.09-.9-.06-.9v-2.77l.08-.93.12-.93.16-.95.2-.94.25-.93.3-.93.35-.92.4-.92.45-.9.5-.86.55-.85.59-.82.63-.8.67-.77.71-.71.75-.7.79-.67.81-.63.85-.59.87-.56.9-.54.93-.5 1-.46 1-.44 1-.41 1-.39 1-.36 1.09-.34 1.1-.3 1.13-.3 1.17-.26 1.18-.24 1.22-.23 1.18-.18 1.28-.18 1.32-.17 1.33-.13 1.38-.14 1.42-.1h.5l.4-.15.57-.18.58-.15.58-.1.6-.07h.61zm-3.4 17.3-1.15.08-1.12.1-1.06.12-1 .11-1 .15-.91.15-.89.15-.83.17-.78.18-.74.2-.68.19-.65.2-.6.2-.55.21-.5.2-.47.22-.41.2-.39.22-.33.18-.3.2-.27.18-.23.19-.2.16-.17.15-.13.15-.13.14-.1.13-.09.13-.08.12-.07.12-.06.11-.05.14v.13l-.05.13v.17l-.05.17v2.18l.05.37.06.4.09.43.1.43.13.47.13.48.15.5.17.52.18.53.22.55.22.57.23.57.25.56.58 1.25.64 1.27.68 1.32.75 1.33.8 1.37.85 1.41.9 1.42.95 1.45 1 1.47 1 1.48 1.05 1.5 1.01 1.5 1.1 1.52 2.27 3.06 2.32 3.05 4.68 6.12 2.3 3 2.23 3 1.1 1.47 1.07 1.46 1 1.45 1 1.44 1 1.43.93 1.4.9 1.4.85 1.4.42.7.38.72.38.71.34.72.33.73.3.72.28.72.27.71.25.74.23.76.39 1.37.33 1.42.27 1.4.21 1.36.17 1.35.13 1.34.1 1.3.07 1.28v12.18l.05.92.08.88.1.85.1.8.15.78.15.75.2.75.1.3v.2l.13.12.12.1.18.12.22.13.25.15.3.13.35.15.37.15.4.14.41.13.45.12.47.1.47.1.5.08.48.07.48.05h3l.3-.05h.25l.25-.07.62-.15.63-.18.62-.2.58-.2.59-.22.55-.22.53-.21.5-.24.5-.25.48-.25.45-.25.45-.26.42-.27.42-.28.4-.29.38-.28.37-.3.35-.3.35-.32.33-.31.32-.34.31-.33.3-.33.3-.35.29-.37.26-.35.27-.38.25-.39.25-.4.25-.4.23-.41.22-.42.22-.43.2-.44.2-.45.2-.46.18-.49.17-.48.16-.48.17-.52.15-.52.13-.51.15-.54.12-.55.12-.55.1-.56.1-.59.1-.55.15-1.21.11-1.24.09-1.25.05-1.28v-2.73l-.05-1.35-.09-1.38-.13-1.4-.15-1.42-.17-1.42-.21-1.43-.25-1.45-.27-1.45-.28-1.47-.32-1.45-.35-1.46-.37-1.45-.38-1.45-.42-1.45-.41-1.44-.45-1.43-.47-1.42-.48-1.4-.3-1.38-.51-1.37-.5-1.35-.54-1.31-.53-1.3-.55-1.29-.53-1.23-.57-1.22-.55-1.18-.55-1.13-.55-1.12-.55-1.07-.55-1-.55-1-.53-.94-.52-.88-.42-.67-.43-.66-.45-.69-.47-.66-.5-.69-.51-.66-.54-.69-.56-.68-.57-.67-.58-.68-.6-.67-.64-.66-.63-.67-.63-.67-.67-.66-.65-.64-1.4-1.3-1.4-1.26-1.43-1.25-1.45-1.2-1.47-1.19-1.48-1.13-1.47-1.1-1.5-1.1-2.53-1.82-3.19-2.31-3.43-2.5-3.32-2.38-2.12-1.5z"/><path d="m381.28 343.38.6.1.6.15.59.19.56.23.55.28.52.32.52.35.46.38.45.44.42.45.37.48.35.52.3.53.26.55.22.58.18.59.14.6.08.6.05.61v.67l-.05.62-.08.6-.14.6-.18.6-.22.56-.26.55-.3.54-.35.51-.37.49-.42.45-.45.43-.75.65.1.33.05.3 1.42-.8 4.83-2.81 4.5-2.62 5.09-2.95 5-2.88 2.27-1.27.3-.22.88-.53.65-.33.47-.22h.1l1.61-.87 1.5-.78.77-.37.52-.22.4-.16.41-.14.22-.06.58-.17.59-.1.58-.08h1.27l.61.07.6.1.6.15.59.18.58.25.55.27.52.31 2.01-1.98 1-1 1-.91 1-.89 1-.86 1-.84 1-.78 1-.77 1-.68.65-.38.62-.34.67-.33.73-.32.83-.28.57-.17.37-.08.36-.07.25-.05.45-.06.45-.05h1.97l.43.07.42.06.2.05.47.12.45.15.45.17.2.06.46.22.45.23.44.27.16.1.44.3.4.3.38.35.15.15.33.33.34.35.28.39.13.18.25.33.24.35.2.37.11.22.24.48.21.5.09.25.15.43.13.44.07.3.1.36.06.37.1.62.09.93v1.82l-.1.85-.15.78-.2.74-.23.66-.29.7-.5 1-.58 1-.63.91-.64.85-.68.8-.7.79-.73.76-.75.74-.8.75-.82.73-.85.73-.88.75-.9.74-.95.73-1 .77-2 1.48-2.12 1.52-2.14 1.59-2.28 1.52-2.32 1.52-2.4 1.51-2.4 1.5-2.42 1.49-2.43 1.46-2.42 1.44-2.41 1.43-2.35 1.35-2.3 1.28-2.22 1.24-2.13 1.13-2.05 1.08-1.92 1-1.8.93-1.67.83-1.51.75-1.37.67-1.23.55-1 .42-1.36.56-1.4.64-1.54.7-1.61.78-1.69.82-1.66.85-3.32 1.68-3 1.57-2.41 1.3-2.24 1.21-.55.29-.56.23-.6.18-.6.15-.62.1h-.4l-.72.45-1 .6-1 .55-1 .53-1.09.58-1 .48-1 .47-1 .43-.43.17-1.18.78-1.37.9-1.38.87-1.4.83-1.4.82-1.42.8-.32.16h-.06l-1.4 1.05-1.42 1-1.47 1-1.48 1-1.79 1.24-.86.46-.9.44-1.84.83-1 .43-.34.37-2.21 2.42-1.1 1.18-.59.62-.6.58-.61.6-.69.6-.78.63-.62.4-.38.25-.4.24-.32.16-.46.22-.47.2h-.15l-.42.15-.43.13h-.13l-.55.11-.59.1h-.04l-.49.05h-1.06l-.55-.05-.57-.08-.55-.13h-.1l-.47-.13-.45-.17-.43-.18-.42-.22-.1-.05-.53-.3-.52-.35-.48-.38-.08-.07-.44-.4-.4-.42-.36-.45-.09-.1-.26-.38-.25-.4-.24-.4-.06-.12-.25-.51-.22-.54-.05-.15-.15-.45-.13-.46-.12-.52-.18-.76-.06-.76v-1.84l.06-.48v-.15l.08-.42.12-.41v-.15l.12-.39.15-.36.18-.49.37-.73.25-.43.2-.32.2-.3.23-.32.25-.33.27-.33.5-.55.73-.74.73-.63.49-.37-.24-.16-.33-.25-.1-.09-.38-.33-.35-.35-.09-.1-.38-.42-.35-.45-.07-.1-.33-.5-.3-.51-.05-.1-.2-.4-.17-.4-.15-.4v-.1l-.13-.42-.1-.43-.09-.42v-.12l-.07-.41v-1.54l.05-.56v-.12l.08-.53.12-.54v-.11l.13-.44.14-.41.05-.12.21-.52.24-.48.13-.25.28-.5.34-.47.18-.26.25-.32.27-.33.54-.54.68-.65.58-.5-.08-.81v-2.04l.12-.59.13-.58.2-.55v-.15l.15-.4.19-.4.2-.37.1-.16.23-.4.25-.39.32-.43.51-.62.55-.58.85-.8.92-.75.92-.7 1-.7 1-.68 1.06-.7 1.1-.72 1.17-.72 1.22-.73 2.46-1.45 2.57-1.48.2-.1.12-.3.18-.4.22-.4.13-.24.27-.41.26-.4.32-.39.17-.2.38-.43.43-.4.1-.08.3-.27.34-.25.23-.18 4.75-3.19 5.23-3.55 5.5-3.76 5.35-3.69 8.79-6.05 3.61-2.5.52-.33.55-.28.55-.25.58-.22.59-.17.61-.11.6-.09h1.24zm20.54 83.62.66-1.07.8-1 .89-.95 1.81-1.3 1.07-.48 3.35 1.08 1.28-1.72 1.64-1.55 1.88-1.23 2.07-.9 2.18-.52 2.25-.13 2.23.27 2.15.63 2 1 1.8 1.33 1.53 1.63 1.25 1.89.89 2.06.51 2.19.15.91.09 1.47.16 1.3-.56.55-.25 1.15-.42 1.7-.27 1.05-.05.19-.18.93-.27 1.18-.3 1.25-.36 1.3-.44 1.37-.5 1.42-.56 1.38-.39.82-.36.75-.42.78-.45.78-.48.79-.55.8-.6.81-.67.82-.75.82-.82.8h-.05l-.85.75-1 .75-1.1.72-1.17.66-1.26.59-1.35.48-1.4.38-1.45.27-1.47.13h-1.47l-1.43-.1-1.42-.2-1.36-.32-1.49-.45-1.38-.55-1.38-.78-1.19-.85-1.2-1.07-1.31-1.55-1-1.63-.7-1.48-.48-1.32-.33-1.23-.25-1.14-.15-1.08-.12-1.05-.05-1v-2l.05-.85v-.15l.15-1 .18-1 .24-1 .28-1.05.37-1.08.45-1.13.55-1.17.7-1.23.71-1.07.42-1.25.55-1.18zm7.33 19.7-.22-.07.34.12-.69-.3-.16-.05zm-3.42-2.49.47.42-.57-.57-.08-.08zm11.09-2.86-.22.16.8-.5-.37-.36zm13.11-4.95 2.37.5 1.6-4.4zm4-4 .14-.38v-.35z" fill="#fff"/><path d="m579.92 998.37h1.11l1.59.05 1.58.1 1.62.15 1.63.2 1.58.27.92.18.88.18.89.24.91.26.94.3 1 .37 1 .43 1 .52 1.1.62 1.13.73 1.18.88 1.19 1.07 1.16 1.28 1 1.34.75 1.21.62 1.19.57 1.3.46 1.43.37 1.52.22 1.61v1.67l-.12 1.67-.28 1.65-.44 1.55-.55 1.45-.66 1.31-.7 1.19-.77 1-.77.93-.76.8-.75.72-.87.73-1.28 1-1.37.85-1.28.68-1.24.59-1.18.5-1.15.43-1.12.38-1.1.34-1.06.31-1.07.29-1.07.26-2 .44-1.73.46-1.8.33-1.62.3-2.68.47-2.88.53-3.25.57-3.5.57-3.67.55-1.82.26v.14h.35l2.5.72 2.34 1.11 2.1 1.54 1.81 1.85 1.45 2.15 1.07 2.36.65 2.5.2 2.6-.23 2.59-.7 2.5-1.1 2.33-1.5 2.13-1.85 1.82-2.14 1.48-2.35 1.1-2.5.67h-.31l-.05.13-.62 1.54-1.5 2.16-1.13 1.25-.9.85-.82.7-.85.64-.83.58-.85.53-.95.52-1.37.65-1.32.5-1 .33-.9.27-.27.08.5-.18.5-.22.37-.2.43-.25.47-.31.48-.35.45-.4.44-.42.36-.42.34-.4.26-.36.2-.34.09-.15-6 1.84h1.09-.5l-1.14.16h-.21l-12.35 3.8-1-3.14-14.78.12-11.19.08h-8.71l-2.52-.23-2.47-.65-2.3-1.07-2.08-1.45-1.8-1.8-.85-1.22-.67-.21-.88-.34-.92-.4-.95-.48-1-.55-1.05-.68-1.06-.82-1.09-1-1.08-1.15-1-1.32-.95-1.51-.15-.3h-30.47l-2.21.15-1.34.09-1.46.08h-4.25l-1-.07-1-.1-1.13-.15-1.23-.25-1.39-.35-1.55-.51-1.73-.79-1.68-1-1.22-.91-1-.92-1-1.07-1-1.25-.88-1.38-.74-1.52-.58-1.6-.4-1.63-.22-1.6-.05-1.55.09-1.45.18-1.35.28-1.23.37-1.24.58-1.51.77-1.55.88-1.45 1-1.34 1.07-1.2 1.12-1.06 1.13-.92 1.12-.78 1.1-.69 1.06-.56 1-.49 1-.4.93-.33.89-.3.85-.23.88-.24 1.4-.31 1.35-.25 1.2-.19 1-.15.56-.1.35-1.73.42-1.62 1.35-2.6 1.42-1.86 1.51-1.54 1.84-1.36 1.53-.85 1-.5.82-.35.82-.34.88-.33 1.5-.5 1.57-.47 1.55-.38 1.55-.35 1.55-.3 1.55-.27 1.55-.23 1.56-.22 1.57-.2 1.57-.16 1.56-.15 1.59-.15 2.11-.17 1-.07 3.05-.2 2.95-.16 5.48-.3 2.42-.15 2.15-.17.88-.07.82-.08.68-.08.6-.09 3.94-.61 4-.65 4-.69 4.05-.71 4.06-.74 4.09-.75 8.21-1.51 4.15-.77 4.17-.75 4.18-.73 4.2-.72 4.24-.68 4.25-.67 4.26-.62 4.2-.56 1.84-.25 1.66-.22 2-.23 2.37-.27 2.62-.23 2.76-.22 1.49-.1 1.5-.07 1.51-.06h3.54z" fill="#808080"/></g></svg>