<svg width="88" height="88" viewBox="0 0 88 88" fill="none" xmlns="http://www.w3.org/2000/svg">
<g clip-path="url(#clip0_2950_17772)">
<path d="M14.7036 14.3733L14.667 80.8807C14.667 85.4245 17.1998 88 21.7158 88H66.2441C70.7601 88 73.2929 85.4245 73.2929 80.8807L73.3296 14.3733C73.3296 9.82944 70.7967 7.25391 66.2808 7.25391H21.7565C17.2365 7.25391 14.7036 9.82944 14.7036 14.3733Z" fill="#E0E0E0"/>
<path d="M55.164 7.25811V4.25061C55.164 1.54467 53.6329 -0.00390625 50.9005 -0.00390625H37.369C34.6366 -0.00390625 33.1055 1.5406 33.1055 4.25061V7.25811H55.1599H55.164Z" fill="#F0F0F0"/>
<path d="M25.6865 7.25417V14.7852L62.3354 14.7852V7.25417L25.6865 7.25417Z" fill="#F0F0F0"/>
<path d="M62.3352 22.4873H25.6904V26.155H62.3352V22.4873Z" fill="#F0F0F0"/>
<path d="M62.3352 33.4941H25.6904V37.1618H62.3352V33.4941Z" fill="#F0F0F0"/>
<path d="M42.8421 44.502H25.6904V48.1696H42.8421V44.502Z" fill="#F0F0F0"/>
<path d="M58.127 48.3921L35.5127 67.7256L40.2631 73.2852L62.8774 53.9517L58.127 48.3921Z" fill="#F0F0F0"/>
<path d="M67.4254 45.1494L58.084 48.3851L62.8443 53.9641L67.4254 45.1494Z" fill="white"/>
<path d="M67.4256 45.1494L63.7607 46.4209L65.6298 48.6093L67.4256 45.1494Z" fill="#F0F0F0"/>
</g>
<defs>
<clipPath id="clip0_2950_17772">
<rect width="58.6667" height="88" fill="white" transform="translate(14.667)"/>
</clipPath>
</defs>
</svg>
