<?xml version="1.0" standalone="no"?>
<!DOCTYPE svg PUBLIC "-//W3C//DTD SVG 1.1//EN" "http://www.w3.org/Graphics/SVG/1.1/DTD/svg11.dtd" >
<svg xmlns="http://www.w3.org/2000/svg">
<metadata>
This is a custom SVG font generated by IcoMoon.
<iconset grid="16"></iconset>
</metadata>
<defs>
<font id="WooCommerce" horiz-adv-x="512" >
<font-face units-per-em="512" ascent="480" descent="-32" />
<missing-glyph horiz-adv-x="512" />
<glyph class="hidden" unicode="&#xf000;" d="M0,480L 512 -32L0 -32 z" horiz-adv-x="0" />
<glyph unicode="&#xe000;" d="M 153.6,390.376l0-76.8 l 25.624,0 l0,76.8 L 153.6,390.376 z M 115.2,390.376l0-76.8 
	l 12.824,0 l0,76.8 L 115.2,390.376 z M 217.6,390.376l0-76.8 l 64.024,0 l0,76.8 L 217.6,390.376 z M 89.6,390.376l0-76.8 l 12.824,0 l0,76.8 L 89.6,390.376 z M 409.576,390.376l0-76.8 
	l 12.824,0 l0,76.8 L 409.576,390.376 z M 371.192,390.376l0-76.8 l 12.8,0 l0,76.8 L 371.192,390.376 z M 307.2,390.376l0-76.8 l 25.576,0 l0,76.8 L 307.2,390.376 z M 473.568,441.576l0-179.176 L 38.4,262.4 
	L 38.4,441.576 L 473.568,441.576 z M 485.656,480L 37.712,480 C 29.16,480, 16.384,477.136, 9.976,470.744C 3.584,463.64, 0.024,458.64, 0.024,450.144L 0.024,258.864 c0-8.544, 3.56-18.52, 9.952-25.624
	c 6.416-6.392, 19.192-9.232, 27.728-9.232l 447.952,0 c 8.544,0, 10.696,2.848, 17.080,9.232c 6.392,7.104, 9.232,17.080, 9.232,25.624L 511.976,450.144 
	c0,8.496-2.848,16.336-9.232,22.728S 494.2,480, 485.656,480z M 154.312,61.168c0-4.976, 2.864-9.232, 7.128-12.8
	c-15.64-5.672-27.032-20.6-27.032-39.112c0-22.728, 17.776-41.248, 40.552-41.248l 187.672,0 c 22.776,0, 40.552,18.52, 40.552,41.248
	c0,18.52-11.384,34.136-27.728,39.112c 4.952,5, 7.824,9.952, 7.824,16.336c0,45.504-36.248,82.488-81.064,82.488
	c-26.296,0-50.512-13.52-64.712-34.112c-7.8,4.256-16.336,6.392-25.576,6.392C 179.92,119.472, 154.312,93.176, 154.312,61.168z"  />
<glyph unicode="&#xe002;" d="M 153.6,390.376l0-76.8 l 25.624,0 l0,76.8 L 153.6,390.376 z M 115.2,390.376l0-76.8 
	l 12.824,0 l0,76.8 L 115.2,390.376 z M 217.6,390.376l0-76.8 l 64.024,0 l0,76.8 L 217.6,390.376 z M 89.6,390.376l0-76.8 l 12.824,0 l0,76.8 L 89.6,390.376 z M 409.576,390.376l0-76.8 
	l 12.824,0 l0,76.8 L 409.576,390.376 z M 371.192,390.376l0-76.8 l 12.8,0 l0,76.8 L 371.192,390.376 z M 307.2,390.376l0-76.8 l 25.576,0 l0,76.8 L 307.2,390.376 z M 473.568,441.576l0-179.176 L 38.4,262.4 
	L 38.4,441.576 L 473.568,441.576 z M 485.656,480L 37.712,480 C 29.16,480, 16.384,477.136, 9.976,470.744C 3.584,463.64, 0.024,458.64, 0.024,450.144L 0.024,258.864 c0-8.544, 3.56-18.52, 9.952-25.624
	c 6.416-6.392, 19.192-9.232, 27.728-9.232l 205.496,0 l0-38.4 L 64.024,185.608 l0-64 L 37.712,121.6 c-8.544,0-21.312-2.824-27.728-9.216C 3.584,105.256, 0.024,100.264, 0.024,91.736
	l0-88.88 c0-8.52, 3.56-18.496, 9.952-25.6c 6.416-6.392, 19.192-9.256, 27.728-9.256l 89.576,0 c 8.544,0, 10.696,2.864, 17.080,9.256
	c 6.392,7.104, 9.232,17.080, 9.232,25.6l0,88.88 c0,8.52-2.848,16.36-9.232,22.752s-8.544,7.104-17.080,7.104l-37.688,0 L 89.6,160.024 l 153.6,0 l0-38.424 
	l-26.296,0 c-8.568,0-21.336-2.824-27.752-9.216c-6.392-7.128-9.928-12.128-9.928-20.648l0-88.88 c0-8.52, 3.536-18.496, 9.928-25.6
	c 6.416-6.392, 19.192-9.256, 27.752-9.256l 89.576,0 c 8.52,0, 10.696,2.864, 17.080,9.256c 6.392,7.104, 9.216,17.080, 9.216,25.6l0,88.88 
	c0,8.52-2.824,16.36-9.216,22.752s-8.568,7.104-17.080,7.104l-37.688,0 L 268.792,160.024 l 153.6,0 l0-38.424 L 396.080,121.6 c-8.544,0-21.312-2.824-27.752-9.216
	c-6.392-7.128-9.952-12.128-9.952-20.648l0-88.88 c0-8.52, 3.56-18.496, 9.952-25.6c 6.432-6.392, 19.216-9.256, 27.752-9.256l 89.576,0 
	c 8.544,0, 10.696,2.864, 17.080,9.256c 6.392,7.104, 9.232,17.080, 9.232,25.6l0,88.88 c0,8.52-2.848,16.36-9.232,22.752
	s-8.544,7.104-17.080,7.104l-37.664,0 l0,64 L 268.8,185.608 l0,38.4 l 216.856,0 c 8.544,0, 10.696,2.848, 17.080,9.232c 6.392,7.104, 9.232,17.080, 9.232,25.624
	L 511.976,450.144 c0,8.496-2.848,16.336-9.232,22.728S 494.2,480, 485.656,480z M 128.024,96.024l0-102.424 L 25.624-6.4 L 25.624,96.024 L 128.024,96.024 z M 486.376,96.024l0-102.424 L 384-6.4 
	L 384,96.024 L 486.376,96.024 z M 307.2,96.024l0-102.424 L 204.824-6.4 L 204.824,96.024 L 307.2,96.024 z"  />
<glyph unicode="&#xe003;" d="M 153.6,364.776L 153.6,160.024 l 25.624,0 L 179.216,364.776 L 153.6,364.776 z M 115.2,364.776L 115.2,160.024 
	l 12.824,0 L 128.024,364.776 L 115.2,364.776 z M 281.624,364.776L 281.624,160.024 l 25.576,0 L 307.2,364.776 L 281.624,364.776 z M 89.6,364.776L 89.6,160.024 l 12.824,0 L 102.424,364.776 L 89.6,364.776 z M 332.776,364.776L 332.776,160.024 
	l 12.824,0 L 345.6,364.776 L 332.776,364.776 z M 243.2,364.776L 243.2,160.024 l 12.776,0 L 255.976,364.776 L 243.2,364.776 z M 217.6,364.776L 217.6,160.024 l 12.8,0 L 230.4,364.776 L 217.6,364.776 z M 396.776,416l0-307.2 
	L 38.4,108.8 L 38.4,416 L 396.776,416 z M 408.88,454.4L 37.712,454.4 c-8.544,0-21.312-2.848-27.728-9.256C 3.584,438.016, 0.024,433.064, 0.024,424.496l0-319.232 
	c0-8.544, 3.56-18.52, 9.952-25.6c 6.416-6.416, 19.192-9.256, 27.728-9.256l 371.168,0 c 8.52,0, 10.672,2.848, 17.056,9.256
	c 6.392,7.080, 9.232,17.056, 9.232,25.6L 435.176,424.496 c0,8.568-2.848,16.36-9.232,22.776C 419.552,453.656, 417.4,454.4, 408.88,454.4z M 115.2,32
	l-38.4,0 l0-3.536 c0-8.544, 3.584-18.472, 9.976-25.6c 6.392-6.416, 19.192-9.256, 27.728-9.256l 371.152,0 c 8.544,0, 10.696,2.848, 17.080,9.256
	c 6.392,7.128, 9.232,17.056, 9.232,25.6L 511.984,347.744 c0,8.52-2.848,16.336-9.232,22.728s-8.544,7.128-17.080,7.128l-12.080,0 l0-38.4 l0-272.344 l0-34.856 
	l-26.32,0 L 115.2,32 z"  />
<glyph unicode="&#xe005;" d="M 262.384,319.992l0-25.6 l 41.248,0 l-118.040-116.616l0,39.808 l-25.576,0 l0-89.576 
	l 89.576,0 l0,25.6 L 206.232,153.608 L 326.384,268.816l0-38.4 l 25.624,0 L 352.008,319.992 L 262.384,319.992 z M 255.992-31.976c 141.496,0, 256,114.48, 256,255.952
	c0,141.512-114.504,256-256,256c-141.512,0-255.976-114.48-255.976-256C 0.016,82.504, 114.472-31.976, 255.992-31.976z
	 M 255.992,0.016c-123.736,0-223.968,100.264-223.968,223.968c0,123.736, 100.224,224.016, 223.968,224.016c 123.712,0, 223.992-100.264, 223.992-224.016
	C 479.976,100.28, 379.712,0.016, 255.992,0.016z"  />
<glyph unicode="&#xe008;" d="M 275.928,121.584l 68.24,70.408l 17.080,17.776l 8.52,9.256L 280.192,313.6
	l-25.6-26.344l 41.248-44.072L 172.832,243.184 c-14.24,0-25.624-11.36-25.624-25.6s 11.384-25.6, 25.624-25.6l 121.592,0 l-43.4-44.816L 275.928,121.584z
	 M 256.024-31.976c 141.472,0, 255.952,114.48, 255.952,255.952c0,141.512-114.48,256-255.952,256C 114.504,479.976, 0.024,365.496, 0.024,223.984
	C 0.024,82.504, 114.504-31.976, 256.024-31.976z M 256.024,0.016c-123.736,0-224.016,100.264-224.016,223.968c0,123.736, 100.264,224.016, 224.016,224.016
	c 123.696,0, 223.968-100.264, 223.968-224.016C 479.984,100.28, 379.72,0.016, 256.024,0.016z"  />
<glyph unicode="&#xe009;" d="M 358.424,243.904l-70.408,68.264l-17.776,17.032l-9.256,8.568
	L 166.4,248.184l 26.344-25.648l 44.072,41.248l0-123 c0-14.216, 11.36-25.6, 25.6-25.6s 25.6,11.384, 25.6,25.6l0,121.592 l 44.816-43.352
	L 358.424,243.904z M 511.976,223.984c0,141.512-114.48,256-255.952,256C 114.504,479.976, 0.024,365.496, 0.024,223.984
	c0-141.472, 114.48-255.952, 256-255.952C 397.496-31.976, 511.976,82.504, 511.976,223.984z M 479.984,223.984
	c0-123.696-100.264-223.968-223.968-223.968c-123.736,0-224.016,100.264-224.016,223.968c0,123.736, 100.264,224.016, 224.016,224.016
	C 379.72,447.984, 479.984,347.72, 479.984,223.984z"  />
<glyph unicode="&#xe00a;" d="M 153.584,204.096l 70.408-68.264l 17.776-17.032l 9.256-8.568L 345.6,199.816
	l-26.344,25.648l-44.072-41.248L 275.184,307.216 c0,14.216-11.36,25.6-25.6,25.6s-25.6-11.384-25.6-25.6l0-121.592 l-44.816,43.352L 153.584,204.096z M 0.024,224.024
	c0-141.512, 114.48-256, 255.952-256c 141.512,0, 256,114.48, 256,256c0,141.472-114.48,255.952-256,255.952
	C 114.504,479.976, 0.024,365.496, 0.024,224.024z M 32.016,224.024c0,123.696, 100.264,223.968, 223.968,223.968c 123.736,0, 224.016-100.264, 224.016-223.968
	c0-123.736-100.264-224.016-224.016-224.016C 132.28,0.016, 32.016,100.28, 32.016,224.024z"  />
<glyph unicode="&#xe00b;" d="M 236.096,326.424l-68.264-70.408l-17.032-17.776L 142.232,228.984l 89.576-94.576
	l 25.648,26.344l-41.248,44.072l 123,0 c 14.216,0, 25.6,11.36, 25.6,25.6s-11.384,25.6-25.6,25.6l-121.592,0 l 43.352,44.816L 236.096,326.424z
	 M 256.024,479.976C 114.504,479.976, 0.024,365.496, 0.024,224.024c0-141.512, 114.48-256, 256-256c 141.472,0, 255.952,114.48, 255.952,256
	C 511.976,365.496, 397.496,479.976, 256.024,479.976z M 256.024,447.984c 123.696,0, 223.968-100.264, 223.968-223.968
	c0-123.736-100.264-224.016-223.968-224.016c-123.736,0-224.016,100.264-224.016,224.016C 32.016,347.72, 132.28,447.984, 256.024,447.984z"  />
<glyph unicode="&#xe00c;" d="M 422.368,57.6L 294.416,185.576L 204.792,96l-38.376,38.4
	l-76.8-76.8L 422.368,57.592 z M 140.816,236.8c0-21.336, 17.080-38.424, 38.376-38.424c 21.36,0, 38.424,17.080, 38.424,38.424
	c0,21.296-17.056,38.376-38.424,38.376C 157.896,275.176, 140.816,258.096, 140.816,236.8z M 473.584,351.976l0-345.576 L 38.416,6.408 l0,345.576 L 473.584,351.976 z M 511.992,479.976
	L 0.016,479.976 l0-511.952 l 474.264,0 c 12.104,0, 17.080,4.232, 24.88,12.080c 8.568,7.824, 12.824,19.216, 12.824,30.552L 511.984,479.976 z"  />
<glyph unicode="&#xe00d;" d="M 376.176,439.448c-26.344,25.6-68.976,25.6-95.272-0.696L 41.248,199.096
	C 14.96,172.8, 14.96,130.168, 40.552,103.824l 8.52-8.52l 33.416,34.112l-22.032,22.032L 328.536,419.544l 22.032-22.032l 34.112,33.416L 376.176,439.448z
	 M 127.304,17.072l 8.52-8.52c 26.344-25.6, 68.976-25.6, 95.272,0.696L 470.752,248.904c 26.296,26.296, 26.296,68.936, 0.696,95.272l-8.52,8.52
	l-33.416-34.112l 22.032-22.032L 183.464,28.464l-22.032,22.032L 127.304,17.072z M 496.328,475c-6.392,6.416-16.36,6.416-22.752,0.72
	L 317.152,319.272c-5.696-6.392-5.696-16.336,0-22.728l 11.384-11.384c 6.392-5.696, 16.336-5.696, 22.728,0L 507.72,441.576
	c 5.696,6.392, 5.696,16.36-0.72,22.752L 496.328,475z M 183.464,162.848c-6.392,5.696-16.336,5.696-22.728,0L 4.28,6.432
	c-5.696-6.392-5.696-16.36, 0.72-22.752l 10.672-10.672c 6.392-6.416, 16.36-6.416, 22.752-0.72l 156.424,156.448
	c 5.696,6.392, 5.696,16.336,0,22.728L 183.464,162.848z"  />
<glyph unicode="&#xe00e;" d="M 179.192,262.4l-38.376-38.4l 38.376,0 l0-115.2 L 140.816,108.808 l0-25.576 l 38.376,0 l 25.6,0 
	l 38.4,0 l0,25.576 l-38.4,0 L 204.784,262.4 L 179.192,262.4 z M 294.416,262.4c-14.264,0-25.6-11.384-25.6-25.576l0-128.024 c0-14.192, 11.344-25.576, 25.6-25.576l 51.2,0 
	c 14.216,0, 25.6,11.384, 25.6,25.576L 371.208,236.824 c0,14.192-11.384,25.576-25.6,25.576L 294.416,262.4 z M 294.416,236.824l 51.2,0 l0-128.024 l-51.2,0 L 294.416,236.824 z
	 M 473.584,339.2l0-332.776 L 38.416,6.432 l0,332.776 L 473.584,339.2 z M 511.992,480L 0.016,480 l0-512 l 474.264,0 c 12.104,0, 17.080,4.28, 24.88,12.080
	c 8.568,7.872, 12.824,19.216, 12.824,30.6L 511.984,480 z M 377.6,428.784c 10.648,0, 19.192-8.544, 19.192-19.192c0-10.672-8.544-19.216-19.192-19.216
	c-10.672,0-19.216,8.544-19.216,19.216C 358.392,420.24, 366.928,428.784, 377.6,428.784z M 121.608,428.784c 10.696,0, 19.216-8.544, 19.216-19.192
	c0-10.672-8.52-19.216-19.216-19.216c-10.648,0-19.216,8.544-19.216,19.216C 102.392,420.24, 110.96,428.784, 121.608,428.784z"  />
<glyph unicode="&#xe00f;" d="M 0.040,224c0-24.904, 19.888-44.792, 45.504-44.792
	c 24.856,0, 44.792,19.888, 44.792,44.792s-19.928,44.792-44.792,44.792C 19.928,268.792, 0.040,248.904, 0.040,224z M 210.488,224
	c0-24.904, 20.648-44.792, 45.528-44.792c 24.856,0, 45.48,19.888, 45.48,44.792s-20.624,44.792-45.48,44.792
	C 231.136,268.792, 210.488,248.904, 210.488,224z M 421.672,224c0-24.904, 19.912-44.792, 44.816-44.792c 25.6,0, 45.48,19.888, 45.48,44.792
	s-19.888,44.792-45.48,44.792C 441.584,268.792, 421.672,248.904, 421.672,224z"  />
<glyph unicode="&#xe010;" d="M 152.912,214.4c0-54.048, 46.224-98.12, 103.072-98.12
	c 56.92,0, 103.144,44.072, 103.144,98.12c0,23.472-9.256,45.528-24.904,62.568c 102.4-23.472, 177.768-86.040, 177.768-86.040l0,45.528 
	c0,0-115.2,95.272-254.568,95.272C 118.76,331.72, 0.024,236.456, 0.024,236.456l0-45.528 c0,0, 75.368,60.432, 176.352,85.344
	C 162.144,259.184, 152.912,237.872, 152.912,214.4z"  />
<glyph unicode="&#xe011;" d="M 147.216,224.024c0-10.696, 8.544-19.216, 19.192-19.216
	c 10.672,0, 19.216,8.52, 19.216,19.216c0,10.648-8.544,19.216-19.216,19.216C 155.752,243.232, 147.216,234.672, 147.216,224.024z M 236.816,224.024
	c0-10.696, 8.52-19.216, 19.216-19.216c 10.648,0, 19.216,8.52, 19.216,19.216c0,10.648-8.568,19.216-19.216,19.216
	C 245.328,243.232, 236.816,234.672, 236.816,224.024z M 326.392,224.024c0-10.696, 8.568-19.216, 19.216-19.216s 19.216,8.52, 19.216,19.216
	c0,10.648-8.568,19.216-19.216,19.216S 326.392,234.672, 326.392,224.024z M 0.024,224.024c0-141.512, 114.48-256, 256-256
	c 141.472,0, 255.952,114.48, 255.952,256c0,141.472-114.48,255.952-255.952,255.952C 114.504,479.976, 0.024,365.496, 0.024,224.024z M 32.016,224.024
	c0,123.696, 100.264,223.968, 224.016,223.968c 123.696,0, 223.968-100.264, 223.968-223.968c0-123.736-100.264-224.016-223.968-224.016
	C 132.28,0.016, 32.016,100.28, 32.016,224.024z"  />
<glyph unicode="&#xe012;" d="M 236.816,358.384l0-127.976 l0-25.6 l0-12.8 l 140.8,0 l0,38.4 L 275.232,230.408 L 275.232,358.384 
	L 236.816,358.384 z M 0.024,224.024c0-141.512, 114.48-256, 256-256c 141.472,0, 255.952,114.48, 255.952,256c0,141.472-114.48,255.952-255.952,255.952
	C 114.504,479.976, 0.024,365.496, 0.024,224.024z M 32.016,224.024c0,123.696, 100.264,223.968, 224.016,223.968c 123.696,0, 223.968-100.264, 223.968-223.968
	c0-123.736-100.264-224.016-223.968-224.016C 132.28,0.016, 32.016,100.28, 32.016,224.024z"  />
<glyph unicode="&#xe013;" d="M 184.864,329.024l-26.992-26.992l 71.104-72.544l-71.8-73.24l 26.992-27.728
	l 71.8,73.24l 71.848-73.24l 27.016,27.728l-71.8,73.24l 71.104,72.544l-27.056,26.992l-71.104-72.52L 184.864,329.024z M 78.208,410.104
	C-21.312,310.552-23.448,147.736, 75.392,45.336c 99.576-103.12, 261.672-103.12, 361.224,0C 535.448,147.736, 533.32,310.552, 433.736,410.104
	C 334.952,508.96, 177.072,508.96, 78.208,410.104z M 100.264,388.048c 86.040,86.064, 225.4,86.064, 311.432,0
	c 86.752-87.448, 88.184-230.352, 2.152-319.232c-86.776-89.624-228.984-89.624-315.696,0C 12.104,157.696, 13.544,300.6, 100.264,388.048z"  />
<glyph unicode="&#xe014;" d="M 300.808,219.768l 77.496,46.896l-77.496,47.68l0-32.736 L 134.44,281.616 l0-84.624 
	l 25.576,23.472l0,35.552 l 140.8,0 L 300.808,219.768 z M 224.016,217.592l-77.496-47.632l 77.496-47.632l0,31.296 l 166.376,0 l0,86.752 l-25.576-24.192l0-36.968 L 224.016,179.208 L 224.016,217.592 z
	 M 0.024,224.024c0-141.512, 114.48-256, 256-256c 141.472,0, 255.952,114.48, 255.952,256c0,141.472-114.48,255.952-255.952,255.952
	C 114.504,479.976, 0.024,365.496, 0.024,224.024z M 32.016,224.024c0,123.696, 100.264,223.968, 224.016,223.968c 123.696,0, 223.968-100.264, 223.968-223.968
	c0-123.736-100.264-224.016-223.968-224.016C 132.28,0.016, 32.016,100.28, 32.016,224.024z"  />
<glyph unicode="&#xe015;" d="M 140.8,229.72l 70.384-68.288l 17.776-17.056l 9.232-8.544l 145.776,140.776
	l-26.296,25.6L 237.512,186.32l-71.104,68.264L 140.8,229.72z M 0.024,224.024c0-141.512, 114.48-256, 255.952-256
	c 141.512,0, 256,114.48, 256,256c0,141.472-114.48,255.952-256,255.952C 114.504,479.976, 0.024,365.496, 0.024,224.024z M 32.016,224.024
	c0,123.696, 100.264,223.968, 223.968,223.968c 123.736,0, 224.016-100.264, 224.016-223.968c0-123.736-100.264-224.016-224.016-224.016
	C 132.28,0.016, 32.016,100.28, 32.016,224.024z"  />
<glyph unicode="&#xe016;" d="M 239.376,345.608l0-179.176 l 38.424,0 L 277.792,345.608 L 239.376,345.608 z M 239.376,140.832l0-38.4 
	l 38.424,0 l0,38.4 L 239.376,140.832 z M 2.632,224.024c0-141.512, 114.48-256, 255.952-256c 141.512,0, 256,114.48, 256,256
	c0,141.472-114.48,255.952-256,255.952C 117.112,479.976, 2.632,365.496, 2.632,224.024z M 34.624,224.024c0,123.696, 100.264,223.968, 223.968,223.968
	c 123.736,0, 224.016-100.264, 224.016-223.968c0-123.736-100.264-224.016-224.016-224.016C 134.888,0.016, 34.624,100.28, 34.624,224.024z"  />
<glyph unicode="&#xe017;" d="M 0.016,209.096L 147.208,64.040L 164.984,46.952L 174.24,38.408L 511.992,371.208L 472.88,409.592L 173.496,114.52L 38.416,246.776 z"  />
<glyph unicode="&#xe018;" d="M 275.192,174.216c 45.528,7.824, 70.384,38.424, 70.384,88.16
	c0,56.92-32.736,89.6-89.576,89.6c-54.768,0-86.064-29.856-89.624-83.184L 192.008,268.792 c 3.536,39.112, 23.472,57.584, 64,57.584
	c 42.656,0, 63.976-21.336, 63.976-64c0-35.552-14.216-55.44-44.792-61.872l0,4.256 l-38.4-12.776l0-38.376 l 38.4,0 L 275.2,174.216 z M 236.8,128.008l0-38.4 l 38.4,0 
	l0,38.4 L 236.8,128.008 z M 0.008,223.984c0-141.472, 114.48-255.952, 256-255.952c 141.472,0, 255.976,114.48, 255.976,255.952
	C 511.984,365.496, 397.48,479.976, 256.008,479.976C 114.488,479.976 0.008,365.496 0.008,223.984z M 32.024,223.984C 32.024,347.72, 132.264,447.984, 256.008,447.984
	c 123.696,0, 223.968-100.264, 223.968-224.016c0-123.696-100.264-223.968-223.968-223.968C 132.264,0.016, 32.024,100.28, 32.024,223.984z"  />
<glyph unicode="&#xe019;" d="M 332.080,96.024c 4.28,0, 7.128,0.696, 9.952,2.848
	c-4.976,1.392-9.256,3.536-12.080,6.392c-6.392,7.128-9.952,17.032-9.952,25.6L 320,386.12 c0,8.52, 3.56,13.52, 9.952,20.6
	c 6.416,6.432, 19.192,9.28, 27.728,9.28l 0.696,0 L 358.384,450.144 c0,8.496-2.824,16.336-9.232,22.728C 342.752,479.256, 340.6,480, 332.080,480L 37.712,480 
	C 29.16,480, 16.384,477.136, 9.976,470.744C 3.584,463.64, 0.024,458.64, 0.024,450.144l0-319.28 c0-8.568, 3.56-18.472, 9.952-25.6
	c 6.416-6.392, 19.192-9.232, 27.728-9.232L 332.080,96.032 z M 358.376,134.424L 358.376,377.6 l 115.2-25.624L 473.568,134.424 L 358.376,134.424 z M 485.656,390.376l-127.28,25.624L 357.688,416 
	c-8.544,0-21.312-2.848-27.728-9.28c-6.392-7.080-9.952-12.080-9.952-20.6l0-255.264 c0-8.568, 3.56-18.472, 9.952-25.6
	c 2.824-2.848, 7.104-5, 12.080-6.392c 5-2.152, 10.696-2.848, 15.64-2.848l 127.976,0 c 8.544,0, 10.696,2.848, 17.080,9.232
	c 6.392,7.128, 9.232,17.032, 9.232,25.6L 511.968,360.52 c0,8.544-2.848,16.336-9.232,22.776C 496.352,389.68, 494.2,390.376, 485.656,390.376z
	 M 38.4,12.816c0-24.856, 19.928-44.816, 44.816-44.816c 24.904,0, 44.816,19.952, 44.816,44.816c0,24.88-19.912,44.816-44.816,44.816
	C 58.328,57.624, 38.4,37.696, 38.4,12.816z M 384,12.816c0-24.856, 19.888-44.816, 44.792-44.816s 44.792,19.952, 44.792,44.816
	c0,24.88-19.888,44.816-44.792,44.816S 384,37.696, 384,12.816z"  />
<glyph unicode="&#xe01a;" d="M 320,441.576l0-55.464 c0,8.52, 3.56,13.52, 9.952,20.6
	c 6.416,6.432, 19.192,9.28, 27.728,9.28l 0.696,0 L 358.384,450.144 c0,8.496-2.824,16.336-9.232,22.728C 342.752,479.256, 340.6,480, 332.080,480L 37.712,480 
	C 29.16,480, 16.384,477.136, 9.976,470.744C 3.584,463.64, 0.024,458.64, 0.024,450.144l0-319.28 c0-8.568, 3.56-18.472, 9.952-25.6
	c 6.416-6.392, 19.192-9.232, 27.728-9.232l 294.376,0 c 4.28,0, 7.128,0.696, 9.952,2.848c 5-2.152, 10.696-2.848, 15.64-2.848l 127.976,0 
	c 8.544,0, 10.696,2.848, 17.080,9.232c 6.392,7.128, 9.232,17.032, 9.232,25.6L 511.976,360.52 c0,8.544-2.848,16.336-9.232,22.776
	c-6.392,6.392-8.544,7.080-17.080,7.080l-127.28,25.624L 357.688,416 c-8.544,0-21.312-2.848-27.728-9.28c-6.392-7.080-9.952-12.080-9.952-20.6
	L 320,134.424 L 38.4,134.424 L 38.4,441.576 L 320,441.576 z M 358.376,134.424L 358.376,377.6 l 115.2-25.624L 473.568,134.424 L 358.376,134.424 z M 38.4,12.816c0-24.856, 19.928-44.816, 44.816-44.816
	c 24.904,0, 44.816,19.952, 44.816,44.816c0,24.88-19.912,44.816-44.816,44.816C 58.328,57.624, 38.4,37.696, 38.4,12.816z M 384,12.816
	c0-24.856, 19.888-44.816, 44.792-44.816s 44.792,19.952, 44.792,44.816c0,24.88-19.888,44.816-44.792,44.816S 384,37.696, 384,12.816z"  />
<glyph unicode="&#xe01b;" d="M 284.448,409.616l-9.216,0 l0-40.528 c 5.648-6.416, 8.496,2.848, 12.776-7.848l0-24.856 
	c0-3.56, 5-5.696, 7.104-5.696c 12.8,0, 45.528,34.112, 56.872,42.632C 329.976,393.248, 306.504,402.48, 284.448,409.616z M 236.816,409.616l-12.080,0 
	c-38.376-8.568-81.8-27.032-115.92-80.368l0-3.56 c 2.152,1.44, 7.128,2.848, 8.544,2.848c 3.536,0, 3.536-1.416, 4.28-2.848l0-27.704 
	c0-6.416, 17.032-51.912, 24.88-54.048c 4.28-1.44, 8.544,0.72, 11.36-2.136c 8.52-9.952, 11.384-24.904, 18.496-34.112
	c 10.672-14.264, 27.016-29.904, 41.248-35.552c 4.976-3.584, 14.936,2.112, 19.192-5.696l0-44.816 c0-9.256, 17.056,2.136, 17.056-14.952l0-4.952 
	c-2.112-9.256-12.776,1.416-17.056-9.256l0-75.368 c 2.136-4.256, 12.080-4.256, 17.056-4.256c0,0, 19.928-1.44, 19.928,7.104
	c0,9.976-11.384,5.696-14.24,6.392c 11.384,13.496, 22.056,28.448, 34.856,40.552c 18.472,17.056, 23.448,36.248, 30.552,50.488
	c 2.848,6.392, 7.104,16.336, 7.104,18.472c0,14.936-57.584,41.944-61.128,43.376l-39.136,0 c-12.080,5.696-25.576,18.496-33.384,31.992l0,28.448 
	l 2.824,3.584l 19.912,0 l 2.848-3.584l0-27.704 c 0.72-2.152, 7.104-5.696, 9.232-5.696c 2.848,0, 1.44,3.536, 3.56,5.696L 236.8,261.704 
	c0,7.8, 17.776,18.496, 19.912,19.912L 284.448,281.616 c 2.136,0, 10.672,2.136, 10.672,7.080c0,10.696-14.936-2.824-19.888,2.864l0,27.032 
	c0,10.648-14.264,7.080-17.080,8.52c 7.104,12.8, 14.216,18.496, 14.216,27.032c0,3.536-1.416,4.952-2.824,5.648
	c-5,1.44-11.384,0-15.664,3.584c-4.976,3.536-16.36,9.232-17.056,17.776L 236.824,409.616 z M 0.024,224.024c0-141.512, 114.48-256, 256-256
	c 141.472,0, 255.952,114.48, 255.952,256c0,141.472-114.48,255.952-255.952,255.952C 114.504,479.976, 0.024,365.496, 0.024,224.024z M 32.016,224.024
	c0,123.696, 100.264,223.968, 224.016,223.968c 123.696,0, 223.968-100.264, 223.968-223.968c0-123.736-100.264-224.016-223.968-224.016
	C 132.28,0.016, 32.016,100.28, 32.016,224.024z"  />
<glyph unicode="&#xe01c;" d="M 0.024,169.24c 7.080-31.992, 19.912-62.544, 37.688-89.576
	c 20.624,7.080, 44.096,2.824, 60.456-13.52c 16.336-16.36, 20.6-39.808, 13.496-60.408c 27.016-17.776, 57.608-30.6, 89.576-37.728
	c 8.544,22.056, 29.88,37.728, 54.744,37.728c 24.904,0, 46.248-15.664, 54.768-37.728c 32.016,7.128, 62.592,19.952, 89.624,37.728
	c-7.128,20.6-2.864,44.048, 13.496,60.408c 16.36,16.336, 39.832,20.6, 60.432,13.52c 17.776,27.032, 30.552,57.584, 37.688,89.576
	c-22.032,8.568-37.688,29.856-37.688,54.768s 15.64,46.2, 37.688,54.768c-7.128,31.992-19.912,62.544-37.688,89.576
	c-20.6-7.080-44.072-2.824-60.432,13.52c-16.36,16.36-20.624,39.808-13.496,60.408C 373.328,460.048, 342.752,472.872, 310.736,480
	c-8.52-22.056-29.856-37.728-54.768-37.728c-24.856,0-46.2,15.664-54.744,37.728c-31.968-7.128-62.568-19.952-89.576-37.728
	c 7.104-20.6, 2.848-44.048-13.496-60.408c-16.36-16.336-39.832-20.6-60.456-13.52C 19.936,341.304, 7.104,310.752, 0.024,278.76
	c 22.032-8.568, 37.688-29.856, 37.688-54.768S 22.056,177.8, 0.024,169.24z M 76.8,224c0,98.84, 80.392,179.2, 179.176,179.2
	c 98.864,0, 179.2-80.368, 179.2-179.2S 354.832,44.8, 255.976,44.8C 157.192,44.8, 76.8,125.168, 76.8,224z"  />
<glyph unicode="&#xe01d;" d="M 102.424,327.808l0,36.968 l0,35.552 l0,2.136 
	c-0.744,10.696-5,19.216-12.824,27.032c-7.8,7.824-22.728,12.080-34.808,12.080l-17.776,0 c-11.384,0-16.384-5.696-24.904-13.496
	C 5,420.976, 0.72,413.152, 0.024,403.2l 64,0 l0-40.528 l0-36.968 l0-37.728 l0-72.52 l0-2.848 l0-3.536 l0-71.824 c0-11.36, 4.28-21.336, 12.776-29.136
	c 8.544-7.848, 23.472-12.080, 34.856-12.080l 238.192,0 c 11.36,0, 16.36,5.672, 24.904,13.496c 7.080,7.128, 11.344,14.952, 12.080,24.904l-38.4,0 l-246.024,0 
	l0,39.096 c 3.536-0.72, 6.392-0.72, 9.232-0.72l 260.256,0 c 12.080,0, 47.632,6.416, 56.176,14.952c 8.52,7.824, 14.216,15.624, 19.912,27.704
	l 63.976,147.216c0,11.36-4.952,21.312-13.52,29.136c-8.52,7.824-13.496,11.384-24.88,11.384L 111.656,403.2 c-2.848,0-5.696,0-9.232-0.744l0-2.136 l0-35.552 
	l 371.152,0 l-64-153.6L 102.424,211.176 L 102.424,248.904 L 102.424,327.808 z M 307.2,38.408c0-17.776, 14.24-31.992, 32.016-31.992s 31.992,14.216, 31.992,31.992
	s-14.216,31.992-31.992,31.992S 307.2,56.184, 307.2,38.408z M 51.224,38.408c0-17.776, 14.216-31.992, 31.992-31.992s 31.992,14.216, 31.992,31.992
	s-14.216,31.992-31.992,31.992S 51.224,56.184, 51.224,38.408z"  />
<glyph unicode="&#xe01e;" d="M 332.776,108.808L 204.824,108.808 l0,38.4 l 127.952,0 L 332.776,108.808 z M 179.224,108.808L 89.6,108.808 
	l0,38.4 l 89.624,0 L 179.224,108.808 z M 473.568,287.976L 38.4,287.976 l0-230.352 l 435.176,0 L 473.568,287.976 z M 473.568,390.376L 38.4,390.376 l0-63.976 l 435.176,0 L 473.568,390.376 z M 473.568,428.784
	c 11.384,0, 16.36-3.536, 24.88-11.36c 8.568-7.824, 13.52-17.776, 13.52-29.16l0-326.368 c0-11.384-4.256-22.776-12.776-30.576
	c-7.848-7.8-12.824-12.080-24.904-12.080l-426.632,0 c-11.384,0-26.296,4.28-34.856,12.080C 4.28,39.104, 0.024,50.496, 0.024,61.88L 0.024,388.248 
	C 0.024,399.632, 4.28,408.896, 12.8,416.696c 7.824,7.8, 23.472,12.080, 34.856,12.080L 473.568,428.776 z"  />
<glyph unicode="&#xe01f;" d="M 409.6,83.224l-38.4,0 L 371.2,300.8 l 38.4,0 L 409.6,83.224 z M 319.976,83.224L 281.6,83.224 
	L 281.6,249.6 l 38.376,0 L 319.976,83.224 z M 230.4,83.224l-38.376,0 L 192.024,339.2 l 38.376,0 L 230.4,83.224 z M 140.8,83.224l-38.4,0 L 102.4,185.6 l 38.4,0 L 140.8,83.224 z M 473.568,403.2L 38.424,403.2 
	l0-358.4 l 435.152,0 L 473.568,403.2 z M 485.656,441.576c 8.568,0, 10.672-0.72, 17.080-7.104c 6.392-6.392, 9.256-14.24, 9.256-22.752l0-370.44 
	c0-8.568-2.864-18.52-9.256-25.648c-6.416-6.392-8.52-9.216-17.080-9.216L 37.728,6.432 c-8.568,0-21.36,2.824-27.752,9.216
	c-6.392,7.128-9.976,17.080-9.976,25.648L-0.008,411.712 c0,8.52, 3.584,13.52, 9.976,20.648c 6.392,6.392, 19.192,9.216, 27.752,9.216L 485.656,441.568 z"  />
<glyph unicode="&#xe020;" d="M 255.984,467.2L 334.936,306.472L 511.96,280.896L 384.008,156.464L 413.864-19.2L 255.984,63.296L 98.152-19.2L 128.008,156.464L 0.032,280.896L 177.080,306.472 z"  />
<glyph unicode="&#xe021;" d="M 256.024,468.48l-78.976-160.728L 0.024,282.152l 127.976-124.432l-29.856-175.592
	l 157.88,82.448l 157.816-82.448l-29.856,175.592l 128,124.432l-177.048,25.6L 256.024,468.48z M 256.024,397.376l 58.976-118.040l 132.976-19.216
	l-95.984-91.728l 22.776-129.416l-118.736,61.152l-118.784-61.152l 22.776,129.416L 64,260.12l 133,19.216L 256.024,397.376z"  />
<glyph unicode="&#xe022;" d="M 255.968,477.848L 44.824,268.816l 422.352,0 L 255.968,477.848z M 44.824,179.216
	l 211.144-209.056l 211.208,209.056L 44.824,179.216 z"  />
<glyph unicode="&#xe023;" d="M 511.976,364.776c0,14.264-13.52,25.6-29.856,25.6l-17.080,0 
	c-16.336,0-29.856-11.344-29.856-25.6l0-396.776 l 76.8,0 L 511.984,364.776 z M 294.4,454.4C 294.4,468.616, 280.88,480, 264.536,480l-17.056,0 
	c-16.36,0-29.88-11.384-29.88-25.6l0-486.392 l 76.8,0 L 294.4,454.4 z M 76.8,249.6c0,14.216-13.496,25.6-29.856,25.6L 29.88,275.2 
	C 13.544,275.2, 0.024,263.816, 0.024,249.6l0-281.6 l 76.776,0 L 76.8,249.6 z"  />
<glyph unicode="&#xe024;" d="M 134.416,412.416c-78.928-78.928-88.88-200.544-27.752-286.552l-2.848-2.136
	L 11.384,30.6c-14.936-14.264-14.936-37.688-0.72-51.912s 37.688-14.24, 51.888,0.696l 93.144,92.472l 2.176,2.824
	c 86.016-61.152, 207.624-51.2, 286.528,27.728c 88.184,87.448, 90.296,228.96, 4.28,314.304C 363.328,502.736, 221.856,500.584, 134.416,412.416z
	 M 164.968,381.84c 70.408,70.408, 183.464,71.824, 251.688,2.848c 69-68.264, 67.592-181.304-2.824-251.712c-70.384-70.384-183.44-71.8-251.688-2.848
	C 93.168,198.384, 94.576,311.456, 164.968,381.84z"  />
<glyph unicode="&#xe025;" d="M 205.544,314.336c-32.712-32.736-37.704-82.488-14.936-120.92
	c-0.744-0.696-1.44-1.416-2.152-2.112l-34.832-34.856c-9.952-9.232-9.952-24.88,0-34.832s 25.6-9.952, 34.832,0l 34.856,34.832
	c 0.696,0.72, 1.416,1.416, 2.112,2.152c 38.424-22.776, 88.184-17.776, 120.92,14.936c 38.376,38.4, 38.376,100.96-0.744,140.064
	C 306.504,352.72, 243.936,352.72, 205.544,314.336z M 227.552,292.28c 26.32,26.32, 69.712,26.32, 96.008-0.72
	c 27.032-26.296, 27.032-69.688, 0.72-96.008c-26.32-27.016-69.688-26.296-96.728,0C 201.264,222.592, 200.544,265.968, 227.552,292.28z M 0.024,224.024
	c0-141.512, 114.48-256, 256-256c 141.472,0, 255.952,114.48, 255.952,256c0,141.472-114.48,255.952-255.952,255.952
	C 114.504,479.976, 0.024,365.496, 0.024,224.024z M 32.016,224.024c0,123.696, 100.264,223.968, 224.016,223.968c 123.696,0, 223.968-100.264, 223.968-223.968
	c0-123.736-100.264-224.016-223.968-224.016C 132.28,0.016, 32.016,100.28, 32.016,224.024z"  />
<glyph unicode="&#xe026;" d="M 305.784,246.040c0,25.6-14.952,61.152-56.2,61.152
	s-56.152-28.424-56.152-59.024c0-16.336, 7.8-49.768, 20.6-63.976c 2.136-2.136, 14.952-11.384, 14.952-16.36c0-7.104-2.136-4.976-4.976-7.104
	c-15.664-35.552-115.2-20.648-115.2-81.776c0-7.104, 9.232-14.24, 9.232-21.312l 278.728,0 l0,34.808 c0,49.816-107.352,32.736-123.024,75.384
	C 302.224,201.272, 305.784,217.616, 305.784,246.040z M 473.568,351.976l0-345.552 L 38.4,6.432 L 38.4,351.976 L 473.568,351.976 z M 511.976,480L 0.024,480 l0-512 l 474.264,0 
	c 12.080,0, 17.056,4.28, 24.904,12.080c 8.52,7.872, 12.776,19.216, 12.776,30.6L 511.968,480 z"  />
<glyph unicode="&#xe027;" d="M 473.568,304.344l0-265.928 l0-31.992 l-32.712,0 l-340.592,0 L 64.024,6.432 l0-38.424 l 412.4,0 
	c 10.648,0, 17.776,3.584, 24.904,10.672c 7.104,7.104, 10.648,17.080, 10.648,26.32L 511.976,416 l-38.4,0 L 473.576,304.344 z M 409.576,364.776l0-294.376 L 38.4,70.4 l0,294.376 
	L 409.576,364.776 z M 448,480L 0.024,480 l0-448 l 412.424,0 c 10.648,0, 14.912,3.584, 22.032,10.696c 7.128,7.080, 13.52,19.192, 13.52,29.136L 448,480 z"  />
<glyph unicode="&#xe028;" d="M 473.568,351.976L 38.4,351.976 l0-345.552 l 435.176,0 L 473.568,351.976 z M 511.976,480l0-469.312 
	c0-11.384-4.256-22.728-12.776-30.6c-7.848-7.8-12.824-12.080-24.904-12.080L 0.024-31.992 L 0.024,480 L 511.976,480 z"  />
<glyph unicode="&#xe029;" d="M 494.928,266.704L 286.56,456.552c-22.728,29.16-46.2,29.16-68.976,0
	l0-118.736 L 39.128,337.816 c-21.312,0-39.096-21.336-39.096-48.376l0-134.392 c0-26.296, 17.056-47.632, 38.4-47.632l 179.152,0 l0-113.048 
	c 22.776-28.424, 46.248-34.856, 68.976-6.392l 208.36,190.536C 517.656,207.68, 517.656,237.544, 494.928,266.704z M 38.432,222.616l0,76.8 l 217.552,0 L 255.984,427.392 
	L 486.384,222.616L 255.984,17.84L 255.984,145.808 L 38.432,145.808 L 38.432,222.616 z"  />
<glyph unicode="&#xe02a;" d="M 213.312,462.912L 23.416,253.856c-29.12-22.032-29.12-45.504,0-68.24
	l 118.784,0 l0-178.456 c0-21.36, 21.296-39.136, 48.328-39.136l 134.392,0 c 26.32,0, 47.632,17.080, 47.632,38.4L 372.552,185.616 l 113.048,0 
	c 28.472,22.728, 34.856,46.2, 6.432,68.24L 301.448,462.912C 272.288,485.688, 242.432,485.688, 213.312,462.912z M 257.352,6.424l-76.776,0 L 180.576,224 L 52.576,224 
	L 257.352,454.392l 204.824-230.4L 334.16,224 l0-217.576 L 257.352,6.424 z"  />
<glyph unicode="&#xe02b;" d="M 115.2,294.376l0-38.376 L 268.8,256 l0,38.376 L 115.2,294.376 z M 166.4,217.576l0-63.976 
	l 230.376,0 l0,63.976 L 166.4,217.576 z M 473.568,396.776l0-345.576 L 38.4,51.2 l0,345.576 L 473.568,396.776 z M 485.656,435.168L 37.712,435.168 c-8.544,0-21.312-2.848-27.728-9.232
	C 3.584,418.808, 0.024,413.856, 0.024,405.312L 0.024,47.68 c0-8.568, 3.56-18.52, 9.952-25.648c 6.416-6.392, 19.192-9.216, 27.728-9.216l 447.952,0 
	c 8.544,0, 10.696,2.824, 17.080,9.216c 6.392,7.128, 9.232,17.080, 9.232,25.648L 511.976,405.312 c0,8.544-2.848,16.36-9.232,22.752
	C 496.352,434.48, 494.2,435.168, 485.656,435.168z"  />
<glyph unicode="&#xe02c;" d="M 473.568,44.8L 38.4,44.8 L 38.4,403.2 L 38.4,441.576 L 37.712,441.576 
	c-8.544,0-21.312-2.824-27.728-9.216C 3.584,425.232, 0.024,420.24, 0.024,411.712l0-370.44 c0-8.568, 3.56-18.52, 9.952-25.648
	c 6.416-6.392, 19.192-9.216, 27.728-9.216l 447.952,0 c 8.544,0, 10.696,2.824, 17.080,9.216c 6.392,7.128, 9.232,17.080, 9.232,25.648l0,3.512 L 473.568,44.792 z
	 M 435.176,185.6c0-21.312, 17.080-38.4, 38.4-38.4c 21.36,0, 38.4,17.080, 38.4,38.4s-17.032,38.4-38.4,38.4
	C 452.256,224, 435.176,206.92, 435.176,185.6z M 454.392,185.6c0,10.672, 8.52,19.192, 19.192,19.192s 19.192-8.52, 19.192-19.192
	s-8.52-19.192-19.192-19.192S 454.392,174.936, 454.392,185.6z M 260.256,321.424c 6.416-12.080, 19.192-20.624, 34.136-20.624
	c 15.64,0, 28.424,9.232, 34.856,22.032c 65.408-14.216, 99.536-68.976, 116.616-110.92c 4.952,5.696, 12.776,9.952, 20.6,11.384
	c-18.472,41.2-59.72,107.352-134.392,124.432c-4.256,17.032-19.192,29.856-37.688,29.856c-18.472,0-34.136-13.52-37.688-30.6
	c-85.344-24.88-125.872-129.392-139.368-175.632c-16.36-4.952-27.752-19.168-27.752-36.944c0-21.336, 17.080-38.4, 38.424-38.4
	c 21.296,0, 38.376,17.056, 38.376,38.4c0,14.936-8.52,27.704-21.336,34.112C 160.704,221.872, 194.848,300.8, 260.256,321.424z M 275.184,339.2
	c0,10.672, 8.544,19.192, 19.216,19.192c 10.648,0, 19.192-8.52, 19.192-19.192s-8.544-19.192-19.192-19.192
	C 283.728,320.016, 275.184,328.528, 275.184,339.2z M 108.816,134.424c0,10.648, 8.544,19.168, 19.216,19.168c 10.648,0, 19.192-8.52, 19.192-19.168
	c0-10.696-8.544-19.216-19.192-19.216C 117.36,115.216, 108.816,123.728, 108.816,134.424z"  />
<glyph unicode="&#xe02d;" d="M 473.568,376.16l0-331.36 L 38.4,44.8 L 38.4,376.16 l 193.408-193.408
	c 13.52-13.52, 34.856-13.52, 48.376,0L 473.568,376.16z M 59.744,403.2L 452.256,403.2 L 272.344,222.568c-9.232-8.52-23.448-8.52-32.712,0L 59.744,403.2z
	 M 485.656,441.576L 37.712,441.576 c-8.544,0-21.312-2.824-27.728-9.216C 3.584,425.232, 0.024,420.24, 0.024,411.712l0-370.44 c0-8.568, 3.56-18.52, 9.952-25.648
	c 6.416-6.392, 19.192-9.216, 27.728-9.216l 447.952,0 c 8.544,0, 10.696,2.824, 17.080,9.216c 6.392,7.128, 9.232,17.080, 9.232,25.648L 511.976,411.712 
	c0,8.52-2.848,16.36-9.232,22.752S 494.2,441.576, 485.656,441.576z"  />
<glyph unicode="&#xe02e;" d="M 298.616-14.92l 189.848,208.312c 29.16,22.776, 29.16,46.248,0,69
	L 369.72,262.392 L 369.72,440.864 C 369.72,462.224, 348.376,480, 322.088,480L 187.672,480 c-27.016,0-48.328-17.080-48.328-38.424l0-179.176 L 26.992,262.4 
	c-29.16-22.752-35.552-46.224-6.416-69l 189.864-208.312C 239.584-37.688, 269.448-37.688, 298.616-14.92z M 254.496,441.576l 76.8,0 l0-217.576 l 128.024,0 
	L 254.496-6.392L 49.744,224l 128,0 L 177.744,441.576 L 254.496,441.576 z"  />
<glyph unicode="&#xe02f;" d="M 17.080,181.384l 208.336-189.848c 22.752-29.16, 46.224-29.16, 68.976,0L 294.392,110.272 
	l 178.48,0 c 21.312,0, 39.096,21.36, 39.096,48.352L 511.968,292.32 c0,26.992-17.032,48.352-38.4,48.352L 294.4,340.672 L 294.4,453.024 c-22.752,29.136-46.224,35.552-68.976,6.392
	L 17.080,269.568C-5.672,240.408-5.672,210.552, 17.080,181.384z M 473.568,225.472l0-76.8 L 255.976,148.672 l0-127.976 L 25.624,225.472L 255.976,430.248l0-127.976 
	l 217.6,0 L 473.568,225.472 z"  />
<glyph unicode="&#xe030;" d="M 471.816,441.592l0-114.504 l 38.4-28.424L 510.216,450.088 
	c0,8.568-2.848,16.36-9.256,22.776c-6.392,6.392-8.52,7.128-17.056,7.128L 35.904,479.992 c-8.496,0-21.296-2.848-27.68-9.256
	C 1.784,463.608-1.76,458.656-1.76,450.088l0-447.232 c0-8.52, 3.536-18.472, 9.976-25.6c 6.392-6.392, 19.192-9.232, 27.68-9.232l 448,0 
	c 8.544,0, 10.672,2.848, 17.056,9.232c 6.416,7.128, 9.256,17.080, 9.256,25.6L 510.216,149.328 l-38.4-28.424l0-114.48 L 36.64,6.424 L 36.64,441.592 L 471.816,441.592 z M 139.040,198.392
	l 230.352,0 l0-2.136 l0-61.872 l 144.36,89.6L 369.392,313.576l0-61.848 l0-2.136 L 190.24,249.592 C 156.816,249.592, 139.040,231.816, 139.040,198.392z"  />
<glyph unicode="&#xe031;" d="M 461.144,166.416c 1.44,4.256, 2.136,8.52, 2.848,12.8l-37.704,9.232
	c-0.696-4.256-1.44-8.544-2.848-12.080c-26.272-103.12-131.512-165.688-234.632-139.368C 86.408,64.016, 23.872,169.24, 50.856,271.64
	C 77.2,374.752, 182.416,437.32, 285.512,410.312c 57.584-14.24, 102.376-54.048, 125.848-104.552l-55.44-32.688c-1.44-7.128, 2.112-14.216, 9.216-15.64
	l 99.552-25.6c 7.104-1.44, 14.24,2.136, 15.664,9.256l 25.576,99.536c 1.416,7.128-2.112,14.216-9.232,15.64l-51.888-30.552
	c-28.448,58.28-81.776,104.488-150.032,122.264C 171.032,480, 45.16,405.304, 13.168,281.592C-18.816,157.856, 55.824,32, 179.576,0.040
	C 303.288-32, 429.128,42.696, 461.144,166.416z"  />
<glyph unicode="&#xe032;" d="M 24.192,428.784C 10.696,428.784, 0.024,418.104, 0.024,405.304L 0.024,401.072 
	c0-12.824, 10.672-23.472, 24.168-23.472L 487.808,377.6 c 13.52,0, 24.168,10.648, 24.168,23.472L 511.976,405.304 c0,12.8-10.648,23.472-24.168,23.472L 24.192,428.784 z
	 M 24.192,249.6C 10.696,249.6, 0.024,238.928, 0.024,226.128l0-4.256 c0-12.8, 10.672-23.472, 24.168-23.472L 487.808,198.4 c 13.52,0, 24.168,10.672, 24.168,23.472l0,4.256 
	c0,12.8-10.648,23.472-24.168,23.472L 24.192,249.6 z M 24.192,70.4C 10.696,70.4, 0.024,59.76, 0.024,46.936l0-4.232 c0-12.8, 10.672-23.472, 24.168-23.472L 487.808,19.224 
	c 13.52,0, 24.168,10.672, 24.168,23.472l0,4.232 c0,12.824-10.648,23.472-24.168,23.472L 24.192,70.408 z"  />
<glyph unicode="&#xe004;" d="M 255.992-31.976c 141.496,0, 256,114.48, 256,255.952
	c0,141.512-114.504,256-256,256c-141.512,0-255.976-114.48-255.976-256C 0.016,82.504, 114.472-31.976, 255.992-31.976z
	 M 255.992,0.016c-123.736,0-223.968,100.264-223.968,223.968c0,123.736, 100.224,224.016, 223.968,224.016c 123.712,0, 223.992-100.264, 223.992-224.016
	C 479.976,100.28, 379.712,0.016, 255.992,0.016zM 161.048,218.72l0-25.6 l 41.248,0 l-44.768-48.352
	c-5.696-5.696-5-17.056, 1.416-24.168c 6.392-6.416, 14.936-7.104, 21.312-1.416l 44.792,48.328l0-38.376 l 25.624,0 L 250.672,218.72 L 161.048,218.72 zM 353.072,231.544l0,25.576 l-43.376,0 l 44.792,47.632
	c 5.696,5.696, 4.976,15.664-1.416,22.752c-6.432,6.416-14.264,7.104-19.952,0.72l-44.048-46.936L 289.080,321.12 l-25.624,0 l0-89.576 L 353.072,231.544 z"  />
<glyph unicode="&#xe001;" d="M 273.752-24.968l 71.848,80.344c 11.384,9.232, 11.384,18.496,0,27.752
	l-51.2,0 l0,71.8 c0,7.824-7.824,17.776-18.472,17.776L 236.096,172.704 c-10.672,0-18.496-7.080-18.496-15.64l0-73.928 l-42.632,0 
	c-10.696-9.256-17.776-18.52-6.432-27.752l 71.848-80.344C 251.024-34.208, 263.104-34.208, 273.752-24.968z M 153.6,390.28l0-76.8 l 25.624,0 l0,76.8 
	L 153.6,390.28 z M 115.2,390.28l0-76.8 l 12.824,0 l0,76.8 L 115.2,390.28 z M 217.6,390.28l0-76.8 l 64.024,0 l0,76.8 L 217.6,390.28 z M 89.6,390.28l0-76.8 l 12.824,0 l0,76.8 
	L 89.6,390.28 z M 409.576,390.28l0-76.8 l 12.824,0 l0,76.8 L 409.576,390.28 z M 371.192,390.28l0-76.8 l 12.8,0 l0,76.8 L 371.192,390.28 z M 307.2,390.28l0-76.8 l 25.576,0 l0,76.8 
	L 307.2,390.28 z M 473.568,441.48l0-179.176 L 38.4,262.296 L 38.4,441.48 L 473.568,441.48 z M 485.656,479.896L 37.712,479.896 c-8.544,0-21.312-2.864-27.728-9.256C 3.584,463.536, 0.024,458.536, 0.024,450.040
	l0-191.28 c0-8.544, 3.56-18.52, 9.952-25.624c 6.416-6.392, 19.192-9.232, 27.728-9.232l 447.952,0 c 8.544,0, 10.696,2.848, 17.080,9.232
	c 6.392,7.104, 9.232,17.080, 9.232,25.624L 511.976,450.040 c0,8.496-2.848,16.336-9.232,22.728S 494.2,479.896, 485.656,479.896z"  />
<glyph unicode="&#xe007;" d="M 134.44,243.232l0-38.424 l 102.376,0 l0-102.376 l 38.424,0 L 275.232,204.816 l 102.376,0 l0,38.424 
	L 275.232,243.232 L 275.232,345.608 l-38.424,0 l0-102.376 L 134.44,243.232 z M 0.024,224.024c0-141.512, 114.48-256, 256-256c 141.472,0, 255.952,114.48, 255.952,256
	c0,141.472-114.48,255.952-255.952,255.952C 114.504,479.976, 0.024,365.496, 0.024,224.024z M 32.016,224.024c0,123.696, 100.264,223.968, 224.016,223.968
	c 123.696,0, 223.968-100.264, 223.968-223.968c0-123.736-100.264-224.016-223.968-224.016C 132.28,0.016, 32.016,100.28, 32.016,224.024z"  />
<glyph unicode="&#xe006;" d="M 473.568,403.2L 38.424,403.2 l0-358.4 l 435.152,0 L 473.568,403.2 z M 485.656,441.576
	c 8.568,0, 10.672-0.72, 17.080-7.104c 6.392-6.392, 9.256-14.24, 9.256-22.752l0-370.44 c0-8.568-2.864-18.52-9.256-25.648
	c-6.416-6.392-8.52-9.216-17.080-9.216L 37.728,6.432 c-8.568,0-21.36,2.824-27.752,9.216c-6.392,7.128-9.976,17.080-9.976,25.648L-0.008,411.712 
	c0,8.52, 3.584,13.52, 9.976,20.648c 6.392,6.392, 19.192,9.216, 27.752,9.216L 485.656,441.568 zM 153.6,351.976L 179.192,351.976L 179.192,96.032L 153.6,96.032zM 115.224,351.976L 128.024,351.976L 128.024,96.032L 115.224,96.032zM 358.4,351.976L 383.968,351.976L 383.968,96.032L 358.4,96.032zM 217.6,351.976L 256,351.976L 256,96.032L 217.6,96.032zM 89.624,351.976L 102.4,351.976L 102.4,96.032L 89.624,96.032zM 409.6,351.976L 422.376,351.976L 422.376,96.032L 409.6,96.032zM 319.976,351.976L 332.8,351.976L 332.8,96.032L 319.976,96.032zM 294.4,351.976L 307.2,351.976L 307.2,96.032L 294.4,96.032z"  />
<glyph unicode="&#xe033;" d="M 256.024,479.976c-141.512,0-256-114.48-256-255.952c0-141.512, 114.48-256, 256-256
		c 141.472,0, 255.952,114.48, 255.952,256C 511.976,365.496, 397.496,479.976, 256.024,479.976z M 256.032,0.016
		c-123.744,0-224.016,100.264-224.016,224.016c0,123.688, 100.264,223.968, 224.016,223.968c 123.704,0, 223.968-100.264, 223.968-223.968
		C 480,100.288, 379.736,0.016, 256.032,0.016zM 134.256,243.2L 134.256,217.608L 134.256,204.808L 377.76,204.808L 377.76,243.2L 275.384,243.2 	z"  />
<glyph unicode="&#xe034;" d="M 153.6,390.28l0-76.808 l 25.624,0 l0,76.808 L 153.6,390.28 z M 115.2,390.28l0-76.808 l 12.824,0 l0,76.808 L 115.2,390.28 z M 217.6,390.28l0-76.808 
	l 64.024,0 l0,76.808 L 217.6,390.28 z M 89.6,390.28l0-76.808 l 12.824,0 l0,76.808 L 89.6,390.28 z M 409.576,390.28l0-76.808 l 12.824,0 l0,76.808 L 409.576,390.28 z M 371.184,390.28l0-76.808 
	l 12.808,0 l0,76.808 L 371.184,390.28 z M 307.2,390.28l0-76.808 l 25.576,0 l0,76.808 L 307.2,390.28 z M 473.568,441.48l0-179.176 L 38.4,262.296 L 38.4,441.48 L 473.568,441.48 z M 485.656,479.896L 37.712,479.896 
	c-8.544,0-21.312-2.864-27.728-9.256C 3.584,463.536, 0.024,458.536, 0.024,450.040l0-191.28 c0-8.544, 3.56-18.52, 9.952-25.624
	c 6.416-6.392, 19.192-9.232, 27.728-9.232l 447.952,0 c 8.544,0, 10.696,2.848, 17.080,9.232c 6.392,7.104, 9.232,17.080, 9.232,25.624L 511.976,450.040 
	c0,8.496-2.848,16.336-9.232,22.728C 496.352,479.16, 494.2,479.896, 485.656,479.896zM 353.824,78.984l-80.344,71.856c-9.232,11.376-18.496,11.376-27.76,0l0-51.2 L 173.92,99.648 c-7.816,0-17.776-7.816-17.776-18.472
	l0-39.832 c0-10.68, 7.080-18.496, 15.64-18.496l 73.92,0 l0-42.632 c 9.256-10.696, 18.528-17.776, 27.76-6.424L 353.816,45.624
	C 363.056,56.264, 363.056,68.344, 353.824,78.984z"  />
<glyph unicode="&#xe036;" d="M 33.136,151.536l 96.816,0 L 24.888,38.056c-13.368-13.36-11.736-40.032, 3.328-56.736
		c 14.984-15.040, 35.040-16.656, 50.016-3.312l 105.12,113.424l0-90.064 l 60.128,0 L 243.48,211.616 L 33.136,211.616 L 33.136,151.536 zM 483.808,466.92c-15.096,15.040-33.48,16.68-46.824,1.68L 333.616,358.448L 333.616,451.936 l-60.128,0 l0-210.24 l 210.336,0 l0,60.032 
		L 382.016,301.72 l 105.112,111.792C 500.488,426.88, 498.808,450.272, 483.808,466.92z"  />
<glyph unicode="&#xe035;" d="M 285.832,418.976l 96.816,0 L 277.592,305.496c-13.368-13.36-11.736-40.032, 3.32-56.744
		c 14.984-15.032, 35.048-16.648, 50.024-3.312l 105.12,113.424l0-90.064 L 496.184,268.8 L 496.184,479.056 L 285.832,479.056 L 285.832,418.976 zM 226.128,193.224c-15.088,15.040-33.472,16.68-46.816,1.688L 75.944,84.752L 75.944,178.24 L 15.808,178.24 l0-210.24 l 210.336,0 l0,60.040 L 124.352,28.040 
	l 105.104,111.784C 242.808,153.192, 241.136,176.576, 226.128,193.224z"  />
<glyph unicode="&#xe037;" d="M 125.744-27.352c-16.24,0-31.52,6.264-43.096,17.632l-63.872,56.152c-23.968,23.968-23.968,62.968,0,86.936l 42.112,42.136
		c 11.624,11.616, 27.064,18, 43.48,18c 16.424,0, 31.856-6.392, 43.464-17.992c-0.008,0.016-0.016,0.016-0.016,0.016
		c 0.072,0, 4.176-3.224, 10.16-3.224c 6.296,0, 10.52,3.576, 10.704,3.728l 132.224,132.256c-0.008-0.008-0.016-0.016-0.024-0.016
		c-0.056,0, 3.232,4.128, 3.232,10.16c0,3.832-1.344,6.912-2.464,8.8l-1.040,1.040c-23.968,23.968-23.968,62.968,0,86.936l 42.136,42.136
		c 11.608,11.608, 27.040,18.008, 43.464,18.008c 16.24,0, 31.52-6.256, 43.096-17.632l 63.88-56.152c 11.624-11.616, 18.016-27.056, 18.016-43.472
		c0-16.416-6.4-31.864-18.016-43.472L 169.224-9.344C 157.608-20.952, 142.176-27.352, 125.744-27.352z M 40.312,68.6l 63.816-56.104
		c 11.568-11.56, 31.696-11.552, 43.256,0l 323.968,323.968c 5.776,5.776, 8.96,13.464, 8.96,21.624c0,8.008-3.064,15.568-8.64,21.304l-63.816,56.104
		c-11.576,11.56-31.696,11.552-43.256,0.008l-42.128-42.136c-5.776-5.776-8.968-13.456-8.968-21.624c0-8.168, 3.184-15.848, 8.968-21.624
		l 4.024-4.384c 3.88-5.656, 8.528-14.976, 8.536-27.288c0-18.512-10.736-30.4-11.96-31.688L 189.96,153.656
		c-1.608-1.528-13.504-12.248-31.992-12.248c-18.496,0-30.376,10.712-31.664,11.936c-6.088,6.088-13.768,9.264-21.936,9.264
		c-8.168,0-15.856-3.184-21.632-8.968l-42.12-42.12C 28.808,99.712, 28.704,80.552, 40.312,68.6z"  />
<glyph unicode="&#xe038;" d="M 511.976,0.032L 0.024,0.032 l0,14.904 c0,6.096, 0.224,12.224, 0.456,18.344c 0.216,5.76, 0.44,11.52, 0.44,17.28
		c0,71.464, 67.096,89.912, 121.008,104.728c 33.776,9.28, 65.688,18.056, 74.688,36.032c 1.536,3.056, 3.12,6.456, 4.32,9.104
		c-1.848,2.512-6.296,7.312-10.296,11.632c-2.168,2.336-4.544,4.888-7.096,7.736c-12.392,13.728-41.2,52.28-41.2,113.576
		c0,70.040, 41.664,113.544, 108.744,113.544c 71.448,0, 108.816-58.904, 108.816-117.104c0-49.376-7.24-79.808-50.736-132.76
		c 14.144-20.888, 52.36-30.44, 89.44-39.712c 53.128-13.288, 113.36-28.344, 113.36-84.216L 511.968,0.032 z M 30.176,29.824l 451.992,0 l0,43.288 
		c0,30.408-34.296,41.168-90.776,55.296c-48.632,12.168-98.904,24.736-113.904,65.552l-3,8.168l 5.64,6.624
		c 45.472,53.416, 49.976,76.76, 49.976,121.056c0,30.2-16.512,87.304-79.016,87.304c-68.688,0-78.936-52.472-78.936-83.744
		c0-50.96, 23.44-82.448, 33.528-93.624c 2.448-2.72, 4.744-5.184, 6.816-7.424c 11.080-11.936, 19.072-20.56, 19.072-33.216l0-3.104 l-1.232-2.848
		c0,0-3.648-8.392-7.072-15.2c-14.952-29.824-53.072-40.312-93.432-51.408c-59.872-16.456-99.104-30.64-99.104-75.992
		c0-6.12-0.232-12.272-0.464-18.4C 30.232,31.368, 30.208,30.6, 30.176,29.824z"  />
<glyph unicode="&#xe039;" d="M 2.632,224.024c0-141.512, 114.48-256, 255.952-256c 141.512,0, 256,114.48, 256,256
	c0,141.464-114.48,255.952-256,255.952C 117.112,479.976, 2.632,365.496, 2.632,224.024z M 34.624,224.024c0,123.688, 100.264,223.968, 223.968,223.968
	c 123.744,0, 224.016-100.264, 224.016-223.968c0-123.736-100.264-224.016-224.016-224.016C 134.888,0.016, 34.624,100.28, 34.624,224.024z"  />
<glyph unicode="&#xe03a;" d="M 511.976,0.032L 0.024,0.032 l0,14.904 c0,6.096, 0.224,12.224, 0.456,18.344c 0.216,5.76, 0.44,11.52, 0.44,17.28
		c0,71.464, 67.096,89.912, 121.008,104.728c 33.776,9.28, 65.688,18.056, 74.688,36.032c 1.536,3.056, 3.12,6.456, 4.32,9.104
		c-1.848,2.512-6.296,7.312-10.296,11.632c-2.168,2.336-4.544,4.888-7.096,7.736c-12.392,13.728-41.2,52.28-41.2,113.576
		c0,70.040, 41.664,113.544, 108.744,113.544c 71.448,0, 108.816-58.904, 108.816-117.104c0-49.376-7.24-79.808-50.736-132.76
		c 14.144-20.888, 52.36-30.44, 89.44-39.712c 53.128-13.288, 113.36-28.344, 113.36-84.216L 511.968,0.032 z"  />
<glyph unicode="&#xe03b;" d="M 125.744-27.352c-16.24,0-31.52,6.264-43.096,17.632l-63.872,56.152c-23.968,23.968-23.968,62.968,0,86.936l 42.112,42.136
		c 11.624,11.616, 27.064,18, 43.48,18c 16.424,0, 31.856-6.392, 43.464-17.992c-0.008,0.016-0.016,0.016-0.016,0.016
		c 0.072,0, 4.176-3.224, 10.16-3.224c 6.296,0, 10.52,3.576, 10.704,3.728l 132.224,132.256c-0.008-0.008-0.016-0.016-0.024-0.016
		c-0.056,0, 3.232,4.128, 3.232,10.16c0,3.832-1.344,6.912-2.464,8.8l-1.040,1.040c-23.968,23.968-23.968,62.968,0,86.936l 42.136,42.136
		c 11.608,11.608, 27.040,18.008, 43.464,18.008c 16.24,0, 31.52-6.256, 43.096-17.632l 63.88-56.152c 11.624-11.616, 18.016-27.056, 18.016-43.472
		c0-16.416-6.4-31.864-18.016-43.472L 169.224-9.344C 157.608-20.952, 142.176-27.352, 125.744-27.352z"  />
<glyph unicode="&#xe03c;" d="M 2.632,224.024c0-141.512, 114.48-256, 255.952-256c 141.512,0, 256,114.48, 256,256
	c0,141.464-114.48,255.952-256,255.952C 117.112,479.976, 2.632,365.496, 2.632,224.024z"  />
<glyph unicode="&#xe03d;" d="M 306.096,266.832c0,3.448-1.568,25.8-14,25.8
	c-18.68,0-23.352-36.128-23.352-41.312c0-1.704, 1.576-29.248, 14.016-29.248C 299.856,222.088, 306.096,258.216, 306.096,266.832z M 407.192,266.832
	c0,3.448-1.576,25.8-14.016,25.8c-18.64,0-23.304-36.128-23.304-41.312c0-1.704, 1.536-29.248, 13.976-29.248
	C 400.944,222.088, 407.192,258.216, 407.192,266.832z M 70.648,479.616c-34.112,0-61.752-27.744-61.752-61.96l0-325.36 
	c0-34.216, 27.648-61.96, 61.752-61.96l 169.904,0 l 61.752-61.968l0,61.968 l 139.024,0 c 34.112,0, 61.76,27.736, 61.76,61.96L 503.088,417.656 
	c0,34.216-27.648,61.96-61.76,61.96L 70.648,479.616 z M 334.080,268.536c0-27.544-15.544-77.44-51.32-77.44c-3.104,0-9.248,1.808-12.712,3.008
	c-16.256,5.584-25.096,24.848-26.176,33.128c0,0-1.536,8.896-1.536,20.376c0,11.496, 1.536,22.664, 1.536,22.664
	c 7.776,37.864, 21.776,53.368, 48.224,53.368C 321.632,323.656, 334.080,294.376, 334.080,268.536z M 243.248,328.8c0-1.696-21.776-70.584-21.776-106.712
	l0-37.856 c-1.296-6.040-2.080-12.072-10.912-12.072c-23.304,0-44.44,75.736-46.008,80.92c-3.104-3.448-31.12-80.92-48.224-80.92
	c-12.432,0-21.776,56.824-23.304,61.968c-4.672,27.536-13.024,78.76-13.024,82.208c0,10.336, 0.576,19.368, 13.024,19.368
	c 3.104,0, 10.8-3.032, 11.856-8.584c 5.824-31.016, 8.344-60.256, 14.584-92.984c 0.928-1.464, 0.752-3.504, 2.28-5.216
	c 1.576,5.144, 33.464,84.392, 47.48,84.392c 11.272,0, 15.2-22.296, 16.768-30.912c 3.104-10.328, 6.544-27.608, 11.208-41.376
	c0,6.888, 6.24,101.56, 32.696,101.56C 239.192,342.568, 243.248,339.12, 243.248,328.8z M 435.16,268.536c0-27.544-15.544-77.44-51.32-77.44
	c-3.096,0-9.224,1.808-12.712,3.008c-16.216,5.584-25.088,24.848-26.144,33.128c0,0-1.944,8.96-1.944,20.448
	c0,11.488, 1.944,22.592, 1.944,22.592c 7.776,37.864, 21.744,53.368, 48.192,53.368C 422.728,323.656, 435.16,294.376, 435.16,268.536z"  />
<glyph unicode="&#x20;" horiz-adv-x="256" />
</font>
</defs>
</svg>
