<svg xmlns="http://www.w3.org/2000/svg" width="64" height="40" fill="none"><path fill="#FFB3C7" d="M0 0h64v40H0z"/><path fill="#0A0B09" fill-rule="evenodd" d="M57.463 23.008c-.85 0-1.538.694-1.538 1.55 0 .857.689 1.552 1.538 1.552.849 0 1.537-.694 1.537-1.551s-.688-1.551-1.537-1.551Zm-5.058-1.2c0-1.173-.994-2.123-2.22-2.123-1.225 0-2.219.95-2.219 2.123 0 1.173.994 2.124 2.22 2.124 1.225 0 2.219-.95 2.219-2.124Zm.008-4.127h2.45v8.255h-2.45v-.528a4.267 4.267 0 0 1-2.428.756c-2.384 0-4.317-1.95-4.317-4.356 0-2.405 1.933-4.355 4.317-4.355.9 0 1.736.28 2.428.756v-.528Zm-19.6 1.075v-1.075h-2.509v8.255h2.514V22.08c0-1.3 1.397-1.999 2.366-1.999l.029.001v-2.401c-.995 0-1.91.43-2.4 1.074Zm-6.247 3.052c0-1.173-.994-2.123-2.22-2.123-1.225 0-2.22.95-2.22 2.123 0 1.173.995 2.124 2.22 2.124 1.226 0 2.22-.95 2.22-2.124Zm.008-4.127h2.45v8.255h-2.45v-.528a4.267 4.267 0 0 1-2.428.756c-2.384 0-4.317-1.95-4.317-4.356 0-2.405 1.933-4.355 4.317-4.355.9 0 1.736.28 2.428.756v-.528Zm14.742-.222c-.978 0-1.904.306-2.523 1.152v-.93h-2.44v8.255h2.47v-4.338c0-1.256.834-1.87 1.838-1.87 1.077 0 1.696.649 1.696 1.853v4.355h2.446v-5.25c0-1.92-1.514-3.227-3.487-3.227Zm-25.055 8.477h2.564V14.002h-2.564v11.934ZM5 25.939h2.715V14H5v11.939ZM14.495 14c0 2.585-.998 4.99-2.777 6.776l3.752 5.163h-3.353L8.04 20.33l1.053-.796A6.876 6.876 0 0 0 11.838 14h2.657Z" clip-rule="evenodd"/></svg>
