<svg xmlns="http://www.w3.org/2000/svg" width="64" height="40" fill="none"><rect width="63" height="39" x=".5" y=".5" fill="#7F54B3" rx="3.5"/><g fill="#fff" clip-path="url(#clip0_1424_5139)"><path d="M38.038 16.186h2.636c.93 0 1.676.222 2.237.665.56.443.841 1.026.841 1.75 0 .76-.288 1.358-.856 1.786-.569.428-1.358.65-2.37.65h-.369v2.974h-2.133v-7.825h.014Zm2.127 1.499v1.845c.48-.007.834-.08 1.055-.229.229-.147.34-.376.34-.686 0-.34-.111-.576-.333-.709-.214-.14-.568-.214-1.063-.221ZM50.374 24.004h-2.215l-.361-1.307h-2.252l-.37 1.307h-2.17l2.488-7.825h2.392l2.488 7.825Zm-2.983-2.71a28.749 28.749 0 0 1-.715-3.321h-.03a31.87 31.87 0 0 1-.709 3.322h1.455ZM49.097 16.186h2.392c.531 1.122.915 1.993 1.151 2.599h.03c.236-.628.62-1.491 1.136-2.599h2.444l-2.517 4.282v3.536h-2.156v-3.536l-2.48-4.282Z"/><path fill-rule="evenodd" d="M33.07 13.071H10.356a2.604 2.604 0 0 0-2.606 2.598v8.667a2.602 2.602 0 0 0 2.598 2.599h10.763l4.924 2.738-1.114-2.738h8.15a2.602 2.602 0 0 0 2.598-2.599V15.67a2.602 2.602 0 0 0-2.599-2.599Zm-23.194 2a.964.964 0 0 0-.716.355.953.953 0 0 0-.177.782c.671 4.282 1.299 7.168 1.882 8.66.214.546.48.804.79.782.473-.037 1.048-.694 1.72-1.986l.544-1.085v-.002h.001v-.001c.305-.606.672-1.34 1.101-2.197.62 2.148 1.462 3.765 2.525 4.85.303.303.598.443.9.421a.722.722 0 0 0 .606-.413 1.36 1.36 0 0 0 .133-.746c-.074-1.04.037-2.495.317-4.348.288-1.92.657-3.292 1.1-4.12a.986.986 0 0 0 .11-.545.885.885 0 0 0-.346-.657.976.976 0 0 0-.716-.23.876.876 0 0 0-.753.503c-.701 1.292-1.203 3.388-1.506 6.282a21.627 21.627 0 0 1-1.078-3.898c-.125-.679-.435-.997-.937-.96-.347.023-.628.251-.857.68l-2.502 4.754c-.406-1.661-.79-3.684-1.144-6.061-.089-.583-.421-.856-.997-.82ZM26.53 17.22a2.663 2.663 0 0 0-1.823-1.322 2.952 2.952 0 0 0-.62-.066c-1.093 0-1.986.568-2.68 1.705a6.02 6.02 0 0 0-.886 3.211c0 .879.185 1.632.546 2.26a2.663 2.663 0 0 0 1.824 1.32c.206.045.413.067.62.067 1.1 0 1.993-.568 2.68-1.705.59-.975.9-2.09.885-3.234 0-.878-.184-1.623-.546-2.236Zm-1.44 3.167c-.154.745-.442 1.306-.87 1.69-.333.303-.643.42-.923.37-.28-.052-.502-.303-.672-.739a2.93 2.93 0 0 1-.2-1.04c0-.281.03-.562.082-.835.11-.487.31-.945.605-1.358.377-.554.775-.79 1.189-.702.28.06.502.303.671.739.126.332.2.679.2 1.033 0 .28-.023.561-.082.842Zm6.762-4.489c.775.148 1.44.635 1.824 1.322.361.613.546 1.358.546 2.236a6.077 6.077 0 0 1-.886 3.234c-.686 1.137-1.58 1.705-2.68 1.705-.206 0-.413-.022-.62-.066a2.663 2.663 0 0 1-1.823-1.322c-.362-.627-.546-1.38-.546-2.259a6.02 6.02 0 0 1 .886-3.21c.694-1.138 1.587-1.706 2.68-1.706.206 0 .413.022.62.066Zm-.487 6.18c.428-.385.716-.946.871-1.691.06-.28.081-.561.081-.842 0-.354-.073-.701-.199-1.033-.17-.436-.391-.68-.672-.739-.413-.088-.812.148-1.188.702a3.75 3.75 0 0 0-.605 1.358 4.497 4.497 0 0 0-.082.834c0 .362.074.709.2 1.041.17.436.39.687.671.738.28.052.59-.066.923-.369Z" clip-rule="evenodd"/></g><defs><clipPath id="clip0_1424_5139"><path fill="#fff" d="M7.75 4.502h48.5v30.995H7.75z"/></clipPath></defs></svg>
