<svg width="2500" height="1494" viewBox="0 0 256 153" xmlns="http://www.w3.org/2000/svg" preserveAspectRatio="xMidYMid"><path d="M23.759 0h208.378C245.325 0 256 10.675 256 23.863v79.541c0 13.188-10.675 23.863-23.863 23.863H157.41l10.257 25.118-45.109-25.118H23.863c-13.187 0-23.862-10.675-23.862-23.863V23.863C-.104 10.78 10.57 0 23.759 0z" fill="#9B5C8F"/><path d="M14.578 21.75c1.457-1.978 3.642-3.018 6.556-3.226 5.308-.417 8.326 2.08 9.054 7.492 3.226 21.75 6.764 40.17 10.51 55.259l22.79-43.395c2.082-3.955 4.684-6.036 7.806-6.244 4.579-.312 7.388 2.601 8.533 8.741 2.602 13.84 5.932 25.6 9.886 35.59 2.706-26.432 7.285-45.476 13.737-57.235 1.56-2.914 3.85-4.371 6.868-4.58 2.394-.207 4.579.521 6.556 2.082 1.977 1.561 3.018 3.538 3.226 5.932.104 1.873-.208 3.434-1.04 4.995-4.059 7.493-7.39 20.085-10.095 37.567-2.601 16.963-3.538 30.18-2.914 39.65.209 2.6-.208 4.89-1.248 6.868-1.25 2.289-3.122 3.538-5.516 3.746-2.706.208-5.515-1.04-8.221-3.85-9.678-9.887-17.379-24.664-22.998-44.332-6.765 13.32-11.76 23.31-14.986 29.97-6.14 11.76-11.343 17.796-15.714 18.108-2.81.208-5.203-2.186-7.284-7.18-5.307-13.633-11.031-39.962-17.17-78.986-.417-2.706.207-5.1 1.664-6.972zm223.636 16.338c-3.746-6.556-9.262-10.51-16.65-12.072-1.978-.416-3.85-.624-5.62-.624-9.99 0-18.107 5.203-24.455 15.61-5.412 8.845-8.117 18.627-8.117 29.346 0 8.013 1.665 14.881 4.995 20.605 3.746 6.556 9.262 10.51 16.65 12.071 1.977.417 3.85.625 5.62.625 10.094 0 18.211-5.203 24.455-15.61 5.411-8.95 8.117-18.732 8.117-29.45.104-8.117-1.665-14.882-4.995-20.501zm-13.112 28.826c-1.457 6.868-4.059 11.967-7.91 15.401-3.017 2.706-5.827 3.85-8.428 3.33-2.498-.52-4.58-2.705-6.14-6.764-1.25-3.226-1.873-6.452-1.873-9.47 0-2.601.208-5.203.728-7.596.937-4.267 2.706-8.43 5.515-12.384 3.435-5.1 7.077-7.18 10.823-6.452 2.498.52 4.58 2.706 6.14 6.764 1.249 3.226 1.873 6.452 1.873 9.47 0 2.706-.208 5.307-.728 7.7zm-52.033-28.826c-3.746-6.556-9.366-10.51-16.65-12.072-1.977-.416-3.85-.624-5.62-.624-9.99 0-18.107 5.203-24.455 15.61-5.411 8.845-8.117 18.627-8.117 29.346 0 8.013 1.665 14.881 4.995 20.605 3.746 6.556 9.262 10.51 16.65 12.071 1.978.417 3.85.625 5.62.625 10.094 0 18.211-5.203 24.455-15.61 5.412-8.95 8.117-18.732 8.117-29.45 0-8.117-1.665-14.882-4.995-20.501zm-13.216 28.826c-1.457 6.868-4.059 11.967-7.909 15.401-3.018 2.706-5.828 3.85-8.43 3.33-2.497-.52-4.578-2.705-6.14-6.764-1.248-3.226-1.872-6.452-1.872-9.47 0-2.601.208-5.203.728-7.596.937-4.267 2.706-8.43 5.516-12.384 3.434-5.1 7.076-7.18 10.822-6.452 2.498.52 4.58 2.706 6.14 6.764 1.25 3.226 1.873 6.452 1.873 9.47.105 2.706-.208 5.307-.728 7.7z" fill="#FFF"/></svg>