<svg width="453" height="73" viewBox="0 0 453 73" fill="none"
    xmlns="http://www.w3.org/2000/svg">
    <rect width="3.88561" height="12.2119" rx="1.94281" transform="matrix(-0.825943 0.563754 0.563755 0.825942 404.047 48.594)" fill="#64CA43"/>
    <rect width="3.05264" height="9.59401" rx="1.52632" transform="matrix(-0.672177 0.740391 0.740391 0.672176 417.97 13.4998)" fill="#FF2D55"/>
    <rect width="3.64276" height="11.4487" rx="1.82138" transform="matrix(-0.6382 -0.769871 -0.769872 0.638198 391.795 24.9504)" fill="#117AC9"/>
    <rect width="3.88561" height="12.2119" rx="1.9428" transform="matrix(-0.404372 -0.914595 -0.914595 0.404371 170.94 14.6914)" fill="#FF8085"/>
    <rect width="5.34271" height="16.7914" rx="2.67136" transform="matrix(0.39264 0.919692 0.919692 -0.392642 328.119 50.6055)" fill="#FF8085"/>
    <circle r="3.43422" transform="matrix(-0.949193 -0.314694 -0.314694 0.949193 433.694 60.544)" fill="#F0B849"/>
    <ellipse rx="2.28948" ry="2.28948" transform="matrix(-0.949193 -0.314695 -0.314693 0.949194 449.993 44.0008)" fill="#BF5AF2"/>
    <ellipse rx="1.52632" ry="1.52632" transform="matrix(-0.949194 -0.314692 -0.314695 0.949193 373.339 63.31)" fill="#BF5AF2"/>
    <ellipse rx="2.28948" ry="2.28948" transform="matrix(-0.949194 -0.314692 -0.314695 0.949193 160.713 54.097)" fill="#09B585"/>
    <rect x="314.273" y="17.2192" width="5.34271" height="16.7914" rx="2.67136" transform="rotate(-51.7958 314.273 17.2192)" fill="#984A9C"/>
    <rect width="3.88561" height="12.2119" rx="1.9428" transform="matrix(0.618465 -0.785812 0.78581 0.618467 27.061 34.741)" fill="#64CA43"/>
    <rect width="3.64276" height="11.4487" rx="1.82138" transform="matrix(-0.988881 -0.148711 0.148714 -0.98888 267.602 27.863)" fill="#E7C037"/>
    <rect width="3.00682" height="9.45" rx="1.50341" transform="matrix(0.226971 0.973902 -0.973902 0.226968 212.204 51)" fill="#E7C037"/>
    <rect width="3.88561" height="12.2119" rx="1.9428" transform="matrix(0.78581 0.618468 -0.618465 0.785812 269.396 56.8789)" fill="#3361CC"/>
    <circle cx="90.527" cy="45.6926" r="3.43422" transform="rotate(-1.79578 90.527 45.6926)" fill="#F0B849"/>
    <circle cx="59.8596" cy="27.1158" r="2.28948" transform="rotate(-1.79576 59.8596 27.1158)" fill="#BF5AF2"/>
    <circle cx="307.109" cy="60.7663" r="1.52632" transform="rotate(-1.79574 307.109 60.7663)" fill="#F0C930"/>
    <circle cx="357.311" cy="28.5444" r="1.52632" transform="rotate(-1.79574 357.311 28.5444)" fill="#F0C930"/>
    <ellipse cx="237.248" cy="47.3674" rx="1.52632" ry="1.52632" transform="rotate(-1.79578 237.248 47.3674)" fill="#3361CC"/>
    <circle cx="290.869" cy="39.9329" r="1.9079" transform="rotate(-1.79577 290.869 39.9329)" fill="#37E688"/>
    <rect width="3.88561" height="12.2119" rx="1.9428" transform="matrix(0.336735 -0.941599 0.941599 0.336737 108.684 60.751)" fill="#64CA43"/>
    <rect x="131.252" y="25.1282" width="3.88561" height="12.2119" rx="1.9428" transform="rotate(5.81869 131.252 25.1282)" fill="#3361CC"/>
    <ellipse rx="3.43422" ry="3.43422" transform="matrix(0.827262 -0.561816 0.561811 0.827266 21.4569 67.7751)" fill="#F0B849"/>
    <circle cx="195.819" cy="33.1654" r="2.28948" transform="rotate(-34.1813 195.819 33.1654)" fill="#BF5AF2"/>
    <circle r="1.52632" transform="matrix(0.827266 -0.56181 0.561818 0.827261 64.254 65.9745)" fill="#3361CC"/>
    <ellipse rx="1.9079" ry="1.9079" transform="matrix(0.827265 -0.561812 0.561815 0.827263 2.58724 48.3031)" fill="#37E688"/>
    <ellipse rx="1.9079" ry="1.9079" transform="matrix(0.827265 -0.561812 0.561815 0.827263 27.9769 15.6493)" fill="#F0C930"/>
    <ellipse cx="231.367" cy="21.336" rx="2.28948" ry="2.28948" transform="rotate(-34.1813 231.367 21.336)" fill="#09B585"/>
    <ellipse rx="2.28948" ry="2.28948" transform="matrix(0.827267 -0.561809 0.561819 0.82726 100.164 15.4271)" fill="#FF3B30"/>
</svg>
