<svg width="312" height="222" viewBox="0 0 312 222" fill="none" xmlns="http://www.w3.org/2000/svg">
<rect width="312" height="222" fill="#F6F7F7"/>
<path d="M87.6168 96L92 96L92 135L92 174L87.6168 174C87.6168 156.805 82.1737 139.763 77.5075 139.763C66.1856 139.763 60.3578 146.362 52.0988 146.362C47.2305 146.362 40 144.478 40 135C40 125.527 47.2305 123.638 52.0988 123.638C60.3578 123.638 66.1856 130.237 77.5075 130.237C82.1737 130.237 87.6168 113.195 87.6168 96ZM45.7754 135C45.7754 137.175 47.5763 138.94 49.7949 138.94C52.0135 138.94 53.8144 137.175 53.8144 135C53.8144 132.825 52.0135 131.06 49.7949 131.06C47.5763 131.06 45.7754 132.825 45.7754 135Z" fill="#FF6BBB"/>
<path d="M91.8418 96L174.842 96L174.842 135L174.842 174L91.8418 174L91.8418 96Z" fill="#966CCF"/>
<g style="mix-blend-mode:soft-light">
<path d="M175 174L153.339 174C128.943 171.352 104 165.176 104 157.441C104 145.4 131.103 147.776 131.103 139.435C131.103 131.093 117.909 135.078 117.909 125.438C117.909 115.797 152.495 113 174.984 113L174.984 174L175 174Z" fill="white"/>
</g>
<rect x="193" y="49" width="51" height="51" rx="25.5" fill="#FFC350"/>
<rect x="193" y="49" width="51" height="51" rx="25.5" fill="url(#paint0_linear_1997_17544)"/>
<path d="M219.619 84.0169L217.458 78.7849H206.589L204.428 84.0169H203.348L211.471 64.5217H212.58L220.703 84.0169H219.622H219.619ZM212.024 65.6027L206.938 77.9082H217.106L212.02 65.6027H212.024Z" fill="white"/>
<path d="M232.944 84.0169V82.2918C231.627 83.7247 230.051 84.3657 228.065 84.3657C225.581 84.3657 223.127 82.6688 223.127 79.6585C223.127 76.6481 225.552 74.9512 228.065 74.9512C230.054 74.9512 231.631 75.5954 232.944 77.0252V73.8388C232.944 71.5575 231.131 70.3319 228.97 70.3319C227.129 70.3319 225.757 70.9761 224.44 72.5536L223.768 71.9691C225.141 70.3602 226.602 69.5432 228.97 69.5432C231.747 69.5432 233.82 70.9478 233.82 73.8105V84.0106H232.944V84.0169ZM232.944 81.415V77.9082C231.863 76.4753 230.139 75.7462 228.298 75.7462C225.725 75.7462 224.092 77.4714 224.092 79.6616C224.092 81.8518 225.728 83.577 228.298 83.577C230.139 83.577 231.863 82.848 232.944 81.415Z" fill="white"/>
<g style="mix-blend-mode:multiply">
<rect x="92" y="49" width="83" height="28" rx="14" fill="#007CBA"/>
<rect x="92" y="49" width="83" height="28" rx="14" fill="url(#paint1_linear_1997_17544)" fill-opacity="0.4"/>
<path d="M160.655 70.3093C164.882 70.3093 168.309 66.8822 168.309 62.6547C168.309 58.4271 164.882 55 160.655 55C156.427 55 153 58.4271 153 62.6547C153 66.8822 156.427 70.3093 160.655 70.3093Z" fill="white"/>
</g>
<circle cx="218" cy="167" r="6.44257" transform="rotate(-90 218 167)" stroke="#BBBBBB" stroke-width="1.11486"/>
<circle cx="218" cy="121" r="6.44257" transform="rotate(-90 218 121)" stroke="#BBBBBB" stroke-width="1.11486"/>
<ellipse cx="218" cy="144" rx="7" ry="7" transform="rotate(-90 218 144)" fill="#007CBA"/>
<circle cx="218" cy="144" r="10.4426" transform="rotate(-90 218 144)" stroke="#BBBBBB" stroke-width="1.11486"/>
<defs>
<linearGradient id="paint0_linear_1997_17544" x1="207.845" y1="52.0186" x2="224.58" y2="97.7763" gradientUnits="userSpaceOnUse">
<stop stop-color="#FBA500"/>
<stop offset="1" stop-color="#FBA500" stop-opacity="0"/>
</linearGradient>
<linearGradient id="paint1_linear_1997_17544" x1="94" y1="55" x2="116.529" y2="74.1452" gradientUnits="userSpaceOnUse">
<stop stop-color="#2508D3"/>
<stop offset="1" stop-color="#2508D3" stop-opacity="0"/>
</linearGradient>
</defs>
</svg>
