<svg width="104" height="110" viewBox="0 0 104 110" fill="none" xmlns="http://www.w3.org/2000/svg">
    <g clip-path="url(#clip0_1698_181575)">
        <rect width="104" height="110" fill="white" />
        <path
            d="M80.416 22H78.367V61.135H77.6432V22H75.5942C75.5942 40.173 65.7976 52.778 57 57.7902L67.5 87H88.5L99 57.7902C90.2126 52.778 80.416 40.173 80.416 22Z"
            fill="#F2EDFF" />
        <path
            d="M88.5503 87H67.4393C64.4175 90.3568 62 99.44 62 105H94C94 99.4503 91.5721 90.3568 88.5607 87H88.5503Z"
            fill="#CFB9F6" />
        <path
            d="M63.365 96C62.521 99.149 62 102.443 62 105H94C94 102.443 93.479 99.149 92.635 96H63.365Z"
            fill="#3C2861" />
        <path
            d="M80.416 22H78.367V61.135H77.6432V22H75.5942C75.5942 40.173 65.7976 52.778 57 57.7902L67.5 87H88.5L99 57.7902C90.2126 52.778 80.416 40.173 80.416 22Z"
            fill="#EAE2FF" />
        <path
            d="M88.5503 87H67.4393C64.4175 90.3568 62 99.44 62 105H94C94 99.4503 91.5721 90.3568 88.5607 87H88.5503Z"
            fill="#CFB9F6" />
        <path
            d="M63.365 96C62.521 99.149 62 102.443 62 105H94C94 102.443 93.479 99.149 92.635 96H63.365Z"
            fill="#3C2861" />
        <path d="M77 8.00001L8 8" stroke="#3C2861" stroke-width="0.7" />
        <path d="M8 8L8 51" stroke="#3C2861" stroke-width="0.7" />
        <rect x="15" y="14" width="46" height="5" fill="#E5E5E5" />
        <rect x="15" y="24" width="46" height="5" fill="#E5E5E5" />
        <rect x="15" y="34" width="25" height="5" fill="#E5E5E5" />
        <circle cx="78" cy="8" r="3" fill="#3C2861" />
        <circle cx="8" cy="8" r="3" fill="#3C2861" />
        <circle cx="8" cy="52" r="3" transform="rotate(-90 8 52)" fill="#3C2861" />
    </g>
    <defs>
        <clipPath id="clip0_1698_181575">
            <rect width="104" height="110" fill="white" />
        </clipPath>
    </defs>
</svg>
    