<svg width="104" height="110" viewBox="0 0 104 110" fill="none" xmlns="http://www.w3.org/2000/svg">
<g clip-path="url(#clip0_858_55512)">
<rect width="104" height="110" fill="white"/>
<g clip-path="url(#clip1_858_55512)">
<path d="M76.1002 82.8574C68.9394 82.8574 62.58 86.3335 58.587 91.7083C58.4115 85.878 56.4151 79.0312 52.0427 79.0312C48.3959 79.0312 46.3235 85.1636 45.9726 88.5103C39.1769 86.5972 34.1311 90.9556 33.2491 96.666C30.5839 92.6289 26.0361 89.9679 20.8718 89.9679C12.6581 89.9679 6 96.6995 6 105.004H98C98 92.7775 88.193 82.8622 76.1002 82.8622V82.8574Z" fill="#E5E5E5"/>
<path d="M52.0002 6C34.6957 17.7996 31.2148 42.4825 31.2148 62.5769H72.7856C72.7856 42.4825 69.3047 17.7996 52.0002 6Z" fill="#F2EDFF"/>
<path d="M63.2052 99.4371L60.0137 81.7305L60.5069 81.625L64.1347 99.2406L63.2052 99.4371Z" fill="#3C2861"/>
<path d="M40.7937 99.4371L39.8643 99.2406L43.4921 81.625L44.0896 81.7497L40.7937 99.4371Z" fill="#3C2861"/>
<path d="M38.4945 94.264L37.6172 94.0578L39.7939 84.7227L40.2444 84.8281L38.4945 94.264Z" fill="#3C2861"/>
<path d="M59.301 62.5781H44.7039C42.6223 64.8834 40.9375 71.159 40.9375 74.9671H63.0632C63.0632 71.159 61.3784 64.9176 59.2968 62.5781H59.301Z" fill="#3C2861"/>
<path d="M41.8622 68.8242C41.2668 70.9929 40.9375 73.2299 40.9375 75.0016H63.0632C63.0632 73.2641 62.7001 70.9929 62.1385 68.8242H41.8622Z" fill="#CFB9F6"/>
<path d="M52 50C58.0751 50 63 45.0751 63 39C63 32.9249 58.0751 28 52 28C45.9249 28 41 32.9249 41 39C41 45.0751 45.9249 50 52 50Z" fill="#CFB9F6"/>
<path d="M52 46C55.866 46 59 42.866 59 39C59 35.134 55.866 32 52 32C48.134 32 45 35.134 45 39C45 42.866 48.134 46 52 46Z" fill="white"/>
</g>
</g>
<defs>
<clipPath id="clip0_858_55512">
<rect width="104" height="110" fill="white"/>
</clipPath>
<clipPath id="clip1_858_55512">
<rect width="92" height="99" fill="white" transform="translate(6 6)"/>
</clipPath>
</defs>
</svg>
