<svg width="94" height="100" viewBox="0 0 94 100" fill="none" xmlns="http://www.w3.org/2000/svg">
<path d="M90.2885 53H17.7115C15.659 53 14 54.675 14 56.7392V96.2608C14 98.325 15.659 100 17.7115 100H90.2885C92.341 100 94 98.325 94 96.2608V56.7392C94 54.675 92.341 53 90.2885 53Z" fill="#EAE2FF"/>
<path d="M90.3561 100C92.3712 100 94.0001 98.2812 94.0001 96.1633V75C74.3401 75 56.6921 84.5196 44.9092 100H90.3561Z" fill="#CFB9F6"/>
<path d="M94 64H14V70.477H94V64Z" fill="#3C2861"/>
<rect x="21" y="77" width="36" height="5" fill="white"/>
<rect x="21" y="87" width="20" height="5" fill="white"/>
<circle cx="78" cy="16" r="16" fill="#EAE2FF"/>
<circle cx="16" cy="27" r="16" fill="#E5E5E5"/>
<path d="M15.55 37.7V35.5C13.075 35.425 11.15 34.325 10 32.85L10.65 32.275C11.625 33.475 13.275 34.65 15.55 34.75V26.8C13.025 26.1 10.525 25.35 10.525 22.5C10.525 19.875 12.875 18.325 15.55 18.25V16H16.35V18.275C18.475 18.4 20.075 19.275 21.15 20.6L20.525 21.175C19.475 19.825 18.025 19.15 16.35 19.025V26.15C18.925 26.9 21.525 27.825 21.525 30.975C21.525 32.775 20.425 35.275 16.35 35.475V37.7H15.55ZM20.65 30.975C20.65 28.5 18.6 27.7 16.35 27.025V34.75C19.75 34.55 20.65 32.475 20.65 30.975ZM11.4 22.5C11.4 24.6 13.35 25.275 15.55 25.925V19C13.225 19.075 11.4 20.525 11.4 22.5Z" fill="white"/>
</svg>
