<svg width="104" height="110" viewBox="0 0 104 110" fill="none" xmlns="http://www.w3.org/2000/svg">
<rect width="104" height="110" fill="white"/>
<path d="M60.9592 63.8646C60.9592 57.8878 55.8092 53.0465 49.4692 53.0465C43.1292 53.0465 37.9792 57.8981 37.9792 63.8646C37.9792 69.831 43.1292 74.6826 49.4692 74.6826C55.8092 74.6826 60.9592 69.831 60.9592 63.8646Z" fill="#3C2861"/>
<path d="M54.4893 63.2968L49.8993 33L48.7193 33.1961C44.6093 52.6645 28.0693 58.0219 15.1793 60.1071C10.6493 60.84 3.99931 63.7716 5.13931 71.2864C6.27931 78.8013 12.9493 79.5858 17.4793 78.8529C19.7093 78.4916 22.0893 78.1923 24.5493 78.0271V105H25.8093C34.3493 105 36.3993 101.15 35.3393 95.2245C34.6393 91.3019 33.1493 83.3019 32.1993 78.1097C41.8493 78.9664 51.8893 83.0955 57.9093 93.831L59.0893 93.6348L54.4893 63.3071V63.2968Z" fill="#EAE2FF"/>
<path d="M5.1293 71.2762C6.2693 78.791 12.9393 79.5755 17.4693 78.8426C18.0393 78.7497 18.6193 78.6671 19.2093 78.5846L16.3493 59.911C15.9593 59.9833 15.5593 60.0452 15.1693 60.1071C10.6393 60.84 3.9893 63.7717 5.1293 71.2865V71.2762Z" fill="#CFB9F6"/>
<path d="M99 5H59V39L70 39V49L80.1249 39H99V5Z" fill="#E5E5E5"/>
<circle cx="70" cy="22" r="2" transform="rotate(-90 70 22)" fill="white"/>
<circle cx="79" cy="22" r="2" transform="rotate(-90 79 22)" fill="white"/>
<circle cx="88" cy="22" r="2" transform="rotate(-90 88 22)" fill="white"/>
</svg>
