<svg width="104" height="110" viewBox="0 0 104 110" fill="none" xmlns="http://www.w3.org/2000/svg">
<rect width="104" height="110" fill="white"/>
<rect x="33" y="5" width="66" height="66" rx="3" fill="#EAE2FF"/>
<circle cx="21" cy="21" r="16" fill="#CFB9F6"/>
<path d="M21 13V29" stroke="white" stroke-width="0.7"/>
<path d="M29 21L13 21" stroke="white" stroke-width="0.7"/>
<rect x="33" y="84" width="66" height="7" fill="#E5E5E5"/>
<path d="M40.8601 47.4101C41.2901 46.9301 48.4101 39.8101 49.3401 38.8901C50.1901 38.0601 51.2601 37.7001 52.5401 37.6001C53.5601 37.5301 87.0301 35.0701 87.0301 35.0701L87.5701 37.6501C87.5701 37.6501 52.2001 41.2001 52.1701 41.2001C49.3701 44.9101 45.3601 50.6401 44.9901 51.0601C43.9801 52.2001 42.2301 52.3001 41.0801 51.3001C39.9501 50.2801 39.8501 48.5301 40.8601 47.3901V47.4101Z" fill="#CFB9F6"/>
<path d="M90.8699 47.4101C90.4399 46.9301 83.3199 39.8101 82.3899 38.8901C81.5399 38.0601 80.4699 37.7001 79.1899 37.6001C78.1699 37.5301 44.6999 35.0701 44.6999 35.0701L44.1599 37.6501C44.1599 37.6501 79.5299 41.2001 79.5599 41.2001C82.3599 44.9101 86.3699 50.6401 86.7399 51.0601C87.7499 52.2001 89.4999 52.3001 90.6499 51.3001C91.7799 50.2801 91.8799 48.5301 90.8699 47.3901V47.4101Z" fill="#CFB9F6"/>
<path d="M78.43 29C70.31 29 68.07 34.89 65.87 34.89C63.67 34.89 61.43 29 53.3 29C48.16 29 42.79 32.31 40 33.65V37.68H43C43.41 40.26 45.5 47.72 53.38 47.72C62.19 47.72 62.38 38.75 65.86 38.75C69.34 38.75 69.54 47.72 78.34 47.72C86.22 47.72 88.31 40.27 88.72 37.68H91.72V33.65C88.93 32.31 83.56 29 78.42 29H78.43ZM53.38 45.27C48.92 45.27 45.93 41.32 45.93 37.37C45.93 33.05 49.83 31.35 53.46 31.35C57.09 31.35 61.22 33.25 61.22 37.09C61.22 41.5 57.98 45.27 53.39 45.27H53.38ZM78.35 45.27C73.75 45.27 70.52 41.5 70.52 37.09C70.52 33.25 74.64 31.35 78.28 31.35C81.92 31.35 85.81 33.05 85.81 37.37C85.81 41.33 82.81 45.27 78.36 45.27H78.35Z" fill="#3C2861"/>
<rect x="33" y="98" width="41" height="7" fill="#E5E5E5"/>
</svg>
