<svg width="104" height="110" viewBox="0 0 104 110" fill="none" xmlns="http://www.w3.org/2000/svg">
<rect width="104" height="110" fill="white"/>
<path d="M67 39H16V95H67V39Z" fill="#CFB9F6"/>
<path d="M27.0965 105C30.9625 105 34.0749 101.866 34.0482 97.9998C34.0216 94.1339 30.866 91 27 91C23.134 91 20.0216 94.1339 20.0482 97.9998C20.0749 101.866 23.2305 105 27.0965 105Z" fill="#3C2861"/>
<path d="M57 5H5V39H31H57V5Z" fill="#E5E5E5"/>
<path d="M62 44H43V65H52.5H62V44Z" fill="white"/>
<rect x="46" y="53" width="13" height="3" fill="#E5E5E5"/>
<rect x="46" y="47" width="13" height="3" fill="#E5E5E5"/>
<rect x="46" y="59" width="8" height="3" fill="#E5E5E5"/>
<path fill-rule="evenodd" clip-rule="evenodd" d="M67 71.5L16 71.5L16 70.5L67 70.5L67 71.5Z" fill="#3C2861"/>
<path fill-rule="evenodd" clip-rule="evenodd" d="M32.4998 5L43.9961 95L42.9998 95L31.9998 5L32.4998 5Z" fill="#3C2861"/>
<path d="M27.8268 11.0462C27.0825 11.0462 26.444 10.6182 26.1456 10.0017L24.6778 10.0017C24.3794 10.6182 23.7392 11.0462 22.9966 11.0462C22.254 11.0462 21.6138 10.6182 21.3154 10.0017L19.8477 10.0017C19.5492 10.6182 18.909 11.0462 18.1665 11.0462C17.4239 11.0462 16.7837 10.6182 16.4853 10.0017L15.0175 10.0017C14.7191 10.6182 14.0789 11.0462 13.3363 11.0462C12.5938 11.0462 11.9536 10.6182 11.6552 10.0017L10 10.0017L10 12.0719C10.7009 12.3335 11.2006 12.9958 11.2006 13.7736C11.2006 14.5514 10.7009 15.2138 10 15.4753L10 16.8C10.7009 17.0615 11.2006 17.7239 11.2006 18.5017C11.2006 19.2795 10.7009 19.9419 10 20.2034L10 21.5281C10.7009 21.7896 11.2006 22.4519 11.2006 23.2298C11.2006 24.0076 10.7009 24.6682 10 24.9298L10 27L11.6569 27C11.9553 26.3835 12.5955 25.9555 13.3381 25.9555C14.0806 25.9555 14.7208 26.3835 15.0192 27L16.487 27C16.7854 26.3835 17.4256 25.9555 18.1682 25.9555C18.9108 25.9555 19.551 26.3835 19.8494 27L21.3172 27C21.6156 26.3835 22.2558 25.9555 22.9983 25.9555C23.7409 25.9555 24.3811 26.3835 24.6795 27L26.1473 27C26.4457 26.3835 27.0859 25.9555 27.8285 25.9555C28.5711 25.9555 29.2113 26.3835 29.5097 27L31 27L31 24.8584C30.3876 24.5595 29.966 23.9431 29.966 23.2281C29.966 22.5131 30.3876 21.8966 31 21.5977L31 20.1304C30.3876 19.8315 29.966 19.215 29.966 18.5C29.966 17.785 30.3876 17.1685 31 16.8696L31 15.4023C30.3876 15.1034 29.966 14.4869 29.966 13.7719C29.966 13.0569 30.3876 12.4405 31 12.1416L31 10L29.5097 10C29.2113 10.6165 28.571 11.0445 27.8285 11.0445L27.8268 11.0462Z" fill="white"/>
<path d="M87.7429 79.5C87.7429 79.5 84.4857 69.337 83.5714 66.466C82.6571 63.595 80.3829 62 76.8857 62H67V95H94.6343C97.0457 95 99 93.207 99 91.007V83.504C99 81.293 97.0457 79.511 94.6343 79.511L87.7429 79.5Z" fill="#EAE2FF"/>
<path d="M83 79.5C83 79.5 80.7006 71.8362 80.0551 69.5525C79.4097 67.2688 77.8041 66 75.3353 66H70.5V79.5H83Z" fill="white"/>
<path d="M82.0965 105C85.9625 105 89.0749 101.866 89.0482 97.9998C89.0216 94.1339 85.866 91 82 91C78.134 91 75.0216 94.1339 75.0482 97.9998C75.0749 101.866 78.2305 105 82.0965 105Z" fill="#3C2861"/>
<rect x="13" y="13" width="15" height="11" fill="#E5E5E5"/>
</svg>
