<svg width="104" height="110" viewBox="0 0 104 110" fill="none" xmlns="http://www.w3.org/2000/svg">
<rect width="104" height="110" fill="white"/>
<rect x="43" y="105" width="81" height="56" transform="rotate(-90 43 105)" fill="#EAE2FF"/>
<rect x="58" y="37" width="36" height="5" fill="white"/>
<rect x="48" y="37" width="5" height="5" fill="#3C2861"/>
<rect x="58" y="47" width="36" height="5" fill="white"/>
<rect x="58" y="57" width="22" height="5" fill="white"/>
<rect x="48" y="47" width="5" height="5" fill="#3C2861"/>
<rect x="48" y="57" width="5" height="5" fill="#3C2861"/>
<path fill-rule="evenodd" clip-rule="evenodd" d="M80.9626 93.211C83.1789 92.7876 84.6674 91.639 85.175 90.37C85.3971 89.8147 85.3793 89.3703 85.2389 89.0278C85.0967 88.6807 84.8113 88.3962 84.4248 88.1986C83.64 87.7974 82.5184 87.7971 81.6801 88.3001C80.6267 88.9321 80.0166 90.0659 80.0462 91.1832C80.0649 91.8928 80.3429 92.6161 80.9626 93.211ZM81.704 93.7606C83.7582 93.2224 85.2552 92.0544 85.825 90.63C86.1028 89.9353 86.1071 89.3003 85.8866 88.7624C85.6681 88.2291 85.2456 87.8321 84.7434 87.5754C83.751 87.068 82.3726 87.0683 81.3199 87.6999C80.0571 88.4575 79.3099 89.8238 79.3464 91.2017C79.3663 91.9529 79.6182 92.6934 80.127 93.3316C77.8111 93.5622 74.7069 93.3325 71.5 91.5L71.3264 91.8039C74.8844 93.837 78.1663 94.3528 80.732 93.9607C80.7391 93.9596 80.7462 93.9585 80.7533 93.9574C81.108 94.2428 81.5327 94.4928 82.0308 94.695C83.3467 95.2292 85.2864 95.1133 87.0742 94.2411C88.8769 93.3616 90.5552 91.7007 91.3352 89.1005L90.6647 88.8994C89.9448 91.2993 88.407 92.8119 86.7673 93.6119C85.1126 94.4192 83.3836 94.4886 82.2941 94.0464C82.0806 93.9598 81.8842 93.864 81.704 93.7606Z" fill="#3C2861"/>
<g clip-path="url(#clip0_3352_23776)">
<path d="M21.0022 12.5602C25.6574 12.5602 29.4443 16.347 29.4443 21.0022C29.4443 25.6574 25.6574 29.4443 21.0022 29.4443C16.347 29.4443 12.5602 25.6574 12.5602 21.0022C12.5602 16.347 16.347 12.5602 21.0022 12.5602ZM21.0022 5C12.1618 5 5 12.1618 5 21.0022C5 29.8426 12.1618 37.0045 21.0022 37.0045C29.8426 37.0045 37.0045 29.8426 37.0045 21.0022C37.0045 12.1618 29.8382 5 21.0022 5Z" fill="#CFB9F6"/>
<path d="M13.0838 7.09931L16.8886 13.6345C18.1061 12.9541 19.5071 12.5602 20.9977 12.5602V5C18.115 5 15.4159 5.76542 13.0793 7.09931H13.0838Z" fill="#C39EF7"/>
<path d="M13.0838 7.09931L16.8886 13.6345C18.1061 12.9541 19.5071 12.5602 20.9977 12.5602V5C18.115 5 15.4159 5.76542 13.0793 7.09931H13.0838Z" fill="#C39EF7"/>
<path d="M12.5602 21.0022C12.5602 17.8376 14.3104 15.0803 16.8931 13.6345L13.0884 7.0993C8.25416 9.85214 5 15.0445 5 21.0022C5 24.8875 6.38761 28.4505 8.69282 31.2213L14.5342 26.4139C13.3033 24.9457 12.5602 23.0613 12.5602 21.0022Z" fill="#E5E5E5"/>
</g>
<g clip-path="url(#clip1_3352_23776)">
<path d="M6.71994 57.7937L57.6682 87.2087L61.0132 81.415L10.0649 52L6.71994 57.7937Z" fill="#3C2861"/>
<path d="M67.9362 88.2641L61.0032 81.4323L57.6682 87.2087L67.0612 89.7796L67.9362 88.2641Z" fill="#CFB9F6"/>
<path d="M69.9937 90.2603L67.8262 88.4546L67.1762 89.5805L69.8187 90.5634L69.9937 90.2603Z" fill="#3C2861"/>
<path d="M8.25275 58.6787L7.13775 60.6099C6.79275 61.2075 7.02004 61.9738 7.62394 62.2878L31.9813 74.9996L32.6413 73.8564L9.96879 60.7664L13.7738 54.176L10.0412 52.021L6.71122 57.7887L8.24409 58.6737L8.25275 58.6787Z" fill="#CFB9F6"/>
</g>
<defs>
<clipPath id="clip0_3352_23776">
<rect width="32" height="32" fill="white" transform="translate(5 5)"/>
</clipPath>
<clipPath id="clip1_3352_23776">
<rect width="71.03" height="10.13" fill="white" transform="translate(66.5137 96.2878) rotate(-150)"/>
</clipPath>
</defs>
</svg>
