<svg width="248" height="110" viewBox="0 0 248 110" fill="none" xmlns="http://www.w3.org/2000/svg">
<rect width="248" height="110" fill="#848484"/>
<g clip-path="url(#clip0_150_10108)">
<rect x="-386" y="-605" width="931" height="1019" rx="15" fill="#DDDDDD"/>
<g clip-path="url(#clip1_150_10108)">
<rect width="280" height="382" transform="translate(-16 -56)" fill="white"/>
<rect x="0.5" y="0.5" width="247" height="109" rx="4.5" fill="#DDDDDD"/>
<rect x="150" width="98" height="110" fill="white"/>
<path d="M161.562 16H162.314V14.333L163.797 11.7725H162.971L161.948 13.6123H161.928L160.905 11.7725H160.079L161.562 14.333V16ZM164.937 16.0615C165.848 16.0615 166.439 15.4551 166.439 14.4473V14.4414C166.439 13.4395 165.839 12.8301 164.934 12.8301C164.031 12.8301 163.434 13.4453 163.434 14.4414V14.4473C163.434 15.4521 164.022 16.0615 164.937 16.0615ZM164.939 15.4727C164.474 15.4727 164.178 15.1006 164.178 14.4473V14.4414C164.178 13.7969 164.479 13.4219 164.934 13.4219C165.396 13.4219 165.695 13.7939 165.695 14.4414V14.4473C165.695 15.0977 165.399 15.4727 164.939 15.4727ZM167.966 16.0615C168.435 16.0615 168.754 15.8447 168.915 15.5137H168.93V16H169.659V12.8945H168.93V14.6934C168.93 15.1445 168.663 15.4463 168.244 15.4463C167.828 15.4463 167.623 15.1973 167.623 14.7578V12.8945H166.894V14.9014C166.894 15.6221 167.283 16.0615 167.966 16.0615ZM170.26 16H170.989V14.1982C170.989 13.7383 171.238 13.4775 171.651 13.4775C171.774 13.4775 171.886 13.4951 171.947 13.5186V12.8594C171.892 12.8447 171.807 12.8301 171.716 12.8301C171.358 12.8301 171.101 13.0557 171.004 13.4307H170.989V12.8945H170.26V16ZM175.437 16.0732C176.409 16.0732 177.127 15.4727 177.235 14.6055L177.241 14.5762H176.5L176.491 14.6055C176.354 15.127 175.976 15.417 175.437 15.417C174.701 15.417 174.227 14.8252 174.227 13.8848V13.8818C174.227 12.9443 174.698 12.3555 175.437 12.3555C175.987 12.3555 176.359 12.6572 176.482 13.1406L176.497 13.1963H177.238L177.235 13.167C177.124 12.3057 176.409 11.6992 175.437 11.6992C174.224 11.6992 173.453 12.5312 173.453 13.8818V13.8848C173.453 15.2354 174.221 16.0732 175.437 16.0732ZM178.647 16.0527C179.058 16.0527 179.403 15.8477 179.582 15.5225H179.6V16H180.329V13.8643C180.329 13.2402 179.828 12.8301 179.052 12.8301C178.264 12.8301 177.786 13.2432 177.742 13.7939L177.739 13.8291H178.416L178.422 13.8027C178.469 13.5742 178.68 13.4131 179.025 13.4131C179.395 13.4131 179.6 13.6035 179.6 13.917V14.1309L178.788 14.1807C178.035 14.2275 177.607 14.5586 177.607 15.1094V15.1152C177.607 15.6689 178.026 16.0527 178.647 16.0527ZM178.334 15.0859V15.083C178.334 14.8369 178.53 14.6816 178.891 14.6582L179.6 14.6143V14.8486C179.6 15.2178 179.283 15.4961 178.864 15.4961C178.545 15.4961 178.334 15.3408 178.334 15.0859ZM180.918 16H181.647V14.1982C181.647 13.7383 181.896 13.4775 182.31 13.4775C182.433 13.4775 182.544 13.4951 182.605 13.5186V12.8594C182.55 12.8447 182.465 12.8301 182.374 12.8301C182.017 12.8301 181.759 13.0557 181.662 13.4307H181.647V12.8945H180.918V16ZM184.264 16.0615C184.41 16.0615 184.539 16.0469 184.624 16.0352V15.4873C184.574 15.4902 184.519 15.499 184.448 15.499C184.182 15.499 184.047 15.4023 184.047 15.0977V13.457H184.624V12.8945H184.047V12.1064H183.306V12.8945H182.866V13.457H183.306V15.1592C183.306 15.7979 183.613 16.0615 184.264 16.0615Z" fill="#3C3C3C"/>
<rect x="160" y="25" width="15" height="15" fill="#D9D9D9"/>
<rect x="160" y="47" width="15" height="15" fill="#D9D9D9"/>
<rect x="221" y="25" width="17" height="2" fill="#D9D9D9"/>
<rect x="221" y="47" width="17" height="2" fill="#D9D9D9"/>
<rect x="178" y="25" width="35" height="2" fill="#D9D9D9"/>
<rect x="178" y="29" width="35" height="2" fill="#D9D9D9"/>
<rect x="178" y="33" width="35" height="2" fill="#D9D9D9"/>
<rect x="178" y="47" width="35" height="2" fill="#D9D9D9"/>
<rect x="178" y="51" width="35" height="2" fill="#D9D9D9"/>
<rect x="178" y="55" width="35" height="2" fill="#D9D9D9"/>
<rect x="160" y="90" width="78" height="10" fill="#333333"/>
<rect x="190" y="94" width="18" height="2" fill="white"/>
<rect x="0.5" y="0.5" width="247" height="109" rx="4.5" stroke="#DDDDDD"/>
</g>
</g>
<defs>
<clipPath id="clip0_150_10108">
<rect x="-386" y="-605" width="931" height="1019" rx="15" fill="white"/>
</clipPath>
<clipPath id="clip1_150_10108">
<rect width="280" height="1019" fill="white" transform="translate(-16 -605)"/>
</clipPath>
</defs>
</svg>
