<svg width="40" height="40" xmlns="http://www.w3.org/2000/svg" viewBox="0 0 40 40" fill="none"><path fill="#0A22AA" d="M0 0H40V40H0z"/><svg x="4" y="13.4" width="32" height="13.2" viewBox="0 0 87 36"><g fill="#fff"><path d="M7.785 22.958c-.279.545-.301 1.04-.085 1.463.576.53 2.128 1.323 6.21 1.228l-.801-1.998c-1.859.19-4.347.234-5.32-.697l-.004.004z"/><path d="M8.69 14.184a.335.335 0 0 1 .62 0c.878 2.2 4.874 12.155 4.874 12.155.13.364.468.657.914.657h2.443c.32 0 .544-.324.423-.621-1.102-2.736-5.737-13.735-7.038-16.822A.91.91 0 0 0 10.085 9H7.907a.914.914 0 0 0-.842.553C5.845 12.465 1.134 23.648.032 26.38A.454.454 0 0 0 .455 27h2.353c.437 0 .842-.23 1.008-.657L8.69 14.184zm25.173 4.945v7.24a.624.624 0 0 1-.626.626h-2.164a.624.624 0 0 1-.625-.626v-6.516c0-1.813-.995-3.478-2.615-3.406-2.182.099-3.208 1.984-3.208 4.828v5.094a.624.624 0 0 1-.626.626h-2.165a.624.624 0 0 1-.625-.626V14.332c0-.347.279-.626.625-.626H24c.347 0 .626.28.626.626v.913c0 .13.17.185.242.077.842-1.274 2.273-1.868 3.821-1.868 3.105 0 5.18 2.47 5.18 5.68l-.005-.005zm52.407 7.87h-2.205a.653.653 0 0 1-.652-.652V19.89c0-2.206-1.27-3.398-2.462-3.398h-.099c-1.021.045-1.741.5-2.196 1.381-.4.779-.594 1.9-.594 3.425v5.045c0 .36-.292.652-.652.652H75.2a.653.653 0 0 1-.652-.652v-6.458c0-2.205-1.27-3.398-2.462-3.398h-.099c-1.03.046-1.76.5-2.232 1.382-.423.792-.63 1.913-.63 3.425v5.044c0 .36-.292.652-.652.652h-2.205a.653.653 0 0 1-.653-.652V14.354a.658.658 0 0 1 .653-.657h2.205c.36 0 .652.293.652.653v.954c0 .063.054.104.104.104a.09.09 0 0 0 .08-.045c.81-1.166 2.323-1.922 3.857-1.926h.018c2.066 0 3.542 1.224 4.235 2.367.018.031.054.049.09.049a.104.104 0 0 0 .09-.05c.85-1.417 2.502-2.367 4.104-2.367 1.49 0 2.83.576 3.77 1.62.932 1.036 1.45 2.493 1.45 4.104v7.178c0 .36-.293.652-.653.652V27zM57.33 13.37a6.896 6.896 0 0 0-4.756 1.864c-1.98 1.827-7.677 7.677-7.735 7.73-1.548 1.594-4.235 1.31-5.517-.45a3.842 3.842 0 0 1-.738-2.258v-2.282c0-.09.072-.162.162-.162h4.963c.333 0 .603-.27.603-.603v-2.142a.603.603 0 0 0-.603-.603h-4.963a.161.161 0 0 1-.162-.162V12.07a.603.603 0 0 0-.603-.603h-2.138a.603.603 0 0 0-.603.603v8.456a7.027 7.027 0 0 0 1.575 4.28 7.07 7.07 0 0 0 5.432 2.578A6.96 6.96 0 0 0 47.2 25.33l2.237-2.237c.454-.454 1.25-.378 1.534.234a7.035 7.035 0 0 0 6.359 4.055c1.782 0 3.478-.67 4.779-1.886a7.023 7.023 0 0 0 2.227-5.242c-.063-3.785-3.204-6.872-7.006-6.89v.005zm0 10.675a3.66 3.66 0 0 1-3.662-3.663 3.66 3.66 0 0 1 3.663-3.663 3.66 3.66 0 0 1 3.663 3.663 3.66 3.66 0 0 1-3.663 3.663z"/><path d="M20.376 16.28c-.274-.635-.693-1.494-1.066-1.99-.207-.274-.509-.346-.891-.27-4.847 1-8.451 3.254-9.905 4.721-2.236 2.26-2.218 4.433-.819 5.684-.477-.932.216-2.237 2.25-3.614 3.79-2.565 10.004-3.757 10.017-3.762a.564.564 0 0 0 .41-.77h.004z"/></g></svg></svg>