<svg width="40" height="40" viewBox="0 0 40 40" fill="none" xmlns="http://www.w3.org/2000/svg">
<g clip-path="url(#clip0_4649_16146)">
<rect width="40" height="40" fill="#FFE600"/>
<g clip-path="url(#clip1_4649_16146)">
<rect width="110" height="110" transform="translate(-35 -35)" fill="#FFE600"/>
<path d="M20.0037 10.3899C11.8744 10.3899 5.28491 14.6053 5.28491 19.8058C5.28491 25.0062 11.8744 29.6299 20.0037 29.6299C28.133 29.6299 34.7222 25.0059 34.7222 19.8058C34.7222 14.6057 28.1326 10.3899 20.0037 10.3899Z" fill="#00BCFF"/>
<path d="M15.2143 16.8952C15.2069 16.9096 15.0631 17.0584 15.1564 17.178C15.3838 17.4688 16.0869 17.6355 16.7979 17.4759C17.2212 17.3809 17.7637 16.9492 18.2893 16.5323C18.7911 16.0765 19.3668 15.7095 19.9917 15.4469C20.3909 15.3007 20.827 15.2893 21.2333 15.4144C21.6458 15.5676 22.0287 15.7911 22.3651 16.0748C23.3518 16.8168 27.3197 20.2802 28.0054 20.8787C30.1122 20.0026 32.2934 19.3174 34.5227 18.8314C34.2328 17.0537 33.1635 15.3589 31.5231 14.0272C29.2366 14.9875 26.2561 15.5625 23.524 14.2285C22.5957 13.8082 21.592 13.58 20.5732 13.5575C18.4056 13.6079 17.4666 14.5458 16.4729 15.5388L15.2143 16.8952Z" fill="white"/>
<path d="M27.8446 21.2556C27.7978 21.2138 23.1792 17.1723 22.1326 16.3858C21.768 16.0615 21.3184 15.848 20.8366 15.7705C20.6292 15.754 20.4205 15.774 20.22 15.8298C19.602 16.0625 19.0303 16.4031 18.5316 16.8359C17.9468 17.302 17.395 17.7407 16.8828 17.8555C16.2638 17.9826 15.6198 17.8859 15.0655 17.5824C14.9357 17.503 14.8311 17.3884 14.7639 17.252C14.7269 17.1474 14.7218 17.0342 14.7493 16.9267C14.7768 16.8192 14.8357 16.7224 14.9184 16.6485L16.1931 15.2697C16.3415 15.122 16.4904 14.9739 16.6436 14.8284C16.2505 14.8875 15.8621 14.9749 15.4816 15.09C15.0434 15.2356 14.5874 15.3206 14.1262 15.3428C13.6614 15.2958 13.1995 15.2236 12.7425 15.1266C11.38 14.8068 10.0499 14.3617 8.76941 13.797C6.95723 15.146 5.77719 16.8023 5.427 18.66C5.68737 18.7288 6.36965 18.8844 6.54598 18.9235C10.647 19.8353 11.9241 20.7745 12.1558 20.9707C12.2921 20.8173 12.4614 20.6968 12.651 20.6183C12.8405 20.5398 13.0454 20.5052 13.2503 20.5173C13.4551 20.5294 13.6545 20.5877 13.8335 20.688C14.0126 20.7882 14.1665 20.9277 14.2839 21.0961C14.5604 20.8725 14.9056 20.751 15.2613 20.7521C15.4611 20.754 15.6592 20.7888 15.8478 20.8549C16.0305 20.9133 16.1987 21.0101 16.3411 21.1387C16.4834 21.2673 16.5967 21.4249 16.6733 21.6008C16.8524 21.5196 17.0471 21.4782 17.2438 21.4794C17.4791 21.4824 17.7113 21.5336 17.926 21.6299C18.2246 21.7698 18.4668 22.007 18.6131 22.3025C18.7593 22.5981 18.8009 22.9345 18.731 23.2568C18.7853 23.2509 18.8398 23.248 18.8944 23.2481C19.3254 23.2488 19.7386 23.4204 20.0433 23.7253C20.348 24.0301 20.5194 24.4434 20.5199 24.8744C20.5199 25.1425 20.453 25.4063 20.3254 25.642C20.7498 25.9014 21.2401 26.0328 21.7374 26.0202C21.8614 26.0202 21.9841 25.9947 22.0977 25.9451C22.2114 25.8956 22.3136 25.8231 22.3979 25.7322C22.4388 25.6746 22.4814 25.6071 22.4418 25.5585L21.2846 24.2734C21.2846 24.2734 21.0943 24.0932 21.1572 24.0238C21.2221 23.9523 21.3399 24.0548 21.4234 24.1245C22.0122 24.6161 22.7309 25.3584 22.7309 25.3584C22.7435 25.3665 22.7908 25.4606 23.0567 25.5083C23.2156 25.5359 23.3785 25.5313 23.5356 25.4946C23.6927 25.458 23.8409 25.3901 23.9712 25.2949C24.045 25.2332 24.1124 25.1642 24.1725 25.089C24.1684 25.093 24.1639 25.0965 24.159 25.0995C24.2401 24.9874 24.281 24.8511 24.275 24.7129C24.2689 24.5746 24.2164 24.4424 24.1259 24.3378L22.775 22.8208C22.775 22.8208 22.5817 22.6419 22.648 22.5707C22.7067 22.5081 22.8307 22.6023 22.9156 22.6726C23.3431 23.0303 23.9474 23.6362 24.5266 24.2041C24.7196 24.3347 24.9491 24.4007 25.1821 24.3926C25.415 24.3846 25.6394 24.3028 25.823 24.1592C25.9734 24.0762 26.0978 23.9531 26.1824 23.8037C26.2671 23.6542 26.3086 23.4843 26.3024 23.3126C26.2732 23.098 26.1728 22.8994 26.0172 22.7488L24.1725 20.8934C24.1725 20.8934 23.9771 20.7269 24.0463 20.6429C24.1029 20.572 24.2286 20.6739 24.3122 20.7433C24.8996 21.2352 26.4907 22.6943 26.4907 22.6943C26.6782 22.8153 26.8975 22.8776 27.1206 22.8732C27.3436 22.8687 27.5603 22.7978 27.7428 22.6694C27.86 22.6009 27.9587 22.5047 28.0304 22.3893C28.102 22.274 28.1444 22.1428 28.1538 22.0074C28.1593 21.8672 28.1345 21.7275 28.0811 21.5978C28.0278 21.4681 27.9471 21.3513 27.8446 21.2556Z" fill="white"/>
<path d="M18.8942 23.6071C18.6775 23.6375 18.4635 23.6849 18.2542 23.7489C18.2314 23.7342 18.2717 23.6191 18.2983 23.5528C18.3262 23.4872 18.7029 22.3532 17.7843 21.9597C17.5787 21.8494 17.343 21.8084 17.1123 21.8428C16.8816 21.8772 16.6681 21.9852 16.5037 22.1507C16.4652 22.1908 16.4478 22.1874 16.4435 22.1367C16.438 21.925 16.3664 21.7204 16.2387 21.5514C16.111 21.3825 15.9336 21.2578 15.7314 21.1948C15.445 21.1067 15.1378 21.1134 14.8556 21.214C14.5734 21.3146 14.3312 21.5037 14.1651 21.7531C14.1356 21.5295 14.0315 21.3225 13.8697 21.1654C13.7079 21.0082 13.4978 20.9103 13.2735 20.8872C13.0491 20.8642 12.8236 20.9175 12.6333 21.0385C12.443 21.1595 12.299 21.3411 12.2246 21.5541C12.1503 21.767 12.1499 21.9987 12.2235 22.2119C12.2971 22.4251 12.4405 22.6072 12.6304 22.7289C12.8203 22.8505 13.0457 22.9046 13.2701 22.8823C13.4945 22.8601 13.7049 22.7628 13.8672 22.6063C13.873 22.6116 13.8752 22.621 13.8724 22.64C13.8044 22.9507 13.8506 23.2754 14.0024 23.5548C14.1542 23.8342 14.4016 24.0496 14.6992 24.1616C14.86 24.2236 15.0342 24.2424 15.2045 24.2161C15.3748 24.1898 15.5353 24.1194 15.6699 24.0118C15.7496 23.9557 15.7625 23.9793 15.7513 24.0544C15.7171 24.2869 15.7606 24.785 16.4588 25.0677C16.6318 25.1525 16.8275 25.1792 17.0169 25.144C17.2063 25.1088 17.3793 25.0135 17.5103 24.8723C17.6002 24.7908 17.6247 24.8041 17.6293 24.9305C17.6406 25.1782 17.7243 25.4172 17.8701 25.6177C18.0159 25.8182 18.2174 25.9715 18.4496 26.0586C18.6817 26.1456 18.9343 26.1626 19.176 26.1073C19.4178 26.0521 19.6379 25.9271 19.8092 25.7479C19.9806 25.5687 20.0955 25.3431 20.1397 25.0991C20.184 24.8552 20.1557 24.6036 20.0582 24.3756C19.9608 24.1476 19.7985 23.9532 19.5916 23.8166C19.3847 23.68 19.1421 23.6071 18.8942 23.6071Z" fill="white"/>
<path d="M20.0011 10C11.7169 10 5.00169 14.4061 5.00169 19.8106C5.00169 19.9504 5 20.336 5 20.3849C5 26.119 10.8695 30.7625 19.9992 30.7625C29.184 30.7625 35 26.12 35 20.386V19.8106C34.9998 14.4061 28.2845 10 20.0011 10ZM34.3237 18.7233C32.1624 19.2016 30.0524 19.8875 28.023 20.7715C26.5999 19.5299 23.3119 16.6707 22.4214 16.0026C22.0762 15.7122 21.6834 15.4836 21.2604 15.3269C21.076 15.2688 20.884 15.2388 20.6906 15.2379C20.4446 15.2412 20.2004 15.2823 19.9669 15.3599C19.3415 15.6195 18.7653 15.9844 18.2631 16.4386L18.2345 16.4612C17.7178 16.872 17.1838 17.297 16.7797 17.3869C16.6029 17.4268 16.4222 17.447 16.241 17.4472C16.0592 17.4624 15.8761 17.4414 15.7025 17.3855C15.5288 17.3297 15.3678 17.24 15.229 17.1216C15.2038 17.0894 15.2204 17.0374 15.279 16.9628L15.2865 16.9526L16.5387 15.6038C17.5191 14.6233 18.4453 13.6976 20.5766 13.6486C20.6121 13.6476 20.6479 13.647 20.683 13.647C21.651 13.6864 22.6024 13.9118 23.4854 14.3107C24.6716 14.9037 25.978 15.217 27.3042 15.2265C28.755 15.2015 30.1827 14.8601 31.4878 14.2261C33.0085 15.505 34.0171 17.0452 34.3237 18.7233ZM20.0037 10.5793C24.4006 10.5793 28.3353 11.8396 30.9805 13.8246C29.8263 14.3518 28.5759 14.6352 27.3072 14.6572C26.0661 14.6471 24.8437 14.3529 23.7339 13.7972C22.7744 13.3592 21.738 13.1144 20.6839 13.0766C20.6438 13.0766 20.6033 13.0772 20.5636 13.0781C19.294 13.0595 18.0599 13.4976 17.0861 14.3126C16.4966 14.3435 15.9134 14.45 15.351 14.6294C14.9556 14.7613 14.5445 14.84 14.1284 14.8636C13.9716 14.8636 13.6896 14.8493 13.6642 14.8482C12.1683 14.5848 10.701 14.1788 9.28249 13.6356C11.9224 11.7596 15.747 10.5793 20.0037 10.5793ZM8.76348 14.0272C10.5929 14.7755 12.8124 15.3533 13.5143 15.3987C13.71 15.4116 13.9186 15.4338 14.1273 15.4342C14.5967 15.4114 15.0609 15.3252 15.5072 15.1778C15.7729 15.1033 16.0659 15.0221 16.3743 14.9632C16.2918 15.0438 16.2097 15.1257 16.1272 15.2084L14.8556 16.584C14.7589 16.6697 14.6905 16.7828 14.6594 16.9082C14.6283 17.0336 14.636 17.1656 14.6815 17.2865C14.7553 17.4395 14.8712 17.5682 15.0158 17.6575C15.4271 17.89 15.8932 18.0082 16.3656 18C16.5466 18.0012 16.7272 17.9823 16.904 17.9436C17.4373 17.8242 17.9966 17.3785 18.5888 16.9076C19.0794 16.484 19.6397 16.1487 20.2449 15.9167C20.3956 15.8766 20.5506 15.8554 20.7065 15.8534C20.7465 15.853 20.7864 15.8554 20.826 15.8605C21.2917 15.937 21.7261 16.1442 22.0785 16.4581C23.1226 17.2427 27.7418 21.2837 27.7873 21.3236C27.879 21.4106 27.9512 21.5161 27.999 21.6332C28.0468 21.7502 28.0692 21.8761 28.0646 22.0024C28.0562 22.1236 28.0181 22.2408 27.9537 22.3437C27.8893 22.4466 27.8005 22.5321 27.6952 22.5926C27.5157 22.7126 27.3052 22.7782 27.0893 22.7815C26.8997 22.7817 26.7139 22.7279 26.5538 22.6264C26.5369 22.6125 24.9543 21.1611 24.3714 20.6734C24.2985 20.5963 24.2026 20.545 24.098 20.5273C24.0748 20.5269 24.0518 20.5318 24.0308 20.5417C24.0097 20.5516 23.9913 20.5662 23.9769 20.5843C23.8852 20.6972 23.9879 20.8538 24.1089 20.9563L25.9576 22.8156C26.0955 22.9499 26.1854 23.1259 26.2134 23.3163C26.2182 23.4721 26.1797 23.6262 26.1022 23.7615C26.0247 23.8968 25.9113 24.008 25.7745 24.0827C25.5822 24.2181 25.3541 24.2936 25.119 24.2994C24.9312 24.2994 24.7477 24.2437 24.5916 24.1392L24.3265 23.8781C23.8416 23.4012 23.3411 22.9079 22.9748 22.6023C22.9008 22.5261 22.8041 22.4759 22.6992 22.4592C22.6774 22.4589 22.6557 22.4631 22.6357 22.4717C22.6156 22.4803 22.5976 22.493 22.5828 22.509C22.541 22.5555 22.5118 22.6388 22.6165 22.7772C22.6447 22.8144 22.6759 22.8492 22.7098 22.8813L24.0585 24.3966C24.1364 24.4849 24.1819 24.597 24.1875 24.7146C24.1931 24.8322 24.1584 24.9481 24.0892 25.0433L24.0414 25.1036C24.0019 25.1464 23.9599 25.1869 23.9157 25.2247C23.7248 25.3649 23.4931 25.4383 23.2564 25.4337C23.1953 25.4339 23.1343 25.4288 23.0741 25.4183C22.9757 25.4105 22.8825 25.3712 22.8082 25.3062L22.7913 25.2892C22.718 25.2129 22.038 24.5187 21.4755 24.049C21.4057 23.9748 21.3135 23.9255 21.213 23.9087C21.1899 23.9085 21.1671 23.9132 21.1461 23.9226C21.1251 23.9319 21.1063 23.9457 21.091 23.9629C20.98 24.0849 21.1471 24.267 21.218 24.3339L22.368 25.6031C22.3582 25.6312 22.3437 25.6574 22.325 25.6805C22.2837 25.7375 22.1443 25.8772 21.7269 25.9295C21.6763 25.936 21.6253 25.9391 21.5742 25.9388C21.1783 25.9134 20.7932 25.7992 20.4475 25.6046C20.5707 25.3431 20.6258 25.0547 20.6078 24.7661C20.5898 24.4776 20.4992 24.1983 20.3445 23.9542C20.1897 23.71 19.9757 23.5089 19.7225 23.3695C19.4692 23.2301 19.1848 23.1569 18.8957 23.1568C18.8756 23.1568 18.854 23.1574 18.8338 23.1581C18.883 22.8313 18.8247 22.4975 18.6677 22.2068C18.5107 21.916 18.2634 21.6843 17.9631 21.5463C17.7373 21.445 17.493 21.3912 17.2455 21.3882C17.0657 21.3873 16.8873 21.4197 16.7193 21.4836C16.5444 21.144 16.2423 20.8875 15.8789 20.77C15.681 20.6999 15.4728 20.6632 15.2628 20.6616C14.9185 20.6596 14.5825 20.7673 14.3033 20.969C14.1765 20.8096 14.0174 20.6788 13.8364 20.5852C13.6555 20.4916 13.4568 20.4373 13.2534 20.4258C13.05 20.4144 12.8465 20.446 12.6562 20.5187C12.4658 20.5914 12.293 20.7035 12.1491 20.8476C11.7908 20.5738 10.37 19.6713 6.56686 18.8078C6.3852 18.7667 5.97285 18.6486 5.71314 18.5724C6.06991 16.8653 7.15461 15.3063 8.76348 14.0272ZM15.8179 23.927L15.7767 23.8902H15.7352C15.6925 23.8934 15.6518 23.9098 15.6189 23.9372C15.4555 24.063 15.2565 24.1338 15.0504 24.1395C14.9418 24.1387 14.8343 24.1178 14.7332 24.0779C14.4541 23.9738 14.2223 23.7718 14.0809 23.5096C13.9395 23.2474 13.898 22.9428 13.9642 22.6523C13.9688 22.6312 13.9676 22.6093 13.9608 22.5888C13.954 22.5682 13.9419 22.5499 13.9257 22.5356L13.8635 22.4848L13.8053 22.5403C13.6358 22.7048 13.4088 22.7968 13.1726 22.7967C12.9964 22.7974 12.8238 22.7472 12.6754 22.6522C12.527 22.5572 12.4092 22.4214 12.3361 22.261C12.263 22.1007 12.2378 21.9227 12.2634 21.7483C12.2891 21.574 12.3645 21.4108 12.4806 21.2783C12.5968 21.1458 12.7487 21.0496 12.9182 21.0013C13.0876 20.9531 13.2674 20.9547 13.436 21.0062C13.6045 21.0576 13.7546 21.1566 13.8682 21.2912C13.9819 21.4259 14.0543 21.5905 14.0766 21.7653L14.1082 22.0111L14.2432 21.803C14.3954 21.5669 14.6214 21.3878 14.886 21.2936C15.1507 21.1994 15.4391 21.1955 15.7062 21.2824C15.8907 21.3404 16.0524 21.4546 16.1686 21.6092C16.2848 21.7638 16.3496 21.9509 16.3539 22.1442C16.3638 22.2634 16.4487 22.2693 16.4651 22.2693C16.4857 22.2678 16.5057 22.2622 16.5239 22.2526C16.5422 22.2431 16.5582 22.2299 16.5711 22.2138C16.6581 22.123 16.7627 22.0509 16.8786 22.002C16.9945 21.9531 17.1191 21.9284 17.2448 21.9293C17.4191 21.9332 17.5908 21.9719 17.7498 22.0434C18.6115 22.413 18.2208 23.5082 18.2162 23.5194C18.1418 23.7008 18.1389 23.781 18.2085 23.8273L18.2425 23.8433H18.2678C18.3253 23.8368 18.3815 23.8221 18.4347 23.7996C18.5816 23.7416 18.7367 23.7073 18.8943 23.6981C19.0487 23.6981 19.202 23.7286 19.3446 23.7877C19.4872 23.8468 19.6168 23.9334 19.7259 24.0426C19.835 24.1518 19.9216 24.2814 19.9806 24.4241C20.0397 24.5667 20.07 24.7196 20.07 24.874C20.07 25.0283 20.0395 25.1812 19.9804 25.3238C19.9213 25.4664 19.8347 25.596 19.7255 25.7051C19.6163 25.8142 19.4867 25.9008 19.344 25.9598C19.2014 26.0189 19.0485 26.0492 18.8941 26.0492C18.5913 26.051 18.2996 25.935 18.0808 25.7257C17.8619 25.5165 17.733 25.2303 17.7213 24.9277C17.7196 24.8739 17.7139 24.7308 17.5926 24.7308C17.5374 24.7372 17.4866 24.764 17.4502 24.8059C17.3001 24.9656 17.0928 25.0592 16.8738 25.0661C16.7431 25.0634 16.6141 25.0355 16.494 24.9837C15.8246 24.712 15.8154 24.2523 15.8424 24.0675C15.849 24.0437 15.8502 24.0188 15.846 23.9945C15.8417 23.9702 15.8321 23.9471 15.8179 23.927ZM20.0035 29.0321C12.0382 29.0322 5.58114 24.9012 5.58114 19.8057C5.58237 19.6021 5.59397 19.3986 5.61589 19.1961C5.67949 19.2112 6.31208 19.3625 6.44309 19.392C10.3281 20.255 11.6118 21.1522 11.8287 21.3219C11.7365 21.5431 11.7003 21.7836 11.7234 22.0222C11.7464 22.2607 11.828 22.4899 11.9609 22.6893C12.0938 22.8887 12.2739 23.0523 12.4852 23.1654C12.6965 23.2785 12.9325 23.3376 13.1721 23.3376C13.2617 23.3378 13.3511 23.3295 13.4391 23.313C13.4965 23.6015 13.6279 23.8701 13.8204 24.0925C14.0129 24.3149 14.2599 24.4834 14.5372 24.5815C14.7025 24.6464 14.8783 24.6803 15.0558 24.6815C15.1676 24.6822 15.279 24.6685 15.3872 24.6406C15.5206 24.9214 15.729 25.1599 15.9893 25.3299C16.2496 25.4998 16.5518 25.5945 16.8626 25.6037C17.0142 25.6037 17.1646 25.5768 17.3069 25.5243C17.4146 25.788 17.5864 26.0206 17.8066 26.2011C18.0268 26.3817 18.2886 26.5045 18.5682 26.5584C18.8478 26.6124 19.1365 26.5958 19.4081 26.5102C19.6797 26.4245 19.9257 26.2725 20.1238 26.0679C20.5669 26.3261 21.0651 26.4749 21.5772 26.5019C21.6508 26.5017 21.7242 26.4971 21.7972 26.488C21.9862 26.4823 22.1719 26.4363 22.3418 26.3531C22.5117 26.27 22.6619 26.1516 22.7825 26.0059C22.8053 25.9745 22.8256 25.9415 22.8434 25.9071C22.9943 25.9531 23.151 25.9776 23.3088 25.9799C23.65 25.9731 23.9796 25.8552 24.2478 25.6442C24.5309 25.4583 24.7299 25.1688 24.8019 24.8379C24.8025 24.8343 24.803 24.8306 24.8032 24.8269C24.9067 24.8479 25.012 24.8585 25.1176 24.8585C25.4624 24.8543 25.7981 24.7478 26.0823 24.5526C26.2985 24.4272 26.4769 24.2459 26.5987 24.0277C26.7205 23.8095 26.7813 23.5625 26.7745 23.3127C26.8793 23.3345 26.9861 23.3456 27.0931 23.3458C27.4148 23.3423 27.7286 23.2457 27.9966 23.0676C28.1747 22.9588 28.3245 22.8095 28.4338 22.6317C28.5431 22.454 28.6088 22.2529 28.6256 22.0449C28.6469 21.7554 28.5771 21.4666 28.426 21.2188C30.3638 20.4278 32.3647 19.8012 34.4076 19.3455C34.4193 19.4981 34.4258 19.6516 34.4258 19.806C34.4258 24.9012 27.9688 29.0321 20.0035 29.0321Z" fill="#0A0080"/>
</g>
</g>
<defs>
<clipPath id="clip0_4649_16146">
<rect width="40" height="40" fill="white"/>
</clipPath>
<clipPath id="clip1_4649_16146">
<rect width="40" height="40" rx="20" fill="white"/>
</clipPath>
</defs>
</svg>
