<svg width="260" height="260" viewBox="0 0 260 260" fill="none" xmlns="http://www.w3.org/2000/svg">
<g clip-path="url(#clip0_694_311)">
<path d="M145.029 143.1C201.437 113.698 232.291 65.5042 213.938 35.4627C195.585 5.42118 134.974 4.89179 78.5563 34.2955C22.1483 63.6977 -8.7054 111.891 9.65756 141.931C28.0104 171.972 88.6313 172.5 145.039 143.098L145.029 143.1Z" fill="#EAE1FF"/>
<path d="M124.627 255.913C162.034 258.666 193.291 242.649 194.447 220.143C195.604 197.637 166.22 177.168 128.812 174.425C91.405 171.682 60.1485 187.689 58.992 210.195C57.8355 232.7 87.219 253.17 124.627 255.913Z" fill="#EAE1FF"/>
<path d="M166.312 207.299C214.333 208.21 256.172 184.957 259.754 155.358C263.336 125.77 227.311 101.043 179.279 100.132C131.259 99.2212 89.4196 122.474 85.8375 152.073C82.2554 181.661 118.281 206.388 166.312 207.299Z" fill="#EAE1FF"/>
<path d="M238.313 242.813C238.313 242.813 236 230.439 235.591 227.563C235.263 225.752 234.936 224.022 234.445 222.487C233.871 220.399 232.94 219.048 231.763 218.219C231.732 218.198 231.589 218.096 231.558 218.076C230.371 217.257 228.785 216.858 226.625 217.042C225.018 217.103 223.279 217.4 221.467 217.728C218.632 218.331 206.218 220.45 206.218 220.45L208.06 230.736L217.547 229.027C211.969 236.928 202.932 241.687 193.076 241.677C176.547 241.677 163.109 228.228 163.109 211.699H152.609C152.609 234.011 170.755 252.167 193.076 252.177C206.494 252.177 218.775 245.658 226.288 234.86L228.017 244.645L238.303 242.823L238.313 242.813Z" fill="#BEA0F2"/>
<path d="M194.335 167.987C180.918 167.987 168.636 174.507 161.124 185.304L159.394 175.52L149.108 177.342C149.108 177.342 151.421 189.715 151.831 192.591C152.158 194.403 152.486 196.132 152.977 197.668C153.55 199.755 154.482 201.106 155.659 201.935C155.689 201.956 155.833 202.058 155.863 202.079C157.05 202.897 158.637 203.297 160.796 203.112C162.403 203.051 164.143 202.754 165.955 202.427C168.79 201.823 181.204 199.704 181.204 199.704L179.362 189.418L169.874 191.128C175.452 183.227 184.489 178.467 194.345 178.478C206.678 178.478 217.291 185.969 221.887 196.644C225.172 195.181 228.294 193.584 231.251 191.865C224.906 177.802 210.762 167.977 194.356 167.977L194.335 167.987Z" fill="#674399"/>
<path d="M221.876 196.644C225.162 195.181 228.283 193.584 231.241 191.865C228.6 186.021 224.609 180.934 219.676 176.953L209.84 182.827C215.152 186.062 219.4 190.872 221.876 196.634V196.644Z" fill="#3C2861"/>
<path d="M170.562 71.4499C174.595 71.4499 178.218 72.4529 181.646 74.07V59.3526C181.646 50.2847 176.406 45.0446 167.339 45.0446H18.5682C9.50037 45.0446 4.26025 50.08 4.26025 59.3526V148.66H74.2138C70.7852 153.9 67.3566 159.949 67.3566 167C67.3566 181.308 78.4407 192.802 92.7589 192.802C107.077 192.802 118.161 181.114 118.161 167C118.161 159.744 114.937 153.695 111.304 148.66H181.657V119.634C178.228 121.252 174.605 122.255 170.573 122.255C156.265 122.255 144.771 111.17 144.771 96.8522C144.771 82.534 156.265 71.4499 170.573 71.4499H170.562Z" fill="#BEA0F2"/>
<path d="M84.0085 111.365H18.7424V118.826H84.0188V111.365H84.0085Z" fill="#674399"/>
<path d="M64.9926 126.287H18.7424V133.748H65.0029V126.287H64.9926Z" fill="#674399"/>
<path d="M84.0079 60.2531H18.7725V103.648H84.0181V60.2531H84.0079Z" fill="#674399"/>
<path d="M84.0079 60.2531L18.7725 103.648H84.0181V60.2531H84.0079Z" fill="#3C2861"/>
</g>
<defs>
<clipPath id="clip0_694_311">
<rect width="260" height="260" fill="white"/>
</clipPath>
</defs>
</svg>
