<svg xmlns="http://www.w3.org/2000/svg" viewBox="0 0 230 250">
  <g fill="#E1E3E6" fill-rule="evenodd">
    <g transform="translate(0 43)">
      <path d="M0 0h33v33H0zM38 0h24v8H38zM120 0h28v8h-28z"/>
      <rect width="28" height="14" x="87" rx="2"/>
      <path d="M38 10h44v8H38zM0 38h148v1H0z"/>
    </g>
    <g transform="translate(0 87)">
      <path d="M0 0h33v33H0zM38 0h24v8H38zM120 0h28v8h-28z"/>
      <rect width="28" height="14" x="87" rx="2"/>
      <path d="M38 10h44v8H38zM0 38h148v1H0z"/>
    </g>
    <g transform="translate(0 131)">
      <path d="M0 0h33v33H0zM38 0h24v8H38zM120 0h28v8h-28z"/>
      <rect width="28" height="14" x="87" rx="2"/>
      <path d="M38 10h44v8H38zM0 38h148v1H0z"/>
    </g>
    <path d="M164 0h66v170h-66zM0 24h33v8H0zM120 24h28v8h-28zM87 24h28v8H87zM0 37h148v1H0zM0 0h66v14H0z"/>
  </g>
</svg>
