<svg xmlns="http://www.w3.org/2000/svg" viewBox="0 0 31.5 27.78"><defs><style>.cls-1,.cls-2{fill:#fff;}.cls-2{stroke:#fff;stroke-linecap:round;stroke-miterlimit:10;stroke-width:1.5px;}</style></defs><title>Asset 5</title><g id="Layer_2" data-name="Layer 2"><g id="Layer_1-2" data-name="Layer 1"><path class="cls-1" d="M4.8,16.57H6.61a2,2,0,0,1,2,2v8.55a0,0,0,0,1,0,0H2.8a0,0,0,0,1,0,0V18.57A2,2,0,0,1,4.8,16.57Z"/><path class="cls-1" d="M14.85,7.53h1.81a2,2,0,0,1,2,2V27.12a0,0,0,0,1,0,0H12.85a0,0,0,0,1,0,0V9.53A2,2,0,0,1,14.85,7.53Z"/><path class="cls-1" d="M24.89,0H26.7a2,2,0,0,1,2,2V27.12a0,0,0,0,1,0,0H22.89a0,0,0,0,1,0,0V2A2,2,0,0,1,24.89,0Z"/><line class="cls-2" x1="0.75" y1="27.03" x2="30.75" y2="27.03"/></g></g></svg>