<svg id="Layer_1" data-name="Layer 1" xmlns="http://www.w3.org/2000/svg" viewBox="0 0 512 512"><defs><style>.cls-1{fill:#4267b2;}.cls-2{fill:#fff;}</style></defs><title>flogo_RGB_HEX-512</title><path class="cls-1" d="M483.74,0H28.26A28.26,28.26,0,0,0,0,28.26V483.74A28.26,28.26,0,0,0,28.26,512H273.5V314H207V236.5h66.5v-57c0-66.13,40.39-102.14,99.38-102.14,28.25,0,52.54,2.1,59.62,3v69.11l-40.68,0c-32.1,0-38.32,15.25-38.32,37.64V236.5h76.74l-10,77.5H353.5V512H483.74A28.26,28.26,0,0,0,512,483.74V28.26A28.26,28.26,0,0,0,483.74,0Z"/><path id="f" class="cls-2" d="M353.5,512V314h66.75l10-77.5H353.5V187.14c0-22.39,6.22-37.64,38.32-37.64l40.68,0V80.37c-7.08-.94-31.37-3-59.62-3-59,0-99.38,36-99.38,102.14v57H207V314h66.5V512Z"/></svg>