<svg xmlns="http://www.w3.org/2000/svg" viewBox="266 396.70001220703125 25.5 23.5999755859375"><path fill="#FFF" d="M266 402.5c0-3.5 2.2-5.8 5.5-5.8s5.5 2.3 5.5 5.8-2.2 5.8-5.5 5.8-5.5-2.3-5.5-5.8zm2.9 17.3l8.5-11.8 6.2-10.7h5.2l-8.6 11.9-6 10.7h-5.3zm4.1-17.3c0-1.6-.5-2.5-1.5-2.5s-1.5.9-1.5 2.5c0 1.5.6 2.5 1.5 2.5.9-.1 1.5-1 1.5-2.5zm7.5 12c0-3.5 2.2-5.8 5.5-5.8s5.5 2.3 5.5 5.8-2.2 5.8-5.5 5.8-5.5-2.3-5.5-5.8zm7 0c0-1.6-.6-2.5-1.5-2.5s-1.5.9-1.5 2.5c0 1.5.6 2.5 1.5 2.5.9-.1 1.5-1 1.5-2.5z"/></svg>
