<?xml version="1.0" encoding="UTF-8"?>
<svg width="392px" height="416px" viewBox="0 0 392 416" version="1.1" xmlns="http://www.w3.org/2000/svg" xmlns:xlink="http://www.w3.org/1999/xlink">
    <!-- Generator: Sketch 52.6 (67491) - http://www.bohemiancoding.com/sketch -->
    <title>Mailchimp_Logo-Vertical_Black</title>
    <desc>Created with Sketch.</desc>
    <defs>
        <polygon id="path-1" points="0 0.0943205536 391.405 0.0943205536 391.405 415.500954 0 415.500954"></polygon>
    </defs>
    <g id="Mailchimp_Logo-Vertical_Black" stroke="none" stroke-width="1" fill="none" fill-rule="evenodd">
        <path d="M294.419,196.394 C297.451,196.032 300.356,196.017 303.025,196.394 C304.57,192.851 304.835,186.743 303.446,180.092 C301.381,170.206 298.585,164.224 292.808,165.155 C287.031,166.086 286.818,173.248 288.883,183.134 C290.045,188.696 292.115,193.449 294.419,196.394" id="Fill-1" fill="#1A1919"></path>
        <path d="M244.825,204.218 C248.958,206.031 251.498,207.233 252.493,206.183 C253.132,205.527 252.94,204.277 251.953,202.665 C249.914,199.335 245.718,195.958 241.265,194.061 C232.161,190.142 221.303,191.446 212.927,197.465 C210.161,199.491 207.539,202.297 207.915,204.002 C208.037,204.553 208.45,204.968 209.421,205.104 C211.701,205.365 219.668,201.337 228.845,200.775 C235.325,200.378 240.691,202.404 244.825,204.218" id="Fill-2" fill="#1A1919"></path>
        <path d="M236.51,208.961 C231.127,209.811 228.157,211.586 226.252,213.236 C224.625,214.659 223.619,216.23 223.628,217.335 C223.632,217.861 223.859,218.164 224.04,218.316 C224.285,218.533 224.576,218.653 224.925,218.653 C226.141,218.653 228.864,217.56 228.864,217.56 C236.356,214.879 241.298,215.203 246.196,215.762 C248.902,216.065 250.181,216.234 250.774,215.306 C250.95,215.04 251.163,214.463 250.621,213.584 C249.359,211.538 243.924,208.081 236.51,208.961" id="Fill-3" fill="#1A1919"></path>
        <path d="M277.672,226.377 C281.327,228.173 285.353,227.468 286.663,224.803 C287.972,222.137 286.07,218.52 282.416,216.724 C278.759,214.928 274.735,215.633 273.425,218.299 C272.115,220.964 274.017,224.581 277.672,226.377" id="Fill-4" fill="#1A1919"></path>
        <path d="M301.172,205.843 C298.203,205.793 295.739,209.054 295.67,213.125 C295.601,217.197 297.953,220.539 300.922,220.59 C303.892,220.64 306.354,217.379 306.424,213.308 C306.493,209.235 304.142,205.893 301.172,205.843" id="Fill-5" fill="#1A1919"></path>
        <g id="Group-9">
            <mask id="mask-2" fill="white">
                <use xlink:href="#path-1"></use>
            </mask>
            <g id="Clip-7"></g>
            <path d="M101.716,279.269 C100.977,278.344 99.763,278.626 98.588,278.899 C97.768,279.091 96.838,279.308 95.819,279.289 C93.634,279.248 91.785,278.313 90.746,276.719 C89.393,274.641 89.472,271.544 90.965,267.997 C91.166,267.52 91.404,266.989 91.662,266.41 C94.043,261.067 98.03,252.124 93.554,243.602 C90.186,237.188 84.693,233.194 78.087,232.354 C71.746,231.551 65.218,233.903 61.055,238.496 C54.485,245.744 53.459,255.605 54.729,259.09 C55.195,260.366 55.923,260.719 56.452,260.791 C57.569,260.942 59.222,260.128 60.257,257.344 C60.332,257.143 60.431,256.832 60.554,256.438 C61.015,254.965 61.874,252.224 63.281,250.026 C64.978,247.375 67.62,245.55 70.722,244.886 C73.881,244.209 77.111,244.811 79.815,246.581 C84.416,249.594 86.189,255.232 84.224,260.613 C83.208,263.395 81.559,268.716 81.922,273.087 C82.658,281.936 88.101,285.489 92.99,285.867 C97.745,286.046 101.067,283.378 101.908,281.426 C102.404,280.273 101.986,279.57 101.716,279.269" id="Fill-6" fill="#1A1919" mask="url(#mask-2)"></path>
            <path d="M146.913,116.754 C162.418,98.835 181.508,83.257 198.607,74.51 C199.198,74.207 199.826,74.849 199.505,75.431 C198.148,77.89 195.533,83.154 194.705,87.148 C194.575,87.77 195.253,88.239 195.778,87.881 C206.417,80.629 224.922,72.86 241.153,71.861 C241.851,71.818 242.188,72.712 241.633,73.138 C239.165,75.031 236.465,77.651 234.493,80.302 C234.158,80.753 234.473,81.402 235.035,81.406 C246.434,81.487 262.501,85.476 272.973,91.349 C273.683,91.747 273.178,93.12 272.385,92.938 C256.54,89.306 230.602,86.551 203.66,93.122 C179.607,98.989 161.248,108.047 147.855,117.788 C147.178,118.281 146.365,117.387 146.913,116.754 Z M288.085,297.907 C288.544,297.714 288.861,297.188 288.808,296.668 C288.743,296.027 288.171,295.561 287.531,295.627 C287.531,295.627 254.44,300.525 223.179,289.081 C226.583,278.014 235.638,282.011 249.323,283.115 C273.989,284.585 296.097,280.982 312.435,276.293 C326.592,272.229 345.188,264.219 359.63,252.82 C364.502,263.52 366.222,275.297 366.222,275.297 C366.222,275.297 369.993,274.622 373.145,276.562 C376.122,278.394 378.306,282.204 376.815,292.053 C373.778,310.453 365.956,325.388 352.811,339.126 C344.811,347.739 335.096,355.227 323.981,360.673 C318.079,363.773 311.793,366.456 305.155,368.624 C255.601,384.808 204.878,367.015 188.527,328.805 C187.222,325.933 186.119,322.926 185.248,319.78 C178.28,294.6 184.196,264.391 202.688,245.376 C202.689,245.375 202.685,245.369 202.686,245.367 C203.826,244.156 204.989,242.73 204.989,240.935 C204.989,239.435 204.036,237.851 203.208,236.729 C196.74,227.346 174.331,211.356 178.829,180.412 C182.059,158.183 201.5,142.527 219.626,143.455 C221.157,143.534 222.691,143.628 224.219,143.719 C232.075,144.183 238.927,145.191 245.394,145.462 C256.216,145.929 265.949,144.356 277.475,134.752 C281.364,131.511 284.48,128.702 289.756,127.808 C290.309,127.714 291.689,127.22 294.446,127.349 C297.26,127.499 299.938,128.272 302.346,129.874 C311.586,136.024 312.897,150.917 313.376,161.812 C313.649,168.031 314.401,183.077 314.658,187.396 C315.246,197.273 317.842,198.666 323.095,200.395 C326.048,201.367 328.791,202.092 332.832,203.226 C345.064,206.661 352.316,210.145 356.888,214.621 C359.614,217.418 360.882,220.39 361.273,223.224 C362.716,233.746 353.104,246.745 327.66,258.555 C299.845,271.465 266.103,274.733 242.789,272.137 C241,271.938 234.643,271.217 234.621,271.214 C215.972,268.702 205.334,292.804 216.526,309.315 C223.739,319.956 243.387,326.883 263.045,326.886 C308.117,326.892 342.761,307.644 355.647,291.021 C356.033,290.524 356.071,290.47 356.679,289.552 C357.312,288.596 356.79,288.07 356,288.61 C345.471,295.814 298.706,324.415 248.684,315.811 C248.684,315.811 242.605,314.811 237.057,312.652 C232.647,310.937 223.42,306.693 222.298,297.224 C262.667,309.709 288.085,297.907 288.085,297.907 Z M66.356,201.97 C52.317,204.7 39.943,212.656 32.376,223.648 C27.854,219.876 19.428,212.574 17.94,209.729 C5.86,186.79 31.124,142.193 48.772,117.008 C92.389,54.765 160.702,7.653 192.326,16.2 C197.466,17.655 214.493,37.397 214.493,37.397 C214.493,37.397 182.882,54.936 153.567,79.384 C114.068,109.798 84.231,154.003 66.356,201.97 Z M89.947,307.228 C87.823,307.591 85.654,307.735 83.469,307.683 C62.345,307.116 39.527,288.099 37.26,265.546 C34.753,240.617 47.491,221.432 70.043,216.884 C72.739,216.34 75.998,216.027 79.511,216.209 C92.147,216.901 110.767,226.604 115.021,254.13 C118.789,278.509 112.805,303.331 89.947,307.228 Z M376.1,263.087 C375.918,262.447 374.741,258.138 373.121,252.945 C371.5,247.752 369.824,244.097 369.824,244.097 C376.32,234.37 376.436,225.671 375.573,220.745 C374.65,214.638 372.108,209.434 366.984,204.054 C361.859,198.674 351.379,193.165 336.65,189.03 C334.965,188.557 329.41,187.033 328.921,186.884 C328.884,186.564 328.516,168.664 328.18,160.98 C327.936,155.426 327.459,146.754 324.769,138.211 C321.562,126.65 315.975,116.533 309,110.06 C328.247,90.109 340.261,68.133 340.232,49.278 C340.177,13.021 295.648,2.05 240.774,24.772 C240.716,24.797 229.23,29.667 229.147,29.708 C229.096,29.658 208.128,9.085 207.813,8.81 C145.249,-45.76 -50.364,171.669 12.177,224.476 L25.845,236.054 C22.299,245.238 20.907,255.76 22.044,267.076 C23.505,281.608 31.002,295.541 43.153,306.306 C54.687,316.524 69.853,322.993 84.57,322.98 C108.908,379.065 164.515,413.472 229.716,415.408 C299.656,417.485 358.367,384.668 382.967,325.716 C384.576,321.577 391.405,302.935 391.405,286.479 C391.405,269.941 382.055,263.087 376.1,263.087 Z" id="Fill-8" fill="#1A1919" mask="url(#mask-2)"></path>
        </g>
    </g>
</svg>