<svg xmlns="http://www.w3.org/2000/svg" viewBox="0 0 500 500"><path fill="#684C46" d="M480.5 356.9c-.4 1.3-37 142.2-181.1 142.1-124.5 0-183.5-108.3-183.5-108.3-9.1.5-17.8-.9-25.9-3.9-36.5-13.4-54.1-55.2-41.5-90.3l-20.1-15.3C-49.3 222 171-49.1 248.9 12.2c.4.3 18.6 15 18.6 15 28-17 55.7-26.2 78.2-26.2 16 0 29.4 4.6 38.4 14.4 20.2 21.9 13 63.7-14.7 106 5.9 5.6 10.9 13.3 14.4 20.9 8.8 6.8 14.5 17.1 17.3 31.3 3.1 15.8 3.8 38.3 5.8 48 7.4 3.4 4.3 1.8 12.2 5.8 8.3 4.1 18.4 9.2 29.5 19.9 19.8 5 27.4 26 15.8 40.4-.3.4-1.7 2-3.2 3.7.3.9 4.1 7.1 6.9 19.6 8.2 1.9 14.7 7 18.2 14.3 5.9 14.3-5.8 31.6-5.8 31.6zm-57.1 106.4v5.9h2.3v-5.9h2.3v-1.9h-6.8v1.9h2.2zm5.3-1.9v7.8h2.1v-5.6l1.7 5.6h1.8l1.7-5.6v5.6h2.1v-7.8h-3.2l-1.4 4.5-1.4-4.5h-3.4z"/><path fill="#F5DCBA" d="M145.3 303.8c3.1-8 4.7-14.5 4.7-14.5 3.6 11 5.4 22.5 4.7 34.2 3-4 6.2-11.4 6.2-11.4 5.5 32.6-18.3 62.4-49.6 62.4-27.8 0-50.4-23.7-50.4-53s22.6-53 50.4-53c7.2 0 14.1 1.6 20.3 4.5 0-.1 10.7 5.3 13.7 30.8zm274.2 115c39.1-30.7 45.9-67.7 46.5-68.9 9.6-11.5 7-22.9-5.7-22.9-4 0-7.1 1.1-7.1 1.1s0-16.8-7.7-29.9c-6 6.7-22.6 20.1-44.5 30.5-20.5 9.7-47.8 18.2-81.7 19.4-9.5.4-15.4-1.1-18.7 9.9-1.1 3.9-.6 9.7.2 11.4 2.7 9.2 9.7 13.2 18.8 15.3 7 1.6 14.4 1.8 14.4 1.8 68.7 1.9 123.9-51.7 124.5-52.1.6-.5 1.2-1.1 1.2-1.1s-.6 1.4-.7 1.6c-9.9 22.3-67.4 62.8-124.6 61.6l-.2.1c-13.3-.1-29.4-3.5-37.8-13.9-13.3-16.4-6.4-43.8 14.7-44.4 0 0 4.9-.1 7-.2 52.3-1.6 99.2-20.8 132.9-61 4.6-5.7-.5-13.6-10.6-13.9-.1 0-.2 0-.2-.1-11.9-12.7-22.3-17.2-31.6-21.9-19.5-9.9-17.6-1.4-22.2-49.5-1.2-13-3.7-30.7-15.1-37.4-3-1.8-6.3-2.5-9.6-2.5s-5 .7-5.6.8c-6.2 1.4-9.8 4.9-14.2 9-21 19.4-37.8 14.1-62.9 13.9-23.5-.2-44.3 16.2-48.3 41.4-1.9 13.2-.7 26.6 1.4 32.6 0 0-6.4-4.2-9.4-8 3.7 23 24.7 38.1 24.7 38.1-3.3.8-8.1.4-8.1.4s12 9.5 22.4 12.8c-2.7 1.7-16.4 15.2-23.5 33.8-6.6 17.4-3.9 38.3-3.9 38.3l5.7-8.6s-3.7 19.1 3.5 37.5c2.4-5.5 7.7-15.3 7.7-15.3s-.8 20.5 9 37.3c.3-3.9 1.7-13.7 1.7-13.7s5.7 17.5 18.7 29.7c24.8 21.8 89.5 25.8 138.9-13z"/><path fill="#0788BF" d="M56.1 281.6c-.2-.1-19-13.8-21.6-18.4-15.8-26.6 11.7-81.4 31.2-112.5C114 74 194.4 13.3 230.9 22l37.5 19.4c-14.6 8.6-28.6 19.1-37.1 26.1l-8 6.7S200 89.9 188.4 99.8c-46.5 39.6-92.2 101-109.2 160.2.1-.1-13.9 6.8-23.1 21.6z"/><path fill="#46B8E3" d="M230.9 22C194.4 13.3 114 74 65.7 150.8v.1h.2l38.5 30.3c42.3-67.1 95.4-101.7 96.9-102.7l-6.1-41.1 11.4-5.5 22.9 7.4-1.8-7.7 3.2-9.6z"/><path fill="#FFD14F" d="M268.4 41.3l-37.1 26.1-2.6 2-32.9-26.9-.8-5.1 11.4-5.5c.6.2 22 7.1 22.9 7.4l.4-14.2 1.1-3.2 10-3.8c.1 0 27.5 23.2 27.6 23.2z"/><g fill="#122030"><path d="M341.5 15.7c-24.5 0-52 12.9-73.2 25.6-3 1.7-5.9 3.6-8.8 5.4l-11-9.3 4 13.9c-1.5 1-3 2.1-4.4 3.1l-22.8-7L240.4 60c-3.4 2.6-6.5 5.1-9.1 7.2l-36.2-29.9 1.9 13.4 26.3 23.2S200 89.6 188.4 99.5c-46.5 39.6-92.2 101-109.2 160.2l1-.5c.1-.1.3-.1.4-.2.5-.3.9-.5 1.4-.7.3-.2.6-.3.9-.5.5-.2 1-.4 1.5-.7.3-.1.6-.3.9-.4.5-.2 1.1-.4 1.6-.6.2-.1.5-.2.7-.3.8-.3 1.5-.5 2.3-.8 11.5-3.4 27.2-5.7 45.6 2.1 9.2-23.3 20.2-46.9 37.6-69.7 14.1-18.4 27.6-34.9 43.9-44 30.8-28.9 113.7-59.5 140.2-33 6.3-10.3 11.7-20 16.2-32.2 11-28.9 11.2-62.5-31.9-62.5z"/><path d="M236.3 41.6L230.9 22l-3.2 9.8 1.9 7.7z"/></g><path fill="#FFF" d="M453.2 328s0-16.8-7.7-29.9c-6 6.7-22.6 20.1-44.5 30.5-20.5 9.7-47.8 18.2-81.7 19.4-9.5.4-15.4-1.1-18.7 9.9-.3 1-.4 2-.5 3.1v.1c0 .4-.1.7-.1 1.1V365.2c0 .5.1 1 .1 1.4v.2c.2 1.8.6 2.6.6 2.7v.1c2.7 9.1 9.7 13.1 18.8 15.2 7 1.6 14.4 1.8 14.4 1.8 56.1 1.6 103.1-33.8 118.9-47.1.4-4 .5-6.6.4-11.5zm-161-299.4c13.4-6.2 27.7-11.1 41.5-12.5-13.7 3.1-30.3 10.2-50.1 22.2-.5.3-46.7 31.5-75 59.5-15.4 15.3-77.2 89.4-77.1 89.3 11.3-21.4 18.7-31.9 36.6-54.4 10.1-12.7 20.9-25.1 32-36.5 3.7-3.8 7.5-7.6 11.2-11.2 1.4-1.2 33.7-34.3 80.9-56.4z"/><path fill="#EABE8D" d="M419.5 418.8c-6.7 5.3-13.7 9.7-20.8 13.5-16.5-6.3-26.6-19.6-26.6-19.6s14.2-3.3 33.1-13c23-11.7 44.5-28.6 60.9-49.8-.8 1.3-7.6 38.2-46.6 68.9zm-45-178.2c-8-5.7-21.2-1.2-24.1 8.2 4.6.2 9.5 3.7 9.2 8.2 3.3-3.2 7.9-4.9 12.4-4.9-2.1-3.4-1-9.4 2.5-11.5zm-83.7 114.7c2.5-9.4 9.6-16.8 20.5-17.1 0 0 4.9-.1 7-.2 52.3-1.6 99.2-20.8 132.9-61 4.6-5.7-.5-13.6-10.6-13.9h-.1c-1.7 1.8-2 5.1-4.8 10-10.2 17.8-24.4 25.9-43.2 35.3-57.8 28.8-87.8 15.4-99.8 33-3.5 5.2-3.6 11-1.9 13.9zm104.6-120.7c-5.5-4-5.7-10.9-8.7-42.9-1-10.2-2.7-23.3-8.9-31.8-1.3-1.1-3.1-2.4-5.7-2.4-3.9-.2-8.4 3.9-10.9 6.7-7.2 10.4-14 17-26.2 22.8-12.3 5.6-23.9 7.6-36.1 7.2-8.9-.3-16.6-1.7-24.2-1.8-14.1-.2-26.3 4.4-35.2 15.6-6.1 7.7-8.6 15.9-9.3 25.6 0 1.2.1 2.3.1 3.3.1 1.5.2 3 .4 4.4.6 4.9 1.5 7.5 1.5 7.5v.1c.1.2.1.5.2.7 0 0-6.4-4.2-9.4-8 3.1 19.2 18.2 32.9 23.1 36.9.3.2.6.4.9.7l.1.1c.4.3.6.5.6.5-3.3.8-8.1.4-8.1.4s12 9.5 22.4 12.8c13.8-11.7 29.4-16.1 42.3-17.5 7.8-4.8 16.1-9.6 25.1-14.1-2.7-16.9 12.3-34 31.2-35.6 14.3-1 21.2 5.4 26.2 12.2 2.7-.9 5.8-1.8 9.2-2.8-.4-.3-.5-.5-.6-.6zm6.8 114c-.1 0-.3 0-.5.1-5.7 1.3-64.4 24.1-101.6 12.4-.2 2-.1 6.3.7 8.2 5.6 1.1 12.7 1.8 21 1.8 48.9.1 84.1-22.2 80.4-22.5zm-273.4-4.5s.1 0 0 0c3-3.2 4.3-7.7 3.6-12-1.1-6.1-8.1-7.4-12.7-12.2-.1-.1-.1-.2-.2-.2-.1-.1-.2-.2-.2-.3-2.1-2.4-2.8-5.1-2.6-7.5.4-6.3 6-8.1 8.9-6.9 0 0 3.4.8 6.1 4.5-.4-1.2-.3-3.2-2.4-6.2-3.4-4.9-11.3-9.8-22.4-7.4-2.1.4-.9.2-2.9.8l-.9.3c-.6.3-1.2.5-1.8.8-.3.2-2 .9-4 2.4-12.7 16.2 8.6 45.6 31.5 43.9z"/><path fill="#9C7356" d="M313.6 244.5c1.1 1.5 1.3 2.7.9 3.2-.9 1-3.9-.3-8.4-2.1-11.5-4.3-20-4.9-35 .7-3.8 1.4-6.5 2.6-7.8 2.4-2.1-.3-.1-4.2 4.5-7.9 9.3-7.4 22-9.7 32.8-5.6 4.9 1.7 10.3 5.2 13 9.3zm-2.2 11.8c-3.2-2.4-9-4-15-3-1.3.2-2.4.6-3.6.9-.4.1-.8.3-1.2.4-2.5 1.1-4.7 2.2-6.7 4.2-2.4 2.3-3.1 4.5-2.4 5 .7.5 2.3-.3 4.9-1.3 8.6-3.6 14.7-3.7 20.5-3.3 2.8.2 4.7.4 5.1-.4.3-.5-.3-1.5-1.6-2.5zm-185.5 44.1c1.4 1.1 2.5 2.3 3.3 3.5 2.6 3.8 1.8 5.9 2.9 7 .4.4 1 .5 1.5.3 1.5-.6 2.2-3 2.4-4.7.4-4-1.7-8.5-4.5-11.7-1.7-2-4-3.9-6.7-5.4-2.7-1.5-5.8-2.6-9.3-3.2-5.9-.9-11.8.3-13.4.7-.8.2-1.9.5-2.8.8-9.7 3.8-16.1 10.7-18.9 19.9-1 3.5-1.5 6.9-1.5 10 0 2.7.3 5.2.8 7.4.8 3.7 2.5 8 5.1 10.7 3.3 3.5 6.9 2.9 5.3-.4-.4-.9-2.3-4.6-2.6-11.4-.2-4.4.4-9 2.1-13.2.9-2.3 2.1-4.5 3.7-6.5 3.3-4 7.3-5.8 7.8-6.1.6-.3 1.2-.5 1.8-.8.2-.1.5-.2.9-.3 2-.6.9-.3 2.9-.8 7.8-1.4 14.5.4 19.2 4.2zm-1.7 15c-1.1-.8-1.6-1.6-1.9-2.7-.4-2-.2-3.2 1.5-4.4 1.3-.9 2.4-1.4 2.4-1.9.1-1.1-4.4-2.2-7.5.9-2.6 2.8-3.4 8.5.7 13 4.6 5 11.8 6.1 12.9 12.4.1.9.3 1.9.2 2.8 0 1.1-.4 2.7-.4 2.8-1.4 6-7.1 11.8-16.6 10.3-1.7-.3-2.9-.5-3.2 0-.7 1 3.3 5.6 10.7 5.5 7.3-.2 14.5-5.6 16.8-13.7 0-.1.7-2.4.8-4.5.1-1.5 0-3.1-.3-4.8-1.8-10.5-12.2-12.6-16.1-15.7zM377 240.6c-2.9-.4-5.7 2.4-6.3 6.3-.6 3.9 1.2 7.5 4.1 7.9s5.7-2.4 6.3-6.3c.6-3.9-1.2-7.5-4.1-7.9zM345.5 252c-1.6 2.9.3 7 4.3 9.1 3.9 2.2 8.4 1.6 10-1.3 1.6-2.9-.3-7-4.3-9.1-3.9-2.1-8.4-1.5-10 1.3zM230.1 135.7c54.2-35.2 108.4-39.2 127-24.9 0-.1-.3-.9-.4-1.1-4.7-10-15.7-17-25.5-19.8 1.7 1.8 4.2 5.1 5.2 7-7.4-5.1-17.2-9.6-27.5-11.7 0 0 1.2.9 1.4 1.1 2 1.9 4.8 4.9 5.9 7.5-9.8-3.9-22.2-6.1-32.8-4.1-.1 0-1.3.3-1.3.3s1.4.3 1.7.4c3.5 1 8.5 3.2 10.7 6.1-17.6-3.1-37 .3-47.4 6.2 1.3-.1 1.3-.1 2.5 0 3.8.1 11.6.6 14.8 2.7-11.1 2.3-27.2 7.2-35.8 14.7 1.5-.2 10.2-1.3 13.7-.7-47.6 27.2-69.3 68.4-69.3 68.4 14.1-18.4 32.3-36 57.1-52.1z"/><path fill="#684C46" d="M358.1 212.5c-.1-3.7.5-9.9 4-11.1 6-2.1 14 13.3 14.3 27-4.8-2.4-10.3-3.4-16.1-2.9-1.3-4.3-2-8.5-2.2-13z"/></svg>