<?xml version="1.0" encoding="utf-8"?>
<!-- Generator: Adobe Illustrator 17.1.0, SVG Export Plug-In . SVG Version: 6.00 Build 0)  -->
<!DOCTYPE svg PUBLIC "-//W3C//DTD SVG 1.1//EN" "http://www.w3.org/Graphics/SVG/1.1/DTD/svg11.dtd">
<svg version="1.1" id="Layer_1" xmlns="http://www.w3.org/2000/svg" xmlns:xlink="http://www.w3.org/1999/xlink" x="0px" y="0px"
	 viewBox="0 0 998 810" enable-background="new 0 0 998 810" xml:space="preserve">
<g>
	<path fill-rule="evenodd" clip-rule="evenodd" fill="#9B5C8F" d="M160.7,331.2h199.1c12.6,0,22.8,10.2,22.8,22.8V430
		c0,12.6-10.2,22.8-22.8,22.8h-71.4l9.8,24l-43.1-24h-94.3c-12.6,0-22.8-10.2-22.8-22.8V354C137.9,341.5,148.1,331.2,160.7,331.2z"
		/>
	<path fill="#FFFFFF" d="M150.2,351.9c1.4-1.9,3.5-2.9,6.3-3.1c5.1-0.4,8,2,8.7,7.2c3.1,20.9,6.5,38.6,10.1,53.1l21.9-41.7
		c2-3.8,4.5-5.8,7.5-6c4.4-0.3,7.1,2.5,8.2,8.4c2.5,13.3,5.7,24.6,9.5,34.2c2.6-25.4,7-43.7,13.2-55c1.5-2.8,3.7-4.2,6.6-4.4
		c2.3-0.2,4.4,0.5,6.3,2c1.9,1.5,2.9,3.4,3.1,5.7c0.1,1.8-0.2,3.3-1,4.8c-3.9,7.2-7.1,19.3-9.7,36.1c-2.5,16.3-3.4,29-2.8,38.1
		c0.2,2.5-0.2,4.7-1.2,6.6c-1.2,2.2-3,3.4-5.3,3.6c-2.6,0.2-5.3-1-7.9-3.7c-9.3-9.5-16.7-23.7-22.1-42.6
		c-6.5,12.8-11.3,22.4-14.4,28.8c-5.9,11.3-10.9,17.1-15.1,17.4c-2.7,0.2-5-2.1-7-6.9c-5.1-13.1-10.6-38.4-16.5-75.9
		C148.3,356,148.8,353.7,150.2,351.9z"/>
	<path fill="#FFFFFF" d="M365.2,367.6c-3.6-6.3-8.9-10.1-16-11.6c-1.9-0.4-3.7-0.6-5.4-0.6c-9.6,0-17.4,5-23.5,15
		c-5.2,8.5-7.8,17.9-7.8,28.2c0,7.7,1.6,14.3,4.8,19.8c3.6,6.3,8.9,10.1,16,11.6c1.9,0.4,3.7,0.6,5.4,0.6c9.7,0,17.5-5,23.5-15
		c5.2-8.6,7.8-18,7.8-28.3C370,379.5,368.4,373,365.2,367.6L365.2,367.6z M352.6,395.3c-1.4,6.6-3.9,11.5-7.6,14.8
		c-2.9,2.6-5.6,3.7-8.1,3.2c-2.4-0.5-4.4-2.6-5.9-6.5c-1.2-3.1-1.8-6.2-1.8-9.1c0-2.5,0.2-5,0.7-7.3c0.9-4.1,2.6-8.1,5.3-11.9
		c3.3-4.9,6.8-6.9,10.4-6.2c2.4,0.5,4.4,2.6,5.9,6.5c1.2,3.1,1.8,6.2,1.8,9.1C353.3,390.5,353,393,352.6,395.3L352.6,395.3z"/>
	<path fill="#FFFFFF" d="M302.5,367.6c-3.6-6.3-9-10.1-16-11.6c-1.9-0.4-3.7-0.6-5.4-0.6c-9.6,0-17.4,5-23.5,15
		c-5.2,8.5-7.8,17.9-7.8,28.2c0,7.7,1.6,14.3,4.8,19.8c3.6,6.3,8.9,10.1,16,11.6c1.9,0.4,3.7,0.6,5.4,0.6c9.7,0,17.5-5,23.5-15
		c5.2-8.6,7.8-18,7.8-28.3C307.3,379.5,305.7,373,302.5,367.6L302.5,367.6z M289.9,395.3c-1.4,6.6-3.9,11.5-7.6,14.8
		c-2.9,2.6-5.6,3.7-8.1,3.2c-2.4-0.5-4.4-2.6-5.9-6.5c-1.2-3.1-1.8-6.2-1.8-9.1c0-2.5,0.2-5,0.7-7.3c0.9-4.1,2.6-8.1,5.3-11.9
		c3.3-4.9,6.8-6.9,10.4-6.2c2.4,0.5,4.4,2.6,5.9,6.5c1.2,3.1,1.8,6.2,1.8,9.1C290.6,390.5,290.4,393,289.9,395.3L289.9,395.3z"/>
	<g>
		<g>
			<path d="M407.9,366.7c-6.7,6.6-10,15-10,25.2c0,10.9,3.3,19.8,9.9,26.5c6.6,6.7,15.2,10.1,25.9,10.1c3.1,0,6.6-0.5,10.4-1.6
				v-16.2c-3.5,1-6.5,1.5-9.1,1.5c-5.3,0-9.5-1.8-12.7-5.3c-3.2-3.6-4.8-8.4-4.8-14.5c0-5.7,1.6-10.4,4.7-14
				c3.2-3.7,7.1-5.5,11.9-5.5c3.1,0,6.4,0.5,10,1.5v-16.2c-3.3-0.9-7-1.3-10.9-1.3C423,356.8,414.6,360.1,407.9,366.7z M477.3,356.8
				c-9.2,0-16.4,3.1-21.6,9.2c-5.2,6.1-7.7,14.7-7.7,25.7c0,11.9,2.6,21,7.7,27.3c5.1,6.3,12.6,9.5,22.4,9.5
				c9.5,0,16.8-3.2,21.9-9.5c5.1-6.3,7.7-15.2,7.7-26.6c0-11.4-2.6-20.2-7.8-26.4C494.6,359.9,487.1,356.8,477.3,356.8z
				 M485.2,408.8c-1.8,2.8-4.5,4.2-7.9,4.2c-3.2,0-5.6-1.4-7.3-4.2c-1.7-2.8-2.5-8.4-2.5-16.9c0-13.1,3.3-19.6,10-19.6
				c7,0,10.6,6.6,10.6,19.9C488,400.4,487,406,485.2,408.8z M557.1,358.7l-3.6,15.3c-0.9,3.9-1.8,7.9-2.6,12l-2,10.6
				c-1.9-10.6-4.5-23.2-7.8-37.9h-23.2l-8.7,68.1h17.4l4.7-46.9l11.9,46.9h12.4L567,380l4.9,46.8h18.2l-9.2-68.1H557.1z
				 M640.4,358.7l-3.6,15.3c-0.9,3.9-1.8,7.9-2.6,12l-2,10.6c-1.9-10.6-4.5-23.2-7.8-37.9h-23.2l-8.7,68.1h17.4l4.7-46.9l11.9,46.9
				h12.4l11.3-46.8l4.9,46.8h18.2l-9.2-68.1H640.4z M697,399.9h16.3v-14.1H697v-12.5h18.8v-14.5h-37.2v68.1h37.3v-14.5H697V399.9z
				 M767.7,389.1c1.9-3.1,2.9-6.3,2.9-9.6c0-6.4-2.5-11.5-7.5-15.2c-5-3.7-11.9-5.6-20.5-5.6h-21.4v68.1h18.4v-31h0.3l14.9,31h19.4
				l-14.7-30.7C763,394.5,765.8,392.2,767.7,389.1z M739.5,388v-16.2c4.4,0.1,7.5,0.8,9.4,2.2c1.9,1.4,2.8,3.6,2.8,6.8
				C751.7,385.5,747.6,387.9,739.5,388z M781.4,366.7c-6.7,6.6-10,15-10,25.2c0,10.9,3.3,19.8,9.9,26.5c6.6,6.7,15.2,10.1,25.9,10.1
				c3.1,0,6.6-0.5,10.4-1.6v-16.2c-3.5,1-6.5,1.5-9.1,1.5c-5.3,0-9.5-1.8-12.7-5.3c-3.2-3.6-4.8-8.4-4.8-14.5c0-5.7,1.6-10.4,4.7-14
				c3.2-3.7,7.1-5.5,11.9-5.5c3.1,0,6.4,0.5,10,1.5v-16.2c-3.3-0.9-7-1.3-10.9-1.3C796.6,356.8,788.1,360.1,781.4,366.7z
				 M841.1,412.2v-12.4h16.3v-14.1h-16.3v-12.5H860v-14.5h-37.2v68.1h37.3v-14.5H841.1z"/>
		</g>
	</g>
</g>
</svg>
