<?xml version="1.0" encoding="utf-8"?>
<!-- Generator: Adobe Illustrator 16.0.0, SVG Export Plug-In . SVG Version: 6.00 Build 0)  -->
<!DOCTYPE svg PUBLIC "-//W3C//DTD SVG 1.1//EN" "http://www.w3.org/Graphics/SVG/1.1/DTD/svg11.dtd">
<svg version="1.1" id="Settings_1_" xmlns="http://www.w3.org/2000/svg" xmlns:xlink="http://www.w3.org/1999/xlink" x="0px"
	 y="0px" width="100px" height="100px" viewBox="0 0 100 100" enable-background="new 0 0 100 100" xml:space="preserve">
<path fill="#555555" d="M95.525,52.729c-5.582-1.496-6.848-14.585-2.269-17.229c1.501-0.87,2.665-2.104,3.435-3.527
	c-1.191-4.343-5.256-10.6-7.549-13.383c-1.676-0.078-3.39,0.305-4.949,1.206c-4.995,2.886-15.321-4.833-13.783-10.578
	c0.48-1.795,0.227-3.972-0.165-5.244c-2.839-1.468-9.562-3.443-14.556-3.932c-1.075,0.783-2.308,2.676-2.787,4.483
	c-1.629,6.075-14.521,6.958-17.285,2.17c-0.923-1.6-2.623-3.09-3.798-3.58c-3.23,0.979-10.249,5.048-13.088,7.397
	c0.196,1.664,0.234,3.597,1.188,5.247c2.763,4.789-4.72,15.438-10.629,13.855c-1.944-0.521-3.984-0.372-5.648,0.312
	C2.271,32.963,0.196,40.97,0,44.2c0.392,0.881,2.729,2.428,4.598,2.928c8.043,2.156,8.106,13.951,2.279,17.315
	c-1.646,0.951-3.056,2.271-3.643,3.936c0.979,3.132,4.913,10.018,7.458,12.955c1.664,0.195,3.597-0.232,5.248-1.188
	c5.204-3.006,15.612,4.064,13.853,10.631c-0.457,1.709-0.204,3.508,0.089,5.271c3.916,1.664,11,4.005,14.916,3.907
	c1.272-1.176,2.057-2.812,2.504-4.482c1.54-5.748,14.253-7.582,17.257-2.379c0.84,1.455,2.015,2.836,3.385,3.619
	c4.111-1.175,11.338-5.219,13.787-7.764c0.097-1.859-0.604-3.412-1.474-4.922c-3.247-5.619,4.339-15.459,10.575-13.786
	c1.708,0.456,3.568,0.302,5.135-0.089c1.37-3.428,3.643-9.549,4.032-14.639C98.629,53.947,97.329,53.212,95.525,52.729z
	 M76.521,56.525c-3.808,14.217-18.418,22.65-32.632,18.843c-14.213-3.81-22.647-18.423-18.839-32.639
	c3.808-14.216,18.418-22.651,32.632-18.842C71.895,27.696,80.33,42.307,76.521,56.525z"/>
</svg>
