<?xml version="1.0" encoding="utf-8"?>
<!-- Generator: Adobe Illustrator 15.1.0, SVG Export Plug-In . SVG Version: 6.00 Build 0)  -->
<!DOCTYPE svg PUBLIC "-//W3C//DTD SVG 1.1//EN" "http://www.w3.org/Graphics/SVG/1.1/DTD/svg11.dtd">
<svg version="1.1" id="Layer_1" xmlns="http://www.w3.org/2000/svg" xmlns:xlink="http://www.w3.org/1999/xlink" x="0px" y="0px"
	 width="100px" height="100px" viewBox="0 0 100 100" enable-background="new 0 0 100 100" xml:space="preserve">
<path d="M100,15.915V0L0,100h15.916v-8.009h4.004V100h10.01v-8.009h4.004V100h10.01v-8.009h4.004V100h10.01v-8.009h4.004V100h10.011
	v-8.009h4.004V100h10.01v-8.009h4.004V100H100V89.989h-8.009v-4.004H100v-10.01h-8.009v-4.004H100V61.961h-8.009v-4.004H100v-10.01
	h-8.009v-4.004H100v-10.01h-8.009v-4.004H100v-10.01h-8.009v-4.004H100z M85.986,85.985H33.833l52.153-52.152V85.985z"/>
</svg>
