<?xml version="1.0" encoding="utf-8"?>
<!-- Generator: Adobe Illustrator 15.1.0, SVG Export Plug-In . SVG Version: 6.00 Build 0)  -->
<!DOCTYPE svg PUBLIC "-//W3C//DTD SVG 1.1//EN" "http://www.w3.org/Graphics/SVG/1.1/DTD/svg11.dtd">
<svg version="1.1" id="Layer_1" xmlns="http://www.w3.org/2000/svg" xmlns:xlink="http://www.w3.org/1999/xlink" x="0px" y="0px"
	 width="100px" height="88.003px" viewBox="0 0 100 88.003" enable-background="new 0 0 100 88.003" xml:space="preserve">
<circle cx="40.518" cy="78.482" r="9.522"/>
<circle cx="90.478" cy="78.482" r="9.522"/>
<path d="M32.475,51.182c0.029,0.1,0.057,0.201,0.089,0.3L32.475,51.182z"/>
<path d="M23.071,54.431l-0.086-0.294C23.014,54.236,23.041,54.334,23.071,54.431z"/>
<path d="M100,11.189H20.685L17.384,0H0l1.876,6.315h7.018l14.091,47.822l0.086,0.294c2.25,7.066,8.872,12.201,16.674,12.201H100
	v-9.939H39.745c-3.348,0-6.19-2.189-7.181-5.211c-0.032-0.099-0.06-0.2-0.089-0.3l-0.41-1.394L100,36.503V11.189z"/>
</svg>
