<?xml version="1.0" encoding="utf-8"?>
<!-- Generator: Adobe Illustrator 16.0.0, SVG Export Plug-In . SVG Version: 6.00 Build 0)  -->
<!DOCTYPE svg PUBLIC "-//W3C//DTD SVG 1.1//EN" "http://www.w3.org/Graphics/SVG/1.1/DTD/svg11.dtd">
<svg version="1.1" id="Layer_1" xmlns="http://www.w3.org/2000/svg" xmlns:xlink="http://www.w3.org/1999/xlink" x="0px" y="0px"
	 width="100px" height="100px" viewBox="0 0 100 100" enable-background="new 0 0 100 100" xml:space="preserve">
<g>
	<path fill="#555555" d="M50.274,12.87l7.598,22.788l1.823,5.47h5.766H88.27l-3.008,2.204l0.172,0.175l-16.587,12.82l-4.405,3.405
		l1.663,5.313l6.223,19.892L71.829,85l1.264,3.476L54.901,74.496l-4.869-3.741L45.16,74.49L27.093,88.341l-0.001-0.001l-0.697,0.528
		l7.481-23.947l1.665-5.327l-4.424-3.401L11.52,41.128h22.953h5.766l1.824-5.47l7.341-22.017l0.668,0.095L50.274,12.87 M49.967,0
		c-2.938,0-5.384,2.048-6.023,4.789c-0.007-0.001-0.015,0-0.021-0.002l-9.45,28.341H6.336c-0.048-0.001-0.092-0.014-0.139-0.014
		c-0.001,0-0.002,0-0.003,0C2.771,33.114,0,35.889,0,39.31c0,1.884,0.857,3.55,2.185,4.687c-0.007,0.01-0.011,0.021-0.019,0.031
		L26.24,62.535l-8.961,28.683c-0.364,0.789-0.582,1.659-0.582,2.587c0,3.422,2.775,6.195,6.198,6.195
		c1.405,0,2.687-0.484,3.727-1.271c0.011,0.01,0.025,0.017,0.036,0.025L50.027,80.84l22.536,17.317
		c1.125,1.137,2.683,1.843,4.408,1.843c3.424,0,6.197-2.773,6.197-6.195c0-0.748-0.154-1.455-0.396-2.121
		c0.016-0.002,0.028-0.01,0.045-0.012l-9.077-29.016l23.718-18.332c-0.002-0.001-0.005-0.003-0.007-0.005
		c1.538-1.127,2.55-2.933,2.55-4.987c0-3.332-2.636-6.029-5.936-6.169c0.004-0.012,0.004-0.024,0.01-0.035H65.461L55.863,4.341
		c-0.004,0-0.01,0.001-0.014,0.001C55.059,1.833,52.738,0,49.967,0L49.967,0z"/>
</g>
</svg>
