<?xml version="1.0" encoding="utf-8"?>
<!-- Generator: Adobe Illustrator 16.0.0, SVG Export Plug-In . SVG Version: 6.00 Build 0)  -->
<!DOCTYPE svg PUBLIC "-//W3C//DTD SVG 1.1//EN" "http://www.w3.org/Graphics/SVG/1.1/DTD/svg11.dtd">
<svg version="1.1" id="Layer_1" xmlns="http://www.w3.org/2000/svg" xmlns:xlink="http://www.w3.org/1999/xlink" x="0px" y="0px"
	 width="100px" height="100px" viewBox="0 0 100 100" enable-background="new 0 0 100 100" xml:space="preserve">
<path fill="#555555" d="M100,25h-6.25V6.25C93.75,2.795,90.967,0,87.5,0c-3.441,0-6.25,2.795-6.25,6.25V25H75v12.5h6.25v56.25
	c0,3.455,2.809,6.25,6.25,6.25c3.467,0,6.25-2.795,6.25-6.25V37.5H100V25z"/>
<path fill="#555555" d="M62.5,62.5h-6.25V6.25C56.25,2.795,53.467,0,50,0c-3.442,0-6.25,2.795-6.25,6.25V62.5H37.5V75h6.25v18.75
	c0,3.455,2.808,6.25,6.25,6.25c3.467,0,6.25-2.795,6.25-6.25V75h6.25V62.5z"/>
<path fill="#555555" d="M25,37.5h-6.25V6.25C18.75,2.795,15.967,0,12.5,0C9.058,0,6.25,2.795,6.25,6.25V37.5H0V50h6.25v43.75
	c0,3.455,2.808,6.25,6.25,6.25c3.467,0,6.25-2.795,6.25-6.25V50H25V37.5z"/>
</svg>
