<?xml version="1.0" encoding="utf-8"?>
<!-- Generator: Adobe Illustrator 16.0.0, SVG Export Plug-In . SVG Version: 6.00 Build 0)  -->
<!DOCTYPE svg PUBLIC "-//W3C//DTD SVG 1.1//EN" "http://www.w3.org/Graphics/SVG/1.1/DTD/svg11.dtd">
<svg version="1.1" id="Layer_1" xmlns="http://www.w3.org/2000/svg" xmlns:xlink="http://www.w3.org/1999/xlink" x="0px" y="0px"
	 width="62.167px" height="54.734px" viewBox="12.771 0 62.167 54.734" enable-background="new 12.771 0 62.167 54.734"
	 xml:space="preserve">
<path fill="#555555" d="M38.512,51.856c0,1.587-1.321,2.878-2.952,2.878H15.952c-1.631,0-2.952-1.29-2.952-2.878V40.604
	c0-1.59,1.321-2.879,2.952-2.879H35.56c1.631,0,2.952,1.289,2.952,2.879V51.856z"/>
<path fill="#555555" d="M74.875,51.856c0,1.587-1.321,2.878-2.953,2.878H52.314c-1.631,0-2.951-1.29-2.951-2.878V40.604
	c0-1.59,1.32-2.879,2.951-2.879h19.607c1.631,0,2.951,1.289,2.951,2.879v11.252H74.875z"/>
<path fill="#555555" d="M58.38,16.407c0,1.847-1.496,3.344-3.342,3.344H32.834c-1.846,0-3.342-1.497-3.342-3.344V3.344
	C29.494,1.497,30.989,0,32.834,0h22.205c1.846,0,3.342,1.497,3.342,3.344V16.407z"/>
<polyline fill="#555555" points="45.437,29.735 60.619,29.735 60.619,35.985 63.619,35.985 63.619,26.735 45.437,26.735 
	45.437,21.242 42.437,21.242 42.437,26.735 24.256,26.735 24.256,35.985 27.256,35.985 27.256,29.735 42.437,29.735 "/>
</svg>
