<?xml version="1.0" encoding="utf-8"?>
<!-- Generator: Adobe Illustrator 16.0.0, SVG Export Plug-In . SVG Version: 6.00 Build 0)  -->
<!DOCTYPE svg PUBLIC "-//W3C//DTD SVG 1.1//EN" "http://www.w3.org/Graphics/SVG/1.1/DTD/svg11.dtd">
<svg version="1.1" id="Layer_1" xmlns="http://www.w3.org/2000/svg" xmlns:xlink="http://www.w3.org/1999/xlink" x="0px" y="0px"
	 width="100px" height="100px" viewBox="0 0 100 100" enable-background="new 0 0 100 100" xml:space="preserve">
<path fill="#555555" d="M98.169,1.831c-2.44-2.441-6.433-2.441-8.874,0L76.574,14.562c-5.213-3.467-11.193-5.188-17.199-5.188
	c-7.996,0-16.095,3.052-22.095,9.155L18.53,37.28C7.837,47.961,6.519,64.479,14.551,76.6L1.831,89.331
	c-2.441,2.44-2.441,6.396,0,8.838C3.052,99.391,4.651,100,6.25,100c1.6,0,3.198-0.609,4.419-1.831l12.72-12.731
	c5.213,3.468,11.23,5.188,17.236,5.188c7.892,0,15.991-3.052,22.096-9.155l18.713-18.75C92.127,52.039,93.445,35.522,85.412,23.4
	l12.757-12.731C100.609,8.228,100.609,4.272,98.169,1.831z M78.088,40.625c0,5.005-1.953,9.717-5.492,13.257l-18.714,18.75
	c-3.552,3.54-8.355,5.493-13.257,5.493c-2.832,0-5.542-0.695-8.032-1.88l9.223-9.326c2.441-2.44,2.441-6.396,0-8.838
	c-2.338-2.44-6.293-2.44-8.734,0l-9.326,9.326c-1.196-2.478-1.88-5.188-1.88-8.032c0-5.005,1.953-9.717,5.493-13.257l18.646-18.75
	c3.54-3.54,8.355-5.493,13.36-5.493c2.832,0,5.529,0.695,8.02,1.88l-9.508,9.521c-2.441,2.441-2.441,6.396,0,8.838
	c1.221,1.221,2.818,1.831,4.418,1.831c1.588,0,3.187-0.61,4.406-1.831l9.498-9.521C77.404,35.07,78.088,37.781,78.088,40.625z"/>
</svg>
