<svg xmlns="http://www.w3.org/2000/svg" xmlns:xlink="http://www.w3.org/1999/xlink" version="1.2" baseProfile="tiny" id="Layer_1" x="0px" y="0px" width="100.0px" height="100px" viewBox="0 0 120 120" xml:space="preserve">
<path fill="#000000" d="M110.975,69.466c0,0.848-0.693,1.541-1.541,1.541H48.62c-0.847,0-1.541-0.693-1.541-1.541V27.855  c0-0.847,0.694-1.541,1.541-1.541h60.814c0.848,0,1.541,0.694,1.541,1.541V69.466z"/>
<path fill="#000000" d="M85.513,79.291c0,0.847-0.694,1.541-1.541,1.541H48.62c-0.847,0-1.541-0.694-1.541-1.541v-3.66  c0-0.848,0.694-1.541,1.541-1.541h35.352c0.847,0,1.541,0.693,1.541,1.541V79.291z"/>
<path fill="#000000" d="M33.466,81.732c1.699,0,3.082,1.381,3.082,3.08c0,1.701-1.383,3.084-3.082,3.084s-3.083-1.383-3.083-3.084  C30.383,83.113,31.767,81.732,33.466,81.732 M33.466,75.567c-5.106,0-9.247,4.141-9.247,9.245c0,5.108,4.141,9.249,9.247,9.249  c5.108,0,9.247-4.141,9.247-9.249C42.712,79.708,38.574,75.567,33.466,75.567L33.466,75.567z"/>
<path fill="#000000" d="M97.938,81.732c1.699,0,3.082,1.381,3.082,3.08c0,1.701-1.383,3.084-3.082,3.084s-3.083-1.383-3.083-3.084  C94.855,83.113,96.239,81.732,97.938,81.732 M97.938,75.567c-5.108,0-9.247,4.141-9.247,9.245c0,5.108,4.139,9.249,9.247,9.249  c5.107,0,9.246-4.141,9.246-9.249C107.185,79.708,103.046,75.567,97.938,75.567L97.938,75.567z"/>
<path fill="#000000" d="M26.245,37.552c-0.847,0-1.894,0.598-2.324,1.328L11.757,59.527c-0.431,0.73-0.783,2.021-0.783,2.869v20.419  c0,0.847,0.694,1.541,1.541,1.541h4.786c0.847,0,1.836-0.541,2.136-1.423c0.543-1.603,1.634-11.988,13.13-11.988h9.888  c0.848,0,1.542-0.694,1.542-1.542V39.093c0-0.848-0.694-1.542-1.542-1.542H26.245z"/>
</svg>