<?xml version="1.0" encoding="utf-8"?>
<!-- Generator: Adobe Illustrator 16.0.0, SVG Export Plug-In . SVG Version: 6.00 Build 0)  -->
<!DOCTYPE svg PUBLIC "-//W3C//DTD SVG 1.1//EN" "http://www.w3.org/Graphics/SVG/1.1/DTD/svg11.dtd">
<svg version="1.1" id="Layer_1" xmlns="http://www.w3.org/2000/svg" xmlns:xlink="http://www.w3.org/1999/xlink" x="0px" y="0px"
	 width="100px" height="100px" viewBox="0 0 100 100" enable-background="new 0 0 100 100" xml:space="preserve">
<path fill="#555555" d="M92.479,57.889c0,0.706-0.576,1.283-1.283,1.283H40.517c-0.706,0-1.284-0.577-1.284-1.283V23.212
	c0-0.706,0.579-1.284,1.284-1.284h50.679c0.707,0,1.283,0.579,1.283,1.284V57.889z"/>
<path fill="#555555" d="M71.261,66.076c0,0.705-0.578,1.283-1.284,1.283h-29.46c-0.706,0-1.284-0.578-1.284-1.283v-3.051
	c0-0.706,0.579-1.283,1.284-1.283h29.46c0.706,0,1.284,0.577,1.284,1.283V66.076z"/>
<path fill="#555555" d="M27.888,68.109c1.416,0,2.568,1.151,2.568,2.567c0,1.417-1.152,2.569-2.568,2.569
	c-1.416,0-2.569-1.152-2.569-2.569C25.319,69.261,26.473,68.109,27.888,68.109 M27.888,62.973c-4.255,0-7.706,3.451-7.706,7.704
	c0,4.257,3.451,7.708,7.706,7.708c4.257,0,7.706-3.451,7.706-7.708C35.593,66.424,32.145,62.973,27.888,62.973L27.888,62.973z"/>
<path fill="#555555" d="M81.615,68.109c1.416,0,2.568,1.151,2.568,2.567c0,1.417-1.152,2.569-2.568,2.569s-2.569-1.152-2.569-2.569
	C79.046,69.261,80.199,68.109,81.615,68.109 M81.615,62.973c-4.257,0-7.706,3.451-7.706,7.704c0,4.257,3.449,7.708,7.706,7.708
	c4.256,0,7.705-3.451,7.705-7.708C89.32,66.424,85.871,62.973,81.615,62.973L81.615,62.973z"/>
<path fill="#555555" d="M21.871,31.293c-0.706,0-1.578,0.498-1.937,1.106L9.797,49.606c-0.359,0.608-0.652,1.684-0.652,2.39v17.017
	c0,0.706,0.578,1.284,1.284,1.284h3.988c0.706,0,1.53-0.451,1.78-1.186c0.453-1.336,1.362-9.99,10.942-9.99h8.24
	c0.707,0,1.285-0.578,1.285-1.285V32.578c0-0.707-0.578-1.285-1.285-1.285L21.871,31.293L21.871,31.293z"/>
</svg>
