<?xml version="1.0" encoding="utf-8"?>
<!-- Generator: Adobe Illustrator 16.0.0, SVG Export Plug-In . SVG Version: 6.00 Build 0)  -->
<!DOCTYPE svg PUBLIC "-//W3C//DTD SVG 1.1//EN" "http://www.w3.org/Graphics/SVG/1.1/DTD/svg11.dtd">
<svg version="1.1" id="Calque_1" xmlns="http://www.w3.org/2000/svg" xmlns:xlink="http://www.w3.org/1999/xlink" x="0px" y="0px"
	 width="100px" height="100px" viewBox="0 0 100 100" enable-background="new 0 0 100 100" xml:space="preserve">
<polygon fill="#555555" points="34.318,69.084 5.173,54.514 2.953,55.621 34.318,71.305 97.047,39.939 94.827,38.829 "/>
<polygon fill="#555555" points="34.318,73.523 5.173,58.952 2.953,60.061 34.318,75.743 97.047,44.379 94.827,43.269 "/>
<polygon fill="#555555" points="34.318,77.963 5.173,63.393 2.953,64.501 34.318,80.184 97.047,48.818 94.827,47.707 "/>
<path fill="#555555" d="M65.684,19.817L2.953,51.182l31.365,15.683L97.047,35.5L65.684,19.817z M57.84,47.262
	c-4.326,2.165-11.349,2.165-15.68,0c-4.332-2.166-4.332-5.677,0-7.842c4.329-2.164,11.352-2.164,15.68,0
	C62.172,41.585,62.172,45.096,57.84,47.262z"/>
</svg>
