<svg xmlns="http://www.w3.org/2000/svg" xmlns:xlink="http://www.w3.org/1999/xlink" version="1.1" id="Layer_1" x="0px" y="0px" width="100px" height="100px" viewBox="0 0 100 100" enable-background="new 0 0 100 100" xml:space="preserve">
<path fill="#000000" d="M75.57,26.67c-10.814,0-20.731,10.156-25.741,16.299c-5.01-6.143-14.927-16.299-25.741-16.299  c-12.629,0-22.903,10.274-22.903,22.903s10.274,22.903,22.903,22.903c10.814,0,20.731-10.156,25.741-16.299  c5.009,6.143,14.926,16.299,25.741,16.299c12.629,0,22.903-10.274,22.903-22.903S88.199,26.67,75.57,26.67z M24.088,64.523  c-8.244,0-14.951-6.706-14.951-14.95s6.707-14.951,14.951-14.951c7.68,0,16.509,9.362,20.822,14.951  C40.596,55.164,31.768,64.523,24.088,64.523z M75.57,64.523c-7.683,0-16.514-9.365-20.825-14.954  c4.303-5.59,13.116-14.948,20.825-14.948c8.244,0,14.95,6.707,14.95,14.951S83.814,64.523,75.57,64.523z"/>
</svg>