<?xml version="1.0" encoding="utf-8"?>
<!-- Generator: Adobe Illustrator 16.0.0, SVG Export Plug-In . SVG Version: 6.00 Build 0)  -->
<!DOCTYPE svg PUBLIC "-//W3C//DTD SVG 1.1//EN" "http://www.w3.org/Graphics/SVG/1.1/DTD/svg11.dtd">
<svg version="1.1" id="Layer_1" xmlns="http://www.w3.org/2000/svg" xmlns:xlink="http://www.w3.org/1999/xlink" x="0px" y="0px"
	 width="100px" height="100px" viewBox="0 0 100 100" enable-background="new 0 0 100 100" xml:space="preserve">
<g id="Layer_1_1_">
	<g>
		<g>
			<path fill="#555555" d="M98.634,63.623c0-11.078-8.979-20.057-20.056-20.057c-1.711,0-3.363,0.237-4.948,0.641
				c0.231-1.335,0.36-2.705,0.36-4.106c0-13.132-10.646-23.777-23.777-23.777S26.436,26.969,26.436,40.101
				c0,1.425,0.132,2.818,0.373,4.174c-1.666-0.448-3.408-0.709-5.214-0.709c-11.077,0-20.055,8.979-20.055,20.057
				c0,10.449,7.993,19.021,18.198,19.961c0.113,0.05,0.236,0.079,0.367,0.079h1.2c0.098,0.001,0.192,0.015,0.29,0.015
				c0.098,0,0.192-0.014,0.29-0.015h56.404c0.098,0.001,0.191,0.015,0.29,0.015c0.098,0,0.192-0.014,0.29-0.015h0.512
				c0.061,0,0.113-0.022,0.171-0.034C90.173,83.118,98.634,74.371,98.634,63.623z"/>
		</g>
	</g>
</g>
<g id="Layer_2">
</g>
</svg>
