<svg xmlns="http://www.w3.org/2000/svg" viewBox="0 0 120 120"><path fill="#7d57a4" d="M0 0h120v120H0z"/><path fill="#fff" d="M67.48 53.55c-1.19-.26-2.33.42-3.43 2.03-.87 1.26-1.45 2.56-1.74 3.91-.16.77-.24 1.58-.24 2.41 0 .97.19 1.96.58 2.99.48 1.26 1.13 1.96 1.93 2.12.8.16 1.69-.19 2.66-1.06 1.22-1.09 2.06-2.72 2.51-4.88.16-.77.24-1.58.24-2.41 0-.97-.19-1.96-.58-2.99-.48-1.25-1.12-1.96-1.93-2.12zm20.62 0c-1.19-.26-2.33.42-3.43 2.03-.87 1.26-1.45 2.56-1.74 3.91-.16.77-.24 1.58-.24 2.41 0 .97.19 1.96.58 2.99.48 1.26 1.13 1.96 1.93 2.12.8.16 1.69-.19 2.66-1.06 1.22-1.09 2.06-2.72 2.51-4.88.16-.77.24-1.58.24-2.41 0-.97-.19-1.96-.58-2.99-.48-1.25-1.12-1.96-1.93-2.12z"/><path fill="#fff" d="M92.76 40H27.24c-4.14 0-7.5 3.36-7.5 7.5v24.98c0 4.14 3.36 7.5 7.5 7.5h31.04l14.19 7.9-3.22-7.9h23.5c4.14 0 7.5-3.36 7.5-7.5V47.5c.01-4.14-3.35-7.5-7.49-7.5zM52.74 72.91c.06.84-.07 1.55-.38 2.16-.4.74-.98 1.13-1.75 1.19-.87.06-1.73-.35-2.6-1.22-3.06-3.14-5.49-7.81-7.28-14-2.12 4.21-3.71 7.37-4.75 9.48-1.93 3.72-3.59 5.62-4.97 5.72-.9.06-1.66-.69-2.29-2.26-1.69-4.3-3.5-12.63-5.44-24.97-.13-.86.05-1.6.52-2.21.47-.61 1.16-.95 2.06-1.02 1.67-.12 2.63.67 2.88 2.36 1.03 6.86 2.14 12.69 3.31 17.48l7.21-13.72c.66-1.24 1.48-1.9 2.47-1.97 1.44-.1 2.35.82 2.71 2.76.82 4.36 1.86 8.11 3.12 11.25.86-8.35 2.31-14.39 4.34-18.11.48-.9 1.21-1.39 2.17-1.46.77-.05 1.46.16 2.08.65.62.49.95 1.12 1 1.89.04.58-.07 1.1-.32 1.57-1.28 2.38-2.34 6.34-3.18 11.89-.82 5.34-1.13 9.53-.91 12.54zm20.2-5.16c-1.96 3.28-4.54 4.92-7.72 4.92-.58 0-1.18-.07-1.79-.19-2.32-.48-4.07-1.75-5.26-3.81-1.06-1.8-1.59-3.97-1.59-6.52 0-3.38.85-6.47 2.56-9.27 2-3.28 4.57-4.92 7.72-4.92.58 0 1.17.07 1.79.19 2.32.48 4.07 1.75 5.26 3.81 1.06 1.77 1.59 3.93 1.59 6.47-.01 3.38-.86 6.48-2.56 9.32zm20.62 0c-1.96 3.28-4.54 4.92-7.72 4.92-.58 0-1.17-.07-1.78-.19-2.32-.48-4.07-1.75-5.26-3.81-1.06-1.8-1.59-3.97-1.59-6.52 0-3.38.85-6.47 2.56-9.27 2-3.28 4.57-4.92 7.72-4.92.58 0 1.17.07 1.78.19 2.32.48 4.07 1.75 5.26 3.81 1.06 1.77 1.59 3.93 1.59 6.47 0 3.38-.86 6.48-2.56 9.32z"/></svg>
