<svg xmlns="http://www.w3.org/2000/svg" xmlns:xlink="http://www.w3.org/1999/xlink" width="100" height="100" viewBox="0 0 100 100"><defs><clipPath id="b"><rect width="100" height="100"/></clipPath></defs><g id="a" clip-path="url(#b)"><rect width="100" height="100" fill="#fff"/><rect width="100" height="100" fill="#eee"/><g transform="translate(9 25.655)"><path d="M179.753,195.8c-4.732,3.488-11.591,5.349-17.5,5.349a31.66,31.66,0,0,1-21.374-8.156c-.443-.4-.046-.946.486-.634a43.018,43.018,0,0,0,21.384,5.671,42.523,42.523,0,0,0,16.312-3.335c.8-.34,1.471.525.688,1.106" transform="translate(-129.235 -176.611)" fill="#f90" fill-rule="evenodd"/><path d="M577.807,183.949c-.6-.773-4-.365-5.522-.184-.464.057-.535-.347-.117-.638,2.7-1.9,7.142-1.354,7.66-.716s-.135,5.09-2.676,7.213c-.39.326-.762.152-.588-.28.571-1.425,1.85-4.619,1.244-5.395" transform="translate(-525.323 -167.01)" fill="#f90" fill-rule="evenodd"/><path d="M572.708,6.758V4.908a.457.457,0,0,1,.468-.468h8.284a.461.461,0,0,1,.479.468V6.493a2.605,2.605,0,0,1-.624,1.163l-4.292,6.129a9.146,9.146,0,0,1,4.725,1.014.843.843,0,0,1,.44.72v1.974c0,.269-.3.585-.61.422a9.542,9.542,0,0,0-8.752.014c-.287.156-.588-.156-.588-.425V15.627a2.238,2.238,0,0,1,.3-1.272l4.973-7.132h-4.328a.458.458,0,0,1-.479-.464" transform="translate(-525.64 -4.078)" fill-rule="evenodd"/><path d="M173.431,15.624h-2.52a.476.476,0,0,1-.45-.429V2.261a.473.473,0,0,1,.486-.464h2.35a.475.475,0,0,1,.457.432V3.92h.046a3.463,3.463,0,0,1,6.589,0,3.722,3.722,0,0,1,6.4-.982c.8,1.088.634,2.669.634,4.055l0,8.163a.476.476,0,0,1-.486.468h-2.517a.479.479,0,0,1-.454-.468V8.3a16.192,16.192,0,0,0-.071-2.424,1.312,1.312,0,0,0-1.482-1.113,1.674,1.674,0,0,0-1.506,1.06,7.831,7.831,0,0,0-.234,2.478v6.855a.476.476,0,0,1-.486.468h-2.517a.476.476,0,0,1-.454-.468l0-6.855c0-1.443.238-3.566-1.553-3.566-1.811,0-1.74,2.07-1.74,3.566v6.855a.476.476,0,0,1-.486.468" transform="translate(-156.58 -1.399)" fill-rule="evenodd"/><path d="M714.982,1.524c3.739,0,5.763,3.211,5.763,7.295,0,3.945-2.237,7.075-5.763,7.075-3.672,0-5.671-3.211-5.671-7.213,0-4.027,2.024-7.156,5.671-7.156M715,4.164c-1.857,0-1.974,2.531-1.974,4.108s-.025,4.955,1.953,4.955c1.953,0,2.045-2.722,2.045-4.381a11.959,11.959,0,0,0-.376-3.431A1.577,1.577,0,0,0,715,4.164" transform="translate(-651.552 -1.399)" fill-rule="evenodd"/><path d="M875.817,15.624h-2.51a.479.479,0,0,1-.454-.468l0-12.938a.477.477,0,0,1,.486-.422h2.336a.482.482,0,0,1,.45.362V4.136h.046c.705-1.769,1.694-2.612,3.435-2.612a3.307,3.307,0,0,1,2.942,1.524c.659,1.035.659,2.775.659,4.027v8.142a.484.484,0,0,1-.486.408h-2.527a.477.477,0,0,1-.447-.408V8.191c0-1.414.163-3.484-1.577-3.484a1.647,1.647,0,0,0-1.457,1.035,5.724,5.724,0,0,0-.4,2.449v6.965a.485.485,0,0,1-.493.468" transform="translate(-801.775 -1.399)" fill-rule="evenodd"/><path d="M413.163,8.046a4.93,4.93,0,0,1-.471,2.673,2.048,2.048,0,0,1-1.744,1.145c-.968,0-1.535-.737-1.535-1.825,0-2.148,1.925-2.538,3.75-2.538v.546m2.541,6.143a.526.526,0,0,1-.6.06,6.143,6.143,0,0,1-1.446-1.68,4.991,4.991,0,0,1-4.154,1.833,3.575,3.575,0,0,1-3.771-3.927,4.277,4.277,0,0,1,2.687-4.119,17.463,17.463,0,0,1,4.739-.876V5.154a3.214,3.214,0,0,0-.308-1.825,1.677,1.677,0,0,0-1.414-.656,1.917,1.917,0,0,0-2.024,1.514.527.527,0,0,1-.439.461l-2.442-.262a.444.444,0,0,1-.376-.528C406.719.893,409.4,0,411.795,0a5.714,5.714,0,0,1,3.8,1.255C416.818,2.4,416.7,3.928,416.7,5.59V9.517a3.447,3.447,0,0,0,.95,2.336.477.477,0,0,1-.011.67c-.514.429-1.428,1.226-1.932,1.673l0-.007" transform="translate(-372.698 0)" fill-rule="evenodd"/><path d="M7.426,8.046a4.93,4.93,0,0,1-.471,2.673,2.043,2.043,0,0,1-1.744,1.145c-.968,0-1.531-.737-1.531-1.825C3.679,7.89,5.6,7.5,7.426,7.5v.546m2.541,6.143a.526.526,0,0,1-.6.06,6.2,6.2,0,0,1-1.446-1.68A4.986,4.986,0,0,1,3.771,14.4,3.576,3.576,0,0,1,0,10.474,4.282,4.282,0,0,1,2.687,6.356,17.462,17.462,0,0,1,7.426,5.48V5.154a3.243,3.243,0,0,0-.3-1.825,1.686,1.686,0,0,0-1.414-.656A1.921,1.921,0,0,0,3.679,4.186a.527.527,0,0,1-.436.461L.8,4.385a.446.446,0,0,1-.376-.528C.985.893,3.662,0,6.058,0a5.714,5.714,0,0,1,3.8,1.255C11.08,2.4,10.963,3.928,10.963,5.59V9.517a3.447,3.447,0,0,0,.95,2.336.473.473,0,0,1-.007.67c-.514.429-1.428,1.226-1.932,1.673l-.007-.007" transform="translate(0 0)" fill-rule="evenodd"/></g><g transform="translate(18.9 54.637)"><path d="M8.055,26.308C3.716,26.308.1,28.149.1,33.7c0,4.4,2.431,7.171,8.067,7.171,6.633,0,7.059-4.37,7.059-4.37H12.011s-.689,2.353-4.04,2.353a4.4,4.4,0,0,1-4.693-4.428H15.562V32.807c0-2.557-1.623-6.5-7.507-6.5Zm-.112,2.073c2.6,0,4.37,1.592,4.37,3.977H3.349C3.349,29.826,5.661,28.381,7.943,28.381Z" transform="translate(0 -20.83)" fill="#e53238"/><path d="M75.169.1V17.254c0,.974-.069,2.341-.069,2.341h3.066s.11-.982.11-1.879c0,0,1.515,2.37,5.633,2.37a6.961,6.961,0,0,0,7.283-7.325A6.922,6.922,0,0,0,83.915,5.52c-4.279,0-5.609,2.311-5.609,2.311V.1Zm7.955,7.542c2.945,0,4.818,2.186,4.818,5.119a4.857,4.857,0,0,1-4.8,5.2c-3.143,0-4.839-2.454-4.839-5.175C78.306,10.254,79.827,7.642,83.123,7.642Z" transform="translate(-59.609)" fill="#0064d2"/><path d="M159.834,26.308c-6.528,0-6.947,3.574-6.947,4.146h3.249s.17-2.087,3.473-2.087c2.146,0,3.809.982,3.809,2.871v.672h-3.809c-5.057,0-7.731,1.479-7.731,4.482,0,2.955,2.47,4.562,5.809,4.562,4.55,0,6.015-2.514,6.015-2.514,0,1,.077,1.985.077,1.985h2.888s-.112-1.221-.112-2V31.669c0-4.428-3.572-5.36-6.722-5.36Zm3.585,7.619v.9c0,1.169-.721,4.075-4.968,4.075-2.326,0-3.323-1.161-3.323-2.507C155.128,33.943,158.486,33.927,163.419,33.927Z" transform="translate(-120.634 -20.83)" fill="#f5af02"/><path d="M214.879,29.041h3.655l5.246,10.51,5.234-10.51h3.311l-9.533,18.711h-3.473l2.751-5.216Z" transform="translate(-170.706 -23.002)" fill="#86b817"/></g></g></svg>