<svg xmlns="http://www.w3.org/2000/svg" xmlns:xlink="http://www.w3.org/1999/xlink" width="100" height="100" viewBox="0 0 100 100"><defs><clipPath id="b"><rect width="100" height="100"/></clipPath></defs><g id="a" clip-path="url(#b)"><rect width="100" height="100" fill="#fff"/><rect width="100" height="100" fill="#eee"/><g transform="translate(17 7.967)"><path d="M83.982,7.646a11.959,11.959,0,0,1,2.825-4.477,11.065,11.065,0,0,1,17.4,2.585c2.665,4.851,5.49,9.594,8.235,14.392,4.584,7.969,9.221,15.937,13.752,23.933a11.017,11.017,0,1,1-19.269,10.687q-6.037-10.514-12.1-21a2.415,2.415,0,0,0-.293-.426,4.336,4.336,0,0,1-.88-1.306c-1.786-3.145-3.625-6.263-5.41-9.381C87.1,20.626,85.9,18.627,84.755,16.6a11.036,11.036,0,0,1-1.466-5.863,8.171,8.171,0,0,1,.693-3.092" transform="translate(-61.088 0)" fill="#3c8bd9"/><path d="M31.255,28.6a15.329,15.329,0,0,0-.506,2.932,11.513,11.513,0,0,0,1.6,6.263q4.4,7.556,8.768,15.165c.267.453.48.906.746,1.333-1.6,2.772-3.2,5.517-4.824,8.289C34.8,66.445,32.561,70.336,30.3,74.2c-.107,0-.133-.053-.16-.133a1.652,1.652,0,0,1,.107-.613,10.727,10.727,0,0,0-2.559-10.581,10.157,10.157,0,0,0-6.263-3.225,10.816,10.816,0,0,0-8.555,2.372c-.453.346-.746.853-1.279,1.119a.178.178,0,0,1-.187-.133c1.279-2.212,2.532-4.424,3.811-6.636q7.915-13.752,15.858-27.478c.053-.107.133-.187.187-.293" transform="translate(-8.362 -20.954)" fill="#fabc04"/><path d="M4.173,147.8c.506-.453.986-.933,1.519-1.359a11.016,11.016,0,0,1,17.617,6.689,11.714,11.714,0,0,1-.426,5.677,2.788,2.788,0,0,1-.107.453c-.24.426-.453.88-.72,1.306a10.715,10.715,0,0,1-10.447,5.57,10.94,10.94,0,0,1-10.1-9.541A10.663,10.663,0,0,1,2.974,149.5c.267-.48.586-.906.879-1.386.133-.107.08-.32.32-.32" transform="translate(-1.029 -105.664)" fill="#34a852"/><path d="M10.982,157.707c-.107.107-.107.293-.293.32-.027-.187.08-.293.187-.426l.107.107" transform="translate(-7.837 -115.573)" fill="#fabc04"/><path d="M81.478,199.753c-.107-.187,0-.32.107-.453l.107.107-.213.346" transform="translate(-59.731 -146.16)" fill="#e1c025"/><path d="M5.517,260.4a5.4,5.4,0,1,0,0,10.794A4.974,4.974,0,0,0,9.3,269.675a5.3,5.3,0,0,0,1.2-4.371H5.517v1.466H9.061a3.1,3.1,0,0,1-.8,1.866,3.672,3.672,0,0,1-2.745,1.093,3.918,3.918,0,0,1,0-7.836,3.661,3.661,0,0,1,2.665,1.066l1.039-1.039A5.116,5.116,0,0,0,5.517,260.4Zm9.035,3.864a3.518,3.518,0,1,0,3.465,3.518,3.437,3.437,0,0,0-3.465-3.518m0,5.65a2.141,2.141,0,1,1,1.946-2.132,2.021,2.021,0,0,1-1.946,2.132m7.516-5.65a3.518,3.518,0,1,0,3.465,3.518,3.421,3.421,0,0,0-3.465-3.518m0,5.65a2.141,2.141,0,1,1,1.946-2.132,2.021,2.021,0,0,1-1.946,2.132m7.489-5.65a3.483,3.483,0,0,0,0,6.956,2.329,2.329,0,0,0,1.812-.8h.053v.506c0,1.333-.693,2.052-1.839,2.052a1.9,1.9,0,0,1-1.732-1.226l-1.333.56a3.268,3.268,0,0,0,3.065,2.052c1.786,0,3.278-1.066,3.278-3.625V264.5H31.422v.56h-.053a2.329,2.329,0,0,0-1.812-.8m.133,5.6a1.992,1.992,0,0,1-1.919-2.105,2.017,2.017,0,0,1,1.919-2.132,1.957,1.957,0,0,1,1.839,2.132,1.932,1.932,0,0,1-1.839,2.105m4.291-9.035H35.5v10.287H33.98Zm5.6,3.438a3.346,3.346,0,0,0-3.331,3.518,3.443,3.443,0,0,0,3.491,3.518,3.485,3.485,0,0,0,2.932-1.546l-1.2-.8a2.014,2.014,0,0,1-1.732.959,1.745,1.745,0,0,1-1.706-1.066l4.717-1.946-.16-.4a3.3,3.3,0,0,0-3.012-2.239m-1.812,3.411a1.93,1.93,0,0,1,1.839-2.052,1.329,1.329,0,0,1,1.306.746Z" transform="translate(0 -190.976)" fill="#757575"/><path d="M170.4,274.255l3.518-9.355h1.359l3.518,9.355h-1.333l-.906-2.532h-3.918l-.906,2.532Zm2.638-3.651h3.118l-1.519-4.211h-.053Z" transform="translate(-124.986 -194.277)" fill="#757575"/><path d="M204.079,273.482a3.528,3.528,0,0,1-.879-2.425,3.623,3.623,0,0,1,.879-2.425,2.792,2.792,0,0,1,2.159-.986,2.827,2.827,0,0,1,1.279.293,2.219,2.219,0,0,1,.906.8h.053l-.053-.879V264.9h1.2v9.355h-1.146v-.879h-.053a2.427,2.427,0,0,1-.906.8,2.654,2.654,0,0,1-1.279.293,2.754,2.754,0,0,1-2.159-.986m3.785-.746a2.659,2.659,0,0,0,0-3.331,1.939,1.939,0,0,0-2.878,0,2.621,2.621,0,0,0,0,3.3,1.9,1.9,0,0,0,1.439.64,1.724,1.724,0,0,0,1.439-.613" transform="translate(-149.044 -194.277)" fill="#757575"/><path d="M235.484,281.436a3.152,3.152,0,0,1-3.545.08,2.854,2.854,0,0,1-1.039-1.333l1.066-.453a1.976,1.976,0,0,0,.693.906,1.675,1.675,0,0,0,.986.32,1.831,1.831,0,0,0,.959-.24.677.677,0,0,0,.373-.586c0-.4-.32-.72-.933-.906l-1.093-.267c-1.253-.32-1.866-.906-1.866-1.812a1.7,1.7,0,0,1,.72-1.413,3.041,3.041,0,0,1,1.812-.533,3.108,3.108,0,0,1,1.546.4,2.24,2.24,0,0,1,.959,1.093l-1.066.453a1.506,1.506,0,0,0-.586-.64,1.8,1.8,0,0,0-.933-.24,1.585,1.585,0,0,0-.853.24.7.7,0,0,0-.373.586c0,.373.346.64,1.039.773l.959.24c1.279.32,1.892.959,1.892,1.919a1.662,1.662,0,0,1-.72,1.413" transform="translate(-169.362 -201.831)" fill="#757575"/></g></g></svg>