<svg width="128" height="128" fill="none" xmlns="http://www.w3.org/2000/svg"><path fill="#fff" d="M0 0h128v128H0z"/><path fill-rule="evenodd" clip-rule="evenodd" d="M92.454 42.342a6.796 6.796 0 1 0 0-13.593 6.796 6.796 0 0 0 0 13.593zM44.31 40.268l20.848-20.849a8.78 8.78 0 0 1 6.229-2.562h30.921a8.808 8.808 0 0 1 8.17 5.45 8.798 8.798 0 0 1 .665 3.385v30.921c0 2.43-.972 4.639-2.607 6.229L87.72 83.678l-43.41-43.41z" fill="#4285F4"/><path fill-rule="evenodd" clip-rule="evenodd" d="M87.72 83.678 62.03 109.394c-1.635 1.59-3.843 2.606-6.273 2.606-2.43 0-4.638-1.016-6.228-2.606L18.606 78.472C16.972 76.882 16 74.674 16 72.245a8.843 8.843 0 0 1 2.606-6.273L44.31 40.267l43.41 43.411z" fill="#34A853"/><path fill-rule="evenodd" clip-rule="evenodd" d="M33.611 93.478 18.606 78.472C16.972 76.882 16 74.674 16 72.244a8.843 8.843 0 0 1 2.606-6.272L44.31 40.268l21.256 21.256-31.954 31.954z" fill="#FBBC05"/><path fill-rule="evenodd" clip-rule="evenodd" d="M108.092 18.997a8.804 8.804 0 0 0-5.784-2.14H71.387a8.78 8.78 0 0 0-6.229 2.562L44.31 40.267l21.256 21.256 21.649-21.649a6.796 6.796 0 0 1 9.568-9.568l11.309-11.309z" fill="#EA4335"/><path d="M65.553 77.737c7.624 0 13.805-6.18 13.805-13.804S73.178 50.13 65.553 50.13 51.75 56.309 51.75 63.933s6.18 13.804 13.804 13.804z" fill="#4285F4"/><path fill-rule="evenodd" clip-rule="evenodd" d="M84.36 59.872H66.002v7.877H76.57c-.985 5.005-5.105 7.877-10.568 7.877-6.448 0-11.642-5.374-11.642-12.047S59.553 51.532 66 51.532c2.777 0 5.284 1.02 7.255 2.687l5.731-5.93c-3.492-3.152-7.97-5.098-12.986-5.098-10.926 0-19.703 9.082-19.703 20.388s8.777 20.388 19.703 20.388c9.852 0 18.808-7.414 18.808-20.388 0-1.205-.18-2.502-.448-3.707z" fill="#fff"/></svg>