<svg width="26" height="26" viewBox="0 0 26 26" fill="none" xmlns="http://www.w3.org/2000/svg">
<g clip-path="url(#clip0_1297_69)">
<path d="M0.75 13.0002C0.75 18.0164 3.76637 22.3257 8.08268 24.2203C8.04823 23.3649 8.07655 22.338 8.29591 21.4073C8.53143 20.4129 9.87214 14.7322 9.87214 14.7322C9.87214 14.7322 9.48081 13.95 9.48081 12.794C9.48081 10.9787 10.533 9.62283 11.8433 9.62283C12.9576 9.62283 13.4959 10.4598 13.4959 11.462C13.4959 12.5821 12.7815 14.2575 12.4141 15.8094C12.1072 17.1088 13.0657 18.1687 14.3476 18.1687C16.6686 18.1687 18.2318 15.1877 18.2318 11.6557C18.2318 8.9708 16.4235 6.96123 13.1345 6.96123C9.4185 6.96123 7.10354 9.73241 7.10354 12.8278C7.10354 13.8951 7.41821 14.6477 7.91108 15.2306C8.13771 15.4982 8.16919 15.6059 8.08718 15.9133C8.02841 16.1387 7.89347 16.6813 7.83758 16.8964C7.75604 17.2066 7.50463 17.3176 7.22422 17.203C5.51267 16.5043 4.71556 14.6299 4.71556 12.5229C4.71556 9.04306 7.65039 4.8704 13.4707 4.8704C18.1477 4.8704 21.226 8.25485 21.226 11.8878C21.226 16.6934 18.5543 20.2835 14.6161 20.2835C13.2936 20.2835 12.0496 19.5686 11.6234 18.7565C11.6234 18.7565 10.9122 21.579 10.7616 22.1241C10.5019 23.0685 9.99349 24.0126 9.52866 24.7483C10.6304 25.0735 11.7942 25.2507 13.0005 25.2507C19.7652 25.2507 25.2501 19.766 25.2501 13.0002C25.2501 6.23465 19.7652 0.75 13.0005 0.75C6.23513 0.75 0.75 6.23465 0.75 13.0002Z" fill="#CB1F27"/>
</g>
<defs>
<clipPath id="clip0_1297_69">
<rect width="24.5" height="24.5" fill="white" transform="translate(0.75 0.75)"/>
</clipPath>
</defs>
</svg>
