<svg width="25" height="26" viewBox="0 0 25 26" fill="none" xmlns="http://www.w3.org/2000/svg">
<g clip-path="url(#clip0_1297_1648)">
<path d="M24.9029 13.3535C24.9029 12.341 24.8207 11.6022 24.6429 10.8359H13.081V15.4059H19.8676C19.7308 16.5416 18.9919 18.252 17.35 19.4013L17.3269 19.5543L20.9826 22.3863L21.2359 22.4115C23.5619 20.2633 24.9029 17.1026 24.9029 13.3535Z" fill="#4285F4"/>
<path d="M13.081 25.3947C16.4058 25.3947 19.1971 24.3 21.2359 22.4118L17.3499 19.4015C16.3101 20.1267 14.9144 20.633 13.081 20.633C9.82448 20.633 7.06058 18.4848 6.07533 15.5156L5.93091 15.5279L2.1297 18.4697L2.07999 18.6079C4.10501 22.6306 8.26458 25.3947 13.081 25.3947Z" fill="#34A853"/>
<path d="M6.07556 15.5155C5.81559 14.7493 5.66514 13.9283 5.66514 13.08C5.66514 12.2316 5.81559 11.4107 6.06188 10.6444L6.055 10.4813L2.20614 7.49219L2.08021 7.55209C1.2456 9.22141 0.766693 11.096 0.766693 13.08C0.766693 15.064 1.2456 16.9385 2.08021 18.6078L6.07556 15.5155Z" fill="#FBBC05"/>
<path d="M13.081 5.52719C15.3934 5.52719 16.9532 6.52603 17.8426 7.36074L21.318 3.96739C19.1835 1.9834 16.4059 0.765625 13.081 0.765625C8.2646 0.765625 4.10502 3.52952 2.07999 7.55222L6.06167 10.6446C7.0606 7.67541 9.82451 5.52719 13.081 5.52719Z" fill="#EB4335"/>
</g>
<defs>
<clipPath id="clip0_1297_1648">
<rect width="24.1504" height="24.7139" fill="white" transform="translate(0.765289 0.765625)"/>
</clipPath>
</defs>
</svg>
