<svg width="28" height="17" viewBox="0 0 28 17" fill="none" xmlns="http://www.w3.org/2000/svg">
<path fill-rule="evenodd" clip-rule="evenodd" d="M25.5751 0H2.61755C1.16468 0 -0.0114466 1.18766 8.40658e-05 2.62899V11.3923C8.40658e-05 12.8452 1.17621 14.0213 2.62908 14.0213H13.5025L18.4722 16.7887L17.3422 14.0213H25.5751C27.028 14.0213 28.2041 12.8452 28.2041 11.3923V2.62899C28.2041 1.17613 27.028 0 25.5751 0ZM2.13267 2.03307C1.80982 2.05613 1.56767 2.17144 1.40624 2.39052C1.24481 2.59807 1.18716 2.86328 1.22175 3.16308C1.90206 7.48708 2.53625 10.4043 3.12431 11.9149C3.35493 12.4683 3.62013 12.7335 3.93146 12.7105C4.41575 12.6759 4.99228 12.0071 5.67259 10.7041C6.03005 9.96618 6.58352 8.85923 7.33301 7.38331C7.95567 9.56261 8.80894 11.2 9.88129 12.2954C10.1811 12.6067 10.4924 12.7451 10.7922 12.722C11.0574 12.699 11.265 12.5606 11.4033 12.3069C11.5186 12.0878 11.5648 11.8341 11.5417 11.5459C11.4725 10.4966 11.5763 9.03219 11.8646 7.15269C12.1644 5.21554 12.5334 3.82033 12.983 2.99012C13.0753 2.81716 13.1099 2.64419 13.0984 2.43664C13.0753 2.17144 12.96 1.95236 12.7409 1.7794C12.5218 1.60643 12.2797 1.52572 12.0145 1.54878C11.6801 1.57184 11.4264 1.73327 11.2534 2.05613C10.5385 3.3591 10.0312 5.46921 9.73139 8.39801C9.29323 7.29106 8.92425 5.98809 8.63598 4.45451C8.50914 3.7742 8.19781 3.45134 7.69046 3.48593C7.34454 3.509 7.05628 3.73961 6.82566 4.17778L4.30044 8.98607C3.88534 7.31412 3.49329 5.27319 3.13584 2.86328C3.05513 2.26368 2.72074 1.98695 2.13267 2.03307ZM24.3521 2.86167C25.1707 3.03463 25.7819 3.47279 26.197 4.19922C26.566 4.82188 26.7504 5.57137 26.7504 6.47077C26.7504 7.65843 26.4506 8.74231 25.8511 9.73395C25.1592 10.887 24.2598 11.4636 23.1413 11.4636C22.9453 11.4636 22.7378 11.4405 22.5187 11.3944C21.7 11.2214 21.0889 10.7832 20.6738 10.0568C20.3048 9.42262 20.1203 8.6616 20.1203 7.77374C20.1203 6.58608 20.4201 5.50219 21.0197 4.52208C21.7231 3.36901 22.6225 2.79248 23.7294 2.79248C23.9254 2.79248 24.133 2.81554 24.3521 2.86167ZM23.8678 9.09976C24.2944 8.71925 24.5827 8.15425 24.7441 7.39322C24.7902 7.12802 24.8248 6.83975 24.8248 6.53995C24.8248 6.20556 24.7556 5.84811 24.6173 5.49066C24.4443 5.04096 24.2137 4.79882 23.937 4.74116C23.5219 4.66045 23.1183 4.89107 22.7378 5.45607C22.4264 5.89423 22.2304 6.35546 22.1266 6.82822C22.069 7.09342 22.0459 7.38169 22.0459 7.66996C22.0459 8.00435 22.1151 8.3618 22.2535 8.71925C22.4264 9.16895 22.657 9.41109 22.9338 9.46874C23.2221 9.5264 23.5334 9.39956 23.8678 9.09976ZM18.9674 4.19922C18.5523 3.47279 17.9296 3.03463 17.1225 2.86167C16.9034 2.81554 16.6959 2.79248 16.4998 2.79248C15.3929 2.79248 14.4935 3.36901 13.7901 4.52208C13.1905 5.50219 12.8907 6.58608 12.8907 7.77374C12.8907 8.6616 13.0752 9.42262 13.4442 10.0568C13.8593 10.7832 14.4704 11.2214 15.2891 11.3944C15.5082 11.4405 15.7157 11.4636 15.9118 11.4636C17.0302 11.4636 17.9296 10.887 18.6215 9.73395C19.2211 8.74231 19.5209 7.65843 19.5209 6.47077C19.5209 5.57137 19.3364 4.82188 18.9674 4.19922ZM17.5145 7.39322C17.3531 8.15425 17.0648 8.71925 16.6382 9.09976C16.3038 9.39956 15.9925 9.5264 15.7042 9.46874C15.4275 9.41109 15.1969 9.16895 15.0239 8.71925C14.8855 8.3618 14.8164 8.00435 14.8164 7.66996C14.8164 7.38169 14.8394 7.09342 14.8971 6.82822C15.0008 6.35546 15.1969 5.89423 15.5082 5.45607C15.8887 4.89107 16.2923 4.66045 16.7074 4.74116C16.9841 4.79882 17.2147 5.04096 17.3877 5.49066C17.5261 5.84811 17.5952 6.20556 17.5952 6.53995C17.5952 6.83975 17.5722 7.12802 17.5145 7.39322Z" fill="#7F54B3"/>
</svg>
