<svg width="216" height="140" viewBox="0 0 216 140" fill="none" xmlns="http://www.w3.org/2000/svg">
<rect width="216" height="140" fill="white"/>
<path d="M148.084 4.2002H83.3193V25.2002H148.084V4.2002Z" fill="#BEA0F2"/>
<path d="M67.9157 4.2002H25.5559V7.7002H67.9157V4.2002Z" fill="#271B3D"/>
<path d="M57.7634 18.2002H25.5559V21.7002H57.7634V18.2002Z" fill="#271B3D"/>
<path d="M79.1183 11.2002H25.906V14.7002H79.1183V11.2002Z" fill="#271B3D"/>
<path d="M12.953 21.7002C17.7866 21.7002 21.705 17.7827 21.705 12.9502C21.705 8.1177 17.7866 4.2002 12.953 4.2002C8.11939 4.2002 4.20097 8.1177 4.20097 12.9502C4.20097 17.7827 8.11939 21.7002 12.953 21.7002Z" fill="#271B3D"/>
<path d="M38.782 106.05C38.782 101.264 42.4788 97.3726 47.0649 97.2998H108.76C113.409 97.2998 117.176 101.216 117.176 106.05C117.176 110.883 113.409 114.8 108.76 114.8H47.0509C42.4718 114.8 38.782 110.829 38.782 106.05Z" fill="#BEA0F2"/>
<path d="M47.0509 114.8H85.6613V97.2998H47.0649C42.4788 97.3726 38.782 101.264 38.782 106.05C38.782 110.832 42.4683 114.8 47.0509 114.8Z" fill="#271B3D"/>
<path d="M211.733 67.9004H152.219V71.4004H211.733V67.9004Z" fill="#271B3D"/>
<path d="M181.976 74.9004H152.219V78.4004H181.976V74.9004Z" fill="#271B3D"/>
<path d="M143.852 17.237L144.223 8.09502L129.565 22.851L128.84 22.1265L143.586 7.48602L134.477 7.85702L134.358 6.86302L145.07 6.54102L145.154 6.62502L144.85 17.3525L143.855 17.2335L143.852 17.237Z" fill="black"/>
<path d="M211.799 98.3496H124.279V135.8H211.799V98.3496Z" fill="#BEA0F2"/>
<path d="M211.733 4.2002H152.219V63.7002H211.733V4.2002Z" fill="#271B3D"/>
<path d="M201.241 32.3874V25.8438H198.128V32.3874H194.382V29.1156H191.268V32.3874H179.04C178.289 27.5312 174.095 23.7998 169.049 23.7998C163.475 23.7998 158.937 28.3509 158.937 33.9498C158.937 39.5487 163.471 44.0998 169.049 44.0998C174.095 44.0998 178.289 40.3721 179.04 35.5122H204.797V32.3874H201.245H201.241ZM169.045 40.975C165.189 40.975 162.05 37.8245 162.05 33.9535C162.05 30.0824 165.189 26.9319 169.045 26.9319C172.902 26.9319 176.04 30.0824 176.04 33.9535C176.04 37.8245 172.902 40.975 169.045 40.975Z" fill="white"/>
<path d="M83.0707 76.6992C94.1881 76.6992 103.2 67.689 103.2 56.5742C103.2 45.4595 94.1881 36.4492 83.0707 36.4492C71.9534 36.4492 62.9411 45.4595 62.9411 56.5742C62.9411 67.689 71.9534 76.6992 83.0707 76.6992Z" fill="#BEA0F2"/>
<path fill-rule="evenodd" clip-rule="evenodd" d="M86.1727 56.9742C88.1989 55.7385 90.6081 53.6502 90.6081 50.1974C90.6081 45.6377 87.1231 42.7871 83.0707 42.7871C79.0184 42.7871 75.5334 45.6377 75.5334 50.1974C75.5334 53.6467 77.9391 55.7385 79.9688 56.9742L74.5203 69.5636H91.6246L86.1762 56.9742H86.1727Z" fill="#271B3D"/>
<path d="M196.98 121.093C195.415 122.636 190.78 126.423 188.165 125.429C187.853 125.31 187.64 125.1 187.5 124.775C186.835 123.231 187.717 119.521 190.122 113.743L188.883 112.959C188.648 113.218 184.185 118.156 180.691 122.612L183.106 113.862L181.752 113.277C181.731 113.309 179.728 116.599 177.155 119.728C173.938 123.644 171.207 125.632 169.478 125.335C168.995 125.251 168.61 124.988 168.329 124.551C168.074 124.148 167.916 123.62 167.857 123C171.823 121.887 175.272 119.469 176.101 116.76C176.437 115.661 176.315 114.597 175.758 113.848C175.377 113.33 174.617 112.714 173.168 112.714C170.024 112.714 167.682 116.189 166.751 119.637C166.541 120.41 166.415 121.152 166.366 121.842C165.413 122.041 164.454 122.146 163.523 122.16C163.81 121.583 164.065 120.984 164.283 120.389C165.315 117.568 165.693 114.159 163.659 113.046C162.424 112.371 160.267 112.651 157.754 115.139L158.209 113.442L157.036 112.661C155.748 113.659 154.218 114.443 152.653 114.968C152.828 114.331 152.975 113.694 153.083 113.071C153.861 108.633 152.712 105.437 149.936 104.296C147.972 103.491 145.63 103.936 143.827 105.462C141.807 107.173 140.904 109.795 141.471 112.304C141.958 114.457 143.299 115.983 145.35 116.718C146.869 117.264 148.62 117.323 150.381 117.05C148.585 121.485 145.501 125.184 143.078 125.286C142.182 125.321 141.45 124.953 140.88 124.187C139.43 122.241 139.388 118.38 140.778 114.345L139.371 113.858C137.802 118.412 137.921 122.71 139.686 125.072C140.558 126.241 141.748 126.826 143.141 126.766C146.603 126.619 150.262 121.789 152.107 116.672C153.584 116.27 155.016 115.664 156.266 114.947L151.963 130.987L153.402 131.372L155.457 123.718C155.59 124.383 155.807 124.999 156.136 125.506C156.588 126.199 157.207 126.63 157.974 126.784C158.146 126.819 158.314 126.836 158.482 126.836C160.015 126.836 161.51 125.464 162.69 123.623C163.911 123.676 165.168 123.571 166.401 123.333C166.499 124.106 166.723 124.782 167.076 125.338C167.584 126.133 168.326 126.633 169.226 126.791C171.578 127.197 174.638 125.135 178.317 120.652C179.098 119.703 179.819 118.748 180.453 117.873L178.202 126.031L179.532 126.651C181.514 123.774 184.874 119.784 187.251 117.047C185.827 121.131 185.473 123.812 186.138 125.349C186.439 126.052 186.947 126.542 187.643 126.808C188.116 126.987 188.617 127.067 189.128 127.067C192.919 127.067 197.467 122.703 198.034 122.139L196.987 121.079L196.98 121.093ZM168.186 120.022C168.942 117.218 170.822 114.201 173.164 114.201C173.623 114.201 174.235 114.292 174.557 114.73C174.83 115.097 174.872 115.678 174.676 116.322C174.228 117.789 172.551 119.357 170.192 120.522C169.453 120.886 168.683 121.194 167.899 121.439C167.958 120.988 168.053 120.515 168.186 120.022ZM151.617 112.815C151.463 113.687 151.242 114.565 150.969 115.43C149.079 115.832 147.251 115.825 145.854 115.325C144.286 114.761 143.299 113.638 142.924 111.982C142.392 109.63 143.537 107.66 144.79 106.603C145.735 105.805 146.824 105.385 147.885 105.385C148.392 105.385 148.896 105.479 149.373 105.675C152.212 106.837 151.998 110.649 151.617 112.815ZM158.265 125.338C157.894 125.261 157.61 125.062 157.375 124.705C156.378 123.179 156.819 119.623 157.106 118.191C159.217 115.325 161.713 113.676 162.945 114.355C163.89 114.873 163.866 117.197 162.886 119.882C161.685 123.165 159.609 125.618 158.265 125.342V125.338Z" fill="#271B3D"/>
<path d="M126.229 99.9846L167.993 86.6426" stroke="#261B3C" stroke-width="0.99" stroke-miterlimit="10"/>
<path d="M209.408 99.9846L167.993 86.6426" stroke="#261B3C" stroke-width="0.99" stroke-miterlimit="10"/>
<path d="M167.892 88.2942C168.804 88.2942 169.544 87.5546 169.544 86.6422C169.544 85.7299 168.804 84.9902 167.892 84.9902C166.979 84.9902 166.239 85.7299 166.239 86.6422C166.239 87.5546 166.979 88.2942 167.892 88.2942Z" fill="#271B3D"/>
<path d="M201.997 11.4323L207.248 17.5002V4.2002H196.746V17.5002L201.997 11.4323Z" fill="#BEA0F2"/>
<path d="M22.6852 56.8189C12.0953 56.8189 4.32 65.0649 4.32 75.1799C4.32 80.8919 6.69705 85.9599 11.4862 89.5719C15.3335 92.4734 17.483 93.5969 17.483 98.6089V131.712L22.6082 135.74V135.8L22.6467 135.768L22.6852 135.8V135.74L27.8104 131.712V125.062L24.1381 121.39L27.3903 118.139L24.1381 114.887L27.3903 111.636L24.1381 108.384L27.8104 104.713V98.6054C27.8104 93.5934 29.9599 92.4699 33.8073 89.5684C38.5929 85.9564 40.9735 80.8884 40.9735 75.1764C40.9735 65.0614 33.2752 56.8154 22.6888 56.8154L22.6852 56.8189ZM22.6467 73.9654C19.6255 73.9654 17.1785 71.5189 17.1785 68.4984C17.1785 65.4779 19.6255 63.0314 22.6467 63.0314C25.6679 63.0314 28.115 65.4779 28.115 68.4984C28.115 71.5189 25.6679 73.9654 22.6467 73.9654Z" fill="#271B3D"/>
<path d="M19.1354 64.3087L19.1389 64.3052V64.3018L19.1354 64.3087Z" fill="#BEA0F2"/>
<path d="M37.8893 36.4453C26.7112 36.4453 17.6476 45.5068 17.6476 56.6823C17.6476 56.9483 17.6546 57.2143 17.6651 57.4768C18.9254 57.1373 20.2452 56.9203 21.6175 56.8468C21.6175 56.7908 21.614 56.7383 21.614 56.6823C21.614 47.7118 28.9132 40.4143 37.8858 40.4143C46.8583 40.4143 54.1575 47.7118 54.1575 56.6823C54.1575 65.6528 46.8583 72.9503 37.8858 72.9503C31.1677 72.9503 25.3914 68.8623 22.9093 63.0418C22.8218 63.0383 22.7343 63.0278 22.6432 63.0278C21.3094 63.0278 20.0876 63.5073 19.1389 64.3018C22.1496 71.7008 29.4068 76.9193 37.8893 76.9193C49.0674 76.9193 58.131 67.8578 58.131 56.6823C58.131 45.5068 49.0674 36.4453 37.8893 36.4453Z" fill="#BEA0F2"/>
<g clip-path="url(#clip0_1946_297)">
<path d="M127.879 46.2583C133.735 46.2583 138.5 51.0193 138.5 56.8767C138.5 62.7341 133.738 67.4952 127.879 67.4952C122.021 67.4952 117.258 62.7341 117.258 56.8767C117.258 51.0193 122.021 46.2583 127.879 46.2583ZM127.879 36.75C116.764 36.75 107.751 45.7606 107.751 56.8733C107.751 67.9859 116.764 76.9965 127.879 76.9965C138.995 76.9965 148.007 67.9859 148.007 56.8733C148.007 45.7606 138.998 36.75 127.879 36.75Z" fill="#271B3D"/>
<path d="M117.92 39.3881L122.71 47.6051C124.242 46.749 126.003 46.2548 127.879 46.2548V36.75C124.256 36.75 120.858 37.7141 117.92 39.3881Z" fill="#BEA0F2"/>
</g>
<g clip-path="url(#clip1_1946_297)">
<path d="M38.859 127.048C38.859 122.263 42.5558 118.376 47.1419 118.3H108.837C113.486 118.3 117.253 122.215 117.253 127.048C117.253 131.881 113.486 135.796 108.837 135.796H47.1279C42.5453 135.796 38.859 131.83 38.859 127.048Z" fill="#BEA0F2"/>
<path d="M38.859 127.048C38.859 122.263 42.5558 118.376 47.1419 118.3H108.837C113.486 118.3 117.253 122.215 117.253 127.048C117.253 131.881 113.486 135.796 108.837 135.796H47.1279C42.5453 135.796 38.859 131.83 38.859 127.048Z" fill="#BEA0F2"/>
<path d="M57.6443 135.796H63.3857L70.3033 118.3H64.5619L57.6443 135.796Z" fill="#271B3D"/>
<path d="M80.5186 135.796H86.26L93.1776 118.3H87.4362L80.5186 135.796Z" fill="#271B3D"/>
<path d="M75.9991 118.3L69.0815 135.796H74.8228L81.7404 118.3H75.9991Z" fill="#271B3D"/>
<path d="M58.8661 118.3H53.1248L46.2282 135.742C46.5223 135.774 46.8233 135.796 47.1279 135.796H51.9485L58.8661 118.3Z" fill="#271B3D"/>
<path d="M41.4566 133.402L47.429 118.3H47.1454C44.0017 118.351 41.2816 120.192 39.8742 122.881L39.1951 124.595C38.978 125.374 38.859 126.196 38.859 127.048C38.859 129.533 39.8567 131.797 41.4566 133.398V133.402Z" fill="#271B3D"/>
</g>
<defs>
<clipPath id="clip0_1946_297">
<rect width="40.2593" height="40.25" fill="white" transform="translate(107.751 36.75)"/>
</clipPath>
<clipPath id="clip1_1946_297">
<rect width="78.3936" height="17.5" fill="white" transform="translate(38.859 118.3)"/>
</clipPath>
</defs>
</svg>
