<svg xmlns="http://www.w3.org/2000/svg" width="216" height="140"><g fill="none" fill-rule="evenodd"><path fill="#FFF" fill-rule="nonzero" d="M0 0h216v140H0z"/><path fill="#BEA0F2" fill-rule="nonzero" d="M64.92 99.127H4.277v36.779H64.92z"/><path fill="#271B3D" fill-rule="nonzero" d="M41.978 105.256h-37.7v3.503h37.7zM64.919 105.256h-18.74v3.503h18.74zM64.92 126.271H50.145v3.503h14.773zM30.797 115.764H4.278v3.503h26.519zM64.92 115.764H34.937v3.503H64.92zM45.945 126.271H4.278v3.503h41.667z"/><path fill="#BEA0F2" fill-rule="nonzero" d="M176.872 135.947h35.007v-17.514h-35.007zM137.645 135.933h35.008V118.42h-35.008zM98.503 135.901h35.007v-17.514H98.503zM155.166 114.269h35.008V96.756h-35.008zM176.854 92.548h35.008V75.035h-35.008zM194.358 114.254h17.504V96.74h-17.504zM194.358 70.852h17.504V53.34h-17.504z"/><path fill="#271B3D" fill-rule="nonzero" d="M88.15 88.902H28.637v3.502H88.15z"/><path fill="#BEA0F2" fill-rule="nonzero" d="M88.15 67.952H28.637v21.016H88.15z"/><path fill="#271B3D" fill-rule="nonzero" d="m45.469 83.585-3.634-3.636a4.87 4.87 0 0 0 .808-2.694 4.908 4.908 0 0 0-4.9-4.903 4.908 4.908 0 0 0-4.902 4.903 4.908 4.908 0 0 0 4.901 4.904c.994 0 1.919-.298 2.692-.809l3.634 3.636 1.404-1.405-.003.004Zm-7.73-3.408c-1.61 0-2.92-1.31-2.92-2.922a2.923 2.923 0 0 1 2.92-2.92c1.61 0 2.92 1.31 2.92 2.92a2.923 2.923 0 0 1-2.92 2.922Z"/><path stroke="#271B3D" stroke-width=".71" d="M50.342 71.126V84.99"/><path fill="#BEA0F2" fill-rule="nonzero" d="M87.99 44.373c11.086 0 20.073-8.993 20.073-20.085S99.076 4.204 87.99 4.204c-11.086 0-20.073 8.992-20.073 20.084 0 11.092 8.987 20.085 20.073 20.085Z"/><path fill="#FFF" fill-rule="nonzero" d="M88.385 13.06h-.788v22.458h.788z"/><path fill="#FFF" fill-rule="nonzero" d="M99.213 24.683v-.788H76.766v.788z"/><path fill="#BEA0F2" fill-rule="nonzero" d="M140.176 72.853H135.6c.813-8.915-.977-25.605-14.616-25.605s-15.427 16.69-14.616 25.605h-4.564l-7.618 36.838h53.608l-7.618-36.838Zm-19.192-19.864c8.077 0 8.063 13.415 5.739 19.864H115.25c-2.325-6.449-2.342-19.864 5.737-19.864h-.004Z"/><path fill="#271B3D" fill-rule="nonzero" d="M134.326 4.204h-14.693v25.468c2.986.371 5.66 3.04 5.66 5.835s-1.866 5.629-5.177 5.629c-2.601 0-4.12-.918-6.05-2.616l-.71.637c1.292 2.063 4.408 4.617 7.828 4.617 5.472 0 9.904-3.77 9.904-9.244 0-2.711-.732-6.067-3.144-8.81l3.413-11.516 80.516 23.993V4.204h-77.55.003Z"/><path stroke="#261B3C" stroke-width=".99" d="m122.62 41.524-24.787 69.438M119.36 41.524l24.786 69.438"/><path fill="#271B3D" fill-rule="nonzero" d="M63.715 4.204H4.2v59.545h59.514z"/><path fill="#BEA0F2" fill-rule="nonzero" d="M42.514 37.087c0-11.657 3.788-29 15.544-29L45.822 42.055H10.524c0-3.87 5.135-13.325 31.99-4.97v.003Z"/><path fill="#FFF" fill-rule="nonzero" d="m14.703 61.028 8.78-33.373h13.818l8.073 33.373h1.502l-8.71-35.955h-15.53l-9.442 35.955z"/><path fill="#BEA0F2" fill-rule="nonzero" d="m22.636 25.073.848 2.582H37.3l.865-2.582zM149.026 81.024l11.693 4.094 10.491-6.592 1.387-12.319-8.76-8.764-12.311 1.388-6.593 10.494zM167.556 24.992l8.388 2.501v-9.562l21.929-13.727h-12.816l-17.501 10.91z"/><path fill="#BEA0F2" fill-rule="nonzero" d="m153.234 20.726 7.845 2.336v-9.198l15.645-9.66h-11.752l-11.738 7.32z"/><path stroke="#271B3D" stroke-width=".99" d="M164.997 65.185 153.391 76.8"/><path fill="#271B3D" d="M124.191 92.097c2.094-1.279 4.583-3.44 4.583-7.006 0-4.718-3.6-7.664-7.79-7.664-4.19 0-7.79 2.946-7.79 7.664 0 3.57 2.49 5.73 4.583 7.006l-5.628 13.02h17.675l-5.629-13.02h-.004Z"/></g></svg>