<svg width="222" height="144" viewBox="0 0 222 144" fill="none" xmlns="http://www.w3.org/2000/svg">
<rect width="222" height="144" fill="white"/>
<path d="M66.7225 101.881H4.39697V139.681H66.7225V101.881Z" fill="#BEA0F2"/>
<path d="M43.1444 108.18H4.39697V111.78H43.1444V108.18Z" fill="#271B3D"/>
<path d="M66.7223 108.18H47.4619V111.78H66.7223V108.18Z" fill="#271B3D"/>
<path d="M66.7224 129.779H51.5386V133.379H66.7224V129.779Z" fill="#271B3D"/>
<path d="M31.6522 118.98H4.39697V122.58H31.6522V118.98Z" fill="#271B3D"/>
<path d="M66.7224 118.98H35.9087V122.58H66.7224V118.98Z" fill="#271B3D"/>
<path d="M47.221 129.779H4.39697V133.379H47.221V129.779Z" fill="#271B3D"/>
<path d="M181.785 139.723H217.765V121.723H181.785V139.723Z" fill="#BEA0F2"/>
<path d="M141.468 139.709H177.449V121.709H141.468V139.709Z" fill="#BEA0F2"/>
<path d="M101.239 139.676H137.219V121.676H101.239V139.676Z" fill="#BEA0F2"/>
<path d="M159.476 117.443H195.457V99.4434H159.476V117.443Z" fill="#BEA0F2"/>
<path d="M181.767 95.1191H217.747V77.1191H181.767V95.1191Z" fill="#BEA0F2"/>
<path d="M199.757 117.428H217.747V99.4277H199.757V117.428Z" fill="#BEA0F2"/>
<path d="M199.757 72.8203H217.747V54.8203H199.757V72.8203Z" fill="#BEA0F2"/>
<path d="M90.5991 91.3711H29.4321V94.9711H90.5991V91.3711Z" fill="#271B3D"/>
<path d="M90.5991 69.8398H29.4321V91.4398H90.5991V69.8398Z" fill="#BEA0F2"/>
<path d="M46.7316 85.9065L42.9968 82.1697C43.5221 81.3741 43.828 80.4237 43.828 79.4013C43.828 76.6221 41.5684 74.3613 38.7907 74.3613C36.013 74.3613 33.7534 76.6221 33.7534 79.4013C33.7534 82.1805 36.013 84.4413 38.7907 84.4413C39.8125 84.4413 40.7624 84.1353 41.5576 83.6097L45.2924 87.3465L46.7352 85.9029L46.7316 85.9065ZM38.7871 82.4037C37.132 82.4037 35.7863 81.0573 35.7863 79.4013C35.7863 77.7453 37.132 76.3989 38.7871 76.3989C40.4422 76.3989 41.7879 77.7453 41.7879 79.4013C41.7879 81.0573 40.4422 82.4037 38.7871 82.4037Z" fill="#271B3D"/>
<path d="M51.7402 73.1016V87.3504" stroke="#271B3D" stroke-width="0.71" stroke-miterlimit="10"/>
<path d="M90.4335 45.6051C101.828 45.6051 111.065 36.3632 111.065 24.9627C111.065 13.5622 101.828 4.32031 90.4335 4.32031C79.0392 4.32031 69.8022 13.5622 69.8022 24.9627C69.8022 36.3632 79.0392 45.6051 90.4335 45.6051Z" fill="#BEA0F2"/>
<path d="M90.8398 13.4219H90.0303V36.5051H90.8398V13.4219Z" fill="white"/>
<path d="M101.969 25.3686V24.5586H78.898V25.3686H101.969Z" fill="white"/>
<path d="M144.07 74.8765H139.367C140.202 65.7145 138.363 48.5605 124.345 48.5605C110.327 48.5605 108.489 65.7145 109.323 74.8765H104.632L96.8022 112.738H151.899L144.07 74.8765ZM124.345 54.4609C132.646 54.4609 132.632 68.2489 130.243 74.8765H118.452C116.063 68.2489 116.045 54.4609 124.349 54.4609H124.345Z" fill="#BEA0F2"/>
<path d="M138.057 4.32031H122.956V30.4959C126.025 30.8775 128.774 33.6207 128.774 36.4935C128.774 39.3663 126.856 42.2787 123.453 42.2787C120.779 42.2787 119.218 41.3355 117.235 39.5895L116.505 40.2447C117.833 42.3651 121.035 44.9895 124.55 44.9895C130.174 44.9895 134.729 41.1159 134.729 35.4891C134.729 32.7027 133.977 29.2539 131.498 26.4351L135.006 14.5983L217.758 39.2583V4.32031H138.054H138.057Z" fill="#271B3D"/>
<path d="M126.026 42.6777L100.551 114.044" stroke="#261B3C" stroke-width="0.99" stroke-miterlimit="10"/>
<path d="M122.676 42.6777L148.15 114.044" stroke="#261B3C" stroke-width="0.99" stroke-miterlimit="10"/>
<path d="M65.4848 4.32031H4.31787V65.5203H65.4848V4.32031Z" fill="#271B3D"/>
<path d="M43.695 38.1169C43.695 26.1361 47.588 8.3125 59.6703 8.3125L47.0951 43.2217H10.8159C10.8159 39.2437 16.0943 29.5273 43.695 38.1133V38.1169Z" fill="#BEA0F2"/>
<path d="M15.1118 62.7235L24.1357 28.4227H38.3372L46.6344 62.7235H48.1779L39.226 25.7695H23.265L13.561 62.7235H15.1118Z" fill="white"/>
<path d="M23.2651 25.7695L24.1359 28.4227H38.3374L39.2261 25.7695H23.2651Z" fill="#BEA0F2"/>
<path d="M153.166 83.2743L165.183 87.4827L175.966 80.7075L177.391 68.0463L168.389 59.0391L155.735 60.4647L148.959 71.2503L153.166 83.2743Z" fill="#BEA0F2"/>
<path d="M172.21 25.6863L180.831 28.2567V18.4287L203.369 4.32031H190.197L172.21 15.5343V25.6863Z" fill="#BEA0F2"/>
<path d="M157.49 21.3015L165.553 23.7027V14.2491L181.633 4.32031H169.555L157.49 11.8443V21.3015Z" fill="#BEA0F2"/>
<path d="M169.58 66.9961L157.652 78.9337" stroke="#271B3D" stroke-width="0.99" stroke-miterlimit="10"/>
<path fill-rule="evenodd" clip-rule="evenodd" d="M127.641 94.6549C129.793 93.3409 132.351 91.1197 132.351 87.4549C132.351 82.6057 128.652 79.5781 124.345 79.5781C120.038 79.5781 116.339 82.6057 116.339 87.4549C116.339 91.1233 118.898 93.3445 121.049 94.6549L115.264 108.036H133.43L127.645 94.6549H127.641Z" fill="#271B3D"/>
</svg>
