<svg width="216" height="140" viewBox="0 0 216 140" fill="none" xmlns="http://www.w3.org/2000/svg">
<g clip-path="url(#clip0_947_7778)">
<rect width="216" height="140" fill="white"/>
<path d="M177.064 50.0078C155.982 50.0078 142.329 61.0748 142.329 78.0848C142.329 99.2878 164.804 102.165 164.804 113.214H189.324C189.324 102.161 211.799 99.2878 211.799 78.0848C211.799 61.0748 198.143 50.0078 177.064 50.0078Z" fill="#BEA0F2"/>
<path d="M39.0797 4.22656C14.2064 4.22656 0.234706 23.4241 5.19535 37.8686C10.6041 53.6466 27.317 60.8426 27.317 81.5836H50.8494C50.8494 60.8426 67.5588 53.6466 72.971 37.8686C77.9282 23.4241 63.9565 4.22656 39.0797 4.22656Z" fill="#BEA0F2"/>
<path d="M50.0127 48.273C44.2609 48.273 40.8791 52.067 40.8791 57.933V58.661C40.473 58.661 40.0529 58.661 39.6538 58.6645H38.8907C38.3095 58.6645 37.9629 58.6645 37.2838 58.6645V57.9365C37.2838 52.067 33.902 48.273 28.1502 48.273C23.0285 48.273 20.0913 50.205 20.0913 53.565C20.0913 56.0885 22.5489 57.793 27.3975 58.633C30.3627 59.1475 33.2369 59.2735 36.076 59.3015V81.5825H37.2838V59.305C37.9629 59.3085 38.306 59.3085 38.8907 59.305C39.4718 59.305 40.2 59.305 40.8791 59.305V81.579H42.0869V59.298C44.9261 59.27 47.8002 59.144 50.7654 58.6295C55.614 57.7895 58.0716 56.085 58.0716 53.5615C58.0716 50.198 55.1344 48.2695 50.0127 48.2695V48.273ZM36.0795 58.654C33.2684 58.6225 30.4327 58.5 27.52 57.996C23.0355 57.219 21.8207 55.3745 21.8207 53.453C21.8207 50.016 25.395 48.9205 28.1572 48.9205C33.2999 48.9205 36.083 52.459 36.083 57.933V58.6575L36.0795 58.654ZM50.6464 57.996C47.7302 58.5 44.8981 58.626 42.0869 58.654V57.9295C42.0869 52.4555 44.87 48.917 50.0127 48.917C52.7714 48.917 56.3457 50.0125 56.3457 53.4495C56.3457 55.371 55.1274 57.2155 50.6429 57.9925L50.6464 57.996Z" fill="white"/>
<path d="M211.799 4.19922H154.12L148.435 51.8377L160.159 39.4757H207.483L211.799 4.19922Z" fill="#271B3D"/>
<path d="M129.502 106.181C125.826 101.025 123.715 98.5508 119.567 98.5508C115.016 98.5508 113.017 103.703 115.751 106.923C118.758 110.465 129.555 114.161 129.555 114.161C129.555 114.161 105.801 111 99.6471 111C96.2513 111 92.7715 113.135 92.7715 117.188C92.7715 121.241 96.2513 123.376 99.6471 123.376C105.801 123.376 129.555 120.216 129.555 120.216C129.555 120.216 118.754 123.912 115.751 127.454C113.02 130.674 115.016 135.826 119.567 135.826C123.719 135.826 125.83 133.355 129.502 128.196C130.748 126.449 137.078 117.185 137.078 117.185C137.078 117.185 130.748 107.924 129.502 106.174V106.181Z" fill="#271B3D"/>
<path d="M78.0678 85.0508L137.932 85.0508V67.5508H78.0678V85.0508Z" fill="#BEA0F2"/>
<path d="M120.428 67.5508H78.0679V71.0508H120.428V67.5508Z" fill="#271B3D"/>
<path d="M137.756 74.5859H78.2427V78.0859H137.756V74.5859Z" fill="#271B3D"/>
<path d="M111.676 81.5508H78.0679V85.0508H111.676V81.5508Z" fill="#271B3D"/>
<path d="M86.4699 98.3516H49.0112V135.802H86.4699V98.3516Z" fill="#BEA0F2"/>
<path d="M70.4365 123.6L77.1651 117.398L56.3633 117.471V116.446L77.1441 116.516L70.44 110.338L71.0597 109.551L78.863 116.897V117.016L71.0597 124.387L70.44 123.6H70.4365Z" fill="#271B3D"/>
<path d="M171.336 20.5877L175.548 32.7257L196.178 9.69922" stroke="white" stroke-miterlimit="10"/>
<path d="M186.698 90.9335C186.698 84.784 183.015 80.9585 177.085 80.9375C177.085 80.9375 177.071 80.9375 177.064 80.9375C177.057 80.9375 177.05 80.9375 177.043 80.9375C171.113 80.9585 167.43 85.2705 167.43 90.9335C167.43 96.5965 170.913 99.288 175.881 102.83C172.873 105.637 171.263 110.078 171.263 113.211H173.791C173.791 110.306 174.347 106.186 177.064 103.75C179.784 106.186 180.337 110.306 180.337 113.211H182.865C182.865 110.078 181.251 105.633 178.247 102.83C183.215 99.288 186.698 96.2885 186.698 90.9335ZM177.064 102.162C172.138 98.6685 168.564 96.446 168.564 90.9335C168.564 85.421 171.96 81.9665 177.064 81.956C182.168 81.9665 185.564 85.6065 185.564 90.9335C185.564 95.711 181.99 98.6685 177.064 102.162Z" fill="#271B3D"/>
<path d="M42.0099 127.4C42.0099 131.995 38.311 135.73 33.7224 135.8H12.6218C7.97364 135.803 4.20117 132.04 4.20117 127.4C4.20117 122.76 7.97014 119 12.6218 119H33.7329C38.3145 119 42.0064 122.812 42.0064 127.4H42.0099Z" fill="#BEA0F2"/>
<path d="M33.4992 133.349C36.7861 133.349 39.4506 130.685 39.4506 127.399C39.4506 124.113 36.7861 121.449 33.4992 121.449C30.2124 121.449 27.5479 124.113 27.5479 127.399C27.5479 130.685 30.2124 133.349 33.4992 133.349Z" fill="#271B3D"/>
<path d="M137.757 4.22656H78.2432V63.7266H137.757V4.22656Z" fill="#271B3D"/>
<path d="M120.326 43.3729C120.326 39.2569 117.809 35.3159 112.87 32.6279H128.249L113.899 8.96094H102.105L87.7549 32.6279H103.134C98.1943 35.3159 95.6772 39.2569 95.6772 43.3729C95.6772 48.0314 99.3286 52.7319 104.142 55.2484C97.4836 53.9044 96.4404 58.9829 96.4404 58.9829H119.57C119.57 58.9829 118.527 53.9044 111.868 55.2484C116.682 52.7319 120.333 48.0314 120.333 43.3729H120.326Z" fill="white"/>
<path d="M108 8.96484H102.105L87.7515 32.6283H103.131H112.87H128.249L113.896 8.96484H108Z" fill="#BEA0F2"/>
<path d="M123.474 24.7578H92.5266L87.7515 32.6293L123.474 24.7578Z" fill="white"/>
<path d="M118.698 16.8828H97.3015L92.5264 24.7578L118.698 16.8828Z" fill="white"/>
<path d="M113.896 8.96484H102.105L97.3018 16.8818L113.896 8.96484Z" fill="white"/>
<path d="M47.856 25.9769C57.1646 16.5059 65.6226 13.1144 75.1238 11.6094" stroke="#271B3D" stroke-miterlimit="10"/>
<path d="M70.6288 29.4444L48.2026 11.3984" stroke="#271B3D" stroke-miterlimit="10"/>
<path d="M57.1646 35.1382C60.2138 25.5832 61.327 13.2702 59.3631 4.22266" stroke="#271B3D" stroke-miterlimit="10"/>
<path d="M21.9468 81.5859V85.0859H27.3135C27.3135 85.1314 27.3135 86.3459 27.3135 86.3879C27.394 92.1244 32.7538 97.2694 39.0797 97.2694C45.4057 97.2694 50.7549 92.1349 50.846 86.4019C50.846 86.3529 50.846 85.1349 50.846 85.0859H56.2127V81.5859H21.9468Z" fill="#271B3D"/>
<path d="M193.844 116.715V113.215H160.281V116.715H164.801C164.801 116.97 164.801 117.572 164.801 118.325H160.281V121.825H164.801C164.801 122.917 164.801 123.795 164.801 123.82C164.801 129.406 169.551 135.828 177.064 135.828C184.577 135.828 189.327 129.402 189.327 123.82C189.327 123.792 189.327 122.938 189.327 121.825H193.847V118.325H189.327C189.327 117.572 189.327 116.974 189.327 116.715H193.844Z" fill="#271B3D"/>
</g>
<defs>
<clipPath id="clip0_947_7778">
<rect width="216" height="140" fill="white"/>
</clipPath>
</defs>
</svg>
