<svg width="224" height="144" viewBox="0 0 224 144" fill="none" xmlns="http://www.w3.org/2000/svg">
<g clip-path="url(#clip0_1433_7378)">
<rect width="222.12" height="144" transform="translate(0.94043)" fill="white"/>
<path d="M223.028 139.32H218.708V143.64H223.028V139.32Z" fill="white"/>
<path d="M207.94 15.1191V51.1191H211.54V15.1191H207.94Z" fill="#BEA0F2"/>
<path d="M215.141 4.31914V51.1191H218.741V4.31914H215.141Z" fill="#BEA0F2"/>
<path d="M200.74 25.5591V51.1191H204.34V25.5591H200.74Z" fill="#BEA0F2"/>
<path d="M91.9029 136.25L100.606 112.32H123.035L131.738 136.25H148.541V139.68H111.821H75.1006V136.25H91.9029Z" fill="#BEA0F2"/>
<path d="M95.8758 40.3672H34.6758V101.567H95.8758V40.3672Z" fill="#BEA0F2"/>
<path d="M49.987 71.8594L42.733 74.4802C40.0654 75.445 39.8098 77.1514 40.4974 78.3142C41.329 79.7146 43.3126 79.5814 45.4798 78.1342C47.4994 76.7842 50.5954 74.6242 51.5998 73.9006L49.987 71.8594Z" fill="#271B3D"/>
<path d="M80.562 71.8594C80.562 71.8594 86.61 74.0446 87.816 74.4802C90.4836 75.445 90.7392 77.1514 90.0516 78.3142C89.22 79.7146 87.2364 79.5814 85.0692 78.1342C83.0496 76.7842 79.9536 74.6242 78.9492 73.9006L80.562 71.8594Z" fill="#271B3D"/>
<path d="M48.3779 65.4412L57.2807 77.3176L57.6515 77.1088L55.2683 63.6016L48.3779 65.4412Z" fill="white"/>
<path d="M54.2248 77.0396C50.2756 77.0396 47.626 73.5476 47.626 70.0448C47.626 66.218 51.0748 64.7168 54.2932 64.7168C57.5116 64.7168 61.1584 66.398 61.1584 69.8C61.1584 73.7024 58.2928 77.0396 54.2248 77.0396Z" fill="#BEA0F2"/>
<path d="M56.4964 76.6652C56.7484 76.5788 56.9896 76.478 57.2236 76.3628L55.1752 64.76C54.88 64.7312 54.5848 64.7168 54.2932 64.7168C52.3168 64.7168 50.254 65.2856 48.958 66.6068L56.4964 76.6652Z" fill="white"/>
<path d="M69.3916 69.8C69.3916 66.398 73.0384 64.7168 76.2568 64.7168C79.4752 64.7168 82.924 66.218 82.924 70.0448C82.924 73.5512 80.2708 77.0396 76.3252 77.0396C72.2572 77.0396 69.3916 73.7024 69.3916 69.8Z" fill="#BEA0F2"/>
<path d="M74.0534 76.6652C73.8014 76.5788 73.5602 76.478 73.3262 76.3628L75.3746 64.76C75.6698 64.7312 75.965 64.7168 76.2566 64.7168C78.233 64.7168 80.2958 65.2856 81.5918 66.6068L74.0534 76.6652Z" fill="white"/>
<path d="M76.3934 62.6367C69.2078 62.6367 67.2242 67.8495 65.273 67.8495C63.3218 67.8495 61.3418 62.6367 54.1526 62.6367C49.6022 62.6367 44.8466 65.5635 42.377 66.7515V70.3191H45.0302C45.3974 72.6051 47.2442 79.2039 54.221 79.2039C62.0186 79.2039 62.1914 71.2623 65.2694 71.2623C68.3474 71.2623 68.5238 79.2039 76.3178 79.2039C83.2946 79.2039 85.1414 72.6051 85.5086 70.3191H88.1618V66.7515C85.6922 65.5635 80.9366 62.6367 76.3862 62.6367H76.3934ZM54.2246 77.0403C50.2754 77.0403 47.6258 73.5483 47.6258 70.0455C47.6258 66.2187 51.0746 64.7175 54.293 64.7175C57.5114 64.7175 61.1582 66.3987 61.1582 69.8007C61.1582 73.7031 58.2926 77.0403 54.2246 77.0403ZM76.325 77.0403C72.257 77.0403 69.3914 73.7031 69.3914 69.8007C69.3914 66.3987 73.0382 64.7175 76.2566 64.7175C79.475 64.7175 82.9238 66.2187 82.9238 70.0455C82.9238 73.5519 80.2705 77.0403 76.325 77.0403Z" fill="#271B3D"/>
<path d="M161.461 47.6055H100.261V51.2055H161.461V47.6055Z" fill="#271B3D"/>
<path d="M130.861 54.6484H100.261V58.2484H130.861V54.6484Z" fill="#271B3D"/>
<path d="M161.461 40.4062H100.261V44.0062H161.461V40.4062Z" fill="#271B3D"/>
<path d="M165.011 75.7299V85.6191H181.596C181.596 85.6191 179.814 89.2515 179.814 93.3159C179.814 97.3803 182.438 101.463 187.496 101.463C192.554 101.463 195.179 97.2435 195.179 93.3159C195.179 89.3883 193.397 85.6191 193.397 85.6191H205.522V79.3587V75.7299C211.566 79.1499 218.64 77.9907 218.64 70.8915C218.64 63.7923 211.566 62.6331 205.522 66.0531V56.1639H193.397C193.397 56.1639 195.179 52.5315 195.179 48.4671C195.179 44.4027 192.554 40.3203 187.496 40.3203C182.438 40.3203 179.814 44.5395 179.814 48.4671C179.814 52.3947 181.596 56.1639 181.596 56.1639H165.011V66.0531C171.055 62.6331 178.129 63.7923 178.129 70.8915C178.129 77.9907 171.055 79.1499 165.011 75.7299Z" fill="#271B3D"/>
<path d="M161.461 92.5195H100.261V101.52H161.461V92.5195Z" fill="#BEA0F2"/>
<path d="M35.8607 126.114V121.927L32.3962 121.474C32.0854 120.021 31.5161 118.665 30.7295 117.455L32.8569 114.683L29.898 111.725L27.1264 113.852C25.9167 113.065 24.5608 112.496 23.1076 112.185L22.6544 108.721H18.4671L18.0139 112.185C16.5606 112.496 15.2048 113.065 13.995 113.852L11.2234 111.725L8.26456 114.683L10.392 117.455C9.60542 118.665 9.03612 120.021 8.72525 121.474L5.26074 121.927V126.114L8.72525 126.568C9.03986 128.021 9.61291 129.377 10.392 130.586L8.26456 133.358L11.2234 136.317L13.995 134.189C15.2048 134.976 16.5606 135.545 18.0176 135.856L18.4671 139.321H22.6544L23.1076 135.856C24.5608 135.545 25.9167 134.976 27.1264 134.189L29.898 136.317L32.8569 133.358L30.7295 130.586C31.5161 129.377 32.0854 128.021 32.3962 126.568L35.8607 126.114ZM20.6244 130.68C16.7666 130.68 13.6392 127.553 13.6392 123.695C13.6392 119.837 16.7666 116.71 20.6244 116.71C24.4822 116.71 27.6096 119.837 27.6096 123.695C27.6096 127.553 24.4822 130.68 20.6244 130.68Z" fill="#271B3D"/>
<path d="M189.263 25.5859H34.6758V36.3859H189.263V25.5859Z" fill="#271B3D"/>
<path d="M38.956 32.5586C39.8945 32.5586 40.6552 31.7978 40.6552 30.8594C40.6552 29.9209 39.8945 29.1602 38.956 29.1602C38.0176 29.1602 37.2568 29.9209 37.2568 30.8594C37.2568 31.7978 38.0176 32.5586 38.956 32.5586Z" fill="white"/>
<path d="M45.1152 32.5586C46.0537 32.5586 46.8144 31.7978 46.8144 30.8594C46.8144 29.9209 46.0537 29.1602 45.1152 29.1602C44.1768 29.1602 43.416 29.9209 43.416 30.8594C43.416 31.7978 44.1768 32.5586 45.1152 32.5586Z" fill="white"/>
<path d="M51.2793 32.5586C52.2177 32.5586 52.9785 31.7978 52.9785 30.8594C52.9785 29.9209 52.2177 29.1602 51.2793 29.1602C50.3408 29.1602 49.5801 29.9209 49.5801 30.8594C49.5801 31.7978 50.3408 32.5586 51.2793 32.5586Z" fill="white"/>
<path d="M34.7803 106.301V107.167C34.7803 110.266 37.3687 112.781 40.5655 112.781H183.583C186.776 112.781 189.368 110.269 189.368 107.167V106.301H34.7803Z" fill="#BEA0F2"/>
<path d="M189.368 21.5991V20.7328C189.368 17.6343 186.779 15.1191 183.583 15.1191H40.5655C37.3723 15.1191 34.7803 17.6308 34.7803 20.7328V21.5991H189.368Z" fill="#BEA0F2"/>
<path d="M218.644 130.666C218.644 135.4 214.842 139.249 210.126 139.321H173.665C168.884 139.321 165.011 135.447 165.011 130.666C165.011 125.885 168.884 122.012 173.665 122.012H210.144C214.853 122.012 218.647 125.939 218.647 130.666H218.644Z" fill="#BEA0F2"/>
<path d="M209.946 136.818C213.344 136.818 216.099 134.064 216.099 130.666C216.099 127.268 213.344 124.514 209.946 124.514C206.548 124.514 203.794 127.268 203.794 130.666C203.794 134.064 206.548 136.818 209.946 136.818Z" fill="#271B3D"/>
<path d="M120.662 67.6445H100.261V88.0457H120.662V67.6445Z" fill="#BEA0F2"/>
<path d="M104.93 77.8438H115.992" stroke="#271B3D" stroke-width="0.99" stroke-miterlimit="10"/>
<path d="M110.459 72.3145V83.3773" stroke="#271B3D" stroke-width="0.99" stroke-miterlimit="10"/>
<path d="M8.72394 103.828C6.83034 103.828 5.28954 102.309 5.26074 100.419V7.78351C5.26074 5.87191 6.81234 4.32031 8.72394 4.32031C10.6355 4.32031 12.1871 5.87191 12.1871 7.78351V100.426C12.1871 102.309 10.6175 103.828 8.72394 103.828Z" fill="#BEA0F2"/>
<path d="M12.1871 35.1003V31.5939L5.26074 26.8203V30.3267L12.1871 35.1003Z" fill="#271B3D"/>
<path d="M12.1871 41.907V38.4006L5.26074 33.627V37.1334L12.1871 41.907Z" fill="#271B3D"/>
<path d="M12.1871 48.7119V45.2091L5.26074 40.4355V43.9419L12.1871 48.7119Z" fill="#271B3D"/>
<path d="M12.1871 55.5186V52.0158L5.26074 47.2422V50.7486L12.1871 55.5186Z" fill="#271B3D"/>
<path d="M12.1871 62.3272V58.8244L5.26074 54.0508V57.5572L12.1871 62.3272Z" fill="#271B3D"/>
<path d="M12.1871 69.1338V65.631L5.26074 60.8574V64.3602L12.1871 69.1338Z" fill="#271B3D"/>
<path d="M12.1871 75.9424V72.436L5.26074 67.666V71.1688L12.1871 75.9424Z" fill="#271B3D"/>
<path d="M12.1871 82.7491V79.2427L5.26074 74.4727V77.9755L12.1871 82.7491Z" fill="#271B3D"/>
<path d="M12.1871 89.5577V86.0512L5.26074 81.2812V84.784L12.1871 89.5577Z" fill="#271B3D"/>
<path d="M12.1871 96.3659V92.8595L5.26074 88.0859V91.5923L12.1871 96.3659Z" fill="#271B3D"/>
<path d="M5.26074 94.8926V98.399L11.3735 102.611C11.8811 102.021 12.1871 101.261 12.1871 100.426V99.6662L5.26074 94.8926Z" fill="#271B3D"/>
</g>
<defs>
<clipPath id="clip0_1433_7378">
<rect width="222.12" height="144" fill="white" transform="translate(0.94043)"/>
</clipPath>
</defs>
</svg>
