<svg xmlns="http://www.w3.org/2000/svg" width="216" height="140"><g fill="none" fill-rule="evenodd"><path fill="#FFF" fill-rule="nonzero" d="M0 0h216v140H0z"/><path fill="#FFF" fill-rule="nonzero" d="M215.968 135.481h-4.2v4.201h4.2z"/><path fill="#BEA0F2" fill-rule="nonzero" d="M201.296 14.703V49.71h3.501V14.703zM208.299 4.2v45.51h3.5V4.2zM194.295 24.855V49.71h3.5V24.855zM88.456 132.496l8.464-23.27h21.81l8.464 23.27h16.34v3.335H72.116v-3.335zM92.32 39.255H32.806v59.514H92.32z"/><path fill="#271B3D" fill-rule="nonzero" d="m47.695 69.88-7.054 2.548c-2.594.938-2.843 2.598-2.174 3.728.809 1.362 2.738 1.233 4.845-.175a283.52 283.52 0 0 0 5.952-4.117l-1.569-1.985ZM77.428 69.88l7.054 2.548c2.594.938 2.843 2.598 2.174 3.728-.809 1.362-2.738 1.233-4.845-.175a283.52 283.52 0 0 1-5.952-4.117l1.569-1.985Z"/><path fill="#FFF" fill-rule="nonzero" d="m46.13 63.638 8.658 11.55.36-.204-2.317-13.135z"/><path fill="#BEA0F2" fill-rule="nonzero" d="M51.816 74.917c-3.84 0-6.417-3.396-6.417-6.802 0-3.721 3.354-5.181 6.484-5.181s6.676 1.635 6.676 4.943c0 3.795-2.787 7.04-6.743 7.04Z"/><path fill="#FFF" fill-rule="nonzero" d="M54.025 74.553c.245-.084.48-.182.707-.294L52.74 62.976a8.846 8.846 0 0 0-.857-.042c-1.922 0-3.928.553-5.188 1.838l7.33 9.78Z"/><path fill="#BEA0F2" fill-rule="nonzero" d="M66.565 67.877c0-3.308 3.546-4.943 6.676-4.943 3.13 0 6.484 1.46 6.484 5.18 0 3.41-2.58 6.803-6.417 6.803-3.956 0-6.743-3.245-6.743-7.04Z"/><path fill="#FFF" fill-rule="nonzero" d="M71.099 74.553a6.007 6.007 0 0 1-.708-.294l1.992-11.283c.287-.028.574-.042.858-.042 1.922 0 3.928.553 5.188 1.838l-7.33 9.78Z"/><path fill="#271B3D" fill-rule="nonzero" d="M73.374 60.91c-6.988 0-8.917 5.07-10.814 5.07-1.897 0-3.823-5.07-10.814-5.07-4.425 0-9.05 2.847-11.451 4.002v3.47h2.58c.357 2.223 2.153 8.64 8.938 8.64 7.582 0 7.75-7.723 10.744-7.723 2.993 0 3.164 7.723 10.744 7.723 6.784 0 8.58-6.417 8.937-8.64h2.58v-3.47c-2.401-1.155-7.026-4.001-11.451-4.001h.007ZM51.816 74.919c-3.84 0-6.417-3.396-6.417-6.802 0-3.722 3.354-5.182 6.484-5.182s6.676 1.635 6.676 4.944c0 3.794-2.787 7.04-6.743 7.04Zm21.492 0c-3.956 0-6.743-3.246-6.743-7.04 0-3.309 3.546-4.944 6.676-4.944 3.13 0 6.484 1.46 6.484 5.182 0 3.41-2.58 6.802-6.417 6.802ZM156.098 46.294H96.584v3.5h59.514zM126.34 53.143H96.585v3.5h29.757zM156.098 39.293H96.584v3.5h59.514zM159.55 73.643v9.617h16.128s-1.733 3.532-1.733 7.485c0 3.952 2.552 7.922 7.47 7.922 4.92 0 7.472-4.103 7.472-7.922 0-3.82-1.733-7.485-1.733-7.485h11.79v-9.617c5.878 3.326 12.757 2.199 12.757-4.705 0-6.903-6.879-8.03-12.756-4.705v-9.617h-11.791s1.733-3.532 1.733-7.484c0-3.953-2.553-7.923-7.472-7.923-4.918 0-7.47 4.103-7.47 7.923 0 3.82 1.733 7.484 1.733 7.484H159.55v9.617c5.877-3.326 12.757-2.198 12.757 4.705 0 6.904-6.88 8.031-12.757 4.705Z"/><path fill="#BEA0F2" fill-rule="nonzero" d="M156.098 89.97H96.584v8.753h59.514z"/><path fill="#271B3D" fill-rule="nonzero" d="M33.958 122.64v-4.072l-3.369-.44a11.618 11.618 0 0 0-1.62-3.91l2.068-2.695-2.877-2.876-2.696 2.068a11.61 11.61 0 0 0-3.908-1.621l-.44-3.369h-4.072l-.44 3.369a11.61 11.61 0 0 0-3.91 1.621L10 108.647l-2.878 2.876 2.07 2.696a11.62 11.62 0 0 0-1.622 3.908l-3.369.44v4.072l3.37.442a11.833 11.833 0 0 0 1.62 3.907l-2.069 2.696L10 132.56l2.695-2.07a11.598 11.598 0 0 0 3.912 1.622l.437 3.37h4.072l.44-3.37a11.61 11.61 0 0 0 3.908-1.621l2.696 2.07 2.877-2.878-2.069-2.696a11.605 11.605 0 0 0 1.621-3.907l3.37-.442Zm-14.816 4.44a6.792 6.792 0 1 1 0-13.586 6.792 6.792 0 0 1 0 13.585ZM183.134 24.88H32.806v10.503h150.328z"/><path fill="#FFF" fill-rule="nonzero" d="M36.968 31.662a1.652 1.652 0 1 0 0-3.305 1.652 1.652 0 0 0 0 3.305ZM42.958 31.662a1.652 1.652 0 1 0 0-3.305 1.652 1.652 0 0 0 0 3.305ZM48.952 31.662a1.652 1.652 0 1 0 0-3.305 1.652 1.652 0 0 0 0 3.305Z"/><path fill="#BEA0F2" fill-rule="nonzero" d="M32.907 103.372v.842c0 3.014 2.518 5.46 5.626 5.46H177.61c3.105 0 5.626-2.443 5.626-5.46v-.842H32.907ZM183.236 21.004v-.842c0-3.014-2.518-5.46-5.626-5.46H38.533c-3.105 0-5.626 2.443-5.626 5.46v.842h150.329ZM211.705 127.066c0 4.603-3.697 8.346-8.283 8.416h-35.456a8.414 8.414 0 0 1-8.416-8.416 8.414 8.414 0 0 1 8.416-8.416h35.473c4.58 0 8.27 3.819 8.27 8.416h-.004Z"/><path fill="#271B3D" fill-rule="nonzero" d="M203.247 133.048a5.983 5.983 0 1 0 .001-11.965 5.983 5.983 0 0 0-.001 11.965Z"/><path fill="#BEA0F2" fill-rule="nonzero" d="M116.423 65.78H96.584v19.84h19.839z"/><path stroke="#271B3D" stroke-width=".99" d="M101.124 75.699h10.758M106.501 70.322V81.08"/><path fill="#BEA0F2" fill-rule="nonzero" d="M7.57 100.967A3.367 3.367 0 0 1 4.2 97.652V7.57A3.37 3.37 0 0 1 7.57 4.201a3.37 3.37 0 0 1 3.368 3.368v90.09c0 1.831-1.527 3.308-3.368 3.308Z"/><path fill="#271B3D" fill-rule="nonzero" d="M10.937 34.133v-3.41L4.2 26.081v3.41zM10.937 40.752v-3.41L4.2 32.7v3.41zM10.937 47.37v-3.407L4.2 39.321v3.41zM10.937 53.989v-3.406L4.2 45.94v3.41zM10.937 60.61v-3.406L4.2 52.562v3.41zM10.937 67.229v-3.406L4.2 59.18v3.406zM10.937 73.85v-3.41L4.2 65.802v3.406zM10.937 80.47v-3.41L4.2 72.42v3.407zM10.937 87.09v-3.41L4.2 79.042v3.406zM10.937 93.71v-3.409L4.2 85.659v3.41zM4.201 92.278v3.41l5.945 4.096a3.241 3.241 0 0 0 .79-2.125v-.739l-6.735-4.642Z"/></g></svg>