<svg xmlns="http://www.w3.org/2000/svg" fill="none" viewBox="0 0 258 168"><rect width="152" height="81" x="60" y="34" fill="#F6F7F7" rx="10"/><g filter="url(#a)"><rect width="111" height="80" x="123" y="64" fill="#fff" rx="12"/></g><path fill="#674399" d="M146.52 106.77a3.69 3.69 0 0 1 7.37 0v3.68a3.69 3.69 0 1 1-7.37 0v-3.68Z"/><rect width="7.37" height="16.59" x="161.26" y="97.55" fill="#AF7DD1" rx="3.69"/><rect width="7.37" height="22.12" x="176" y="92.02" fill="#674399" rx="3.69"/><rect width="7.37" height="27.65" x="190.75" y="86.49" fill="#AF7DD1" rx="3.69"/><rect width="7.37" height="33.17" x="205.49" y="80.96" fill="#674399" rx="3.69"/><path fill="#F6F7F7" d="M146.52 123.4a3.86 3.86 0 0 1 7.72 0 3.86 3.86 0 1 1-7.72 0Z"/><rect width="7.71" height="7.71" x="161.26" y="119.54" fill="#F6F7F7" rx="3.86"/><rect width="7.71" height="7.71" x="176" y="119.54" fill="#F6F7F7" rx="3.86"/><rect width="7.71" height="7.71" x="190.75" y="119.54" fill="#F6F7F7" rx="3.86"/><rect width="7.71" height="7.71" x="205.5" y="119.54" fill="#F6F7F7" rx="3.86"/><g filter="url(#b)"><rect width="99" height="79" x="52" y="20" fill="#fff" rx="12"/></g><rect width="19" height="13" x="73" y="34" fill="#F7EDF7" rx="2"/><path fill="#674399" d="M82.25 44.7h.56v-.81c1.39-.1 2.38-.81 2.38-2.03 0-1.08-.7-1.61-2.03-1.92l-.35-.07v-1.7c.55.08.92.4.98.92h1.3c-.04-1.15-.92-1.92-2.28-2.02v-.82h-.56v.82c-1.34.07-2.3.8-2.3 1.97 0 1.06.7 1.63 1.97 1.92l.33.08v1.75c-.67-.06-1.01-.39-1.1-.88v-.01h-1.3c.03 1.22 1.03 1.91 2.4 2v.8Zm-.94-5.76c0-.4.33-.7.94-.77v1.57c-.66-.18-.94-.42-.94-.8ZM83.83 42c0 .45-.34.73-1.02.8v-1.64c.76.2 1.02.41 1.02.84Z"/><rect width="16" height="4.14" x="102" y="38" fill="#DCDCDE" rx="2.07"/><rect width="19" height="13" x="73" y="51" fill="#F7EDF7" rx="2"/><path fill="#674399" d="M79.79 60.85h5.41v-1.17h-3.48v-.06c.53-.3.8-.76.8-1.37 0-.15-.02-.3-.05-.43h1.95v-.72h-2.17c-.1-.27-.17-.53-.17-.83 0-.68.52-1.07 1.45-1.07.51 0 1.05.1 1.36.24v-1.12a4.44 4.44 0 0 0-1.57-.26c-1.66 0-2.68.77-2.68 2.04 0 .36.1.68.2 1H79.8v.72h1.28c.04.16.06.32.06.5 0 .76-.49 1.26-1.34 1.43v1.1Z"/><rect width="25" height="4" x="102" y="56" fill="#DCDCDE" rx="2"/><rect width="19" height="13" x="73" y="68" fill="#F7EDF7" rx="2"/><path fill="#674399" d="M80.12 76.7h1.66v1.15h1.44V76.7h1.66v-.56h-1.66v-.7h1.66v-.56h-1.39l2.1-3.78h-1.53l-1.52 3.02h-.06l-1.52-3.02h-1.55l2.1 3.78h-1.4v.56h1.67v.7h-1.66v.56Z"/><rect width="18" height="4" x="102" y="73" fill="#DCDCDE" rx="2"/><g filter="url(#c)"><path fill="#7F54B3" fill-rule="evenodd" d="M38 87a6 6 0 0 0-6 6v28.85a6 6 0 0 0 6 6h51.4a8 8 0 0 0 5.96-2.66l12.36-13.76a6 6 0 0 0 0-8.02L95.36 89.65A8 8 0 0 0 89.4 87H38Zm57.5 25a4.5 4.5 0 1 0 0-9 4.5 4.5 0 0 0 0 9Z" clip-rule="evenodd"/></g><circle cx="47" cy="100" r="4.25" stroke="#F7EDF7" stroke-width="3" transform="rotate(45 47 100)"/><circle cx="61.02" cy="114" r="4.25" stroke="#F7EDF7" stroke-width="3" transform="rotate(45 61.02 114)"/><path stroke="#F7EDF7" stroke-linecap="round" stroke-width="3" d="m60.37 99.58-14.8 14.79"/><path fill="#C792E0" d="M100.76 108.46a2 2 0 1 0-3.52-1.92l3.52 1.92ZM112.5 116l.72 1.86-.72-1.86Zm-15.26-9.46c-2 3.68-.9 7.86 2.25 10.35 3.14 2.5 8.06 3.18 13.73.97l-1.45-3.72c-4.71 1.83-8.04 1.01-9.8-.38-1.75-1.39-2.2-3.48-1.21-5.3l-3.52-1.92Zm15.98 11.32C123.42 113.9 125 104.25 125 99h-4c0 4.75-1.42 12.1-9.23 15.14l1.45 3.72Z"/><defs><filter id="a" width="175" height="144" x="91" y="32" color-interpolation-filters="sRGB" filterUnits="userSpaceOnUse"><feFlood flood-opacity="0" result="BackgroundImageFix"/><feColorMatrix in="SourceAlpha" result="hardAlpha" values="0 0 0 0 0 0 0 0 0 0 0 0 0 0 0 0 0 0 127 0"/><feOffset/><feGaussianBlur stdDeviation="16"/><feComposite in2="hardAlpha" operator="out"/><feColorMatrix values="0 0 0 0 0 0 0 0 0 0 0 0 0 0 0 0 0 0 0.1 0"/><feBlend in2="BackgroundImageFix" result="effect1_dropShadow_9847_39764"/><feBlend in="SourceGraphic" in2="effect1_dropShadow_9847_39764" result="shape"/></filter><filter id="b" width="163" height="143" x="20" y="-12" color-interpolation-filters="sRGB" filterUnits="userSpaceOnUse"><feFlood flood-opacity="0" result="BackgroundImageFix"/><feColorMatrix in="SourceAlpha" result="hardAlpha" values="0 0 0 0 0 0 0 0 0 0 0 0 0 0 0 0 0 0 127 0"/><feOffset/><feGaussianBlur stdDeviation="16"/><feComposite in2="hardAlpha" operator="out"/><feColorMatrix values="0 0 0 0 0 0 0 0 0 0 0 0 0 0 0 0 0 0 0.1 0"/><feBlend in2="BackgroundImageFix" result="effect1_dropShadow_9847_39764"/><feBlend in="SourceGraphic" in2="effect1_dropShadow_9847_39764" result="shape"/></filter><filter id="c" width="141.26" height="104.85" x="0" y="55" color-interpolation-filters="sRGB" filterUnits="userSpaceOnUse"><feFlood flood-opacity="0" result="BackgroundImageFix"/><feColorMatrix in="SourceAlpha" result="hardAlpha" values="0 0 0 0 0 0 0 0 0 0 0 0 0 0 0 0 0 0 127 0"/><feOffset/><feGaussianBlur stdDeviation="16"/><feComposite in2="hardAlpha" operator="out"/><feColorMatrix values="0 0 0 0 0 0 0 0 0 0 0 0 0 0 0 0 0 0 0.1 0"/><feBlend in2="BackgroundImageFix" result="effect1_dropShadow_9847_39764"/><feBlend in="SourceGraphic" in2="effect1_dropShadow_9847_39764" result="shape"/></filter></defs></svg>