<svg xmlns="http://www.w3.org/2000/svg" width="144" height="30" fill="none" viewBox="0 0 144 30"><path fill="#7F54B3" fill-rule="evenodd" d="M4.57.9h39.85a4.5 4.5 0 0 1 4.56 4.4v14.74a4.5 4.5 0 0 1-4.56 4.41h-14.3l1.96 4.66-8.64-4.66H4.56A4.5 4.5 0 0 1 0 20.04V5.3A4.5 4.5 0 0 1 4.57.89Z" clip-rule="evenodd"/><path fill="#fff" d="M2.47 4.9c.31-.37.77-.6 1.26-.61 1.01-.06 1.6.4 1.75 1.4.62 4.03 1.3 7.47 2 10.3l4.4-8.09c.4-.72.89-1.11 1.5-1.15.88-.06 1.42.48 1.64 1.63a35.88 35.88 0 0 0 1.9 6.63c.53-4.92 1.4-8.49 2.64-10.68.24-.5.75-.83 1.32-.86.45-.03.9.1 1.25.4.37.26.59.67.61 1.11.03.33-.04.65-.2.93-.77 1.4-1.42 3.74-1.92 7-.5 3.15-.69 5.62-.56 7.39.05.44-.04.88-.23 1.27-.2.4-.61.67-1.06.7-.53.04-1.05-.2-1.58-.72-1.87-1.84-3.35-4.59-4.43-8.24l-2.9 5.58c-1.17 2.2-2.18 3.32-3 3.38-.55.04-1.02-.4-1.4-1.33-1.02-2.53-2.12-7.44-3.3-14.72-.1-.46.02-.95.31-1.33ZM45.49 7.94a4.67 4.67 0 0 0-3.2-2.25 5.34 5.34 0 0 0-1.1-.1c-1.9 0-3.47.96-4.7 2.89a10 10 0 0 0-1.55 5.46c0 1.5.33 2.77.96 3.84.68 1.16 1.84 2 3.2 2.24.36.08.73.12 1.09.12 1.93 0 3.5-.97 4.7-2.9a10.09 10.09 0 0 0 1.55-5.5c0-1.48-.32-2.75-.95-3.8Zm-2.53 5.38a5.07 5.07 0 0 1-1.53 2.88c-.58.51-1.12.71-1.62.62-.49-.1-.88-.51-1.18-1.25a4.85 4.85 0 0 1-.34-1.77 6.28 6.28 0 0 1 1.2-3.73c.66-.94 1.36-1.34 2.08-1.19.5.1.89.52 1.18 1.26.22.56.35 1.15.35 1.75 0 .48-.04.96-.14 1.43ZM32.95 7.94a4.67 4.67 0 0 0-3.2-2.25 5.34 5.34 0 0 0-1.09-.1c-1.92 0-3.48.96-4.7 2.89a10 10 0 0 0-1.55 5.46c0 1.5.32 2.77.95 3.84.68 1.16 1.84 2 3.2 2.24.37.08.73.12 1.1.12 1.93 0 3.49-.97 4.7-2.9a10.2 10.2 0 0 0 1.56-5.5c0-1.5-.32-2.76-.96-3.81h-.01v.01Zm-2.53 5.38a5.03 5.03 0 0 1-1.53 2.88c-.58.51-1.12.71-1.61.62-.5-.1-.89-.51-1.18-1.25a4.84 4.84 0 0 1-.35-1.77c0-.48.05-.95.14-1.42.2-.83.56-1.6 1.06-2.3.66-.95 1.36-1.35 2.09-1.2.49.1.88.52 1.18 1.26.22.56.35 1.15.35 1.75 0 .48-.06.96-.15 1.43Z"/><path fill="#000" d="M53.14 6.18h4.62a6.3 6.3 0 0 1 3.93 1.13 3.56 3.56 0 0 1 1.47 2.98c0 1.29-.5 2.3-1.5 3.03s-2.38 1.1-4.16 1.1h-.64v5.06H53.1V6.18h.03Zm3.73 2.55v3.14a3.63 3.63 0 0 0 1.85-.4c.4-.24.6-.63.6-1.16 0-.58-.2-.98-.58-1.2-.38-.24-1-.37-1.87-.38ZM74.78 19.48H70.9l-.64-2.22h-3.95l-.65 2.22h-3.8l4.36-13.3h4.2l4.36 13.3Zm-5.23-4.61a47.55 47.55 0 0 1-1.26-5.65h-.05A52.7 52.7 0 0 1 67 14.87h2.55ZM72.54 6.18h4.2c.93 1.91 1.6 3.4 2.02 4.42h.05a67.92 67.92 0 0 1 2-4.42h4.28l-4.41 7.28v6.01h-3.79v-6l-4.35-7.29ZM86.26 6.18h4.72c.68 2.88 1.2 5.34 1.6 7.4l.4-2.05c.17-.8.34-1.58.53-2.35l.73-2.98h4.81l1.88 13.3h-3.7l-1-9.15-2.3 9.15H91.4l-2.42-9.16-.96 9.16h-3.54l1.78-13.32ZM102.06 6.18h7.56v2.83h-3.82v2.44h3.32v2.76h-3.32v2.43h3.85v2.83h-7.6V6.18ZM111.03 6.18h3.77l4.76 7.67-.13-1.43V6.18h3.74v13.3h-3.83l-4.65-7.55.1 1.66v5.9h-3.74V6.18h-.02ZM124.15 6.18h8.93v3.04h-2.58v10.26h-3.78V9.22h-2.55V6.18h-.02ZM134.6 19.23v-3.1a7.4 7.4 0 0 0 3 .84c.46 0 .84-.1 1.11-.3a1 1 0 0 0 .4-.84c0-.26-.1-.51-.32-.75a5.6 5.6 0 0 0-1.13-.84c-1.3-.8-2.23-1.54-2.8-2.22a3.47 3.47 0 0 1-.88-2.3c0-1.15.46-2.08 1.35-2.8.9-.74 2.06-1.1 3.48-1.1 1.05 0 2.1.19 3.14.55v2.98c-1.11-.5-2-.74-2.7-.74-.47 0-.84.08-1.1.27a.87.87 0 0 0-.4.75c0 .56.62 1.18 1.87 1.89.74.41 1.49.99 2.25 1.74s1.14 1.6 1.14 2.6c0 1.15-.5 2.1-1.49 2.85a6.09 6.09 0 0 1-3.78 1.13 9.14 9.14 0 0 1-3.14-.6Z"/></svg>