<svg width="124" height="84" viewBox="0 0 124 84" fill="none" xmlns="http://www.w3.org/2000/svg">
<path d="M118.328 43.305C119.333 43.305 120.148 42.489 120.148 41.481C120.148 40.473 119.333 39.657 118.328 39.657C117.322 39.657 116.507 40.473 116.507 41.481C116.507 42.489 117.322 43.305 118.328 43.305Z" fill="#E1D7FF"/>
<path d="M14.7438 26.433C14.2169 25.425 12.9954 25.0649 11.9656 25.5689L4.63687 29.409C3.63097 29.937 3.22383 31.1609 3.72678 32.1689C4.25368 33.1529 5.49907 33.5369 6.50497 33.0089L13.8337 29.1689C14.8396 28.6409 15.2467 27.3929 14.7198 26.4089L14.7438 26.433Z" fill="#B999FF"/>
<path d="M113.418 20.697L107.526 26.529C106.712 27.345 106.688 28.641 107.478 29.433C108.268 30.225 109.562 30.225 110.376 29.433L116.268 23.601C117.082 22.809 117.106 21.489 116.316 20.697C115.525 19.905 114.232 19.905 113.418 20.697Z" fill="#B999FF"/>
<path d="M64.6313 3.94504L73.4449 9.99304C74.6663 10.833 76.1512 10.737 76.7979 9.82504C77.4445 8.91304 76.9655 7.47304 75.7441 6.63304L66.9305 0.585039C65.709 -0.254961 64.2241 -0.182962 63.5775 0.753038C62.9308 1.68904 63.4098 3.10504 64.6313 3.94504Z" fill="#B999FF"/>
<path d="M83.0011 62.553C83.4322 63.609 84.6297 64.113 85.6595 63.705C86.6894 63.273 87.1923 62.073 86.7612 61.017L83.6238 53.337C83.1927 52.281 81.9952 51.777 80.9653 52.185C79.9355 52.617 79.4325 53.817 79.8636 54.873L83.0011 62.553Z" fill="#E1D7FF"/>
<path d="M84.4144 34.761C85.2526 33.993 85.3005 32.697 84.5102 31.857L78.9298 25.737C78.1634 24.897 76.8462 24.825 76.0319 25.593C75.1936 26.361 75.1457 27.657 75.9361 28.497L81.5164 34.617C82.2828 35.457 83.5761 35.529 84.4144 34.761Z" fill="#720EEC"/>
<path d="M24.611 1.23304C23.4853 1.37704 22.6949 2.40904 22.8386 3.53704L23.8206 11.769C23.9643 12.897 24.9702 13.713 26.0958 13.569C27.2215 13.425 28.0118 12.417 27.8681 11.265L26.8622 3.03304C26.7185 1.90504 25.7126 1.08904 24.587 1.23304H24.611Z" fill="#D1C1FF"/>
<path d="M13.8576 53.721C14.2168 52.641 13.642 51.489 12.5643 51.129L4.73262 48.465C3.65487 48.105 2.48131 48.657 2.12206 49.737C1.76281 50.817 2.33761 51.969 3.41536 52.329L11.247 54.993C12.3248 55.353 13.4983 54.801 13.8576 53.721Z" fill="#A77EFF"/>
<path d="M58.5241 35.985C57.5182 35.457 56.2968 35.865 55.7699 36.897L51.9858 44.265C51.4589 45.273 51.8421 46.521 52.848 47.025C53.8539 47.553 55.0753 47.145 55.6022 46.113L59.3863 38.745C59.9132 37.737 59.53 36.489 58.5241 35.985Z" fill="#873EFF"/>
<path d="M44.2981 36.465C44.2981 35.457 43.4838 34.641 42.4779 34.641C41.472 34.641 40.6577 35.457 40.6577 36.465C40.6577 37.473 41.472 38.289 42.4779 38.289C43.4838 38.289 44.2981 37.473 44.2981 36.465Z" fill="#A77EFF"/>
<path d="M24.4911 53.865C25.4731 53.865 26.3113 53.049 26.3113 52.041C26.3113 51.033 25.497 50.217 24.4911 50.217C23.4852 50.217 22.6709 51.033 22.6709 52.041C22.6709 53.049 23.4852 53.865 24.4911 53.865Z" fill="#873EFF"/>
<path d="M105.011 49.9049C105.011 48.8969 104.197 48.0809 103.191 48.0809C102.185 48.0809 101.371 48.8969 101.371 49.9049C101.371 50.9129 102.185 51.7289 103.191 51.7289C104.197 51.7289 105.011 50.9129 105.011 49.9049Z" fill="#D1C1FF"/>
<path d="M81.4896 77.529C82.4955 77.529 83.3098 76.713 83.3098 75.705C83.3098 74.697 82.4955 73.881 81.4896 73.881C80.4837 73.881 79.6694 74.697 79.6694 75.705C79.6694 76.713 80.4837 77.529 81.4896 77.529Z" fill="#720EEC"/>
<path d="M88.0545 23.5769C88.0545 22.5689 87.2402 21.7529 86.2343 21.7529C85.2284 21.7529 84.4141 22.5689 84.4141 23.5769C84.4141 24.5849 85.2284 25.4009 86.2343 25.4009C87.2402 25.4009 88.0545 24.5849 88.0545 23.5769Z" fill="#873EFF"/>
<path d="M66.4995 75.465C67.8167 75.465 68.8945 74.385 68.8945 73.065C68.8945 71.745 67.8167 70.665 66.4995 70.665C65.1822 70.665 64.1045 71.745 64.1045 73.065C64.1045 74.385 65.1822 75.465 66.4995 75.465Z" fill="#B999FF"/>
<path d="M104.341 4.92898C104.341 3.92098 103.526 3.10498 102.52 3.10498C101.515 3.10498 100.7 3.92098 100.7 4.92898C100.7 5.93698 101.515 6.75298 102.52 6.75298C103.526 6.75298 104.341 5.93698 104.341 4.92898Z" fill="#B999FF"/>
<path d="M123.549 10.857C123.98 9.82501 123.453 8.62501 122.399 8.19301L114.711 5.09701C113.657 4.66501 112.46 5.16901 112.029 6.22501C111.598 7.28101 112.125 8.45701 113.178 8.88901L120.866 11.985C121.92 12.417 123.118 11.913 123.549 10.857Z" fill="#D1C1FF"/>
<path d="M23.5335 28.881C24.5394 29.409 25.8806 28.761 26.5751 27.441L31.5088 17.961C32.1794 16.641 31.9399 15.177 30.934 14.649C29.9281 14.121 28.5869 14.769 27.8924 16.089L22.9587 25.569C22.2881 26.889 22.5276 28.353 23.5335 28.881Z" fill="#A77EFF"/>
<path d="M76.7024 20.745L85.1328 14.169C86.2824 13.257 86.6896 11.817 85.995 10.929C85.3005 10.041 83.7916 10.041 82.642 10.953L74.2116 17.529C73.0381 18.441 72.6549 19.881 73.3494 20.769C74.044 21.657 75.5528 21.657 76.7024 20.745Z" fill="#873EFF"/>
<path d="M38.5019 11.0969C37.496 11.6009 37.2326 13.0889 37.9032 14.4089L42.765 23.9369C43.4356 25.2569 44.8008 25.9049 45.8067 25.4009C46.8126 24.8969 47.0761 23.4089 46.4055 22.0889L41.5436 12.5609C40.873 11.2409 39.5078 10.5929 38.5019 11.0969Z" fill="#720EEC"/>
<path d="M55.8181 57.057C55.0278 56.289 53.7824 56.289 53.0399 57.057L47.6751 62.625C46.9327 63.393 46.9806 64.641 47.7709 65.409C48.5613 66.177 49.8067 66.177 50.5491 65.409L55.9139 59.841C56.6564 59.073 56.6085 57.825 55.8181 57.057Z" fill="#E1D7FF"/>
<path d="M111.095 39.657C110.975 38.553 109.682 37.761 108.221 37.929L97.6108 39.129C96.1498 39.297 95.0481 40.329 95.1918 41.457C95.3116 42.585 96.6049 43.353 98.0658 43.185L108.676 41.985C110.137 41.817 111.214 40.785 111.095 39.657Z" fill="#A77EFF"/>
<path d="M52.8242 29.361C53.0158 30.345 53.9738 30.993 54.9318 30.801C55.9137 30.609 56.5604 29.673 56.3688 28.689C56.1772 27.705 55.2192 27.057 54.2372 27.249C53.2553 27.441 52.6086 28.377 52.8002 29.361H52.8242Z" fill="#E1D7FF"/>
<path d="M61.6377 20.601C62.931 20.337 63.7932 19.089 63.5297 17.793C63.2663 16.497 62.0209 15.633 60.7276 15.897C59.4343 16.161 58.5721 17.409 58.8355 18.705C59.099 20.001 60.3444 20.865 61.6377 20.601Z" fill="#D1C1FF"/>
<path d="M3.0802 71.2169C4.06215 71.0249 4.70879 70.0889 4.51719 69.1049C4.32559 68.1209 3.3676 67.4729 2.4096 67.6649C1.42765 67.8569 0.781003 68.8169 0.972603 69.8009C1.1642 70.7849 2.09825 71.4329 3.0802 71.2409V71.2169Z" fill="#A77EFF"/>
<path d="M73.7326 40.833C73.541 39.849 72.583 39.201 71.601 39.393C70.6191 39.585 69.9724 40.521 70.164 41.529C70.3556 42.513 71.3136 43.161 72.2956 42.969C73.2775 42.777 73.9242 41.817 73.7326 40.833Z" fill="#720EEC"/>
<path d="M9.76231 8.86494C9.57071 7.88094 8.61272 7.23294 7.65472 7.42494C6.67277 7.61694 6.02612 8.55294 6.21772 9.53694C6.40932 10.5209 7.34336 11.1689 8.32531 10.9769C9.30726 10.7849 9.95391 9.84894 9.76231 8.86494Z" fill="#B999FF"/>
<path d="M64.2725 57.945C64.2725 58.953 65.0868 59.769 66.0927 59.769C67.0986 59.769 67.9129 58.953 67.9129 57.945C67.9129 56.937 67.0986 56.121 66.0927 56.121C65.0868 56.121 64.2725 56.937 64.2725 57.945Z" fill="#D1C1FF"/>
<path d="M43.9263 78.7135C44.573 77.8015 44.3575 76.5055 43.4234 75.8575L36.6695 71.0575C35.7355 70.3855 34.4661 70.6015 33.8194 71.5135C33.1728 72.4255 33.3884 73.7215 34.3224 74.3695L41.0763 79.1695C42.0104 79.8415 43.2797 79.6255 43.9503 78.7135H43.9263Z" fill="#B999FF"/>
<path d="M97.4432 13.809C98.4491 14.889 99.934 15.129 100.748 14.337C101.563 13.569 101.395 12.057 100.389 11.001L93.0364 3.249C92.0305 2.169 90.5456 1.953 89.7313 2.721C88.917 3.489 89.0607 5.001 90.0906 6.057L97.4432 13.809Z" fill="#E1D7FF"/>
<path d="M121.561 63.585C121.369 62.481 120.291 61.737 119.166 61.953L111.023 63.441C109.897 63.657 109.155 64.713 109.37 65.817C109.562 66.921 110.64 67.665 111.765 67.449L119.884 65.937C121.01 65.721 121.752 64.665 121.561 63.561V63.585Z" fill="#720EEC"/>
<path d="M16.8032 81.3209L18.5515 70.7609C18.791 69.2969 18.0965 67.9769 16.9708 67.7849C15.8691 67.5929 14.7674 68.6249 14.5279 70.0889L12.7796 80.649C12.5401 82.113 13.2346 83.4329 14.3603 83.6249C15.462 83.8169 16.5637 82.7849 16.8032 81.3209Z" fill="#720EEC"/>
<path d="M35.5082 42.417C35.9393 41.385 35.4363 40.185 34.3825 39.753L26.7185 36.609C25.6647 36.177 24.4672 36.681 24.0361 37.713C23.605 38.745 24.108 39.945 25.1618 40.377L32.8019 43.521C33.8557 43.953 35.0531 43.449 35.4842 42.417H35.5082Z" fill="#D1C1FF"/>
<path d="M96.3498 66.9801C95.1523 67.5321 94.6014 68.9481 95.1523 70.1721C95.6792 71.3721 97.1162 71.9241 98.3137 71.3721C99.5112 70.8441 100.062 69.4041 99.5112 68.2041C98.9843 66.9801 97.5473 66.4521 96.3498 66.9801Z" fill="#873EFF"/>
<path d="M43.2921 2.31292C42.382 2.72092 41.9749 3.80092 42.3821 4.71292C42.7892 5.62492 43.867 6.03293 44.7771 5.62493C45.6872 5.21693 46.0943 4.13693 45.6871 3.22493C45.28 2.31293 44.2022 1.90492 43.2921 2.31292Z" fill="#873EFF"/>
<path d="M2.55292 23.409C3.46302 23.001 3.87018 21.921 3.46303 21.009C3.05588 20.097 1.97813 19.689 1.06803 20.097C0.157935 20.505 -0.249218 21.585 0.157932 22.497C0.565082 23.409 1.64282 23.817 2.55292 23.409Z" fill="#E1D7FF"/>
<path d="M40.3221 51.201C39.0288 51.465 38.1905 52.761 38.4779 54.033C38.7414 55.329 40.0107 56.169 41.304 55.881C42.5973 55.617 43.4356 54.345 43.1482 53.049C42.8847 51.753 41.6154 50.913 40.3221 51.201Z" fill="#B999FF"/>
<path d="M97.4909 26.985C98.401 26.577 98.8082 25.497 98.401 24.585C97.9939 23.673 96.9161 23.265 96.006 23.673C95.0959 24.081 94.6888 25.161 95.0959 26.073C95.5031 26.985 96.5808 27.393 97.4909 26.985Z" fill="#E1D7FF"/>
</svg>
