<svg width="271" height="208" viewBox="0 0 271 208" fill="none" xmlns="http://www.w3.org/2000/svg">
<g clip-path="url(#clip0_2269_118422)">
<rect width="271" height="208" fill="url(#paint0_linear_2269_118422)" fill-opacity="0.2"/>
<g filter="url(#filter0_d_2269_118422)">
<path d="M102.715 168.005H33.5198C28.1073 168.005 23.6812 163.606 23.6812 158.234V74.1946C23.6812 68.8226 28.1073 64.4234 33.5198 64.4234H102.715C108.127 64.4234 112.553 68.8226 112.553 74.1946V158.234C112.553 163.606 108.127 168.005 102.715 168.005Z" fill="white" stroke="#F6F7F7" stroke-width="0.52642"/>
</g>
<path d="M90.0051 136.927H37.0512C35.3869 136.927 34.2773 135.673 34.2773 134.419C34.2773 132.913 35.663 131.91 37.0512 131.91H90.0051C91.6694 131.91 92.7765 133.165 92.7765 134.419C92.7765 135.673 91.3908 136.927 90.0051 136.927Z" fill="#E8E8E8"/>
<path d="M58.0161 151.226H36.8039C35.288 151.226 34.2773 149.972 34.2773 148.718C34.2773 147.463 35.5395 146.209 36.8039 146.209H58.0161C59.532 146.209 60.5427 147.463 60.5427 148.718C60.5427 150.223 59.532 151.226 58.0161 151.226Z" fill="#E8E8E8"/>
<path d="M82.2592 117.36L73.6733 118.614C73.1679 118.614 72.9142 118.363 72.6626 118.113L72.4111 117.109L66.8549 95.5349L66.3495 91.5211L60.7933 116.607L60.5418 117.862C60.5418 118.363 60.0364 118.614 59.5311 118.363L52.2074 117.611H51.4505C50.9452 117.611 50.6914 117.109 50.6914 116.607L50.9452 115.604L56.4992 79.9815L56.753 78.4763C56.753 78.2254 57.0045 77.9746 57.5098 77.9746H74.9354C75.187 77.9746 75.6923 78.2254 75.6923 78.4763L75.9461 79.7304V79.9815L83.016 115.604V116.106C83.016 116.858 82.7645 117.109 82.2592 117.36Z" fill="#DCDCDE"/>
<path d="M75.9466 86.5049C73.6738 85.5015 71.9063 83.9963 70.3903 81.9894C70.1365 81.7386 70.3903 81.4875 70.6419 81.2367C70.8957 80.9859 71.1472 81.2367 71.401 81.4875C72.6632 83.4947 74.1791 84.7488 76.1981 85.5015C76.4519 85.7524 76.7034 86.0032 76.4519 86.254C76.4519 86.254 76.1981 86.5049 75.9466 86.5049Z" fill="#C3C4C7"/>
<path d="M57.004 86.5049C59.2768 85.5015 61.0443 83.9963 62.5602 81.9894C62.8118 81.7386 62.5602 81.4875 62.3087 81.2367C62.0549 80.9859 61.8034 81.2367 61.5496 81.4875C60.2874 83.4947 58.7715 84.7488 56.7525 85.5015C56.4987 85.7524 56.2471 86.0032 56.4987 86.254C56.4987 86.254 56.7525 86.5049 57.004 86.5049Z" fill="#C3C4C7"/>
<path d="M66.3491 88.5116C66.0953 88.5116 65.8438 88.2608 65.8438 88.01V80.4841C65.8438 80.2333 66.0953 79.9824 66.3491 79.9824C66.6006 79.9824 66.8544 80.2333 66.8544 80.4841V88.01C66.8544 88.2608 66.6006 88.5116 66.3491 88.5116Z" fill="#C3C4C7"/>
<path d="M75.945 80.2334H56.498L56.7519 78.7282C56.7519 78.4774 57.0034 78.2266 57.5087 78.2266H74.9343C75.1881 78.2266 75.6911 78.4774 75.6911 78.7282L75.945 80.2334Z" fill="#C3C4C7"/>
<path d="M60.5413 116.857L60.2875 118.111C60.2875 118.613 59.7822 118.864 59.2769 118.613L51.9531 117.86H51.1963C50.691 117.86 50.4395 117.359 50.4395 116.857L50.691 115.854L60.5413 116.857Z" fill="#C3C4C7"/>
<path d="M82.2586 117.36L73.6726 118.614C73.1673 118.614 72.9135 118.363 72.662 118.112L72.4082 117.109L82.7639 116.105V116.607C83.0154 116.858 82.7639 117.109 82.2586 117.36Z" fill="#C3C4C7"/>
<path d="M286.775 168.005H217.58C212.168 168.005 207.742 163.606 207.742 158.234V74.1946C207.742 68.8226 212.168 64.4234 217.58 64.4234H286.775C292.188 64.4234 296.614 68.8226 296.614 74.1946V158.234C296.614 163.606 292.188 168.005 286.775 168.005Z" fill="white" stroke="#F6F7F7" stroke-width="0.52642"/>
<path d="M275.604 88.1782L275.617 88.1914L275.632 88.2026C276.11 88.5588 276.294 88.8747 276.316 89.1423C276.339 89.4076 276.209 89.7118 275.856 90.0625L275.849 90.0696L275.843 90.0773C274.351 91.8063 272.859 93.5354 271.367 95.2645L271.304 95.3377C270.91 95.7281 270.719 95.9033 270.471 95.9481C270.218 95.9937 269.849 95.9103 269.088 95.5325L269.071 95.5242L269.053 95.5183C268.697 95.4002 268.212 95.16 267.573 94.8426L267.572 94.8421C266.941 94.5287 266.177 94.1494 265.286 93.77L264.919 93.6141V94.0121V116.339C264.919 116.776 264.903 117.1 264.857 117.344C264.811 117.586 264.74 117.724 264.65 117.814C264.559 117.904 264.42 117.975 264.175 118.02C263.929 118.067 263.602 118.083 263.162 118.083H263.118H263.074H263.029H262.985H262.941H262.896H262.852H262.807H262.763H262.719H262.674H262.63H262.585H262.541H262.497H262.452H262.408H262.363H262.319H262.275H262.23H262.186H262.141H262.097H262.053H262.008H261.964H261.92H261.875H261.831H261.786H261.742H261.698H261.653H261.609H261.564H261.52H261.476H261.431H261.387H261.342H261.298H261.254H261.209H261.165H261.12H261.076H261.032H260.987H260.943H260.898H260.854H260.81H260.765H260.721H260.677H260.632H260.588H260.543H260.499H260.455H260.41H260.366H260.321H260.277H260.233H260.188H260.144H260.099H260.055H260.011H259.966H259.922H259.877H259.833H259.789H259.744H259.7H259.656H259.611H259.567H259.522H259.478H259.434H259.389H259.345H259.3H259.256H259.212H259.167H259.123H259.078H259.034H258.99H258.945H258.901H258.856H258.812H258.768H258.723H258.679H258.635H258.59H258.546H258.501H258.457H258.413H258.368H258.324H258.279H258.235H258.191H258.146H258.102H258.057H258.013H257.969H257.924H257.88H257.835H257.791H257.747H257.702H257.658H257.614H257.569H257.525H257.48H257.436H257.392H257.347H257.303H257.258H257.214H257.17H257.125H257.081H257.036H256.992H256.948H256.903H256.859H256.814H256.77H256.726H256.681H256.637H256.593H256.548H256.504H256.459H256.415H256.371H256.326H256.282H256.237H256.193H256.149H256.104H256.06H256.015H255.971H255.927H255.882H255.838H255.793H255.749H255.705H255.66H255.616H255.571H255.527H255.483H255.438H255.394H255.35H255.305H255.261H255.216H255.172H255.128H255.083H255.039H254.994H254.95H254.906H254.861H254.817H254.772H254.728H254.684H254.639H254.595H254.55H254.506H254.462H254.417H254.373H254.329H254.284H254.24H254.195H254.151H254.107H254.062H254.018H253.973H253.929H253.885H253.84H253.796H253.751H253.707H253.663H253.618H253.574H253.529H253.485H253.441H253.396H253.352H253.308H253.263H253.219H253.174H253.13H253.086H253.041H252.997H252.952H252.908H252.864H252.819H252.775H252.73H252.686H252.642H252.597H252.553H252.508H252.464H252.42H252.375H252.331H252.287H252.242H252.198H252.153H252.109H252.065H252.02H251.976H251.931H251.887H251.843H251.798H251.754H251.709H251.665H251.621H251.576H251.532H251.487H251.443H251.399H251.354H251.31H251.266H251.221H251.177H251.132H251.088H251.044H250.999H250.955H250.91H250.866H250.822H250.777H250.733H250.688H250.644H250.6H250.555H250.511H250.466H250.422H250.378H250.333H250.289H250.244H250.2H250.156H250.111H250.067H250.023H249.978H249.934H249.889H249.845H249.801H249.756H249.712H249.667H249.623H249.579H249.534H249.49H249.445H249.401H249.357H249.312H249.268H249.223H249.179H249.135H249.09H249.046H249.002H248.957H248.913H248.868H248.824H248.78H248.735H248.691H248.646H248.602H248.558H248.513H248.469H248.424H248.38H248.336H248.291H248.247H248.202H248.158H248.114H248.069H248.025H247.981H247.936H247.892H247.847H247.803H247.759H247.714H247.67H247.625H247.581H247.537H247.492H247.448H247.403H247.359H247.315H247.27H247.226H247.181H247.137H247.093H247.048H247.004H246.96H246.915H246.871H246.826H246.782H246.738H246.693H246.649H246.604H246.56H246.516H246.471H246.427H246.382H246.338H246.294H246.249H246.205H246.16H246.116H246.072H246.027H245.983H245.939H245.894H245.85H245.805H245.761H245.717H245.672H245.628H245.583H245.539H245.495H245.45H245.406H245.361H245.317H245.273H245.228H245.184H245.139H245.095H245.051H245.006H244.962H244.917H244.873H244.829H244.784H244.74H244.696H244.651H244.607H244.562H244.518H244.474H244.429H244.385H244.34H244.296H244.252H244.207H244.163H244.118H244.074H244.03H243.985H243.941H243.896H243.852H243.808H243.763H243.719H243.675H243.63H243.586H243.541H243.497H243.453H243.408H243.364H243.319H243.275H243.231H243.186H243.142H243.097H243.053H243.009H242.964H242.92H242.875H242.831H242.787H242.742H242.698H242.654H242.609H242.565H242.52H242.476H242.432H242.387H242.343H242.298H242.254H242.21H242.165H242.121H242.076H242.032H241.988H241.943H241.899H241.854H241.81H241.766H241.721H241.677H241.633H241.588H241.544H241.499H241.455H241.411H241.366H241.322H241.277H241.233H241.189H241.144H241.1H241.055H241.011H240.967H240.922H240.878H240.833H240.789H240.745H240.7H240.656H240.612H240.567H240.523H240.478H240.434C239.55 118.083 239.156 117.951 238.956 117.73C238.856 117.62 238.784 117.466 238.739 117.236C238.693 117.004 238.677 116.711 238.677 116.339V94.0121V93.5875L238.296 93.7764C237.744 94.0509 237.223 94.3262 236.751 94.5757C236.573 94.6696 236.403 94.7599 236.24 94.845C235.637 95.1605 235.15 95.4008 234.795 95.5183L234.778 95.5242L234.761 95.5325C234 95.9103 233.631 95.9937 233.378 95.9481C233.131 95.9036 232.941 95.7305 232.554 95.3459C231.287 93.5868 229.771 91.8299 228.264 90.0838C227.889 89.5854 227.764 89.2841 227.785 89.0502C227.805 88.8355 227.959 88.5936 228.411 88.2466C228.585 88.2172 228.688 88.115 228.745 88.0578C228.747 88.056 228.749 88.0543 228.75 88.0526C228.802 88.0013 228.806 88.002 228.813 88.0032C228.814 88.0034 228.816 88.0036 228.817 88.0036H228.911L228.983 87.9447C231.75 85.6962 234.766 83.1992 237.783 80.7021L237.813 80.6773C238.549 80.1908 238.999 79.9771 239.672 79.9761C241.442 80.0388 242.801 80.0388 243.847 80.0388H243.847C244.901 80.0388 245.615 80.0393 246.116 80.0997C246.617 80.1599 246.834 80.2731 246.961 80.438C247.104 80.6227 247.179 80.926 247.243 81.4982C247.512 83.9018 249.657 85.7459 252.303 85.7459C254.743 85.7459 256.594 83.6029 256.858 81.2474L256.86 81.2328V81.2181C256.86 80.7573 256.975 80.4601 257.161 80.2759C257.346 80.0914 257.647 79.9761 258.112 79.9761H258.125H258.138H258.151H258.165H258.178H258.191H258.205H258.218H258.231H258.245H258.258H258.271H258.285H258.298H258.311H258.325H258.338H258.351H258.365H258.378H258.391H258.405H258.418H258.431H258.444H258.458H258.471H258.484H258.498H258.511H258.524H258.538H258.551H258.564H258.578H258.591H258.604H258.618H258.631H258.644H258.658H258.671H258.684H258.698H258.711H258.724H258.738H258.751H258.764H258.777H258.791H258.804H258.817H258.831H258.844H258.857H258.871H258.884H258.897H258.911H258.924H258.937H258.951H258.964H258.977H258.991H259.004H259.017H259.031H259.044H259.057H259.07H259.084H259.097H259.11H259.124H259.137H259.15H259.164H259.177H259.19H259.204H259.217H259.23H259.244H259.257H259.27H259.284H259.297H259.31H259.324H259.337H259.35H259.363H259.377H259.39H259.403H259.417H259.43H259.443H259.457H259.47H259.483H259.497H259.51H259.523H259.537H259.55H259.563H259.577H259.59H259.603H259.617H259.63H259.643H259.656H259.67H259.683H259.696H259.71H259.723H259.736H259.75H259.763H259.776H259.79H259.803H259.816H259.83H259.843H259.856H259.87H259.883H259.896H259.91H259.923H259.936H259.949H259.963H259.976H259.989H260.003H260.016H260.029H260.043H260.056H260.069H260.083H260.096H260.109H260.123H260.136H260.149H260.163H260.176H260.189H260.202H260.216H260.229H260.242H260.256H260.269H260.282H260.296H260.309H260.322H260.336H260.349H260.362H260.376H260.389H260.402H260.416H260.429H260.442H260.456H260.469H260.482H260.495H260.509H260.522H260.535H260.549H260.562H260.575H260.589H260.602H260.615H260.629H260.642H260.655H260.669H260.682H260.695H260.709H260.722H260.735H260.749H260.762H260.775H260.788H260.802H260.815H260.828H260.842H260.855H260.868H260.882H260.895H260.908H260.922H260.935H260.948H260.962H260.975H260.988H261.002H261.015H261.028H261.042H261.055H261.068H261.081H261.095H261.108H261.121H261.135H261.148H261.161H261.175H261.188H261.201H261.215H261.228H261.241H261.255H261.268H261.281H261.295H261.308H261.321H261.335H261.348H261.361H261.374H261.388H261.401H261.414H261.428H261.441H261.454H261.468H261.481H261.494H261.508H261.521H261.534H261.548H261.561H261.574H261.588H261.601H261.614H261.627H261.641H261.654H261.667H261.681H261.694H261.707H261.721H261.734H261.747H261.761H261.774H261.787H261.801H261.814H261.827H261.841H261.854H261.867H261.881H261.894H261.907H261.92H261.934H261.947H261.96H261.974H261.987H262H262.014H262.027H262.04H262.054H262.067H262.08H262.094H262.107H262.12H262.134H262.147H262.16H262.174H262.187H262.2H262.213H262.227H262.24H262.253H262.267H262.28H262.293H262.307H262.32H262.333H262.347H262.36H262.373H262.387H262.4H262.413H262.427H262.44H262.453H262.466H262.48H262.493H262.506H262.52H262.533H262.546H262.56H262.573H262.586H262.6H262.613H262.626H262.64H262.653H262.666H262.68H262.693H262.706H262.72H262.733H262.746H262.759H262.773H262.786H262.799H262.813H262.826H262.839H262.853H262.866H262.879H262.893H262.906H262.919H262.933H262.946H262.959H262.973H262.986H262.999H263.013H263.026H263.039H263.052H263.066H263.079H263.092H263.106H263.119H263.132H263.146H263.159H263.172H263.186H263.199H263.212H263.226H263.239H263.252H263.266H263.279H263.292H263.305H263.319H263.332H263.345H263.359H263.372H263.385H263.399H263.412H263.425H263.439H263.452H263.465H263.479H263.492H263.505H263.519H263.532H263.545H263.559H263.572H263.585H263.598H263.612H263.625H263.638H263.652H263.665H263.678H263.692H263.705H263.718H263.732H263.745H263.758H263.772H263.785H263.798H263.812H263.825H263.838H263.851H263.865H263.878H263.891H263.905H263.918H263.931H263.945H263.958H263.971H263.985H263.998H264.011H264.025H264.038H264.051H264.065H264.078H264.091H264.105H264.118H264.131H264.144H264.158H264.171H264.184H264.198H264.211H264.224H264.238H264.251H264.264H264.278H264.291H264.304H264.318H264.331H264.344H264.358H264.371H264.384H264.398H264.411H264.424H264.437H264.451H264.464H264.477H264.491H264.504H264.517H264.531H264.544H264.557H264.571H264.584H264.597H264.611H264.624H264.637H264.651H264.664H264.677H264.69H264.704H264.717H264.73H264.744H264.757H264.77H264.784H264.797H264.81H264.824H264.837H264.85H264.864H264.877H264.89H264.904H264.917H264.93C265.362 79.9761 265.801 80.1964 266.007 80.4013L266.021 80.4145L266.036 80.4256C268.102 81.9655 270.047 83.6186 272.042 85.315C272.966 86.1005 273.901 86.8953 274.864 87.6924L274.937 87.7528H275.032C275.073 87.7528 275.142 87.7747 275.253 87.8574C275.362 87.9382 275.474 88.0493 275.604 88.1782Z" fill="#DCDCDE" stroke="#F6F7F7" stroke-width="0.52642"/>
<path d="M255.85 95.0211C255.85 95.0159 255.849 95.0123 255.849 95.0104V91.0017C255.849 90.9624 255.872 90.9008 255.929 90.8435C255.987 90.7863 256.05 90.7632 256.091 90.7632H261.899C261.941 90.7632 262.004 90.7863 262.061 90.8435C262.119 90.9008 262.141 90.9624 262.141 91.0017V95.0154C262.141 95.0612 262.114 95.1326 262.06 95.2137C262.035 95.2499 262.011 95.2806 261.992 95.3021C261.987 95.3076 261.983 95.3125 261.979 95.3166L259.476 97.057L259.457 97.0702L259.441 97.0865C259.421 97.106 259.373 97.1364 259.286 97.1612C259.203 97.1849 259.101 97.1982 258.995 97.1982C258.889 97.1982 258.788 97.1849 258.704 97.1612C258.617 97.1364 258.569 97.106 258.549 97.0865L258.533 97.0702L258.514 97.057L256.009 95.3151C255.925 95.2274 255.886 95.145 255.867 95.0885C255.857 95.0581 255.852 95.0346 255.85 95.0211Z" fill="#C3C4C7" stroke="#F6F7F7" stroke-width="0.52642"/>
<path d="M228.777 90.0954L228.777 90.0953L228.774 90.0904C228.394 89.5879 228.267 89.2849 228.289 89.05C228.309 88.8352 228.462 88.5933 228.915 88.2462C229.079 88.2185 229.179 88.1261 229.239 88.0677L234.978 95.6695C234.407 95.9302 234.1 95.9874 233.882 95.9479C233.634 95.903 233.442 95.7278 233.049 95.3373C231.535 93.5821 230.03 91.8377 228.777 90.0954Z" fill="#C3C4C7" stroke="#F6F7F7" stroke-width="0.52642"/>
<path d="M276.108 90.0612L276.101 90.0683L276.094 90.076C274.582 91.8294 273.069 93.5829 271.556 95.3364C271.184 95.7045 270.991 95.8275 270.746 95.8496C270.613 95.8617 270.447 95.8448 270.211 95.789C270.052 95.7514 269.868 95.6981 269.65 95.6289L275.318 87.8874C275.379 87.9431 275.442 87.9969 275.505 88.0443C275.624 88.1331 275.773 88.2205 275.943 88.246C276.377 88.584 276.547 88.8846 276.568 89.1409C276.59 89.4062 276.461 89.7104 276.108 90.0612Z" fill="#C3C4C7" stroke="#F6F7F7" stroke-width="0.52642"/>
<path d="M274.064 136.927H221.11C219.445 136.927 218.336 135.673 218.336 134.419C218.336 132.913 219.722 131.91 221.11 131.91H274.064C275.728 131.91 276.835 133.165 276.835 134.419C276.835 135.673 275.449 136.927 274.064 136.927Z" fill="#E8E8E8"/>
<path d="M242.075 151.226H220.863C219.347 151.226 218.336 149.972 218.336 148.718C218.336 147.463 219.598 146.209 220.863 146.209H242.075C243.591 146.209 244.601 147.463 244.601 148.718C244.601 150.223 243.591 151.226 242.075 151.226Z" fill="#E8E8E8"/>
<g filter="url(#filter1_d_2269_118422)">
<path d="M207.188 181.343H113.387C105.817 181.343 99.7652 175.329 99.7652 167.814V53.7928C99.7652 46.2773 105.817 40.2632 113.387 40.2632H207.188C214.758 40.2632 220.81 46.2772 220.81 53.7928V167.808C220.503 175.336 214.443 181.343 207.188 181.343Z" fill="white" stroke="#F6F7F7" stroke-width="0.52642"/>
</g>
<path d="M192.9 143.938H118.166C116.04 143.938 114.27 142.406 114.27 140.567C114.27 138.728 116.04 137.195 118.166 137.195H192.9C195.025 137.195 196.796 138.728 196.796 140.567C196.796 142.406 195.025 143.938 192.9 143.938Z" fill="#DCDBDE"/>
<path d="M146.359 163.249H117.664C115.812 163.249 114.27 161.716 114.27 159.877C114.27 158.038 115.812 156.506 117.664 156.506H146.359C148.21 156.506 149.753 158.038 149.753 159.877C149.445 161.716 148.21 163.249 146.359 163.249Z" fill="#DCDBDE"/>
<path d="M198.504 99.8012C198.196 99.1883 197.887 98.5753 197.578 98.2689C196.344 96.7362 194.801 95.2036 192.025 94.2842C188.322 93.0581 185.236 92.7516 182.459 92.4451C181.842 92.4451 180.916 92.4451 180.299 92.1386C171.968 91.2192 165.18 89.9931 150.37 71.6026C148.827 69.7635 148.21 67.9246 146.358 66.0855C144.815 64.5529 142.039 66.392 138.645 67.005C138.027 67.3115 137.102 67.3114 136.485 67.3114C133.708 67.3114 130.622 67.005 127.845 66.6985C123.834 66.392 126.302 64.2465 121.365 94.2842C121.057 96.4298 120.748 98.8818 120.44 101.027C120.44 102.866 120.131 105.012 120.44 106.851C120.44 107.771 120.44 108.996 121.674 108.996C134.325 110.223 142.347 109.61 162.403 109.61C172.585 109.61 182.459 109.61 192.333 107.771L194.801 107.464C196.653 107.158 199.121 106.544 199.121 105.012C199.43 103.479 199.121 101.64 198.504 99.8012Z" fill="#C792E0"/>
<path d="M182.768 92.4466L180.608 99.1898C167.649 98.5768 154.381 90.6075 147.593 80.1863C145.124 76.5081 143.273 72.5237 140.496 69.4585C140.496 69.4585 139.57 68.5391 138.645 67.6196C142.039 67.0064 144.507 64.8609 146.359 66.7C147.593 67.9261 148.21 69.152 149.136 70.3781C149.444 70.6846 149.753 71.2976 150.061 71.6041L150.37 71.9105C151.295 73.1367 152.221 74.0561 153.147 74.9758C153.455 75.2822 153.764 75.5887 154.072 75.8952C154.998 77.1213 155.924 78.0408 156.849 78.9602C157.158 79.2669 157.467 79.5734 157.775 79.8799C158.701 80.7993 159.626 81.7189 160.552 82.6384C160.861 82.9449 161.169 83.2513 161.478 83.5578C162.403 84.4775 163.329 85.0904 164.255 85.7034C164.563 86.0099 165.18 86.3166 165.489 86.623C166.106 87.236 167.032 87.5425 167.649 88.1554C168.266 88.4621 168.574 88.7686 169.192 89.0751C170.734 89.688 171.969 90.301 173.203 90.9142C173.82 91.2207 174.129 91.2207 174.745 91.2207C176.905 91.8336 178.757 91.8336 180.917 92.1401C181.225 92.4466 181.842 92.4466 182.768 92.4466Z" fill="#7F54B3"/>
<path d="M199.43 105.624C199.43 107.156 196.948 107.769 195.086 108.076L192.603 108.382C182.673 110.221 172.434 110.221 162.504 110.221C142.334 110.221 134.266 110.834 121.544 109.608C120.613 109.608 120.613 108.382 120.303 107.463C120.303 105.624 120.303 103.478 120.303 101.639C127.44 102.252 157.849 103.785 180.812 101.333C187.328 100.72 192.914 99.8 197.568 98.2676C197.878 98.8805 198.189 99.187 198.499 99.8C199.12 101.639 199.43 103.478 199.43 105.624Z" fill="#F2E9ED"/>
<path d="M198.467 99.4733C193.839 101.006 188.902 101.925 183.965 102.539C183.04 102.539 182.423 102.539 181.805 102.232C181.497 101.925 181.188 101.312 181.188 101.006C181.188 100.699 181.188 100.393 181.188 100.393C180.88 97.6345 180.571 94.8757 180.88 92.1172C184.274 92.4237 187.977 92.7301 192.605 94.2628C195.382 95.1824 196.925 96.4083 198.159 98.2474C197.85 98.2474 198.159 98.8604 198.467 99.4733Z" fill="#F2E9ED"/>
<path d="M150.061 71.2943C150.061 71.6007 150.061 71.6007 150.061 71.2943L146.667 74.0528C146.667 74.0528 146.358 74.3595 146.05 74.3595C145.741 74.3595 145.433 74.3593 145.433 74.0528C145.124 73.7463 145.124 73.1334 145.433 72.8269L148.827 70.0684C148.827 70.0684 148.827 70.0684 149.135 70.0684C149.444 70.6813 149.752 70.9878 150.061 71.2943Z" fill="#F7EDF7"/>
<path d="M153.764 75.8941C153.764 75.8941 153.764 76.2006 153.455 76.2006C152.53 77.4267 151.296 78.3461 150.061 79.2656C150.061 79.2656 149.753 79.5721 149.444 79.5721C149.136 79.5721 148.827 79.5723 148.827 79.2656C148.519 78.9591 148.519 78.3462 148.827 78.0397C150.061 77.12 150.987 76.2006 152.221 74.9747C152.53 74.668 152.53 74.668 152.838 74.668C153.147 75.2812 153.455 75.5876 153.764 75.8941Z" fill="#F7EDF7"/>
<path d="M157.465 79.8785C157.465 80.185 157.465 80.185 157.157 80.185C155.922 81.4109 154.997 82.637 153.763 83.5564C153.454 83.8631 153.454 83.8631 153.145 83.8631C152.837 83.8631 152.837 83.8631 152.528 83.5564C152.22 83.25 152.22 82.637 152.528 82.3305C153.763 81.1044 154.688 79.8785 155.922 78.9588C155.922 78.9588 156.231 78.6523 156.54 78.6523C156.848 79.2655 157.157 79.572 157.465 79.8785Z" fill="#F7EDF7"/>
<path d="M161.477 83.556C161.477 83.8627 161.477 83.8627 161.168 83.8627C159.934 84.7821 158.7 86.0083 157.466 87.5406C157.157 87.8471 157.157 87.8471 156.849 87.8471C156.54 87.8471 156.54 87.8471 156.231 87.5406C155.923 87.2342 155.923 86.6212 156.231 86.3147C157.466 84.7821 158.7 83.556 159.934 82.3301H160.243C160.551 82.943 160.86 83.556 161.477 83.556Z" fill="#F7EDF7"/>
<path d="M165.18 86.9273C164.254 88.4599 163.329 89.9923 162.712 91.5249C162.712 91.8314 162.403 91.8314 162.095 91.8314H161.786C161.477 91.5249 161.169 91.2185 161.477 90.6055C162.403 89.0729 163.02 87.5403 163.946 86.0079C163.946 86.0079 163.946 85.7012 164.254 85.7012C164.563 86.3144 164.871 86.6208 165.18 86.9273Z" fill="#F7EDF7"/>
<path d="M168.882 89.074L168.265 93.978C168.265 94.2845 167.957 94.591 167.34 94.591C167.031 94.591 166.723 93.978 166.723 93.6716L167.648 88.461C167.648 88.461 167.648 88.1543 167.957 88.1543C167.957 88.461 168.265 88.7675 168.882 89.074Z" fill="#F7EDF7"/>
<path d="M174.437 91.2188C174.129 92.7512 174.129 93.9773 173.82 95.5097C173.82 95.8164 173.511 96.1229 172.894 96.1229C172.894 96.1229 172.894 96.1229 172.586 96.1229C172.277 96.1229 171.969 95.5097 171.969 95.2033C172.277 93.6709 172.586 92.4447 172.586 90.9121C173.203 90.9121 173.82 91.2188 174.437 91.2188Z" fill="#F7EDF7"/>
<path d="M134.942 86.9281C138.521 86.9281 141.422 84.0464 141.422 80.4914C141.422 76.9366 138.521 74.0547 134.942 74.0547C131.364 74.0547 128.463 76.9366 128.463 80.4914C128.463 84.0464 131.364 86.9281 134.942 86.9281Z" fill="white"/>
<path d="M134.943 83.2495C136.476 83.2495 137.72 82.0145 137.72 80.4909C137.72 78.9674 136.476 77.7324 134.943 77.7324C133.409 77.7324 132.166 78.9674 132.166 80.4909C132.166 82.0145 133.409 83.2495 134.943 83.2495Z" fill="#7F54B3"/>
<path d="M216.007 173.216C215.826 173.578 215.645 173.759 215.283 173.939L210.394 175.929C209.67 176.291 208.945 176.653 208.402 177.196C207.859 177.739 207.497 178.281 207.316 179.005L205.324 183.89C205.143 184.613 204.237 184.975 203.694 184.613C203.513 184.432 203.151 184.251 203.151 184.07L193.735 163.447C193.554 163.085 193.554 162.723 193.735 162.542C193.916 162.18 194.46 161.999 195.003 162.18L215.645 171.588C216.007 171.949 216.188 172.673 216.007 173.216Z" fill="#172D45"/>
<path d="M219.628 185.879C219.447 185.879 219.266 185.879 219.084 185.698L212.385 178.824C212.023 178.462 212.023 177.919 212.385 177.738C212.747 177.376 213.29 177.376 213.471 177.738L220.171 184.432C220.533 184.794 220.533 185.336 220.171 185.517C220.171 185.879 219.809 185.879 219.628 185.879Z" fill="#172D45"/>
<path d="M212.747 185.879C212.565 185.879 212.384 185.879 212.203 185.698L209.125 182.622C208.763 182.261 208.763 181.718 209.125 181.537C209.487 181.175 210.03 181.175 210.212 181.537L213.29 184.612C213.652 184.974 213.652 185.517 213.29 185.698C213.29 185.879 213.109 185.879 212.747 185.879Z" fill="#172D45"/>
<path d="M208.22 177.197C207.677 177.739 207.315 178.282 207.134 179.006L205.142 183.89C204.961 184.614 204.056 184.976 203.513 184.614C203.332 184.433 202.969 184.252 202.969 184.071L193.554 163.448C193.373 163.086 193.373 162.724 193.554 162.543L208.22 177.197Z" fill="#172D45"/>
</g>
<defs>
<filter id="filter0_d_2269_118422" x="-31.4096" y="36.7464" width="199.053" height="213.762" filterUnits="userSpaceOnUse" color-interpolation-filters="sRGB">
<feFlood flood-opacity="0" result="BackgroundImageFix"/>
<feColorMatrix in="SourceAlpha" type="matrix" values="0 0 0 0 0 0 0 0 0 0 0 0 0 0 0 0 0 0 127 0" result="hardAlpha"/>
<feOffset dy="27.4138"/>
<feGaussianBlur stdDeviation="27.4138"/>
<feColorMatrix type="matrix" values="0 0 0 0 0.768627 0 0 0 0 0.596078 0 0 0 0 0.85098 0 0 0 0.15 0"/>
<feBlend mode="normal" in2="BackgroundImageFix" result="effect1_dropShadow_2269_118422"/>
<feBlend mode="normal" in="SourceGraphic" in2="effect1_dropShadow_2269_118422" result="shape"/>
</filter>
<filter id="filter1_d_2269_118422" x="76.1023" y="28.3002" width="168.37" height="188.405" filterUnits="userSpaceOnUse" color-interpolation-filters="sRGB">
<feFlood flood-opacity="0" result="BackgroundImageFix"/>
<feColorMatrix in="SourceAlpha" type="matrix" values="0 0 0 0 0 0 0 0 0 0 0 0 0 0 0 0 0 0 127 0" result="hardAlpha"/>
<feOffset dy="11.6998"/>
<feGaussianBlur stdDeviation="11.6998"/>
<feColorMatrix type="matrix" values="0 0 0 0 0.397708 0 0 0 0 0.47749 0 0 0 0 0.575 0 0 0 0.1 0"/>
<feBlend mode="normal" in2="BackgroundImageFix" result="effect1_dropShadow_2269_118422"/>
<feBlend mode="normal" in="SourceGraphic" in2="effect1_dropShadow_2269_118422" result="shape"/>
</filter>
<linearGradient id="paint0_linear_2269_118422" x1="14.3967" y1="104.443" x2="246.443" y2="104.443" gradientUnits="userSpaceOnUse">
<stop stop-color="#F7EDF7" stop-opacity="0"/>
<stop offset="0.845956" stop-color="#C498D9" stop-opacity="0.6"/>
</linearGradient>
<clipPath id="clip0_2269_118422">
<rect width="271" height="208" fill="white"/>
</clipPath>
</defs>
</svg>
