<svg width="72" height="74" viewBox="0 0 72 74" fill="none" xmlns="http://www.w3.org/2000/svg">
	<rect x="20.71" y="1.5" width="49.6511" height="49.6511" rx="2.5" fill="#F6F7F7" stroke="#E0E0E0" stroke-width="3" stroke-linecap="round" stroke-linejoin="round" stroke-dasharray="4 9"/>
	<rect x="1.83381" y="18.0188" width="49.6511" height="49.6511" rx="2.5" transform="rotate(-8 1.83381 18.0188)" fill="white" stroke="#CCCCCC" stroke-width="3"/>
	<path d="M7.13392 54.1105L19.6924 42.4672L31.04 47.458L41.6316 34.4447L55.3999 44.0344" stroke="#CCCCCC" stroke-width="3" stroke-linejoin="round"/>
	<path fill-rule="evenodd" clip-rule="evenodd" d="M48.1426 55.7073L65.1762 61.7426L59.1883 65.6305L48.1426 55.7073ZM48.1425 55.7077L55.9617 71.9997L59.1882 65.6309L48.1425 55.7077Z" fill="#BBBBBB"/>
	<path d="M65.1762 61.7426L65.7879 62.6847C66.1466 62.4518 66.342 62.0354 66.2917 61.6107C66.2415 61.186 65.9545 60.8266 65.5514 60.6838L65.1762 61.7426ZM48.1426 55.7073L48.5178 54.6485C48.0124 54.4694 47.4509 54.6725 47.177 55.1334C46.903 55.5944 46.993 56.1846 47.3919 56.5429L48.1426 55.7073ZM59.1883 65.6305L58.4376 66.4662C58.8154 66.8056 59.374 66.8493 59.8 66.5727L59.1883 65.6305ZM55.9617 71.9997L54.949 72.4857C55.134 72.8713 55.522 73.1183 55.9496 73.1229C56.3773 73.1275 56.7704 72.8888 56.9637 72.5073L55.9617 71.9997ZM48.1425 55.7077L48.8932 54.8721C48.4943 54.5137 47.8978 54.4873 47.4688 54.8088C47.0397 55.1304 46.8978 55.7103 47.1298 56.1937L48.1425 55.7077ZM59.1882 65.6309L60.1902 66.1386C60.4197 65.6855 60.3167 65.1347 59.9389 64.7953L59.1882 65.6309ZM65.5514 60.6838L48.5178 54.6485L47.7674 56.7661L64.8011 62.8014L65.5514 60.6838ZM59.8 66.5727L65.7879 62.6847L64.5645 60.8005L58.5766 64.6884L59.8 66.5727ZM47.3919 56.5429L58.4376 66.4662L59.939 64.7949L48.8933 54.8717L47.3919 56.5429ZM56.9744 71.5136L49.1552 55.2216L47.1298 56.1937L54.949 72.4857L56.9744 71.5136ZM58.1861 65.1233L54.9596 71.492L56.9637 72.5073L60.1902 66.1386L58.1861 65.1233ZM47.3918 56.5433L58.4375 66.4665L59.9389 64.7953L48.8932 54.8721L47.3918 56.5433Z" fill="#BBBBBB"/>
</svg>
