<svg width="248" height="140" viewBox="0 0 248 140" fill="none" xmlns="http://www.w3.org/2000/svg">
<g clip-path="url(#clip0_1429_82805)">
<rect width="248" height="140" rx="2" fill="black" fill-opacity="0.05"/>
<g filter="url(#filter0_dd_1429_82805)">
<path d="M100 0H246C247.105 0 248 0.895431 248 2V138C248 139.105 247.105 140 246 140H100V0Z" fill="white"/>
<rect x="143.996" y="15" width="80" height="8" rx="1" fill="#E0E0E0"/>
<rect x="143.996" y="31" width="56" height="6" rx="1" fill="#E0E0E0"/>
<rect x="143.996" y="41" width="56" height="16" rx="1" fill="#E0E0E0"/>
<rect x="143.996" y="65" width="80" height="6" rx="1" fill="#E0E0E0"/>
<rect x="143.996" y="75" width="31" height="16" rx="1" fill="#E0E0E0"/>
<rect x="143.996" y="99" width="70" height="6" rx="1" fill="#E0E0E0"/>
<rect x="143.996" y="109" width="56" height="16" rx="1" fill="#E0E0E0"/>
<path d="M117.223 17.8336L120.935 21.5459L121.996 20.4853L118.284 16.773L121.996 13.0607L120.935 12L117.223 15.7123L113.511 12L112.45 13.0607L116.163 16.773L112.45 20.4853L113.511 21.5459L117.223 17.8336Z" fill="#BBBBBB"/>
</g>
</g>
<rect x="0.5" y="0.5" width="247" height="139" rx="1.5" stroke="#DDDDDD"/>
<defs>
<filter id="filter0_dd_1429_82805" x="91" y="-6" width="166" height="158" filterUnits="userSpaceOnUse" color-interpolation-filters="sRGB">
<feFlood flood-opacity="0" result="BackgroundImageFix"/>
<feColorMatrix in="SourceAlpha" type="matrix" values="0 0 0 0 0 0 0 0 0 0 0 0 0 0 0 0 0 0 127 0" result="hardAlpha"/>
<feOffset dy="3"/>
<feGaussianBlur stdDeviation="4.5"/>
<feComposite in2="hardAlpha" operator="out"/>
<feColorMatrix type="matrix" values="0 0 0 0 0 0 0 0 0 0 0 0 0 0 0 0 0 0 0.12 0"/>
<feBlend mode="normal" in2="BackgroundImageFix" result="effect1_dropShadow_1429_82805"/>
<feColorMatrix in="SourceAlpha" type="matrix" values="0 0 0 0 0 0 0 0 0 0 0 0 0 0 0 0 0 0 127 0" result="hardAlpha"/>
<feOffset dy="1"/>
<feGaussianBlur stdDeviation="1.5"/>
<feComposite in2="hardAlpha" operator="out"/>
<feColorMatrix type="matrix" values="0 0 0 0 0 0 0 0 0 0 0 0 0 0 0 0 0 0 0.15 0"/>
<feBlend mode="normal" in2="effect1_dropShadow_1429_82805" result="effect2_dropShadow_1429_82805"/>
<feBlend mode="normal" in="SourceGraphic" in2="effect2_dropShadow_1429_82805" result="shape"/>
</filter>
<clipPath id="clip0_1429_82805">
<rect width="248" height="140" rx="2" fill="white"/>
</clipPath>
</defs>
</svg>
