<svg width="248" height="140" viewBox="0 0 248 140" fill="none" xmlns="http://www.w3.org/2000/svg">
<g filter="url(#filter0_dd_1397_9617)">
<rect width="248" height="140" rx="2" fill="white" shape-rendering="crispEdges"/>
<rect x="84" y="15" width="80" height="8" rx="1" fill="#E0E0E0"/>
<rect x="84" y="31" width="56" height="6" rx="1" fill="#E0E0E0"/>
<rect x="84" y="41" width="56" height="16" rx="1" fill="#E0E0E0"/>
<rect x="84" y="65" width="80" height="6" rx="1" fill="#E0E0E0"/>
<rect x="84" y="75" width="31" height="16" rx="1" fill="#E0E0E0"/>
<rect x="84" y="99" width="70" height="6" rx="1" fill="#E0E0E0"/>
<rect x="84" y="109" width="56" height="16" rx="1" fill="#E0E0E0"/>
<path d="M230.773 17.8336L234.485 21.5459L235.546 20.4853L231.834 16.773L235.546 13.0607L234.485 12L230.773 15.7123L227.061 12L226 13.0607L229.712 16.773L226 20.4853L227.061 21.5459L230.773 17.8336Z" fill="#BBBBBB"/>
</g>
<rect x="0.5" y="0.5" width="247" height="139" rx="1.5" stroke="#DDDDDD"/>
<defs>
<filter id="filter0_dd_1397_9617" x="-9" y="-6" width="266" height="158" filterUnits="userSpaceOnUse" color-interpolation-filters="sRGB">
<feFlood flood-opacity="0" result="BackgroundImageFix"/>
<feColorMatrix in="SourceAlpha" type="matrix" values="0 0 0 0 0 0 0 0 0 0 0 0 0 0 0 0 0 0 127 0" result="hardAlpha"/>
<feOffset dy="3"/>
<feGaussianBlur stdDeviation="4.5"/>
<feComposite in2="hardAlpha" operator="out"/>
<feColorMatrix type="matrix" values="0 0 0 0 0 0 0 0 0 0 0 0 0 0 0 0 0 0 0.12 0"/>
<feBlend mode="normal" in2="BackgroundImageFix" result="effect1_dropShadow_1397_9617"/>
<feColorMatrix in="SourceAlpha" type="matrix" values="0 0 0 0 0 0 0 0 0 0 0 0 0 0 0 0 0 0 127 0" result="hardAlpha"/>
<feOffset dy="1"/>
<feGaussianBlur stdDeviation="1.5"/>
<feComposite in2="hardAlpha" operator="out"/>
<feColorMatrix type="matrix" values="0 0 0 0 0 0 0 0 0 0 0 0 0 0 0 0 0 0 0.15 0"/>
<feBlend mode="normal" in2="effect1_dropShadow_1397_9617" result="effect2_dropShadow_1397_9617"/>
<feBlend mode="normal" in="SourceGraphic" in2="effect2_dropShadow_1397_9617" result="shape"/>
</filter>
</defs>
</svg>
