<svg width="248" height="140" viewBox="0 0 248 140" fill="none" xmlns="http://www.w3.org/2000/svg">
<g clip-path="url(#clip0_481_510179)">
<rect width="248" height="140" rx="2" fill="black" fill-opacity="0.05"/>
<g filter="url(#filter0_dd_481_510179)">
<path d="M0 0H146C147.105 0 148 0.895431 148 2V138C148 139.105 147.105 140 146 140H0V0Z" fill="white"/>
<rect x="24" y="15" width="80" height="8" rx="1" fill="#E0E0E0"/>
<rect x="24" y="31" width="56" height="6" rx="1" fill="#E0E0E0"/>
<rect x="24" y="41" width="56" height="16" rx="1" fill="#E0E0E0"/>
<rect x="24" y="65" width="80" height="6" rx="1" fill="#E0E0E0"/>
<rect x="24" y="75" width="31" height="16" rx="1" fill="#E0E0E0"/>
<rect x="24" y="99" width="70" height="6" rx="1" fill="#E0E0E0"/>
<rect x="24" y="109" width="56" height="16" rx="1" fill="#E0E0E0"/>
<path d="M130.773 17.8336L134.485 21.5459L135.546 20.4853L131.834 16.773L135.546 13.0607L134.485 12L130.773 15.7123L127.061 12L126 13.0607L129.712 16.773L126 20.4853L127.061 21.5459L130.773 17.8336Z" fill="#BBBBBB"/>
</g>
</g>
<rect x="0.5" y="0.5" width="247" height="139" rx="1.5" stroke="#DDDDDD"/>
<defs>
<filter id="filter0_dd_481_510179" x="-9" y="-6" width="166" height="158" filterUnits="userSpaceOnUse" color-interpolation-filters="sRGB">
<feFlood flood-opacity="0" result="BackgroundImageFix"/>
<feColorMatrix in="SourceAlpha" type="matrix" values="0 0 0 0 0 0 0 0 0 0 0 0 0 0 0 0 0 0 127 0" result="hardAlpha"/>
<feOffset dy="3"/>
<feGaussianBlur stdDeviation="4.5"/>
<feComposite in2="hardAlpha" operator="out"/>
<feColorMatrix type="matrix" values="0 0 0 0 0 0 0 0 0 0 0 0 0 0 0 0 0 0 0.12 0"/>
<feBlend mode="normal" in2="BackgroundImageFix" result="effect1_dropShadow_481_510179"/>
<feColorMatrix in="SourceAlpha" type="matrix" values="0 0 0 0 0 0 0 0 0 0 0 0 0 0 0 0 0 0 127 0" result="hardAlpha"/>
<feOffset dy="1"/>
<feGaussianBlur stdDeviation="1.5"/>
<feComposite in2="hardAlpha" operator="out"/>
<feColorMatrix type="matrix" values="0 0 0 0 0 0 0 0 0 0 0 0 0 0 0 0 0 0 0.15 0"/>
<feBlend mode="normal" in2="effect1_dropShadow_481_510179" result="effect2_dropShadow_481_510179"/>
<feBlend mode="normal" in="SourceGraphic" in2="effect2_dropShadow_481_510179" result="shape"/>
</filter>
<clipPath id="clip0_481_510179">
<rect width="248" height="140" rx="2" fill="white"/>
</clipPath>
</defs>
</svg>
