<svg xmlns="http://www.w3.org/2000/svg" width="28" height="28" viewBox="0 0 28 28">
  <defs>
    <radialGradient id="a" gradientUnits="userSpaceOnUse" cx="158.429" cy="578.088" fx="158.429" fy="578.088" r="65" gradientTransform="matrix(0 -.36036 .33526 0 -187.345 82.728)">
      <stop offset="0" style="stop-color:#fd5;stop-opacity:1"/>
      <stop offset=".1" style="stop-color:#fd5;stop-opacity:1"/>
      <stop offset=".5" style="stop-color:#ff543e;stop-opacity:1"/>
      <stop offset="1" style="stop-color:#c837ab;stop-opacity:1"/>
    </radialGradient>
    <radialGradient id="b" gradientUnits="userSpaceOnUse" cx="147.694" cy="473.455" fx="147.694" fy="473.455" r="65" gradientTransform="matrix(.03163 .15795 -.65124 .1304 299.882 -83.18)">
      <stop offset="0" style="stop-color:#3771c8;stop-opacity:1"/>
      <stop offset=".128" style="stop-color:#3771c8;stop-opacity:1"/>
      <stop offset="1" style="stop-color:#60f;stop-opacity:0"/>
    </radialGradient>
  </defs>
  <g transform="translate(2, 2)" text-anchor="middle" dominant-baseline="middle">
    <path style="stroke:none;fill-rule:nonzero;fill:url(#a)" d="M12.008.184c-4.938 0-6.38.004-6.66.027C4.336.293 3.703.453 3.02.797c-.532.262-.95.566-1.36.992C.91 2.57.457 3.527.29 4.664c-.08.555-.102.668-.106 3.488-.004.942 0 2.18 0 3.844 0 4.93.004 6.371.027 6.652.082.985.238 1.606.566 2.282a4.962 4.962 0 0 0 3.227 2.636c.484.125 1.023.196 1.715.227.293.016 3.277.023 6.261.023 2.985 0 5.973-.003 6.258-.02.801-.034 1.262-.097 1.778-.23a4.95 4.95 0 0 0 3.226-2.644c.32-.66.485-1.305.559-2.238.015-.204.023-3.45.023-6.692s-.008-6.484-.023-6.687c-.074-.95-.238-1.59-.57-2.262a4.63 4.63 0 0 0-1.012-1.387C21.437.91 20.48.453 19.339.29c-.55-.078-.66-.101-3.487-.105Zm0 0"/>
    <path style="stroke:none;fill-rule:nonzero;fill:url(#b)" d="M12.008.184c-4.938 0-6.38.004-6.66.027C4.336.293 3.703.453 3.02.797c-.532.262-.95.566-1.36.992C.91 2.57.457 3.527.29 4.664c-.08.555-.102.668-.106 3.488-.004.942 0 2.18 0 3.844 0 4.93.004 6.371.027 6.652.082.985.238 1.606.566 2.282a4.962 4.962 0 0 0 3.227 2.636c.484.125 1.023.196 1.715.227.293.016 3.277.023 6.261.023 2.985 0 5.973-.003 6.258-.02.801-.034 1.262-.097 1.778-.23a4.95 4.95 0 0 0 3.226-2.644c.32-.66.485-1.305.559-2.238.015-.204.023-3.45.023-6.692s-.008-6.484-.023-6.687c-.074-.95-.238-1.59-.57-2.262a4.63 4.63 0 0 0-1.012-1.387C21.437.91 20.48.453 19.339.29c-.55-.078-.66-.101-3.487-.105Zm0 0"/>
    <path style="stroke:none;fill-rule:nonzero;fill:#fff;fill-opacity:1" d="M12 3.273c-2.371 0-2.668.008-3.598.051-.93.043-1.562.192-2.117.406a4.281 4.281 0 0 0-1.547 1.008A4.3 4.3 0 0 0 3.73 6.281c-.214.559-.363 1.192-.406 2.121-.039.93-.05 1.227-.05 3.598 0 2.371.011 2.668.05 3.598.043.93.192 1.562.406 2.117a4.281 4.281 0 0 0 1.008 1.547 4.3 4.3 0 0 0 1.543 1.008c.559.214 1.192.363 2.121.406.93.043 1.227.05 3.598.05 2.371 0 2.668-.007 3.598-.05.93-.043 1.562-.192 2.117-.406a4.281 4.281 0 0 0 1.547-1.008 4.281 4.281 0 0 0 1.008-1.547c.214-.555.359-1.188.406-2.117.039-.93.05-1.227.05-3.598 0-2.371-.011-2.668-.05-3.598-.047-.93-.192-1.562-.406-2.117a4.281 4.281 0 0 0-1.008-1.547 4.23 4.23 0 0 0-1.547-1.008c-.555-.214-1.192-.363-2.117-.406-.934-.043-1.23-.05-3.602-.05Zm-.781 1.57H12c2.332 0 2.605.012 3.527.052.852.039 1.313.183 1.621.3.407.16.696.348 1.004.653.305.308.493.597.653 1.004.117.308.261.77.3 1.62.04.919.051 1.196.051 3.524 0 2.332-.011 2.606-.05 3.527-.04.852-.184 1.313-.301 1.622-.16.406-.348.695-.653 1a2.674 2.674 0 0 1-1.004.652c-.308.121-.77.262-1.62.3-.923.044-1.196.051-3.528.051-2.328 0-2.605-.007-3.527-.05-.848-.04-1.313-.18-1.618-.301-.41-.156-.699-.344-1.003-.652a2.686 2.686 0 0 1-.657-1c-.117-.31-.261-.77-.3-1.622-.04-.921-.047-1.195-.047-3.527s.007-2.605.047-3.527c.039-.848.183-1.313.3-1.617.16-.41.348-.7.657-1.004a2.67 2.67 0 0 1 1.003-.657c.305-.117.77-.261 1.618-.3.804-.036 1.117-.047 2.746-.047Zm5.441 1.45c-.578 0-1.047.469-1.047 1.047s.469 1.05 1.047 1.05a1.05 1.05 0 0 0 1.047-1.05c0-.578-.469-1.047-1.047-1.047ZM12 7.52a4.48 4.48 0 1 0 0 8.96 4.48 4.48 0 0 0 0-8.96Zm0 1.57A2.912 2.912 0 0 1 14.91 12 2.912 2.912 0 0 1 12 14.91 2.912 2.912 0 0 1 9.09 12 2.912 2.912 0 0 1 12 9.09Zm0 0"/>
  </g>
</svg>