<svg width="29" height="29" viewBox="0 0 29 29" fill="none" xmlns="http://www.w3.org/2000/svg">
<g clip-path="url(#clip0_1698_35803)">
<g clip-path="url(#clip1_1698_35803)">
<path d="M25.9029 14.3535C25.9029 13.341 25.8207 12.6022 25.6429 11.8359H14.0809V16.4059H20.8675C20.7308 17.5416 19.9919 19.252 18.3499 20.4013L18.3269 20.5543L21.9826 23.3863L22.2359 23.4115C24.5619 21.2633 25.9029 18.1026 25.9029 14.3535Z" fill="#4285F4"/>
<path d="M14.0809 26.3942C17.4058 26.3942 20.197 25.2995 22.2358 23.4113L18.3499 20.401C17.31 21.1262 15.9144 21.6325 14.0809 21.6325C10.8244 21.6325 8.06055 19.4843 7.0753 16.5151L6.93088 16.5274L3.12967 19.4692L3.07996 19.6074C5.10498 23.6302 9.26455 26.3942 14.0809 26.3942Z" fill="#34A853"/>
<path d="M7.07547 16.515C6.8155 15.7488 6.66505 14.9278 6.66505 14.0795C6.66505 13.2311 6.8155 12.4102 7.06179 11.6439L7.0549 11.4808L3.20604 8.4917L3.08012 8.5516C2.2455 10.2209 1.7666 12.0955 1.7666 14.0795C1.7666 16.0635 2.2455 17.938 3.08012 19.6073L7.07547 16.515Z" fill="#FBBC05"/>
<path d="M14.081 6.52671C16.3933 6.52671 17.9531 7.52554 18.8425 8.36025L22.318 4.9669C20.1835 2.98291 17.4058 1.76514 14.081 1.76514C9.26457 1.76514 5.10499 4.52903 3.07996 8.55173L7.06164 11.6441C8.06057 8.67492 10.8245 6.52671 14.081 6.52671Z" fill="#EB4335"/>
</g>
</g>
<defs>
<clipPath id="clip0_1698_35803">
<rect width="24.7139" height="24.7139" fill="white" transform="translate(1.76526 1.76514)"/>
</clipPath>
<clipPath id="clip1_1698_35803">
<rect width="24.1504" height="24.7139" fill="white" transform="translate(1.76526 1.76514)"/>
</clipPath>
</defs>
</svg>
