<svg width="29" height="28" viewBox="0 0 29 28" fill="none" xmlns="http://www.w3.org/2000/svg">
<g clip-path="url(#clip0_1698_35810)">
<g clip-path="url(#clip1_1698_35810)">
<path d="M1.99438 14.0002C1.99438 19.0164 5.01076 23.3257 9.32706 25.2203C9.29261 24.3649 9.32094 23.338 9.54029 22.4073C9.77582 21.4129 11.1165 15.7322 11.1165 15.7322C11.1165 15.7322 10.7252 14.95 10.7252 13.794C10.7252 11.9787 11.7774 10.6228 13.0877 10.6228C14.202 10.6228 14.7403 11.4598 14.7403 12.462C14.7403 13.5821 14.0259 15.2575 13.6585 16.8094C13.3516 18.1088 14.31 19.1687 15.592 19.1687C17.913 19.1687 19.4762 16.1877 19.4762 12.6557C19.4762 9.9708 17.6679 7.96123 14.3788 7.96123C10.6629 7.96123 8.34792 10.7324 8.34792 13.8278C8.34792 14.8951 8.6626 15.6477 9.15547 16.2306C9.38209 16.4982 9.41358 16.6059 9.33156 16.9133C9.2728 17.1387 9.13786 17.6813 9.08197 17.8964C9.00043 18.2066 8.74902 18.3176 8.46861 18.203C6.75705 17.5043 5.95994 15.6299 5.95994 13.5229C5.95994 10.0431 8.89477 5.8704 14.7151 5.8704C19.3921 5.8704 22.4704 9.25485 22.4704 12.8878C22.4704 17.6934 19.7987 21.2835 15.8605 21.2835C14.538 21.2835 13.294 20.5686 12.8678 19.7565C12.8678 19.7565 12.1566 22.579 12.006 23.1241C11.7462 24.0685 11.2379 25.0126 10.773 25.7483C11.8748 26.0735 13.0386 26.2507 14.2449 26.2507C21.0095 26.2507 26.4945 20.766 26.4945 14.0002C26.4945 7.23465 21.0095 1.75 14.2449 1.75C7.47951 1.75 1.99438 7.23465 1.99438 14.0002Z" fill="#CB1F27"/>
</g>
</g>
<defs>
<clipPath id="clip0_1698_35810">
<rect width="24.5" height="24.5" fill="white" transform="translate(1.99438 1.75)"/>
</clipPath>
<clipPath id="clip1_1698_35810">
<rect width="24.5" height="24.5" fill="white" transform="translate(1.99438 1.75)"/>
</clipPath>
</defs>
</svg>
