<svg width="28" height="28" viewBox="0 0 28 28" fill="none" xmlns="http://www.w3.org/2000/svg">
<g clip-path="url(#clip0_1698_35791)">
<path fill-rule="evenodd" clip-rule="evenodd" d="M25.5751 7H2.61755C1.16468 7 -0.0114466 8.18766 8.40658e-05 9.62899V18.3923C8.40658e-05 19.8452 1.17621 21.0213 2.62908 21.0213H13.5025L18.4722 23.7887L17.3422 21.0213H25.5751C27.028 21.0213 28.2041 19.8452 28.2041 18.3923V9.62899C28.2041 8.17613 27.028 7 25.5751 7ZM2.13267 9.03307C1.80982 9.05613 1.56767 9.17144 1.40624 9.39052C1.24481 9.59807 1.18716 9.86328 1.22175 10.1631C1.90206 14.4871 2.53625 17.4043 3.12431 18.9149C3.35493 19.4683 3.62013 19.7335 3.93146 19.7105C4.41575 19.6759 4.99228 19.0071 5.67259 17.7041C6.03005 16.9662 6.58352 15.8592 7.33301 14.3833C7.95567 16.5626 8.80894 18.2 9.88129 19.2954C10.1811 19.6067 10.4924 19.7451 10.7922 19.722C11.0574 19.699 11.265 19.5606 11.4033 19.3069C11.5186 19.0878 11.5648 18.8341 11.5417 18.5459C11.4725 17.4966 11.5763 16.0322 11.8646 14.1527C12.1644 12.2155 12.5334 10.8203 12.983 9.99012C13.0753 9.81716 13.1099 9.64419 13.0984 9.43664C13.0753 9.17144 12.96 8.95236 12.7409 8.7794C12.5218 8.60643 12.2797 8.52572 12.0145 8.54878C11.6801 8.57184 11.4264 8.73327 11.2534 9.05613C10.5385 10.3591 10.0312 12.4692 9.73139 15.398C9.29323 14.2911 8.92425 12.9881 8.63598 11.4545C8.50914 10.7742 8.19781 10.4513 7.69046 10.4859C7.34454 10.509 7.05628 10.7396 6.82566 11.1778L4.30044 15.9861C3.88534 14.3141 3.49329 12.2732 3.13584 9.86328C3.05513 9.26368 2.72074 8.98695 2.13267 9.03307ZM24.3521 9.86167C25.1707 10.0346 25.7819 10.4728 26.197 11.1992C26.566 11.8219 26.7504 12.5714 26.7504 13.4708C26.7504 14.6584 26.4506 15.7423 25.8511 16.734C25.1592 17.887 24.2598 18.4636 23.1413 18.4636C22.9453 18.4636 22.7378 18.4405 22.5187 18.3944C21.7 18.2214 21.0889 17.7832 20.6738 17.0568C20.3048 16.4226 20.1203 15.6616 20.1203 14.7737C20.1203 13.5861 20.4201 12.5022 21.0197 11.5221C21.7231 10.369 22.6225 9.79248 23.7294 9.79248C23.9254 9.79248 24.133 9.81554 24.3521 9.86167ZM23.8678 16.0998C24.2944 15.7193 24.5827 15.1542 24.7441 14.3932C24.7902 14.128 24.8248 13.8397 24.8248 13.54C24.8248 13.2056 24.7556 12.8481 24.6173 12.4907C24.4443 12.041 24.2137 11.7988 23.937 11.7412C23.5219 11.6604 23.1183 11.8911 22.7378 12.4561C22.4264 12.8942 22.2304 13.3555 22.1266 13.8282C22.069 14.0934 22.0459 14.3817 22.0459 14.67C22.0459 15.0044 22.1151 15.3618 22.2535 15.7192C22.4264 16.1689 22.657 16.4111 22.9338 16.4687C23.2221 16.5264 23.5334 16.3996 23.8678 16.0998ZM18.9674 11.1992C18.5523 10.4728 17.9296 10.0346 17.1225 9.86167C16.9034 9.81554 16.6959 9.79248 16.4998 9.79248C15.3929 9.79248 14.4935 10.369 13.7901 11.5221C13.1905 12.5022 12.8907 13.5861 12.8907 14.7737C12.8907 15.6616 13.0752 16.4226 13.4442 17.0568C13.8593 17.7832 14.4704 18.2214 15.2891 18.3944C15.5082 18.4405 15.7157 18.4636 15.9118 18.4636C17.0302 18.4636 17.9296 17.887 18.6215 16.734C19.2211 15.7423 19.5209 14.6584 19.5209 13.4708C19.5209 12.5714 19.3364 11.8219 18.9674 11.1992ZM17.5145 14.3932C17.3531 15.1542 17.0648 15.7193 16.6382 16.0998C16.3038 16.3996 15.9925 16.5264 15.7042 16.4687C15.4275 16.4111 15.1969 16.1689 15.0239 15.7192C14.8855 15.3618 14.8164 15.0044 14.8164 14.67C14.8164 14.3817 14.8394 14.0934 14.8971 13.8282C15.0008 13.3555 15.1969 12.8942 15.5082 12.4561C15.8887 11.8911 16.2923 11.6604 16.7074 11.7412C16.9841 11.7988 17.2147 12.041 17.3877 12.4907C17.5261 12.8481 17.5952 13.2056 17.5952 13.54C17.5952 13.8397 17.5722 14.128 17.5145 14.3932Z" fill="#7F54B3"/>
</g>
<defs>
<clipPath id="clip0_1698_35791">
<rect width="28" height="28" fill="white"/>
</clipPath>
</defs>
</svg>
