<svg width="25" height="24" viewBox="0 0 25 24" fill="none" xmlns="http://www.w3.org/2000/svg">
<g id="lock">
<path id="Shape" fill-rule="evenodd" clip-rule="evenodd" d="M12.6665 3.25C10.5954 3.25 8.9165 4.92893 8.9165 7V10H7.6665C7.11422 10 6.6665 10.4477 6.6665 11V19C6.6665 19.5523 7.11422 20 7.6665 20H17.6665C18.2188 20 18.6665 19.5523 18.6665 19V11C18.6665 10.4477 18.2188 10 17.6665 10H16.4165V7C16.4165 4.92893 14.7376 3.25 12.6665 3.25ZM14.9165 10V7C14.9165 5.75736 13.9091 4.75 12.6665 4.75C11.4239 4.75 10.4165 5.75736 10.4165 7V10H14.9165Z" fill="white"/>
</g>
</svg>
