<svg width="147" height="115" viewBox="0 0 147 115" fill="none" xmlns="http://www.w3.org/2000/svg">
<rect x="32.0005" width="84" height="115" rx="4.59053" fill="#527BCA" fill-opacity="0.22"/>
<g filter="url(#filter0_d_5230_47662)">
<rect width="81.7778" height="92.4444" rx="4.30362" transform="matrix(-1 0 0 1 91.7778 10.8438)" fill="white"/>
</g>
<rect x="20.0005" y="68" width="3" height="11" fill="#5CA0E0"/>
<rect x="24.5005" y="68" width="1" height="11" fill="#5CA0E0"/>
<rect x="27.0005" y="68" width="5" height="11" fill="#5CA0E0"/>
<rect x="33.5005" y="68" width="3" height="11" fill="#5CA0E0"/>
<rect x="38.0005" y="68" width="3" height="11" fill="#5CA0E0"/>
<rect x="42.5005" y="68" width="4" height="11" fill="#5CA0E0"/>
<rect x="48.0005" y="68" width="3" height="11" fill="#5CA0E0"/>
<rect x="52.5005" y="68" width="3" height="11" fill="#5CA0E0"/>
<rect x="57.0005" y="68" width="5" height="11" fill="#5CA0E0"/>
<rect x="63.5005" y="68" width="2" height="11" fill="#5CA0E0"/>
<rect x="67.0005" y="68" width="3" height="11" fill="#5CA0E0"/>
<rect x="71.5005" y="68" width="2" height="11" fill="#5CA0E0"/>
<rect x="75.0005" y="68" width="4" height="11" fill="#5CA0E0"/>
<rect x="80.5005" y="68" width="1" height="11" fill="#5CA0E0"/>
<rect x="20.0005" y="84" width="62" height="11" rx="1.72145" fill="#276095"/>
<rect x="20.311" y="47" width="25.6" height="4.26667" rx="2.13333" fill="#DCDCDE"/>
<rect x="20.311" y="53.8203" width="61.1556" height="4.26666" rx="2.13333" fill="#DCDCDE"/>
<g filter="url(#filter1_d_5230_47662)">
<rect x="56.2222" y="40.3555" width="81.4222" height="28.4444" rx="4.30362" fill="white" shape-rendering="crispEdges"/>
<rect x="80.6094" y="46.0938" width="6.59889" height="2.29526" rx="1.14763" fill="#DCDCDE"/>
<rect x="80.6094" y="50.6836" width="33.2813" height="2.29526" rx="1.14763" fill="#DCDCDE"/>
<rect x="80.6094" y="55.2754" width="22.0919" height="2.29526" rx="1.14763" fill="#276095"/>
<circle cx="69" cy="54" r="9" fill="#3385D1"/>
<mask id="mask0_5230_47662" style="mask-type:luminance" maskUnits="userSpaceOnUse" x="65" y="50" width="7" height="8">
<path fill-rule="evenodd" clip-rule="evenodd" d="M65.2915 53.4048L67.3998 55.5132L71.7082 51.2507L70.7915 50.334L67.3998 53.7257L66.2082 52.534L65.2915 53.4048ZM71.7082 56.7507H65.2915V57.6673H71.7082V56.7507Z" fill="white"/>
</mask>
<g mask="url(#mask0_5230_47662)">
<rect x="63" y="48.5" width="11" height="11" fill="white"/>
</g>
</g>
<path d="M22.1538 26.6751C22.5481 26.6751 22.9425 26.732 23.3228 26.8746C23.6583 27.0024 23.965 27.1878 24.2282 27.4298C24.4891 27.6854 24.693 27.9908 24.8273 28.3267C24.9736 28.7108 25.046 29.1234 25.046 29.536C25.046 29.6498 25.046 29.764 25.032 29.8781C25.0181 29.9482 25.0024 30.0203 24.9597 30.0912C24.9301 30.1481 24.8869 30.1765 24.8285 30.205C24.7562 30.2338 24.6821 30.2338 24.6098 30.2338H20.9125C20.9713 30.7602 21.1313 31.1307 21.3948 31.3723C21.658 31.6002 21.9939 31.728 22.4174 31.728C22.6065 31.728 22.8113 31.6991 22.9869 31.6422C23.1333 31.6002 23.2796 31.5433 23.4256 31.4712C23.5568 31.4143 23.66 31.3434 23.7768 31.3001C23.8783 31.2433 23.9955 31.2148 24.1127 31.2148C24.2438 31.2012 24.3758 31.2717 24.4638 31.371L25.0181 32.04C24.8321 32.2494 24.6157 32.4313 24.3758 32.5799C24.1571 32.7226 23.9231 32.8215 23.6752 32.9072C23.4413 32.9777 23.1929 33.035 22.959 33.0634C22.725 33.0919 22.5063 33.1055 22.2723 33.1055C21.8394 33.1054 21.4098 33.0333 21.0018 32.8924C20.6197 32.7478 20.2683 32.5357 19.9653 32.2667C19.6592 31.9667 19.4206 31.6079 19.2646 31.2132C19.0767 30.7468 18.9872 30.2483 19.0015 29.7475C19.0015 29.3349 19.0738 28.9355 19.2202 28.5517C19.3642 28.1854 19.5818 27.8508 19.8603 27.5675C20.1387 27.2841 20.4725 27.0578 20.8419 26.9018C21.2629 26.7545 21.7065 26.6779 22.1538 26.6751ZM22.1987 27.9697C21.8336 27.9697 21.5408 28.0687 21.336 28.2682C21.1313 28.4681 21.0005 28.7665 20.9265 29.1502H23.3228C23.3228 29.008 23.3088 28.8518 23.264 28.7092C23.2208 28.567 23.1625 28.4392 23.0749 28.3391C22.9869 28.2249 22.8561 28.1396 22.7237 28.0687C22.5572 28.0021 22.3787 27.9685 22.1987 27.9697ZM36.178 28.1408C36.1402 28.2062 36.0848 28.2602 36.0177 28.297C35.9453 28.3255 35.8713 28.3539 35.7989 28.3391C35.7114 28.3391 35.6094 28.3255 35.5218 28.2818L35.2291 28.154C35.1123 28.1124 34.9951 28.0687 34.8779 28.0266C34.7307 27.9862 34.5781 27.9671 34.4252 27.9697C34.1773 27.9697 34.0021 28.0118 33.871 28.1124C33.7398 28.1977 33.6662 28.3403 33.6814 28.4829C33.6814 28.5967 33.7246 28.696 33.8126 28.7677C33.9141 28.8535 34.0313 28.9239 34.1481 28.9672C34.3084 29.0245 34.4548 29.0814 34.6304 29.1383C34.8056 29.1951 34.9951 29.2524 35.1707 29.3093C35.3602 29.3798 35.5358 29.4519 35.7114 29.5373C35.8865 29.623 36.0469 29.7219 36.1793 29.8505C36.3257 29.9783 36.4424 30.1357 36.5148 30.3068C36.6028 30.5063 36.6459 30.7342 36.6459 30.9609C36.6459 31.2597 36.5876 31.5446 36.4704 31.8145C36.3536 32.0713 36.178 32.3129 35.9593 32.4839C35.7114 32.6834 35.4186 32.826 35.1123 32.9249C34.7315 33.0387 34.3529 33.0807 33.9585 33.0807C33.738 33.0834 33.5177 33.0643 33.3011 33.0239C33.0824 32.9818 32.878 32.9249 32.6728 32.8676C32.4833 32.7976 32.2925 32.7254 32.1186 32.6261C31.9614 32.5429 31.8142 32.4428 31.6799 32.3277L32.1186 31.6451C32.1617 31.5742 32.2354 31.5025 32.3081 31.4605C32.3989 31.4158 32.4988 31.3917 32.6005 31.39C32.7037 31.39 32.8052 31.4184 32.8932 31.4601L33.1856 31.6167C33.3028 31.6736 33.4195 31.7305 33.5507 31.7725C33.7263 31.8294 33.9019 31.843 34.0757 31.843C34.2069 31.843 34.3237 31.8294 34.4561 31.8009C34.5458 31.7729 34.6297 31.7296 34.704 31.6732C34.7624 31.6315 34.8056 31.5594 34.8352 31.5025C34.8644 31.4456 34.8783 31.3747 34.8783 31.303C34.8787 31.245 34.8673 31.1874 34.8448 31.1337C34.8223 31.0799 34.7891 31.031 34.7472 30.9898C34.6447 30.9055 34.5321 30.8337 34.4117 30.7763C34.2509 30.7194 34.0897 30.6625 33.9294 30.6205C33.7538 30.5632 33.5647 30.5063 33.3891 30.4494C33.2051 30.3822 33.0246 30.3062 32.8484 30.2215C32.6697 30.1336 32.5068 30.0181 32.3661 29.8794C32.2165 29.7354 32.1019 29.5606 32.0306 29.3679C31.9434 29.1351 31.899 28.8893 31.8994 28.6416C31.8994 28.3852 31.9587 28.1301 32.0602 27.8873C32.1626 27.6452 32.3231 27.4305 32.5281 27.2612C32.7562 27.0651 33.0251 26.9193 33.3163 26.8338C33.6741 26.7179 34.0501 26.665 34.4269 26.6776C34.6456 26.6776 34.8796 26.6912 35.0983 26.7349C35.3031 26.7769 35.5079 26.8338 35.7114 26.9195C35.8865 26.9896 36.0625 27.0753 36.2364 27.1759C36.3828 27.2748 36.5287 27.3754 36.6595 27.5028L36.178 28.1408ZM40.3555 34.6445C40.3136 34.7509 40.2428 34.8442 40.1507 34.9145C40.0631 34.9714 39.932 34.9998 39.7568 34.9998H38.5879C38.4707 34.9998 38.3831 34.8721 38.4415 34.7719L39.5656 32.481L36.937 26.6603H38.631C38.7482 26.6467 38.8789 26.6887 38.9822 26.7592C39.0545 26.8161 39.1133 26.9018 39.1578 26.9871L40.2679 29.8048C40.3694 30.0463 40.4435 30.3027 40.5019 30.559L40.633 30.1753C40.6762 30.0475 40.7346 29.9185 40.779 29.7912L41.7876 26.9871C41.8308 26.8882 41.8891 26.8161 41.9771 26.7592C42.069 26.7032 42.1751 26.6736 42.2834 26.6739H43.8328L40.3555 34.6445ZM48.2573 28.1408C48.2194 28.2062 48.1638 28.2603 48.0965 28.297C48.0386 28.3255 47.9658 28.3539 47.8782 28.3391C47.7902 28.3391 47.6887 28.3255 47.6011 28.2818L47.3083 28.154C47.1916 28.1124 47.0744 28.0687 46.9572 28.0266C46.81 27.9862 46.6574 27.9671 46.5045 27.9697C46.2566 27.9697 46.0814 28.0118 45.9503 28.1124C45.8191 28.1977 45.7455 28.3403 45.7607 28.4829C45.7607 28.5967 45.8039 28.696 45.8919 28.7677C45.9934 28.8535 46.1102 28.9239 46.2274 28.9672C46.3877 29.0245 46.5337 29.0814 46.7097 29.1383C46.8848 29.1951 47.0744 29.2524 47.25 29.3093C47.4395 29.3798 47.6151 29.4519 47.7902 29.5373C47.9658 29.623 48.1262 29.7219 48.2725 29.8505C48.4185 29.9783 48.5357 30.1357 48.608 30.3068C48.696 30.5063 48.7392 30.7342 48.7392 30.9609C48.7392 31.2597 48.6804 31.5446 48.5636 31.8145C48.4464 32.0713 48.2708 32.3129 48.0521 32.4839C47.8042 32.6834 47.5118 32.826 47.2055 32.9249C46.8248 33.0387 46.4461 33.0807 46.0518 33.0807C45.8312 33.0834 45.611 33.0643 45.3943 33.0239C45.1756 32.9818 44.9713 32.9249 44.7661 32.8676C44.5765 32.7976 44.3857 32.7254 44.1962 32.6261C44.039 32.5429 43.8918 32.4428 43.7575 32.3277L44.1962 31.6451C44.2393 31.5742 44.3134 31.5025 44.3857 31.4605C44.4766 31.4157 44.5767 31.3916 44.6785 31.39C44.7813 31.39 44.8833 31.4184 44.9708 31.4601L45.2636 31.6167C45.3804 31.6736 45.4976 31.7305 45.6283 31.7725C45.8039 31.8294 45.9795 31.843 46.1538 31.843C46.2849 31.843 46.4017 31.8294 46.5337 31.8009C46.6236 31.7729 46.7076 31.7297 46.782 31.6732C46.8988 31.5878 46.9572 31.4456 46.9572 31.303C46.9576 31.245 46.9462 31.1874 46.9237 31.1337C46.9012 31.0799 46.868 31.031 46.826 30.9898C46.7236 30.9055 46.6109 30.8337 46.4905 30.7763C46.3306 30.7194 46.169 30.6625 46.0086 30.6205C45.8331 30.5632 45.6435 30.5063 45.4684 30.4494C45.2844 30.3822 45.1039 30.3062 44.9277 30.2215C44.749 30.1336 44.5861 30.0181 44.4454 29.8794C44.2958 29.7354 44.1812 29.5606 44.1099 29.3679C44.0227 29.1351 43.9783 28.8893 43.9787 28.6416C43.9787 28.3852 44.0375 28.1301 44.1395 27.8873C44.2419 27.6452 44.4024 27.4305 44.6074 27.2612C44.8355 27.0651 45.1043 26.9193 45.3956 26.8338C45.7533 26.7179 46.1294 26.665 46.5062 26.6776C46.7249 26.6776 46.9589 26.6912 47.1776 26.7349C47.3824 26.7769 47.5871 26.8338 47.7902 26.9059C47.9658 26.976 48.1414 27.0617 48.3157 27.1623C48.4621 27.2612 48.608 27.3618 48.7252 27.4891L48.2573 28.1408ZM49.5138 32.8664V24.0994C49.5138 24.0421 49.557 24.0137 49.6014 24.0137H50.638C51.0767 24.0137 51.4262 24.3558 51.4262 24.782V27.3292C51.6449 27.1446 51.9085 26.9871 52.1716 26.8593C52.4756 26.7324 52.805 26.6741 53.1354 26.6887C53.4574 26.6887 53.7776 26.7456 54.0704 26.8598C54.334 26.9746 54.5684 27.1446 54.757 27.3577C54.9513 27.5771 55.0956 27.8342 55.1805 28.1119C55.2821 28.4256 55.3269 28.738 55.3269 29.0666V32.88C55.3272 32.9118 55.321 32.9433 55.3086 32.9728C55.2963 33.0022 55.278 33.0289 55.2549 33.0514C55.2319 33.0739 55.2044 33.0917 55.1742 33.1037C55.144 33.1158 55.1116 33.1218 55.079 33.1215H53.6621C53.6295 33.1218 53.5971 33.1158 53.5669 33.1037C53.5367 33.0917 53.5093 33.0739 53.4862 33.0514C53.4631 33.0289 53.4449 33.0022 53.4325 32.9728C53.4201 32.9433 53.4139 32.9118 53.4142 32.88V29.0513C53.4142 28.7529 53.3419 28.5113 53.1955 28.3403C53.0491 28.1692 52.8443 28.0839 52.5532 28.0839C52.3485 28.0839 52.1437 28.126 51.9694 28.2117C51.7803 28.3106 51.5895 28.4244 51.4291 28.567V32.8652C51.4294 32.897 51.4232 32.9285 51.4108 32.9579C51.3985 32.9874 51.3802 33.0141 51.3571 33.0366C51.3341 33.0591 51.3066 33.0768 51.2764 33.0889C51.2462 33.1009 51.2138 33.107 51.1812 33.1067H49.7643C49.7317 33.1068 49.6994 33.1007 49.6693 33.0886C49.6392 33.0765 49.6118 33.0587 49.5887 33.0362C49.5647 33.0146 49.5456 32.9884 49.5327 32.9591C49.5198 32.9298 49.5134 32.8983 49.5138 32.8664ZM59.1689 34.7583V26.6615H60.3518C60.4534 26.6615 60.5566 26.6903 60.6581 26.732C60.7457 26.7889 60.8045 26.8746 60.8337 26.9599L60.9801 27.5436C61.0969 27.4158 61.228 27.2872 61.374 27.1883C61.5159 27.0802 61.6674 26.9848 61.8267 26.903C61.9874 26.8177 62.1778 26.7604 62.3521 26.7184C62.5534 26.6743 62.7589 26.6507 62.9652 26.6479C63.2867 26.6479 63.6074 26.7184 63.8858 26.861C64.1737 27.0142 64.4231 27.2279 64.6156 27.4867C64.8371 27.7925 65.0004 28.1345 65.0979 28.4965C65.2147 28.9381 65.2737 29.3924 65.2735 29.8485C65.2735 30.2895 65.2147 30.7305 65.0687 31.1427C64.9493 31.5185 64.7616 31.8703 64.5145 32.1814C64.2801 32.4658 63.989 32.7077 63.6518 32.8639C63.3087 33.0347 62.9267 33.1178 62.5417 33.1055C62.2489 33.1191 61.9718 33.0634 61.6947 32.9629C61.4692 32.876 61.2616 32.7505 61.0816 32.5923V34.7406C61.0819 34.7724 61.0757 34.8039 61.0633 34.8333C61.051 34.8628 61.0327 34.8895 61.0096 34.912C60.9866 34.9345 60.9591 34.9522 60.9289 34.9643C60.8987 34.9763 60.8663 34.9824 60.8337 34.9821H59.4308C59.3982 34.9823 59.3659 34.9762 59.3358 34.9642C59.3057 34.9521 59.2783 34.9344 59.2552 34.912C59.2133 34.8725 59.1689 34.8152 59.1689 34.7583ZM62.295 28.0839C62.1639 28.0839 62.0471 28.0975 61.9147 28.126C61.8131 28.1544 61.6959 28.1828 61.5931 28.2397C61.4912 28.2818 61.4036 28.3539 61.3296 28.4244C61.242 28.5101 61.154 28.5954 61.0816 28.6808V31.3286C61.2128 31.4712 61.374 31.5854 61.5496 31.6558C61.7251 31.7127 61.9007 31.7548 62.075 31.7548C62.2506 31.7548 62.4105 31.7263 62.5569 31.6558C62.7173 31.5854 62.8493 31.4712 62.9373 31.3286C63.054 31.1443 63.142 30.9448 63.2004 30.7453C63.2728 30.4601 63.3019 30.1617 63.2884 29.8633C63.2884 29.5781 63.2744 29.3081 63.2156 29.0377C63.183 28.8467 63.1135 28.6635 63.0109 28.4977C62.9347 28.3708 62.8232 28.2673 62.6893 28.1993C62.5878 28.1124 62.4414 28.0839 62.295 28.0839ZM31.0791 29.1234C31.0791 28.7813 31.0207 28.4545 30.9039 28.1408C30.7958 27.8489 30.6264 27.5821 30.4064 27.3577C30.1877 27.1297 29.9093 26.9587 29.6178 26.8462C29.2822 26.7209 28.9254 26.6582 28.566 26.6615C28.0549 26.6615 27.5438 26.7468 27.0463 26.903C26.6283 27.0461 26.2384 27.2578 25.8934 27.5287C25.8555 27.5591 25.8303 27.6018 25.8223 27.649C25.8144 27.6962 25.8243 27.7445 25.8503 27.7851L26.1134 28.2261C26.1718 28.3119 26.2446 28.3972 26.3322 28.4545C26.4337 28.5113 26.5509 28.5534 26.6681 28.5534C26.7988 28.5534 26.9312 28.5398 27.048 28.4829C27.1495 28.4409 27.2667 28.384 27.3839 28.3267C27.5011 28.2562 27.6318 28.1989 27.7643 28.1556C27.9398 28.0988 28.1294 28.0852 28.3185 28.0852C28.596 28.0852 28.816 28.1705 28.976 28.3267C29.1367 28.4977 29.2103 28.7541 29.2103 29.1234V29.3934C28.4801 29.3934 27.8658 29.4639 27.3839 29.5929C26.9016 29.7207 26.5217 29.8781 26.2306 30.0776C25.9827 30.2334 25.7779 30.4614 25.6315 30.7181C25.5154 30.9278 25.4551 31.1625 25.456 31.4007C25.456 31.6571 25.4991 31.9122 25.5871 32.1406C25.6747 32.3533 25.8054 32.5243 25.967 32.6805C26.1426 32.8367 26.3478 32.9369 26.5805 33.0078C26.8418 33.0811 27.1121 33.1194 27.3839 33.1215C27.5887 33.1215 27.7782 33.1079 27.983 33.0647C28.1586 33.0358 28.3185 32.9789 28.4941 32.9085C28.6581 32.8374 28.8149 32.7516 28.9624 32.6521C29.05 32.5952 29.1223 32.5379 29.2103 32.4674V33.0511H30.2913C30.73 33.0511 31.0795 32.709 31.0795 32.2828V29.1234H31.0791ZM28.64 31.7564C28.4371 31.8409 28.2186 31.8844 27.9978 31.8842C27.7638 31.8842 27.5883 31.8417 27.4728 31.7564C27.3556 31.6707 27.2972 31.5149 27.2972 31.3001C27.2972 31.2012 27.3264 31.087 27.3848 31.0017C27.4571 30.8875 27.5603 30.8022 27.6915 30.7602C27.8783 30.6772 28.0742 30.6152 28.2753 30.5755C28.5817 30.5187 28.9032 30.505 29.2252 30.505V31.3583C29.0483 31.5132 28.8588 31.6558 28.64 31.7564ZM56.5403 32.9789L58.0308 32.1389C58.0805 32.109 58.1214 32.067 58.1495 32.0171C58.1776 31.9672 58.1919 31.911 58.1912 31.8541V28.5534C58.1912 28.4256 58.06 28.3539 57.9432 28.4108L56.468 29.2508C56.4181 29.2807 56.3771 29.3227 56.349 29.3727C56.3208 29.4227 56.3064 29.479 56.3072 29.536V32.838C56.2924 32.9657 56.4388 33.0358 56.5403 32.9789Z" fill="#1A2A36"/>
<path d="M58.0287 24.9261L56.4659 24.0441C56.4227 24.0136 56.3504 24.0004 56.2915 24.0004C56.2301 23.9974 56.169 24.012 56.116 24.0424L54.6115 24.8676C54.5683 24.8965 54.5239 24.9381 54.5239 24.9818C54.5239 25.0387 54.5671 25.0807 54.6115 25.1096L56.2915 26.0633V28.0121C56.2915 28.0541 56.3055 28.0978 56.3347 28.1263C56.3779 28.1547 56.4227 28.1399 56.4519 28.1263L58.0287 27.2442C58.1302 27.1869 58.1751 27.1016 58.1751 26.9874V25.1813C58.1737 25.1303 58.1597 25.0804 58.1342 25.0359C58.1087 24.9914 58.0725 24.9536 58.0287 24.9257V24.9261Z" fill="url(#paint0_linear_5230_47662)"/>
<path d="M58.1366 25.041L56.292 26.0657V28.0157C56.292 28.0582 56.306 28.1014 56.3351 28.1299C56.3783 28.1587 56.4231 28.1435 56.4523 28.1299L58.0291 27.2478C58.1307 27.1909 58.1755 27.1052 58.1755 26.991V25.1836C58.175 25.1337 58.1616 25.0846 58.1366 25.041Z" fill="url(#paint1_linear_5230_47662)"/>
<defs>
<filter id="filter0_d_5230_47662" x="0.818942" y="1.66269" width="100.14" height="110.807" filterUnits="userSpaceOnUse" color-interpolation-filters="sRGB">
<feFlood flood-opacity="0" result="BackgroundImageFix"/>
<feColorMatrix in="SourceAlpha" type="matrix" values="0 0 0 0 0 0 0 0 0 0 0 0 0 0 0 0 0 0 127 0" result="hardAlpha"/>
<feOffset/>
<feGaussianBlur stdDeviation="4.59053"/>
<feColorMatrix type="matrix" values="0 0 0 0 0 0 0 0 0 0 0 0 0 0 0 0 0 0 0.1 0"/>
<feBlend mode="normal" in2="BackgroundImageFix" result="effect1_dropShadow_5230_47662"/>
<feBlend mode="normal" in="SourceGraphic" in2="effect1_dropShadow_5230_47662" result="shape"/>
</filter>
<filter id="filter1_d_5230_47662" x="47.0411" y="34.0435" width="99.7845" height="46.8074" filterUnits="userSpaceOnUse" color-interpolation-filters="sRGB">
<feFlood flood-opacity="0" result="BackgroundImageFix"/>
<feColorMatrix in="SourceAlpha" type="matrix" values="0 0 0 0 0 0 0 0 0 0 0 0 0 0 0 0 0 0 127 0" result="hardAlpha"/>
<feOffset dy="2.86908"/>
<feGaussianBlur stdDeviation="4.59053"/>
<feComposite in2="hardAlpha" operator="out"/>
<feColorMatrix type="matrix" values="0 0 0 0 0 0 0 0 0 0 0 0 0 0 0 0 0 0 0.1 0"/>
<feBlend mode="normal" in2="BackgroundImageFix" result="effect1_dropShadow_5230_47662"/>
<feBlend mode="normal" in="SourceGraphic" in2="effect1_dropShadow_5230_47662" result="shape"/>
</filter>
<linearGradient id="paint0_linear_5230_47662" x1="250.65" y1="183.387" x2="337.173" y2="-22.5616" gradientUnits="userSpaceOnUse">
<stop stop-color="#8DD0D6"/>
<stop offset="1" stop-color="#57C4C6"/>
</linearGradient>
<linearGradient id="paint1_linear_5230_47662" x1="36.528" y1="180.31" x2="236.02" y2="180.31" gradientUnits="userSpaceOnUse">
<stop stop-color="#8ED2D8"/>
<stop offset="1" stop-color="#57C4C7"/>
</linearGradient>
</defs>
</svg>
