<svg width="110" height="27" xmlns="http://www.w3.org/2000/svg"><defs><linearGradient x1="53.716%" y1="38.476%" x2="72.763%" y2="-12.962%" id="a"><stop stop-color="#8DD0D6" offset="0%"/><stop stop-color="#57C4C6" offset="100%"/></linearGradient><linearGradient x1="-10.493%" y1="50.002%" x2="95.42%" y2="50.002%" id="b"><stop stop-color="#8ED2D8" offset="0%"/><stop stop-color="#57C4C7" offset="100%"/></linearGradient></defs><g fill-rule="nonzero" fill="none"><path d="M7.461 6.49c.932 0 1.864.138 2.763.484.793.31 1.518.76 2.14 1.347a6.355 6.355 0 0 1 1.416 2.176c.346.932.517 1.933.517 2.934 0 .276 0 .553-.033.83-.033.17-.07.345-.171.517-.07.138-.172.207-.31.276-.171.07-.346.07-.517.07H4.527c.139 1.277.517 2.176 1.14 2.762.622.553 1.416.863 2.417.863.447 0 .931-.07 1.346-.208.346-.102.692-.24 1.037-.415.31-.138.554-.31.83-.415.24-.138.517-.207.794-.207.31-.033.622.138.83.379l1.31 1.623a6.909 6.909 0 0 1-1.518 1.31c-.517.346-1.07.586-1.656.794-.553.171-1.14.31-1.693.379-.553.069-1.07.102-1.623.102a8.987 8.987 0 0 1-3.003-.517 7.865 7.865 0 0 1-2.45-1.518A7.392 7.392 0 0 1 .632 17.5a9.04 9.04 0 0 1-.622-3.556c0-1.001.171-1.97.517-2.901A7.15 7.15 0 0 1 4.36 7.04a9.353 9.353 0 0 1 3.101-.55Zm.106 3.141c-.863 0-1.555.24-2.039.724-.484.485-.793 1.209-.968 2.14h5.664c0-.345-.033-.724-.139-1.07-.102-.345-.24-.655-.447-.898-.208-.277-.517-.484-.83-.656a3.212 3.212 0 0 0-1.241-.24ZM40.609 10.046a.996.996 0 0 1-.379.379c-.171.069-.346.138-.517.102-.207 0-.448-.033-.655-.139l-.692-.31c-.276-.101-.553-.207-.83-.309a3.7 3.7 0 0 0-1.07-.138c-.586 0-1 .102-1.31.346-.31.207-.484.553-.448.899 0 .276.102.517.31.691.24.208.517.379.793.484.379.139.725.277 1.14.415.414.138.862.277 1.277.415.448.171.863.346 1.278.553.414.208.793.448 1.106.76.346.31.622.692.793 1.107.208.484.31 1.037.31 1.587 0 .725-.138 1.416-.415 2.071-.276.623-.691 1.209-1.208 1.624-.586.484-1.278.83-2.002 1.07-.9.276-1.795.378-2.727.378a7.752 7.752 0 0 1-1.554-.138c-.517-.102-1-.24-1.485-.379-.448-.17-.899-.345-1.31-.586a5.669 5.669 0 0 1-1.037-.724l1.037-1.656c.102-.172.276-.346.448-.448a1.59 1.59 0 0 1 .691-.171c.244 0 .484.069.692.17l.691.38c.277.138.553.276.863.378.415.138.83.171 1.241.171.31 0 .586-.033.899-.102a1.89 1.89 0 0 0 .586-.31c.138-.101.24-.276.31-.414.069-.138.102-.31.102-.484a1.07 1.07 0 0 0-.31-.76 3.862 3.862 0 0 0-.793-.518c-.38-.138-.761-.276-1.14-.378-.415-.139-.862-.277-1.277-.415a13.955 13.955 0 0 1-1.278-.553 4.37 4.37 0 0 1-1.14-.83 3.333 3.333 0 0 1-.793-1.241 5.117 5.117 0 0 1-.31-1.762c0-.622.14-1.241.38-1.83a3.98 3.98 0 0 1 1.106-1.519 4.991 4.991 0 0 1 1.863-1.037 7.504 7.504 0 0 1 2.625-.379c.517 0 1.07.033 1.587.139.484.102.968.24 1.449.448.414.17.83.378 1.241.622.346.24.691.484 1 .793l-1.138 1.548ZM50.483 25.825a1.528 1.528 0 0 1-.484.655c-.207.138-.517.207-.931.207h-2.763c-.277 0-.484-.31-.346-.553l2.657-5.558-6.213-14.122h4.004c.277-.033.586.069.83.24.171.138.31.346.415.553l2.624 6.836c.24.586.415 1.208.553 1.83l.31-.931c.102-.31.24-.623.345-.932l2.384-6.803c.102-.24.24-.415.448-.553a1.36 1.36 0 0 1 .724-.207h3.662l-8.219 19.338ZM69.16 10.046a.996.996 0 0 1-.38.379c-.137.069-.309.138-.516.102-.208 0-.448-.033-.655-.139l-.692-.31c-.276-.101-.553-.207-.83-.309a3.7 3.7 0 0 0-1.07-.138c-.586 0-1 .102-1.31.346-.31.207-.484.553-.448.899 0 .276.102.517.31.691.24.208.516.379.793.484.379.139.724.277 1.14.415.414.138.862.277 1.277.415.448.171.863.346 1.277.553.415.208.794.448 1.14.76.345.31.622.692.793 1.107.208.484.31 1.037.31 1.587 0 .725-.139 1.416-.415 2.071-.277.623-.692 1.209-1.209 1.624-.586.484-1.277.83-2.001 1.07-.9.276-1.795.378-2.727.378a7.752 7.752 0 0 1-1.554-.138c-.517-.102-1-.24-1.485-.379-.448-.17-.899-.345-1.347-.586a5.67 5.67 0 0 1-1.037-.724l1.037-1.656c.102-.172.277-.346.448-.448a1.59 1.59 0 0 1 .692-.171c.243 0 .484.069.691.17l.692.38c.276.138.553.276.862.378.415.138.83.171 1.242.171.31 0 .586-.033.898-.102a1.89 1.89 0 0 0 .587-.31c.276-.207.414-.552.414-.898a1.07 1.07 0 0 0-.31-.76 3.862 3.862 0 0 0-.793-.518c-.378-.138-.76-.276-1.139-.378-.415-.139-.863-.277-1.277-.415a13.955 13.955 0 0 1-1.278-.553 4.37 4.37 0 0 1-1.14-.83 3.333 3.333 0 0 1-.793-1.241 5.117 5.117 0 0 1-.31-1.762c0-.622.139-1.241.38-1.83a3.98 3.98 0 0 1 1.106-1.519 4.991 4.991 0 0 1 1.863-1.037 7.504 7.504 0 0 1 2.625-.379c.517 0 1.07.033 1.587.139.484.102.968.24 1.448.415.415.17.83.378 1.242.622.346.24.691.484.968.793l-1.106 1.581ZM72.13 21.511V.241c0-.139.102-.208.207-.208h2.45c1.037 0 1.863.83 1.863 1.864v6.18c.517-.448 1.14-.83 1.762-1.14a5.184 5.184 0 0 1 2.278-.414c.761 0 1.518.138 2.21.415a4.652 4.652 0 0 1 1.623 1.208 4.98 4.98 0 0 1 1.001 1.83c.24.761.346 1.519.346 2.316v9.252a.581.581 0 0 1-.586.586h-3.349a.581.581 0 0 1-.586-.586v-9.289c0-.724-.171-1.31-.517-1.725-.346-.415-.83-.622-1.518-.622-.484 0-.968.102-1.38.31-.447.24-.898.516-1.277.862v10.428a.581.581 0 0 1-.586.586h-3.349a.584.584 0 0 1-.415-.171.55.55 0 0 1-.177-.412ZM94.951 26.101V6.457h2.796c.24 0 .484.07.724.171.207.138.346.346.415.553l.346 1.416c.276-.31.586-.622.931-.862a7.139 7.139 0 0 1 1.07-.692c.38-.207.83-.346 1.242-.448a7.044 7.044 0 0 1 1.449-.171c.76 0 1.518.171 2.176.517a5.22 5.22 0 0 1 1.725 1.518 7.593 7.593 0 0 1 1.14 2.45 13.13 13.13 0 0 1 .415 3.28c0 1.07-.139 2.14-.484 3.14a7.97 7.97 0 0 1-1.31 2.52c-.554.69-1.242 1.277-2.039 1.656a5.378 5.378 0 0 1-2.624.586c-.692.033-1.347-.102-2.002-.346a4.792 4.792 0 0 1-1.449-.899v5.212a.581.581 0 0 1-.586.586H95.57a.584.584 0 0 1-.415-.17c-.099-.096-.204-.235-.204-.373Zm7.389-16.193c-.31 0-.586.033-.899.102-.24.069-.517.138-.76.276-.241.102-.448.277-.623.448-.207.208-.415.415-.586.622v6.424c.31.346.691.623 1.106.794.415.138.83.24 1.242.24.415 0 .793-.069 1.139-.24.379-.171.691-.448.899-.794.276-.447.484-.931.622-1.415.171-.692.24-1.416.208-2.14 0-.692-.033-1.347-.172-2.003a3.723 3.723 0 0 0-.484-1.31 1.896 1.896 0 0 0-.76-.724c-.24-.211-.586-.28-.932-.28ZM28.557 12.43c0-.83-.138-1.623-.414-2.384a5.411 5.411 0 0 0-1.176-1.9c-.517-.553-1.175-.968-1.864-1.241a6.771 6.771 0 0 0-2.486-.448c-1.208 0-2.416.207-3.592.586A9.201 9.201 0 0 0 16.3 8.561a.478.478 0 0 0-.102.622l.622 1.07c.138.208.31.415.517.554.24.138.517.24.794.24.309 0 .622-.033.898-.171.24-.102.517-.24.794-.379.277-.171.586-.31.899-.415.415-.138.863-.171 1.31-.171.656 0 1.176.207 1.554.586.38.415.554 1.037.554 1.933v.655c-1.726 0-3.178.171-4.317.484-1.14.31-2.038.692-2.726 1.176-.586.378-1.07.931-1.416 1.554a3.462 3.462 0 0 0-.415 1.656c0 .622.102 1.241.31 1.795.207.516.516.931.898 1.31.415.379.9.622 1.45.794a7.068 7.068 0 0 0 1.899.276c.484 0 .932-.033 1.416-.138.415-.07.793-.208 1.208-.379a6.79 6.79 0 0 0 1.107-.622c.207-.138.378-.277.586-.448v1.416h2.555c1.037 0 1.863-.83 1.863-1.864V12.43Zm-5.765 6.388a3.852 3.852 0 0 1-1.518.31c-.553 0-.968-.103-1.241-.31-.277-.208-.415-.586-.415-1.107 0-.24.069-.517.207-.724.171-.277.415-.484.725-.586a6.374 6.374 0 0 1 1.38-.448c.724-.138 1.484-.171 2.245-.171v2.07c-.418.376-.866.722-1.383.966ZM88.738 21.784l3.523-2.038a.8.8 0 0 0 .379-.691v-8.008c0-.31-.31-.484-.586-.346l-3.487 2.038a.8.8 0 0 0-.38.692v8.011c-.035.31.31.48.55.342Z" fill="#1A2A36"/><path d="M8.294 2.246 4.6.106C4.498.032 4.327 0 4.188 0a.745.745 0 0 0-.415.102L.217 2.104c-.102.07-.207.171-.207.277 0 .138.102.24.207.31l3.971 2.314v4.728c0 .102.033.208.102.277.102.069.208.033.277 0l3.727-2.14c.24-.139.346-.346.346-.623V2.865a.764.764 0 0 0-.346-.62Z" fill="url(#a)" transform="translate(83.963)"/><path d="m8.548 2.519-4.36 2.486v4.731c0 .103.033.208.102.277.102.07.208.033.277 0l3.727-2.14c.24-.138.346-.346.346-.623V2.865a.725.725 0 0 0-.092-.346Z" fill="url(#b)" transform="translate(83.963)"/></g></svg>