<svg width="29" height="28" viewBox="0 0 29 28" fill="none" xmlns="http://www.w3.org/2000/svg">
<rect x="0.645508" width="28" height="28" rx="4" fill="#F6F7F7"/>
<path fill-rule="evenodd" clip-rule="evenodd" d="M19.9787 8.66671V16.6667L15.9787 20.6667H10.6453C9.90868 20.6667 9.31201 20.07 9.31201 19.3334V8.66671C9.31201 7.93004 9.90868 7.33337 10.6453 7.33337H18.6453C19.382 7.33337 19.9787 7.93004 19.9787 8.66671ZM11.9787 11.3334H17.312V10H11.9787V11.3334ZM11.9787 12.6667H17.312V14H11.9787V12.6667ZM18.6453 8.66671V15.3334H15.9787C15.242 15.3334 14.6453 15.93 14.6453 16.6667V19.3334H10.6453V8.66671H18.6453Z" fill="black"/>
<mask id="mask0_887_116920" style="mask-type:alpha" maskUnits="userSpaceOnUse" x="9" y="7" width="11" height="14">
<path fill-rule="evenodd" clip-rule="evenodd" d="M19.9787 8.66671V16.6667L15.9787 20.6667H10.6453C9.90868 20.6667 9.31201 20.07 9.31201 19.3334V8.66671C9.31201 7.93004 9.90868 7.33337 10.6453 7.33337H18.6453C19.382 7.33337 19.9787 7.93004 19.9787 8.66671ZM11.9787 11.3334H17.312V10H11.9787V11.3334ZM11.9787 12.6667H17.312V14H11.9787V12.6667ZM18.6453 8.66671V15.3334H15.9787C15.242 15.3334 14.6453 15.93 14.6453 16.6667V19.3334H10.6453V8.66671H18.6453Z" fill="white"/>
</mask>
<g mask="url(#mask0_887_116920)">
<rect x="6.64551" y="6" width="16" height="16" fill="#8C8F94"/>
</g>
</svg>
