<?xml version="1.0" encoding="UTF-8" standalone="no"?>
<svg width="780px" height="501px" viewBox="0 0 780 501" version="1.1" xmlns="http://www.w3.org/2000/svg" xmlns:xlink="http://www.w3.org/1999/xlink" xmlns:sketch="http://www.bohemiancoding.com/sketch/ns">
    <!-- Generator: Sketch 3.3.2 (12043) - http://www.bohemiancoding.com/sketch -->
    <title>discover</title>
    <desc>Created with Sketch.</desc>
    <defs></defs>
    <g id="Page-1" stroke="none" stroke-width="1" fill="none" fill-rule="evenodd" sketch:type="MSPage">
        <g id="discover" sketch:type="MSLayerGroup">
            <path d="M54.992188,0 C24.626565,0 -4.7369516e-15,24.629374 0,55.003906 L0,445.99609 C0,476.37636 24.618673,501 54.992188,501 L725.00781,501 C755.37344,501 780,476.37062 780,445.99609 L780,268.55664 L780,55.003906 C780,24.623637 755.38133,-4.7369516e-15 725.00781,0 L54.992188,0 L54.992188,0 Z" id="rectangle" fill="#4D4D4D" sketch:type="MSShapeGroup"></path>
            <path d="M415.13086,161.21289 C446.07103,161.21289 471.15234,184.79287 471.15234,213.92188 L471.15234,213.95508 C471.15234,243.08408 446.07103,266.69727 415.13086,266.69727 C384.19069,266.69727 359.10938,243.08408 359.10938,213.95508 L359.10938,213.92188 C359.10938,184.79287 384.19069,161.21289 415.13086,161.21289 L415.13086,161.21289 Z M327.15234,161.89258 C335.9889,161.89258 343.40028,163.67723 352.41992,167.98242 L352.41992,190.73438 C343.87628,182.87089 336.46483,179.58008 326.66406,179.58008 C307.4002,179.58008 292.25,194.59455 292.25,213.63086 C292.25,233.70517 306.93133,247.82617 327.61914,247.82617 C336.93171,247.82617 344.20582,244.70584 352.41992,236.96875 L352.41992,259.73242 C343.07888,263.87291 335.50876,265.50781 326.66406,265.50781 C295.38621,265.50781 271.08203,242.91198 271.08203,213.77148 C271.08203,184.94507 296.03316,161.89258 327.15234,161.89258 L327.15234,161.89258 Z M230.03906,162.51953 C241.58477,162.51953 252.14952,166.24004 260.98242,173.51367 L250.23438,186.76172 C244.88362,181.11594 239.82337,178.73438 233.66992,178.73438 C224.81668,178.73437 218.36914,183.47936 218.36914,189.72266 C218.36914,195.07734 221.98883,197.91138 234.31445,202.20508 C257.67927,210.24859 264.60352,217.3809 264.60352,233.13086 C264.60352,252.32421 249.62806,265.68359 228.2832,265.68359 C212.65323,265.68359 201.29008,259.88895 191.82617,246.8125 L205.09375,234.78125 C209.82489,243.39164 217.71615,248.00391 227.51367,248.00391 C236.67693,248.00391 243.46094,242.05155 243.46094,234.01953 C243.46094,229.85606 241.40612,226.28585 237.30273,223.76172 C235.2368,222.56668 231.1447,220.78491 223.10352,218.11523 C203.81198,211.57701 197.19336,204.58834 197.19336,190.92969 C197.19336,174.70478 211.40702,162.51953 230.03906,162.51953 L230.03906,162.51953 Z M464.76172,164.24805 L487.19922,164.24805 L515.2832,230.83984 L543.72852,164.24805 L565.99609,164.24805 L520.50195,265.93359 L509.44922,265.93359 L464.76172,164.24805 L464.76172,164.24805 Z M67.414062,164.40039 L97.564453,164.40039 C130.87609,164.40039 154.09766,184.78179 154.09766,214.04102 C154.09766,228.63041 146.99364,242.73654 134.98047,252.09766 C124.87172,259.99945 113.35396,263.54297 97.40625,263.54297 L67.414062,263.54297 L67.414062,164.40039 L67.414062,164.40039 Z M163.54883,164.40039 L184.08984,164.40039 L184.08984,263.54297 L163.54883,263.54297 L163.54883,164.40039 L163.54883,164.40039 Z M575.2832,164.40039 L633.53516,164.40039 L633.53516,181.19922 L595.80859,181.19922 L595.80859,203.20508 L632.14453,203.20508 L632.14453,219.99609 L595.80859,219.99609 L595.80859,246.75781 L633.53516,246.75781 L633.53516,263.54297 L575.2832,263.54297 L575.2832,164.40039 L575.2832,164.40039 Z M647.14062,164.40039 L677.5957,164.40039 C701.28599,164.40039 714.86133,175.11052 714.86133,193.67188 C714.86133,208.85113 706.34712,218.81273 690.875,221.77734 L724.02344,263.54297 L698.76367,263.54297 L670.33398,223.71484 L667.65625,223.71484 L667.65625,263.54297 L647.14062,263.54297 L647.14062,164.40039 L647.14062,164.40039 Z M667.65625,180.01562 L667.65625,210.04102 L673.6582,210.04102 C686.77472,210.04102 693.72656,204.67918 693.72656,194.71289 C693.72656,185.06451 686.77347,180.01562 673.98242,180.01562 L667.65625,180.01562 L667.65625,180.01562 Z M87.939453,181.19922 L87.939453,246.75781 L93.451172,246.75781 C106.72432,246.75781 115.10685,244.36382 121.56055,238.87891 C128.66438,232.92288 132.9375,223.41276 132.9375,213.89844 C132.9375,204.39943 128.66438,195.17283 121.56055,189.2168 C114.77608,183.43696 106.72432,181.19922 93.451172,181.19922 L87.939453,181.19922 L87.939453,181.19922 Z" fill="#FFFFFF" sketch:type="MSShapeGroup"></path>
            <path d="M779.981917,288.361069 C753.932037,306.691919 558.904907,437.700579 221.228007,500.98412 L724.989727,500.98412 C755.355357,500.98412 779.981917,476.35474 779.981917,445.980209 L779.981917,288.361069 L779.981917,288.361069 Z" id="Shape-9" fill="#F47216" sketch:type="MSShapeGroup"></path>
        </g>
    </g>
</svg>