<?xml version="1.0" encoding="utf-8"?>
<!-- Generator: Adobe Illustrator 19.1.0, SVG Export Plug-In . SVG Version: 6.00 Build 0)  -->
<svg version="1.1" id="Layer_1" xmlns:sketch="http://www.bohemiancoding.com/sketch/ns"
	 xmlns="http://www.w3.org/2000/svg" xmlns:xlink="http://www.w3.org/1999/xlink" x="0px" y="0px" viewBox="-45 62.3 750 471"
	 style="enable-background:new -45 62.3 750 471;" xml:space="preserve">
<style type="text/css">
	.st0{fill:#283A97;}
	.st1{fill:#EE4799;}
	.st2{fill:none;stroke:#EE4799;stroke-width:1.0006;stroke-miterlimit:2.6131;}
	.st3{fill:#FFFFFF;}
</style>
<title>Slice 1</title>
<desc>Created with Sketch.</desc>
<path id="Rectangle-1" sketch:type="MSShapeGroup" class="st0" d="M-5,62.3h670c22.1,0,40,17.9,40,40v391c0,22.1-17.9,40-40,40H-5
	c-22.1,0-40-17.9-40-40v-391C-45,80.2-27.1,62.3-5,62.3z"/>
<g>
	<polygon class="st0" points="160.2,477.3 500.2,477.3 500.2,118.3 160.2,118.3 	"/>
	<polygon class="st1" points="500.3,127.6 490.2,144.7 159.7,137.1 159.7,135.4 	"/>
	<polygon class="st1" points="489.1,146.9 478.7,163.9 165.5,156 164.7,154.8 	"/>
	<polygon class="st1" points="477.4,166.3 467.2,183.2 177,175.3 176.3,174.2 	"/>
	<polygon class="st1" points="465.7,185.6 455.8,202.6 189.2,194.7 188.4,193.5 	"/>
	<polygon class="st1" points="454.5,204.8 444.4,221.9 200.7,214 199.9,212.7 	"/>
	<polygon class="st1" points="442.8,224.3 432.7,241.2 212.7,233.3 212,232.2 	"/>
	<polygon class="st1" points="431.3,243.5 421.2,260.6 225.1,252.7 224.3,251.4 	"/>
	<polygon class="st1" points="419.9,262.8 409.7,279.9 236.6,272 235.8,270.7 	"/>
	<polygon class="st1" points="408.6,282.1 398.1,299.1 248.1,291.2 247.3,290.1 	"/>
	<polygon class="st1" points="397,301.5 386.8,318.5 260.3,310.5 259.5,309.4 	"/>
	<polygon class="st1" points="385.5,320.8 375.2,337.8 272.3,329.9 271.5,328.7 	"/>
	<polygon class="st1" points="374,340 363.7,357.1 284.3,349.2 283.5,347.9 	"/>
	<polygon class="st1" points="362.5,359.5 352.3,376.3 296,368.5 295.2,367.3 	"/>
	<polygon class="st1" points="351.1,378.7 340.7,395.8 307.5,387.9 306.7,386.6 	"/>
	<polygon class="st1" points="339.1,398.6 328.7,416.3 317.6,407.1 317.3,405.9 	"/>
	<path class="st1" d="M159.7,406.5h340.6H159.7z"/>
	<line class="st2" x1="159.7" y1="406.5" x2="500.3" y2="406.5"/>
	<path class="st1" d="M159.7,387.2h340.6H159.7z"/>
	<line class="st2" x1="159.7" y1="387.2" x2="500.3" y2="387.2"/>
	<path class="st1" d="M159.7,368h340.6H159.7z"/>
	<line class="st2" x1="159.7" y1="368" x2="500.3" y2="368"/>
	<path class="st1" d="M159.7,348.6h340.6H159.7z"/>
	<line class="st2" x1="159.7" y1="348.6" x2="500.3" y2="348.6"/>
	<path class="st1" d="M159.7,329.3h340.6H159.7z"/>
	<line class="st2" x1="159.7" y1="329.3" x2="500.3" y2="329.3"/>
	<path class="st1" d="M159.7,310h340.6H159.7z"/>
	<line class="st2" x1="159.7" y1="310" x2="500.3" y2="310"/>
	<path class="st1" d="M159.7,290.8h340.6H159.7z"/>
	<line class="st2" x1="159.7" y1="290.8" x2="500.3" y2="290.8"/>
	<path class="st1" d="M159.7,271.3h340.6H159.7z"/>
	<line class="st2" x1="159.7" y1="271.3" x2="500.3" y2="271.3"/>
	<path class="st1" d="M159.7,252.1h340.6H159.7z"/>
	<line class="st2" x1="159.7" y1="252.1" x2="500.3" y2="252.1"/>
	<path class="st1" d="M159.7,232.8h340.6H159.7z"/>
	<line class="st2" x1="159.7" y1="232.8" x2="500.3" y2="232.8"/>
	<path class="st1" d="M159.7,213.5h340.6H159.7z"/>
	<line class="st2" x1="159.7" y1="213.5" x2="500.3" y2="213.5"/>
	<path class="st1" d="M159.7,194.1h340.6H159.7z"/>
	<line class="st2" x1="159.7" y1="194.1" x2="500.3" y2="194.1"/>
	<path class="st1" d="M159.7,174.8h340.6H159.7z"/>
	<line class="st2" x1="159.7" y1="174.8" x2="500.3" y2="174.8"/>
	<path class="st1" d="M159.7,155.6h340.6H159.7z"/>
	<line class="st2" x1="159.7" y1="155.6" x2="500.3" y2="155.6"/>
	<path class="st3" d="M364.5,427.4v37.4h25.4l3.2-7.1c-4.6,0.2-7.9,0.3-12.6,0.3c-1.4,0-2.7,0-5.4,0v-9.3h0.6c2.7,0,5.7,0.2,8.8,0.3
		l3.2-7.3c-1.6,0.2-1.9,0.2-4.1,0.2c-3.9,0.2-4.9,0.2-8.5,0.2v-7.7h1.3c3.2,0,7.3,0.2,12.8,0.3l3-7.3L364.5,427.4L364.5,427.4z
		 M267.4,427.4l2.7,4l-14.4,33.5h10.4l2.4-5.7h14.8l2.4,5.7h10.9l-16.4-37.4L267.4,427.4L267.4,427.4z M280.3,452.3h-9l4.4-10.7
		L280.3,452.3L280.3,452.3z M221.4,425h-10.6v39.8h25.6l3-7.1c-3.3,0.2-7.6,0.3-12.2,0.3c-1.6,0-2.8,0-5.8,0L221.4,425L221.4,425z
		 M339.9,429.3c-4.1-1.9-7.7-2.7-11.4-2.7c-8.1,0-13.6,4.4-13.6,10.7c0,4,1.7,6.6,6.3,9.6l5.4,3.6c2.5,1.7,3.5,3,3.5,4.9
		c0,2.4-2.2,3.8-5.5,3.8c-2.8,0-4.6-0.8-7.7-3.3l-2.8,6.6c4.7,2.5,7.1,3.2,11.2,3.2c9.3,0,15.2-4.6,15.2-11.7
		c0-4.1-1.9-6.8-6.6-10.1l-5.5-4c-2.4-1.6-3-2.4-3-3.6c0-2.1,1.6-3.3,4.3-3.3c2.4,0,4.4,0.8,7.6,2.8L339.9,429.3L339.9,429.3z
		 M415.5,427.4v37.4h10.6v-30.5h2.1h0.2c4.7,0,7.3,1.9,7.3,5.4c0,3.6-3,6-7.7,6c-0.5,0-0.8,0-1.6-0.2l12.8,19.3h11.7l-10.6-15.5
		c4.6-2.7,6.5-5.7,6.5-10.3c0-7.9-5.5-11.7-16.7-11.7L415.5,427.4L415.5,427.4z"/>
</g>
</svg>
