<?xml version="1.0" encoding="UTF-8" standalone="no"?>
<svg width="750px" height="471px" viewBox="0 0 750 471" version="1.1" xmlns="http://www.w3.org/2000/svg" xmlns:xlink="http://www.w3.org/1999/xlink" xmlns:sketch="http://www.bohemiancoding.com/sketch/ns">
    <!-- Generator: Sketch 3.3.1 (12005) - http://www.bohemiancoding.com/sketch -->
    <title>Slice 1</title>
    <desc>Created with Sketch.</desc>
    <defs></defs>
    <g id="Page-1" stroke="none" stroke-width="1" fill="none" fill-rule="evenodd" sketch:type="MSPage">
        <g id="mastercard" sketch:type="MSLayerGroup">
            <rect id="Rectangle-1" fill="#000000" sketch:type="MSShapeGroup" x="0" y="0" width="750" height="471" rx="40"></rect>
            <path d="M434.008334,235.5 C434.008334,334.641668 353.6375,415.004169 254.499999,415.004169 C155.362498,415.004169 74.9999973,334.641668 74.9999973,235.5 C74.9999973,136.366666 155.362498,55.9958324 254.499999,55.9958324 C353.6375,55.9958324 434.008334,136.366666 434.008334,235.5" id="Fill-1" fill="#D9222A" sketch:type="MSShapeGroup"></path>
            <path d="M495.491667,55.9958324 C449.1125,55.9958324 406.85,73.5916658 374.991666,102.462499 C368.504166,108.345833 362.445833,114.7 356.866666,121.458333 L393.133333,121.458333 C398.091667,127.4875 402.658333,133.829166 406.816667,140.470833 L343.183333,140.470833 C339.370833,146.575 335.908333,152.916666 332.841666,159.479167 L417.154167,159.479167 C420.033333,165.6375 422.575,171.975 424.754167,178.483333 L325.241666,178.483333 C323.166666,184.675 321.420833,191.0125 320.024999,197.491667 L429.966667,197.491667 C432.604167,209.741667 434.008334,222.458334 434.008334,235.5 C434.008334,255.433334 430.754167,274.612501 424.754167,292.520834 L325.241666,292.520834 C327.416666,299.033334 329.958333,305.375001 332.837499,311.529168 L417.154167,311.529168 C414.079167,318.091668 410.625,324.433335 406.808333,330.541668 L343.183333,330.541668 C347.3375,337.170835 351.9125,343.520835 356.866666,349.537501 L393.125,349.537501 C387.554167,356.308335 381.491666,362.670835 374.995833,368.550002 C406.854167,397.416668 449.1125,415.004169 495.491667,415.004169 C594.629168,415.004169 675.000002,334.641668 675.000002,235.5 C675.000002,136.370833 594.629168,55.9958324 495.491667,55.9958324" id="Fill-2" fill="#EE9F2D" sketch:type="MSShapeGroup"></path>
            <path d="M651.075002,335.558335 C651.075002,332.358335 653.666669,329.758335 656.870835,329.758335 C660.075002,329.758335 662.666669,332.358335 662.666669,335.558335 C662.666669,338.758335 660.075002,341.358335 656.870835,341.358335 C653.666669,341.358335 651.075002,338.758335 651.075002,335.558335 L651.075002,335.558335 L651.075002,335.558335 Z M656.870835,339.966668 C659.304169,339.966668 661.279169,337.991668 661.279169,335.558335 C661.279169,333.120835 659.304169,331.154168 656.870835,331.154168 C654.433335,331.154168 652.466669,333.120835 652.466669,335.558335 C652.466669,337.991668 654.433335,339.966668 656.870835,339.966668 L656.870835,339.966668 L656.870835,339.966668 Z M656.087502,338.108335 L654.900002,338.108335 L654.900002,333.012501 L657.050002,333.012501 C657.500002,333.012501 657.958335,333.012501 658.354169,333.266668 C658.766669,333.545835 659.000002,334.037501 659.000002,334.545835 C659.000002,335.116668 658.662502,335.650001 658.116669,335.858335 L659.054169,338.108335 L657.737502,338.108335 L656.958335,336.091668 L656.087502,336.091668 L656.087502,338.108335 L656.087502,338.108335 Z M656.087502,335.216668 L656.745835,335.216668 C656.991669,335.216668 657.250002,335.237501 657.470835,335.116668 C657.666669,334.991668 657.766669,334.758335 657.766669,334.533335 C657.766669,334.337501 657.645835,334.112501 657.479169,334.016668 C657.270835,333.887501 656.941669,333.916668 656.720835,333.916668 L656.087502,333.916668 L656.087502,335.216668 L656.087502,335.216668 Z" id="Fill-3" fill="#000000" sketch:type="MSShapeGroup"></path>
            <path d="M212.587498,255.154167 C210.541665,254.916667 209.641665,254.854167 208.237498,254.854167 C197.191665,254.854167 191.599998,258.641667 191.599998,266.120834 C191.599998,270.733334 194.329165,273.666667 198.587498,273.666667 C206.524998,273.666667 212.245832,266.108334 212.587498,255.154167 L212.587498,255.154167 L212.587498,255.154167 Z M226.758332,288.150001 L210.612498,288.150001 L210.983332,280.475001 C206.058332,286.541668 199.487498,289.425001 190.558332,289.425001 C179.995832,289.425001 172.754165,281.175001 172.754165,269.195834 C172.754165,251.170834 185.349998,240.654167 206.970832,240.654167 C209.179165,240.654167 212.012498,240.854167 214.912498,241.225001 C215.516665,238.783334 215.674998,237.7375 215.674998,236.425 C215.674998,231.516667 212.279165,229.6875 203.174998,229.6875 C193.641665,229.579167 185.779165,231.958334 182.549998,233.020834 C182.754165,231.791667 185.249998,216.3625 185.249998,216.3625 C194.962498,213.516667 201.366665,212.445834 208.574998,212.445834 C225.308332,212.445834 234.170832,219.958334 234.154165,234.158334 C234.187499,237.9625 233.558332,242.658334 232.574999,248.829167 C230.883332,259.558334 227.254165,282.545834 226.758332,288.150001 L226.758332,288.150001 L226.758332,288.150001 Z" id="Fill-4" fill="#000000" sketch:type="MSShapeGroup"></path>
            <path d="M164.599998,288.150001 L145.112498,288.150001 L156.274998,218.154167 L131.349998,288.150001 L118.070831,288.150001 L116.429164,218.554167 L104.695831,288.150001 L86.4541641,288.150001 L101.691664,197.095833 L129.712498,197.095833 L131.412498,248.062501 L148.504165,197.095833 L179.670832,197.095833 L164.599998,288.150001" id="Fill-5" fill="#000000" sketch:type="MSShapeGroup"></path>
            <path d="M519.575001,255.154167 C517.537501,254.916667 516.633334,254.854167 515.233334,254.854167 C504.191667,254.854167 498.600001,258.641667 498.600001,266.120834 C498.600001,270.733334 501.325001,273.666667 505.583334,273.666667 C513.520834,273.666667 519.245834,266.108334 519.575001,255.154167 L519.575001,255.154167 L519.575001,255.154167 Z M533.758334,288.150001 L517.612501,288.150001 L517.979168,280.475001 C513.054168,286.541668 506.479167,289.425001 497.558334,289.425001 C486.991667,289.425001 479.758334,281.175001 479.758334,269.195834 C479.758334,251.170834 492.345834,240.654167 513.970834,240.654167 C516.179168,240.654167 519.008334,240.854167 521.904168,241.225001 C522.508334,238.783334 522.666668,237.7375 522.666668,236.425 C522.666668,231.516667 519.275001,229.6875 510.170834,229.6875 C500.637501,229.579167 492.783334,231.958334 489.541667,233.020834 C489.745834,231.791667 492.250001,216.3625 492.250001,216.3625 C501.962501,213.516667 508.362501,212.445834 515.562501,212.445834 C532.304168,212.445834 541.166668,219.958334 541.150001,234.158334 C541.183334,237.9625 540.554168,242.658334 539.570834,248.829167 C537.887501,259.558334 534.250001,282.545834 533.758334,288.150001 L533.758334,288.150001 L533.758334,288.150001 Z" id="Fill-6" fill="#000000" sketch:type="MSShapeGroup"></path>
            <path d="M313.366666,287.025001 C308.033333,288.704168 303.874999,289.425001 299.366666,289.425001 C289.404166,289.425001 283.966666,283.700001 283.966666,273.158334 C283.824999,269.887501 285.399999,261.279167 286.637499,253.420834 C287.762499,246.504167 295.087499,202.891667 295.087499,202.891667 L314.458333,202.891667 L312.195833,214.1 L323.895833,214.1 L321.254166,231.895834 L309.512499,231.895834 C307.262499,245.979167 304.058333,263.520834 304.020833,265.845834 C304.020833,269.662501 306.058333,271.329167 310.691666,271.329167 C312.912499,271.329167 314.633333,271.104167 315.945833,270.629167 L313.366666,287.025001" id="Fill-7" fill="#000000" sketch:type="MSShapeGroup"></path>
            <path d="M372.758333,286.425001 C366.104166,288.458334 359.683333,289.441668 352.879166,289.425001 C331.195833,289.404168 319.891666,278.079167 319.891666,256.391667 C319.891666,231.079167 334.270833,212.445834 353.791666,212.445834 C369.7625,212.445834 379.9625,222.879167 379.9625,239.241667 C379.9625,244.670834 379.2625,249.970834 377.575,257.454167 L338.999999,257.454167 C337.695833,268.195834 344.570833,272.670834 355.8375,272.670834 C362.770833,272.670834 369.025,271.241667 375.979166,268.008334 L372.758333,286.425001 L372.758333,286.425001 Z M361.870833,242.525001 C361.979166,240.983334 363.925,229.308334 352.858333,229.308334 C346.6875,229.308334 342.274999,234.0125 340.479166,242.525001 L361.870833,242.525001 L361.870833,242.525001 Z" id="Fill-8" fill="#000000" sketch:type="MSShapeGroup"></path>
            <path d="M238.445832,237.508334 C238.445832,246.875001 242.987499,253.333334 253.287499,258.183334 C261.179166,261.891667 262.399999,262.991667 262.399999,266.354167 C262.399999,270.970834 258.920832,273.054167 251.208332,273.054167 C245.395832,273.054167 239.987499,272.145834 233.749999,270.133334 C233.749999,270.133334 231.187499,286.454168 231.070832,287.233334 C235.499999,288.200001 239.449999,289.095834 251.349999,289.425001 C271.912499,289.425001 281.408332,281.595834 281.408332,264.675001 C281.408332,254.500001 277.433332,248.529167 267.670832,244.041667 C259.499999,240.291667 258.562499,239.454167 258.562499,235.995834 C258.562499,231.991667 261.799999,229.95 268.099999,229.95 C271.924999,229.95 277.149999,230.358334 282.099999,231.0625 L284.874999,213.8875 C279.829166,213.0875 272.179166,212.445834 267.724999,212.445834 C245.924999,212.445834 238.379165,223.833334 238.445832,237.508334" id="Fill-9" fill="#000000" sketch:type="MSShapeGroup"></path>
            <path d="M467.533334,214.391667 C472.945834,214.391667 477.991667,215.8125 484.945834,219.3125 L488.133334,199.55 C485.279167,198.429167 475.229167,191.85 466.716667,191.85 C453.675,191.85 442.65,198.320834 434.895834,209 C423.5875,205.254167 418.9375,212.825 413.2375,220.366667 L408.175,221.545834 C408.558333,219.0625 408.904167,216.595834 408.7875,214.1 L390.891667,214.1 C388.445833,237.016667 384.1125,260.229167 380.720833,283.175001 L379.8375,288.150001 L399.333333,288.150001 C402.5875,267.008334 404.370833,253.470834 405.454167,244.308334 L412.795833,240.225001 C413.891667,236.145834 417.325,234.766667 424.2125,234.933334 C423.3125,239.766667 422.829167,244.850001 422.829167,250.116667 C422.829167,274.341667 435.9,289.425001 456.879167,289.425001 C462.283334,289.425001 466.920834,288.712501 474.100001,286.766668 L477.529167,266.008334 C471.070834,269.187501 465.770834,270.683334 460.970834,270.683334 C449.641667,270.683334 442.7875,262.320834 442.7875,248.500001 C442.7875,228.45 452.983334,214.391667 467.533334,214.391667" id="Fill-10" fill="#000000" sketch:type="MSShapeGroup"></path>
            <path d="M170.208331,282.741668 L150.716665,282.741668 L161.887498,212.754167 L136.962498,282.741668 L123.679164,282.741668 L122.037498,213.154167 L110.304164,282.741668 L92.0624975,282.741668 L107.299998,191.7 L135.320831,191.7 L136.108331,248.062501 L155.012498,191.7 L185.279165,191.7 L170.208331,282.741668" id="Fill-12" fill="#FFFFFF" sketch:type="MSShapeGroup"></path>
            <path d="M632.520835,197.095833 L628.200002,223.404167 C622.870835,216.391667 617.145835,211.316667 609.587502,211.316667 C599.754168,211.316667 590.804168,218.770834 584.945835,229.741667 C576.787501,228.05 568.350001,225.179167 568.350001,225.179167 L568.345835,225.245834 C569.004168,219.1125 569.266668,215.370834 569.208335,214.1 L551.308334,214.1 C548.870834,237.016667 544.537501,260.229167 541.150001,283.175001 L540.258334,288.150001 L559.750001,288.150001 C562.383335,271.054167 564.400001,256.858334 565.883335,245.600001 C572.541668,239.583334 575.875001,234.333334 582.604168,234.683334 C579.625001,241.887501 577.879168,250.187501 577.879168,258.700001 C577.879168,277.212501 587.245835,289.425001 601.412502,289.425001 C608.554168,289.425001 614.033335,286.962501 619.379168,281.254168 L618.466668,288.137501 L636.900002,288.137501 L651.741669,197.095833 L632.520835,197.095833 L632.520835,197.095833 Z M608.150002,271.037501 C601.516668,271.037501 598.166668,266.129167 598.166668,256.441667 C598.166668,241.887501 604.437502,231.566667 613.279168,231.566667 C619.975002,231.566667 623.600002,236.670834 623.600002,246.075001 C623.600002,260.754167 617.229168,271.037501 608.150002,271.037501 L608.150002,271.037501 L608.150002,271.037501 Z" id="Fill-11" fill="#000000" sketch:type="MSShapeGroup"></path>
            <path d="M218.191665,249.758334 C216.149998,249.520834 215.245832,249.458334 213.845832,249.458334 C202.799998,249.458334 197.212498,253.245834 197.212498,260.725001 C197.212498,265.329167 199.941665,268.270834 204.191665,268.270834 C212.137498,268.270834 217.858332,260.712501 218.191665,249.758334 L218.191665,249.758334 L218.191665,249.758334 Z M232.370832,282.741668 L216.224998,282.741668 L216.591665,275.079167 C211.670832,281.133334 205.091665,284.029168 196.170832,284.029168 C185.604165,284.029168 178.366665,275.779167 178.366665,263.800001 C178.366665,245.766667 190.958332,235.258334 212.583332,235.258334 C214.791665,235.258334 217.624998,235.458334 220.520832,235.829167 C221.124999,233.3875 221.283332,232.341667 221.283332,231.020834 C221.283332,226.1125 217.891665,224.291667 208.787498,224.291667 C199.249998,224.183334 191.391665,226.5625 188.158332,227.6125 C188.362498,226.3875 190.858332,210.975 190.858332,210.975 C200.566665,208.116667 206.979165,207.045834 214.179165,207.045834 C230.916665,207.045834 239.783332,214.5625 239.766665,228.75 C239.795832,232.570834 239.162499,237.2625 238.183332,243.425001 C236.495832,254.150001 232.862499,277.150001 232.370832,282.741668 L232.370832,282.741668 L232.370832,282.741668 Z" id="Fill-13" fill="#FFFFFF" sketch:type="MSShapeGroup"></path>
            <path d="M493.745834,194.15 L490.554167,213.916667 C483.604167,210.420834 478.554167,208.995834 473.145834,208.995834 C458.595834,208.995834 448.395834,223.054167 448.395834,243.104167 C448.395834,256.925001 455.254167,265.283334 466.579167,265.283334 C471.379167,265.283334 476.675001,263.791667 483.133334,260.608334 L479.712501,281.358334 C472.529167,283.316668 467.895834,284.029168 462.4875,284.029168 C441.5125,284.029168 428.4375,268.945834 428.4375,244.720834 C428.4375,212.170834 446.495834,189.420833 472.325001,189.420833 C480.833334,189.420833 490.887501,193.029167 493.745834,194.15" id="Fill-14" fill="#FFFFFF" sketch:type="MSShapeGroup"></path>
            <path d="M525.187501,249.758334 C523.145834,249.520834 522.245834,249.458334 520.841668,249.458334 C509.800001,249.458334 504.208334,253.245834 504.208334,260.725001 C504.208334,265.329167 506.937501,268.270834 511.191668,268.270834 C519.129168,268.270834 524.854168,260.712501 525.187501,249.758334 L525.187501,249.758334 L525.187501,249.758334 Z M539.366668,282.741668 L523.216668,282.741668 L523.587501,275.079167 C518.662501,281.133334 512.087501,284.029168 503.166667,284.029168 C492.604167,284.029168 485.362501,275.779167 485.362501,263.800001 C485.362501,245.766667 497.958334,235.258334 519.575001,235.258334 C521.787501,235.258334 524.616668,235.458334 527.516668,235.829167 C528.116668,233.3875 528.279168,232.341667 528.279168,231.020834 C528.279168,226.1125 524.887501,224.291667 515.783334,224.291667 C506.250001,224.183334 498.387501,226.5625 495.154167,227.6125 C495.358334,226.3875 497.858334,210.975 497.858334,210.975 C507.566667,208.116667 513.975001,207.045834 521.175001,207.045834 C537.916668,207.045834 546.779168,214.5625 546.758334,228.75 C546.791668,232.570834 546.162501,237.2625 545.179168,243.425001 C543.495834,254.150001 539.854168,277.150001 539.366668,282.741668 L539.366668,282.741668 L539.366668,282.741668 Z" id="Fill-15" fill="#FFFFFF" sketch:type="MSShapeGroup"></path>
            <path d="M318.974999,281.620834 C313.637499,283.300001 309.479166,284.029168 304.974999,284.029168 C295.012499,284.029168 289.574999,278.304167 289.574999,267.762501 C289.437499,264.483334 291.012499,255.883334 292.249999,248.025001 C293.370832,241.100001 300.695832,197.491667 300.695832,197.491667 L320.062499,197.491667 L317.804166,208.704167 L327.745833,208.704167 L325.099999,226.491667 L315.124999,226.491667 C312.874999,240.583334 309.662499,258.112501 309.629166,260.441667 C309.629166,264.270834 311.670833,265.925001 316.299999,265.925001 C318.520833,265.925001 320.237499,265.708334 321.554166,265.233334 L318.974999,281.620834" id="Fill-16" fill="#FFFFFF" sketch:type="MSShapeGroup"></path>
            <path d="M378.366666,281.029167 C371.716666,283.062501 365.2875,284.041668 358.4875,284.029168 C336.804166,284.008334 325.499999,272.683334 325.499999,250.995834 C325.499999,225.675 339.879166,207.045834 359.4,207.045834 C375.370833,207.045834 385.570833,217.475 385.570833,233.845834 C385.570833,239.279167 384.870833,244.579167 383.1875,252.058334 L344.6125,252.058334 C343.308333,262.800001 350.183333,267.279167 361.45,267.279167 C368.379166,267.279167 374.6375,265.845834 381.5875,262.604167 L378.366666,281.029167 L378.366666,281.029167 Z M367.475,237.116667 C367.591666,235.579167 369.533333,223.9 358.4625,223.9 C352.295833,223.9 347.883333,228.616667 346.0875,237.116667 L367.475,237.116667 L367.475,237.116667 Z" id="Fill-17" fill="#FFFFFF" sketch:type="MSShapeGroup"></path>
            <path d="M244.054165,232.1125 C244.054165,241.479167 248.595832,247.929167 258.895832,252.787501 C266.787499,256.495834 268.008332,257.600001 268.008332,260.958334 C268.008332,265.575001 264.524999,267.658334 256.820832,267.658334 C251.004165,267.658334 245.595832,266.750001 239.354165,264.737501 C239.354165,264.737501 236.799999,281.058334 236.683332,281.837501 C241.104165,282.804168 245.058332,283.687501 256.958332,284.029168 C277.524999,284.029168 287.016666,276.200001 287.016666,259.283334 C287.016666,249.104167 283.045832,243.133334 273.279166,238.645834 C265.112499,234.8875 264.166666,234.0625 264.166666,230.6 C264.166666,226.6 267.412499,224.541667 273.708332,224.541667 C277.529166,224.541667 282.754166,224.9625 287.712499,225.666667 L290.483332,208.4875 C285.441666,207.6875 277.791666,207.045834 273.337499,207.045834 C251.533332,207.045834 243.991665,218.425 244.054165,232.1125" id="Fill-18" fill="#FFFFFF" sketch:type="MSShapeGroup"></path>
            <path d="M642.508335,282.741668 L624.070835,282.741668 L624.987502,275.850001 C619.641668,281.566668 614.162502,284.029168 607.020835,284.029168 C592.854168,284.029168 583.491668,271.816667 583.491668,253.304167 C583.491668,228.675 598.012502,207.9125 615.200002,207.9125 C622.758335,207.9125 628.479168,211 633.804168,218.008334 L638.129169,191.7 L657.350002,191.7 L642.508335,282.741668 L642.508335,282.741668 Z M613.762502,265.633334 C622.837502,265.633334 629.212502,255.350001 629.212502,240.679167 C629.212502,231.275 625.583335,226.170834 618.887502,226.170834 C610.050002,226.170834 603.770835,236.4875 603.770835,251.045834 C603.770835,260.733334 607.129168,265.633334 613.762502,265.633334 L613.762502,265.633334 L613.762502,265.633334 Z" id="Fill-19" fill="#FFFFFF" sketch:type="MSShapeGroup"></path>
            <path d="M556.920835,208.704167 C554.479168,231.620834 550.145834,254.833334 546.758334,277.766667 L545.866668,282.741668 L565.358335,282.741668 C572.329168,237.466667 574.016668,228.625 584.945835,229.733334 C586.687501,220.466667 589.929168,212.35 592.345835,208.254167 C584.183335,206.554167 579.625001,211.166667 573.658335,219.929167 C574.129168,216.141667 574.991668,212.4625 574.820835,208.704167 L556.920835,208.704167" id="Fill-20" fill="#FFFFFF" sketch:type="MSShapeGroup"></path>
            <path d="M396.5,208.704167 C394.054167,231.620834 389.720833,254.833334 386.333333,277.766667 L385.445833,282.741668 L404.945833,282.741668 C411.908333,237.466667 413.591667,228.625 424.516667,229.733334 C426.266667,220.466667 429.508334,212.35 431.916667,208.254167 C423.7625,206.554167 419.2,211.166667 413.2375,219.929167 C413.708333,216.141667 414.5625,212.4625 414.4,208.704167 L396.5,208.704167" id="Fill-21" fill="#FFFFFF" sketch:type="MSShapeGroup"></path>
            <path d="M651.066669,276.945834 C651.066669,273.733334 653.662502,271.145834 656.862502,271.145834 C660.066669,271.145834 662.658335,273.733334 662.658335,276.945834 C662.658335,280.141667 660.066669,282.741668 656.862502,282.741668 C653.662502,282.741668 651.066669,280.141667 651.066669,276.945834 L651.066669,276.945834 L651.066669,276.945834 Z M656.862502,281.350001 C659.300002,281.350001 661.266669,279.375001 661.266669,276.945834 C661.266669,274.512501 659.300002,272.537501 656.862502,272.537501 C654.429169,272.537501 652.454169,274.512501 652.454169,276.945834 C652.454169,279.375001 654.429169,281.350001 656.862502,281.350001 L656.862502,281.350001 L656.862502,281.350001 Z M656.079169,279.479167 L654.891669,279.479167 L654.891669,274.395834 L657.045835,274.395834 C657.491669,274.395834 657.954169,274.404167 658.341669,274.650001 C658.758335,274.933334 658.995835,275.416667 658.995835,275.925001 C658.995835,276.500001 658.658335,277.037501 658.108335,277.241667 L659.050002,279.479167 L657.729169,279.479167 L656.950002,277.470834 L656.079169,277.470834 L656.079169,279.479167 L656.079169,279.479167 Z M656.079169,276.600001 L656.733335,276.600001 C656.979169,276.600001 657.245835,276.616667 657.462502,276.500001 C657.658335,276.375001 657.758335,276.137501 657.758335,275.912501 C657.758335,275.725001 657.641669,275.500001 657.470835,275.387501 C657.266669,275.270834 656.929169,275.304167 656.708335,275.304167 L656.079169,275.304167 L656.079169,276.600001 L656.079169,276.600001 Z" id="Fill-22" fill="#FFFFFF" sketch:type="MSShapeGroup"></path>
        </g>
    </g>
</svg>