<?xml version="1.0" encoding="UTF-8" standalone="no"?>
<svg width="750px" height="471px" viewBox="0 0 750 471" version="1.1" xmlns="http://www.w3.org/2000/svg" xmlns:xlink="http://www.w3.org/1999/xlink">
    <!-- Generator: Sketch 39.1 (31720) - http://www.bohemiancoding.com/sketch -->
    <title>Slice 1</title>
    <desc>Created with Sketch.</desc>
    <defs></defs>
    <g id="Page-1" stroke="none" stroke-width="1" fill="none" fill-rule="evenodd">
        <g id="mastercard">
            <rect id="Rectangle-1" fill="#F4F4F4" x="0" y="0" width="750" height="471" rx="40"></rect>
            <g id="mark" transform="translate(125.719997, 41.850862)">
                <g id="text" transform="translate(25.142679, 328.360022)" fill="#000000">
                    <path d="M467.715561,51.9326899 C466.502604,51.9623585 465.503405,52.3648948 464.717962,53.1403001 C463.932516,53.9157321 463.526027,54.8861098 463.498494,56.0514362 C463.526027,57.2079497 463.932516,58.1758036 464.717963,58.9550005 C465.503406,59.7342125 466.502604,60.1392726 467.715561,60.1701825 C468.900764,60.1392726 469.887352,59.7342123 470.675326,58.9550002 C471.463285,58.175803 471.872297,57.2079493 471.902362,56.0514362 C471.872927,54.8861098 471.465177,53.915732 470.679109,53.1402998 C469.893026,52.3648943 468.905178,51.9623581 467.715561,51.9326899 L467.715561,51.9326899 L467.715561,51.9326899 Z M467.715561,59.2616355 C466.791392,59.2389292 466.029277,58.9259854 465.429214,58.3228033 C464.829145,57.7196374 464.518499,56.9625159 464.497273,56.0514362 C464.518499,55.1363804 464.829146,54.379679 465.429214,53.78133 C466.029277,53.1830062 466.791392,52.8730071 467.715561,52.8513318 C468.620383,52.8730076 469.370728,53.1830066 469.966597,53.7813302 C470.562452,54.379679 470.871417,55.1363804 470.893494,56.0514362 C470.871417,56.9625161 470.562452,57.7196378 469.966597,58.3228033 C469.370728,58.925985 468.620384,59.2389287 467.715561,59.2616355 L467.715561,59.2616355 L467.715561,59.2616355 Z M467.957689,54.1232975 L466.19217,54.1232975 L466.19217,57.9492899 L467.009353,57.9492899 L467.009353,56.5158046 L467.382634,56.5158046 L468.542832,57.9492899 L469.521434,57.9492899 L468.270438,56.5057097 C468.661158,56.4567169 468.961716,56.330109 469.172113,56.1258861 C469.382498,55.9216836 469.488849,55.6613181 469.491168,55.3447885 C469.488429,54.9670796 469.355174,54.6701195 469.091404,54.4539073 C468.827621,54.237719 468.449717,54.1275158 467.957689,54.1232975 L467.957689,54.1232975 L467.957689,54.1232975 Z M467.9476,54.8400402 C468.166813,54.840262 468.338741,54.8827453 468.463383,54.9674885 C468.588015,55.0522552 468.651489,55.1780218 468.653808,55.3447882 C468.651483,55.5164129 468.588015,55.6451235 468.463383,55.73092 C468.338741,55.8167385 468.166813,55.8596412 467.9476,55.859631 L467.009353,55.859631 L467.009353,54.8400393 L467.9476,54.8400402 L467.9476,54.8400402 Z" id="path3078"></path>
                    <path d="M9.34331724,57.5428029 L0.588175916,57.5428029 L0.588175916,16.6600045 L9.17164757,16.6600045 L9.17164757,21.6415186 C9.17164757,21.6415186 16.7107355,15.5532485 21.1885083,15.6293508 C29.8949298,15.7773317 35.093729,23.1875098 35.093729,23.1875098 C35.093729,23.1875098 39.3109893,15.6293508 48.8272918,15.6293508 C62.8997988,15.6293508 64.9642149,28.5125858 64.9642149,28.5125858 L64.9642149,57.3710273 L56.5524108,57.3710273 L56.5524108,31.9481087 C56.5524108,31.9481087 56.5825922,24.2181741 47.4539323,24.2181741 C38.0139747,24.2181741 37.1537629,31.9481087 37.1537629,31.9481087 L37.1537629,57.3710273 L28.3986215,57.3710273 L28.3986215,31.7763331 C28.3986215,31.7763331 27.5575496,23.7028366 19.6434834,23.7028366 C9.3650113,23.7028366 9.17164757,31.9481087 9.17164757,31.9481087 L9.34331724,57.5428029 L9.34331724,57.5428029 Z" id="path3006"></path>
                    <path d="M275.596898,15.623773 C271.119122,15.5476814 263.580741,21.6355967 263.580741,21.6355967 L263.580741,16.6649268 L254.988182,16.6649268 L254.988182,57.5386115 L263.748565,57.5386115 L263.580741,31.9463783 C263.580741,31.9463783 263.77445,23.7179044 274.052923,23.7179044 C275.961824,23.7179044 277.444363,24.180569 278.61772,24.8934007 L278.61772,24.8598688 L281.470718,16.9000798 C279.749092,16.1750176 277.791223,15.6610664 275.596898,15.623773 L275.596898,15.623773 L275.596898,15.623773 Z" id="path3008"></path>
                    <path d="M398.92774,15.623773 C394.449964,15.5476814 386.911582,21.6355967 386.911582,21.6355967 L386.911582,16.6649268 L378.319023,16.6649268 L378.319023,57.5386115 L387.079406,57.5386115 L386.911582,31.9463783 C386.911582,31.9463783 387.105291,23.7179044 397.383764,23.7179044 C399.292666,23.7179044 400.775204,24.180569 401.948561,24.8934007 L401.948561,24.8598688 L404.801559,16.9000798 C403.079933,16.1750713 401.122064,15.6611201 398.92774,15.6238267 L398.92774,15.623773 L398.92774,15.623773 Z" id="path3013"></path>
                    <path d="M93.2735295,15.4558449 C80.1708646,15.4558449 73.2368626,27.2396859 73.2018479,37.0849763 C73.1658666,47.1762746 81.0955959,58.8148646 93.6427411,58.8148646 C100.962678,58.8148646 106.976041,53.4075817 106.976041,53.4075817 L106.960145,57.5721971 L115.577998,57.5721971 L115.577998,16.6488272 L106.929792,16.6488272 L106.929792,21.8035248 C106.929792,21.8035248 101.282654,15.4558449 93.2735725,15.4558449 L93.2735295,15.4558449 L93.2735295,15.4558449 Z M94.9517638,23.7850756 C101.991433,23.7850756 107.706344,29.9122942 107.706344,37.454418 C107.706344,44.9965418 101.991433,51.0901748 94.9517638,51.0901748 C87.9120947,51.0901748 82.2307482,44.9965418 82.2307482,37.454418 C82.2307482,29.9122942 87.9120947,23.7850756 94.9517638,23.7850756 L94.9517638,23.7850756 L94.9517638,23.7850756 Z" id="path3015"></path>
                    <path d="M344.597578,15.4558449 C331.494913,15.4558449 324.560911,27.2396859 324.525896,37.0849763 C324.489915,47.1762746 332.419644,58.8148646 344.966789,58.8148646 C352.286726,58.8148646 358.300089,53.4075817 358.300089,53.4075817 L358.284193,57.5721971 L366.902046,57.5721971 L366.902046,16.6488272 L358.25384,16.6488272 L358.25384,21.8035248 C358.25384,21.8035248 352.606702,15.4558449 344.59762,15.4558449 L344.597578,15.4558449 L344.597578,15.4558449 Z M346.275812,23.7850756 C353.315481,23.7850756 359.030392,29.9122942 359.030392,37.454418 C359.030392,44.9965418 353.315481,51.0901748 346.275812,51.0901748 C339.236143,51.0901748 333.554796,44.9965418 333.554796,37.454418 C333.554796,29.9122942 339.236143,23.7850756 346.275812,23.7850756 L346.275812,23.7850756 L346.275812,23.7850756 Z" id="path3020"></path>
                    <path d="M427.342249,15.4558449 C414.239584,15.4558449 407.305582,27.2396859 407.270567,37.0849763 C407.234586,47.1762746 415.164315,58.8148646 427.71146,58.8148646 C435.031397,58.8148646 441.04476,53.4075817 441.04476,53.4075817 L441.028864,57.5721971 L449.646718,57.5721971 L449.646718,0.49407462 L440.998511,0.49407462 L440.998511,21.8035248 C440.998511,21.8035248 435.351373,15.4558449 427.342292,15.4558449 L427.342249,15.4558449 L427.342249,15.4558449 Z M429.020483,23.7850756 C436.060152,23.7850756 441.775063,29.9122942 441.775063,37.454418 C441.775063,44.9965418 436.060152,51.0901748 429.020483,51.0901748 C421.980814,51.0901748 416.299467,44.9965418 416.299467,37.454418 C416.299467,29.9122942 421.980814,23.7850756 429.020483,23.7850756 L429.020483,23.7850756 L429.020483,23.7850756 Z" id="path3022"></path>
                    <path d="M141.872122,58.9170078 C132.94558,58.9170078 124.705176,53.4201669 124.705176,53.4201669 L128.481907,47.5797641 C128.481907,47.5797641 136.278978,51.1870733 141.872122,51.1870733 C145.50613,51.1870733 151.583937,50.0128667 151.657274,46.3773348 C151.734822,42.5349478 141.442945,41.39581 141.442945,41.39581 C141.442945,41.39581 126.078536,41.1860853 126.078536,28.5125858 C126.078536,20.5421246 133.751938,15.4575752 143.588818,15.4575752 C149.272667,15.4575752 159.89741,20.4390893 159.89741,20.4390893 L155.605674,27.1383702 C155.605674,27.1383702 147.402218,23.858921 143.073802,23.7028366 C139.418806,23.5710413 135.005346,25.3221465 135.005346,28.5125858 C135.005346,37.1806926 160.584084,27.837198 160.584084,45.3466704 C160.584084,56.8338188 150.166691,58.9170078 141.872122,58.9170078 L141.872122,58.9170078 L141.872122,58.9170078 Z" id="path3024"></path>
                    <path d="M174.802149,4.80920724 L174.802149,16.6985124 L167.182966,16.6985124 L167.182966,25.296428 L174.802149,25.296428 L174.802149,45.85082 C174.802149,45.85082 174.127827,59.7552616 189.067141,59.7552616 C193.19753,59.7552616 201.284686,56.6989713 201.284686,56.6989713 L197.827523,47.7651996 C197.827523,47.7651996 194.611468,50.5102454 190.980328,50.4184626 C184.076195,50.2440217 184.267391,45.8172343 184.267391,45.8172343 L184.267391,25.296428 L198.498817,25.296428 L198.498817,16.6985124 L184.267391,16.6985124 L184.267391,4.80920724 L174.802149,4.80920724 L174.802149,4.80920724 L174.802149,4.80920724 Z" id="path3026"></path>
                    <path d="M226.659588,15.959629 C212.610087,15.959629 205.590417,27.5389793 205.648095,37.5887604 C205.707384,47.9238419 212.040304,59.5537479 227.498705,59.5537479 C234.115072,59.5537479 243.408366,53.7434378 243.408366,53.7434378 L239.414168,46.791217 C239.414168,46.791217 233.072548,51.2916884 227.498705,51.2916884 C216.339172,51.2916884 215.616806,40.3763659 215.616806,40.3763659 L245.489376,40.3763659 C245.489376,40.3763659 247.717985,15.959629 226.659588,15.959629 L226.659588,15.959629 L226.659588,15.959629 Z M225.38413,23.9865893 C225.715416,23.9677813 226.070568,23.9865893 226.424635,23.9865893 C236.937954,23.9865893 236.863252,33.9279292 236.863252,33.9279292 L215.616806,33.9279292 C215.616806,33.9279292 215.114206,24.5707962 225.38413,23.9865893 L225.38413,23.9865893 L225.38413,23.9865893 Z" id="path3034"></path>
                    <path d="M315.5162,46.686 L319.52203,54.7026427 C319.52203,54.7026427 313.17302,58.8324258 306.047898,58.8324258 C291.296557,58.8324258 283.105442,47.7234997 283.105442,37.2117848 C283.105442,20.6912339 296.140698,15.8340672 304.955397,15.8340672 C312.956369,15.8340672 319.886193,20.4497077 319.886193,20.4497077 L315.394819,28.4663505 C315.394819,28.4663505 312.671859,24.2151004 304.712614,24.2151004 C296.766655,24.2151004 292.573755,31.0702185 292.573755,37.5761752 C292.573755,44.8669927 297.454114,51.0587064 304.834005,51.0587064 C310.623393,51.0587064 315.5162,46.686 315.5162,46.686 L315.5162,46.686 L315.5162,46.686 Z" id="path3037"></path>
                </g>
                <path d="M498.787985,236.781279 L498.787985,231.260623 L497.347484,231.260623 L495.690436,235.057252 L494.033388,231.260623 L492.592886,231.260623 L492.592886,236.781279 L493.609711,236.781279 L493.609711,232.617235 L495.163193,236.206603 L496.217678,236.206603 L497.771161,232.607814 L497.771161,236.781279 L498.787985,236.781279 L498.787985,236.781279 Z M489.664807,236.781279 L489.664807,232.202715 L491.510156,232.202715 L491.510156,231.270044 L486.812049,231.270044 L486.812049,232.202715 L488.657397,232.202715 L488.657397,236.781279 L489.664807,236.781279 L489.664807,236.781279 Z" id="path3057" fill="#F79F1A"></path>
                <path d="M499.076678,154.709802 C499.076678,240.135159 429.999707,309.386105 344.788929,309.386105 C259.578151,309.386105 190.501159,240.135159 190.501159,154.709802 C190.501159,69.2844326 259.578151,0.0334920174 344.788929,0.0334920174 C429.999707,0.0334920174 499.076678,69.2844326 499.076678,154.709802 L499.076678,154.709802 L499.076678,154.709802 Z" id="path2997" fill="#F79F1A"></path>
                <path d="M308.73932,154.709802 C308.73932,240.135159 239.662349,309.386105 154.451571,309.386105 C69.2407931,309.386105 0.163801275,240.135159 0.163801275,154.709802 C0.163801275,69.2844326 69.2407931,0.0334920174 154.451571,0.0334920174 C239.662349,0.0334920174 308.73932,69.2844326 308.73932,154.709802 L308.73932,154.709802 L308.73932,154.709802 Z" id="path2995" fill="#EA001B"></path>
                <path d="M249.620562,32.9474812 C213.621326,61.2636823 190.513152,105.265345 190.513152,154.695309 C190.513152,204.125274 213.621326,248.16052 249.620562,276.476723 C285.619799,248.16052 308.727973,204.125274 308.727973,154.695309 C308.727973,105.265345 285.619799,61.2636823 249.620562,32.9474812 L249.620562,32.9474812 L249.620562,32.9474812 Z" id="path2999" fill="#FF5F01"></path>
            </g>
        </g>
    </g>
</svg>