<?xml version="1.0" encoding="UTF-8" standalone="no"?>
<svg width="750px" height="471px" viewBox="0 0 750 471" version="1.1" xmlns="http://www.w3.org/2000/svg" xmlns:xlink="http://www.w3.org/1999/xlink">
    <!-- Generator: Sketch 39.1 (31720) - http://www.bohemiancoding.com/sketch -->
    <title>Slice 1</title>
    <desc>Created with Sketch.</desc>
    <defs></defs>
    <g id="Page-1" stroke="none" stroke-width="1" fill="none" fill-rule="evenodd">
        <g id="mastercard">
            <g id="Page-1">
                <g id="mastercard">
                    <rect id="Rectangle-1" fill="#F4F4F4" x="0" y="0" width="750" height="471" rx="40"></rect>
                    <g id="Group" transform="translate(125.000000, 41.000000)">
                        <g id="g3115" transform="translate(0.719997, 0.850862)">
                            <g id="g3110">
                                <path d="M499.076678,154.709802 C499.076678,240.135159 429.999707,309.386105 344.788929,309.386105 C259.578151,309.386105 190.501159,240.135159 190.501159,154.709802 C190.501159,69.2844326 259.578151,0.0334920174 344.788929,0.0334920174 C429.999707,0.0334920174 499.076678,69.2844326 499.076678,154.709802 L499.076678,154.709802 Z" id="path2997" fill="#F79F1A"></path>
                                <path d="M308.73932,154.709802 C308.73932,240.135159 239.662349,309.386105 154.451571,309.386105 C69.2407931,309.386105 0.163801275,240.135159 0.163801275,154.709802 C0.163801275,69.2844326 69.2407931,0.0334920174 154.451571,0.0334920174 C239.662349,0.0334920174 308.73932,69.2844326 308.73932,154.709802 L308.73932,154.709802 Z" id="path2995" fill="#EA001B"></path>
                                <path d="M249.620562,32.9474812 C213.621326,61.2636823 190.513152,105.265345 190.513152,154.695309 C190.513152,204.125274 213.621326,248.16052 249.620562,276.476723 C285.619799,248.16052 308.727973,204.125274 308.727973,154.695309 C308.727973,105.265345 285.619799,61.2636823 249.620562,32.9474812 L249.620562,32.9474812 Z" id="path2999" fill="#FF5F01"></path>
                            </g>
                            <g id="g3043" transform="translate(486.049430, 230.837717)" fill="#F79F1A">
                                <g id="text3045">
                                    <path d="M12.7385555,5.94356187 L12.7385555,0.422906433 L11.2980537,0.422906433 L9.64100582,4.21953461 L7.98395791,0.422906433 L6.54345609,0.422906433 L6.54345609,5.94356187 L7.56028091,5.94356187 L7.56028091,1.77951798 L9.11376335,5.36888612 L10.1682484,5.36888612 L11.7217307,1.77009708 L11.7217307,5.94356187 L12.7385555,5.94356187 Z M3.61537716,5.94356187 L3.61537716,1.36499777 L5.46072593,1.36499777 L5.46072593,0.432327331 L0.762618625,0.432327331 L0.762618625,1.36499777 L2.60796738,1.36499777 L2.60796738,5.94356187 L3.61537716,5.94356187 Z" id="path3057"></path>
                                </g>
                            </g>
                        </g>
                        <g id="svg2985" transform="translate(24.862676, 328.210884)" fill="#000000">
                            <g id="g3125" transform="translate(0.719997, 0.850862)">
                                <g id="g3093" transform="translate(0.840932, 0.584648)">
                                    <g id="g3081">
                                        <path d="M8.78238824,57.1072929 L0.027246916,57.1072929 L0.027246916,16.2244945 L8.61071857,16.2244945 L8.61071857,21.2060086 C8.61071857,21.2060086 16.1498065,15.1177385 20.6275793,15.1938408 C29.3340008,15.3418217 34.5328,22.7519998 34.5328,22.7519998 C34.5328,22.7519998 38.7500603,15.1938408 48.2663628,15.1938408 C62.3388698,15.1938408 64.4032859,28.0770758 64.4032859,28.0770758 L64.4032859,56.9355173 L55.9914818,56.9355173 L55.9914818,31.5125987 C55.9914818,31.5125987 56.0216632,23.7826641 46.8930033,23.7826641 C37.4530457,23.7826641 36.5928339,31.5125987 36.5928339,31.5125987 L36.5928339,56.9355173 L27.8376925,56.9355173 L27.8376925,31.3408231 C27.8376925,31.3408231 26.9966206,23.2673266 19.0825544,23.2673266 C8.8040823,23.2673266 8.61071857,31.5125987 8.61071857,31.5125987 L8.78238824,57.1072929 Z" id="path3006"></path>
                                        <path d="M275.035969,15.188263 C270.558193,15.1121714 263.019812,21.2000867 263.019812,21.2000867 L263.019812,16.2294168 L254.427253,16.2294168 L254.427253,57.1031015 L263.187636,57.1031015 L263.019812,31.5108683 C263.019812,31.5108683 263.213521,23.2823944 273.491994,23.2823944 C275.400895,23.2823944 276.883434,23.745059 278.056791,24.4578907 L278.056791,24.4243588 L280.909789,16.4645698 C279.188163,15.7395076 277.230294,15.2255564 275.035969,15.188263 L275.035969,15.188263 Z" id="path3008"></path>
                                        <path d="M398.366811,15.188263 C393.889035,15.1121714 386.350653,21.2000867 386.350653,21.2000867 L386.350653,16.2294168 L377.758094,16.2294168 L377.758094,57.1031015 L386.518477,57.1031015 L386.350653,31.5108683 C386.350653,31.5108683 386.544362,23.2823944 396.822835,23.2823944 C398.731737,23.2823944 400.214275,23.745059 401.387632,24.4578907 L401.387632,24.4243588 L404.24063,16.4645698 C402.519004,15.7395613 400.561135,15.2256101 398.366811,15.1883167 L398.366811,15.188263 Z" id="path3013"></path>
                                        <path d="M92.7126005,15.0203349 C79.6099356,15.0203349 72.6759336,26.8041759 72.6409189,36.6494663 C72.6049376,46.7407646 80.5346669,58.3793546 93.0818121,58.3793546 C100.401749,58.3793546 106.415112,52.9720717 106.415112,52.9720717 L106.399216,57.1366871 L115.017069,57.1366871 L115.017069,16.2133172 L106.368863,16.2133172 L106.368863,21.3680148 C106.368863,21.3680148 100.721725,15.0203349 92.7126435,15.0203349 L92.7126005,15.0203349 Z M94.3908348,23.3495656 C101.430504,23.3495656 107.145415,29.4767842 107.145415,37.018908 C107.145415,44.5610318 101.430504,50.6546648 94.3908348,50.6546648 C87.3511657,50.6546648 81.6698192,44.5610318 81.6698192,37.018908 C81.6698192,29.4767842 87.3511657,23.3495656 94.3908348,23.3495656 L94.3908348,23.3495656 Z" id="path3015"></path>
                                        <path d="M344.036649,15.0203349 C330.933984,15.0203349 323.999982,26.8041759 323.964967,36.6494663 C323.928986,46.7407646 331.858715,58.3793546 344.40586,58.3793546 C351.725797,58.3793546 357.73916,52.9720717 357.73916,52.9720717 L357.723264,57.1366871 L366.341117,57.1366871 L366.341117,16.2133172 L357.692911,16.2133172 L357.692911,21.3680148 C357.692911,21.3680148 352.045773,15.0203349 344.036691,15.0203349 L344.036649,15.0203349 Z M345.714883,23.3495656 C352.754552,23.3495656 358.469463,29.4767842 358.469463,37.018908 C358.469463,44.5610318 352.754552,50.6546648 345.714883,50.6546648 C338.675214,50.6546648 332.993867,44.5610318 332.993867,37.018908 C332.993867,29.4767842 338.675214,23.3495656 345.714883,23.3495656 L345.714883,23.3495656 Z" id="path3020"></path>
                                        <path d="M426.78132,15.0203349 C413.678655,15.0203349 406.744653,26.8041759 406.709638,36.6494663 C406.673657,46.7407646 414.603386,58.3793546 427.150531,58.3793546 C434.470468,58.3793546 440.483831,52.9720717 440.483831,52.9720717 L440.467935,57.1366871 L449.085789,57.1366871 L449.085789,0.0585646203 L440.437582,0.0585646203 L440.437582,21.3680148 C440.437582,21.3680148 434.790444,15.0203349 426.781363,15.0203349 L426.78132,15.0203349 Z M428.459554,23.3495656 C435.499223,23.3495656 441.214134,29.4767842 441.214134,37.018908 C441.214134,44.5610318 435.499223,50.6546648 428.459554,50.6546648 C421.419885,50.6546648 415.738538,44.5610318 415.738538,37.018908 C415.738538,29.4767842 421.419885,23.3495656 428.459554,23.3495656 L428.459554,23.3495656 Z" id="path3022"></path>
                                        <path d="M141.311193,58.4814978 C132.384651,58.4814978 124.144247,52.9846569 124.144247,52.9846569 L127.920978,47.1442541 C127.920978,47.1442541 135.718049,50.7515633 141.311193,50.7515633 C144.945201,50.7515633 151.023008,49.5773567 151.096345,45.9418248 C151.173893,42.0994378 140.882016,40.9603 140.882016,40.9603 C140.882016,40.9603 125.517607,40.7505753 125.517607,28.0770758 C125.517607,20.1066146 133.191009,15.0220652 143.027889,15.0220652 C148.711738,15.0220652 159.336481,20.0035793 159.336481,20.0035793 L155.044745,26.7028602 C155.044745,26.7028602 146.841289,23.423411 142.512873,23.2673266 C138.857877,23.1355313 134.444417,24.8866365 134.444417,28.0770758 C134.444417,36.7451826 160.023155,27.401688 160.023155,44.9111604 C160.023155,56.3983088 149.605762,58.4814978 141.311193,58.4814978 L141.311193,58.4814978 Z" id="path3024"></path>
                                        <path d="M174.24122,4.37369724 L174.24122,16.2630024 L166.622037,16.2630024 L166.622037,24.860918 L174.24122,24.860918 L174.24122,45.41531 C174.24122,45.41531 173.566898,59.3197516 188.506212,59.3197516 C192.636601,59.3197516 200.723757,56.2634613 200.723757,56.2634613 L197.266594,47.3296896 C197.266594,47.3296896 194.050539,50.0747354 190.419399,49.9829526 C183.515266,49.8085117 183.706462,45.3817243 183.706462,45.3817243 L183.706462,24.860918 L197.937888,24.860918 L197.937888,16.2630024 L183.706462,16.2630024 L183.706462,4.37369724 L174.24122,4.37369724 L174.24122,4.37369724 Z" id="path3026"></path>
                                        <path d="M226.098659,15.524119 C212.049158,15.524119 205.029488,27.1034693 205.087166,37.1532504 C205.146455,47.4883319 211.479375,59.1182379 226.937776,59.1182379 C233.554143,59.1182379 242.847437,53.3079278 242.847437,53.3079278 L238.853239,46.355707 C238.853239,46.355707 232.511619,50.8561784 226.937776,50.8561784 C215.778243,50.8561784 215.055877,39.9408559 215.055877,39.9408559 L244.928447,39.9408559 C244.928447,39.9408559 247.157056,15.524119 226.098659,15.524119 L226.098659,15.524119 Z M224.823201,23.5510793 C225.154487,23.5322713 225.509639,23.5510793 225.863706,23.5510793 C236.377025,23.5510793 236.302323,33.4924192 236.302323,33.4924192 L215.055877,33.4924192 C215.055877,33.4924192 214.553277,24.1352862 224.823201,23.5510793 L224.823201,23.5510793 Z" id="path3034"></path>
                                        <path d="M314.955271,46.25049 L318.961101,54.2671327 C318.961101,54.2671327 312.612091,58.3969158 305.486969,58.3969158 C290.735628,58.3969158 282.544513,47.2879897 282.544513,36.7762748 C282.544513,20.2557239 295.579769,15.3985572 304.394468,15.3985572 C312.39544,15.3985572 319.325264,20.0141977 319.325264,20.0141977 L314.83389,28.0308405 C314.83389,28.0308405 312.11093,23.7795904 304.151685,23.7795904 C296.205726,23.7795904 292.012826,30.6347085 292.012826,37.1406652 C292.012826,44.4314827 296.893185,50.6231964 304.273076,50.6231964 C310.062464,50.6231964 314.955271,46.25049 314.955271,46.25049 L314.955271,46.25049 Z" id="path3037"></path>
                                    </g>
                                    <g id="g3064" transform="translate(462.453308, 51.387244)">
                                        <g id="text3066">
                                            <path d="M4.70132368,0.109935891 C3.48836655,0.139604501 2.48916815,0.542140758 1.70372526,1.31754613 C0.918278915,2.09297812 0.511789755,3.06335579 0.484256523,4.2286822 C0.511789755,5.38519574 0.918279003,6.35304963 1.70372555,7.13224651 C2.48916859,7.91145846 3.48836699,8.31651864 4.70132368,8.34742851 C5.88652738,8.31651864 6.87311492,7.91145832 7.66108937,7.13224622 C8.44904847,6.35304905 8.85805998,5.3851953 8.88812492,4.2286822 C8.85869046,3.06335579 8.45094005,2.09297797 7.66487238,1.31754583 C6.87878921,0.542140319 5.89094072,0.139604062 4.70132368,0.109935891 L4.70132368,0.109935891 Z M4.70132368,7.43888155 C3.77715486,7.41617519 3.01504007,7.10323145 2.41497667,6.5000493 C1.81490845,5.8968834 1.50426179,5.13976186 1.48303567,4.2286822 C1.50426223,3.31362639 1.81490903,2.55692504 2.41497696,1.95857596 C3.01504007,1.36025219 3.77715486,1.05025314 4.70132368,1.0285778 C5.60614612,1.05025358 6.35649063,1.36025263 6.95235957,1.95857625 C7.54821462,2.55692504 7.85718011,3.31362639 7.8792572,4.2286822 C7.85718011,5.13976215 7.54821462,5.89688384 6.95235987,6.5000493 C6.35649107,7.10323101 5.60614656,7.41617475 4.70132368,7.43888155 L4.70132368,7.43888155 Z M4.94345199,2.30054354 L3.17793337,2.30054354 L3.17793337,6.12653586 L3.99511638,6.12653586 L3.99511638,4.69305063 L4.36839743,4.69305063 L5.52859536,6.12653586 L6.50719709,6.12653586 L5.25620107,4.68295568 C5.64692113,4.63396286 5.94747913,4.50735499 6.15787609,4.30313207 C6.36826062,4.09892964 6.47461214,3.83856408 6.47693096,3.52203453 C6.47419207,3.14432563 6.34093749,2.8473655 6.07716694,2.63115326 C5.81338426,2.41496502 5.43547961,2.30476183 4.94345199,2.30054354 L4.94345199,2.30054354 Z M4.93336318,3.01728616 C5.15257644,3.01750796 5.3245039,3.05999134 5.44914614,3.14473455 C5.57377801,3.22950118 5.63725225,3.35526779 5.63957063,3.52203424 C5.63724582,3.69365892 5.57377844,3.8223695 5.44914644,3.90816597 C5.32450434,3.99398453 5.15257644,4.03688722 4.93336318,4.03687698 L3.99511623,4.03687698 L3.99511623,3.01728528 L4.93336318,3.01728616 Z" id="path3078"></path>
                                        </g>
                                    </g>
                                </g>
                            </g>
                        </g>
                    </g>
                </g>
            </g>
        </g>
    </g>
</svg>