<svg xmlns="http://www.w3.org/2000/svg" width="892" height="516"><g fill="#E5E5E5" fill-rule="nonzero" transform="translate(-1)"><rect width="100" height="20" x="1" rx="2"/><rect width="100" height="20" x="421" rx="2"/><rect width="100" height="20" x="793" rx="2"/><rect width="150" height="24" x="125" y="48" rx="2"/><rect width="50" height="24" x="125" y="86" rx="2"/><rect width="50" height="24" x="457" y="48" rx="2"/><rect width="100" height="100" x="15" y="48" rx="2"/><rect width="150" height="150" x="1" y="318" rx="2"/><rect width="150" height="150" x="373" y="318" rx="2"/><rect width="150" height="150" x="187" y="318" rx="2"/><rect width="150" height="24" x="125" y="178" rx="2"/><rect width="50" height="24" x="125" y="216" rx="2"/><rect width="50" height="24" x="457" y="178" rx="2"/><rect width="100" height="100" x="15" y="178" rx="2"/><rect width="304" height="359" x="588" y="34" rx="2"/><rect width="520" height="1" x="1" y="34" rx=".5"/><rect width="520" height="1" y="162" rx=".5"/><rect width="520" height="1" x="1" y="292" rx=".5"/><rect width="304" height="64" x="589" y="407" rx="2"/><rect width="100" height="38" x="26" y="478" rx="2"/><rect width="100" height="38" x="212" y="478" rx="2"/><rect width="100" height="38" x="398" y="478" rx="2"/></g></svg>