<svg xmlns="http://www.w3.org/2000/svg" width="892" height="726"><g fill="#E5E5E5" fill-rule="nonzero" transform="translate(-1)"><rect width="203" height="38" x="1" rx="2"/><rect width="434" height="38" x="1" y="62" rx="2"/><rect width="434" height="38" y="124" rx="2"/><rect width="434" height="38" x="1" y="186" rx="2"/><rect width="434" height="38" x="2" y="248" rx="2"/><rect width="434" height="38" x="3" y="310" rx="2"/><rect width="434" height="38" x="3" y="372" rx="2"/><rect width="892" height="204" x="2" y="434" rx="2"/><rect width="203" height="38" x="231" rx="2"/><rect width="203" height="38" x="514" rx="2"/><rect width="427" height="100" x="466" y="62" rx="2"/><rect width="304" height="64" x="588" y="662" rx="2"/><rect width="38" height="38" x="466" rx="2"/><rect width="203" height="38" x="48" y="662" rx="2"/><rect width="38" height="38" y="662" rx="2"/></g></svg>