<svg width="240" height="240" viewBox="0 0 240 240" fill="none" xmlns="http://www.w3.org/2000/svg">
<g clip-path="url(#clip0_520_7189)">
<path d="M122.374 129.969C174.63 108.408 206.885 65.0707 194.416 33.172C181.947 1.27321 129.478 -7.10727 77.2215 14.4536C24.9653 36.0145 -7.289 79.3521 5.17953 111.251C17.6481 143.15 70.1178 151.53 122.374 129.969Z" fill="#EAE1FF"/>
<path d="M224.601 198.669C241.38 170.648 241.845 139.629 225.64 129.387C209.435 119.144 182.697 133.556 165.918 161.577C149.14 189.598 148.675 220.616 164.88 230.859C181.084 241.102 207.823 226.689 224.601 198.669Z" fill="#EAE1FF"/>
<path d="M139.351 207.142C180.757 179.134 201.194 135.94 184.998 110.665C168.802 85.3911 122.106 87.6072 80.7001 115.615C39.294 143.623 18.8573 186.817 35.0534 212.091C51.2495 237.366 97.9453 235.15 139.351 207.142Z" fill="#EAE1FF"/>
<path d="M155.579 105.52C159 105.52 162.135 106.425 165 107.74V95.2174C165 87.5023 160.62 83.1752 152.888 83.1752H27.1048C19.3803 83.1682 15 87.4954 15 95.2105V170.678H74.1545C71.2344 175.047 68.4254 180.216 68.4254 186.268C68.4254 198.366 77.8534 208.175 89.9444 208.175C102.035 208.175 111.463 198.366 111.463 186.268C111.463 180.216 108.654 175.047 105.734 170.678H165V146.127C162.135 147.442 159 148.347 155.579 148.347C143.551 148.347 133.796 138.969 133.796 126.927C133.796 114.884 143.551 105.507 155.579 105.507V105.52Z" fill="#BEA0F2"/>
<path d="M77.4155 139.372H27.3552V145.634H77.4155V139.372Z" fill="#674399"/>
<path d="M58.6429 151.895H27.3552V158.156H58.6429V151.895Z" fill="#674399"/>
<path d="M163.533 180.877C160.863 178.755 134.032 158.163 134.032 158.163C134.032 158.163 130.591 191.82 130.299 195.222C130.007 198.624 133.302 200.119 135.958 197.872C139.65 194.763 147.166 188.641 147.166 188.641C147.166 188.641 156.775 187.368 161.565 186.818C165.021 186.421 166.196 182.999 163.519 180.877H163.533Z" fill="#674399"/>
<path d="M77.4155 95.5446H27.3552V133.111H77.4155V95.5446Z" fill="#674399"/>
<path d="M27.3552 133.111C47.6406 117.894 64.6545 105.393 77.4155 95.5446V133.111H27.3552Z" fill="#3C2861"/>
</g>
<defs>
<clipPath id="clip0_520_7189">
<rect width="235" height="235" fill="white" transform="translate(2.5 2.5)"/>
</clipPath>
</defs>
</svg>
