<svg width="29" height="28" viewBox="0 0 29 28" fill="none" xmlns="http://www.w3.org/2000/svg">
<rect x="0.645508" width="28" height="28" rx="4" fill="#F6F7F7"/>
<mask id="mask0_887_116914" style="mask-type:alpha" maskUnits="userSpaceOnUse" x="7" y="8" width="15" height="13">
<path fill-rule="evenodd" clip-rule="evenodd" d="M21.3123 17.3333H19.3123V19.3333C19.3123 20.07 18.7157 20.6667 17.979 20.6667H11.3123C10.5757 20.6667 9.979 20.07 9.979 19.3333V17.3333H7.979V12C7.979 11.2633 8.57567 10.6667 9.31234 10.6667H9.979V9.33333C9.979 8.59667 10.5757 8 11.3123 8H17.979C18.7157 8 19.3123 8.59667 19.3123 9.33333V10.6667H19.979C20.7157 10.6667 21.3123 11.2633 21.3123 12V17.3333ZM12.6457 16.6667H16.6457V18H12.6457V16.6667ZM17.979 10.6667H11.3123V9.33333H17.979V10.6667ZM17.979 15.3333H11.3123V19.3333H17.979V15.3333ZM18.979 12C19.531 12 19.979 12.448 19.979 13C19.979 13.552 19.531 14 18.979 14C18.427 14 17.979 13.552 17.979 13C17.979 12.448 18.427 12 18.979 12Z" fill="white"/>
</mask>
<g mask="url(#mask0_887_116914)">
<rect x="6.64551" y="6" width="16" height="16" fill="#8C8F94"/>
</g>
</svg>
