<svg xmlns="http://www.w3.org/2000/svg" width="64" height="40" fill="none"><g clipPath="url(#clip0_7623_49052)"><rect width="64" height="40" fill="#fff" rx="3"/><path fill="#006FCF" d="m56.533 9.813 1.28-3.48L64 6.387V.053L0 0v40l64 .053v-6.32l-5.853-.053-2.04-2.387-2.12 2.387h-15.68V20.973h-5.174L39.6 6.333h6.293l1.52 3.32v-3.32h7.814l1.306 3.48ZM52.12 12.12l-.013-1.4.533 1.4 2.6 6.947h2.587l2.613-6.947.507-1.387v8.334L64 19.12V8.453L59.147 8.4l-2.054 5.413-.546 1.467-.56-1.467L53.92 8.4H49.4v10.667h2.72V12.12Zm-5.853 6.947H49.4L44.707 8.4h-3.64l-4.72 10.667h3.093l.827-2.054h5.173l.827 2.054Zm-3.947-7.054.533-1.333.534 1.333 1.106 2.694h-3.28l1.107-2.694Zm-1.827 8.974v10.626H49.4v-2.306h-6.187v-1.854h6.067V25.16h-6.067v-1.867H49.4v-2.306h-8.907Zm18.814 10.626h3.533l-4.987-5.333 4.987-5.293h-3.48l-3.213 3.453-3.2-3.453H49.4l4.973 5.333-4.973 5.293h3.44l3.24-3.466 3.227 3.466Zm1.346-5.346L64 29.387v-6.094l-3.347 2.974Z"/></g><defs><clipPath id="clip0_7623_49052"><rect width="64" height="40" fill="#fff" rx="3"/></clipPath></defs></svg>
