<svg xmlns="http://www.w3.org/2000/svg" width="64" height="40" fill="none"><path fill="#fff" d="M0 0h64v40H0z"/><path fill="#000" fill-rule="evenodd" d="M18.92 13.32c-.5.6-1.32 1.09-2.13 1.02-.1-.82.3-1.7.76-2.24.5-.62 1.4-1.07 2.12-1.1.08.86-.25 1.7-.75 2.32Zm.74 1.18a4.45 4.45 0 0 0-1.9.43 2.7 2.7 0 0 1-.84.25c-.25 0-.55-.12-.89-.26-.44-.17-.94-.38-1.47-.37a3.47 3.47 0 0 0-2.96 1.82c-1.27 2.2-.33 5.48.9 7.28.6.89 1.32 1.86 2.27 1.83.42-.02.72-.14 1.03-.28.36-.15.73-.31 1.31-.31.56 0 .92.15 1.26.3.32.15.63.28 1.1.27.98-.01 1.6-.89 2.2-1.78.65-.95.93-1.89.97-2.03v-.01l-.01-.02c-.22-.1-1.88-.86-1.9-2.92a3.28 3.28 0 0 1 1.53-2.74l.03-.02a3.34 3.34 0 0 0-2.63-1.44Zm6.8 10.87V12.02h4.96a4.16 4.16 0 0 1 4.34 4.38c0 2.6-1.82 4.4-4.41 4.4H28.5v4.57h-2.05.01Zm2.05-11.6h2.36c1.78 0 2.8.96 2.8 2.64 0 1.69-1.02 2.66-2.8 2.66H28.5v-5.3h.01Zm14.02 10a3.38 3.38 0 0 1-3.03 1.7c-1.9 0-3.23-1.15-3.23-2.88 0-1.7 1.29-2.7 3.67-2.84l2.55-.15v-.74c0-1.09-.7-1.68-1.95-1.68-1.04 0-1.79.54-1.94 1.36h-1.85c.06-1.73 1.67-2.98 3.85-2.98 2.34 0 3.87 1.24 3.87 3.16v6.65h-1.9v-1.6h-.04Zm-2.48.12c-1.09 0-1.78-.53-1.78-1.35 0-.84.67-1.32 1.95-1.4l2.27-.15v.76c0 1.25-1.05 2.14-2.44 2.14Zm10.71 2C49.94 28.23 49 29 47 29a5.605 5.605 0 0 1-.78-.05v-1.6l.6.03c.9 0 1.42-.38 1.73-1.39l.19-.59-3.48-9.72h2.15l2.41 7.9h.04l2.42-7.9h2.08l-3.6 10.21Z" clip-rule="evenodd"/></svg>
