<svg xmlns="http://www.w3.org/2000/svg" width="64" height="40" fill="none"><path fill="#fff" d="M0 0h64v40H0z"/><path fill="#5F6368" fill-rule="evenodd" d="M30.9 25.07v-5.28h2.86a4.2 4.2 0 0 0 2.96-1.1 3.561 3.561 0 0 0 1.24-2.77 3.58 3.58 0 0 0-1.24-2.75 4.22 4.22 0 0 0-2.96-1.13h-4.58v13.03h1.72Zm0-6.88v-4.55h2.9c.65-.01 1.27.24 1.71.7a2.189 2.189 0 0 1 0 3.18c-.45.45-1.07.7-1.71.67h-2.9Zm14.07-1.33c-.74-.67-1.75-1-3.03-1-1.64 0-2.87.59-3.71 1.75l1.52.93a2.67 2.67 0 0 1 2.3-1.18c.6-.01 1.2.2 1.66.6.45.37.72.92.71 1.49v.38a5.24 5.24 0 0 0-2.53-.55c-1.2 0-2.16.28-2.88.82a2.62 2.62 0 0 0-1.08 2.2c-.02.84.36 1.65 1.02 2.19.68.58 1.53.87 2.54.87 1.2 0 2.14-.5 2.86-1.53h.07v1.24h1.66v-5.5c0-1.15-.37-2.05-1.11-2.71Zm-4.69 6.57a1.32 1.32 0 0 1-.57-1.09c0-.48.23-.89.7-1.22.48-.33 1.06-.5 1.76-.5.97 0 1.72.21 2.26.63 0 .7-.29 1.32-.86 1.84a2.8 2.8 0 0 1-1.95.78c-.48 0-.96-.15-1.34-.44Zm15.28-7.27L49.8 29h-1.78l2.14-4.5-3.8-8.34h1.88l2.75 6.4H51l2.67-6.4h1.89Z" clip-rule="evenodd"/><path fill="#4285F4" fill-rule="evenodd" d="M23.92 18.66c0-.51-.04-1.02-.13-1.53H16.5v2.89h4.18a3.46 3.46 0 0 1-1.55 2.27v1.87h2.5a7.2 7.2 0 0 0 2.3-5.5h-.01Z" clip-rule="evenodd"/><path fill="#34A853" fill-rule="evenodd" d="M16.5 25.97c2.09 0 3.84-.66 5.12-1.8l-2.49-1.88c-.69.46-1.58.72-2.63.72a4.6 4.6 0 0 1-4.33-3.1H9.6v1.94a7.76 7.76 0 0 0 6.9 4.12Z" clip-rule="evenodd"/><path fill="#FBBC04" fill-rule="evenodd" d="M12.17 19.92a4.35 4.35 0 0 1 0-2.87v-1.93H9.6a7.28 7.28 0 0 0 0 6.73l2.57-1.93Z" clip-rule="evenodd"/><path fill="#EA4335" fill-rule="evenodd" d="M16.5 13.96c1.1-.01 2.17.39 2.97 1.13l2.2-2.14A7.56 7.56 0 0 0 16.5 11c-2.92 0-5.59 1.6-6.9 4.12l2.57 1.93a4.6 4.6 0 0 1 4.33-3.09Z" clip-rule="evenodd"/></svg>
