<svg xmlns="http://www.w3.org/2000/svg" width="51" height="35" fill="none"><rect width="49" height="34" x=".879" y=".5" fill="#fff" stroke="#F3F3F3" rx="3.5"/><path fill="#54B230" fill-rule="evenodd" d="M33.473 17.597H35.93a1.692 1.692 0 0 1 .268.028l.016.004a.966.966 0 0 1 .203.07 1.014 1.014 0 0 1 .203.122 1.132 1.132 0 0 1 .285.322 1.062 1.062 0 0 1 .121.311 1.18 1.18 0 0 1-.162.899 1.082 1.082 0 0 1-.65.447l-.016.004a.498.498 0 0 1-.065.011 2.665 2.665 0 0 1-.203.017H33.473v-2.235Zm3.27-2.529a1.12 1.12 0 0 1-.082.709.958.958 0 0 1-.325.373.977.977 0 0 1-.243.124.958.958 0 0 1-.163.042l-.01.002a.902.902 0 0 1-.111.013 1.694 1.694 0 0 1-.122.006h-2.214v-2.062H35.727a1.438 1.438 0 0 1 .122.01 1.753 1.753 0 0 1 .071.008l.01.002a.907.907 0 0 1 .163.043 1.094 1.094 0 0 1 .284.153.907.907 0 0 1 .162.156.998.998 0 0 1 .203.421Zm5.034-10.693h.017v21.18a4.315 4.315 0 0 1-.341 1.673 4.199 4.199 0 0 1-.325.615l-.04.062-.041.06a4.653 4.653 0 0 1-.244.32l-.04.048-.041.046-.041.045-.04.044-.041.042-.04.042-.041.04-.041.04a4.9 4.9 0 0 1-.163.146l-.04.035c-.014.01-.027.022-.04.033l-.041.033-.04.032-.042.031-.04.03-.04.03-.041.029-.041.028c-.013.01-.027.018-.04.027l-.041.027-.04.026-.041.026-.041.024-.04.025-.041.023-.04.023-.041.023-.041.021-.04.022-.041.02-.04.02-.041.02-.041.02-.04.018a2.938 2.938 0 0 1-.041.018l-.04.017-.041.017-.041.017-.04.016-.041.015-.04.015-.042.014-.04.015-.04.013-.041.013-.041.013-.04.012-.041.012-.04.011-.041.011-.041.01-.04.01-.041.01-.04.01-.041.008-.041.008-.04.008-.041.008-.04.007-.041.006-.041.006-.04.006-.041.006-.04.005a5.024 5.024 0 0 1-.041.004L38 29.77c-.014 0-.027.002-.04.003l-.041.004c-.014 0-.027.002-.04.003l-.042.002-.04.003-.04.001-.041.002h-.041l-.04.001h-.041l-.009.001H31.416v-8.636H38.041l.041-.002.04-.002.041-.002.04-.002.041-.003.041-.003.04-.004.041-.004.041-.004.04-.005.041-.006.04-.006.041-.006.041-.007.04-.007.041-.008.04-.008.041-.01c.014-.002.028-.005.041-.009l.04-.01a4.788 4.788 0 0 0 .163-.045l.04-.013a2.757 2.757 0 0 0 .082-.027l.04-.015a2.44 2.44 0 0 0 .082-.031l.04-.017a1.654 1.654 0 0 0 .122-.055 5.115 5.115 0 0 0 .122-.063 2.006 2.006 0 0 0 .203-.124 3.223 3.223 0 0 0 .163-.122 1.926 1.926 0 0 0 .243-.236 1.843 1.843 0 0 0 .284-.433 1.864 1.864 0 0 0 .163-.555 2.057 2.057 0 0 0 0-.537 1.808 1.808 0 0 0-.203-.613 1.732 1.732 0 0 0-.285-.383 1.962 1.962 0 0 0-.324-.275 3.193 3.193 0 0 0-.163-.103l-.04-.023a3.88 3.88 0 0 0-.122-.063l-.04-.02-.041-.018a2.5 2.5 0 0 0-.041-.018l-.04-.017-.041-.017a3.819 3.819 0 0 0-.163-.059l-.04-.013-.04-.012-.042-.012a2.702 2.702 0 0 0-.08-.023l-.041-.01a2.683 2.683 0 0 0-.041-.01l-.04-.01-.041-.008-.04-.008-.041-.008-.041-.007-.04-.007-.041-.007a5.67 5.67 0 0 0-.04-.006l-.041-.005-.041-.005-.04-.005-.041-.004-.04-.004-.041-.003-.038-.003v-.05l.038-.005.04-.007.04-.007.041-.008.041-.009.04-.008.041-.01a2.677 2.677 0 0 0 .203-.057l.04-.013a3.184 3.184 0 0 0 .285-.117 2.556 2.556 0 0 0 .081-.041l.04-.022a3.094 3.094 0 0 0 .163-.1 2.081 2.081 0 0 0 .366-.32 1.814 1.814 0 0 0 .457-1.22 2.08 2.08 0 0 0-.051-.452 1.776 1.776 0 0 0-.203-.5 1.755 1.755 0 0 0-.569-.577 2.346 2.346 0 0 0-.325-.177l-.04-.018a4.957 4.957 0 0 0-.163-.063 2.419 2.419 0 0 0-.121-.04l-.041-.013a2.7 2.7 0 0 0-.081-.022l-.04-.01-.041-.01a2.66 2.66 0 0 0-.041-.01l-.04-.008-.041-.008-.04-.008-.041-.007-.041-.007-.04-.006-.041-.006-.04-.005-.041-.005-.041-.005-.04-.004-.041-.003-.04-.004-.042-.002-.04-.003h-.016l-.025-.002-.04-.003-.041-.002-.04-.002-.041-.002-.04-.002-.041-.001-.041-.002h-.04l-.041-.001H31.416V8.61a4.286 4.286 0 0 1 .412-1.831 4.095 4.095 0 0 1 .244-.441l.04-.063.041-.06.041-.06a3.48 3.48 0 0 1 .081-.11l.04-.053.041-.05a3.56 3.56 0 0 1 .041-.05l.04-.049.041-.046.04-.046a4.547 4.547 0 0 1 .163-.169l.04-.04.042-.037.04-.038.04-.036a5.236 5.236 0 0 1 .163-.137l.04-.033.041-.03a4.406 4.406 0 0 1 .081-.061l.041-.03.04-.028.041-.027.041-.027a3.8 3.8 0 0 1 .04-.027l.041-.025.04-.025.041-.024c.014-.009.027-.017.041-.024l.04-.023.041-.023.04-.022.041-.021.041-.021.04-.02.041-.02a4.19 4.19 0 0 1 .04-.02l.042-.018.04-.018.04-.018.041-.017.04-.016.041-.017.041-.015.04-.015.041-.015.041-.014.04-.014.041-.013.04-.013.041-.012.041-.012.04-.011.041-.012.04-.01.041-.01.041-.01.04-.009.041-.009.04-.008.041-.008.041-.008.04-.007.041-.007.04-.006.041-.006.041-.006.04-.005.041-.004.04-.005.042-.003.04-.004.04-.003.041-.003.041-.002.04-.002.041-.001.04-.002h.082l.01-.001H41.777Z" clip-rule="evenodd"/><path fill="#006CB9" fill-rule="evenodd" d="M8.138 19.072V8.612A4.282 4.282 0 0 1 8.59 6.7a4.137 4.137 0 0 1 .283-.482l.04-.06.041-.055.041-.055.04-.053.041-.05a4.082 4.082 0 0 1 .081-.098l.04-.047a3.74 3.74 0 0 1 .041-.045l.04-.044a4.008 4.008 0 0 1 .082-.085l.04-.04.04-.04.041-.038.04-.038.041-.036.041-.036a4.164 4.164 0 0 1 .243-.195l.04-.03a3.784 3.784 0 0 1 .163-.112l.04-.026.041-.026.04-.025.041-.024.04-.024.041-.023.04-.023.041-.022.04-.021.041-.021.04-.02.041-.02.04-.02.041-.018.04-.018.041-.018.041-.017.04-.017.041-.016.04-.015.041-.016.04-.014.041-.014.04-.014.041-.013c.014-.005.027-.01.04-.013l.041-.013.04-.012.041-.01.041-.012.04-.01.041-.01.04-.01.041-.01.04-.009.041-.008.04-.008.041-.008.04-.007.041-.007.04-.006.041-.006.04-.006.041-.005.041-.004.04-.005.041-.004.04-.003.041-.004.04-.002.041-.003.04-.002.041-.001.04-.002h.081l.041-.001H18.515v21.18a4.318 4.318 0 0 1-.237 1.404 3.878 3.878 0 0 1-.203.482 3.728 3.728 0 0 1-.203.364 3.81 3.81 0 0 1-.243.35 4.798 4.798 0 0 1-.162.196l-.04.046-.041.044-.04.044-.041.041a3.905 3.905 0 0 1-.081.081l-.04.039a4.9 4.9 0 0 1-.041.038l-.04.036-.042.037-.04.034-.04.035-.041.032-.04.033-.041.031-.04.031-.041.03-.04.03-.041.028-.04.028-.041.027-.04.027-.041.025-.041.026-.04.024-.041.024-.04.023a2.003 2.003 0 0 1-.082.045l-.04.022-.04.021a3.072 3.072 0 0 1-.041.02l-.04.02-.041.02-.04.019-.041.018-.04.018-.041.017-.041.017-.04.016-.041.016-.04.015-.041.015-.04.014-.041.014a3.18 3.18 0 0 1-.04.013l-.041.014-.04.012-.041.012-.04.012-.041.01-.041.012-.04.01-.041.01-.04.01-.041.008-.04.009-.041.008-.04.008-.041.007-.04.007-.041.006-.04.006-.041.006a2.807 2.807 0 0 1-.04.005l-.042.005-.04.005-.04.004-.041.003-.04.004-.041.002-.04.003-.041.002-.04.002-.041.001-.04.001h-.041l-.038.001H8.138v-8.927s.03.009.087.023l.04.01.04.01.041.01.04.01.041.01.041.009.04.009.041.009.04.009.041.008.04.01.041.008.04.008.041.009.04.008.041.008.04.008.041.008.041.008.04.008.041.007.04.008.041.007.04.008.041.007.04.007.041.007.04.007.041.007.04.007.041.007.04.006.041.007.041.006.04.006.041.007.04.006.041.006.04.006.041.006.04.006.041.005.04.006.041.006.04.005.041.005.041.006.04.005.041.005.04.005.041.005.04.005.041.004.04.005.041.005.04.004.041.004.04.005.041.004.04.004.041.004.041.004.04.004.041.004.04.003.041.004.04.003.041.004.04.003.041.004.04.003.041.003.04.003.041.003.041.002.04.003.041.003.04.002.041.003.04.002.041.002.04.002.041.003.04.001.041.002.04.002.041.002.04.002h.041l.041.002.04.002h.041l.04.002.041.001.04.001.041.001h.04l.041.001.04.001h.081l.041.001H12.643l.04-.002h.081l.041-.002h.04l.041-.002.04-.001.041-.002h.041l.04-.003.041-.001.04-.002.041-.002.04-.002.041-.003.04-.002.041-.002.04-.003.041-.003.04-.003.041-.003.04-.003.041-.004.041-.003.04-.004.041-.004.04-.004.041-.004.04-.004.041-.005.04-.004.041-.005.04-.005.041-.005.04-.006.041-.005.041-.006.04-.006.041-.006.04-.006.041-.007.04-.007.041-.006.04-.007.041-.008.04-.008.041-.007.04-.008.041-.009.04-.008.041-.009c.014-.002.027-.006.041-.009l.04-.009.041-.009.04-.01.041-.01.04-.01.041-.01.04-.012.041-.01.04-.012.041-.012.04-.012.041-.012.041-.013.04-.013.041-.014.04-.013.041-.014.04-.015.041-.015.04-.015.041-.016.04-.016.041-.017.04-.017.041-.017.04-.018.041-.019.041-.019.04-.02.041-.019.04-.021.041-.02.04-.023a3.874 3.874 0 0 0 .082-.046l.04-.023.04-.025.041-.025.04-.026.041-.027.041-.028.04-.029.041-.03.04-.03.041-.032a2.65 2.65 0 0 0 .081-.067l.04-.035.041-.037c.014-.013.028-.025.04-.038a2.546 2.546 0 0 0 .082-.081l.04-.043.04-.045a2.536 2.536 0 0 0 .285-.388 2.866 2.866 0 0 0 .202-.413 3.011 3.011 0 0 0 .163-.58 4.297 4.297 0 0 0 .06-.714V13.01H14.062l-.03 4.915a2.6 2.6 0 0 1-.051.503 2.195 2.195 0 0 1-.162.481 1.786 1.786 0 0 1-.284.426 1.677 1.677 0 0 1-.243.228 2.048 2.048 0 0 1-.203.138l-.04.023-.041.022a1.72 1.72 0 0 1-.122.06l-.04.017-.04.017a2.444 2.444 0 0 1-.365.113l-.041.008a2.415 2.415 0 0 1-.04.009l-.041.007a2.643 2.643 0 0 1-.04.007l-.041.006-.04.006-.041.005-.04.004-.041.004-.04.004a2.57 2.57 0 0 1-.082.005l-.04.002-.041.001-.04.001h-.162l-.041-.001-.04-.001-.041-.002-.04-.001-.041-.002-.04-.002-.041-.003-.041-.002-.04-.003-.041-.003-.04-.004-.041-.003-.04-.004-.041-.005-.04-.004-.041-.005-.04-.005-.041-.005-.04-.005-.041-.006-.041-.006-.04-.006-.041-.006-.04-.007-.041-.007-.04-.007-.041-.007-.04-.008-.041-.007-.04-.008-.041-.009-.04-.008-.041-.009-.04-.009-.041-.01-.041-.008-.04-.01-.041-.01-.04-.01-.041-.01-.04-.011-.041-.01-.04-.012-.041-.011-.04-.011-.041-.012-.04-.012-.041-.012-.041-.012-.04-.013-.041-.013-.04-.012-.041-.014-.04-.013-.041-.014-.04-.013-.041-.014-.04-.014-.041-.015-.04-.014-.041-.015-.04-.015-.041-.015-.041-.016-.04-.015-.041-.016-.04-.016-.041-.016-.04-.017-.041-.016-.04-.017-.041-.017-.04-.017-.041-.017-.04-.018-.041-.017-.041-.018-.04-.018-.041-.018-.04-.019-.041-.018-.04-.02-.041-.018-.04-.02-.041-.019a30.24 30.24 0 0 1-.087-.042Z" clip-rule="evenodd"/><path fill="#E10238" fill-rule="evenodd" d="m19.864 14.084-.087.073V8.61A4.281 4.281 0 0 1 20.23 6.7a3.846 3.846 0 0 1 .203-.358 3.857 3.857 0 0 1 .122-.183l.04-.056.04-.054.041-.053.04-.051a4.458 4.458 0 0 1 .163-.19l.04-.044A4.316 4.316 0 0 1 21 5.626l.04-.04.041-.04.041-.038.04-.038.041-.036.04-.035a4.87 4.87 0 0 1 .163-.134l.04-.031a5.98 5.98 0 0 1 .081-.06l.04-.03a4.983 4.983 0 0 1 .163-.11l.04-.025.041-.025.04-.024.041-.024.04-.023.041-.023.04-.021.041-.022.04-.02.041-.021.041-.02.04-.019.041-.019.04-.018.041-.018.04-.017.041-.016.04-.017.041-.015.04-.016.041-.014.04-.014.041-.014.041-.013.04-.013.041-.012.04-.013.041-.01.04-.012.041-.01.04-.01.041-.01.04-.01.041-.009.04-.008.042-.008.04-.008.04-.007.041-.007.04-.006.041-.006.04-.006.041-.005.04-.004.041-.005.04-.004.041-.003.04-.004.041-.002.041-.003.04-.002.041-.001.04-.002h.081l.019-.001H30.155v21.18a4.294 4.294 0 0 1-.359 1.712 4.781 4.781 0 0 1-.203.402 3.898 3.898 0 0 1-.121.199l-.04.062a4.088 4.088 0 0 1-.203.275l-.04.05a4.71 4.71 0 0 1-.082.096l-.04.046-.041.044-.04.044a3.993 3.993 0 0 1-.163.16l-.04.039a3.518 3.518 0 0 1-.04.036l-.041.036-.041.035-.04.034-.041.033-.04.033-.041.031-.04.031-.041.03-.04.03-.041.028-.04.028-.041.027-.04.027-.041.025-.04.026-.042.024-.04.024a5.342 5.342 0 0 1-.04.023l-.041.023-.04.022-.041.022-.04.02-.041.021-.04.02-.041.02-.04.018-.041.019-.04.018-.041.017-.041.017-.04.016-.041.015-.04.016-.041.015-.04.014-.041.014-.04.013-.041.014-.04.012-.041.012-.04.012a2.69 2.69 0 0 1-.041.01l-.041.012-.04.01a2.396 2.396 0 0 1-.041.01l-.04.009-.041.009-.04.009-.041.008-.04.007-.041.008-.04.007-.041.006-.04.006-.041.006-.041.005-.04.005-.041.005-.04.004-.041.003-.04.004-.041.002-.04.003-.041.002-.04.002-.041.001-.04.001h-.042l-.037.001H19.777v-9.78a3.725 3.725 0 0 0 .25.198l.04.03.04.028.041.028.04.027.041.027.04.026.041.025.04.025a3.347 3.347 0 0 0 .082.048l.04.023.041.023.04.022.041.022.04.02.041.021.04.02.041.02.04.02.041.019.04.018.041.018.04.018.041.018.04.017.041.017.041.016.04.016.041.015.04.016.041.015.04.015.041.014.04.014.041.014.04.013c.014.005.028.01.041.013l.04.013.042.013.04.013.04.012.041.012.04.011.041.012.04.01.041.011.04.011.041.01.04.01.041.01.04.01.041.01.041.01.04.009.041.008.04.01.041.008.04.008.041.008.04.008.041.008.04.007.041.008.04.007.041.007.041.007.04.006.041.007.04.006.041.006.04.006.041.006.04.006.041.005.04.006.041.005.04.005.042.005.04.005.04.004.041.005.04.004.041.004.04.004.041.004.04.004.041.003.04.004.041.003.04.003.041.003.041.004.04.002.041.003.04.003.041.002.04.003.041.002.04.002.041.002.04.002.041.002.04.001.041.002.041.001.04.002h.041l.04.002.041.001.04.001h.041l.04.001.041.001h.081l.04.001h.325l.04-.001.041-.001h.04l.041-.002h.04l.041-.002h.04l.042-.002.04-.001.04-.002h.041l.04-.002.041-.002.04-.002.041-.001.02-.001.02-.001.041-.002.04-.002.041-.003.04-.002.041-.003.041-.002.04-.003.041-.003.04-.003.041-.003.04-.004.041-.003.04-.004.041-.004.04-.003.041-.004.04-.004.041-.005.041-.004.04-.004.041-.005.04-.004.041-.005.04-.005.041-.005.04-.005.041-.005.04-.005.041-.005.04-.006.041-.005.041-.006.04-.006.041-.005.04-.006.041-.006.04-.006.041-.006.04-.007.041-.006.04-.006.041-.007.04-.006.041-.007.041-.007.04-.007.041-.007.04-.006.041-.008.04-.007.041-.007.04-.007.041-.008.04-.007.041-.008.04-.007.041-.008.041-.008.04-.008.041-.008.04-.008.041-.008.04-.008.041-.008.04-.009.041-.008.04-.009.041-.008.04-.009.041-.009.041-.009.04-.008.041-.01.04-.009.041-.009.04-.01.041-.009.04-.01.041-.009.04-.01.041-.01v-1.792l-.04.02-.04.02-.041.02-.04.02-.041.02-.04.02-.041.019-.041.019-.04.018-.041.02-.04.018-.041.018-.04.018-.041.018-.04.017-.041.017-.04.018-.041.017-.04.016-.041.017-.04.016-.042.016-.04.016-.04.015-.041.016-.04.015-.041.015-.04.014-.041.015-.04.014-.041.014-.04.014-.041.013-.04.013-.041.013-.041.013-.04.013-.041.012-.04.012-.041.012-.04.012-.041.011-.04.011-.041.011-.04.01-.041.011-.04.01-.041.01-.041.01-.04.01-.041.01-.04.008-.041.01-.04.008-.041.008-.04.008-.041.009-.04.007-.041.008-.04.007-.041.007-.041.007-.04.006-.041.007-.04.006-.041.006-.04.006-.041.005-.04.005-.041.006-.04.004-.041.005-.04.004-.042.005-.04.004-.04.003-.041.004-.04.003-.025.002-.016.001-.04.003-.041.003-.04.002-.041.002-.04.002-.041.001-.04.002h-.041l-.041.001h-.162l-.04-.001-.041-.001-.04-.002c-.014 0-.028 0-.041-.002l-.04-.002-.041-.002-.04-.003-.041-.003-.041-.004c-.014 0-.027-.002-.04-.004l-.041-.004-.04-.005-.041-.005-.04-.005-.041-.006-.04-.006a2.642 2.642 0 0 1-.041-.007l-.04-.006-.041-.008-.04-.008-.041-.008-.041-.009-.04-.01-.041-.009a2.677 2.677 0 0 1-.04-.01l-.041-.01a3.927 3.927 0 0 1-.081-.024c-.014-.003-.027-.008-.04-.012a2.396 2.396 0 0 1-.122-.04l-.04-.015-.041-.015a4.898 4.898 0 0 1-.041-.016l-.04-.016-.041-.017-.04-.018-.041-.019a3.805 3.805 0 0 1-.162-.082l-.04-.023-.041-.023-.04-.025a4.003 4.003 0 0 1-.041-.026c-.014-.008-.028-.017-.04-.026a2.284 2.284 0 0 1-.203-.15l-.041-.035a2.306 2.306 0 0 1-.122-.112l-.04-.04a2.352 2.352 0 0 1-.325-.418 2.455 2.455 0 0 1-.202-.405 2.686 2.686 0 0 1-.122-.384 3.14 3.14 0 0 1-.081-.493 4.002 4.002 0 0 1 .04-1.034 3.142 3.142 0 0 1 .163-.577 2.67 2.67 0 0 1 .364-.638 2.452 2.452 0 0 1 .122-.142l.04-.043a2.584 2.584 0 0 1 .163-.153l.04-.034a2.51 2.51 0 0 1 .082-.064l.04-.03.04-.03c.014-.008.027-.018.041-.027a2.348 2.348 0 0 1 .081-.052l.04-.025.041-.023.04-.023a1.965 1.965 0 0 1 .122-.063l.04-.02c.014-.005.028-.012.041-.018l.041-.018.04-.017.041-.016a2.85 2.85 0 0 1 .04-.016l.041-.015a2.802 2.802 0 0 1 .162-.055l.04-.012.041-.012.04-.011.041-.011.041-.01.04-.01.041-.01.04-.008.041-.008.04-.008.041-.008.04-.006.041-.007.04-.006.041-.006.04-.006.041-.005.041-.004.04-.004.041-.004.04-.004.041-.003.04-.003.041-.002.04-.003.041-.001.04-.002h.041l.04-.002h.203l.041.001.04.002.041.001.04.002.041.002.04.002.041.003.04.003h.017l.024.003.04.003.041.003.041.004.04.004.041.004.04.005.041.004.04.005.041.005.04.005.041.005.04.006.041.006.04.006.041.006.041.007.04.007.041.007.04.007.041.007.04.008.041.008.04.008.041.008.04.009.041.009.04.009.041.009.041.01.04.01.041.01.04.01.041.01.04.01.041.011.04.011.041.012.04.011.041.012.04.012.041.013.041.012.04.013.041.013.04.013.041.014.04.014.041.014.04.014.041.014.04.015.041.015.04.015.041.016.041.015.04.016.041.016.04.017.041.016.04.017.041.017.04.017.041.018.04.017.041.018.04.018.041.019.041.018.04.019.041.019.04.02.041.019.04.02.041.019.04.02.041.02.04.02.041.02v-1.792l-.04-.01-.04-.01-.041-.01-.04-.01-.041-.009-.04-.01-.041-.008-.041-.01-.04-.008-.041-.01-.04-.008-.041-.01-.04-.008-.041-.008-.04-.009-.041-.008-.04-.009-.041-.008-.04-.008-.041-.008-.04-.008-.042-.008-.04-.008-.04-.008-.041-.008-.04-.007-.041-.008-.04-.007-.041-.008-.04-.007-.041-.007-.04-.007-.041-.007-.04-.007-.041-.007-.041-.007-.04-.007-.041-.007-.04-.006-.041-.007-.04-.006-.041-.006-.04-.006-.041-.007-.04-.006-.041-.006-.04-.005-.041-.006-.041-.006-.04-.005-.041-.006-.04-.005-.041-.006-.04-.005-.041-.005-.04-.005-.041-.005-.04-.005-.041-.004-.04-.005-.041-.004-.041-.005-.04-.004-.041-.004-.04-.004-.041-.004-.04-.004-.041-.004-.04-.003-.041-.004-.04-.003-.041-.003-.04-.003-.042-.003-.04-.003-.04-.003-.041-.002-.04-.003-.041-.002-.04-.002-.041-.002-.02-.001h-.02l-.041-.002-.04-.002-.041-.002-.04-.001-.041-.002-.041-.001-.04-.001-.041-.002h-.04l-.041-.002h-.04l-.041-.001-.04-.001h-.041l-.04-.001h-.041l-.04-.001h-.365l-.041.002h-.081l-.04.002h-.041l-.041.002-.04.001-.041.002-.04.001-.041.002-.04.001-.041.002-.04.002-.041.002-.04.002-.041.002-.04.003-.041.002-.041.003-.04.002-.041.003-.04.003-.041.003-.04.004-.041.003-.04.003-.041.004-.04.004-.041.004-.04.004-.041.004-.04.004-.041.005-.041.005-.04.004-.041.005-.04.005-.041.005-.04.006-.041.005-.04.006-.041.006-.04.006-.041.006-.04.006-.041.007-.041.006-.04.007-.041.007-.04.007-.041.008-.04.007-.041.008-.04.008-.041.008-.04.008-.041.009-.04.009-.041.009-.041.009-.04.009-.041.01-.04.01-.041.01-.04.01-.041.01-.04.01-.041.011-.04.012-.041.011-.04.012-.041.012-.041.012-.04.012-.041.013-.04.013-.041.013-.04.013-.041.014-.04.014-.041.015-.04.014-.041.015-.04.016-.041.015-.041.017-.04.016-.041.017-.04.017-.041.017-.04.018-.041.018-.04.019-.041.018a3.828 3.828 0 0 0-.04.02l-.041.02-.04.02-.041.02-.04.022-.041.022-.041.022-.04.022a3.918 3.918 0 0 0-.163.096l-.04.026a4.787 4.787 0 0 0-.04.026l-.041.026-.04.027-.041.028-.04.03c-.015.009-.028.019-.042.029l-.04.03a3.313 3.313 0 0 0-.122.095Z" clip-rule="evenodd"/></svg>
