<svg xmlns="http://www.w3.org/2000/svg" width="64" height="40" fill="none"><rect width="64" height="40" fill="#fff" rx="3"/><path fill="#1C34C3" d="M28.656 27.255h-3.861l2.415-14.001h3.861l-2.415 14ZM42.654 13.596A10.074 10.074 0 0 0 39.19 13c-3.813 0-6.498 1.906-6.515 4.632-.031 2.01 1.923 3.128 3.384 3.798 1.494.685 2.002 1.133 2.002 1.743-.015.938-1.207 1.37-2.319 1.37-1.541 0-2.367-.222-3.623-.744l-.508-.224-.54 3.143c.905.387 2.574.73 4.306.745 4.052 0 6.69-1.877 6.72-4.781.016-1.594-1.016-2.815-3.24-3.813-1.351-.64-2.178-1.073-2.178-1.728.016-.596.7-1.206 2.224-1.206a6.935 6.935 0 0 1 2.876.536l.35.148.525-3.023Z"/><path fill="#1C34C3" fill-rule="evenodd" d="M49.566 13.254h2.987l3.116 14h-3.576s-.35-1.608-.46-2.1h-4.958l-.81 2.1h-4.053l5.736-12.839c.398-.908 1.097-1.161 2.018-1.161Zm-.238 5.123s-1.223 3.113-1.541 3.918h3.21c-.16-.7-.89-4.052-.89-4.052l-.27-1.206c-.114.31-.278.738-.39 1.026-.074.195-.125.326-.119.314ZM8.064 13.254h6.212c.842.03 1.526.283 1.748 1.177l1.35 6.432v.002l.414 1.936 3.782-9.547h4.083l-6.07 13.986H15.5l-3.442-12.166C10.87 14.424 9.515 13.9 8 13.537l.064-.283Z" clip-rule="evenodd"/></svg>
