<svg width="80" height="80" viewBox="0 0 80 80" fill="none" xmlns="http://www.w3.org/2000/svg">
<g clip-path="url(#clip0_2483_9556)">
<path d="M15.9776 43.968C11.1189 43.968 5.34584 44.544 2.95838 46.928C2.95838 46.928 2.95838 46.928 2.95439 46.932C2.95439 46.932 2.95439 46.932 2.95039 46.936C0.574906 49.332 -9.13044e-07 55.112 -7.00082e-07 59.984C-4.8712e-07 64.856 0.574907 70.64 2.95039 73.032C2.95039 73.032 2.95039 73.032 2.95439 73.036C2.95439 73.036 2.95438 73.036 2.95838 73.04C5.34584 75.424 11.1189 76 15.9776 76C20.8364 76 26.6094 75.424 28.9969 73.04C28.9969 73.04 28.9969 73.04 29.0009 73.036C29.0049 73.032 29.0009 73.036 29.0049 73.032C31.3804 70.636 31.9553 64.856 31.9553 59.984C31.9553 55.112 31.3804 49.328 29.0049 46.936C29.0049 46.936 29.0049 46.936 29.0009 46.932C28.9969 46.928 29.0009 46.932 28.9969 46.928C26.6094 44.544 20.8364 43.968 15.9776 43.968Z" fill="#757575"/>
<path d="M63.9776 3.968C59.1189 3.968 53.3458 4.544 50.9584 6.928C50.9584 6.928 50.9584 6.928 50.9544 6.932C50.9544 6.932 50.9544 6.932 50.9504 6.936C48.5749 9.332 48 15.112 48 19.984C48 24.856 48.5749 30.64 50.9504 33.032C50.9504 33.032 50.9504 33.032 50.9544 33.036C50.9544 33.036 50.9544 33.036 50.9584 33.04C53.3458 35.424 59.1189 36 63.9776 36C68.8364 36 74.6094 35.424 76.9969 33.04C76.9969 33.04 76.9969 33.04 77.0009 33.036C77.0049 33.032 77.0009 33.036 77.0049 33.032C79.3804 30.636 79.9553 24.856 79.9553 19.984C79.9553 15.112 79.3804 9.328 77.0049 6.936C77.0049 6.936 77.0049 6.936 77.0009 6.932C76.9969 6.928 77.0009 6.932 76.9969 6.92799C74.6094 4.544 68.8364 3.968 63.9776 3.968Z" fill="#757575"/>
<path d="M40 60C40 64.8656 40.7193 70.6467 43.6963 73.0375C43.6963 73.0375 43.6963 73.0375 43.7013 73.0415C43.7013 73.0415 43.7013 73.0415 43.7063 73.0455C46.6983 75.4243 53.9161 76 60 76C66.0839 76 73.3067 75.4243 76.2937 73.0455C76.2937 73.0455 76.2937 73.0455 76.2987 73.0415C76.2987 73.0415 76.2987 73.0415 76.3037 73.0375C79.2807 70.6467 80 64.8656 80 60C80 55.1344 79.2807 49.3533 76.3037 46.9625C76.3037 46.9625 76.3037 46.9625 76.2987 46.9585C76.2937 46.9545 76.2987 46.9585 76.2937 46.9545C73.3017 44.5757 66.0839 44 60 44C53.9161 44 46.6933 44.5757 43.7063 46.9545C43.7063 46.9545 43.7063 46.9545 43.7013 46.9585C43.6963 46.9625 43.7013 46.9585 43.6963 46.9625C40.7193 49.3533 40 55.1344 40 60Z" fill="#E0E0E0"/>
<path d="M-1.39876e-06 20C-9.73403e-07 24.8656 0.719276 30.6467 3.6963 33.0375C3.6963 33.0375 3.6963 33.0375 3.7013 33.0415C3.7013 33.0415 3.7013 33.0415 3.70629 33.0455C6.6983 35.4243 13.9161 36 20 36C26.0839 36 33.3067 35.4243 36.2937 33.0455C36.2937 33.0455 36.2937 33.0455 36.2987 33.0415C36.2987 33.0415 36.2987 33.0415 36.3037 33.0375C39.2807 30.6467 40 24.8656 40 20C40 15.1344 39.2807 9.35332 36.3037 6.96251C36.3037 6.96251 36.3037 6.96251 36.2987 6.95852C36.2937 6.95452 36.2987 6.95852 36.2937 6.95452C33.3017 4.57571 26.0839 4 20 4C13.9161 4 6.6933 4.57571 3.70629 6.95452C3.70629 6.95452 3.70629 6.95452 3.7013 6.95852C3.6963 6.96252 3.70129 6.95852 3.6963 6.96252C0.719274 9.35332 -1.82413e-06 15.1344 -1.39876e-06 20Z" fill="#E0E0E0"/>
<path d="M38.5095 14.0378C40.9729 11.6218 45.2004 11.3695 45.2004 10.4C45.2004 9.43044 40.9729 9.1782 38.5095 6.76221C36.0461 4.34621 35.789 0.199998 34.8004 0.199998C33.8118 0.199998 33.5546 4.34621 31.0913 6.76221C28.6279 9.1782 24.4004 9.43044 24.4004 10.4C24.4004 11.3695 28.6279 11.6218 31.0913 14.0378C33.5546 16.4538 33.8118 20.6 34.8004 20.6C35.789 20.6 36.0461 16.4538 38.5095 14.0378Z" fill="#757575"/>
</g>
<defs>
<clipPath id="clip0_2483_9556">
<rect width="80" height="80" fill="white" transform="translate(0 80) rotate(-90)"/>
</clipPath>
</defs>
</svg>
