<svg width="74" height="100" viewBox="0 0 74 100" fill="none" xmlns="http://www.w3.org/2000/svg">
  <path d="M67.7896 0L62.6619 4.11855L57.5289 0L52.4011 4.11855L47.2682 0L42.1353 4.11855L37.0075 0L31.8746 4.11855L26.7468 0L21.6138 4.11855L16.4809 0L11.348 4.11855L6.21501 0L0.916992 4.25258V95.7474L6.20986 100L11.3428 95.8763L16.4706 100L21.6035 95.8763L26.7313 100L31.8642 95.8763L36.9972 100L42.125 95.8763L47.2579 100L52.3857 95.8763L57.5186 100L62.6515 95.8763L67.7896 100L73.0825 95.7474V4.25258L67.7896 0Z" fill="#E0E0E0"/>
  <path d="M49.4449 18.7216H7.10547V22.5103H49.4449V18.7216Z" fill="#757575"/>
  <path d="M49.4449 30.2784H7.10547V34.067H49.4449V30.2784Z" fill="#757575"/>
  <path d="M49.4449 41.8351H7.10547V45.6237H49.4449V41.8351Z" fill="#757575"/>
  <path d="M66.8991 18.7216H56.9102V22.5103H66.8991V18.7216Z" fill="white"/>
  <path d="M66.8991 30.2783H56.9102V34.067H66.8991V30.2783Z" fill="white"/>
  <path d="M66.8991 41.835H56.9102V45.6237H66.8991V41.835Z" fill="white"/>
  <path d="M66.8993 63.9176H50.4043V71.1341H66.8993V63.9176Z" fill="#757575"/>
  <path d="M7.13379 55.5258H66.8714" stroke="#271B3D" stroke-width="0.510311" stroke-miterlimit="10"/>
  <path d="M51.2154 89.8917C50.6639 89.8917 50.1845 89.7731 49.8082 89.4999C48.0556 88.2473 47.8597 85.768 47.6845 83.5772C47.4886 81.0618 47.2876 79.5205 45.736 79.5205C44.437 79.5205 43.5659 81.7731 42.7205 83.9484C41.705 86.5669 40.6535 89.2731 38.6122 89.2731C36.4473 89.2731 36.1895 87.1752 35.937 85.1494C35.6741 83.0205 35.4266 81.0051 33.2256 81.0051V80.4948C35.8802 80.4948 36.1792 82.9329 36.4473 85.0875C36.7308 87.3762 37.1586 88.4071 38.6071 88.4535C39.8648 88.4896 41.2875 86.2267 42.2411 83.768C43.1896 81.3247 44.2978 78.2886 45.9473 78.2886C48.0504 78.2886 48.2721 80.3762 48.4061 82.8195C48.5401 85.2628 48.5401 87.9741 50.102 89.0927C52.8546 91.0618 62.4011 83.2473 66.2259 79.4174L67.0558 80.3711C66.5609 80.804 56.0093 89.8968 51.2154 89.8968V89.8917Z" fill="#CCCCCC"/>
</svg>