<svg width="80" height="80" viewBox="0 0 80 80" fill="none" xmlns="http://www.w3.org/2000/svg">
	<g clip-path="url(#clip0_2584_6481)">
	  <path d="M79.9999 0H40V39.9999H79.9999V0Z" fill="#757575"/>
	  <path d="M71.4366 14.3426C74.7128 14.3426 77.3687 11.6867 77.3687 8.41043C77.3687 5.13419 74.7128 2.47827 71.4366 2.47827C68.1603 2.47827 65.5044 5.13419 65.5044 8.41043C65.5044 11.6867 68.1603 14.3426 71.4366 14.3426Z" fill="#E0E0E0"/>
	  <path d="M70.8753 24.5383C65.3379 24.5383 62.8872 32.6033 59.0083 32.6033C54.9361 32.6033 56.7333 15.4783 50.9219 15.4783C46.9533 15.4783 41.9711 26.1877 40 33.159V40H43.6031C43.626 39.927 45.908 26.8388 50.3351 26.9083C53.8943 26.9639 53.9435 36.1975 57.9296 36.6593C62.1283 37.1472 63.0067 31.0476 68.4492 31.0476C73.2785 31.0476 75.6994 40 75.6994 40H79.9999V35.3189C79.9999 33.4455 76.4126 24.54 70.877 24.54L70.8753 24.5383Z" fill="#E0E0E0"/>
	  <path d="M25.9218 50H4.07821C1.82588 50 0 51.8259 0 54.0782V75.9218C0 78.1741 1.82588 80 4.07821 80H25.9218C28.1741 80 30 78.1741 30 75.9218V54.0782C30 51.8259 28.1741 50 25.9218 50Z" fill="#E0E0E0"/>
	  <path d="M14.5919 69.7092L13.4895 66.928H7.28028L6.17781 69.7092H4.40088L9.43142 57.2632H11.3585L16.3711 69.7092H14.5942H14.5919ZM10.3837 58.8505L7.74635 65.5687H13.0391L10.3837 58.8505Z" fill="#757575"/>
	  <path d="M23.5888 69.7093V68.6831C22.8606 69.5036 21.8119 69.9328 20.5974 69.9328C19.0826 69.9328 17.4558 68.9066 17.4558 66.9482C17.4558 64.9897 19.0647 63.9815 20.5974 63.9815C21.832 63.9815 22.8606 64.3727 23.5888 65.1932V63.5701C23.5888 62.3762 22.6163 61.6854 21.3077 61.6854C20.2232 61.6854 19.3448 62.0588 18.5403 62.9352L17.886 61.9649C18.8585 60.9566 20.017 60.4714 21.4959 60.4714C23.423 60.4714 24.9938 61.3299 24.9938 63.512V69.707H23.5911L23.5888 69.7093ZM23.5888 67.8067V66.0897C23.0465 65.3609 22.092 64.9897 21.1195 64.9897C19.7907 64.9897 18.8742 65.8102 18.8742 66.9482C18.8742 68.0862 19.7907 68.9268 21.1195 68.9268C22.092 68.9268 23.0465 68.5534 23.5888 67.8067Z" fill="#757575"/>
	  <circle cx="15.7997" cy="9.52504" r="3.52504" transform="rotate(90 15.7997 9.52504)" fill="#E0E0E0"/>
	  <circle cx="15.7997" cy="21.1237" r="3.52504" transform="rotate(90 15.7997 21.1237)" fill="#E0E0E0"/>
	  <circle cx="15.7997" cy="32.7223" r="3.52504" transform="rotate(90 15.7997 32.7223)" fill="#757575"/>
	  <circle cx="15.7994" cy="32.7216" r="5.68555" transform="rotate(90 15.7994 32.7216)" stroke="#271B3D" stroke-width="0.227422"/>
	  <path d="M75.001 80L75.001 50L70.001 50L70.001 80L75.001 80Z" fill="#757575"/>
	  <path d="M62.001 80L62.001 50L57.001 50L57.001 80L62.001 80Z" fill="#757575"/>
	  <path d="M49.0002 80L49.0002 50L44.0002 50L44.0002 80L49.0002 80Z" fill="#757575"/>
	  <path d="M76.3637 69C74.9082 69 74.4716 70.0689 72.7182 70.0689C70.9647 70.0689 70.5281 69 69.0726 69C67.5125 69 67.0008 70.3509 67.0008 71.9929C67.0008 73.6349 67.5125 74.9857 69.0726 74.9857C70.5281 74.9857 70.9647 73.9169 72.7182 73.9169C74.4716 73.9169 74.9082 74.9857 76.3637 74.9857C77.9238 74.9857 78.4355 73.6349 78.4355 71.9929C78.4355 70.3509 77.9238 69 76.3637 69Z" fill="#E0E0E0"/>
	  <path d="M63.3637 58C61.9082 58 61.4716 59.0689 59.7182 59.0689C57.9647 59.0689 57.5281 58 56.0726 58C54.5125 58 54.0008 59.3509 54.0008 60.9929C54.0008 62.6349 54.5125 63.9857 56.0726 63.9857C57.5281 63.9857 57.9647 62.9169 59.7182 62.9169C61.4716 62.9169 61.9082 63.9857 63.3637 63.9857C64.9238 63.9857 65.4355 62.6349 65.4355 60.9929C65.4355 59.3509 64.9238 58 63.3637 58Z" fill="#E0E0E0"/>
	  <path d="M50.363 66C48.9075 66 48.4709 67.0689 46.7174 67.0689C44.964 67.0689 44.5274 66 43.0719 66C41.5117 66 41 67.3509 41 68.9929C41 70.6349 41.5117 71.9857 43.0719 71.9857C44.5274 71.9857 44.964 70.9169 46.7174 70.9169C48.4709 70.9169 48.9075 71.9857 50.363 71.9857C51.9231 71.9857 52.4348 70.6349 52.4348 68.9929C52.4348 67.3509 51.9231 66 50.363 66Z" fill="#E0E0E0"/>
	</g>
	<defs>
	  <clipPath id="clip0_2584_6481">
		<rect width="80" height="80" fill="white"/>
	  </clipPath>
	</defs>
  </svg>