<svg width="80" height="80" viewBox="0 0 80 80" fill="none" xmlns="http://www.w3.org/2000/svg">
<path d="M70.8227 17.1683C73.8744 17.1683 77.2598 18.623 80 20.1745V13.4403C80 9.31419 77.664 7 73.5407 7H6.45562C2.33604 6.99628 0 9.31047 0 13.4366V47.3717C0 51.4978 2.33604 53.812 6.45933 53.812H29.5824C28.1214 56.4871 26.8014 59.7091 26.8014 62.626C26.8014 66.6553 28.1214 69.3676 30.7207 71.3916C32.9455 73.1254 35.9898 73.9662 39.9981 73.9662C44.0065 73.9662 47.0508 73.1254 49.2756 71.3916C51.8749 69.3676 53.1949 66.659 53.1949 62.626C53.1949 59.7053 51.8749 56.4871 50.4139 53.812H73.537C77.6603 53.812 79.9963 51.4978 79.9963 47.3717V40.645C77.2561 42.1964 73.8744 43.6512 70.819 43.6512C66.8032 43.6512 64.1001 42.3266 62.083 39.7185C60.355 37.4862 59.517 34.4316 59.517 30.4097C59.517 26.3878 60.355 23.3332 62.083 21.1009C64.1001 18.4928 66.7995 17.1683 70.819 17.1683H70.8227Z" fill="#F0F0F0"/>
<path d="M39.9865 20.4834H6.6145V23.8321H39.9865V20.4834Z" fill="#DDDDDD"/>
<path d="M39.9865 13.7158H6.6145V17.0645H39.9865V13.7158Z" fill="#DDDDDD"/>
<path d="M26.6377 27.1804H6.6145V30.5291H26.6377V27.1804Z" fill="#DDDDDD"/>
</svg>
