<svg width="80" height="80" viewBox="0 0 80 80" fill="none" xmlns="http://www.w3.org/2000/svg">
<g clip-path="url(#clip0_2293_37324)">
<path d="M6.45466 7C2.33301 7 0 9.31262 0 13.4396V73.9767H59.8473L59.9917 13.4396C59.9917 9.31262 57.6587 7 53.537 7L6.45466 7Z" fill="#F0F0F0"/>
<path d="M80.0001 27.0774H43.3274V63.8897H80.0001V27.0774Z" fill="#DDDDDD"/>
<path d="M36.6616 27.0774H6.66577V43.8086H36.6616V27.0774Z" fill="#DDDDDD"/>
<path d="M36.6616 47.5229H6.66943V50.4974H36.6616V47.5229Z" fill="#DDDDDD"/>
<path d="M23.3301 54.219H6.66577V57.1934H23.3301V54.219Z" fill="#DDDDDD"/>
<path d="M60.1989 51.7429L59.3768 49.5232H53.785L52.9629 51.7429H49.8152L54.8404 38.6479H58.3214L63.3466 51.7429H60.1989ZM56.5809 41.4365L54.5479 47.073H58.614L56.5809 41.4365Z" fill="white"/>
<path d="M70.179 51.7429V50.7427C69.5347 51.5272 68.42 51.9771 67.1869 51.9771C65.6834 51.9771 63.9207 50.9584 63.9207 48.8354C63.9207 46.5971 65.6834 45.7754 67.1869 45.7754C68.4608 45.7754 69.5532 46.1881 70.179 46.9317V45.7345C70.179 44.7716 69.3569 44.1432 68.1053 44.1432C67.1091 44.1432 66.1722 44.5373 65.3871 45.2623L64.4095 43.5149C65.5649 42.4738 67.0499 42.0239 68.5348 42.0239C70.7049 42.0239 72.6787 42.8865 72.6787 45.6156V51.7429H70.1753H70.179ZM70.179 49.4637V48.2888C69.768 47.7386 68.9866 47.4448 68.1867 47.4448C67.2091 47.4448 66.4055 47.9765 66.4055 48.88C66.4055 49.7835 67.2091 50.2928 68.1867 50.2928C68.9866 50.2928 69.768 50.0177 70.179 49.4674V49.4637Z" fill="white"/>
<path d="M0 13.4396V16.9829H59.9917V13.4396C59.9917 9.31262 57.6587 7 53.537 7H6.45466C2.33301 7 0 9.31262 0 13.4396Z" fill="#DDDDDD"/>
</g>
<defs>
<clipPath id="clip0_2293_37324">
<rect width="80" height="66.9767" fill="white" transform="translate(0 7)"/>
</clipPath>
</defs>
</svg>
