<svg width="24" height="24" viewBox="0 0 24 24" fill="none" xmlns="http://www.w3.org/2000/svg">
  <path fill-rule="evenodd" clip-rule="evenodd" d="M12.0002 2.25V4C16.4185 4 20.0003 7.58172 20.0003 12C20.0003 15.7277 17.4507 18.8599 14.0003 19.748V19.7479C13.8301 19.7917 13.6577 19.8301 13.4833 19.8628C13.3371 19.8905 13.1906 19.914 13.0442 19.9334L13.0441 19.9325C12.7024 19.977 12.3539 20 12 20C11.646 20 11.2975 19.977 10.9556 19.9324L10.9556 19.9327C10.9148 19.9273 10.874 19.9216 10.8333 19.9155C9.61036 19.7369 8.47722 19.2815 7.49949 18.615C7.37365 18.5295 7.25011 18.4404 7.12904 18.3477L7.12954 18.347C6.57546 17.9212 6.07872 17.4245 5.65291 16.8704L5.65171 16.8713C5.48551 16.6545 5.32941 16.4276 5.18438 16.1911C4.69453 15.3962 4.33985 14.5091 4.15239 13.5619C4.11788 13.3895 4.08925 13.2168 4.06641 13.0441L4.06749 13.0439C4.02297 12.7022 4 12.3538 4 12C4 11.646 4.02299 11.2974 4.06756 10.9555L4.06708 10.9555C4.07694 10.8811 4.08784 10.807 4.09976 10.733C4.281 9.594 4.70266 8.53507 5.31109 7.60992C5.41864 7.44572 5.53236 7.28525 5.6521 7.12891L5.65294 7.12955C5.65535 7.12641 5.65777 7.12327 5.66018 7.12014L6.86037 8.02028C6.74015 8.17531 6.62679 8.33593 6.52074 8.50168C6.06043 9.22439 5.7454 10.0333 5.59639 10.8785C5.53303 11.2428 5.5 11.6176 5.5 12C5.5 12.4751 5.55096 12.9382 5.64772 13.3843C5.72894 13.7544 5.84397 14.1233 5.99475 14.4873C6.11754 14.7837 6.25938 15.0657 6.41813 15.3325C6.91672 16.1658 7.59663 16.8782 8.40335 17.4151C9.17682 17.9275 10.054 18.271 10.9714 18.4191C11.3064 18.4723 11.65 18.5 12 18.5C12.4506 18.5 12.8904 18.4542 13.3151 18.3669C13.5263 18.323 13.7372 18.2681 13.947 18.2019L13.9474 18.2032C16.5859 17.3758 18.5 14.9114 18.5 12C18.5 8.41023 15.59 5.50013 12.0002 5.5V7.25L9.00024 4.75L12.0002 2.25Z" fill="#007CBA"/>
</svg>