<svg width="16" height="16" viewBox="0 0 16 16" fill="none" xmlns="http://www.w3.org/2000/svg">
<g id="W" clip-path="url(#clip0_1256_184463)">
<rect width="16" height="16" fill="#646970"/>
<rect id="Rectangle 1" width="16" height="16" rx="2" fill="#646970"/>
<g id="Speech bubble">
<path id="Vector" d="M3.04855 3.86047C3.2036 3.67312 3.42971 3.55683 3.6752 3.55037C4.17911 3.51807 4.46983 3.75711 4.54735 4.26747C4.85745 6.34771 5.19339 8.11786 5.54871 9.57144L7.73878 5.41096C7.93905 5.03626 8.18454 4.83599 8.48818 4.81661C8.92749 4.7843 9.19882 5.0621 9.30865 5.65645C9.51538 6.81932 9.83194 7.96281 10.2519 9.06753C10.5167 6.53506 10.956 4.70032 11.5698 3.56975C11.6925 3.31134 11.9445 3.14337 12.2287 3.13045C12.4549 3.11107 12.681 3.18213 12.8554 3.33072C13.0363 3.46639 13.1461 3.67958 13.159 3.90569C13.1719 4.07366 13.1396 4.24163 13.0621 4.38376C12.6745 5.10732 12.3515 6.30895 12.0995 7.98865C11.854 9.6102 11.7571 10.8829 11.8217 11.7938C11.8476 12.0199 11.8024 12.246 11.7054 12.4463C11.6085 12.653 11.4018 12.7952 11.1757 12.8081C10.9108 12.8275 10.6524 12.7047 10.3875 12.4398C9.45724 11.4902 8.72076 10.0753 8.17808 8.19538C7.53851 9.47453 7.05398 10.4371 6.73742 11.0702C6.14953 12.2008 5.64562 12.7758 5.23215 12.8081C4.96082 12.8275 4.72825 12.6014 4.5409 12.1233C4.03053 10.8183 3.4814 8.29229 2.8935 4.54527C2.84182 4.29978 2.89996 4.05428 3.04855 3.86047Z" fill="white"/>
</g>
</g>
<defs>
<clipPath id="clip0_1256_184463">
<rect width="16" height="16" fill="white"/>
</clipPath>
</defs>
</svg>
