<?xml version="1.0" encoding="utf-8"?>
<!-- Generator: Adobe Illustrator 27.0.0, SVG Export Plug-In . SVG Version: 6.00 Build 0)  -->
<svg version="1.1" id="Capa_1" xmlns="http://www.w3.org/2000/svg" xmlns:xlink="http://www.w3.org/1999/xlink" x="0px" y="0px"
	 viewBox="0 0 543 132.1" style="enable-background:new 0 0 543 132.1;" xml:space="preserve">
<style type="text/css">
	.st0{fill:#0871C4;}
</style>
<g>
	<path class="st0" d="M253.9,18.3c5.1,0,9.3-4.2,9.3-9.3c-0.1-5-4.3-9.1-9.3-9c-5,0.1-9.1,4.3-9,9.3C245,14.2,249,18.2,253.9,18.3z"
		/>
	<path class="st0" d="M140.7,74.1c10.8,0,17.7-5,20.5-9.3l-10.5-9.6c-2.1,3.1-5.6,5-9.3,5c-6.5,0-11.8-4.6-11.8-12.1
		s5-12.1,11.8-12.1c3.7-0.2,7.2,1.6,9.3,4.6l10.5-9.6c-3.1-4.3-9.6-9.3-20.5-9.3c-15.8,0-27.3,10.5-27.3,26.3S125.2,74.1,140.7,74.1
		L140.7,74.1z"/>
	<path class="st0" d="M107.5,72.8V41.5c0-15.5-11.5-20.1-23.2-20.1c-7.7,0-16.4,2.2-22.6,7.8l5.9,11.2c3.9-3.3,8.9-5.2,14-5.2
		c6.5,0,10.2,3.1,10.2,7.4v5c-3.1-3.7-9-5.9-15.5-5.9c-7.8,0-17.4,4-17.4,16.1c0,11.1,9.6,16.4,17.4,16.4c6.5,0,12.4-2.5,15.5-6.2v5
		L107.5,72.8z M91.4,59.5c-1.5,2.8-5.3,4-9,4v0c-4,0-8-1.9-8-5.9c0-4,3.7-5.9,8-5.9c3.4,0,7.1,1.2,9,3.4V59.5z"/>
	<polygon class="st0" points="217,22.6 197.7,22.6 182.6,42.8 182.6,3.7 166.4,3.7 166.4,72.8 182.6,72.8 182.6,60.7 187.2,55.2 
		198.4,72.8 217.6,72.8 198.4,45.6 	"/>
	<path class="st0" d="M58.9,26.6c0-12.4-8.4-22.9-24.2-22.9H0v69.1h18V49.6h16.7C50.2,49.6,58.9,39,58.9,26.6z M31.9,34.1L31.9,34.1
		l-13.9,0V19.2h14.2c4.7,0,8.7,2.8,8.7,7.4C40.6,31.3,36.9,34.1,31.9,34.1z"/>
	<polygon class="st0" points="495.3,46.2 495.3,46.1 495.3,45.8 495.1,45.8 	"/>
	<path class="st0" d="M440.7,4.2h-21.1V46l10.8,0.2v-14h10.2c9.3,0,14.6-6.2,14.6-14C455.3,10.4,450,4.2,440.7,4.2z M438.9,22.6
		L438.9,22.6l-8.7,0v-9h8.7c2.8,0,5.3,1.6,5.3,4.7C444.2,21.1,442,22.6,438.9,22.6z"/>
	<polygon class="st0" points="236.5,3.7 220.4,3.7 220.4,72.8 236.5,72.8 	"/>
	<rect x="245.5" y="22.9" class="st0" width="16.1" height="49.9"/>
	<polygon class="st0" points="380.6,22.6 361.4,22.6 346.2,42.8 346.2,3.7 330.1,3.7 330.1,72.8 346.2,72.8 346.2,60.7 350.9,55.2 
		362,72.8 381.6,72.8 362,45.6 	"/>
	<path class="st0" d="M520.7,3.4c-12.7,0-22.6,9-22.6,21.7c0,12.7,9.9,21.7,22.6,21.7c12.7,0,22.3-9,22.3-21.7S533.4,3.4,520.7,3.4z
		 M520.7,37.1L520.7,37.1c-6.8,0-11.5-5.2-11.5-12s4.6-12,11.5-12s11.5,5.2,11.5,12C532.2,31.8,527.8,37.1,520.7,37.1z"/>
	<path class="st0" d="M495,18c0-7.8-5.3-14-14.6-14h-21.1v41.8h10.8v-14h5.6l7.1,14h12.2l-8.5-15.1C490.6,29.4,495,25.4,495,18z
		 M478.9,22.6L478.9,22.6l-8.7,0v-9h8.7c2.8,0,5.3,1.6,5.3,4.3C484.2,21.1,481.7,22.6,478.9,22.6z"/>
	<path class="st0" d="M304.4,21.7c-8.4,0-14.6,3.7-17.4,7.4v-6.2h-16.2v49.9H287V40.6c1.9-2.2,5-5,9.6-5c5,0,8.1,2.2,8.1,8.4v28.8
		l16.2,0V37.5C320.8,28.2,315.6,21.7,304.4,21.7z"/>
	<path class="st0" d="M6.8,105.3c0-2.5,2.2-4,5.3-4c2.8-0.1,5.5,1,7.4,3.1l1.9-2.5c-2.4-2.4-5.7-3.6-9-3.4c-5,0-8.7,2.8-8.7,7.1
		c0,9.3,15.2,5.6,15.2,12.1c0,1.9-1.2,4.3-5.9,4.3c-3.1,0-6.1-1.3-8.1-3.7l-1.9,2.5h0c2.5,2.6,6,4.1,9.6,4c6.8,0,9.3-3.7,9.3-7.4
		C22,107.8,6.8,110.9,6.8,105.3z"/>
	<path class="st0" d="M28.2,99.5c-1,0-1.9,0.8-1.9,1.9c0,0,0,0.1,0,0.1c0,1,0.9,1.8,1.9,1.7c1,0,1.9-0.8,1.9-1.9
		C30.1,100.3,29.2,99.5,28.2,99.5z"/>
	<rect x="26.7" y="106" class="st0" width="2.8" height="18.3"/>
	<path class="st0" d="M55.1,105.4c-2.5,0.1-4.8,1.3-6.2,3.4c-0.7-2.2-2.7-3.6-5-3.4c-2.3,0-4.5,1.2-5.9,3.1v-2.2h-2.8v18.3H38v-13.3
		c1.2-1.6,3-2.6,5-2.8c2.5,0,3.4,1.2,3.4,3.7v12.4h2.8V111c1.1-1.7,3-2.7,5-2.8c2.5,0,3.4,1.2,3.4,3.7v12.4h2.8V111
		C60.4,107.2,58.5,105.4,55.1,105.4z"/>
	<path class="st0" d="M75.3,105.7c-2.4,0-4.7,1.1-6.2,3.1V106h-2.8v25.4h2.8v-9.9c1.4,2.1,3.7,3.4,6.2,3.4c4.6,0,8-3.7,8-9.6
		C83.4,109.4,80.3,105.7,75.3,105.7z M80.6,115c0,4.3-2.2,7.1-5.9,7.1c-2.3,0-4.3-1.2-5.6-3.1v-8.4c1.3-1.8,3.4-2.8,5.6-2.8
		C78.4,107.9,80.6,111,80.6,115L80.6,115z"/>
	<rect x="88" y="98.9" class="st0" width="2.8" height="25.4"/>
	<path class="st0" d="M103.2,121.2L97,106h-3.1l7.8,18.6l-1.2,2.8c-0.3,1.2-1.5,2-2.8,1.9c-0.3,0-1.2,0-1.5-0.3l0,0l-0.3,2.8
		c0.7,0.3,1.4,0.4,2.2,0.3c2.2,0,4-0.9,5.3-3.7l9.3-22.3h-3.1L103.2,121.2z"/>
	<path class="st0" d="M127.4,105.3c0-2.5,2.2-4,5.3-4c2.8-0.1,5.5,1,7.4,3.1l1.9-2.5c-2.4-2.4-5.7-3.6-9-3.4c-5,0-8.7,2.8-8.7,7.1
		c0,9.3,15.2,5.6,15.2,12.1c0,1.9-1.2,4.3-5.9,4.3c-3.1,0-6.1-1.3-8.1-3.7l-1.9,2.5h0c2.6,2.5,6,4,9.6,4c6.8,0,9.3-3.7,9.3-7.4
		C142.6,107.8,127.4,110.9,127.4,105.3z"/>
	<path class="st0" d="M157.2,105.4c-2.5,0-4.9,1.2-6.5,3.1v-9.9h-2.8V124h2.8v-13.3c1.4-1.7,3.4-2.7,5.6-2.8c2.5,0,4,1.2,4,4.3v12.1
		l2.8,0v-13C163.1,107.2,160.9,105.4,157.2,105.4z"/>
	<path class="st0" d="M170.2,99.5c-1,0-1.9,0.8-1.9,1.9c0,0.2,0,0.3,0,0.5c0.1,0.9,1,1.5,1.9,1.4c1,0,1.9-0.8,1.9-1.9
		C172,100.3,171.2,99.5,170.2,99.5z"/>
	<rect x="168.6" y="106" class="st0" width="2.8" height="18.3"/>
	<path class="st0" d="M186.3,105.7c-2.4,0-4.7,1.1-6.2,3.1V106h-2.8v25.4h2.8v-9.9c1.4,2.1,3.7,3.4,6.2,3.4c4.6,0,8.1-3.7,8.1-9.6
		C194.3,109.4,191.3,105.7,186.3,105.7z M191.5,115c0,4.3-2.2,7.1-5.9,7.1c-2.3,0-4.3-1.2-5.6-3.1v-8.4c1.3-1.8,3.4-2.8,5.6-2.8
		C189.4,107.9,191.5,111,191.5,115L191.5,115z"/>
	<path class="st0" d="M208.3,105.7c-2.4,0-4.7,1.1-6.2,3.1V106h-2.8v25.4h2.8v-9.9c1.3,2.2,3.7,3.4,6.2,3.4c4.7,0,8.1-3.7,8.1-9.6
		C216.3,109.4,213.3,105.7,208.3,105.7z M213.2,115c0,4.3-2.2,7.1-5.9,7.1c-2.3,0-4.3-1.2-5.6-3.1v-8.4c1.3-1.8,3.4-2.8,5.6-2.8
		C211.1,107.9,213.2,111,213.2,115L213.2,115z"/>
	<path class="st0" d="M222.2,99.5c-1,0-1.9,0.8-1.9,1.9c0,0,0,0.1,0,0.1c0,1,0.9,1.8,1.9,1.7c1,0,1.9-0.8,1.9-1.9
		C224.1,100.3,223.3,99.5,222.2,99.5z"/>
	<rect x="221" y="106" class="st0" width="2.8" height="18.3"/>
	<path class="st0" d="M239,105.4c-2.5,0-4.9,1.2-6.5,3.1v-2.8h-2.8V124h2.8v-13.3c1.4-1.7,3.4-2.7,5.6-2.8c2.5,0,4,1.2,4,4.3v12.1
		l2.8,0v-13C244.9,107.2,242.7,105.4,239,105.4z"/>
	<path class="st0" d="M263.8,108.8c-1.5-1.9-3.8-3-6.2-3.1c-4.6,0-8,3.7-8,9.6s3.1,9.6,8,9.6c2.5-0.1,4.8-1.4,6.2-3.4v2.5
		c0,4-2.8,5.6-5.9,5.6c-2.2,0.2-4.4-0.7-5.9-2.5l-1.5,2.2l0,0c2.2,1.9,4.3,2.5,7.4,2.8c4.3,0,8.7-1.9,8.7-8.1v-18h-2.8V108.8z
		 M263.8,119.1L263.8,119.1c-1.2,1.9-3.3,3.1-5.6,3.2c-3.7,0-5.9-3.1-5.9-7.1c0-4.3,2.2-7.1,5.9-7.1c2.3,0,4.3,1.2,5.6,3.1V119.1z"
		/>
	<path class="st0" d="M391.4,3.5c-5,0-9.1,4-9.1,9.1c0,5,4.1,9.1,9.1,9.1c5.1,0,9.1-4.1,9.1-9.1C400.4,7.6,396.4,3.5,391.4,3.5z
		 M391.4,20.3c-4.3,0-7.7-3.5-7.7-7.7c0-4.3,3.4-7.7,7.7-7.7c4.2,0,7.7,3.4,7.7,7.7C399.1,16.9,395.6,20.3,391.4,20.3z"/>
	<path class="st0" d="M395.5,10.6c0-1.9-1.6-3.2-3.4-3.2h-4.2v10.4h1.5v-4.1h1.8l2.7,4.1h1.8l-2.8-4.2
		C393.5,13.7,395.5,12.9,395.5,10.6z M389.4,12.4V8.7h2.8c0.9,0,1.9,0.7,1.9,1.9c0,1.1-1,1.8-1.9,1.8H389.4z"/>
</g>
</svg>
