<svg xmlns="http://www.w3.org/2000/svg" width="216" height="140"><g fill="none" fill-rule="evenodd"><path fill="#FFF" fill-rule="nonzero" d="M0 0h216v140H0z"/><path fill="#BEA0F2" fill-rule="nonzero" d="M177.064 50.008c-21.082 0-34.735 11.067-34.735 28.077 0 21.203 22.475 24.08 22.475 35.129h24.52c0-11.053 22.475-13.926 22.475-35.13 0-17.01-13.656-28.076-34.735-28.076ZM39.08 4.227C14.206 4.227.235 23.424 5.195 37.869c5.41 15.778 22.122 22.974 22.122 43.715h23.532c0-20.741 16.71-27.937 22.122-43.715C77.928 23.424 63.956 4.227 39.08 4.227Z"/><path fill="#FFF" fill-rule="nonzero" d="M50.013 48.273c-5.752 0-9.134 3.794-9.134 9.66v.728c-.406 0-.826 0-1.225.003h-2.37v-.727c0-5.87-3.382-9.664-9.134-9.664-5.121 0-8.059 1.932-8.059 5.292 0 2.524 2.458 4.228 7.306 5.068 2.966.514 5.84.64 8.679.668v22.281h1.208V59.305c.679.004 1.022.004 1.607 0h1.988v22.274h1.208V59.298c2.84-.028 5.713-.154 8.678-.669 4.849-.84 7.307-2.544 7.307-5.067 0-3.364-2.938-5.292-8.06-5.292v.003ZM36.08 58.654c-2.812-.032-5.647-.154-8.56-.658-4.485-.777-5.7-2.622-5.7-4.543 0-3.437 3.575-4.533 6.337-4.533 5.143 0 7.926 3.539 7.926 9.013v.724l-.003-.003Zm14.566-.658c-2.916.504-5.748.63-8.56.658v-.725c0-5.474 2.784-9.012 7.927-9.012 2.758 0 6.333 1.096 6.333 4.532 0 1.922-1.219 3.767-5.703 4.544l.003.003Z"/><path fill="#271B3D" fill-rule="nonzero" d="M211.799 4.2H154.12l-5.685 47.638 11.724-12.362h47.324zM129.502 106.181c-3.676-5.156-5.787-7.63-9.935-7.63-4.551 0-6.55 5.152-3.816 8.372 3.007 3.542 13.804 7.238 13.804 7.238S105.801 111 99.647 111c-3.396 0-6.876 2.135-6.876 6.188s3.48 6.188 6.876 6.188c6.154 0 29.908-3.16 29.908-3.16s-10.801 3.696-13.804 7.238c-2.731 3.22-.735 8.372 3.816 8.372 4.152 0 6.263-2.471 9.935-7.63 1.246-1.747 7.576-11.011 7.576-11.011s-6.33-9.261-7.576-11.011v.007Z"/><path fill="#BEA0F2" fill-rule="nonzero" d="M78.068 85.05h59.864v-17.5H78.068z"/><path fill="#271B3D" fill-rule="nonzero" d="M120.428 67.55h-42.36v3.5h42.36zM137.756 74.586H78.243v3.5h59.513zM111.676 81.55H78.068v3.5h33.608z"/><path fill="#BEA0F2" fill-rule="nonzero" d="M86.47 98.352H49.01v37.45H86.47z"/><path fill="#271B3D" fill-rule="nonzero" d="m70.436 123.6 6.73-6.202-20.803.073v-1.025l20.781.07-6.704-6.178.62-.787 7.803 7.346v.119l-7.803 7.371-.62-.787z"/><path stroke="#FFF" d="m171.336 20.588 4.212 12.138 20.63-23.027"/><path fill="#271B3D" fill-rule="nonzero" d="M186.698 90.933c0-6.149-3.683-9.975-9.613-9.996h-.042c-5.93.022-9.613 4.334-9.613 9.996 0 5.663 3.483 8.355 8.451 11.897-3.008 2.807-4.618 7.248-4.618 10.381h2.528c0-2.905.556-7.025 3.273-9.461 2.72 2.436 3.273 6.556 3.273 9.461h2.528c0-3.133-1.614-7.578-4.618-10.381 4.968-3.542 8.451-6.541 8.451-11.897Zm-9.634 11.229c-4.926-3.494-8.5-5.716-8.5-11.229 0-5.512 3.396-8.967 8.5-8.977 5.104.01 8.5 3.65 8.5 8.977 0 4.778-3.574 7.735-8.5 11.229Z"/><path fill="#BEA0F2" fill-rule="nonzero" d="M42.01 127.4c0 4.595-3.699 8.33-8.288 8.4h-21.1c-4.648.003-8.42-3.76-8.42-8.4 0-4.64 3.768-8.4 8.42-8.4h21.11c4.583 0 8.274 3.812 8.274 8.4h.004Z"/><path fill="#271B3D" fill-rule="nonzero" d="M33.5 133.349a5.95 5.95 0 1 0-5.952-5.95 5.95 5.95 0 0 0 5.951 5.95ZM137.757 4.227H78.243v59.5h59.514z"/><path fill="#FFF" fill-rule="nonzero" d="M120.326 43.373c0-4.116-2.517-8.057-7.456-10.745h15.379L113.899 8.96h-11.794l-14.35 23.667h15.379c-4.94 2.688-7.457 6.629-7.457 10.745 0 4.658 3.652 9.359 8.465 11.875-6.658-1.344-7.702 3.735-7.702 3.735h23.13s-1.043-5.079-7.702-3.735c4.814-2.516 8.465-7.217 8.465-11.875h-.007Z"/><path fill="#BEA0F2" fill-rule="nonzero" d="M108 8.965h-5.895L87.751 32.628h40.498L113.896 8.965z"/><path fill="#FFF" fill-rule="nonzero" d="M123.474 24.758H92.527l-4.776 7.871zM118.698 16.883H97.302l-4.776 7.875zM113.896 8.965h-11.791l-4.803 7.917z"/><path stroke="#271B3D" d="M47.856 25.977c9.309-9.471 17.767-12.863 27.268-14.368M70.629 29.444 48.203 11.398"/><path stroke="#271B3D" d="M57.165 35.138c3.049-9.555 4.162-21.868 2.198-30.915"/><path fill="#271B3D" fill-rule="nonzero" d="M21.947 81.586v3.5h5.367v1.302c.08 5.736 5.44 10.881 11.766 10.881s11.675-5.134 11.766-10.867v-1.316h5.367v-3.5H21.947ZM193.844 116.715v-3.5h-33.563v3.5h4.52v1.61h-4.52v3.5h4.52v1.995c0 5.586 4.75 12.008 12.263 12.008s12.263-6.426 12.263-12.008v-1.995h4.52v-3.5h-4.52v-1.61h4.517Z"/></g></svg>