<svg width="223" height="144" viewBox="0 0 223 144" fill="none" xmlns="http://www.w3.org/2000/svg">
<g clip-path="url(#clip0_739_57541)">
<rect width="222.12" height="144" transform="translate(0.439453)" fill="white"/>
<path d="M222.527 139.32H218.207V143.64H222.527V139.32Z" fill="white"/>
<path d="M91.4019 136.25L100.105 112.32H122.534L131.237 136.25H148.04V139.68H111.32H74.5996V136.25H91.4019Z" fill="#BEA0F2"/>
<path d="M95.3758 40.3672H34.1758V101.567H95.3758V40.3672Z" fill="#BEA0F2"/>
<path d="M49.4861 71.8604L42.2321 74.4812C39.5645 75.446 39.3089 77.1523 39.9965 78.3151C40.8281 79.7155 42.8117 79.5823 44.9789 78.1351C46.9985 76.7851 50.0945 74.6252 51.0989 73.9016L49.4861 71.8604Z" fill="#271B3D"/>
<path d="M80.0601 71.8604C80.0601 71.8604 86.1081 74.0456 87.3141 74.4812C89.9817 75.446 90.2373 77.1523 89.5497 78.3151C88.7181 79.7155 86.7345 79.5823 84.5673 78.1351C82.5477 76.7851 79.4517 74.6252 78.4473 73.9016L80.0601 71.8604Z" fill="#271B3D"/>
<path d="M47.877 65.4412L56.7798 77.3176L57.1506 77.1088L54.7674 63.6016L47.877 65.4412Z" fill="white"/>
<path d="M53.7218 77.0406C49.7726 77.0406 47.123 73.5486 47.123 70.0458C47.123 66.219 50.5718 64.7178 53.7902 64.7178C57.0086 64.7178 60.6554 66.399 60.6554 69.801C60.6554 73.7034 57.7898 77.0406 53.7218 77.0406Z" fill="#BEA0F2"/>
<path d="M55.9935 76.6662C56.2455 76.5798 56.4867 76.479 56.7207 76.3638L54.6723 64.761C54.3771 64.7322 54.0819 64.7178 53.7903 64.7178C51.8139 64.7178 49.7511 65.2866 48.4551 66.6078L55.9935 76.6662Z" fill="white"/>
<path d="M68.8887 69.801C68.8887 66.399 72.5355 64.7178 75.7539 64.7178C78.9723 64.7178 82.4211 66.219 82.4211 70.0458C82.4211 73.5522 79.7679 77.0406 75.8223 77.0406C71.7543 77.0406 68.8887 73.7034 68.8887 69.801Z" fill="#BEA0F2"/>
<path d="M73.5514 76.6662C73.2994 76.5798 73.0582 76.479 72.8242 76.3638L74.8726 64.761C75.1678 64.7322 75.463 64.7178 75.7546 64.7178C77.731 64.7178 79.7938 65.2866 81.0898 66.6078L73.5514 76.6662Z" fill="white"/>
<path d="M75.8914 62.6367C68.7058 62.6367 66.7222 67.8495 64.771 67.8495C62.8198 67.8495 60.8398 62.6367 53.6506 62.6367C49.1002 62.6367 44.3446 65.5635 41.875 66.7515V70.3191H44.5282C44.8954 72.6051 46.7422 79.2039 53.719 79.2039C61.5166 79.2039 61.6894 71.2623 64.7674 71.2623C67.8454 71.2623 68.0218 79.2039 75.8158 79.2039C82.7926 79.2039 84.6394 72.6051 85.0066 70.3191H87.6598V66.7515C85.1902 65.5635 80.4346 62.6367 75.8842 62.6367H75.8914ZM53.7226 77.0403C49.7734 77.0403 47.1238 73.5483 47.1238 70.0455C47.1238 66.2187 50.5726 64.7175 53.791 64.7175C57.0094 64.7175 60.6562 66.3987 60.6562 69.8007C60.6562 73.7031 57.7906 77.0403 53.7226 77.0403ZM75.823 77.0403C71.755 77.0403 68.8894 73.7031 68.8894 69.8007C68.8894 66.3987 72.5362 64.7175 75.7546 64.7175C78.973 64.7175 82.4218 66.2187 82.4218 70.0455C82.4218 73.5519 79.7686 77.0403 75.823 77.0403Z" fill="#271B3D"/>
<path d="M160.96 47.6064H99.7598V51.2064H160.96V47.6064Z" fill="#271B3D"/>
<path d="M130.36 54.6475H99.7598V58.2475H130.36V54.6475Z" fill="#271B3D"/>
<path d="M160.96 40.4062H99.7598V44.0062H160.96V40.4062Z" fill="#271B3D"/>
<path d="M164.51 75.7299V85.6191H181.095C181.095 85.6191 179.313 89.2515 179.313 93.3159C179.313 97.3803 181.937 101.463 186.995 101.463C192.053 101.463 194.678 97.2435 194.678 93.3159C194.678 89.3883 192.896 85.6191 192.896 85.6191H205.021V79.3587V75.7299C211.065 79.1499 218.139 77.9907 218.139 70.8915C218.139 63.7923 211.065 62.6331 205.021 66.0531V56.1639H192.896C192.896 56.1639 194.678 52.5315 194.678 48.4671C194.678 44.4027 192.053 40.3203 186.995 40.3203C181.937 40.3203 179.313 44.5395 179.313 48.4671C179.313 52.3947 181.095 56.1639 181.095 56.1639H164.51V66.0531C170.554 62.6331 177.628 63.7923 177.628 70.8915C177.628 77.9907 170.554 79.1499 164.51 75.7299Z" fill="#271B3D"/>
<path d="M160.96 92.5195H99.7598V101.52H160.96V92.5195Z" fill="#BEA0F2"/>
<path d="M188.763 25.585H34.1758V36.385H188.763V25.585Z" fill="#271B3D"/>
<path d="M38.457 32.5586C39.3955 32.5586 40.1562 31.7978 40.1562 30.8594C40.1562 29.9209 39.3955 29.1602 38.457 29.1602C37.5186 29.1602 36.7578 29.9209 36.7578 30.8594C36.7578 31.7978 37.5186 32.5586 38.457 32.5586Z" fill="white"/>
<path d="M44.6172 32.5586C45.5556 32.5586 46.3164 31.7978 46.3164 30.8594C46.3164 29.9209 45.5556 29.1602 44.6172 29.1602C43.6787 29.1602 42.918 29.9209 42.918 30.8594C42.918 31.7978 43.6787 32.5586 44.6172 32.5586Z" fill="white"/>
<path d="M50.7793 32.5586C51.7177 32.5586 52.4785 31.7978 52.4785 30.8594C52.4785 29.9209 51.7177 29.1602 50.7793 29.1602C49.8408 29.1602 49.0801 29.9209 49.0801 30.8594C49.0801 31.7978 49.8408 32.5586 50.7793 32.5586Z" fill="white"/>
<path d="M34.2793 106.301V107.167C34.2793 110.266 36.8677 112.781 40.0645 112.781H183.082C186.275 112.781 188.867 110.269 188.867 107.167V106.301H34.2793Z" fill="#BEA0F2"/>
<path d="M188.867 21.6001V20.7338C188.867 17.6353 186.279 15.1201 183.082 15.1201H40.0645C36.8713 15.1201 34.2793 17.6318 34.2793 20.7338V21.6001H188.867Z" fill="#BEA0F2"/>
<path d="M120.161 67.6436H99.7598V88.0448H120.161V67.6436Z" fill="#BEA0F2"/>
<path d="M104.43 77.8418H115.492" stroke="#271B3D" stroke-width="0.99" stroke-miterlimit="10"/>
<path d="M109.959 72.3125V83.3753" stroke="#271B3D" stroke-width="0.99" stroke-miterlimit="10"/>
</g>
<defs>
<clipPath id="clip0_739_57541">
<rect width="222.12" height="144" fill="white" transform="translate(0.439453)"/>
</clipPath>
</defs>
</svg>
