<svg xmlns="http://www.w3.org/2000/svg" viewBox="0 0 214 177.7"><path fill="#FFF" d="M124.2 49.2l17.5-14.4 11.5 4.6 6.6 14.6-3.6 31.6-10.5 5.9-16 .8-8.1-9.4 1.4-21.5zM91.7 88.9c.5 4.9 2.2 9.1-7 7.7v-8.3"/><path fill="#CAC6C8" d="M90.3 6.6c.2 6.1.2 12.2.2 18.4v55.1c0 .3-.2.5-.5.5H.9l.5-.5v5.2l-.5-.5 21.3.1c7.1.1 14.2.1 21.3.2.1 0 .2.1.2.2s-.1.2-.2.2c-7.1.1-14.2.2-21.3.2l-21.3.1c-.3 0-.5-.2-.5-.5v-5.2c0-.3.2-.5.5-.5H90l-.5.5V24.9c0-6.1 0-12.2.2-18.4 0-.2.2-.3.3-.3.2 0 .3.2.3.4z"/><path fill="#FFF" d="M52.7 6.6c2.1 29-3.9 71.4-6.3 85.4 12 4.9 19.2-4.2 30.5-4.2S92 92 92 92L90 1.3"/><path fill="#CAC6C8" d="M74.8 16.5v2.6c0 1.7 0 4-.1 6.9-.1 2.8-.2 6.2-.4 9.7-.2 3.6-.4 7.3-.7 11.1-.3 3.8-.6 7.6-1 11.1s-.7 6.8-1.1 9.7c-.4 2.8-.7 5.2-1 6.8C70.2 76 70 77 70 77c0 .1-.1.2-.2.1-.1 0-.1-.1-.1-.2 0 0 .4-3.8.9-9.4.3-2.8.6-6.1.9-9.7.3-3.5.7-7.3 1-11.1.3-3.8.6-7.6.9-11.1.2-3.5.4-6.9.5-9.7.1-2.8.2-5.2.2-6.9v-2.6c0-.2.1-.3.3-.3.3.1.4.2.4.4z"/><path fill="#CAC6C8" d="M92.6 92.4c0-.5-.1-1-.2-1.5l-1-44.3-.6-22.7c-.2-7.6-.5-15.1-.8-22.7 0-.1-.1-.2-.2-.2s-.2.1-.2.2c0 7.6.1 15.1.2 22.7l.4 22.7.9 42.2v.1c-.1.6 0 1.2 0 1.8v.2c-.5-.4-1.1-.7-1.7-1-.9-.5-1.9-.8-2.8-1.1-.6-.3-1.6-.6-2.6-.8l-1.5-.3-1.5-.1c-1-.1-2-.2-3-.2s-2 0-3 .1c-2 .2-4 .6-5.9 1.2-3.8 1.2-7.4 2.9-11.2 3.8-1.9.4-3.8.6-5.7.5-1-.1-1.9-.2-2.8-.5-.8-.2-1.6-.5-2.4-.8 1.2-6.9 2.1-13.9 3-20.9.4-3.6.9-7.1 1.2-10.7.4-3.6.7-7.1 1-10.7l.4-5.4c.2-1.8.2-3.6.4-5.4l.3-5.4c.1-1.8.2-3.6.2-5.4 0-1.8.1-3.6.1-5.4V17c-.1-1.8-.1-3.6-.2-5.4L53 6.5c0-.2-.2-.3-.3-.3-.2 0-.3.2-.3.3l.2 5.4.1 5.3v5.4c0 1.8-.1 3.6-.1 5.4 0 1.8-.1 3.6-.2 5.4l-.3 5.4c-.1 1.8-.2 3.6-.4 5.3l-.4 5.3c-.2 1.9-.3 3.8-.5 5.7 0 0-.7-.3-2-.8-.6-.3-1.4-.6-2.3-.9-.9-.3-1.9-.7-3.1-1-1.1-.3-2.4-.7-3.7-1-.7-.2-1.4-.3-2.1-.5-.7-.1-1.4-.3-2.2-.4-.7-.1-1.5-.2-2.3-.3-.8-.1-1.5-.2-2.3-.3-.8-.1-1.6-.1-2.4-.2-.8 0-1.6-.1-2.4-.1h-2.4c-.8 0-1.6 0-2.4.1-.8.1-1.6.1-2.3.2-.8.1-1.5.2-2.3.2-1.5.2-2.9.4-4.3.6-1.3.3-2.6.5-3.7.8-1.2.2-2.2.5-3.2.8-.9.2-1.8.5-2.4.7-1.3.4-2.1.6-2.1.6-.1 0-.1.1-.1.2s.1.1.2.1c0 0 .8-.2 2.1-.5 1.4-.3 3.3-.7 5.6-1.2 1.2-.2 2.4-.4 3.8-.6 1.3-.2 2.8-.4 4.2-.5.7-.1 1.5-.1 2.2-.2.8 0 1.5-.1 2.3-.1.8-.1 1.6-.1 2.3-.1h2.4c.8 0 1.6 0 2.4.1.8.1 1.6.1 2.3.2.8 0 1.5.2 2.3.2.8.1 1.5.2 2.2.3l2.1.3c.7.1 1.4.3 2 .4 1.3.2 2.6.6 3.7.9 1.1.3 2.2.6 3.1.9.9.3 1.7.5 2.4.8 1.3.5 2.1.7 2.1.7h.1c-.2 1.6-.3 3.1-.5 4.7-.4 3.6-.8 7.1-1.2 10.7C48 78 47 85.1 45.8 92.1c0 .2.1.5.3.5.9.4 1.9.7 2.9.9 1 .2 2 .4 3 .5 2 .2 4.1-.1 6-.5 3.9-.9 7.5-2.7 11.3-3.8 1.9-.6 3.8-1 5.7-1.2 1-.1 1.9-.1 2.9-.1s2 .1 2.9.2l1.5.2 1.4.2c1 .2 1.9.4 2.8.7.9.3 1.8.7 2.7 1.1.8.4 1.7 1 2.3 1.5v.1c0 .6.1 1.1 0 1.6 0 .3-.1.5-.2.7 0 .1-.1.2-.2.3-.1.1-.1.2-.2.3l-.2.2c-.1.1-.2.1-.3.2-.1.3-.4.3-.6.4-.2.1-.5.1-.8.2-.3.1-.5 0-.8.1h-1.7c-.4 0-.8-.1-1.3-.1 0-.7 0-1.4-.1-2.1-.1-.9-.1-1.7-.3-2.6 0-.1-.1-.1-.1-.1-.1 0-.2 0-.2.1-.2.9-.2 1.7-.3 2.6 0 .9-.1 1.7-.1 2.6 0 .3.2.5.4.5.6.1 1.2.2 1.8.2.6 0 1.2.1 1.8.1.3 0 .6 0 .9-.1.3-.1.6-.1.9-.2.3-.1.6-.2.9-.4.1-.1.3-.2.4-.3l.4-.4c.1-.1.2-.3.3-.4.1-.2.2-.3.2-.5.1-.3.2-.7.2-1 .4-.7.4-1.3.3-1.9z"/><circle fill="#FFF" cx="23.4" cy="69.7" r="7"/><path fill="none" d="M23.4 62.7c-3.8 0-7 3.1-7 7 0 1.7.6 3.2 1.6 4.4.1-.1.8.6.8.8 1.2 1.1 2.8 1.8 4.6 1.8 1.8 0 3.4-.7 4.6-1.8-.1-.2.7-.9.8-.8 1-1.2 1.6-2.7 1.6-4.4-.1-3.8-3.2-7-7-7zm.4 8.4c-.1.2-.4.3-.7.2-.2-.1-.3-.3-.3-.4 0-1.8 0-3.6.3-5.5 0-.1.1-.2.2-.1.1 0 .1.1.1.1.2 1.2.3 2.4.3 3.6.3-.6.7-1.2 1.1-1.7.1-.1.2-.1.2 0 .1 0 .1.1.1.2-.2 1.2-.7 2.4-1.3 3.6z"/><path fill="#CAC6C8" d="M16 61l-.4-.5.3.4.3.4zM30.4 60.9l-.3.4.2-.3.4-.5z"/><path fill="#FFF" d="M191.3 110.4c-.5 1.2.1 2.3 1.4 2.6l16 3.5c1.3.3 2.7-.5 3.1-1.6s-.1-2.3-1.4-2.6l-16-3.5c-1.2-.3-2.6.5-3.1 1.6 0 0 .5-1.1 0 0z"/><path fill="#C8D6DB" d="M209.3 117.6c-.3 0-.5 0-.8-.1l-16-3.5c-.9-.2-1.6-.7-2-1.5-.4-.8-.4-1.6-.1-2.5l.2-.5c.1-.2.2-.4.4-.5.9-1 2.3-1.5 3.6-1.2l16 3.5c.9.2 1.6.7 2 1.5.4.8.4 1.6.1 2.5-.4 1.4-1.9 2.3-3.4 2.3zm-17-6.8c-.1.3-.1.6 0 .8.1.2.4.4.7.5l16 3.5c.8.2 1.7-.3 2-1 .1-.3.1-.6 0-.8-.1-.2-.4-.4-.7-.5l-16-3.5c-.8-.2-1.7.3-2 1z"/><path fill="#FFF" d="M191.3 110.4c-.5 1.2.1 2.3 1.4 2.6l16 3.5c1.3.3 2.7-.5 3.1-1.6s-.1-2.3-1.4-2.6l-16-3.5c-1.2-.3-2.6.5-3.1 1.6 0 0 .5-1.1 0 0z"/><path fill="#FFF" d="M192.3 156.4h-57.1c-3.9 0-7.2-3.1-7.4-7l1.9-36.2c-.2-4.2 3.1-7.8 7.4-7.8h57.1c3.9 0 7.2 3.1 7.4 7l-1.9 36.2c.2 4.2-3.1 7.8-7.4 7.8z"/><path fill="#CAC6C8" d="M212.8 112.8c-.4-.8-1.1-1.3-2-1.5l-8.8-1.9c-1.3-3-4.3-5.1-7.7-5.1h-57.1c-2.3 0-4.5.9-6.1 2.6-1.6 1.7-2.4 3.9-2.3 6.2l-1.9 36.2v.1c.3 4.4 3.9 7.9 8.4 7.9h57.1c2.3 0 4.5-.9 6.1-2.6 1.6-1.7 2.4-3.9 2.3-6.2l1.7-32.4 6.1 1.3c.3.1.5.1.8.1 1.5 0 2.9-.9 3.5-2.3.3-.7.3-1.6-.1-2.4zm-14.1 35.8c.1 1.8-.5 3.5-1.7 4.8s-2.9 2-4.6 2h-57.1c-3.4 0-6.2-2.6-6.4-6l1.9-36.2v-.1c-.1-1.8.5-3.5 1.7-4.8 1.2-1.3 2.9-2 4.6-2h57.1c3.4 0 6.2 2.6 6.4 6l-1.9 36.2v.1zm12.3-34c-.3.7-1.2 1.2-2 1l-6.5-1.4.1-1.8v-.1c0-.2 0-.4-.1-.6l7.7 1.7c.3.1.6.2.7.5.2.1.2.4.1.7zM148.6 75v-4c-5.1.9-9.6 1.3-13.5 0-4-1.3 6.2 4.1 13.5 4z"/><path fill="#5C3453" d="M135.2 56.8c-.7 0-1.2-.5-1.2-1.2v-1.9c0-.7.5-1.2 1.2-1.2s1.2.5 1.2 1.2v1.9c0 .7-.6 1.2-1.2 1.2z"/><path fill="#BD86A5" d="M162.7 55.6c-.6-6.4 1.6-9.4-1.7-18.6-2.1-5.8-12.1-12.5-22.4-10-11.1 1.5-15.8 11.6-15.8 22.9 0 15.1-9.2 14.7-9.2 25.3s7.3 12.2 7.3 12.2 3.6.6 7.3-.4v-5.3c2.9-.3 5.2-2.6 5.5-5.5l.6-5.3c-6.2-1.1-7.9-19.7-7.9-19.7 11.9.8 14.5-8 17.2-13.2 1 1.9 3.4 4.8 6.5 7 6.8 5.1 6.2 14.4 3.4 19.7-2.7 5-5.7 5.6-5.7 5.6l.2 5.9c.1 2.6 2.1 4.8 4.7 5.2l1.3.2V87h5.5s5.4-2.7 8-10.3c2.9-7.6-4.5-17.2-4.8-21.1z"/><path fill="#FFF" d="M98.862 127.849l27.167 1.35-1.683 33.86-27.168-1.35z"/><path fill="#5C3453" d="M149.3 56.8c-.7 0-1.2-.5-1.2-1.2v-1.9c0-.7.5-1.2 1.2-1.2s1.2.5 1.2 1.2v1.9c0 .7-.6 1.2-1.2 1.2z"/><g fill="#5C3453"><path d="M141.8 59.4c0 .2.2.4.4.4.3.1.6-.1.7-.4 0 0 .1-.4.1-1.1.1-.6.1-1.5.1-2.3 0-.9-.1-1.7-.2-2.3-.1-.6-.2-1.1-.2-1.1 0-.1-.1-.3-.3-.3-.2 0-.4.1-.5.3 0 0-.1.4-.2 1.1-.1.6-.2 1.5-.2 2.3 0 .9 0 1.7.1 2.3.1.7.2 1.1.2 1.1zM145.5 63.2h-.1s-.1 0-.2.1-.3.1-.6.2c-.6.1-1.4.2-2.2.1-.8 0-1.6-.1-2.2-.2-.3-.1-.5-.1-.6-.1-.2-.1-.3-.1-.3-.1-.2-.1-.4 0-.6.1-.2.2-.2.5.1.7l.2.2c.1.1.2.1.4.2.1.1.3.1.5.2.7.3 1.6.5 2.5.5.5 0 .9 0 1.4-.1l1.2-.3c.3-.1.6-.3.8-.4l.3-.3c.1-.1.2-.3.1-.5-.2-.2-.5-.4-.7-.3zM151.8 47.5s-.3-.3-.8-.6l-.9-.3c-.3-.1-.7-.1-1.1-.1-.4 0-.7 0-1.1.1-.3.1-.7.2-.9.3-.1 0-.3.1-.4.2-.1.1-.2.2-.3.2l-.2.2c-.1.1-.1.3-.1.5.1.3.4.4.7.3 0 0 .1 0 .2-.1h.4c.4 0 1-.1 1.6-.1.6 0 1.2.1 1.6.2.2 0 .4.1.5.1.1 0 .2.1.2.1h.1c.2 0 .3 0 .5-.1.1-.4.1-.7 0-.9zM138.1 47.3s0-.1-.2-.2c-.1-.1-.2-.1-.3-.2-.1-.1-.2-.1-.4-.2l-.9-.3c-.3-.1-.7-.1-1.1-.1-.4 0-.7.1-1.1.1l-.9.3c-.5.3-.8.6-.8.6-.1.1-.2.3-.1.5.1.3.4.4.6.4h.1s.1 0 .2-.1c.1 0 .3-.1.5-.1.4-.1 1-.2 1.6-.2.6 0 1.2 0 1.6.1h.4c.1.1.2.1.2.1.2.1.3.1.5-.1.3 0 .3-.3.1-.6z"/></g><path fill="#95588A" d="M192.6 130.2s-3.7-42.3-37.7-48.5c0 0-5.5 7.9-14 7.9s-12.8-7.9-12.8-7.9C94.1 92.5 96 130.8 96 130.8h21.2l-.6 32.7h55.3l-1.5-32.8 22.2-.5z"/><circle fill="#D39CC3" cx="141.5" cy="96.3" r="1.3"/><path fill="#FFF" d="M132.2 129.7h-3.4c-5.6 0-6.8-19.2-6.8-19.2h17.5c.1 0-2.2 19.2-7.3 19.2z"/><path fill="#FFF" d="M175.1 165.8c-19.2 0-26.5-32.1-26.5-32.1s-3.4-.6-6.8-2.8c-3-2-3.4-6.2-3.4-6.2s-4.6-.4-8.5.6c-1.3.3-1.7-.6-2.3-2.3-.6-1.7.6-3.9 3.4-4.5 10-5.6 12.7-1.7 14.7 0 4.5 3.9 26.5 21.4 26.5 21.4"/><g fill="#CAC6C8"><path d="M136 62l-.2.2c-.1.1-.2.3-.3.5-.1.2-.1.4-.1.6v.3l.4.2.2-.2c.1-.1.2-.3.3-.5.1-.2.1-.4.1-.6v-.3l-.4-.2zM149.3 62.7c-.1-.2-.2-.4-.3-.5l-.2-.2-.4.2v.3c0 .2 0 .4.1.6.1.2.2.4.3.5l.2.2.4-.2v-.3c0-.1 0-.4-.1-.6z"/></g><path fill="#CAC6C8" d="M150.8 140.3c-.1 0-.3-.1-.4-.2-.2-.2-.2-.5 0-.7l9-8.5c.2-.2.5-.2.7 0 .2.2.2.5 0 .7l-9 8.5c0 .2-.1.2-.3.2z"/><path fill="#D39CC3" d="M120.7 159.6h-27L88.2 120c-.4-3.2-3.1-5.5-6.3-5.5H29.5c-3.9 0-6.8 3.4-6.3 7.2l5.8 41.8h95.6c0-2.2-1.7-3.9-3.9-3.9z"/><path fill="#CAC6C8" d="M183 163.1c3.1-.5 6.1-.6 9.2-.6 3.1-.1 6.1-.1 9.2 0 .6 0 1.1.5 1 1.1l-.1 6.6c0 1.1 0 2.2-.1 3.3-.1 1.1-.1 2.2-.2 3.3 0 .4-.4.6-.7.6-.3 0-.6-.3-.6-.6-.1-1.1-.2-2.2-.2-3.3-.1-1.1-.1-2.2-.1-3.3l-.1-6.6 1.1 1.1h-9.2c-3.1 0-6.1-.1-9.2-.6-.2 0-.4-.3-.3-.5 0-.3.1-.5.3-.5z"/><path fill="#FFF" d="M181.2 164.6l6-6.5 1.9-4.6-6.1-3.7-9.2 1.7-.8 14.4z"/><path fill="#CAC6C8" d="M20.7 176.7l-.2-6.6c-.1-2.2-.1-4.4-.1-6.6 0-.4.3-.8.7-.8 6-.1 12.1-.2 18.1-.2l18.1-.1 36.2-.1 36.2.1 18.1.1 9.1.1 9.1.2c.4 0 .7.3.7.7 0 .4-.3.6-.7.7l-9.1.2-9.1.1-18.1.1-36.2.1-36.2-.1-18.1-.1c-6-.1-12.1-.1-18.1-.2l.8-.8c0 2.2-.1 4.4-.1 6.6l-.2 6.6c0 .2-.2.4-.4.4-.4 0-.5-.2-.5-.4z"/><g fill="#5C3453"><path d="M191.6 138.5c-.1-1.8-.3-3.6-.6-5.4 0-.2-.2-.3-.3-.3-.2 0-.3.2-.3.3v5.3c0 1.8-.2 3.5-.4 5.3-.4 3.5-.9 6.9-2 10.2-1.1 3.2-2.8 6.3-5.3 8.4-1.3 1-2.8 1.7-4.4 2.1-.8.2-1.6.3-2.4.3H174.6c-.4 0-.8-.1-1.2-.1-3.3-.4-6.4-1.9-9-4.1-2.6-2.2-4.8-4.9-6.6-7.8-1.9-2.9-3.4-6.1-4.7-9.3-.7-1.6-1.3-3.3-1.8-4.9-.5-1.7-1.1-3.4-1.5-5-.1-.4-.4-.7-.9-.8-.2 0-.5-.1-.8-.2-.3-.1-.6-.1-.8-.2-.6-.2-1.1-.4-1.6-.6-.5-.2-1.1-.5-1.6-.7-.3-.1-.5-.3-.7-.4-.2-.1-.5-.3-.8-.5-.2-.1-.4-.3-.6-.5-.2-.2-.4-.4-.5-.6-.3-.4-.6-.8-.9-1.3-.2-.5-.5-1-.6-1.5-.1-.3-.2-.5-.2-.8-.1-.3-.1-.6-.1-.8v-.1c0-.4-.3-.7-.6-.8-.2-.1-.4-.1-.6-.2-.2-.1-.4-.1-.6-.1-.4-.1-.8-.2-1.2-.2-.8-.1-1.7-.1-2.5-.1-.8.1-1.7.2-2.4.5-.4.1-.8.3-1.2.5-.4.2-.7.4-1 .6-.3.1-.4.5-.3.8.1.4.5.6.8.5.4-.1.8-.3 1.1-.3.3-.1.7-.2 1-.2.3-.1.7-.1 1.1-.2.4 0 .7-.1 1.1-.1h1.1c.4 0 .7.1 1.1.1.4 0 .7.1 1.1.2l.4.1c0 .1 0 .2.1.3.1.3.2.6.2 1 .2.6.4 1.3.7 1.9.3.6.7 1.2 1.1 1.7.2.3.5.5.7.8.3.3.5.4.9.7.3.2.5.3.8.5.3.2.6.3.9.5.6.3 1.1.6 1.7.8.6.3 1.2.5 1.8.7l.9.3c.1 0 .2 0 .3.1.4 1.6.8 3.1 1.3 4.6l1.8 5.1c1.4 3.3 2.9 6.6 4.9 9.7 1.9 3.1 4.2 6 7.1 8.3 1.4 1.2 3 2.2 4.7 3 1.7.8 3.6 1.3 5.4 1.5.5 0 .9.1 1.4.1h1.4c1 0 1.9-.2 2.8-.4 1.9-.4 3.7-1.3 5.2-2.5s2.7-2.7 3.7-4.3c1-1.6 1.7-3.3 2.3-5.1 1.1-3.5 1.6-7.1 1.8-10.7-.3-2.1-.3-3.9-.4-5.7zM130.2 122.2c1.1-.2 2.5-.3 4-.3 1.4.1 2.9.3 4 .5.5.1 1 .2 1.3.3.3.1.5.1.5.1.2.1.5-.1.6-.3.1-.3 0-.5-.3-.7 0 0-.2-.1-.5-.2s-.8-.3-1.3-.5c-.6-.2-1.2-.4-2-.5-.7-.1-1.5-.2-2.3-.2-.8 0-1.6 0-2.3.1-.7.1-1.4.2-2 .4-.6.2-1.1.4-1.4.5-.3.1-.5.2-.5.2-.2.1-.3.3-.3.6.1.3.3.4.6.4 0 0 .2 0 .5-.1.5-.1.9-.2 1.4-.3z"/><path d="M128.5 120.5s.2-.1.5-.2c.2-.1.3-.1.5-.2s.4-.1.7-.2c1-.3 2.5-.5 3.9-.5.7 0 1.5 0 2.1.1.7.1 1.3.1 1.9.2.5.1 1 .2 1.3.2.3.1.5.1.5.1.2 0 .5-.1.6-.3.1-.3 0-.5-.3-.7 0 0-.2-.1-.5-.2s-.8-.3-1.4-.5c-.6-.2-1.3-.3-2-.4-.7-.1-1.5-.1-2.3-.1-.7 0-1.4.1-2.1.2.2-.1.4-.2.7-.3.6-.2 1.4-.5 2.3-.7.9-.2 1.9-.3 3-.3s2.3.1 3.5.5c1.2.3 2.4.9 3.4 1.7 1 .9 2.3 2 3.5 2.9l3.6 3c2.5 2 4.9 3.9 7.2 5.8 2.3 1.8 4.5 3.6 6.4 5 3.7 2.9 6.3 4.7 6.3 4.7.3.2.6.1.9-.1.3-.3.2-.7 0-.9 0 0-2.3-2.1-6-5.1-3.7-3-8.5-7-13.4-11l-3.6-3c-1.2-1-2.4-2-3.5-2.9-1.3-1-2.8-1.6-4.2-2-1.4-.4-2.8-.5-4.1-.4-1.3.1-2.4.3-3.4.7-.5.1-.9.4-1.3.6-.4.2-.7.4-1.1.6-.6.4-1 .7-1.3.9-.3.2-.4.4-.4.4-.1.1-.2.3-.1.4-.2.1-.3.1-.5.2-.3.1-.5.2-.8.3l-.6.3c-.3.2-.4.3-.4.3-.2.1-.3.4-.2.6.2.3.5.4.7.3z"/></g><path fill="#5C3453" d="M99.2 133.2s.2.3.2.7c.1.4 0 1.1 0 1.9 0 1.5 0 3.6-.1 5.6-.1 1-.1 2-.2 3s-.2 1.8-.3 2.6c-.1.8-.3 1.4-.4 1.8-.1.4-.2.7-.2.7-.1.1-.2.2-.4.1-.1 0-.1-.1-.1-.2 0 0-.1-.3-.2-.7-.1-.5-.1-1.1-.1-1.9 0-.8.1-1.7.1-2.6 0-1 .1-2 .1-3 .1-1 .1-2 .2-3 0-.9.1-1.8.1-2.6s0-1.4.1-1.8c.1-.4.2-.7.2-.7.2-.3.5-.4.8-.2.1.2.1.2.2.3zM109.5 146.3s.2.1.4.4c.2.2.5.6.7.9.2.3.4.7.5 1 .1.3.1.5.1.5 0 .3-.2.6-.5.6-.1 0-.3 0-.4-.1 0 0-.2-.1-.4-.4-.2-.2-.5-.6-.7-.9-.2-.4-.4-.7-.5-1-.1-.3-.2-.5-.2-.5-.1-.3.1-.6.4-.6.4 0 .5 0 .6.1zM182 98.3s-.1-.2-.3-.4c-.2-.3-.5-.7-.9-1.2-.8-1-1.9-2.5-3.5-4.1-1.6-1.6-3.6-3.3-5.9-4.8-2.3-1.5-5-3-7.7-4.1-2.8-1.1-5.6-2-8.4-2.6-.7-.1-1.4-.3-2-.4-.5-.1-1-.3-1.5-.5-.9-.5-1.6-1.3-1.9-2.2-.2-.4-.3-.9-.3-1.2v-.7-.7c0-.9 0-1.7-.1-2.3 0-1.3-.1-2-.1-2V71c1-.5 1.9-1.1 2.6-1.8 1.3-1.3 2.2-2.9 2.7-4.5s.8-3.1 1-4.4c.2-1.4.2-2.7.3-3.8v-2.9-2.5c0-.3-.2-.5-.5-.5s-.5.2-.5.5c0 0 0 .9-.1 2.5 0 .8-.1 1.8-.1 2.9-.1 1.1-.2 2.3-.4 3.7-.2 1.3-.5 2.7-1 4.2-.5 1.4-1.3 2.8-2.4 3.9-1.1 1.1-2.6 1.9-4.3 2.3-.4.1-.8.2-1.2.2-.4.1-.8.2-1.3.2l-1.4.1H141.5c-1.8 0-3.5-.3-5.2-.7-1.7-.4-3.1-1.3-4.3-2.3-1.2-1.1-2.1-2.4-2.7-3.8-.4-.7-.5-1.4-.8-2.1-.2-.7-.3-1.4-.5-2-.1-.7-.2-1.3-.3-1.9-.1-.6-.1-1.2-.2-1.7-.1-1.1-.2-2-.2-2.8 0-1.6-.1-2.5-.1-2.5 0-.3-.2-.5-.5-.5s-.5.2-.5.5v2.5c0 .8 0 1.8.1 2.9 0 .6.1 1.2.2 1.8.1.6.2 1.3.3 2 .1.7.3 1.4.5 2.1.3.7.4 1.5.8 2.2.6 1.5 1.6 3 2.9 4.3 1.4 1.2 3.1 2.2 4.9 2.6 1.8.5 3.7.8 5.6.8H142.9l1.4-.1c.4 0 .9-.1 1.4-.2.5-.1 1-.1 1.4-.3l.9-.3v1.5c0 .6 0 1.4-.1 2.3v1.5c0 .6.2 1.2.4 1.8.4 1.2 1.3 2.3 2.6 3.1.6.4 1.3.7 2.1.8.6.1 1.3.3 1.9.4 2.6.6 5.4 1.4 8 2.5 2.6 1.1 5.2 2.4 7.4 3.9s4.2 3 5.8 4.5c1.6 1.5 2.8 2.8 3.6 3.7.8 1 1.3 1.5 1.3 1.5.2.3.6.3.9.1.2-.2.3-.6.1-.9z"/><path fill="#CAC6C8" d="M154.6 52c-.6-.7-1.6-1.2-2.6-1.2l-3.5-.1c-1.4-.1-2.7.6-3.5 1.6h-.2l-5.4-.2c-.1-.2-.2-.3-.4-.5-.8-.8-1.8-1.3-3-1.3l-3.5-.1c-1 0-2 .4-2.6 1.1-.6.7-1 1.5-.9 2.5l.1 1.1c.2 2.5 2.3 4.4 4.9 4.4h1c2.8 0 5-2.1 5.1-4.8 0-.4-.1-.8-.2-1.2l4.5.1c-.1.4-.2.8-.2 1.2-.1 2.6 2 4.9 4.7 5.1l.9.1h.4c2.4 0 4.5-1.7 4.9-4.1l.2-1.1c.2-.9-.1-1.8-.7-2.6zm-19.5 6.1h-.9-.1c-2 0-3.7-1.5-3.8-3.3l-.1-1.1c0-.6.2-1.2.6-1.6.4-.5 1.1-.7 1.7-.7h.1l3.5.1c.8 0 1.6.4 2.2 1 .5.6.8 1.3.8 2-.1 1.9-1.8 3.5-4 3.6zm19.1-3.7l-.2 1.1c-.3 1.9-2.1 3.2-4.1 3.1l-.9-.1c-2.1-.2-3.8-1.9-3.7-3.9.1-1.6 1.5-2.8 3.2-2.8l3.5.1c.7 0 1.3.3 1.7.8.4.5.6 1.1.5 1.7z"/><g fill="#CAC6C8"><path d="M15.5 65.5c.1 0 .1-.1.1-.2-.2-.4-.3-.7-.4-1.1-.1-.4-.1-.7 0-1.1.1-.7.5-1.4 1-1.8l-.3-.4-.3-.4c-.4.3-.7.7-.9 1.1-.2.4-.3.9-.4 1.4 0 .5.1.9.2 1.4l.3.6c.1.2.3.4.4.5h.3zM16.2 61.3c.5-.5 1.3-.7 2-.7.4 0 .7.1 1.1.2.4.1.7.3 1 .6.1 0 .1.1.2 0 .1 0 .1-.1.1-.2-.2-.4-.6-.7-.9-1-.4-.3-.8-.4-1.3-.5-.5-.1-1 0-1.4.1-.5.1-.9.4-1.3.7l.3.5.2.3zM26 61.4c.3-.3.6-.5 1-.6.3-.1.7-.2 1.1-.2.7 0 1.4.2 2 .7l.3-.4.3-.4c-.4-.3-.8-.5-1.3-.7-.5-.1-1-.2-1.4-.1-.5.1-.9.2-1.3.5s-.7.6-.9 1v.2c.1.1.2.1.2 0z"/><path d="M31.6 61.6c-.2-.4-.5-.8-.9-1.1l-.4.5-.2.3c.6.4.9 1.1 1 1.8.1.4.1.7 0 1.1-.1.4-.2.7-.4 1.1v.2c.1.1.2.1.2 0 .2-.1.3-.3.4-.5l.3-.6c.2-.4.3-.9.2-1.4.2-.5 0-.9-.2-1.4zM25 67.3c-.4.5-.8 1.1-1.1 1.7 0-1.2-.1-2.4-.3-3.6 0-.1-.1-.1-.1-.1-.1 0-.2 0-.2.1-.3 1.8-.3 3.6-.3 5.5 0 .2.1.4.3.4.2.1.5 0 .7-.2.6-1.2 1.1-2.4 1.5-3.6 0-.1 0-.1-.1-.2-.3-.1-.4-.1-.4 0z"/><path d="M23.4 61.7c-4.4 0-8 3.6-8 8 0 2.1.8 4 2.2 5.5-.1.4-.2.7-.3 1.1-.3 1.2-.5 2.5-.5 2.5 0 .1 0 .1.1.2.1 0 .2 0 .2-.1 0 0 .6-1.1 1-2.3.1-.2.2-.4.3-.7 1.4 1.1 3.1 1.7 5 1.7s3.6-.7 5-1.7c.1.2.2.4.3.7.5 1.2 1 2.3 1 2.3 0 .1.1.1.2.1s.2-.1.1-.2c0 0-.2-1.3-.5-2.5-.1-.4-.2-.8-.3-1.1 1.4-1.4 2.2-3.4 2.2-5.5-.1-4.4-3.6-8-8-8zm0 15c-3.9 0-7-3.1-7-7s3.1-7 7-7 7 3.1 7 7-3.2 7-7 7z"/></g></svg>