<?xml version="1.0" standalone="no"?>
<!DOCTYPE svg PUBLIC "-//W3C//DTD SVG 20010904//EN"
 "http://www.w3.org/TR/2001/REC-SVG-20010904/DTD/svg10.dtd">
<svg version="1.0" xmlns="http://www.w3.org/2000/svg"
 width="312.000000pt" height="312.000000pt" viewBox="0 0 312.000000 312.000000"
 preserveAspectRatio="xMidYMid meet">
<metadata>
Created by potrace 1.11, written by Peter Selinger 2001-2013
</metadata>
<g transform="translate(0.000000,312.000000) scale(0.100000,-0.100000)"
fill="#000000" stroke="none">
<path d="M1837 2924 c-1 -1 -54 -5 -117 -8 -63 -4 -128 -9 -145 -11 -16 -2
-46 -6 -65 -9 -19 -3 -57 -8 -85 -11 -27 -3 -70 -10 -95 -16 -25 -5 -58 -11
-75 -13 -98 -13 -360 -73 -565 -130 -236 -65 -584 -172 -609 -187 -105 -67 24
-294 221 -387 77 -37 152 -61 206 -65 16 -1 22 -8 22 -23 0 -34 35 -107 70
-147 62 -71 161 -119 265 -130 34 -4 40 -8 46 -33 25 -122 151 -205 301 -198
122 5 254 44 270 80 6 13 8 27 5 30 -3 4 -41 1 -84 -5 -119 -18 -155 -19 -217
-9 -74 11 -123 47 -132 94 -7 40 -4 46 28 49 94 12 238 52 260 72 35 32 23 46
-34 38 -29 -4 -62 -9 -73 -11 -45 -10 -255 -11 -320 -2 -81 11 -154 40 -185
73 -24 26 -52 97 -42 106 4 4 45 9 92 12 93 7 90 6 269 43 69 14 134 30 145
36 29 15 56 39 56 50 0 10 -74 3 -144 -12 -22 -5 -144 -8 -270 -6 -251 3 -327
15 -443 71 -47 23 -133 97 -133 115 0 6 150 49 225 64 11 3 83 20 160 39 77
19 154 38 170 41 17 4 39 8 50 10 11 3 56 12 100 21 98 21 104 22 146 29 19 3
43 7 54 10 28 5 94 16 130 20 17 3 44 7 60 10 17 2 50 7 75 11 41 5 87 11 150
20 111 16 452 23 509 11 14 -3 47 -8 75 -11 28 -3 78 -13 111 -21 365 -92 513
-289 509 -679 -1 -102 -35 -265 -56 -265 -5 0 -7 -4 -4 -9 3 -4 -12 -41 -33
-81 -144 -277 -468 -551 -794 -671 -107 -39 -317 -88 -317 -73 0 2 50 118 111
257 61 138 131 299 156 357 25 58 49 114 54 125 5 11 52 119 104 240 90 208
94 221 84 255 -19 58 -67 147 -99 183 -33 38 -86 65 -99 51 -5 -5 -23 -43 -41
-84 -50 -116 -179 -408 -211 -478 -16 -35 -29 -65 -29 -67 0 -2 -18 -43 -40
-90 -22 -47 -40 -88 -40 -90 0 -4 -92 -211 -156 -353 -13 -29 -24 -55 -24 -57
0 -2 -15 -37 -34 -77 -18 -40 -46 -102 -61 -138 -16 -36 -45 -102 -67 -148
-21 -46 -38 -85 -38 -87 0 -2 -34 -81 -76 -175 -55 -124 -74 -178 -70 -196 16
-62 116 -134 207 -148 36 -5 37 -5 63 53 14 32 51 112 82 177 31 66 74 160 96
209 22 50 43 93 47 98 7 7 19 10 82 21 19 3 44 8 55 10 12 2 38 7 57 10 480
76 883 299 1117 618 100 135 202 363 224 498 1 8 5 35 9 60 16 95 13 216 -7
340 -10 59 -60 190 -97 252 -45 76 -151 190 -219 235 -127 85 -324 159 -475
179 -27 3 -53 8 -56 9 -12 8 -344 25 -352 19z"/>
</g>
</svg>
