<svg viewBox="0 0 24 24" xmlns="http://www.w3.org/2000/svg"><symbol viewBox="0 0 24 24" id="gridicons-add-image"><g><path d="M23 4v2h-3v3h-2V6h-3V4h3V1h2v3h3zm-8.5 7a1.5 1.5 0 10-.001-3.001A1.5 1.5 0 0014.5 11zm3.5 3.234l-.513-.57a2 2 0 00-2.976 0l-.656.731L9 9l-3 3.333V6h7V4H6a2 2 0 00-2 2v12a2 2 0 002 2h12a2 2 0 002-2v-7h-2v3.234z"/></g></symbol><symbol viewBox="0 0 24 24" id="gridicons-add-outline"><g><path d="M12 4c4.411 0 8 3.589 8 8s-3.589 8-8 8-8-3.589-8-8 3.589-8 8-8m0-2C6.477 2 2 6.477 2 12s4.477 10 10 10 10-4.477 10-10S17.523 2 12 2zm5 9h-4V7h-2v4H7v2h4v4h2v-4h4v-2z"/></g></symbol><symbol viewBox="0 0 24 24" id="gridicons-add"><g><path d="M12 2C6.477 2 2 6.477 2 12s4.477 10 10 10 10-4.477 10-10S17.523 2 12 2zm5 11h-4v4h-2v-4H7v-2h4V7h2v4h4v2z"/></g></symbol><symbol viewBox="0 0 24 24" id="gridicons-align-center"><g><path d="M4 19h16v-2H4v2zm13-6H7v2h10v-2zM4 9v2h16V9H4zm13-4H7v2h10V5z"/></g></symbol><symbol viewBox="0 0 24 24" id="gridicons-align-image-center"><g><path d="M3 5h18v2H3V5zm0 14h18v-2H3v2zm5-4h8V9H8v6z"/></g></symbol><symbol viewBox="0 0 24 24" id="gridicons-align-image-left"><g><path d="M3 5h18v2H3V5zm0 14h18v-2H3v2zm0-4h8V9H3v6zm10 0h8v-2h-8v2zm0-4h8V9h-8v2z"/></g></symbol><symbol viewBox="0 0 24 24" id="gridicons-align-image-none"><g><path d="M21 7H3V5h18v2zm0 10H3v2h18v-2zM11 9H3v6h8V9z"/></g></symbol><symbol viewBox="0 0 24 24" id="gridicons-align-image-right"><g><path d="M21 7H3V5h18v2zm0 10H3v2h18v-2zm0-8h-8v6h8V9zm-10 4H3v2h8v-2zm0-4H3v2h8V9z"/></g></symbol><symbol viewBox="0 0 24 24" id="gridicons-align-justify"><g><path d="M4 19h16v-2H4v2zm16-6H4v2h16v-2zM4 9v2h16V9H4zm16-4H4v2h16V5z"/></g></symbol><symbol viewBox="0 0 24 24" id="gridicons-align-left"><g><path d="M4 19h16v-2H4v2zm10-6H4v2h10v-2zM4 9v2h16V9H4zm10-4H4v2h10V5z"/></g></symbol><symbol viewBox="0 0 24 24" id="gridicons-align-right"><g><path d="M20 17H4v2h16v-2zm-10-2h10v-2H10v2zM4 9v2h16V9H4zm6-2h10V5H10v2z"/></g></symbol><symbol viewBox="0 0 24 24" id="gridicons-arrow-down"><g><path d="M11 4v12.17l-5.59-5.59L4 12l8 8 8-8-1.41-1.41L13 16.17V4h-2z"/></g></symbol><symbol viewBox="0 0 24 24" id="gridicons-arrow-left"><g><path d="M20 11H7.83l5.59-5.59L12 4l-8 8 8 8 1.41-1.41L7.83 13H20v-2z"/></g></symbol><symbol viewBox="0 0 24 24" id="gridicons-arrow-right"><g><path d="M12 4l-1.41 1.41L16.17 11H4v2h12.17l-5.58 5.59L12 20l8-8-8-8z"/></g></symbol><symbol viewBox="0 0 24 24" id="gridicons-arrow-up"><g><path d="M13 20V7.83l5.59 5.59L20 12l-8-8-8 8 1.41 1.41L11 7.83V20h2z"/></g></symbol><symbol viewBox="0 0 24 24" id="gridicons-aside"><g><path d="M14 20l6-6V6a2 2 0 00-2-2H6a2 2 0 00-2 2v12a2 2 0 002 2h8zM6 6h12v6h-4a2 2 0 00-2 2v4H6V6zm10 4H8V8h8v2z"/></g></symbol><symbol viewBox="0 0 24 24" id="gridicons-attachment"><g><path d="M14 1a5 5 0 00-5 5v10a3 3 0 003 3 2.991 2.991 0 002.99-3V6H13v10a1 1 0 11-2 0V6a3 3 0 116 0v10.125C17 18.887 14.762 21 12 21a5 5 0 01-5-5v-5H5v5a7 7 0 007 7 6.991 6.991 0 006.99-7V6c0-2.762-2.228-5-4.99-5z"/></g></symbol><symbol viewBox="0 0 24 24" id="gridicons-audio"><g><path d="M8 4v10.184A2.962 2.962 0 007 14a3 3 0 103 3V7h7v4.184A2.962 2.962 0 0016 11a3 3 0 103 3V4H8z"/></g></symbol><symbol viewBox="0 0 24 24" id="gridicons-bell"><g><path d="M6.14 14.969l2.828 2.828a2 2 0 11-2.828-2.828zm8.867 5.325l-.706.706L3 9.699l.706-.706 1.102.157c.754.108 1.689-.122 2.077-.51l3.885-3.884a5.993 5.993 0 018.475 8.475l-3.885 3.885c-.388.388-.618 1.323-.51 2.077l.157 1.101z"/></g></symbol><symbol viewBox="0 0 24 24" id="gridicons-block"><g><path d="M12 2C6.477 2 2 6.477 2 12s4.477 10 10 10 10-4.477 10-10S17.523 2 12 2zM4 12a8 8 0 018-8c1.848 0 3.545.633 4.9 1.686L5.686 16.9A7.957 7.957 0 014 12zm8 8a7.955 7.955 0 01-4.9-1.686L18.314 7.1A7.957 7.957 0 0120 12a8 8 0 01-8 8z"/></g></symbol><symbol viewBox="0 0 24 24" id="gridicons-bold"><g><path d="M7 5.009h4.547c2.126 0 3.671.303 4.632.907.962.605 1.442 1.567 1.442 2.887 0 .896-.211 1.63-.631 2.205-.421.574-.98.919-1.678 1.036v.103c.951.212 1.637.608 2.057 1.189.421.58.631 1.352.631 2.316 0 1.367-.494 2.434-1.482 3.199-.989.766-2.332 1.149-4.027 1.149H7V5.009zm3 5.937h2.027c.862 0 1.486-.133 1.872-.4.387-.267.579-.708.579-1.323 0-.574-.21-.986-.63-1.236-.421-.249-1.087-.374-1.996-.374H10v3.333zm0 2.523v3.906h2.253c.876 0 1.521-.167 1.939-.502.417-.335.626-.848.626-1.539 0-1.244-.889-1.865-2.668-1.865H10z"/></g></symbol><symbol viewBox="0 0 24 24" id="gridicons-book"><g><path d="M4 3h2v18H4zM18 3H7v18h11c1.1 0 2-.9 2-2V5c0-1.1-.9-2-2-2zm-2 6h-6V8h6v1zm0-2h-6V6h6v1z"/></g></symbol><symbol viewBox="0 0 24 24" id="gridicons-bookmark-outline"><g><path d="M17 5v12.554l-5-2.857-5 2.857V5h10m0-2H7a2 2 0 00-2 2v16l7-4 7 4V5a2 2 0 00-2-2z"/></g></symbol><symbol viewBox="0 0 24 24" id="gridicons-bookmark"><g><path d="M17 3H7a2 2 0 00-2 2v16l7-4 7 4V5a2 2 0 00-2-2z"/></g></symbol><symbol viewBox="0 0 24 24" id="gridicons-briefcase"><g><path d="M14 15h-4v-2H2v6a2 2 0 002 2h16a2 2 0 002-2v-6h-8v2zm6-9h-2V4a2 2 0 00-2-2H8a2 2 0 00-2 2v2H4a2 2 0 00-2 2v4h20V8a2 2 0 00-2-2zm-4 0H8V4h8v2z"/></g></symbol><symbol viewBox="0 0 24 24" id="gridicons-bug"><g><path d="M18 14h4v-2h-4v-2h1a2 2 0 002-2V6h-2v2H5V6H3v2a2 2 0 002 2h1v2H2v2h4v1a6 6 0 00.09 1H5a2 2 0 00-2 2v2h2v-2h1.81A6 6 0 0011 20.91V10h2v10.91A6 6 0 0017.19 18H19v2h2v-2a2 2 0 00-2-2h-1.09a6 6 0 00.09-1zM12 2a4 4 0 00-4 4h8a4 4 0 00-4-4z"/></g></symbol><symbol viewBox="0 0 24 24" id="gridicons-calendar"><g><path d="M19 4h-1V2h-2v2H8V2H6v2H5a2 2 0 00-2 2v13a2 2 0 002 2h14a2 2 0 002-2V6a2 2 0 00-2-2zm0 15H5V8h14v11z"/></g></symbol><symbol viewBox="0 0 24 24" id="gridicons-camera"><g><path d="M17 12c0 1.7-1.3 3-3 3s-3-1.3-3-3 1.3-3 3-3 3 1.3 3 3zm5-5v11c0 1.1-.9 2-2 2H4c-1.1 0-2-.9-2-2V7c0-1.1.9-2 2-2V4h4v1h2l1-2h6l1 2h2c1.1 0 2 .9 2 2zM7.5 9c0-.8-.7-1.5-1.5-1.5S4.5 8.2 4.5 9s.7 1.5 1.5 1.5S7.5 9.8 7.5 9zM19 12c0-2.8-2.2-5-5-5s-5 2.2-5 5 2.2 5 5 5 5-2.2 5-5z"/></g></symbol><symbol viewBox="0 0 24 24" id="gridicons-caption"><g><path d="M20 15l2-2v5a2 2 0 01-2 2H4a2 2 0 01-2-2V6a2 2 0 012-2h13l-2 2H4v12h16v-3zm2.44-8.56l-.88-.88a1.5 1.5 0 00-2.12 0L12 13v2H6v2h9v-1l7.44-7.44a1.5 1.5 0 000-2.12z"/></g></symbol><symbol viewBox="0 0 24 24" id="gridicons-cart"><g><path d="M9 20c0 1.1-.9 2-2 2s-1.99-.9-1.99-2S5.9 18 7 18s2 .9 2 2zm8-2c-1.1 0-1.99.9-1.99 2s.89 2 1.99 2 2-.9 2-2-.9-2-2-2zm.396-5a2 2 0 001.952-1.566L21 5H7V4a2 2 0 00-2-2H3v2h2v11a2 2 0 002 2h12a2 2 0 00-2-2H7v-2h10.396z"/></g></symbol><symbol viewBox="0 0 24 24" id="gridicons-chat"><g><path d="M3 12c-1.1 0-2-.9-2-2V5c0-1.1.9-2 2-2h8c1.1 0 2 .9 2 2v5c0 1.1-.9 2-2 2H9v3l-3-3H3zM21 18c1.1 0 2-.9 2-2v-5c0-1.1-.9-2-2-2h-6v1c0 2.2-1.8 4-4 4v2c0 1.1.9 2 2 2h2v3l3-3h3z"/></g></symbol><symbol viewBox="0 0 24 24" id="gridicons-checkmark-circle"><g><path d="M11 17.768l-4.884-4.884 1.768-1.768L11 14.232l8.658-8.658A9.98 9.98 0 0012 2C6.477 2 2 6.477 2 12s4.477 10 10 10 10-4.477 10-10a9.94 9.94 0 00-.966-4.266L11 17.768z"/></g></symbol><symbol viewBox="0 0 24 24" id="gridicons-checkmark"><g><path d="M9 19.414l-6.707-6.707 1.414-1.414L9 16.586 20.293 5.293l1.414 1.414z"/></g></symbol><symbol viewBox="0 0 24 24" id="gridicons-chevron-down"><g><path d="M20 9l-8 8-8-8 1.414-1.414L12 14.172l6.586-6.586z"/></g></symbol><symbol viewBox="0 0 24 24" id="gridicons-chevron-left"><g><path d="M14 20l-8-8 8-8 1.414 1.414L8.828 12l6.586 6.586z"/></g></symbol><symbol viewBox="0 0 24 24" id="gridicons-chevron-right"><g><path d="M10 20l8-8-8-8-1.414 1.414L15.172 12l-6.586 6.586z"/></g></symbol><symbol viewBox="0 0 24 24" id="gridicons-chevron-up"><g><path d="M4 15l8-8 8 8-1.414 1.414L12 9.828l-6.586 6.586z"/></g></symbol><symbol viewBox="0 0 24 24" id="gridicons-clear-formatting"><g><path d="M10.837 10.163l-4.6 4.6L10 4h4l.777 2.223-2.144 2.144-.627-2.092-1.169 3.888zm5.495.506L19.244 19H15.82l-1.049-3.5H11.5L5 22l-1.5-1.5 17-17L22 5l-5.668 5.669zm-2.311 2.31l-.031.031.032-.01-.001-.021z"/></g></symbol><symbol viewBox="0 0 24 24" id="gridicons-clipboard"><g><path d="M16 18H8v-2h8v2zm0-6H8v2h8v-2zm2-9h-2v2h2v15H6V5h2V3H6a2 2 0 00-2 2v15a2 2 0 002 2h12a2 2 0 002-2V5a2 2 0 00-2-2zm-4 2V4a2 2 0 10-4 0v1a2 2 0 00-2 2v1h8V7a2 2 0 00-2-2z"/></g></symbol><symbol viewBox="0 0 24 24" id="gridicons-cloud-download"><g><path d="M18 9c-.009 0-.017.002-.025.003A6.496 6.496 0 005 9.5a6.5 6.5 0 00.186 1.519C5.123 11.016 5.064 11 5 11a4 4 0 00-4 4c0 1.202.541 2.267 1.38 3h18.593C22.196 17.089 23 15.643 23 14a5 5 0 00-5-5zm-6 7l-4-5h3V8h2v3h3l-4 5z"/></g></symbol><symbol viewBox="0 0 24 24" id="gridicons-cloud-outline"><g><path d="M11.5 5a4.514 4.514 0 014.481 4.154l.141 1.861 1.867-.013.093-.001A3.003 3.003 0 0121 14c0 .748-.28 1.452-.783 2H3.279A1.906 1.906 0 013 15c0-1.074.851-1.953 1.915-1.998.059.007.118.012.178.015l2.659.124-.621-2.588A4.468 4.468 0 017 9.5C7 7.019 9.019 5 11.5 5m0-2A6.5 6.5 0 005 9.5a6.5 6.5 0 00.186 1.519C5.123 11.016 5.064 11 5 11a4 4 0 00-4 4c0 1.202.541 2.267 1.38 3h18.593C22.196 17.089 23 15.643 23 14a5 5 0 00-5-5l-.025.002A6.496 6.496 0 0011.5 3z"/></g></symbol><symbol viewBox="0 0 24 24" id="gridicons-cloud-upload"><g><path d="M18 9c-.009 0-.017.002-.025.003A6.496 6.496 0 005 9.5a6.5 6.5 0 00.186 1.519C5.123 11.016 5.064 11 5 11a4 4 0 00-4 4c0 1.202.541 2.267 1.38 3h18.593C22.196 17.089 23 15.643 23 14a5 5 0 00-5-5zm-5 4v3h-2v-3H8l4-5 4 5h-3z"/></g></symbol><symbol viewBox="0 0 24 24" id="gridicons-cloud"><g><path d="M18 9c-.009 0-.017.002-.025.003A6.496 6.496 0 005 9.5a6.5 6.5 0 00.186 1.519C5.123 11.016 5.064 11 5 11a4 4 0 00-4 4c0 1.202.541 2.267 1.38 3h18.593C22.196 17.089 23 15.643 23 14a5 5 0 00-5-5z"/></g></symbol><symbol viewBox="0 0 24 24" id="gridicons-code"><g><path d="M23 12l-5.45 6.5L16 17.21 20.39 12 16 6.79l1.55-1.29zM8 6.79L6.45 5.5 1 12l5.45 6.5L8 17.21 3.61 12zm.45 14.61l1.93.52L15.55 2.6l-1.93-.52z"/></g></symbol><symbol viewBox="0 0 24 24" id="gridicons-cog"><g><path d="M20 12c0-.568-.061-1.122-.174-1.656l1.834-1.612-2-3.464-2.322.786a7.97 7.97 0 00-2.859-1.657L14 2h-4l-.479 2.396a7.97 7.97 0 00-2.859 1.657L4.34 5.268l-2 3.464 1.834 1.612a7.993 7.993 0 000 3.312L2.34 15.268l2 3.464 2.322-.786a7.97 7.97 0 002.859 1.657L10 22h4l.479-2.396a7.978 7.978 0 002.859-1.657l2.322.786 2-3.464-1.834-1.612A8.01 8.01 0 0020 12zm-8 4a4 4 0 110-8 4 4 0 010 8z"/></g></symbol><symbol viewBox="0 0 24 24" id="gridicons-comment"><g><path d="M12 16l-5 5v-5H5c-1.1 0-2-.9-2-2V5c0-1.1.9-2 2-2h14c1.1 0 2 .9 2 2v9c0 1.1-.9 2-2 2h-7z"/></g></symbol><symbol viewBox="0 0 24 24" id="gridicons-computer"><g><path d="M20 2H4a2 2 0 00-2 2v12a2 2 0 002 2h6v2H7v2h10v-2h-3v-2h6a2 2 0 002-2V4a2 2 0 00-2-2zm0 14H4V4h16v12z"/></g></symbol><symbol viewBox="0 0 24 24" id="gridicons-coupon"><g><path d="M13 16v2h-2v-2h2zm3-3h2v-2h-2v2zm2 8h-2v2h2v-2zm3-5v2h2v-2h-2zm-1-3a1 1 0 011 1h2a3 3 0 00-3-3v2zm1 7a1 1 0 01-1 1v2a3 3 0 003-3h-2zm-7 1a1 1 0 01-1-1h-2a3 3 0 003 3v-2zm3.21-5.21a2 2 0 01-2.828.002l-.002-.002L10 11.41l-1.43 1.44c.279.506.427 1.073.43 1.65A3.5 3.5 0 115.5 11a3.454 3.454 0 011.65.43L8.59 10 7.15 8.57A3.454 3.454 0 015.5 9 3.5 3.5 0 119 5.5a3.454 3.454 0 01-.43 1.65L10 8.59l3.88-3.88a2 2 0 012.828-.002l.002.002-5.3 5.29 5.8 5.79zM5.5 7a1.5 1.5 0 10-.001-3.001A1.5 1.5 0 005.5 7zM7 14.5a1.5 1.5 0 10-3.001.001A1.5 1.5 0 007 14.5z"/></g></symbol><symbol viewBox="0 0 24 24" id="gridicons-create"><g><path d="M21 14v5a2 2 0 01-2 2H5a2 2 0 01-2-2V5a2 2 0 012-2h5v2H5v14h14v-5h2z"/><path d="M21 7h-4V3h-2v4h-4v2h4v4h2V9h4z"/></g></symbol><symbol viewBox="0 0 24 24" id="gridicons-credit-card"><g><path d="M20 4H4a2 2 0 00-2 2v12a2 2 0 002 2h16a2 2 0 002-2V6a2 2 0 00-2-2zm0 2v2H4V6h16zM4 18v-6h16v6H4zm2-4h7v2H6v-2zm9 0h3v2h-3v-2z"/></g></symbol><symbol viewBox="0 0 24 24" id="gridicons-crop"><g><path d="M22 16h-4V8a2 2 0 00-2-2H8V2H6v4H2v2h4v8a2 2 0 002 2h8v4h2v-4h4v-2zM8 16V8h8v8H8z"/></g></symbol><symbol viewBox="0 0 24 24" id="gridicons-cross-circle"><g><path d="M19.1 4.9C15.2 1 8.8 1 4.9 4.9S1 15.2 4.9 19.1s10.2 3.9 14.1 0 4-10.3.1-14.2zm-4.3 11.3L12 13.4l-2.8 2.8-1.4-1.4 2.8-2.8-2.8-2.8 1.4-1.4 2.8 2.8 2.8-2.8 1.4 1.4-2.8 2.8 2.8 2.8-1.4 1.4z"/></g></symbol><symbol viewBox="0 0 24 24" id="gridicons-cross-small"><g><path d="M17.705 7.705l-1.41-1.41L12 10.59 7.705 6.295l-1.41 1.41L10.59 12l-4.295 4.295 1.41 1.41L12 13.41l4.295 4.295 1.41-1.41L13.41 12l4.295-4.295z"/></g></symbol><symbol viewBox="0 0 24 24" id="gridicons-cross"><g><path d="M18.36 19.78L12 13.41l-6.36 6.37-1.42-1.42L10.59 12 4.22 5.64l1.42-1.42L12 10.59l6.36-6.36 1.41 1.41L13.41 12l6.36 6.36z"/></g></symbol><symbol viewBox="0 0 24 24" id="gridicons-custom-post-type"><g><path d="M19 3H5a2 2 0 00-2 2v14a2 2 0 002 2h14a2 2 0 002-2V5a2 2 0 00-2-2zM6 6h5v5H6V6zm4.5 13a2.5 2.5 0 110-5 2.5 2.5 0 010 5zm3-6l3-5 3 5h-6z"/></g></symbol><symbol viewBox="0 0 24 24" id="gridicons-customize"><g><path d="M2 6c0-1.505.78-3.08 2-4 0 .845.69 2 2 2a3 3 0 013 3c0 .386-.079.752-.212 1.091a74.515 74.515 0 012.191 1.808l-2.08 2.08a75.852 75.852 0 01-1.808-2.191A2.977 2.977 0 016 10c-2.21 0-4-1.79-4-4zm12.152 6.848l1.341-1.341A4.446 4.446 0 0017.5 12 4.5 4.5 0 0022 7.5c0-.725-.188-1.401-.493-2.007L18 9l-2-2 3.507-3.507A4.446 4.446 0 0017.5 3 4.5 4.5 0 0013 7.5c0 .725.188 1.401.493 2.007L3 20l2 2 6.848-6.848a68.562 68.562 0 005.977 5.449l1.425 1.149 1.5-1.5-1.149-1.425a68.562 68.562 0 00-5.449-5.977z"/></g></symbol><symbol viewBox="0 0 24 24" id="gridicons-domains"><g><path d="M12 2C6.477 2 2 6.477 2 12s4.477 10 10 10 10-4.477 10-10S17.523 2 12 2zm6.918 6h-3.215a49.088 49.088 0 00-.565-3.357A8.048 8.048 0 0118.918 8zm-5.904-3.928c.068.352.387 2.038.645 3.928h-3.318c.258-1.89.577-3.576.645-3.928C11.319 4.029 11.656 4 12 4s.681.029 1.014.072zM14 12c0 .598-.043 1.286-.109 2h-3.782c-.066-.714-.109-1.402-.109-2s.043-1.286.109-2h3.782c.066.714.109 1.402.109 2zM8.862 4.643A49.088 49.088 0 008.297 8H5.082a8.048 8.048 0 013.78-3.357zM4.263 10h3.821C8.033 10.668 8 11.344 8 12s.033 1.332.085 2H4.263C4.097 13.359 4 12.692 4 12s.098-1.359.263-2zm.819 6h3.215c.188 1.424.42 2.65.565 3.357A8.048 8.048 0 015.082 16zm5.904 3.928A77.282 77.282 0 0110.341 16h3.318a78.303 78.303 0 01-.645 3.928c-.333.043-.67.072-1.014.072s-.681-.029-1.014-.072zm4.152-.571c.145-.707.377-1.933.565-3.357h3.215a8.048 8.048 0 01-3.78 3.357zM19.737 14h-3.821c.051-.668.084-1.344.084-2s-.033-1.332-.085-2h3.821c.166.641.264 1.308.264 2s-.097 1.359-.263 2z"/></g></symbol><symbol viewBox="0 0 24 24" id="gridicons-dropdown"><g><path d="M7 10l5 5 5-5z"/></g></symbol><symbol viewBox="0 0 24 24" id="gridicons-ellipsis-circle"><g><path d="M12 2C6.5 2 2 6.5 2 12s4.5 10 10 10 10-4.5 10-10S17.5 2 12 2zM7.5 13.5c-.8 0-1.5-.7-1.5-1.5s.7-1.5 1.5-1.5S9 11.2 9 12s-.7 1.5-1.5 1.5zm4.5 0c-.8 0-1.5-.7-1.5-1.5s.7-1.5 1.5-1.5 1.5.7 1.5 1.5-.7 1.5-1.5 1.5zm4.5 0c-.8 0-1.5-.7-1.5-1.5s.7-1.5 1.5-1.5 1.5.7 1.5 1.5-.7 1.5-1.5 1.5z"/></g></symbol><symbol viewBox="0 0 24 24" id="gridicons-ellipsis"><g><path d="M7 12a2 2 0 11-4.001-.001A2 2 0 017 12zm12-2a2 2 0 10.001 4.001A2 2 0 0019 10zm-7 0a2 2 0 10.001 4.001A2 2 0 0012 10z"/></g></symbol><symbol viewBox="0 0 24 24" id="gridicons-external"><g><path d="M19 13v6a2 2 0 01-2 2H5a2 2 0 01-2-2V7a2 2 0 012-2h6v2H5v12h12v-6h2zM13 3v2h4.586l-7.793 7.793 1.414 1.414L19 6.414V11h2V3h-8z"/></g></symbol><symbol viewBox="0 0 24 24" id="gridicons-filter"><g><path d="M10 19h4v-2h-4v2zm-4-6h12v-2H6v2zM3 5v2h18V5H3z"/></g></symbol><symbol viewBox="0 0 24 24" id="gridicons-fire"><g><path d="M21.5 13.4c0 1.2-.2 2.3-.7 3.4-.5 1.1-1.2 2-2.1 2.9-.9.8-1.9 1.5-3.1 1.9-.5.2-1.1.4-1.7.5l.3-.1s2.2-1.3 2.7-4.1c.2-2.5-1.9-3.6-1.9-3.6s-1.1 1.4-2.6 1.4c-2.4 0-2-4-2-4s-3.6 1.9-3.6 5.9c0 2.5 2.6 4.4 2.6 4.4-.3-.1-.7-.2-1-.3-1.2-.4-2.2-1.1-3.1-1.9-.9-.8-1.6-1.8-2.1-2.9-.5-1.1-.7-2.2-.7-3.4 0-3.9 4.6-7.7 4.6-7.7s.4 3 2.7 3c4.2 0 2.7-6.7 2.7-6.7s3.8 2.2 4.9 8.2c2.1-.3 1.9-3 1.9-3s2.2 2.9 2.2 6.1"/></g></symbol><symbol viewBox="0 0 24 24" id="gridicons-flag"><g><path d="M15 6a2 2 0 00-2-2H5v17h2v-7h5a2 2 0 002 2h6V6h-5z"/></g></symbol><symbol viewBox="0 0 24 24" id="gridicons-flip-horizontal"><g><path d="M20 18v-5h3v-2h-3V6a2 2 0 00-2-2H6a2 2 0 00-2 2v5H1v2h3v5a2 2 0 002 2h12a2 2 0 002-2zM6 6h12v5H6V6z"/></g></symbol><symbol viewBox="0 0 24 24" id="gridicons-flip-vertical"><g><path d="M18 4h-5V1h-2v3H6a2 2 0 00-2 2v12a2 2 0 002 2h5v3h2v-3h5a2 2 0 002-2V6a2 2 0 00-2-2zM6 18V6h5v12H6z"/></g></symbol><symbol viewBox="0 0 24 24" id="gridicons-folder-multiple"><g><path d="M4 8a2 2 0 00-2 2v10c0 1.1.9 2 2 2h14a2 2 0 002-2H4V8zm16 10H8a2 2 0 01-2-2V6a2 2 0 012-2h3a2 2 0 012 2h7a2 2 0 012 2v8a2 2 0 01-2 2z"/></g></symbol><symbol viewBox="0 0 24 24" id="gridicons-folder"><g><path d="M18 19H6c-1.1 0-2-.9-2-2V7c0-1.1.9-2 2-2h3c1.1 0 2 .9 2 2h7c1.1 0 2 .9 2 2v8c0 1.1-.9 2-2 2z"/></g></symbol><symbol viewBox="0 0 24 24" id="gridicons-fullscreen-exit"><g><path d="M14 10V4h2v2.59l3.29-3.29 1.41 1.41L17.41 8H20v2zM4 10V8h2.59l-3.3-3.29 1.42-1.42L8 6.59V4h2v6zm16 4v2h-2.59l3.29 3.29-1.41 1.41L16 17.41V20h-2v-6zm-10 0v6H8v-2.59l-3.29 3.3-1.42-1.42L6.59 16H4v-2z"/></g></symbol><symbol viewBox="0 0 24 24" id="gridicons-fullscreen"><g><path d="M21 3v6h-2V6.41l-3.29 3.3-1.42-1.42L17.59 5H15V3zM3 3v6h2V6.41l3.29 3.3 1.42-1.42L6.41 5H9V3zm18 18v-6h-2v2.59l-3.29-3.29-1.41 1.41L17.59 19H15v2zM9 21v-2H6.41l3.29-3.29-1.41-1.42L5 17.59V15H3v6z"/></g></symbol><symbol viewBox="0 0 24 24" id="gridicons-gift"><g><path d="M22 6h-4.8c.5-.5.8-1.2.8-2 0-1.7-1.3-3-3-3s-3 1.3-3 3c0-1.7-1.3-3-3-3S6 2.3 6 4c0 .8.3 1.5.8 2H2v6h1v8c0 1.1.9 2 2 2h14c1.1 0 2-.9 2-2v-8h1V6zm-2 4h-7V8h7v2zm-5-7c.6 0 1 .4 1 1s-.4 1-1 1-1-.4-1-1 .4-1 1-1zM9 3c.6 0 1 .4 1 1s-.4 1-1 1-1-.4-1-1 .4-1 1-1zM4 8h7v2H4V8zm1 4h6v8H5v-8zm14 8h-6v-8h6v8z"/></g></symbol><symbol viewBox="0 0 24 24" id="gridicons-globe"><g><path d="M12 2C6.477 2 2 6.477 2 12s4.477 10 10 10 10-4.477 10-10S17.523 2 12 2zm0 18l2-2 1-1v-2h-2v-1l-1-1H9v3l2 2v1.931C7.06 19.436 4 16.072 4 12l1 1h2v-2h2l3-3V6h-2L9 5v-.411a7.945 7.945 0 016 0V6l-1 1v2l1 1 3.13-3.13A7.983 7.983 0 0119.736 10H18l-2 2v2l1 1h2l.286.286C18.029 18.061 15.239 20 12 20z"/></g></symbol><symbol viewBox="0 0 24 24" id="gridicons-grid"><g><path d="M8 8H4V4h4v4zm6-4h-4v4h4V4zm6 0h-4v4h4V4zM8 10H4v4h4v-4zm6 0h-4v4h4v-4zm6 0h-4v4h4v-4zM8 16H4v4h4v-4zm6 0h-4v4h4v-4zm6 0h-4v4h4v-4z"/></g></symbol><symbol viewBox="0 0 24 24" id="gridicons-heading-h1"><g><path d="M11 7h2v10h-2v-4H7v4H5V7h2v4h4V7zm6.57 0A4.742 4.742 0 0115 9v1h2v7h2V7h-1.43z"/></g></symbol><symbol viewBox="0 0 24 24" id="gridicons-heading-h2"><g><path d="M9 7h2v10H9v-4H5v4H3V7h2v4h4V7zm8 8c.51-.41.6-.62 1.06-1.05.437-.4.848-.828 1.23-1.28a6.4 6.4 0 00.85-1.28c.199-.39.305-.822.31-1.26a3.007 3.007 0 00-.27-1.28 2.902 2.902 0 00-.76-1 3.485 3.485 0 00-1.17-.63 4.766 4.766 0 00-1.5-.22c-.359 0-.717.033-1.07.1a4.895 4.895 0 00-1 .29 4.431 4.431 0 00-.86.49c-.287.21-.561.437-.82.68l1.24 1.22a5.829 5.829 0 011-.7c.35-.201.747-.304 1.15-.3a1.91 1.91 0 011.27.38c.311.278.477.684.45 1.1a2.127 2.127 0 01-.36 1.11 7.126 7.126 0 01-1 1.25c-.44.43-.98.92-1.59 1.43-.61.51-1.41 1.06-2.16 1.65V17h8v-2h-4z"/></g></symbol><symbol viewBox="0 0 24 24" id="gridicons-heading-h3"><g><path d="M14.11 14.218c.355.287.749.523 1.17.7.434.181.9.273 1.37.27.484.017.965-.086 1.4-.3a.92.92 0 00.55-.84 1.136 1.136 0 00-.15-.58 1.137 1.137 0 00-.51-.43 3.65 3.65 0 00-1-.27 9.786 9.786 0 00-1.52-.1v-1.57a4.73 4.73 0 002.17-.36 1.06 1.06 0 00.63-.93.9.9 0 00-.38-.81 2.002 2.002 0 00-1.13-.28 2.836 2.836 0 00-1.14.28 5.568 5.568 0 00-1.06.62l-1.22-1.39a6.55 6.55 0 011.64-.9 5.354 5.354 0 011.9-.33 6.448 6.448 0 011.56.17c.431.101.84.277 1.21.52.325.211.595.495.79.83.19.342.287.729.28 1.12.011.48-.177.943-.52 1.28a3.867 3.867 0 01-1.46.86v.06c.609.14 1.175.425 1.65.83.437.382.68.94.66 1.52.005.421-.113.835-.34 1.19a2.853 2.853 0 01-.9.88 4.462 4.462 0 01-1.32.55 6.395 6.395 0 01-1.57.19 6.42 6.42 0 01-2.31-.37 4.29 4.29 0 01-1.57-1l1.12-1.41zM9 11H5V7H3v10h2v-4h4v4h2V7H9v4z"/></g></symbol><symbol viewBox="0 0 24 24" id="gridicons-heading-h4"><g><path d="M11 17H9v-4H5v4H3V7h2v4h4V7h2v10zm10-2h-1v2h-2v-2h-5v-2l4.05-6H20v6h1v2zm-3-2V9l-2.79 4H18z"/></g></symbol><symbol viewBox="0 0 24 24" id="gridicons-heading-h5"><g><path d="M14.09 14.19c.352.269.73.5 1.13.69a3.07 3.07 0 001.34.29 2.54 2.54 0 001.44-.4 1.29 1.29 0 00.57-1.14A1.3 1.3 0 0018 12.5a2.292 2.292 0 00-1.38-.39h-.47a2.197 2.197 0 00-.4.08l-.41.15-.48.23-1.02-.57.28-5h6.4v1.92h-4.31L16 10.76a4.57 4.57 0 01.68-.18c.235-.037.472-.054.71-.05.463-.004.924.057 1.37.18.411.115.798.305 1.14.56.33.248.597.57.78.94.212.422.322.888.32 1.36.007.497-.11.989-.34 1.43a3.336 3.336 0 01-.91 1.07c-.393.3-.837.527-1.31.67a5.165 5.165 0 01-1.54.26 5.993 5.993 0 01-2.31-.39 5.427 5.427 0 01-1.59-1l1.09-1.42zM11 17H9v-4H5v4H3V7h2v4h4V7h2v10z"/></g></symbol><symbol viewBox="0 0 24 24" id="gridicons-heading-h6"><g><path d="M11 17H9v-4H5v4H3V7h2v4h4V7h2v10zm8.579-7.508a3.157 3.157 0 00-.82-.49 2.683 2.683 0 00-1.94 0 1.991 1.991 0 00-.78.52c-.244.27-.431.586-.55.93a4.643 4.643 0 00-.25 1.43 4.168 4.168 0 011.25-.77c.406-.171.84-.262 1.28-.27.416-.006.83.048 1.23.16.365.118.705.304 1 .55.296.253.529.571.68.93.194.403.303.843.32 1.29.01.468-.093.931-.3 1.35a3.192 3.192 0 01-.83 1 3.63 3.63 0 01-1.2.64 4.71 4.71 0 01-3-.05 3.71 3.71 0 01-1.35-.85 4.193 4.193 0 01-1-1.48 5.809 5.809 0 01-.32-2.16 6.496 6.496 0 01.38-2.34 4.58 4.58 0 011-1.62c.407-.416.898-.74 1.44-.95a4.637 4.637 0 011.7-.31 5.192 5.192 0 012 .34c.5.19.963.464 1.37.81l-1.31 1.34zm-2.39 5.84c.203.001.406-.03.6-.09.184-.046.357-.128.51-.24.151-.136.271-.303.35-.49.093-.225.137-.467.13-.71a1.259 1.259 0 00-.43-1.07 1.806 1.806 0 00-1.12-.33 2.406 2.406 0 00-1 .21 2.913 2.913 0 00-1 .73c.047.346.144.683.29 1 .109.231.258.441.44.62.153.149.338.261.54.33.226.055.46.068.69.04z"/></g></symbol><symbol viewBox="0 0 24 24" id="gridicons-heading"><g><path d="M18 20h-3v-6H9v6H6V5.009h3V11h6V5.009h3V20z"/></g></symbol><symbol viewBox="0 0 24 24" id="gridicons-heart-outline"><g><path d="M16.5 4.5c2.206 0 4 1.794 4 4 0 4.669-5.543 8.941-8.5 11.023C9.043 17.441 3.5 13.169 3.5 8.5c0-2.206 1.794-4 4-4a4.01 4.01 0 013.273 1.706L12 7.953l1.227-1.746A4.008 4.008 0 0116.5 4.5m0-1.5A5.49 5.49 0 0012 5.344 5.49 5.49 0 007.5 3 5.5 5.5 0 002 8.5c0 5.719 6.5 10.438 10 12.85 3.5-2.412 10-7.131 10-12.85A5.5 5.5 0 0016.5 3z"/></g></symbol><symbol viewBox="0 0 24 24" id="gridicons-heart"><g><path d="M16.5 3A5.49 5.49 0 0012 5.344 5.49 5.49 0 007.5 3 5.5 5.5 0 002 8.5c0 5.719 6.5 10.438 10 12.85 3.5-2.412 10-7.131 10-12.85A5.5 5.5 0 0016.5 3z"/></g></symbol><symbol viewBox="0 0 24 24" id="gridicons-help-outline"><g><path d="M12 4c4.411 0 8 3.589 8 8s-3.589 8-8 8-8-3.589-8-8 3.589-8 8-8m0-2C6.477 2 2 6.477 2 12s4.477 10 10 10 10-4.477 10-10S17.523 2 12 2zm4 8a4 4 0 00-8 0h2c0-1.103.897-2 2-2s2 .897 2 2-.897 2-2 2a1 1 0 00-1 1v2h2v-1.141A3.991 3.991 0 0016 10zm-3 6h-2v2h2v-2z"/></g></symbol><symbol viewBox="0 0 24 24" id="gridicons-help"><g><path d="M12 2C6.477 2 2 6.477 2 12s4.477 10 10 10 10-4.477 10-10S17.523 2 12 2zm1 16h-2v-2h2v2zm0-4.141V15h-2v-2a1 1 0 011-1c1.103 0 2-.897 2-2s-.897-2-2-2-2 .897-2 2H8a4 4 0 018 0 3.991 3.991 0 01-3 3.859z"/></g></symbol><symbol viewBox="0 0 24 24" id="gridicons-history"><g><path d="M2.12 13.526c.742 4.781 4.902 8.47 9.881 8.47 5.499 0 9.998-4.499 9.998-9.998S17.501 2 12.002 2C8.704 2 5.802 3.601 4 6V2.001L2.003 2 2 9h7V7l-3.199-.001C7.2 5.201 9.502 4 12.002 4 16.4 4 20 7.6 20 11.998s-3.6 7.999-7.999 7.999c-3.878 0-7.132-2.794-7.849-6.471H2.12z"/><path d="M11.002 6.999v5.302l3.201 4.297 1.6-1.197-2.801-3.701V6.999z"/></g></symbol><symbol viewBox="0 0 24 24" id="gridicons-house"><g><path d="M22 9L12 1 2 9v2h2v10h5v-4a3 3 0 116 0v4h5V11h2V9z"/></g></symbol><symbol viewBox="0 0 24 24" id="gridicons-image-multiple"><g><path d="M15 7.5a1.5 1.5 0 113.001.001A1.5 1.5 0 0115 7.5zM4 20h14a2 2 0 01-2 2H4c-1.1 0-2-.9-2-2V8a2 2 0 012-2v14zM22 4v12a2 2 0 01-2 2H8a2 2 0 01-2-2V4a2 2 0 012-2h12a2 2 0 012 2zM8 4v6.333L11 7l4.855 5.395.656-.731a2 2 0 012.976 0l.513.57V4H8z"/></g></symbol><symbol viewBox="0 0 24 24" id="gridicons-image-remove"><g><path d="M20.587 3.423l1.414 1.414L20 6.84V18a2 2 0 01-2 2H6.839l-2.006 2.006-1.414-1.414L20.587 3.423zM12.42 14.42l1.001 1.001 1-1a1.59 1.59 0 012.11.11L18 16V8.839l-5.58 5.58zM15.162 6H6v6.38l2.19-2.19 1.391 1.391L4 17.162V6a2 2 0 012-2h11.162l-2 2z"/></g></symbol><symbol viewBox="0 0 24 24" id="gridicons-image"><g><path d="M20 6v12a2 2 0 01-2 2H6a2 2 0 01-2-2V6a2 2 0 012-2h12a2 2 0 012 2zm-2 0H6v6.38l2.19-2.19 5.23 5.23 1-1a1.59 1.59 0 012.11.11L18 16V6zm-5 3.5a1.5 1.5 0 113 0 1.5 1.5 0 01-3 0z"/></g></symbol><symbol viewBox="0 0 24 24" id="gridicons-indent-left"><g><path d="M18 20h2V4h-2v16zM2 11h10.172l-2.086-2.086L11.5 7.5 16 12l-4.5 4.5-1.414-1.414L12.172 13H2v-2z"/></g></symbol><symbol viewBox="0 0 24 24" id="gridicons-indent-right"><g><path d="M6 4H4v16h2V4zm16 9H11.828l2.086 2.086L12.5 16.5 8 12l4.5-4.5 1.414 1.414L11.828 11H22v2z"/></g></symbol><symbol viewBox="0 0 24 24" id="gridicons-info-outline"><g><path d="M13 9h-2V7h2v2zm0 2h-2v6h2v-6zm-1-7c-4.411 0-8 3.589-8 8s3.589 8 8 8 8-3.589 8-8-3.589-8-8-8m0-2c5.523 0 10 4.477 10 10s-4.477 10-10 10S2 17.523 2 12 6.477 2 12 2z"/></g></symbol><symbol viewBox="0 0 24 24" id="gridicons-info"><g><path d="M12 2C6.477 2 2 6.477 2 12s4.477 10 10 10 10-4.477 10-10S17.523 2 12 2zm1 15h-2v-6h2v6zm0-8h-2V7h2v2z"/></g></symbol><symbol viewBox="0 0 24 24" id="gridicons-ink"><g><path d="M5 15a7 7 0 1014 0 6.963 6.963 0 00-1.105-3.765h.007L12 2l-5.903 9.235h.007A6.971 6.971 0 005 15z"/></g></symbol><symbol viewBox="0 0 24 24" id="gridicons-institution"><g><path d="M2 19h20v3H2zM12 2L2 6v2h20V6zM17 10h3v7h-3zM10.5 10h3v7h-3zM4 10h3v7H4z"/></g></symbol><symbol viewBox="0 0 24 24" id="gridicons-italic"><g><path d="M10.536 5l-.427 2h1.5L9.263 18h-1.5l-.427 2h6.128l.426-2h-1.5l2.347-11h1.5l.427-2z"/></g></symbol><symbol viewBox="0 0 24 24" id="gridicons-layout-blocks"><g><path d="M21 7h-2V3a2 2 0 00-2-2H7a2 2 0 00-2 2v2H3a2 2 0 00-2 2v4a2 2 0 002 2h2v8a2 2 0 002 2h10a2 2 0 002-2v-2h2a2 2 0 002-2V9a2 2 0 00-2-2zm-4 14H7v-8h2a2 2 0 002-2V7a2 2 0 00-2-2H7V3h10v4h-2a2 2 0 00-2 2v8a2 2 0 002 2h2v2zm4-4h-6V9h6v8z"/></g></symbol><symbol viewBox="0 0 24 24" id="gridicons-layout"><g><path d="M8 20H5a2 2 0 01-2-2V6a2 2 0 012-2h3a2 2 0 012 2v12a2 2 0 01-2 2zm8-10h4a2 2 0 002-2V5a2 2 0 00-2-2h-4a2 2 0 00-2 2v3a2 2 0 002 2zm5 10v-6a2 2 0 00-2-2h-5a2 2 0 00-2 2v6a2 2 0 002 2h5a2 2 0 002-2z"/></g></symbol><symbol viewBox="0 0 24 24" id="gridicons-line-graph"><g><path d="M3 19h18v2H3zm3-3c1.1 0 2-.9 2-2 0-.5-.2-1-.5-1.3L8.8 10H9c.5 0 1-.2 1.3-.5l2.7 1.4v.1c0 1.1.9 2 2 2s2-.9 2-2c0-.5-.2-.9-.5-1.3L17.8 7h.2c1.1 0 2-.9 2-2s-.9-2-2-2-2 .9-2 2c0 .5.2 1 .5 1.3L15.2 9H15c-.5 0-1 .2-1.3.5L11 8.2V8c0-1.1-.9-2-2-2s-2 .9-2 2c0 .5.2 1 .5 1.3L6.2 12H6c-1.1 0-2 .9-2 2s.9 2 2 2z"/></g></symbol><symbol viewBox="0 0 24 24" id="gridicons-link-break"><g><path d="M10 11l-2 2H7v-2h3zm9.641-3.64L22 5l-1.5-1.5-17 17L5 22l9-9h3v-2h-1l2-2c1.103 0 2 .897 2 2v2c0 1.103-.897 2-2 2h-4.977c.913 1.208 2.347 2 3.977 2h1a4 4 0 004-4v-2a3.995 3.995 0 00-2.359-3.64zM4.36 16.64L6 15c-1.103 0-2-.897-2-2v-2c0-1.103.897-2 2-2h4.977C10.065 7.792 8.631 7 7 7H6a4 4 0 00-4 4v2c0 1.623.971 3.013 2.36 3.64z"/></g></symbol><symbol viewBox="0 0 24 24" id="gridicons-link"><g><path d="M17 13H7v-2h10v2zm1-6h-1c-1.631 0-3.065.792-3.977 2H18c1.103 0 2 .897 2 2v2c0 1.103-.897 2-2 2h-4.977c.913 1.208 2.347 2 3.977 2h1a4 4 0 004-4v-2a4 4 0 00-4-4zM2 11v2a4 4 0 004 4h1c1.63 0 3.065-.792 3.977-2H6c-1.103 0-2-.897-2-2v-2c0-1.103.897-2 2-2h4.977C10.065 7.792 8.631 7 7 7H6a4 4 0 00-4 4z"/></g></symbol><symbol viewBox="0 0 24 24" id="gridicons-list-checkmark"><g><path d="M9.5 15.5L5 20l-2.5-2.5 1.061-1.061L5 17.879l3.439-3.439L9.5 15.5zM10 5v2h11V5H10zm0 14h11v-2H10v2zm0-6h11v-2H10v2zM8.439 8.439L5 11.879 3.561 10.44 2.5 11.5 5 14l4.5-4.5-1.061-1.061zm0-6L5 5.879l-1.439-1.44L2.5 5.5 5 8l4.5-4.5-1.061-1.061z"/></g></symbol><symbol viewBox="0 0 24 24" id="gridicons-list-ordered-rtl"><g><path d="M3 19h13v-2H3v2zm0-6h13v-2H3v2zm0-8v2h13V5H3zm16.587.252c.107-.096.197-.188.269-.275-.012.228-.018.48-.018.756V8h1.175V3.717h-1.042L18.5 4.915l.601.738.486-.401zm.448 7.826c.475-.426.785-.715.93-.867.146-.152.262-.297.35-.435.088-.138.153-.278.195-.42.042-.143.063-.298.063-.466 0-.225-.06-.427-.18-.608a1.153 1.153 0 00-.507-.417 1.775 1.775 0 00-.742-.148 2.42 2.42 0 00-.596.067c-.177.045-.34.11-.491.195-.15.085-.336.226-.557.423l.636.744c.174-.15.33-.264.467-.341a.835.835 0 01.409-.116.44.44 0 01.305.097.335.335 0 01.108.264c0 .09-.018.176-.054.258-.036.082-.1.18-.192.294-.092.114-.287.328-.586.64L18.547 13.3v.762h3.108v-.955h-1.62v-.029zm.459 4.747v-.018c.307-.086.541-.225.703-.414.162-.191.243-.419.243-.685a.839.839 0 00-.378-.727c-.252-.176-.6-.264-1.043-.264-.307 0-.579.033-.816.1a2.363 2.363 0 00-.696.334l.48.773c.293-.184.576-.275.85-.275.147 0 .263.027.35.082.087.055.13.139.13.252 0 .301-.294.451-.882.451h-.27v.87h.264c.217 0 .393.016.527.049.135.031.232.08.293.143.061.064.091.154.091.271 0 .152-.058.264-.174.336-.116.07-.301.106-.555.106a2.3 2.3 0 01-.538-.069 2.502 2.502 0 01-.573-.212v.961c.228.088.441.148.637.182.196.033.41.05.64.05.561 0 .998-.114 1.314-.343.315-.228.473-.542.473-.94.003-.585-.355-.923-1.07-1.013z"/></g></symbol><symbol viewBox="0 0 24 24" id="gridicons-list-ordered"><g><path d="M8 19h13v-2H8v2zm0-6h13v-2H8v2zm0-8v2h13V5H8zm-4.425.252c.107-.096.197-.188.269-.275-.012.228-.018.48-.018.756V8h1.175V3.717H3.959L2.488 4.915l.601.738.486-.401zm.334 7.764c.475-.426.785-.715.93-.867.146-.152.262-.297.35-.435.088-.138.153-.278.195-.42.042-.143.063-.298.063-.466 0-.225-.06-.427-.18-.608s-.289-.32-.507-.417a1.775 1.775 0 00-.742-.148c-.221 0-.419.022-.596.067s-.34.11-.491.195c-.15.085-.336.226-.557.423l.636.744c.174-.15.33-.264.467-.341a.835.835 0 01.409-.116.44.44 0 01.305.097.335.335 0 01.108.264c0 .09-.018.176-.054.258-.036.082-.1.18-.192.294-.092.114-.287.328-.586.64l-1.046 1.058V14h3.108v-.955h-1.62v-.029zm.53 4.746v-.018c.307-.086.541-.225.703-.414.162-.191.243-.419.243-.685a.839.839 0 00-.378-.727c-.252-.176-.6-.264-1.043-.264-.307 0-.579.033-.816.1s-.469.178-.696.334l.48.773c.293-.184.576-.275.85-.275.147 0 .263.027.35.082s.13.139.13.252c0 .301-.294.451-.882.451h-.27v.87h.264c.217 0 .393.016.527.049.135.031.232.08.293.143.061.064.091.154.091.271 0 .152-.058.264-.174.336-.116.07-.301.106-.555.106a2.3 2.3 0 01-.538-.069 2.502 2.502 0 01-.573-.212v.961c.228.088.441.148.637.182.196.033.41.05.64.05.561 0 .998-.114 1.314-.343.315-.228.473-.542.473-.94.003-.585-.355-.923-1.07-1.013z"/></g></symbol><symbol viewBox="0 0 24 24" id="gridicons-list-unordered"><g><path d="M9 19h12v-2H9v2zm0-6h12v-2H9v2zm0-8v2h12V5H9zm-4-.5a1.5 1.5 0 10.001 3.001A1.5 1.5 0 005 4.5zm0 6a1.5 1.5 0 10.001 3.001A1.5 1.5 0 005 10.5zm0 6a1.5 1.5 0 10.001 3.001A1.5 1.5 0 005 16.5z"/></g></symbol><symbol viewBox="0 0 24 24" id="gridicons-location"><g><path d="M19 9A7 7 0 105 9c0 1.387.409 2.677 1.105 3.765h-.008L12 22l5.903-9.235h-.007A6.971 6.971 0 0019 9zm-7 3a3 3 0 110-6 3 3 0 010 6z"/></g></symbol><symbol viewBox="0 0 24 24" id="gridicons-lock"><g><path d="M18 8h-1V7c0-2.757-2.243-5-5-5S7 4.243 7 7v1H6a2 2 0 00-2 2v10a2 2 0 002 2h12a2 2 0 002-2V10a2 2 0 00-2-2zM9 7c0-1.654 1.346-3 3-3s3 1.346 3 3v1H9V7zm4 8.723V18h-2v-2.277c-.595-.346-1-.984-1-1.723a2 2 0 114 0c0 .738-.405 1.376-1 1.723z"/></g></symbol><symbol viewBox="0 0 24 24" id="gridicons-mail"><g><path d="M20 4H4a2 2 0 00-2 2v12a2 2 0 002 2h16a2 2 0 002-2V6a2 2 0 00-2-2zm0 4.236l-8 4.882-8-4.882V6h16v2.236z"/></g></symbol><symbol viewBox="0 0 24 24" id="gridicons-mention"><g><path d="M12 2a10 10 0 000 20v-2a8 8 0 118-8v.5a1.5 1.5 0 01-3 0V7h-2v1a5 5 0 101 7 3.5 3.5 0 006-2.46V12A10 10 0 0012 2zm0 13a3 3 0 113-3 3 3 0 01-3 3z"/></g></symbol><symbol viewBox="0 0 24 24" id="gridicons-menu"><g><path d="M21 6v2H3V6h18zM3 18h18v-2H3v2zm0-5h18v-2H3v2z"/></g></symbol><symbol viewBox="0 0 24 24" id="gridicons-menus"><g><path d="M9 19h10v-2H9v2zm0-6h6v-2H9v2zm0-8v2h12V5H9zm-4-.5a1.5 1.5 0 10.001 3.001A1.5 1.5 0 005 4.5zm0 6a1.5 1.5 0 10.001 3.001A1.5 1.5 0 005 10.5zm0 6a1.5 1.5 0 10.001 3.001A1.5 1.5 0 005 16.5z"/></g></symbol><symbol viewBox="0 0 24 24" id="gridicons-microphone"><g><path d="M19 9v1a7 7 0 01-6 6.92V20h3v2H8v-2h3v-3.08A7 7 0 015 10V9h2v1a5 5 0 0010 0V9zm-7 4a3 3 0 003-3V5a3 3 0 00-6 0v5a3 3 0 003 3z"/></g></symbol><symbol viewBox="0 0 24 24" id="gridicons-minus-small"><g><path d="M6 11h12v2H6z"/></g></symbol><symbol viewBox="0 0 24 24" id="gridicons-minus"><g><path d="M3 11h18v2H3z"/></g></symbol><symbol viewBox="0 0 24 24" id="gridicons-money"><g><path d="M2 5v14h20V5H2zm5 12a3 3 0 00-3-3v-4a3 3 0 003-3h10a3 3 0 003 3v4a3 3 0 00-3 3H7zm5-8c1.1 0 2 1.3 2 3s-.9 3-2 3-2-1.3-2-3 .9-3 2-3z"/></g></symbol><symbol viewBox="0 0 24 24" id="gridicons-multiple-users"><g><path d="M24 14.6c0 .6-1.2 1-2.6 1.2-.9-1.7-2.7-3-4.8-3.9.2-.3.4-.5.6-.8h.8c3.1-.1 6 1.8 6 3.5zM6.8 11H6c-3.1 0-6 1.9-6 3.6 0 .6 1.2 1 2.6 1.2.9-1.7 2.7-3 4.8-3.9l-.6-.9zm5.2 1c2.2 0 4-1.8 4-4s-1.8-4-4-4-4 1.8-4 4 1.8 4 4 4zm0 1c-4.1 0-8 2.6-8 5 0 2 8 2 8 2s8 0 8-2c0-2.4-3.9-5-8-5zm5.7-3h.3c1.7 0 3-1.3 3-3s-1.3-3-3-3c-.5 0-.9.1-1.3.3.8 1 1.3 2.3 1.3 3.7 0 .7-.1 1.4-.3 2zM6 10h.3C6.1 9.4 6 8.7 6 8c0-1.4.5-2.7 1.3-3.7C6.9 4.1 6.5 4 6 4 4.3 4 3 5.3 3 7s1.3 3 3 3z"/></g></symbol><symbol viewBox="0 0 24 24" id="gridicons-my-sites-horizon"><g><path d="M10.986 13.928l.762-2.284-1.324-3.629a15.694 15.694 0 01-.892-.081c-.458-.027-.405-.727.054-.701 0 0 1.403.108 2.239.108.889 0 2.266-.108 2.266-.108.458-.027.512.646.054.701 0 0-.461.054-.973.081l2.006 5.966a81.578 81.578 0 00-2.599-.061l-.429-1.177-.403 1.171c-.252.001-.508.01-.761.014zm-7.156.393A8.463 8.463 0 013.5 12c0-1.232.264-2.402.736-3.459l2.036 5.578c.849-.059 1.69-.103 2.526-.137L6.792 8.015c.512-.027.973-.081.973-.081.458-.054.404-.727-.055-.701 0 0-1.376.108-2.265.108-.16 0-.347-.004-.547-.01A8.491 8.491 0 0112 3.5c2.213 0 4.228.846 5.74 2.232-.036-.002-.072-.007-.11-.007-.835 0-1.427.727-1.427 1.509 0 .701.404 1.293.835 1.994.323.566.701 1.293.701 2.344 0 .674-.245 1.463-.573 2.51.301.019.604.043.907.066l.798-2.307c.485-1.213.646-2.182.646-3.044 0-.313-.021-.603-.057-.874A8.469 8.469 0 0120.5 12c0 .807-.128 1.581-.339 2.32.5.049 1.005.112 1.508.169A9.916 9.916 0 0022 12c0-5.523-4.477-10-10-10S2 6.477 2 12c0 .862.125 1.692.331 2.49.5-.057 1.002-.12 1.499-.169zm14.638 3.167c-1.792 2.184-4.35 3.013-6.468 3.013-1.876 0-4.551-.698-6.463-3.013-.585.048-1.174.1-1.769.161C5.571 20.271 8.578 22 12 22c3.422 0 6.429-1.729 8.232-4.351a79.692 79.692 0 00-1.764-.161zM12 15.01c-3.715 0-7.368.266-10.958.733.179.41.35.825.506 1.247 3.427-.431 6.91-.679 10.452-.679s7.025.248 10.452.679c.156-.422.327-.836.506-1.246A84.852 84.852 0 0012 15.01z"/></g></symbol><symbol viewBox="0 0 24 24" id="gridicons-my-sites"><g><path d="M12 2C6.477 2 2 6.477 2 12s4.477 10 10 10 10-4.477 10-10S17.523 2 12 2zM3.5 12c0-1.232.264-2.402.736-3.459L8.291 19.65A8.5 8.5 0 013.5 12zm8.5 8.501c-.834 0-1.64-.122-2.401-.346l2.551-7.411 2.613 7.158a.718.718 0 00.061.117 8.497 8.497 0 01-2.824.482zm1.172-12.486c.512-.027.973-.081.973-.081.458-.054.404-.727-.054-.701 0 0-1.377.108-2.266.108-.835 0-2.239-.108-2.239-.108-.459-.026-.512.674-.054.701 0 0 .434.054.892.081l1.324 3.629-1.86 5.579-3.096-9.208c.512-.027.973-.081.973-.081.458-.054.403-.727-.055-.701 0 0-1.376.108-2.265.108-.16 0-.347-.004-.547-.01A8.491 8.491 0 0112 3.5c2.213 0 4.228.846 5.74 2.232-.037-.002-.072-.007-.11-.007-.835 0-1.427.727-1.427 1.509 0 .701.404 1.293.835 1.994.323.566.701 1.293.701 2.344 0 .727-.28 1.572-.647 2.748l-.848 2.833-3.072-9.138zm3.101 11.332l2.596-7.506c.485-1.213.646-2.182.646-3.045 0-.313-.021-.603-.057-.874A8.455 8.455 0 0120.5 12a8.493 8.493 0 01-4.227 7.347z"/></g></symbol><symbol viewBox="0 0 24 24" id="gridicons-nametag"><g><path d="M12 6a1 1 0 11-1 1 1 1 0 011-1zm-6 8h12v3H6zm14-8h-4V3H8v3H4a2 2 0 00-2 2v11a2 2 0 002 2h16a2 2 0 002-2V8a2 2 0 00-2-2zM10 5h4v5h-4zm10 14H4v-9h4a2 2 0 002 2h4a2 2 0 002-2h4z"/></g></symbol><symbol viewBox="0 0 24 24" id="gridicons-next-page"><g><path d="M18 8h-8V6h8v2zm4-4v8l-6 6H8a2 2 0 01-2-2V4a2 2 0 012-2h12a2 2 0 012 2zm-2 0H8v12h6v-4a2 2 0 012-2h4V4zM4 6a2 2 0 00-2 2v12c0 1.1.9 2 2 2h12a2 2 0 002-2H4V6z"/></g></symbol><symbol viewBox="0 0 24 24" id="gridicons-not-visible"><g><path d="M1 12s4.188-6 11-6c.947 0 1.839.121 2.678.322L8.36 12.64A3.96 3.96 0 018 11c0-.937.335-1.787.875-2.469-2.392.812-4.214 2.385-5.254 3.469a14.868 14.868 0 002.98 2.398l-1.453 1.453C2.497 14.13 1 12 1 12zm22 0s-4.188 6-11 6c-.946 0-1.836-.124-2.676-.323L5 22l-1.5-1.5 17-17L22 5l-3.147 3.147C21.501 9.869 23 12 23 12zm-2.615.006a14.83 14.83 0 00-2.987-2.403L16 11a4 4 0 01-4 4l-.947.947c.31.031.624.053.947.053 3.978 0 6.943-2.478 8.385-3.994z"/></g></symbol><symbol viewBox="0 0 24 24" id="gridicons-notice-outline"><g><path d="M12 4c4.411 0 8 3.589 8 8s-3.589 8-8 8-8-3.589-8-8 3.589-8 8-8m0-2C6.477 2 2 6.477 2 12s4.477 10 10 10 10-4.477 10-10S17.523 2 12 2zm1 13h-2v2h2v-2zm-2-2h2l.5-6h-3l.5 6z"/></g></symbol><symbol viewBox="0 0 24 24" id="gridicons-notice"><g><path d="M12 2C6.477 2 2 6.477 2 12s4.477 10 10 10 10-4.477 10-10S17.523 2 12 2zm1 15h-2v-2h2v2zm0-4h-2l-.5-6h3l-.5 6z"/></g></symbol><symbol viewBox="0 0 24 24" id="gridicons-offline"><g><path d="M10 3h8l-4 6h4L6 21l4-9H6l4-9z"/></g></symbol><symbol viewBox="0 0 24 24" id="gridicons-pages"><g><path d="M16 8H8V6h8v2zm0 2H8v2h8v-2zm4-6v12l-6 6H6a2 2 0 01-2-2V4a2 2 0 012-2h12a2 2 0 012 2zm-2 10V4H6v16h6v-4a2 2 0 012-2h4z"/></g></symbol><symbol viewBox="0 0 24 24" id="gridicons-pause"><g><path d="M12 2C6.477 2 2 6.477 2 12s4.477 10 10 10 10-4.477 10-10S17.523 2 12 2zm-1 14H9V8h2v8zm4 0h-2V8h2v8z"/></g></symbol><symbol viewBox="0 0 24 24" id="gridicons-pencil"><g><path d="M13 6l5 5-9.507 9.507a1.766 1.766 0 01-.012-2.485l-.003-.003a1.763 1.763 0 01-2.521-2.467l-.008-.008a1.765 1.765 0 01-2.455-.036L13 6zm7.586-.414l-2.172-2.172a2 2 0 00-2.828 0L14 5l5 5 1.586-1.586a2 2 0 000-2.828zM3 18v3h3a3 3 0 00-3-3z"/></g></symbol><symbol viewBox="0 0 24 24" id="gridicons-phone"><g><path d="M16 2H8a2 2 0 00-2 2v16a2 2 0 002 2h8a2 2 0 002-2V4a2 2 0 00-2-2zm-3 19h-2v-1h2v1zm3-2H8V5h8v14z"/></g></symbol><symbol viewBox="0 0 24 24" id="gridicons-pin"><g><path d="M19 17c0-2.038-1.188-3.836-3-4.92V5h.5a1.5 1.5 0 000-3h-9a1.5 1.5 0 000 3H8v7.08C6.188 13.164 5 14.962 5 17h6v4c0 .55.45 1 1 1s1-.45 1-1v-4h6z"/></g></symbol><symbol viewBox="0 0 24 24" id="gridicons-plans"><g><path d="M12 2C6.5 2 2 6.5 2 12s4.5 10 10 10 10-4.5 10-10S17.5 2 12 2zm-1 12H6l5-10v10zm2 6V10h5l-5 10z"/></g></symbol><symbol viewBox="0 0 24 24" id="gridicons-play"><g><path d="M12 2a10 10 0 1010 10A10 10 0 0012 2zm-2 14.5v-9l6 4.5z"/></g></symbol><symbol viewBox="0 0 24 24" id="gridicons-plugins"><g><path d="M16 8V3a1 1 0 00-2 0v5h-4V3a1 1 0 00-2 0v5H5v4a6.992 6.992 0 004 6.317V22h6v-3.683A6.994 6.994 0 0019 12V8h-3z"/></g></symbol><symbol viewBox="0 0 24 24" id="gridicons-plus-small"><g><path d="M18 11h-5V6h-2v5H6v2h5v5h2v-5h5z"/></g></symbol><symbol viewBox="0 0 24 24" id="gridicons-plus"><g><path d="M21 13h-8v8h-2v-8H3v-2h8V3h2v8h8v2z"/></g></symbol><symbol viewBox="0 0 24 24" id="gridicons-popout"><g><path d="M6 7V5a2 2 0 012-2h11a2 2 0 012 2v14a2 2 0 01-2 2H8a2 2 0 01-2-2v-2h2v2h11V5H8v2H6zm5.5-.5l-1.414 1.414L13.172 11H3v2h10.172l-3.086 3.086L11.5 17.5 17 12l-5.5-5.5z"/></g></symbol><symbol viewBox="0 0 24 24" id="gridicons-posts"><g><path d="M16 19H3v-2h13v2zm5-10H3v2h18V9zM3 5v2h11V5H3zm14 0v2h4V5h-4zm-6 8v2h10v-2H11zm-8 0v2h5v-2H3z"/></g></symbol><symbol viewBox="0 0 24 24" id="gridicons-print"><g><path d="M9 16h6v2H9v-2zm13 1h-3v3a2 2 0 01-2 2H7a2 2 0 01-2-2v-3H2V9a2 2 0 012-2h1V5a2 2 0 012-2h10a2 2 0 012 2v2h1a2 2 0 012 2v8zM7 7h10V5H7v2zm10 7H7v6h10v-6zm3-3.5a1.5 1.5 0 10-3.001.001A1.5 1.5 0 0020 10.5z"/></g></symbol><symbol viewBox="0 0 24 24" id="gridicons-product-downloadable"><g><path d="M22 3H2v6h1v11a2 2 0 002 2h14a2 2 0 002-2V9h1V3zM4 5h16v2H4V5zm15 15H5V9h14v11zm-6-10v5.17l2.59-2.58L17 14l-5 5-5-5 1.41-1.42L11 15.17V10h2z"/></g></symbol><symbol viewBox="0 0 24 24" id="gridicons-product-external"><g><path d="M22 3H2v6h1v11a2 2 0 002 2h14a2 2 0 002-2V9h1V3zM4 5h16v2H4V5zm15 15H5V9h14v11zm-2-9v6h-2v-2.59l-3.29 3.29-1.41-1.41L13.59 13H11v-2h6z"/></g></symbol><symbol viewBox="0 0 24 24" id="gridicons-product-virtual"><g><path d="M22 3H2v6h1v11a2 2 0 002 2h14a2 2 0 002-2V9h1V3zM4 5h16v2H4V5zm15 15H5V9h14v11zM7 16.45a1.82 1.82 0 011.82-1.82h.09a2.94 2.94 0 115.799-.92 2.27 2.27 0 011.08 4.29H7.87A1.811 1.811 0 017 16.45z"/></g></symbol><symbol viewBox="0 0 24 24" id="gridicons-product"><g><path d="M22 3H2v6h1v11a2 2 0 002 2h14a2 2 0 002-2V9h1V3zM4 5h16v2H4V5zm15 15H5V9h14v11zM9 11h6a2 2 0 01-2 2h-2a2 2 0 01-2-2z"/></g></symbol><symbol viewBox="0 0 24 24" id="gridicons-quote"><g><path d="M11.192 15.757c0-.88-.23-1.618-.69-2.217-.326-.412-.768-.683-1.327-.812-.55-.128-1.07-.137-1.54-.028-.16-.95.1-1.956.76-3.022.66-1.065 1.515-1.867 2.558-2.403L9.372 5c-.8.396-1.56.898-2.26 1.505-.71.607-1.34 1.305-1.9 2.094s-.98 1.68-1.25 2.69-.345 2.04-.216 3.1c.168 1.4.62 2.52 1.356 3.35C5.837 18.58 6.754 19 7.85 19c.965 0 1.766-.29 2.4-.878.628-.576.94-1.365.94-2.368l.002.003zm9.124 0c0-.88-.23-1.618-.69-2.217-.326-.42-.77-.692-1.327-.817-.56-.124-1.073-.13-1.54-.022-.16-.94.09-1.95.752-3.02.66-1.06 1.513-1.86 2.556-2.4L18.49 5c-.8.396-1.555.898-2.26 1.505a11.29 11.29 0 00-1.894 2.094c-.556.79-.97 1.68-1.24 2.69a8.042 8.042 0 00-.217 3.1c.166 1.4.616 2.52 1.35 3.35.733.834 1.647 1.252 2.743 1.252.967 0 1.768-.29 2.402-.877.627-.576.942-1.365.942-2.368v.011z"/></g></symbol><symbol viewBox="0 0 24 24" id="gridicons-read-more"><g><path d="M9 12h6v-2H9zm-7 0h5v-2H2zm15 0h5v-2h-5zm3 2v2l-6 6H6a2 2 0 01-2-2v-6h2v6h6v-4a2 2 0 012-2h6zM4 8V4a2 2 0 012-2h12a2 2 0 012 2v4h-2V4H6v4z"/></g></symbol><symbol viewBox="0 0 24 24" id="gridicons-reader-comment"><g><path d="M12.528 14.556v-.75h-8.75c-.568 0-1.028-.46-1.028-1.028v-8c0-.568.46-1.028 1.028-1.028h12.444c.568 0 1.028.46 1.028 1.028v7.948c0 .905-.438 1.756-1.175 2.282l-3.547 2.534z" stroke="#000" stroke-width="1.5"/></g></symbol><symbol viewBox="0 0 24 24" id="gridicons-reader-external"><g><path clip-rule="evenodd" d="M11.376 2.016h6.608v6.608h-1.5V4.577l-5.87 5.87-.53.53-1.061-1.06.53-.53 5.87-5.87H11.376zM5 5.5h4V4H5a2 2 0 00-2 2v9a2 2 0 002 2h9a2 2 0 002-2v-4h-1.5v4a.5.5 0 01-.5.5H5a.5.5 0 01-.5-.5V6a.5.5 0 01.5-.5z" fill-rule="evenodd"/></g></symbol><symbol viewBox="0 0 24 24" id="gridicons-reader-follow-conversation"><g><path d="M20 14v-3h-2v3h-3v2h3v3h2v-3h3v-2z"/><path d="M13 16h-2l-5 5v-5H4c-1.1 0-2-.9-2-2V5c0-1.1.9-2 2-2h14c1.1 0 2 .9 2 2v4h-4v3h-3v4z"/></g></symbol><symbol viewBox="0 0 24 24" id="gridicons-reader-follow"><g><path clip-rule="evenodd" d="M4 4.5h12V11h1.5V3h-15v12a2 2 0 002 2h7v-1.5h-7A.5.5 0 014 15zm10.5 2h-9V8h9zm-5 3h-4V11h4zM13 11h-1v1h1zm-1-1.5h-1.5v4h4v-4H13zM9.5 12h-4v1.5h4zm6.5 1.25h1.5v2.25h2.25V17H17.5v2.25H16V17h-2.25v-1.5H16z" fill-rule="evenodd"/></g></symbol><symbol viewBox="0 0 24 24" id="gridicons-reader-following-conversation"><g><path d="M16.8 14.5l3.2-3.2V5c0-1.1-.9-2-2-2H4c-1.1 0-2 .9-2 2v9c0 1.1.9 2 2 2h2v5l8.7-8.7 2.1 2.2z"/><path d="M22.6 11.1l-6.1 6.1-2.1-2.2-1.4 1.4 3.5 3.6 7.5-7.6z"/></g></symbol><symbol viewBox="0 0 24 24" id="gridicons-reader-following"><g><path fill-rule="evenodd" clip-rule="evenodd" d="M21 11.889l-4.455 4.455-2.094-2.176L9.538 19H5c-1.1 0-2-.9-2-2V3h18v8.889zM16.508 22L24 14.482l-1.388-1.376-6.094 6.094-2.106-2.188L13 18.4l3.508 3.6zM9 14H5v-1h4v1zm-4-2h7v-1H5v1zm7-2H5V9h7v1zM5 7h14V5H5v2z"/></g></symbol><symbol viewBox="0 0 24 24" id="gridicons-reader-share"><g><clipPath id="gridicons-reader-share-a"><path d="M0 0h20v20H0z"/></clipPath><g clip-path="url(#gridicons-reader-share-a)"><path d="M11.867 6.8V3l6.8 6.65-6.8 6.65v-3.8s-10.2-.884-10.2 4.5c0-10.77 10.2-10.2 10.2-10.2z" stroke="#000" stroke-linecap="round" stroke-width="1.5"/></g></g></symbol><symbol viewBox="0 0 24 24" id="gridicons-reader-star"><g><path d="M10 2.5l2.446 5.335h5.47l-4.582 4.24 1.559 5.425L10 14.687 5.108 17.5l1.559-5.426-4.584-4.239h5.471z" stroke="#000" stroke-linecap="round" stroke-width="1.5"/></g></symbol><symbol viewBox="0 0 24 24" id="gridicons-reader"><g><path d="M3 4v14c0 1.1.9 2 2 2h14c1.1 0 2-.9 2-2V4H3zm7 11H5v-1h5v1zm2-2H5v-1h7v1zm0-2H5v-1h7v1zm7 4h-5v-5h5v5zm0-7H5V6h14v2z"/></g></symbol><symbol viewBox="0 0 24 24" id="gridicons-reblog"><g><path d="M22.086 9.914L20 7.828V18a2 2 0 01-2 2h-7v-2h7V7.828l-2.086 2.086L14.5 8.5 19 4l4.5 4.5-1.414 1.414zM6 16.172V6h7V4H6a2 2 0 00-2 2v10.172l-2.086-2.086L.5 15.5 5 20l4.5-4.5-1.414-1.414L6 16.172z"/></g></symbol><symbol viewBox="0 0 24 24" id="gridicons-recent"><g><path d="M23 12l-2.44 2.78.34 3.68-3.61.82-1.89 3.18L12 21l-3.4 1.47-1.89-3.18-3.61-.82.34-3.69L1 12l2.44-2.79-.34-3.68 3.61-.81L8.6 1.54 12 3l3.4-1.46 1.89 3.18 3.61.82-.34 3.68L23 12zm-2.67 0L18.5 9.89l.24-2.79L16 6.5l-1.42-2.43L12 5.18 9.42 4.07 8 6.5l-2.74.59.24 2.79L3.67 12l1.83 2.1-.24 2.8 2.74.6 1.42 2.43L12 18.81l2.58 1.11L16 17.5l2.74-.61-.24-2.79 1.83-2.1zM11 15h2v2h-2v-2zm0-8h2v6h-2V7z"/></g></symbol><symbol viewBox="0 0 24 24" id="gridicons-redo"><g><path d="M18 6v3.586l-3.657-3.657c-1.172-1.172-2.707-1.757-4.243-1.757s-3.071.585-4.242 1.757a6 6 0 000 8.485l5.364 5.364 1.414-1.414L7.272 13a4.004 4.004 0 010-5.657A3.975 3.975 0 0110.1 6.171c1.068 0 2.073.416 2.828 1.172L16.586 11H13v2h7V6h-2z"/></g></symbol><symbol viewBox="0 0 24 24" id="gridicons-refresh"><g><path d="M17.91 14c-.478 2.833-2.943 5-5.91 5-3.308 0-6-2.692-6-6s2.692-6 6-6h2.172l-2.086 2.086L13.5 10.5 18 6l-4.5-4.5-1.414 1.414L14.172 5H12a8 8 0 000 16c4.079 0 7.438-3.055 7.931-7H17.91z"/></g></symbol><symbol viewBox="0 0 24 24" id="gridicons-refund"><g><path d="M13.91 2.91L11.83 5H14a8 8 0 018 8h-2a6 6 0 00-6-6h-2.17l2.09 2.09-1.42 1.41L8 6l1.41-1.41L12.5 1.5l1.41 1.41zM2 12v10h16V12H2zm2 6.56v-3.11A4 4 0 005.45 14h9.1A4 4 0 0016 15.45v3.11A3.996 3.996 0 0014.57 20H5.45A3.996 3.996 0 004 18.56zm6 .44c.828 0 1.5-.895 1.5-2s-.672-2-1.5-2-1.5.895-1.5 2 .672 2 1.5 2z"/></g></symbol><symbol viewBox="0 0 24 24" id="gridicons-reply"><g><path d="M9 16h7.2l-2.6 2.6L15 20l5-5-5-5-1.4 1.4 2.6 2.6H9c-2.2 0-4-1.8-4-4s1.8-4 4-4h2V4H9c-3.3 0-6 2.7-6 6s2.7 6 6 6z"/></g></symbol><symbol viewBox="0 0 24 24" id="gridicons-resize"><g><path d="M13 4v2h3.59L6 16.59V13H4v7h7v-2H7.41L18 7.41V11h2V4h-7z"/></g></symbol><symbol viewBox="0 0 24 24" id="gridicons-rotate"><g><path d="M18 14v6a2 2 0 01-2 2H6a2 2 0 01-2-2v-6a2 2 0 012-2h10a2 2 0 012 2zM13.914 2.914L11.828 5H14a8 8 0 018 8h-2c0-3.308-2.692-6-6-6h-2.172l2.086 2.086L12.5 10.5 8 6l1.414-1.414L12.5 1.5l1.414 1.414z"/></g></symbol><symbol viewBox="0 0 24 24" id="gridicons-scheduled"><g><path d="M10.498 18.001l-3.705-3.705 1.415-1.415 2.294 2.294 5.293-5.293 1.415 1.415-6.712 6.704zM21 6v13a2 2 0 01-2 2H5a2 2 0 01-2-2V6a2 2 0 012-2h1V2h2v2h8V2h2v2h1a2 2 0 012 2zm-2 2H5v11h14V8z"/></g></symbol><symbol viewBox="0 0 24 24" id="gridicons-science"><g><path fill-rule="evenodd" clip-rule="evenodd" d="M3.211 19.7c.375.867 1.01 1.3 1.909 1.3h13.76c.898 0 1.535-.433 1.909-1.3.374-.867.251-1.656-.37-2.367L15.465 11V5h1.668a.917.917 0 00.69-.283.992.992 0 00.273-.717.992.992 0 00-.273-.717.917.917 0 00-.69-.283H6.867a.916.916 0 00-.69.283.992.992 0 00-.272.717c0 .289.091.528.273.717a.916.916 0 00.69.283h1.668v6L3.58 17.333c-.62.711-.743 1.5-.369 2.367zm4.457-4.423h8.664l-2.792-3.544V5h-3.08v6.733l-2.792 3.544z"/></g></symbol><symbol viewBox="0 0 24 24" id="gridicons-search"><g><path d="M21 19l-5.154-5.154a7 7 0 10-2 2L19 21l2-2zM5 10c0-2.757 2.243-5 5-5s5 2.243 5 5-2.243 5-5 5-5-2.243-5-5z"/></g></symbol><symbol viewBox="0 0 24 24" id="gridicons-share-computer"><g><path d="M20 2H4a2 2 0 00-2 2v12a2 2 0 002 2h6v2H7v2h10v-2h-3v-2h6a2 2 0 002-2V4a2 2 0 00-2-2zm0 14H4V4h16zm-3.25-3a1.75 1.75 0 01-3.5 0L10 11.36a1.71 1.71 0 110-2.71L13.25 7a1.77 1.77 0 11.68 1.37L10.71 10l3.22 1.61A1.74 1.74 0 0116.75 13z"/></g></symbol><symbol viewBox="0 0 24 24" id="gridicons-share-ios"><g><path d="M17 8h2a2 2 0 012 2v9a2 2 0 01-2 2H5a2 2 0 01-2-2v-9a2 2 0 012-2h2v2H5v9h14v-9h-2V8zM6.5 5.5l1.414 1.414L11 3.828V14h2V3.828l3.086 3.086L17.5 5.5 12 0 6.5 5.5z"/></g></symbol><symbol viewBox="0 0 24 24" id="gridicons-share"><g><path d="M18 16c-.788 0-1.499.31-2.034.807L8.91 12.7c.05-.23.09-.46.09-.7s-.04-.47-.09-.7l7.05-4.11c.54.5 1.25.81 2.04.81 1.66 0 3-1.34 3-3s-1.34-3-3-3-3 1.34-3 3c0 .24.04.47.09.7L8.04 9.81C7.5 9.31 6.79 9 6 9c-1.66 0-3 1.34-3 3s1.34 3 3 3c.79 0 1.5-.31 2.04-.81l7.048 4.118A2.981 2.981 0 0015 19a3 3 0 103-3z"/></g></symbol><symbol viewBox="0 0 24 24" id="gridicons-shipping"><g><path d="M18 8h-2V7a2 2 0 00-2-2H4a2 2 0 00-2 2v10h2a3 3 0 106 0h4a3 3 0 106 0h2v-5l-4-4zM7 18.5a1.5 1.5 0 11.001-3.001A1.5 1.5 0 017 18.5zM4 14V7h10v7H4zm13 4.5a1.5 1.5 0 11.001-3.001A1.5 1.5 0 0117 18.5z"/></g></symbol><symbol viewBox="0 0 24 24" id="gridicons-shutter"><g><path d="M18.9 4.8s-.7 5.6-3.5 10.2c1.7-.3 3.9-.9 6.6-2 0 0 .7-4.6-3.1-8.2zm-6 2.8c-1.1-1.3-2.7-3-5-4.7C5.1 4.2 3 6.6 2.3 9.6 7 7.7 11 7.5 12.9 7.6zm3.4 2.9c.6-1.6 1.2-3.9 1.6-6.7-4.1-3-8.6-1.5-8.6-1.5s4.4 3.4 7 8.2zm-5.2 6c1.1 1.3 2.7 3 5 4.7 0 0 4.3-1.6 5.6-6.7 0-.1-5.3 2.1-10.6 2zm-3.4-3.1c-.6 1.6-1.2 3.8-1.5 6.7 0 0 3.6 2.9 8.6 1.5 0 0-4.6-3.4-7.1-8.2zM2 11.1s-.7 4.5 3.1 8.2c0 0 .7-5.7 3.5-10.3-1.7.3-4 .9-6.6 2.1z"/></g></symbol><symbol viewBox="0 0 24 24" id="gridicons-sign-out"><g><path d="M16 17v2a2 2 0 01-2 2H5a2 2 0 01-2-2V5a2 2 0 012-2h9a2 2 0 012 2v2h-2V5H5v14h9v-2h2zm2.5-10.5l-1.414 1.414L20.172 11H10v2h10.172l-3.086 3.086L18.5 17.5 24 12l-5.5-5.5z"/></g></symbol><symbol viewBox="0 0 24 24" id="gridicons-site"><g><path d="M18 4H6a2 2 0 00-2 2v12a2 2 0 002 2h12a2 2 0 002-2V6a2 2 0 00-2-2zm-5 14H6v-7h7zm5 0h-3v-7h3zm0-9H6V6h12z"/></g></symbol><symbol viewBox="0 0 24 24" id="gridicons-spam"><g><path d="M17 2H7L2 7v10l5 5h10l5-5V7l-5-5zm-4 15h-2v-2h2v2zm0-4h-2l-.5-6h3l-.5 6z"/></g></symbol><symbol viewBox="0 0 24 24" id="gridicons-speaker"><g><path d="M19 8v6c1.7 0 3-1.3 3-3s-1.3-3-3-3zM11 7H4c-1.1 0-2 .9-2 2v4c0 1.1.9 2 2 2h1v3c0 1.1.9 2 2 2h2v-5h2l4 4h2V3h-2l-4 4z"/></g></symbol><symbol viewBox="0 0 24 24" id="gridicons-special-character"><g><path d="M12.005 7.418c-1.237 0-2.191.376-2.861 1.128S8.14 10.358 8.14 11.725c0 1.388.226 2.514.677 3.378.451.865 1.135 1.543 2.051 2.036V20H5v-2.666h3.119a6.427 6.427 0 01-2.404-2.6c-.564-1.097-.846-2.322-.846-3.676 0-1.258.292-2.363.876-3.317.585-.953 1.417-1.686 2.497-2.199s2.334-.769 3.763-.769c2.181 0 3.915.571 5.204 1.712s1.933 2.673 1.933 4.594c0 1.354-.283 2.57-.852 3.65a6.655 6.655 0 01-2.44 2.604H19V20h-5.908v-2.861c.95-.492 1.651-1.179 2.102-2.061s.677-2.006.677-3.374c0-1.36-.337-2.415-1.01-3.164-.673-.747-1.625-1.122-2.856-1.122z"/></g></symbol><symbol viewBox="0 0 24 24" id="gridicons-star-outline"><g><path d="M12 6.308l1.176 3.167.347.936.997.041 3.374.139-2.647 2.092-.784.62.27.962.911 3.249-2.814-1.871-.83-.553-.83.552-2.814 1.871.911-3.249.27-.962-.784-.62-2.648-2.092 3.374-.139.997-.041.347-.936L12 6.308M12 2L9.418 8.953 2 9.257l5.822 4.602L5.82 21 12 16.891 18.18 21l-2.002-7.141L22 9.257l-7.418-.305L12 2z"/></g></symbol><symbol viewBox="0 0 24 24" id="gridicons-star"><g><path d="M12 2l2.582 6.953L22 9.257l-5.822 4.602L18.18 21 12 16.891 5.82 21l2.002-7.141L2 9.257l7.418-.304z"/></g></symbol><symbol viewBox="0 0 24 24" id="gridicons-stats-alt-2"><g><path d="M8.143 15.857H5.57V9.43h2.572v6.428zM13.286 15.857h-2.572V3h2.572v12.857zM18.428 15.857h-2.571v-9h2.571v9z"/><path fill-rule="evenodd" clip-rule="evenodd" d="M21 20.714H3v-2h18v2z"/></g></symbol><symbol viewBox="0 0 24 24" id="gridicons-stats-alt"><g><path d="M21 21H3v-2h18v2zM8 10H4v7h4v-7zm6-7h-4v14h4V3zm6 3h-4v11h4V6z"/></g></symbol><symbol viewBox="0 0 24 24" id="gridicons-stats-down-alt"><g><path d="M21 21H3v-2h18v2zM8 3H4v14h4V3zm6 3h-4v11h4V6zm6 4h-4v7h4v-7z"/></g></symbol><symbol viewBox="0 0 24 24" id="gridicons-stats-down"><g><path d="M19 3H5a2 2 0 00-2 2v14a2 2 0 002 2h14a2 2 0 002-2V5a2 2 0 00-2-2zm0 16H5V5h14v14zM9 17H7V7h2v10zm4 0h-2v-7h2v7zm4 0h-2v-5h2v5z"/></g></symbol><symbol viewBox="0 0 24 24" id="gridicons-stats-up-alt"><g><path d="M21 21H3v-2h18v2zM8 10H4v7h4v-7zm6-4h-4v11h4V6zm6-3h-4v14h4V3z"/></g></symbol><symbol viewBox="0 0 24 24" id="gridicons-stats-up"><g><path d="M19 3H5a2 2 0 00-2 2v14a2 2 0 002 2h14a2 2 0 002-2V5a2 2 0 00-2-2zm0 16H5V5h14v14zM9 17H7v-5h2v5zm4 0h-2v-7h2v7zm4 0h-2V7h2v10z"/></g></symbol><symbol viewBox="0 0 24 24" id="gridicons-stats"><g><path d="M19 3H5a2 2 0 00-2 2v14a2 2 0 002 2h14a2 2 0 002-2V5a2 2 0 00-2-2zm0 16H5V5h14v14zM9 17H7v-5h2v5zm4 0h-2V7h2v10zm4 0h-2v-7h2v7z"/></g></symbol><symbol viewBox="0 0 24 24" id="gridicons-status"><g><path d="M12 4c4.411 0 8 3.589 8 8s-3.589 8-8 8-8-3.589-8-8 3.589-8 8-8m0-2C6.477 2 2 6.477 2 12s4.477 10 10 10 10-4.477 10-10S17.523 2 12 2zM7.55 13c-.019.166-.05.329-.05.5a4.5 4.5 0 009 0c0-.171-.032-.334-.05-.5h-8.9zM10 10V8a1 1 0 00-2 0v2a1 1 0 002 0zm6 0V8a1 1 0 00-2 0v2a1 1 0 002 0z"/></g></symbol><symbol viewBox="0 0 24 24" id="gridicons-story"><g><path d="M17 5a2 2 0 012 2v13a2 2 0 01-2 2h-7a2 2 0 01-2-2h9z"/><path d="M13 4H5a2 2 0 012-2h6a2 2 0 012 2v12a2 2 0 01-2 2z"/><path d="M7 16h8a2 2 0 01-2 2H7a2 2 0 01-2-2V4a2 2 0 012-2z"/></g></symbol><symbol viewBox="0 0 24 24" id="gridicons-strikethrough"><g><path d="M14.348 12H21v2h-4.613c.239.515.368 1.094.368 1.748 0 1.317-.474 2.355-1.423 3.114-.947.759-2.266 1.138-3.956 1.138-1.557 0-2.934-.293-4.132-.878v-2.874c.985.439 1.818.749 2.5.928.682.181 1.306.27 1.872.27.679 0 1.2-.129 1.562-.39.363-.259.545-.644.545-1.158 0-.285-.08-.54-.24-.763a2.687 2.687 0 00-.704-.643c-.18-.12-.482-.287-.88-.491H3v-2h11.348zm-3.528-2a1.569 1.569 0 01-.193-.235 1.323 1.323 0 01-.189-.713c0-.439.156-.795.469-1.068.313-.273.762-.409 1.348-.409.492 0 .993.063 1.502.19.509.126 1.153.349 1.931.669l.998-2.405a14.867 14.867 0 00-2.16-.758A8.521 8.521 0 0012.354 5c-1.544 0-2.753.369-3.628 1.108-.874.738-1.312 1.753-1.312 3.044 0 .302.036.58.088.848h3.318z"/></g></symbol><symbol viewBox="0 0 24 24" id="gridicons-sync"><g><path d="M23.5 13.5l-3.086 3.086L19 18l-4.5-4.5 1.414-1.414L18 14.172V12c0-3.308-2.692-6-6-6V4a8 8 0 018 8v2.172l2.086-2.086L23.5 13.5zM6 12V9.828l2.086 2.086L9.5 10.5 5 6 3.586 7.414.5 10.5l1.414 1.414L4 9.828V12a8 8 0 008 8v-2c-3.308 0-6-2.692-6-6z"/></g></symbol><symbol viewBox="0 0 24 24" id="gridicons-tablet"><g><path d="M18 2H6a2 2 0 00-2 2v16a2 2 0 002 2h12a2 2 0 002-2V4a2 2 0 00-2-2zm-5 19h-2v-1h2v1zm5-2H6V5h12v14z"/></g></symbol><symbol viewBox="0 0 24 24" id="gridicons-tag"><g><path d="M20 2.007h-7.087a2 2 0 00-1.414.586l-8.906 8.906a2 2 0 000 2.828l7.086 7.086a2 2 0 002.828 0l8.906-8.906c.376-.374.587-.883.587-1.413V4.007a2 2 0 00-2-2zM17.007 9a2 2 0 11-.001-3.999A2 2 0 0117.007 9z"/></g></symbol><symbol viewBox="0 0 24 24" id="gridicons-text-color"><g><path d="M3 19h18v3H3v-3zM15.82 17h3.424L14 3h-4L4.756 17h3.425l1.066-3.5h5.506L15.82 17zm-1.952-6h-3.73l1.868-5.725L13.868 11z"/></g></symbol><symbol viewBox="0 0 24 24" id="gridicons-themes"><g><path d="M4 6a2 2 0 00-2 2v12c0 1.1.9 2 2 2h12a2 2 0 002-2H4V6zm16-4H8a2 2 0 00-2 2v12a2 2 0 002 2h12a2 2 0 002-2V4a2 2 0 00-2-2zm-5 14H8V9h7v7zm5 0h-3V9h3v7zm0-9H8V4h12v3z"/></g></symbol><symbol viewBox="0 0 24 24" id="gridicons-thumbs-up"><g><path d="M6.7 22H2v-9h2l2.7 9zM19.999 9H14V5a3 3 0 00-3-3h-1v4L7.1 9.625A5.02 5.02 0 006 12.76V14l2.1 7h8.337a4 4 0 003.881-3.03l1.621-6.485A2 2 0 0019.999 9z"/></g></symbol><symbol viewBox="0 0 24 24" id="gridicons-time"><g><path d="M12 4c4.411 0 8 3.589 8 8s-3.589 8-8 8-8-3.589-8-8 3.589-8 8-8m0-2C6.477 2 2 6.477 2 12s4.477 10 10 10 10-4.477 10-10S17.523 2 12 2zm3.8 13.4L13 11.667V7h-2v5.333l3.2 4.266 1.6-1.199z"/></g></symbol><symbol viewBox="0 0 24 24" id="gridicons-trash"><g><path d="M6.187 8h11.625l-.695 11.125A2 2 0 0115.121 21H8.879a2 2 0 01-1.996-1.875L6.187 8zM19 5v2H5V5h3V4a2 2 0 012-2h4a2 2 0 012 2v1h3zm-9 0h4V4h-4v1z"/></g></symbol><symbol viewBox="0 0 24 24" id="gridicons-trending"><g><path d="M16 6l2.29 2.29-4.88 4.88-4-4L2 16.59 3.41 18l6-6 4 4 6.3-6.29L22 12V6h-6z"/></g></symbol><symbol viewBox="0 0 24 24" id="gridicons-trophy"><g><path d="M18 5.062V3H6v2.062H2V8c0 2.525 1.889 4.598 4.324 4.932A5.998 5.998 0 0011 16.91V18a2 2 0 01-2 2H8v2h8v-2h-1a2 2 0 01-2-2v-1.09a5.998 5.998 0 004.676-3.978C20.111 12.598 22 10.525 22 8V5.062h-4zM4 8v-.938h2v3.766A3.004 3.004 0 014 8zm16 0a3.006 3.006 0 01-2 2.829V7.062h2V8z"/></g></symbol><symbol viewBox="0 0 24 24" id="gridicons-types"><g><path d="M22 17a5 5 0 11-10.001-.001A5 5 0 0122 17zM6.5 6.5h3.8L7 1 1 11h5.5V6.5zm9.5 4.085V8H8v8h2.585A6.505 6.505 0 0116 10.585z"/></g></symbol><symbol viewBox="0 0 24 24" id="gridicons-underline"><g><path d="M4 19v2h16v-2H4zM18 3v8a6 6 0 11-12 0V3h3v8c0 1.654 1.346 3 3 3s3-1.346 3-3V3h3z"/></g></symbol><symbol viewBox="0 0 24 24" id="gridicons-undo"><g><path d="M18.142 5.929c-1.172-1.172-2.707-1.757-4.243-1.757s-3.071.586-4.243 1.757L6 9.586V6H4v7h7v-2H7.414l3.657-3.657a3.975 3.975 0 012.828-1.172c1.068 0 2.073.416 2.828 1.172a4.004 4.004 0 010 5.657l-5.364 5.364 1.414 1.414 5.364-5.364a5.999 5.999 0 00.001-8.485z"/></g></symbol><symbol viewBox="0 0 24 24" id="gridicons-user-add"><g><circle cx="15" cy="8" r="4"/><path d="M15 20s8 0 8-2c0-2.4-3.9-5-8-5s-8 2.6-8 5c0 2 8 2 8 2zM6 10V7H4v3H1v2h3v3h2v-3h3v-2z"/></g></symbol><symbol viewBox="0 0 24 24" id="gridicons-user-circle"><g><path d="M12 2C6.477 2 2 6.477 2 12s4.477 10 10 10 10-4.477 10-10S17.523 2 12 2zm0 18.5a8.5 8.5 0 11.001-17.001A8.5 8.5 0 0112 20.5zm0-8c-3.038 0-5.5 1.728-5.5 3.5s2.462 3.5 5.5 3.5 5.5-1.728 5.5-3.5-2.462-3.5-5.5-3.5zm0-.5a3 3 0 100-6 3 3 0 000 6z"/></g></symbol><symbol viewBox="0 0 24 24" id="gridicons-user"><g><path d="M12 4a4 4 0 110 8 4 4 0 010-8zm0 16s8 0 8-2c0-2.4-3.9-5-8-5s-8 2.6-8 5c0 2 8 2 8 2z"/></g></symbol><symbol viewBox="0 0 24 24" id="gridicons-video-camera"><g><path d="M17 9V7a2 2 0 00-2-2H4a2 2 0 00-2 2v10a2 2 0 002 2h11a2 2 0 002-2v-2l5 4V5l-5 4z"/></g></symbol><symbol viewBox="0 0 24 24" id="gridicons-video-remove"><g><path d="M19.42 4.59l1.167-1.167 1.414 1.414L20 6.84V18a2 2 0 01-2 2v-2h-2v2H6.839l-2.006 2.006-1.414-1.414L4.59 19.42a2.011 2.011 0 01-.01-.01L8 16 18 6l1.41-1.42.01.01zM15.84 11V11H18V8.839l-2.16 2.16zM16 8.01L16.01 8H16v.011zM6 15.17l-2 2V6a2 2 0 012-2v2h2V4h9.17l-9 9H6v2.17zM6 8v3h2V8H6zm12 8v-3h-2v3h2z"/></g></symbol><symbol viewBox="0 0 24 24" id="gridicons-video"><g><path d="M8.001 4h8v1.997h2V4A2 2 0 0120 6v12a2 2 0 01-1.999 2v-2.003h-2V20h-8v-2.003h-2V20H6a2 2 0 01-2-2V6a2 2 0 012-2h.001v1.997h2V4zM10 15l4.5-3L10 9v6zm8.001.997v-3h-2v3h2zm0-5v-3h-2v3h2zm-10 5v-3h-2v3h2zm0-5v-3h-2v3h2z"/></g></symbol><symbol viewBox="0 0 24 24" id="gridicons-visible"><g><path d="M12 6C5.188 6 1 12 1 12s4.188 6 11 6 11-6 11-6-4.188-6-11-6zm0 10c-3.943 0-6.926-2.484-8.379-4 1.04-1.085 2.862-2.657 5.254-3.469A3.96 3.96 0 008 11a4 4 0 008 0 3.96 3.96 0 00-.875-2.469c2.393.812 4.216 2.385 5.254 3.469-1.455 1.518-4.437 4-8.379 4z"/></g></symbol><symbol viewBox="0 0 24 24" id="gridicons-zoom-in"><g><path d="M15.8 13.8c.7-1.1 1.2-2.4 1.2-3.8 0-3.9-3.1-7-7-7s-7 3.1-7 7 3.1 7 7 7c1.4 0 2.7-.4 3.8-1.2L19 21l2-2-5.2-5.2zM10 15c-2.8 0-5-2.2-5-5s2.2-5 5-5 5 2.2 5 5-2.2 5-5 5z"/><path d="M11 7H9v2H7v2h2v2h2v-2h2V9h-2z"/></g></symbol><symbol viewBox="0 0 24 24" id="gridicons-zoom-out"><g><path d="M3 10c0 3.9 3.1 7 7 7 1.4 0 2.7-.5 3.8-1.2L19 21l2-2-5.2-5.2c.8-1.1 1.2-2.4 1.2-3.8 0-3.9-3.1-7-7-7s-7 3.1-7 7zm2 0c0-2.8 2.2-5 5-5s5 2.2 5 5-2.2 5-5 5-5-2.2-5-5z"/><path d="M7 9h6v2H7z"/></g></symbol></svg>