<svg width="128" height="128" fill="none" xmlns="http://www.w3.org/2000/svg">
  <path fill="#fff" d="M0 0h128v128H0z"/>
  <path fill-rule="evenodd" clip-rule="evenodd" d="M92.4539 42.3419c3.7531 0 6.7961-3.0427 6.7961-6.7959 0-3.7531-3.043-6.7958-6.7961-6.7958s-6.7958 3.0427-6.7958 6.7958c0 3.7532 3.0427 6.7959 6.7958 6.7959zm-48.1438-2.0744l20.848-20.8481c1.5904-1.5903 3.7989-2.562 6.2285-2.562h30.9214c1.161-.0041 2.312.2217 3.386.6642 1.073.4426 2.049 1.0932 2.87 1.9143.821.8212 1.472 1.7967 1.914 2.8704.443 1.0737.669 2.2244.665 3.3857v30.9213c0 2.4297-.972 4.6384-2.607 6.2285L87.7202 83.678 44.3101 40.2675z" fill="#4285F4"/>
  <path fill-rule="evenodd" clip-rule="evenodd" d="M87.7202 83.678l-25.6915 25.716c-1.6346 1.59-3.8431 2.606-6.2726 2.606-2.4294 0-4.6383-1.016-6.2285-2.606L18.6061 78.4725C16.9717 76.8821 16 74.6736 16 72.244c0-2.4737 1.0159-4.6824 2.6061-6.2726L44.31 40.2675 87.7202 83.678z" fill="#34A853"/>
  <path fill-rule="evenodd" clip-rule="evenodd" d="M33.6115 93.4777L18.6061 78.4723C16.9717 76.8825 16 74.6736 16 72.2442c0-2.4737 1.0159-4.6824 2.6061-6.2726L44.31 40.2677l21.2557 21.256-31.9542 31.954z" fill="#FBBC05"/>
  <path fill-rule="evenodd" clip-rule="evenodd" d="M108.092 18.9973c-1.607-1.3873-3.661-2.1473-5.784-2.1399H71.3866c-2.4296 0-4.6381.9717-6.2285 2.562l-20.848 20.8481 21.2556 21.256 21.649-21.649c-1.0082-1.2168-1.5589-2.7482-1.5565-4.3285 0-3.7531 3.0426-6.7958 6.7957-6.7958 1.5804-.0025 3.1118.5482 4.3287 1.5565l11.3094-11.3094z" fill="#EA4335"/>
  <path d="M65.5535 77.7372c7.6238 0 13.8041-6.1803 13.8041-13.8041S73.1773 50.129 65.5535 50.129s-13.8041 6.1803-13.8041 13.8041 6.1803 13.8041 13.8041 13.8041z" fill="#4285F4"/>
  <path fill-rule="evenodd" clip-rule="evenodd" d="M84.3608 59.8724H66.0013v7.877h10.568c-.9853 5.0043-5.1048 7.8771-10.568 7.8771-6.4483 0-11.6427-5.3749-11.6427-12.0473s5.1944-12.0473 11.6427-12.0473c2.7764 0 5.284 1.0194 7.2543 2.6875l5.7318-5.9311c-3.4928-3.1508-7.9708-5.0969-12.9861-5.0969-10.9261 0-19.7029 9.0819-19.7029 20.3878S55.0752 83.967 66.0013 83.967c9.8514 0 18.8073-7.4138 18.8073-20.3878 0-1.2047-.1791-2.5022-.4478-3.7068z" fill="#fff"/>
</svg>
