<svg width="292" height="167" viewBox="0 0 292 167" fill="none" xmlns="http://www.w3.org/2000/svg">
<path d="M172.355 16.4116H6.04958C3.04735 16.4116 0.5 18.9598 0.5 21.9629V28.1513H177.814V21.9629C177.905 18.8688 175.448 16.4116 172.355 16.4116Z" fill="#BEA0F2"/>
<path d="M195.865 110.693V154.057H240.125V110.693H195.865ZM207.237 142.681V122.078H228.744V142.681H207.237Z" fill="#E5E5E5" fill-opacity="0.6"/>
<path d="M195.865 38.3438V98.9624H291.5V38.3438H195.865ZM207.237 87.5867V49.7194H280.128V87.5867H207.237Z" fill="#E5E5E5" fill-opacity="0.6"/>
<path d="M280.262 106.298C278.833 105.161 264.514 94.1675 264.514 94.1675C264.514 94.1675 262.676 112.141 262.521 113.961C262.367 115.772 264.122 116.573 265.542 115.372C267.516 113.715 271.528 110.439 271.528 110.439C271.528 110.439 276.659 109.766 279.215 109.475C281.062 109.256 281.69 107.427 280.262 106.298Z" fill="#3C2861"/>
<path d="M99.0199 80.7158C100.075 80.7158 100.93 79.8601 100.93 78.8047C100.93 77.7492 100.075 76.8936 99.0199 76.8936C97.9647 76.8936 97.1094 77.7492 97.1094 78.8047C97.1094 79.8601 97.9647 80.7158 99.0199 80.7158Z" fill="#3C2861"/>
<path fill-rule="evenodd" clip-rule="evenodd" d="M217.471 164.623V78.7139H218.381V164.623H217.471Z" fill="#3C2861"/>
<path fill-rule="evenodd" clip-rule="evenodd" d="M98.5645 164.623V81.1709H99.4745V164.623H98.5645Z" fill="#3C2861"/>
<path fill-rule="evenodd" clip-rule="evenodd" d="M99.0195 163.804H218.017V164.714H99.0195V163.804Z" fill="#3C2861"/>
<path fill-rule="evenodd" clip-rule="evenodd" d="M99.0195 78.3496H216.016V79.2597H99.0195V78.3496Z" fill="#3C2861"/>
<path d="M217.926 80.7158C218.981 80.7158 219.837 79.8601 219.837 78.8047C219.837 77.7492 218.981 76.8936 217.926 76.8936C216.871 76.8936 216.016 77.7492 216.016 78.8047C216.016 79.8601 216.871 80.7158 217.926 80.7158Z" fill="#3C2861"/>
<path d="M218.018 166.17C219.073 166.17 219.928 165.314 219.928 164.259C219.928 163.203 219.073 162.348 218.018 162.348C216.963 162.348 216.107 163.203 216.107 164.259C216.107 165.314 216.963 166.17 218.018 166.17Z" fill="#3C2861"/>
<path d="M99.0199 166.17C100.075 166.17 100.93 165.314 100.93 164.259C100.93 163.203 100.075 162.348 99.0199 162.348C97.9647 162.348 97.1094 163.203 97.1094 164.259C97.1094 165.314 97.9647 166.17 99.0199 166.17Z" fill="#3C2861"/>
<path d="M0.591797 27.6963L0.864727 121.523C0.864727 124.617 3.3211 127.074 6.4143 127.074H172.447C175.449 127.074 177.996 124.526 177.996 121.523L177.723 27.6963H0.591797Z" fill="#E5E5E5" fill-opacity="0.6"/>
<path d="M166.168 115.334H71.0971L70.8242 39.3447H166.168V115.334Z" fill="white"/>
<path d="M15.9662 24.1469C17.0213 24.1469 17.8767 23.2913 17.8767 22.2358C17.8767 21.1803 17.0213 20.3247 15.9662 20.3247C14.911 20.3247 14.0557 21.1803 14.0557 22.2358C14.0557 23.2913 14.911 24.1469 15.9662 24.1469Z" fill="#EAE2FF"/>
<path d="M8.41539 24.1469C9.47054 24.1469 10.3259 23.2913 10.3259 22.2358C10.3259 21.1803 9.47054 20.3247 8.41539 20.3247C7.36025 20.3247 6.50488 21.1803 6.50488 22.2358C6.50488 23.2913 7.36025 24.1469 8.41539 24.1469Z" fill="white"/>
<path d="M23.517 24.1469C24.5721 24.1469 25.4275 23.2913 25.4275 22.2358C25.4275 21.1803 24.5721 20.3247 23.517 20.3247C22.4618 20.3247 21.6064 21.1803 21.6064 22.2358C21.6064 23.2913 22.4618 24.1469 23.517 24.1469Z" fill="#3C2861"/>
<path d="M160.528 75.0696C164.201 65.7023 154.223 53.0242 138.24 46.7522C122.257 40.4802 106.322 42.9893 102.649 52.3566C98.9751 61.7238 108.954 74.4019 124.937 80.6739C140.919 86.9459 156.854 84.4368 160.528 75.0696Z" fill="#EAE2FF"/>
<path d="M129.172 90.1226C130.799 82.9208 121.529 74.6899 108.468 71.7383C95.4068 68.7867 83.5001 72.2322 81.8737 79.4341C80.2472 86.6359 89.5169 94.8668 102.578 97.8184C115.639 100.77 127.546 97.3245 129.172 90.1226Z" fill="#EAE2FF"/>
<path d="M57.7245 107.417C56.9057 106.598 55.723 106.052 54.4494 106.052H16.967C14.4196 106.052 12.3271 108.145 12.3271 110.693C12.3271 111.967 12.873 113.15 13.6918 113.969C14.5106 114.788 15.6933 115.334 16.967 115.334H54.4494C56.9967 115.334 59.0892 113.241 59.0892 110.693C59.0892 109.419 58.5433 108.236 57.7245 107.417Z" fill="white"/>
<path d="M4.28826 158.902C1.95831 156.571 0.5 153.386 0.5 149.764C0.5 142.696 6.27459 136.92 13.3399 136.92C20.4051 136.92 26.1797 142.696 26.1797 149.764C26.1797 156.831 20.4051 162.608 13.3399 162.608C9.89523 162.692 6.61821 161.224 4.28826 158.902Z" fill="#3C2861"/>
<path d="M46.1602 162.692C53.2514 162.692 59.0001 156.941 59.0001 149.848C59.0001 142.754 53.2514 137.004 46.1602 137.004C39.0689 137.004 33.3203 142.754 33.3203 149.848C33.3203 156.941 39.0689 162.692 46.1602 162.692Z" fill="#CFB9F6"/>
<path d="M12.3271 66.3735H59.0892V71.1968H12.3271V66.3735Z" fill="white"/>
<path d="M12.3271 76.3843H59.0892V81.2076H12.3271V76.3843Z" fill="white"/>
<path d="M12.3271 86.4858H35.7082V91.3091H12.3271V86.4858Z" fill="white"/>
<path d="M12.3271 39.3447H59.0892V48.7183H12.3271V39.3447Z" fill="white"/>
<path d="M247.008 27.2823L245.345 22.8098H234.009L232.346 27.2823H226L236.192 0.861328H243.26L253.451 27.2823H247H247.008ZM239.73 6.47832L235.567 17.8178H243.779L239.722 6.47832H239.73Z" fill="#3C2861"/>
<path d="M268.949 27.2821V24.782C267.391 26.6571 265.411 27.6961 263.025 27.6961C258.246 27.6961 254.497 24.0515 254.497 17.6066C254.497 11.1616 258.14 7.51709 263.025 7.51709C265.314 7.51709 267.391 8.45055 268.949 10.4311V7.93106H274.045V27.071H268.949V27.2821ZM268.949 21.1456V14.3841C268.113 13.1341 266.247 12.2006 264.583 12.2006C261.67 12.2006 259.698 14.4896 259.698 17.7121C259.698 20.9346 261.67 23.3291 264.583 23.3291C266.247 23.3291 268.121 22.3956 268.949 21.1456Z" fill="#3C2861"/>
<path d="M108.317 103.857C108.816 99.0021 102.131 94.3362 93.3844 93.4351C84.6378 92.534 77.1421 95.739 76.6423 100.594C76.1425 105.448 82.8278 110.114 91.5745 111.015C100.321 111.916 107.817 108.711 108.317 103.857Z" fill="#EAE2FF"/>
</svg>
