<svg width="274" height="314" viewBox="0 0 274 314" fill="none" xmlns="http://www.w3.org/2000/svg">
<g clip-path="url(#clip0_14_163)">
<path d="M344.717 142.117C360.259 127.888 350.108 95.5358 322.054 69.853C293.994 44.1641 258.654 34.8768 243.112 49.099C233.335 58.0502 233.728 74.1875 242.358 91.3154C198.769 63.4533 152.761 56.5193 130.071 77.2853C107.388 98.0513 114.962 140.172 145.396 180.083C126.681 172.182 109.06 171.816 99.2828 180.773C83.7411 195.001 93.8924 227.354 121.946 253.037C150 278.72 185.346 288.013 200.881 273.785C210.658 264.834 210.265 248.696 201.635 231.568C245.224 259.431 291.233 266.365 313.922 245.593C336.605 224.827 329.031 182.706 298.597 142.795C317.313 150.696 334.933 151.056 344.711 142.105L344.717 142.117Z" fill="#DFD1FB" fill-opacity="0.3"/>
<path d="M63.0604 181.733H156.668V226.294C156.668 227.61 155.503 228.675 154.066 228.675H65.6629C64.225 228.675 63.0604 227.61 63.0604 226.294V181.733Z" fill="#BEA0F2"/>
<path d="M65.6629 174.734H154.066C155.503 174.734 156.668 175.8 156.668 177.116V181.771H63.0604V177.116C63.0604 175.8 64.225 174.734 65.6629 174.734Z" fill="#271B3D"/>
<path d="M68.2132 179.425C68.9211 179.425 69.495 178.9 69.495 178.252C69.495 177.605 68.9211 177.08 68.2132 177.08C67.5054 177.08 66.9315 177.605 66.9315 178.252C66.9315 178.9 67.5054 179.425 68.2132 179.425Z" fill="white"/>
<path d="M73.8583 179.425C74.5662 179.425 75.14 178.9 75.14 178.252C75.14 177.605 74.5662 177.08 73.8583 177.08C73.1504 177.08 72.5766 177.605 72.5766 178.252C72.5766 178.9 73.1504 179.425 73.8583 179.425Z" fill="white"/>
<path d="M79.5013 179.425C80.2092 179.425 80.783 178.9 80.783 178.252C80.783 177.605 80.2092 177.08 79.5013 177.08C78.7934 177.08 78.2196 177.605 78.2196 178.252C78.2196 178.9 78.7934 179.425 79.5013 179.425Z" fill="white"/>
<path d="M3.95575 254.378L0 250.759L50.2147 206.498L52.3292 208.433L3.95575 254.378Z" fill="#BEA0F2"/>
<path d="M40.9271 219.333L52.3291 208.433L50.2146 206.498L38.3018 216.931L40.9271 219.333Z" fill="#271B3D"/>
<path d="M146.801 207.777H98.4961V210.754H146.801V207.777Z" fill="#271B3D"/>
<path d="M130.484 215.891H98.4961V218.868H130.484V215.891Z" fill="#271B3D"/>
<path d="M146.801 199.663H98.4961V202.64H146.801V199.663Z" fill="#271B3D"/>
<path d="M114.602 132.149H173.113C174.55 132.149 175.715 133.215 175.715 134.53V139.185H112V134.53C112 133.215 113.165 132.149 114.602 132.149Z" fill="#271B3D"/>
<path d="M173.389 134.319L173.142 134.093L171.668 135.441L170.195 134.093L169.947 134.319L171.421 135.667L169.947 137.016L170.195 137.242L171.668 135.893L173.142 137.242L173.389 137.016L171.916 135.667L173.389 134.319Z" fill="white"/>
<path d="M112 139.174V165.587C112 166.903 113.165 167.969 114.602 167.969H173.077C174.515 167.969 175.679 166.903 175.679 165.587V139.174H112Z" fill="#BEA0F2"/>
<path d="M57.2831 196.558C57.2831 200.109 54.1536 203.347 54.9343 204.059C55.7118 204.77 59.2512 201.91 63.1321 201.91C67.0131 201.91 70.5524 204.773 71.3299 204.059C72.1074 203.344 68.9812 200.109 68.9812 196.558C68.9812 193.007 72.1107 189.768 71.3299 189.057C70.5524 188.346 67.0131 191.206 63.1321 191.206C59.2512 191.206 55.7118 188.343 54.9343 189.057C54.1569 189.768 57.2831 193.007 57.2831 196.558Z" fill="#271B3D"/>
<path d="M52.5861 186.908C54.0318 185.585 54.4582 183.831 53.5384 182.989C52.6186 182.148 50.701 182.538 49.2553 183.861C47.8096 185.183 47.3832 186.938 48.303 187.78C49.2228 188.621 51.1404 188.231 52.5861 186.908Z" fill="#271B3D"/>
<path d="M46.8364 181.643C47.8248 180.738 48.1163 179.539 47.4874 178.963C46.8586 178.388 45.5475 178.655 44.5592 179.559C43.5708 180.463 43.2793 181.663 43.9082 182.238C44.537 182.814 45.8481 182.547 46.8364 181.643Z" fill="#271B3D"/>
<path d="M176.488 249.931C176.488 247.279 174.14 245.128 171.244 245.128C168.347 245.128 165.999 247.279 165.999 249.931C165.999 252.584 168.347 254.735 171.244 254.735C174.14 254.735 176.488 252.584 176.488 249.931Z" fill="white"/>
<path d="M176.488 234.639C176.488 231.986 174.14 229.836 171.244 229.836C168.347 229.836 165.999 231.986 165.999 234.639C165.999 237.292 168.347 239.443 171.244 239.443C174.14 239.443 176.488 237.292 176.488 234.639Z" fill="#BEA0F2"/>
<path d="M176.488 219.343C176.488 216.69 174.14 214.54 171.244 214.54C168.347 214.54 165.999 216.69 165.999 219.343C165.999 221.996 168.347 224.147 171.244 224.147C174.14 224.147 176.488 221.996 176.488 219.343Z" fill="#271B3D"/>
<path d="M76.4888 153.078L75.1166 156.937C74.2116 159.538 74.2116 159.918 76.2261 160.123L77.1604 160.211L77.2479 160.649H71L71.0876 160.211L71.8175 160.123C73.3065 159.918 73.54 159.597 75.2042 155.066L79.0873 144.192L78.8537 143.345C79.3792 143.169 80.2551 142.468 80.4887 142H80.8098L86.2111 157.989C86.795 159.685 87.0286 160.035 88.1088 160.123L89.2183 160.211L89.3059 160.649H81.7733L81.8609 160.211L83.0579 160.123C84.0506 160.065 84.3718 159.597 83.9338 158.252L82.2404 153.078H76.4888ZM82.0361 152.494L79.496 144.748H79.4084C79.4084 144.748 76.6932 152.494 76.664 152.494H82.0361Z" fill="#271B3D"/>
<path d="M98.4308 161C97.4089 161 96.6498 160.269 96.5914 158.895L96.533 158.866C95.4528 159.977 94.2265 160.971 92.8251 160.971C91.0734 160.971 89.7012 159.685 89.7012 158.048C89.7012 155.972 91.3653 154.598 96.7666 153.283L96.7958 152.289C96.8834 149.337 95.5695 148.489 93.9054 148.489C92.7375 148.489 91.4821 149.162 91.4821 149.483C91.4821 149.688 92.1536 150.155 92.1536 150.886C92.1536 151.5 91.6573 152.055 90.869 152.055C90.1391 152.055 89.5844 151.617 89.5844 150.915C89.5844 149.483 92.8251 147.671 95.1024 147.671C97.7301 147.671 98.9855 148.694 98.8103 152.289L98.5183 158.515C98.4891 159.392 98.8103 159.714 99.3942 159.714C99.8322 159.714 100.299 159.334 100.766 158.895L101 159.158C100.387 159.918 99.511 161 98.4308 161ZM93.8178 159.655C94.8688 159.655 95.7155 159.158 96.5914 158.34L96.7374 153.751C92.6791 154.745 91.7449 155.943 91.7449 157.492C91.7449 158.837 92.65 159.655 93.8178 159.655Z" fill="#271B3D"/>
</g>
<defs>
<clipPath id="clip0_14_163">
<rect width="274" height="314" rx="4" fill="white"/>
</clipPath>
</defs>
</svg>
