<svg width="239" height="218" viewBox="0 0 239 218" fill="none" xmlns="http://www.w3.org/2000/svg">
<path d="M309.717 99.6822C325.259 85.4539 315.108 53.1012 287.054 27.4184C258.994 1.72958 223.654 -7.55779 208.112 6.66443C198.335 15.6156 198.728 31.7529 207.358 48.8808C163.769 21.0187 117.761 14.0847 95.0711 34.8507C72.3881 55.6167 79.9622 97.737 110.396 137.648C91.6808 129.748 74.0603 129.381 64.2828 138.338C48.7411 152.567 58.8924 184.919 86.9461 210.602C115 236.285 150.346 245.578 165.881 231.35C175.658 222.399 175.265 206.262 166.635 189.134C210.224 216.996 256.233 223.93 278.922 203.158C301.605 182.392 294.031 140.272 263.597 100.361C282.313 108.261 299.933 108.621 309.711 99.6702L309.717 99.6822Z" fill="#DFD1FB" fill-opacity="0.3"/>
<path d="M18.2184 59C1.7186 59 -5.49569 68 8.2189 83C24.2192 100.5 25.219 111 8.21848 127.5" stroke="black"/>
<path d="M28.2378 94.5836H121.845V139.145C121.845 140.461 120.681 141.526 119.243 141.526H30.8403C29.4024 141.526 28.2378 140.461 28.2378 139.145V94.5836Z" fill="#BEA0F2"/>
<path d="M30.8403 87.5854H119.243C120.681 87.5854 121.845 88.651 121.845 89.9667V94.6219H28.2378V89.9667C28.2378 88.651 29.4024 87.5854 30.8403 87.5854Z" fill="#271B3D"/>
<path d="M33.3906 92.2762C34.0985 92.2762 34.6723 91.7511 34.6723 91.1034C34.6723 90.4557 34.0985 89.9307 33.3906 89.9307C32.6827 89.9307 32.1089 90.4557 32.1089 91.1034C32.1089 91.7511 32.6827 92.2762 33.3906 92.2762Z" fill="white"/>
<path d="M39.0356 92.2762C39.7435 92.2762 40.3173 91.7511 40.3173 91.1034C40.3173 90.4557 39.7435 89.9307 39.0356 89.9307C38.3277 89.9307 37.7539 90.4557 37.7539 91.1034C37.7539 91.7511 38.3277 92.2762 39.0356 92.2762Z" fill="white"/>
<path d="M44.6787 92.2762C45.3866 92.2762 45.9604 91.7511 45.9604 91.1034C45.9604 90.4557 45.3866 89.9307 44.6787 89.9307C43.9708 89.9307 43.397 90.4557 43.397 91.1034C43.397 91.7511 43.9708 92.2762 44.6787 92.2762Z" fill="white"/>
<path d="M111.978 120.628H63.6733V123.605H111.978V120.628Z" fill="#271B3D"/>
<path d="M95.6609 128.742H63.6733V131.719H95.6609V128.742Z" fill="#271B3D"/>
<path d="M111.978 112.514H63.6733V115.491H111.978V112.514Z" fill="#271B3D"/>
<path d="M79.7797 45H138.29C139.728 45 140.892 46.0656 140.892 47.3812V52.0365H77.1772V47.3812C77.1772 46.0656 78.3419 45 79.7797 45Z" fill="#271B3D"/>
<path d="M138.566 47.1698L138.319 46.9436L136.845 48.292L135.372 46.9436L135.125 47.1698L136.598 48.5182L135.125 49.8665L135.372 50.0928L136.845 48.7444L138.319 50.0928L138.566 49.8665L137.093 48.5182L138.566 47.1698Z" fill="white"/>
<path d="M77.1772 52.0249V78.4385C77.1772 79.7541 78.3419 80.8197 79.7797 80.8197H138.254C139.692 80.8197 140.856 79.7541 140.856 78.4385V52.0249H77.1772Z" fill="#BEA0F2"/>
<path d="M28.2378 95.5837H121.845V140.145C121.845 141.461 120.681 142.526 119.243 142.526H30.8403C29.4024 142.526 28.2378 141.461 28.2378 140.145V95.5837Z" fill="#BEA0F2"/>
<path d="M30.8403 88.5854H119.243C120.681 88.5854 121.845 89.651 121.845 90.9667V95.6219H28.2378V90.9667C28.2378 89.651 29.4024 88.5854 30.8403 88.5854Z" fill="#271B3D"/>
<path d="M33.3906 93.2762C34.0985 93.2762 34.6723 92.7511 34.6723 92.1034C34.6723 91.4557 34.0985 90.9307 33.3906 90.9307C32.6827 90.9307 32.1089 91.4557 32.1089 92.1034C32.1089 92.7511 32.6827 93.2762 33.3906 93.2762Z" fill="white"/>
<path d="M39.0356 93.2762C39.7435 93.2762 40.3173 92.7511 40.3173 92.1034C40.3173 91.4557 39.7435 90.9307 39.0356 90.9307C38.3277 90.9307 37.7539 91.4557 37.7539 92.1034C37.7539 92.7511 38.3277 93.2762 39.0356 93.2762Z" fill="white"/>
<path d="M44.6787 93.2762C45.3866 93.2762 45.9604 92.7511 45.9604 92.1034C45.9604 91.4557 45.3866 90.9307 44.6787 90.9307C43.9708 90.9307 43.397 91.4557 43.397 92.1034C43.397 92.7511 43.9708 93.2762 44.6787 93.2762Z" fill="white"/>
<path d="M79.7914 46H138.563C140.007 46 141.177 47.0601 141.177 48.3689V53H77.1772V48.3689C77.1772 47.0601 78.3471 46 79.7914 46Z" fill="#271B3D"/>
<path d="M138.566 48.1698L138.319 47.9436L136.845 49.292L135.372 47.9436L135.125 48.1698L136.598 49.5182L135.125 50.8665L135.372 51.0928L136.845 49.7444L138.319 51.0928L138.566 50.8665L137.093 49.5182L138.566 48.1698Z" fill="white"/>
<path d="M77.1772 53V79.6018C77.1772 80.9268 78.3477 82 79.7928 82H138.562C140.007 82 141.177 80.9268 141.177 79.6018V53H77.1772Z" fill="#BEA0F2"/>
<path d="M83.6089 136L85.9587 133.65C78.9041 126.994 67.8217 126.994 60.7671 133.65L63.1169 136C68.8754 130.637 77.8504 130.637 83.6089 136Z" fill="#271B3D"/>
<path d="M91.4137 128.195L93.7635 125.845C88.25 120.553 81.0294 117.642 73.3637 117.642C65.698 117.642 58.4774 120.55 52.9639 125.845L55.3136 128.195C60.2002 123.529 66.5857 120.966 73.3637 120.966C80.1417 120.966 86.5298 123.529 91.4137 128.195Z" fill="#271B3D"/>
<path d="M99.201 120.408L101.551 118.058C93.9508 110.695 83.9696 106.649 73.364 106.649C62.7584 106.649 52.7771 110.698 45.1772 118.058L47.527 120.408C54.4973 113.675 63.6461 109.971 73.364 109.971C83.0818 109.971 92.2307 113.672 99.201 120.408Z" fill="#271B3D"/>
<path d="M99.156 115.532C103.445 115.532 106.922 112.055 106.922 107.766C106.922 103.477 103.445 100 99.156 100C94.867 100 91.3901 103.477 91.3901 107.766C91.3901 112.055 94.867 115.532 99.156 115.532Z" fill="white"/>
<path d="M102.283 105.09L101.832 104.642L99.1557 107.318L96.4793 104.642L96.0288 105.09L98.7079 107.766L96.0288 110.442L96.4793 110.893L99.1557 108.216L101.832 110.893L102.283 110.442L99.6062 107.766L102.283 105.09Z" fill="#271B3D"/>
<path d="M40.3481 67.7286H62.6662C63.6752 67.7286 64.4921 66.9564 64.4921 65.6951C64.4921 64.4339 63.6752 63.4705 62.6662 63.4705H40.3481V67.7286Z" fill="#271B3D"/>
<path d="M40.3481 54.2885H62.6662C63.6752 54.2885 64.4921 53.5163 64.4921 52.2551C64.4921 50.9939 63.6752 50.0304 62.6662 50.0304H40.3481V54.2885Z" fill="#271B3D"/>
<path d="M64.4919 52.2551C64.4919 50.9939 63.6751 50.0304 62.6661 50.0304H60.5952V54.2885H62.6661C63.6751 54.2885 64.4919 53.5163 64.4919 52.2551Z" fill="#BEA0F2"/>
<path d="M64.4919 65.6951C64.4919 64.4339 63.6751 63.4705 62.6661 63.4705H60.5952V67.7286H62.6661C63.6751 67.7286 64.4919 66.9564 64.4919 65.6951Z" fill="#BEA0F2"/>
<path d="M50.0192 45H37.6409C32.6257 45 28.9129 47.989 27.1322 52.4774H25.241C24.162 52.4774 23.4531 52.707 22.415 54.3114C22.0977 54.7998 21.7493 55.3614 20.555 55.3614H19.8581C18.8824 55.3614 18.0918 56.1648 18.0918 57.1563V60.8437C18.0918 61.8352 18.8824 62.6386 19.8581 62.6386H20.555C21.7493 62.6386 22.0977 63.2002 22.415 63.6886C23.4531 65.293 24.162 65.5226 25.241 65.5226H27.137C28.9201 70.0061 32.6305 72.9902 37.6433 72.9902C41.8103 72.9902 50.0216 73 50.0216 73C50.9444 73 51.6918 72.2405 51.6918 71.3028V46.6923C51.6918 45.7546 50.9444 45 50.0216 45H50.0192Z" fill="#BEA0F2"/>
</svg>
