<svg width="216" height="136" viewBox="0 0 216 136" fill="none" xmlns="http://www.w3.org/2000/svg">
<g id="Comparing" clip-path="url(#clip0_4824_20218)">
<g id="Layer 1">
<g id="Group">
<path id="Vector" d="M0 131.57C0 129.147 1.95966 127.18 4.39285 127.14H118.702C121.168 127.14 123.164 129.122 123.164 131.57C123.164 134.018 121.168 136 118.702 136H4.38192C1.95602 135.996 0 133.989 0 131.57Z" fill="#BEA0F2"/>
<g id="Group_2">
<path id="Vector_2" d="M9.9585 135.996H13L16.668 127.14H13.6228L9.9585 135.996Z" fill="#271B3D"/>
<path id="Vector_3" d="M22.0845 135.996H25.126L28.794 127.14H25.7488L22.0845 135.996Z" fill="#271B3D"/>
<path id="Vector_4" d="M19.6878 127.14L16.0198 135.996H19.0649L22.7329 127.14H19.6878Z" fill="#271B3D"/>
<path id="Vector_5" d="M31.8682 127.14L28.2002 135.996H31.2453L34.9133 127.14H31.8682Z" fill="#271B3D"/>
<path id="Vector_6" d="M37.9585 127.14L34.2905 135.996H37.3357L41.0036 127.14H37.9585Z" fill="#271B3D"/>
<path id="Vector_7" d="M44.0486 127.14L40.3806 135.996H43.4257L47.0937 127.14H44.0486Z" fill="#271B3D"/>
<path id="Vector_8" d="M50.139 127.14L46.4746 135.996H49.5161L53.1841 127.14H50.139Z" fill="#271B3D"/>
<path id="Vector_9" d="M56.2293 127.14L52.5649 135.996H55.6064L59.2744 127.14H56.2293Z" fill="#271B3D"/>
<path id="Vector_10" d="M62.3013 127.14L58.6333 135.996H61.6784L65.3464 127.14H62.3013Z" fill="#271B3D"/>
<path id="Vector_11" d="M68.3733 127.14L64.7053 135.996H67.7468L71.4148 127.14H68.3733Z" fill="#271B3D"/>
<path id="Vector_12" d="M74.4417 127.14L70.7737 135.996H73.8188L77.4868 127.14H74.4417Z" fill="#271B3D"/>
<path id="Vector_13" d="M80.5137 127.14L76.8457 135.996H79.8908L83.5552 127.14H80.5137Z" fill="#271B3D"/>
<path id="Vector_14" d="M86.5821 127.14L82.9177 135.996H85.9592L89.6272 127.14H86.5821Z" fill="#271B3D"/>
<path id="Vector_15" d="M10.6033 127.14H7.55819L3.90112 135.971C4.05775 135.989 4.21802 135.996 4.37829 135.996H6.93532L10.6033 127.137V127.14Z" fill="#271B3D"/>
<path id="Vector_16" d="M1.37686 134.785L4.54219 127.14H4.39285C2.72823 127.166 1.2858 128.099 0.539089 129.458L0.178482 130.326C0.0619224 130.72 0 131.136 0 131.567C0 132.825 0.528162 133.971 1.37686 134.781V134.785Z" fill="#271B3D"/>
</g>
</g>
<g id="Group_3">
<path id="Vector_17" d="M123.131 18.1391V61.5016H126.773V18.1391H123.131Z" fill="#BEA0F2"/>
<path id="Vector_18" d="M131.075 -1.90735e-05V61.5016H134.718V-1.90735e-05H131.075Z" fill="#BEA0F2"/>
<path id="Vector_19" d="M139.023 33.8951V61.5016H142.666V33.8951H139.023Z" fill="#BEA0F2"/>
</g>
<g id="Group_4">
<path id="Vector_20" d="M216 72.7012H154.078V76.2668H216V72.7012Z" fill="#271B3D"/>
<path id="Vector_21" d="M201.175 80.5304H154.078V84.096H201.175V80.5304Z" fill="#271B3D"/>
</g>
<path id="Vector_22" d="M180.941 80.5303H154.078V89.8891H180.941V80.5303Z" fill="#271B3D"/>
<path id="Vector_23" d="M75.8039 95.2954H130.715C132.649 95.2954 134.219 96.854 134.219 98.7743C134.219 100.694 132.649 102.253 130.715 102.253H75.7966L75.8039 95.2954Z" fill="#BEA0F2"/>
<path id="Vector_24" d="M159.498 76.3137C171.973 76.3137 182.121 86.3886 182.121 98.7742C182.121 111.16 171.973 121.235 159.498 121.235C147.022 121.235 136.874 111.16 136.874 98.7742C136.874 86.3886 147.022 76.3137 159.498 76.3137ZM159.498 69.8044C143.383 69.8044 130.318 82.7759 130.318 98.7742C130.318 114.773 143.383 127.744 159.498 127.744C175.612 127.744 188.678 114.773 188.678 98.7742C188.678 82.7759 175.612 69.8044 159.498 69.8044Z" fill="#BEA0F2"/>
</g>
<g id="Layer 4">
<g id="Group_5">
<path id="Vector_25" d="M216 0H154.078V61.5016H216V0Z" fill="#271B3D"/>
<g id="Group_6">
<path id="Vector_26" d="M193.082 19.3649H177.029V10.5521C184.533 14.049 193.082 10.5521 193.082 10.5521V19.3649Z" fill="#BEA0F2"/>
<path id="Vector_27" d="M192.331 10.422C192.331 13.8574 190.976 17.3218 185.039 17.3218C179.102 17.3218 177.747 13.8574 177.747 10.422C169.653 10.422 160.03 16.2188 157.451 18.7792L164.889 30.3114L169.194 29.2084L169.26 52.5333H200.811L200.877 29.2084L205.182 30.3114L212.62 18.7792C210.041 16.2188 200.418 10.422 192.324 10.422H192.331Z" fill="white"/>
</g>
</g>
<g id="Group_7">
<g id="Group_8">
<path id="Vector_28" d="M61.9224 90.7607H0V94.377H61.9224V90.7607Z" fill="#271B3D"/>
<path id="Vector_29" d="M45.1451 98.6478H0V102.264H45.1451V98.6478Z" fill="#271B3D"/>
</g>
<path id="Vector_30" d="M61.9224 18.1392H0V79.6154H61.9224V18.1392Z" fill="#BEA0F2"/>
</g>
<path id="Vector_31" d="M8.29044 44.2556C9.77658 46.3892 18.2454 47.7019 25.1443 46.0204C23.221 42.7585 24.0297 41.1384 24.8565 41.0589C26.2042 40.9251 30.8739 45.1742 34.7167 46.9968C39.299 49.1701 43.5316 50.2875 46.9155 50.9421C56.9032 52.8804 56.3422 58.0806 56.0436 61.2629H6.47284C5.48208 56.1495 5.31452 48.6855 8.29044 44.2556Z" fill="white"/>
<path id="Vector_32" d="M56.0361 57.6431H5.96997C6.08289 58.9232 6.25773 60.1491 6.47264 61.2629H56.0434C56.1417 60.2106 56.2655 58.9413 56.0324 57.6431H56.0361Z" fill="#271B3D"/>
</g>
</g>
<defs>
<clipPath id="clip0_4824_20218">
<rect width="216" height="136" fill="white"/>
</clipPath>
</defs>
</svg>
