<svg xmlns="http://www.w3.org/2000/svg" xmlns:xlink="http://www.w3.org/1999/xlink" width="216px" height="136px" viewBox="0 0 216 136" version="1.1">
<defs>
<clipPath id="clip1">
  <path d="M 0.515625 0 L 215.484375 0 L 215.484375 136 L 0.515625 136 Z M 0.515625 0 "/>
</clipPath>
<clipPath id="clip2">
  <path d="M 211 131 L 215.484375 131 L 215.484375 136 L 211 136 Z M 211 131 "/>
</clipPath>
</defs>
<g id="surface1">
<g clip-path="url(#clip1)" clip-rule="nonzero">
<path style=" stroke:none;fill-rule:nonzero;fill:rgb(100%,100%,100%);fill-opacity:1;" d="M 0.515625 0 L 215.484375 0 L 215.484375 136 L 0.515625 136 Z M 0.515625 0 "/>
</g>
<g clip-path="url(#clip2)" clip-rule="nonzero">
<path style=" stroke:none;fill-rule:nonzero;fill:rgb(100%,100%,100%);fill-opacity:1;" d="M 215.453125 131.578125 L 211.273438 131.578125 L 211.273438 135.660156 L 215.453125 135.660156 Z M 215.453125 131.578125 "/>
</g>
<path style=" stroke:none;fill-rule:nonzero;fill:rgb(74.509804%,62.745098%,94.901961%);fill-opacity:1;" d="M 200.851562 14.28125 L 200.851562 48.28125 L 204.335938 48.28125 L 204.335938 14.28125 Z M 200.851562 14.28125 "/>
<path style=" stroke:none;fill-rule:nonzero;fill:rgb(74.509804%,62.745098%,94.901961%);fill-opacity:1;" d="M 207.820312 4.078125 L 207.820312 48.28125 L 211.304688 48.28125 L 211.304688 4.078125 Z M 207.820312 4.078125 "/>
<path style=" stroke:none;fill-rule:nonzero;fill:rgb(74.509804%,62.745098%,94.901961%);fill-opacity:1;" d="M 193.882812 24.140625 L 193.882812 48.28125 L 197.367188 48.28125 L 197.367188 24.140625 Z M 193.882812 24.140625 "/>
<path style=" stroke:none;fill-rule:nonzero;fill:rgb(74.509804%,62.745098%,94.901961%);fill-opacity:1;" d="M 88.550781 128.679688 L 96.972656 106.078125 L 118.679688 106.078125 L 127.101562 128.679688 L 143.363281 128.679688 L 143.363281 131.921875 L 72.289062 131.921875 L 72.289062 128.679688 Z M 88.550781 128.679688 "/>
<path style=" stroke:none;fill-rule:nonzero;fill:rgb(74.509804%,62.745098%,94.901961%);fill-opacity:1;" d="M 92.394531 38.125 L 33.164062 38.125 L 33.164062 95.925781 L 92.394531 95.925781 Z M 92.394531 38.125 "/>
<path style=" stroke:none;fill-rule:nonzero;fill:rgb(15.294118%,10.588235%,23.921569%);fill-opacity:1;" d="M 47.980469 67.867188 L 40.960938 70.34375 C 38.378906 71.253906 38.132812 72.867188 38.796875 73.964844 C 39.601562 75.285156 41.523438 75.160156 43.621094 73.792969 C 45.574219 72.519531 48.570312 70.480469 49.542969 69.796875 Z M 47.980469 67.867188 "/>
<path style=" stroke:none;fill-rule:nonzero;fill:rgb(15.294118%,10.588235%,23.921569%);fill-opacity:1;" d="M 77.574219 67.867188 C 77.574219 67.867188 83.425781 69.929688 84.59375 70.34375 C 87.175781 71.253906 87.421875 72.867188 86.757812 73.964844 C 85.953125 75.285156 84.03125 75.160156 81.933594 73.792969 C 79.980469 72.519531 76.984375 70.480469 76.011719 69.796875 Z M 77.574219 67.867188 "/>
<path style=" stroke:none;fill-rule:nonzero;fill:rgb(100%,100%,100%);fill-opacity:1;" d="M 46.425781 61.804688 L 55.042969 73.023438 L 55.398438 72.824219 L 53.09375 60.066406 Z M 46.425781 61.804688 "/>
<path style=" stroke:none;fill-rule:nonzero;fill:rgb(74.509804%,62.745098%,94.901961%);fill-opacity:1;" d="M 52.082031 72.761719 C 48.261719 72.761719 45.695312 69.460938 45.695312 66.152344 C 45.695312 62.539062 49.035156 61.121094 52.148438 61.121094 C 55.265625 61.121094 58.792969 62.710938 58.792969 65.921875 C 58.792969 69.609375 56.019531 72.761719 52.082031 72.761719 Z M 52.082031 72.761719 "/>
<path style=" stroke:none;fill-rule:nonzero;fill:rgb(100%,100%,100%);fill-opacity:1;" d="M 54.28125 72.40625 C 54.527344 72.324219 54.757812 72.230469 54.984375 72.121094 L 53.003906 61.164062 C 52.71875 61.136719 52.429688 61.121094 52.148438 61.121094 C 50.238281 61.121094 48.238281 61.660156 46.984375 62.90625 Z M 54.28125 72.40625 "/>
<path style=" stroke:none;fill-rule:nonzero;fill:rgb(74.509804%,62.745098%,94.901961%);fill-opacity:1;" d="M 66.761719 65.921875 C 66.761719 62.710938 70.292969 61.121094 73.40625 61.121094 C 76.519531 61.121094 79.859375 62.539062 79.859375 66.152344 C 79.859375 69.464844 77.289062 72.761719 73.472656 72.761719 C 69.535156 72.761719 66.761719 69.609375 66.761719 65.921875 Z M 66.761719 65.921875 "/>
<path style=" stroke:none;fill-rule:nonzero;fill:rgb(100%,100%,100%);fill-opacity:1;" d="M 71.273438 72.40625 C 71.03125 72.324219 70.796875 72.230469 70.570312 72.121094 L 72.550781 61.164062 C 72.839844 61.136719 73.125 61.121094 73.40625 61.121094 C 75.320312 61.121094 77.316406 61.660156 78.570312 62.90625 Z M 71.273438 72.40625 "/>
<path style=" stroke:none;fill-rule:nonzero;fill:rgb(15.294118%,10.588235%,23.921569%);fill-opacity:1;" d="M 73.539062 59.15625 C 66.585938 59.15625 64.664062 64.078125 62.777344 64.078125 C 60.886719 64.078125 58.972656 59.15625 52.011719 59.15625 C 47.609375 59.15625 43.007812 61.921875 40.617188 63.042969 L 40.617188 66.414062 L 43.183594 66.414062 C 43.539062 68.570312 45.328125 74.804688 52.078125 74.804688 C 59.625 74.804688 59.792969 67.304688 62.773438 67.304688 C 65.75 67.304688 65.921875 74.804688 73.464844 74.804688 C 80.21875 74.804688 82.003906 68.570312 82.359375 66.414062 L 84.929688 66.414062 L 84.929688 63.042969 C 82.539062 61.921875 77.933594 59.15625 73.53125 59.15625 Z M 52.082031 72.761719 C 48.261719 72.761719 45.695312 69.460938 45.695312 66.152344 C 45.695312 62.539062 49.035156 61.121094 52.148438 61.121094 C 55.265625 61.121094 58.792969 62.710938 58.792969 65.921875 C 58.792969 69.609375 56.019531 72.761719 52.082031 72.761719 Z M 73.472656 72.761719 C 69.535156 72.761719 66.761719 69.609375 66.761719 65.921875 C 66.761719 62.710938 70.292969 61.121094 73.40625 61.121094 C 76.519531 61.121094 79.859375 62.539062 79.859375 66.152344 C 79.859375 69.464844 77.289062 72.761719 73.472656 72.761719 Z M 73.472656 72.761719 "/>
<path style=" stroke:none;fill-rule:nonzero;fill:rgb(15.294118%,10.588235%,23.921569%);fill-opacity:1;" d="M 155.867188 44.960938 L 96.636719 44.960938 L 96.636719 48.363281 L 155.867188 48.363281 Z M 155.867188 44.960938 "/>
<path style=" stroke:none;fill-rule:nonzero;fill:rgb(15.294118%,10.588235%,23.921569%);fill-opacity:1;" d="M 126.253906 51.613281 L 96.636719 51.613281 L 96.636719 55.011719 L 126.253906 55.011719 Z M 126.253906 51.613281 "/>
<path style=" stroke:none;fill-rule:nonzero;fill:rgb(15.294118%,10.588235%,23.921569%);fill-opacity:1;" d="M 155.867188 38.160156 L 96.636719 38.160156 L 96.636719 41.5625 L 155.867188 41.5625 Z M 155.867188 38.160156 "/>
<path style=" stroke:none;fill-rule:nonzero;fill:rgb(15.294118%,10.588235%,23.921569%);fill-opacity:1;" d="M 159.304688 71.523438 L 159.304688 80.863281 L 175.355469 80.863281 C 175.355469 80.863281 173.632812 84.292969 173.632812 88.132812 C 173.632812 91.96875 176.171875 95.824219 181.066406 95.824219 C 185.960938 95.824219 188.5 91.839844 188.5 88.132812 C 188.5 84.421875 186.777344 80.863281 186.777344 80.863281 L 198.511719 80.863281 L 198.511719 71.523438 C 204.359375 74.753906 211.207031 73.65625 211.207031 66.953125 C 211.207031 60.25 204.359375 59.152344 198.511719 62.382812 L 198.511719 53.042969 L 186.777344 53.042969 C 186.777344 53.042969 188.5 49.613281 188.5 45.773438 C 188.5 41.9375 185.960938 38.082031 181.066406 38.082031 C 176.171875 38.082031 173.632812 42.066406 173.632812 45.773438 C 173.632812 49.484375 175.355469 53.042969 175.355469 53.042969 L 159.304688 53.042969 L 159.304688 62.382812 C 165.152344 59.152344 172 60.25 172 66.953125 C 172 73.65625 165.152344 74.753906 159.304688 71.523438 Z M 159.304688 71.523438 "/>
<path style=" stroke:none;fill-rule:nonzero;fill:rgb(74.509804%,62.745098%,94.901961%);fill-opacity:1;" d="M 155.867188 87.378906 L 96.636719 87.378906 L 96.636719 95.878906 L 155.867188 95.878906 Z M 155.867188 87.378906 "/>
<path style=" stroke:none;fill-rule:nonzero;fill:rgb(15.294118%,10.588235%,23.921569%);fill-opacity:1;" d="M 34.308594 119.105469 L 34.308594 115.152344 L 30.957031 114.726562 C 30.65625 113.351562 30.105469 112.070312 29.34375 110.929688 L 31.402344 108.3125 L 28.539062 105.515625 L 25.855469 107.527344 C 24.6875 106.78125 23.375 106.246094 21.96875 105.953125 L 21.527344 102.679688 L 17.476562 102.679688 L 17.039062 105.953125 C 15.632812 106.246094 14.320312 106.78125 13.148438 107.527344 L 10.464844 105.515625 L 7.601562 108.3125 L 9.660156 110.929688 C 8.898438 112.070312 8.347656 113.351562 8.046875 114.726562 L 4.695312 115.152344 L 4.695312 119.105469 L 8.046875 119.535156 C 8.351562 120.90625 8.90625 122.1875 9.660156 123.332031 L 7.601562 125.949219 L 10.464844 128.742188 L 13.148438 126.734375 C 14.320312 127.476562 15.632812 128.015625 17.042969 128.308594 L 17.476562 131.578125 L 21.527344 131.578125 L 21.96875 128.308594 C 23.375 128.015625 24.6875 127.476562 25.855469 126.734375 L 28.539062 128.742188 L 31.402344 125.949219 L 29.34375 123.332031 C 30.105469 122.1875 30.65625 120.90625 30.957031 119.535156 Z M 19.5625 123.417969 C 15.832031 123.417969 12.804688 120.464844 12.804688 116.820312 C 12.804688 113.179688 15.832031 110.226562 19.5625 110.226562 C 23.296875 110.226562 26.324219 113.179688 26.324219 116.820312 C 26.324219 120.464844 23.296875 123.417969 19.5625 123.417969 Z M 19.5625 123.417969 "/>
<path style=" stroke:none;fill-rule:nonzero;fill:rgb(15.294118%,10.588235%,23.921569%);fill-opacity:1;" d="M 182.777344 24.164062 L 33.164062 24.164062 L 33.164062 34.363281 L 182.777344 34.363281 Z M 182.777344 24.164062 "/>
<path style=" stroke:none;fill-rule:nonzero;fill:rgb(100%,100%,100%);fill-opacity:1;" d="M 37.308594 30.75 C 38.214844 30.75 38.953125 30.03125 38.953125 29.144531 C 38.953125 28.257812 38.214844 27.539062 37.308594 27.539062 C 36.398438 27.539062 35.664062 28.257812 35.664062 29.144531 C 35.664062 30.03125 36.398438 30.75 37.308594 30.75 Z M 37.308594 30.75 "/>
<path style=" stroke:none;fill-rule:nonzero;fill:rgb(100%,100%,100%);fill-opacity:1;" d="M 43.269531 30.75 C 44.175781 30.75 44.914062 30.03125 44.914062 29.144531 C 44.914062 28.257812 44.175781 27.539062 43.269531 27.539062 C 42.359375 27.539062 41.625 28.257812 41.625 29.144531 C 41.625 30.03125 42.359375 30.75 43.269531 30.75 Z M 43.269531 30.75 "/>
<path style=" stroke:none;fill-rule:nonzero;fill:rgb(100%,100%,100%);fill-opacity:1;" d="M 49.234375 30.75 C 50.140625 30.75 50.878906 30.03125 50.878906 29.144531 C 50.878906 28.257812 50.140625 27.539062 49.234375 27.539062 C 48.324219 27.539062 47.589844 28.257812 47.589844 29.144531 C 47.589844 30.03125 48.324219 30.75 49.234375 30.75 Z M 49.234375 30.75 "/>
<path style=" stroke:none;fill-rule:nonzero;fill:rgb(74.509804%,62.745098%,94.901961%);fill-opacity:1;" d="M 33.265625 100.394531 L 33.265625 101.214844 C 33.265625 104.140625 35.769531 106.515625 38.863281 106.515625 L 177.277344 106.515625 C 180.371094 106.515625 182.878906 104.144531 182.878906 101.214844 L 182.878906 100.394531 Z M 33.265625 100.394531 "/>
<path style=" stroke:none;fill-rule:nonzero;fill:rgb(74.509804%,62.745098%,94.901961%);fill-opacity:1;" d="M 182.878906 20.398438 L 182.878906 19.582031 C 182.878906 16.65625 180.371094 14.28125 177.277344 14.28125 L 38.863281 14.28125 C 35.773438 14.28125 33.265625 16.652344 33.265625 19.582031 L 33.265625 20.398438 Z M 182.878906 20.398438 "/>
<path style=" stroke:none;fill-rule:nonzero;fill:rgb(74.509804%,62.745098%,94.901961%);fill-opacity:1;" d="M 211.210938 123.40625 C 211.210938 127.878906 207.53125 131.511719 202.96875 131.578125 L 167.679688 131.578125 C 163.054688 131.578125 159.304688 127.921875 159.304688 123.40625 C 159.304688 118.890625 163.054688 115.234375 167.679688 115.234375 L 202.984375 115.234375 C 207.542969 115.234375 211.214844 118.941406 211.214844 123.40625 Z M 211.210938 123.40625 "/>
<path style=" stroke:none;fill-rule:nonzero;fill:rgb(15.294118%,10.588235%,23.921569%);fill-opacity:1;" d="M 202.792969 129.21875 C 206.082031 129.21875 208.746094 126.617188 208.746094 123.40625 C 208.746094 120.195312 206.082031 117.597656 202.792969 117.597656 C 199.503906 117.597656 196.839844 120.195312 196.839844 123.40625 C 196.839844 126.617188 199.503906 129.21875 202.792969 129.21875 Z M 202.792969 129.21875 "/>
<path style=" stroke:none;fill-rule:nonzero;fill:rgb(74.509804%,62.745098%,94.901961%);fill-opacity:1;" d="M 116.382812 63.886719 L 96.636719 63.886719 L 96.636719 83.152344 L 116.382812 83.152344 Z M 116.382812 63.886719 "/>
<path style="fill:none;stroke-width:0.908286;stroke-linecap:butt;stroke-linejoin:miter;stroke:rgb(15.294118%,10.588235%,23.921569%);stroke-opacity:1;stroke-miterlimit:10;" d="M 98.346354 73.519531 L 108.755968 73.519531 " transform="matrix(1.028571,0,0,1,0,0)"/>
<path style="fill:none;stroke-width:0.908286;stroke-linecap:butt;stroke-linejoin:miter;stroke:rgb(15.294118%,10.588235%,23.921569%);stroke-opacity:1;stroke-miterlimit:10;" d="M 103.549262 68.296875 L 103.549262 78.742188 " transform="matrix(1.028571,0,0,1,0,0)"/>
<path style=" stroke:none;fill-rule:nonzero;fill:rgb(74.509804%,62.745098%,94.901961%);fill-opacity:1;" d="M 8.046875 98.058594 C 6.214844 98.058594 4.722656 96.625 4.695312 94.839844 L 4.695312 7.351562 C 4.695312 5.546875 6.195312 4.082031 8.046875 4.082031 C 9.898438 4.082031 11.398438 5.546875 11.398438 7.351562 L 11.398438 94.847656 C 11.398438 96.625 9.878906 98.058594 8.046875 98.058594 Z M 8.046875 98.058594 "/>
<path style=" stroke:none;fill-rule:nonzero;fill:rgb(15.294118%,10.588235%,23.921569%);fill-opacity:1;" d="M 11.398438 33.148438 L 11.398438 29.839844 L 4.695312 25.332031 L 4.695312 28.640625 Z M 11.398438 33.148438 "/>
<path style=" stroke:none;fill-rule:nonzero;fill:rgb(15.294118%,10.588235%,23.921569%);fill-opacity:1;" d="M 11.398438 39.578125 L 11.398438 36.269531 L 4.695312 31.757812 L 4.695312 35.070312 Z M 11.398438 39.578125 "/>
<path style=" stroke:none;fill-rule:nonzero;fill:rgb(15.294118%,10.588235%,23.921569%);fill-opacity:1;" d="M 11.398438 46.003906 L 11.398438 42.699219 L 4.695312 38.1875 L 4.695312 41.5 Z M 11.398438 46.003906 "/>
<path style=" stroke:none;fill-rule:nonzero;fill:rgb(15.294118%,10.588235%,23.921569%);fill-opacity:1;" d="M 11.398438 52.433594 L 11.398438 49.125 L 4.695312 44.617188 L 4.695312 47.929688 Z M 11.398438 52.433594 "/>
<path style=" stroke:none;fill-rule:nonzero;fill:rgb(15.294118%,10.588235%,23.921569%);fill-opacity:1;" d="M 11.398438 58.863281 L 11.398438 55.554688 L 4.695312 51.046875 L 4.695312 54.359375 Z M 11.398438 58.863281 "/>
<path style=" stroke:none;fill-rule:nonzero;fill:rgb(15.294118%,10.588235%,23.921569%);fill-opacity:1;" d="M 11.398438 65.292969 L 11.398438 61.984375 L 4.695312 57.476562 L 4.695312 60.785156 Z M 11.398438 65.292969 "/>
<path style=" stroke:none;fill-rule:nonzero;fill:rgb(15.294118%,10.588235%,23.921569%);fill-opacity:1;" d="M 11.398438 71.722656 L 11.398438 68.410156 L 4.695312 63.90625 L 4.695312 67.214844 Z M 11.398438 71.722656 "/>
<path style=" stroke:none;fill-rule:nonzero;fill:rgb(15.294118%,10.588235%,23.921569%);fill-opacity:1;" d="M 11.398438 78.152344 L 11.398438 74.839844 L 4.695312 70.335938 L 4.695312 73.644531 Z M 11.398438 78.152344 "/>
<path style=" stroke:none;fill-rule:nonzero;fill:rgb(15.294118%,10.588235%,23.921569%);fill-opacity:1;" d="M 11.398438 84.582031 L 11.398438 81.269531 L 4.695312 76.765625 L 4.695312 80.074219 Z M 11.398438 84.582031 "/>
<path style=" stroke:none;fill-rule:nonzero;fill:rgb(15.294118%,10.588235%,23.921569%);fill-opacity:1;" d="M 11.398438 91.011719 L 11.398438 87.699219 L 4.695312 83.191406 L 4.695312 86.503906 Z M 11.398438 91.011719 "/>
<path style=" stroke:none;fill-rule:nonzero;fill:rgb(15.294118%,10.588235%,23.921569%);fill-opacity:1;" d="M 4.695312 89.621094 L 4.695312 92.933594 L 10.609375 96.910156 C 11.101562 96.351562 11.398438 95.636719 11.398438 94.847656 L 11.398438 94.128906 Z M 4.695312 89.621094 "/>
</g>
</svg>
