<svg width="216" height="136" viewBox="0 0 216 136" fill="none" xmlns="http://www.w3.org/2000/svg">
<g id="Frame" clip-path="url(#clip0_4824_14060)">
<g id="Layer 1">
<path id="Vector" d="M173.664 111.245V103.441L167.168 102.594C166.577 99.886 165.506 97.3558 164.041 95.1043L168.027 89.9426L162.478 84.4298L157.282 88.3898C155.016 86.9274 152.473 85.8596 149.736 85.284L148.891 78.8301H141.035L140.183 85.284C137.457 85.8632 134.91 86.9274 132.644 88.3898L127.448 84.4298L121.899 89.9426L125.885 95.1043C124.413 97.3558 123.338 99.8823 122.759 102.594L116.262 103.441V111.245L122.759 112.092C123.342 114.799 124.413 117.329 125.885 119.581L121.899 124.743L127.448 130.255L132.644 126.295C134.91 127.758 137.454 128.826 140.183 129.401L141.035 135.855H148.891L149.744 129.401C152.469 128.822 155.016 127.758 157.282 126.295L162.478 130.255L168.027 124.743L164.041 119.581C165.513 117.329 166.588 114.803 167.168 112.092L173.664 111.245ZM144.967 115.454C140.121 115.454 136.189 111.549 136.189 106.734C136.189 101.92 140.121 98.0146 144.967 98.0146C149.813 98.0146 153.744 101.92 153.744 106.734C153.744 111.549 149.813 115.454 144.967 115.454Z" fill="#BEA0F2"/>
<path id="Vector_2" d="M0.149414 18.3374H109.004V62.7477C109.004 64.3476 107.699 65.6435 106.089 65.6435H3.06434C1.45385 65.6435 0.149414 64.3476 0.149414 62.7477V18.3374Z" fill="#BEA0F2"/>
<g id="Group">
<path id="Vector_3" d="M3.06434 0H106.089C107.699 0 109.004 1.29586 109.004 2.89577V18.3918H0.149414V2.89577C0.149414 1.29586 1.45385 0 3.06434 0Z" fill="#271B3D"/>
<path id="Vector_4" d="M7.4477 11.0327C8.57259 11.0327 9.4845 10.1268 9.4845 9.00926C9.4845 7.89176 8.57259 6.98584 7.4477 6.98584C6.3228 6.98584 5.41089 7.89176 5.41089 9.00926C5.41089 10.1268 6.3228 11.0327 7.4477 11.0327Z" fill="white"/>
<path id="Vector_5" d="M14.622 11.0327C15.7469 11.0327 16.6588 10.1268 16.6588 9.00926C16.6588 7.89176 15.7469 6.98584 14.622 6.98584C13.4971 6.98584 12.5852 7.89176 12.5852 9.00926C12.5852 10.1268 13.4971 11.0327 14.622 11.0327Z" fill="white"/>
<path id="Vector_6" d="M21.7963 11.0327C22.9212 11.0327 23.8331 10.1268 23.8331 9.00926C23.8331 7.89176 22.9212 6.98584 21.7963 6.98584C20.6714 6.98584 19.7595 7.89176 19.7595 9.00926C19.7595 10.1268 20.6714 11.0327 21.7963 11.0327Z" fill="white"/>
</g>
<path id="Vector_7" d="M97.1911 118.173L106.876 113.54L109.266 103.129L102.565 94.7822H91.8167L85.116 103.129L87.5062 113.54L97.1911 118.173Z" fill="#BEA0F2"/>
<g id="Group_2">
<g id="Group_3">
<path id="Vector_8" d="M191.351 0C176.259 0 162.194 30.9522 168.082 58.0277C172.065 76.3326 181.538 74.2512 181.538 88.9147H201.178C201.178 74.2512 210.651 76.3326 214.634 58.0277C220.518 30.9522 206.454 0 191.351 0Z" fill="#BEA0F2"/>
<path id="Vector_9" d="M179.855 88.3501V94.9706H182.73C182.73 99.5242 186.071 103.64 191.354 103.64C196.637 103.64 199.979 99.5278 199.979 94.9706H202.854V88.3501H179.855Z" fill="#271B3D"/>
</g>
<path id="Vector_10" d="M194.003 88.8639C194.003 80.5639 192.976 72.0467 191.354 64.2824C189.736 72.043 188.709 80.5639 188.709 88.8639H187.317C187.317 79.6517 189.008 70.2042 190.83 61.8065C190.298 59.3668 189.755 57.0104 189.241 54.7806C186.774 44.0988 184.825 35.6613 187.35 32.0886C188.21 30.8688 189.558 30.2534 191.358 30.2534C193.158 30.2534 194.506 30.8688 195.366 32.0886C197.891 35.6613 195.942 44.0952 193.479 54.7806C192.961 57.0104 192.422 59.3632 191.89 61.8065C193.712 70.2042 195.402 79.6517 195.402 88.8639H194.007H194.003ZM191.354 32.6135C189.868 32.6135 188.822 33.0696 188.159 34.0107C185.943 37.1417 187.835 44.1206 190.232 54.4983C190.596 56.0765 190.975 57.7162 191.354 59.403C191.733 57.7126 192.112 56.0765 192.477 54.4983C194.874 44.1169 196.765 37.1454 194.55 34.0107C193.887 33.0732 192.841 32.6135 191.354 32.6135Z" fill="#271B3D"/>
</g>
<g id="Group_4">
<path id="Vector_11" d="M4.43069 136L0 131.599L56.2436 77.7734L58.612 80.1263L4.43069 136Z" fill="#BEA0F2"/>
<path id="Vector_12" d="M45.8408 93.3817L58.6119 80.1263L56.2435 77.7734L42.9004 90.4605L45.8408 93.3817Z" fill="#271B3D"/>
</g>
<g id="Group_5">
<g id="Group_6">
<path id="Vector_13" d="M54.6658 40.2295H5.29785V43.8492H54.6658V40.2295Z" fill="#271B3D"/>
<path id="Vector_14" d="M36.269 50.0967H5.29785V53.7164H36.269V50.0967Z" fill="#271B3D"/>
</g>
<path id="Vector_15" d="M54.6658 30.3623H5.29785V33.982H54.6658V30.3623Z" fill="#271B3D"/>
</g>
</g>
<g id="Layer 4">
<g id="Group_7">
<path id="Vector_16" d="M61.986 65.5241C58.9108 68.5792 53.6311 68.9013 53.6311 70.1248C53.6311 71.3483 58.9108 71.6704 61.986 74.7255C65.0613 77.7805 65.3856 83.0255 66.6171 83.0255C67.8487 83.0255 68.173 77.7805 71.2482 74.7255C74.3235 71.6704 79.6031 71.3483 79.6031 70.1248C79.6031 68.9013 74.3235 68.5792 71.2482 65.5241C68.173 62.4691 67.8487 57.2241 66.6171 57.2241C65.3856 57.2241 65.0613 62.4691 61.986 65.5241Z" fill="#271B3D"/>
<g id="Group_8">
<path id="Vector_17" d="M81.2123 84.6206C82.8316 83.0119 83.3091 80.8782 82.2789 79.8548C81.2487 78.8313 79.1009 79.3057 77.4816 80.9144C75.8623 82.5231 75.3847 84.6568 76.4149 85.6802C77.4451 86.7037 79.593 86.2293 81.2123 84.6206Z" fill="#271B3D"/>
<path id="Vector_18" d="M86.4712 89.8473C87.5782 88.7475 87.9047 87.2888 87.2003 86.589C86.496 85.8893 85.0276 86.2136 83.9205 87.3134C82.8135 88.4131 82.487 89.8719 83.1914 90.5717C83.8957 91.2714 85.3642 90.9471 86.4712 89.8473Z" fill="#271B3D"/>
</g>
</g>
</g>
</g>
<defs>
<clipPath id="clip0_4824_14060">
<rect width="216" height="136" fill="white"/>
</clipPath>
</defs>
</svg>
