<svg width="210" height="136" viewBox="0 0 210 136" fill="none" xmlns="http://www.w3.org/2000/svg">
<rect width="209.78" height="136" transform="translate(0.110107)" fill="white"/>
<path d="M201.543 18.6301V15.1413L198.656 14.7634C198.395 13.551 197.918 12.4201 197.267 11.4142L199.037 9.10577L196.572 6.64038L194.264 8.41093C193.258 7.75678 192.127 7.27998 190.912 7.02123L190.537 4.13428H187.049L186.671 7.02123C185.459 7.27998 184.328 7.75678 183.322 8.41093L181.014 6.64038L178.549 9.10577L180.319 11.4142C179.665 12.4201 179.188 13.551 178.93 14.7634L176.043 15.1413V18.6301L178.93 19.0081C179.188 20.2204 179.665 21.3514 180.319 22.3573L178.549 24.6657L181.014 27.1311L183.322 25.3605C184.328 26.0147 185.459 26.4915 186.671 26.7502L187.049 29.6343H190.537L190.915 26.7502C192.127 26.4915 193.258 26.0147 194.264 25.3605L196.572 27.1311L199.037 24.6657L197.267 22.3573C197.921 21.3514 198.398 20.2204 198.656 19.0081L201.543 18.6301Z" fill="#BEA0F2"/>
<path d="M29.7446 4.134L29.7446 70.094H36.5446L36.5446 4.134H29.7446Z" fill="#271B3D"/>
<path d="M27.7215 53.1251C29.8873 53.1251 30.5333 51.5271 33.1411 51.5271C35.7489 51.5271 36.3949 53.1251 38.5607 53.1251C40.8795 53.1251 41.6411 51.1055 41.6411 48.6507C41.6411 46.1959 40.8795 44.1763 38.5607 44.1763C36.3949 44.1763 35.7489 45.7743 33.1411 45.7743C30.5333 45.7743 29.8873 44.1763 27.7215 44.1763C25.4027 44.1763 24.6411 46.1959 24.6411 48.6507C24.6411 51.1055 25.4027 53.1251 27.7215 53.1251Z" fill="#BEA0F2"/>
<path d="M106.87 102H66.0703V105.4H106.87V102Z" fill="#271B3D"/>
<path d="M122.85 108.8H66.0703V112.2H122.85V108.8Z" fill="#271B3D"/>
<path d="M123.928 123.42H66.1279V131.92H123.928V123.42Z" fill="#BEA0F2"/>
<path d="M98.0303 115.6H66.0703V119H98.0303V115.6Z" fill="#271B3D"/>
<path d="M205.868 80.3523V65.9363H181.691C181.691 65.9363 184.285 60.6391 184.285 54.7197C184.285 48.8003 180.46 42.8435 173.085 42.8435C165.711 42.8435 161.886 48.9907 161.886 54.7197C161.886 60.4487 164.48 65.9363 164.48 65.9363H146.803V75.0619V80.3523C137.994 75.3679 127.682 77.0543 127.682 87.4073C127.682 97.7603 137.994 99.4467 146.803 94.4623V108.878H164.48C164.48 108.878 161.886 114.176 161.886 120.095C161.886 126.014 165.711 131.971 173.085 131.971C180.46 131.971 184.285 125.824 184.285 120.095C184.285 114.366 181.691 108.878 181.691 108.878H205.868V94.4623C197.059 99.4467 186.746 97.7603 186.746 87.4073C186.746 77.0543 197.059 75.3679 205.868 80.3523Z" fill="#271B3D"/>
<path d="M61.9902 74.1199H4.19019V131.92H61.9902V74.1199Z" fill="#BEA0F2"/>
<path d="M22.4957 78.4377C27.7317 80.2737 29.0033 86.5161 29.0033 86.5161C29.0033 86.5161 31.7539 80.7361 40.1281 80.7565C36.2963 90.0521 31.5839 109.184 34.1407 116.14C36.7485 123.229 46.9315 120.316 46.7071 126.912H31.8763L27.9391 122.978L27.4291 122.985L28.0445 126.912H21.8837C20.3945 118.272 16.7123 98.4535 22.4923 78.4377H22.4957Z" fill="white"/>
<path d="M50.0901 4.134L50.0901 70.094H56.8901L56.8901 4.134H50.0901Z" fill="#271B3D"/>
<path d="M48.0706 31.171C50.2364 31.171 50.8824 29.573 53.4902 29.573C56.098 29.573 56.744 31.171 58.9098 31.171C61.2286 31.171 61.9902 29.1514 61.9902 26.6966C61.9902 24.2418 61.2286 22.2222 58.9098 22.2222C56.744 22.2222 56.098 23.8202 53.4902 23.8202C50.8824 23.8202 50.2364 22.2222 48.0706 22.2222C45.7518 22.2222 44.9902 24.2418 44.9902 26.6966C44.9902 29.1514 45.7518 31.171 48.0706 31.171Z" fill="#BEA0F2"/>
<path d="M86.5822 43.1796C97.3794 43.1796 106.132 34.4268 106.132 23.6296C106.132 12.8324 97.3794 4.07959 86.5822 4.07959C75.7851 4.07959 67.0322 12.8324 67.0322 23.6296C67.0322 34.4268 75.7851 43.1796 86.5822 43.1796Z" fill="#271B3D"/>
<path d="M86.5821 43.1795C91.9677 43.1795 96.8399 41.0035 100.376 37.4811C98.6011 30.5757 93.0999 25.5403 86.5821 25.5403C80.0643 25.5403 74.5631 30.5757 72.7883 37.4811C76.3243 41.0035 81.1999 43.1795 86.5821 43.1795Z" fill="#BEA0F2"/>
<path d="M86.5822 23.2895C90.4636 23.2895 93.61 20.143 93.61 16.2617C93.61 12.3803 90.4636 9.23389 86.5822 9.23389C82.7009 9.23389 79.5544 12.3803 79.5544 16.2617C79.5544 20.143 82.7009 23.2895 86.5822 23.2895Z" fill="#BEA0F2"/>
<path d="M25.1306 84.5918C31.8864 94.5708 31.0772 113.257 26.2526 113.444C20.7276 113.658 23.6482 93.3604 34.4432 87.1588" stroke="#261B3C" stroke-width="0.34" stroke-miterlimit="10"/>
<path d="M9.39551 4.134L9.39551 70.094H16.1955L16.1955 4.134H9.39551Z" fill="#271B3D"/>
<path d="M7.37605 40.9935C9.54185 40.9935 10.1879 39.3955 12.7957 39.3955C15.4035 39.3955 16.0495 40.9935 18.2153 40.9935C20.5341 40.9935 21.2957 38.9739 21.2957 36.5191C21.2957 34.0643 20.5341 32.0447 18.2153 32.0447C16.0495 32.0447 15.4035 33.6427 12.7957 33.6427C10.1879 33.6427 9.54185 32.0447 7.37605 32.0447C5.05725 32.0447 4.29565 34.0643 4.29565 36.5191C4.29565 38.9739 5.05725 40.9935 7.37605 40.9935Z" fill="#BEA0F2"/>
<path d="M23.1044 80.835C19.1298 105.07 21.4316 117.246 23.5226 125.27" stroke="#271B3D" stroke-width="0.34" stroke-miterlimit="10"/>
<path d="M31.5839 106.978C31.5839 106.978 29.2821 116.909 37.1395 122.183" stroke="#271B3D" stroke-width="0.34" stroke-miterlimit="10"/>
<path d="M205.279 30.6477C197.136 37.9611 177.685 36.7269 172.15 24.1401" stroke="#271B3D" stroke-width="0.34" stroke-miterlimit="10"/>
<path d="M135.1 37.7569L151.532 43.3195L166.455 33.8304L168.634 16.4275L156.426 4.21948L139.027 6.39864L129.534 21.3222L135.1 37.7569Z" fill="#BEA0F2"/>
<path d="M157.736 15.1218L139.897 32.9565" stroke="#271B3D" stroke-width="0.34" stroke-miterlimit="10"/>
<path d="M112.65 65.96H66.7502V74.12H112.65V65.96Z" fill="#271B3D"/>
<path d="M112.65 74.1199H66.7502V94.8599H112.65V74.1199Z" fill="#BEA0F2"/>
<path d="M72.0985 71.5494C72.9848 71.5494 73.7033 70.831 73.7033 69.9446C73.7033 69.0583 72.9848 68.3398 72.0985 68.3398C71.2121 68.3398 70.4937 69.0583 70.4937 69.9446C70.4937 70.831 71.2121 71.5494 72.0985 71.5494Z" fill="white"/>
<path d="M77.8272 71.5494C78.7135 71.5494 79.432 70.831 79.432 69.9446C79.432 69.0583 78.7135 68.3398 77.8272 68.3398C76.9409 68.3398 76.2224 69.0583 76.2224 69.9446C76.2224 70.831 76.9409 71.5494 77.8272 71.5494Z" fill="white"/>
<path d="M67.0901 57.12C67.0901 55.2609 68.5249 53.7482 70.3099 53.72H138.34C140.146 53.72 141.611 55.2433 141.611 57.12C141.611 58.9967 140.146 60.52 138.34 60.52H70.3031C68.5249 60.52 67.0901 58.979 67.0901 57.12Z" fill="#BEA0F2"/>
<path d="M70.3031 60.52H120.361V53.72H70.3099C68.5283 53.7482 67.0901 55.2609 67.0901 57.12C67.0901 58.979 68.5215 60.52 70.3031 60.52Z" fill="#271B3D"/>
<path d="M188.95 21.0189C191.468 21.0189 193.509 18.9776 193.509 16.4595C193.509 13.9415 191.468 11.9001 188.95 11.9001C186.431 11.9001 184.39 13.9415 184.39 16.4595C184.39 18.9776 186.431 21.0189 188.95 21.0189Z" fill="white"/>
</svg>
