<svg width="210" height="136" viewBox="0 0 210 136" fill="none" xmlns="http://www.w3.org/2000/svg">
<g id="Layout" clip-path="url(#clip0_4824_27305)">
<rect width="209" height="136" transform="translate(0.5)" fill="white"/>
<path id="Vector" d="M209.47 131.58H205.405V135.661H209.47V131.58Z" fill="white"/>
<path id="Vector_2" d="M195.273 14.28V48.28H198.661V14.28H195.273Z" fill="#BEA0F2"/>
<path id="Vector_3" d="M202.048 4.08003V48.28H205.435V4.08003H202.048Z" fill="#BEA0F2"/>
<path id="Vector_4" d="M188.498 24.14V48.28H191.886V24.14H188.498Z" fill="#BEA0F2"/>
<path id="Vector_5" d="M86.0894 128.68L94.2783 106.08H115.383L123.572 128.68H139.382V131.92H104.831H70.2795V128.68H86.0894Z" fill="#BEA0F2"/>
<g id="Group">
<path id="Vector_6" d="M89.828 38.1243H32.2429V95.9243H89.828V38.1243Z" fill="#BEA0F2"/>
<g id="Group_2">
<g id="Group_3">
<path id="Vector_7" d="M46.6493 67.8674L39.8238 70.3426C37.3137 71.2538 37.0732 72.8654 37.7202 73.9636C38.5027 75.2862 40.3691 75.1604 42.4083 73.7936C44.3086 72.5186 47.2217 70.4786 48.1668 69.7952L46.6493 67.8674Z" fill="#271B3D"/>
<path id="Vector_8" d="M75.4182 67.8674C75.4182 67.8674 81.1089 69.9312 82.2437 70.3426C84.7537 71.2538 84.9942 72.8654 84.3472 73.9636C83.5648 75.2862 81.6983 75.1604 79.6591 73.7936C77.7588 72.5186 74.8457 70.4786 73.9006 69.7952L75.4182 67.8674Z" fill="#271B3D"/>
</g>
<path id="Vector_9" d="M45.1353 61.8055L53.5122 73.0221L53.8611 72.8249L51.6187 60.0681L45.1353 61.8055Z" fill="white"/>
<g id="Group_4">
<g id="Group_5">
<path id="Vector_10" d="M50.6363 72.76C46.9203 72.76 44.4272 69.462 44.4272 66.1538C44.4272 62.5396 47.6723 61.1218 50.7006 61.1218C53.7289 61.1218 57.1603 62.7096 57.1603 65.9226C57.1603 69.6082 54.464 72.76 50.6363 72.76Z" fill="#BEA0F2"/>
<path id="Vector_11" d="M52.7738 72.4064C53.0109 72.3248 53.2379 72.2296 53.458 72.1208L51.5306 61.1626C51.2529 61.1354 50.9751 61.1218 50.7007 61.1218C48.8411 61.1218 46.9001 61.659 45.6807 62.9068L52.7738 72.4064Z" fill="white"/>
</g>
<g id="Group_6">
<g id="Group_7">
<path id="Vector_12" d="M64.9072 65.9226C64.9072 62.7096 68.3386 61.1218 71.3669 61.1218C74.3952 61.1218 77.6403 62.5396 77.6403 66.1538C77.6403 69.4654 75.1438 72.76 71.4313 72.76C67.6036 72.76 64.9072 69.6082 64.9072 65.9226Z" fill="#BEA0F2"/>
<path id="Vector_13" d="M69.2939 72.4064C69.0567 72.3248 68.8298 72.2296 68.6096 72.1208L70.537 61.1626C70.8148 61.1354 71.0926 61.1218 71.3669 61.1218C73.2266 61.1218 75.1675 61.659 76.387 62.9068L69.2939 72.4064Z" fill="white"/>
</g>
<path id="Vector_14" d="M71.4957 59.1567C64.7345 59.1567 62.8681 64.0799 61.0321 64.0799C59.1962 64.0799 57.3331 59.1567 50.5686 59.1567C46.287 59.1567 41.8123 61.9209 39.4885 63.0429V66.4123H41.985C42.3305 68.5713 44.0682 74.8035 50.6329 74.8035C57.97 74.8035 58.1325 67.3031 61.0287 67.3031C63.9249 67.3031 64.0909 74.8035 71.4245 74.8035C77.9892 74.8035 79.727 68.5713 80.0725 66.4123H82.5689V63.0429C80.2452 61.9209 75.7705 59.1567 71.4889 59.1567H71.4957ZM50.6363 72.7601C46.9204 72.7601 44.4273 69.4621 44.4273 66.1539C44.4273 62.5397 47.6724 61.1219 50.7007 61.1219C53.729 61.1219 57.1604 62.7097 57.1604 65.9227C57.1604 69.6083 54.464 72.7601 50.6363 72.7601ZM71.4313 72.7601C67.6036 72.7601 64.9073 69.6083 64.9073 65.9227C64.9073 62.7097 68.3387 61.1219 71.367 61.1219C74.3953 61.1219 77.6403 62.5397 77.6403 66.1539C77.6403 69.4655 75.1439 72.7601 71.4313 72.7601Z" fill="#271B3D"/>
</g>
</g>
</g>
</g>
<g id="Group_8">
<path id="Vector_15" d="M151.539 44.9617H93.9539V48.3625H151.539V44.9617Z" fill="#271B3D"/>
<path id="Vector_16" d="M122.746 51.6121H93.9539V55.0128H122.746V51.6121Z" fill="#271B3D"/>
<path id="Vector_17" d="M151.539 38.1616H93.9539V41.5624H151.539V38.1616Z" fill="#271B3D"/>
</g>
<path id="Vector_18" d="M154.879 71.5225V80.8623H170.484C170.484 80.8623 168.808 84.2929 168.808 88.1315C168.808 91.9701 171.277 95.8257 176.036 95.8257C180.796 95.8257 183.265 91.8409 183.265 88.1315C183.265 84.4221 181.588 80.8623 181.588 80.8623H192.997V74.9497V71.5225C198.684 74.7525 205.34 73.6577 205.34 66.9529C205.34 60.2481 198.684 59.1533 192.997 62.3833V53.0435H181.588C181.588 53.0435 183.265 49.6129 183.265 45.7743C183.265 41.9357 180.796 38.0801 176.036 38.0801C171.277 38.0801 168.808 42.0649 168.808 45.7743C168.808 49.4837 170.484 53.0435 170.484 53.0435H154.879V62.3833C160.566 59.1533 167.222 60.2481 167.222 66.9529C167.222 73.6577 160.566 74.7525 154.879 71.5225Z" fill="#271B3D"/>
<path id="Vector_19" d="M151.539 87.3799H93.9539V95.8799H151.539V87.3799Z" fill="#BEA0F2"/>
<path id="Vector_20" d="M33.3572 119.107V115.153L30.0974 114.725C29.8049 113.352 29.2692 112.072 28.5291 110.929L30.5308 108.311L27.7467 105.517L25.1389 107.526C24.0005 106.783 22.7248 106.246 21.3574 105.952L20.931 102.68H16.991L16.5645 105.952C15.1971 106.246 13.9214 106.783 12.7831 107.526L10.1752 105.517L7.39109 108.311L9.39282 110.929C8.65275 112.072 8.11707 113.352 7.82456 114.725L4.5647 115.153V119.107L7.82456 119.535C8.12059 120.908 8.65979 122.188 9.39282 123.331L7.39109 125.948L10.1752 128.743L12.7831 126.734C13.9214 127.477 15.1971 128.014 16.5681 128.308L16.991 131.58H20.931L21.3574 128.308C22.7248 128.014 24.0005 127.477 25.1389 126.734L27.7467 128.743L30.5308 125.948L28.5291 123.331C29.2692 122.188 29.8049 120.908 30.0974 119.535L33.3572 119.107ZM19.0209 123.419C15.391 123.419 12.4483 120.466 12.4483 116.822C12.4483 113.179 15.391 110.225 19.0209 110.225C22.6508 110.225 25.5935 113.179 25.5935 116.822C25.5935 120.466 22.6508 123.419 19.0209 123.419Z" fill="#271B3D"/>
<g id="Group_9">
<path id="Vector_21" d="M177.699 24.1638H32.2429V34.3638H177.699V24.1638Z" fill="#271B3D"/>
<g id="Group_10">
<path id="Vector_22" d="M36.2705 30.7504C37.1535 30.7504 37.8693 30.0317 37.8693 29.1452C37.8693 28.2587 37.1535 27.54 36.2705 27.54C35.3875 27.54 34.6716 28.2587 34.6716 29.1452C34.6716 30.0317 35.3875 30.7504 36.2705 30.7504Z" fill="white"/>
<path id="Vector_23" d="M42.0661 30.7504C42.9491 30.7504 43.665 30.0317 43.665 29.1452C43.665 28.2587 42.9491 27.54 42.0661 27.54C41.1831 27.54 40.4673 28.2587 40.4673 29.1452C40.4673 30.0317 41.1831 30.7504 42.0661 30.7504Z" fill="white"/>
<path id="Vector_24" d="M47.8654 30.7504C48.7484 30.7504 49.4643 30.0317 49.4643 29.1452C49.4643 28.2587 48.7484 27.54 47.8654 27.54C46.9824 27.54 46.2666 28.2587 46.2666 29.1452C46.2666 30.0317 46.9824 30.7504 47.8654 30.7504Z" fill="white"/>
</g>
</g>
<path id="Vector_25" d="M32.3411 100.395V101.213C32.3411 104.14 34.7766 106.515 37.7845 106.515H172.354C175.359 106.515 177.798 104.143 177.798 101.213V100.395H32.3411Z" fill="#BEA0F2"/>
<path id="Vector_26" d="M177.798 20.4V19.5818C177.798 16.6554 175.362 14.28 172.354 14.28H37.7845C34.78 14.28 32.3411 16.6521 32.3411 19.5818V20.4H177.798Z" fill="#BEA0F2"/>
<g id="Group_11">
<path id="Vector_27" d="M205.344 123.407C205.344 127.878 201.767 131.512 197.329 131.58H163.022C158.524 131.58 154.879 127.922 154.879 123.407C154.879 118.891 158.524 115.233 163.022 115.233H197.346C201.777 115.233 205.347 118.942 205.347 123.407H205.344Z" fill="#BEA0F2"/>
<path id="Vector_28" d="M197.16 129.217C200.357 129.217 202.949 126.616 202.949 123.407C202.949 120.197 200.357 117.596 197.16 117.596C193.963 117.596 191.371 120.197 191.371 123.407C191.371 126.616 193.963 129.217 197.16 129.217Z" fill="#271B3D"/>
</g>
<g id="Group_12">
<path id="Vector_29" d="M113.15 63.886H93.9539V83.1538H113.15V63.886Z" fill="#BEA0F2"/>
<g id="Group_13">
<path id="Vector_30" d="M98.3474 73.5183H108.757" stroke="#271B3D" stroke-width="0.908286" stroke-miterlimit="10"/>
<path id="Vector_31" d="M103.55 68.2959V78.7441" stroke="#271B3D" stroke-width="0.908286" stroke-miterlimit="10"/>
</g>
</g>
<g id="Group 1000005542">
<g id="Group_14">
<path id="Vector_32" d="M7.82334 98.0595C6.04159 98.0595 4.5918 96.6247 4.5647 94.8397V7.35088C4.5647 5.54548 6.02465 4.08008 7.82334 4.08008C9.62202 4.08008 11.082 5.54548 11.082 7.35088V94.8465C11.082 96.6247 9.60509 98.0595 7.82334 98.0595Z" fill="#BEA0F2"/>
<path id="Vector_33" d="M11.082 33.1501V29.8385L4.5647 25.3301V28.6417L11.082 33.1501Z" fill="#271B3D"/>
<path id="Vector_34" d="M11.082 39.5795V36.2679L4.5647 31.7595V35.0711L11.082 39.5795Z" fill="#271B3D"/>
<path id="Vector_35" d="M11.082 46.0056V42.6974L4.5647 38.189V41.5006L11.082 46.0056Z" fill="#271B3D"/>
<path id="Vector_36" d="M11.082 52.4348V49.1266L4.5647 44.6182V47.9298L11.082 52.4348Z" fill="#271B3D"/>
<path id="Vector_37" d="M11.082 58.8642V55.556L4.5647 51.0476V54.3592L11.082 58.8642Z" fill="#271B3D"/>
<path id="Vector_38" d="M11.082 65.2936V61.9854L4.5647 57.4771V60.7852L11.082 65.2936Z" fill="#271B3D"/>
<path id="Vector_39" d="M11.082 71.7231V68.4115L4.5647 63.9065V67.2147L11.082 71.7231Z" fill="#271B3D"/>
<path id="Vector_40" d="M11.082 78.1525V74.8409L4.5647 70.3359V73.6441L11.082 78.1525Z" fill="#271B3D"/>
<path id="Vector_41" d="M11.082 84.582V81.2704L4.5647 76.7654V80.0736L11.082 84.582Z" fill="#271B3D"/>
<path id="Vector_42" d="M11.082 91.0112V87.6996L4.5647 83.1912V86.5028L11.082 91.0112Z" fill="#271B3D"/>
<path id="Vector_43" d="M4.5647 89.6206V92.9322L10.3164 96.9102C10.794 96.3526 11.082 95.6352 11.082 94.8464V94.129L4.5647 89.6206Z" fill="#271B3D"/>
</g>
</g>
</g>
<defs>
<clipPath id="clip0_4824_27305">
<rect width="209" height="136" fill="white" transform="translate(0.5)"/>
</clipPath>
</defs>
</svg>
