<svg width="160" height="90" viewBox="0 0 160 90" fill="none" xmlns="http://www.w3.org/2000/svg">
<g id="Layer_4" clip-path="url(#clip0_3551_284196)">
<g id="Group">
<g id="Group_2">
<path id="Vector" d="M159.06 0.919983H101.92V58.06H159.06V0.919983Z" stroke="#271B3D" stroke-width="0.5" stroke-miterlimit="10"/>
<path id="Vector_2" d="M159.08 0H159.01C158.519 0 158.12 0.398467 158.12 0.89V0.96C158.12 1.45153 158.519 1.85 159.01 1.85H159.08C159.572 1.85 159.97 1.45153 159.97 0.96V0.89C159.97 0.398467 159.572 0 159.08 0Z" fill="#271B3D"/>
<path id="Vector_3" d="M101.98 0H101.91C101.418 0 101.02 0.398467 101.02 0.89V0.96C101.02 1.45153 101.418 1.85 101.91 1.85H101.98C102.472 1.85 102.87 1.45153 102.87 0.96V0.89C102.87 0.398467 102.472 0 101.98 0Z" fill="#271B3D"/>
<path id="Vector_4" d="M159.14 57.12H158.95C158.492 57.12 158.12 57.4916 158.12 57.95V58.14C158.12 58.5984 158.492 58.97 158.95 58.97H159.14C159.599 58.97 159.97 58.5984 159.97 58.14V57.95C159.97 57.4916 159.599 57.12 159.14 57.12Z" fill="#271B3D"/>
<path id="Vector_5" d="M101.98 57.12H101.91C101.418 57.12 101.02 57.5185 101.02 58.01V58.08C101.02 58.5715 101.418 58.97 101.91 58.97H101.98C102.472 58.97 102.87 58.5715 102.87 58.08V58.01C102.87 57.5185 102.472 57.12 101.98 57.12Z" fill="#271B3D"/>
</g>
<path id="Vector_6" d="M122.91 3.53998C119.57 3.53998 116.65 8.63998 115.06 16.25C114.07 8.63998 112.27 3.53998 110.2 3.53998C107.08 3.53998 104.55 15.16 104.55 29.48C104.55 43.8 107.08 55.42 110.2 55.42C112.27 55.42 114.08 50.32 115.06 42.71C116.65 50.32 119.57 55.42 122.91 55.42C125.93 55.42 128.61 51.24 130.27 44.81C132.91 51.24 137.16 55.42 141.95 55.42C149.95 55.42 156.43 43.8 156.43 29.48C156.43 15.16 149.95 3.53998 141.95 3.53998C137.15 3.53998 132.9 7.71998 130.27 14.15C128.61 7.71998 125.93 3.53998 122.91 3.53998Z" fill="#BEA0F2"/>
</g>
<path id="Vector_7" d="M88.68 0H0V12.91H88.68V0Z" fill="#DCDCDE"/>
<path id="Vector_8" d="M52.96 21.63H0V34.54H52.96V21.63Z" fill="#DCDCDE"/>
<g id="Group_3">
<path id="Vector_9" d="M128.05 88.71V87.75C130.27 87.48 130.55 87.13 130.07 85.84C129.63 84.51 128.94 82.8 128.22 80.64H120.83C120.28 82.18 119.77 83.51 119.29 84.91C118.54 87.13 119.02 87.41 121.82 87.75V88.71H113.92V87.75C116.07 87.48 116.62 87.24 117.82 84.16L124.9 66.21L125.99 66C128.14 71.85 130.5 78.31 132.66 84.22C133.75 87.19 134.06 87.47 136.49 87.74V88.7H128.05V88.71ZM124.63 70.49C123.54 73.43 122.37 76.54 121.35 79.24H127.74L124.63 70.49Z" fill="#271B3D"/>
<path id="Vector_10" d="M149.18 89.12C148.67 89.12 147.91 88.85 147.57 88.47C147.13 88.03 146.92 87.55 146.75 86.93C145.38 87.85 143.71 89.12 142.65 89.12C140.22 89.12 138.48 87.1 138.48 84.91C138.48 83.23 139.4 82.14 141.28 81.49C143.37 80.77 145.93 79.88 146.68 79.27V78.59C146.68 76.16 145.45 74.76 143.67 74.76C142.88 74.76 142.4 75.14 142.06 75.55C141.68 76.03 141.44 76.78 141.14 77.77C140.97 78.32 140.66 78.56 140.15 78.56C139.5 78.56 138.65 77.88 138.65 77.06C138.65 76.58 139.09 76.17 139.78 75.69C140.77 74.97 142.75 73.71 144.7 73.3C145.73 73.3 146.79 73.61 147.57 74.22C148.77 75.25 149.31 76.41 149.31 78.19V84.79C149.31 86.36 149.89 86.84 150.51 86.84C150.92 86.84 151.36 86.67 151.74 86.46L152.08 87.42L149.17 89.13L149.18 89.12ZM146.68 80.47C145.93 80.85 144.29 81.56 143.5 81.91C142.2 82.49 141.41 83.14 141.41 84.41C141.41 86.22 142.78 87.04 143.87 87.04C144.76 87.04 145.99 86.49 146.67 85.81V80.48L146.68 80.47Z" fill="#271B3D"/>
</g>
<g id="Group_4">
<g id="Group_5">
<path id="Vector_11" d="M3.34 89.12L0 85.77L42.4 44.93L44.19 46.72L3.34 89.12Z" fill="#BEA0F2"/>
<path id="Vector_12" d="M34.5601 56.77L44.1901 46.72L42.4001 44.93L32.3401 54.56L34.5601 56.77Z" fill="#271B3D"/>
</g>
<g id="Group_6">
<path id="Vector_13" d="M57.91 35.71C57.91 32.43 60.55 29.44 59.89 28.79C59.23 28.13 56.25 30.77 52.97 30.77C49.69 30.77 46.7 28.13 46.05 28.79C45.4 29.45 48.03 32.43 48.03 35.71C48.03 38.99 45.39 41.98 46.05 42.63C46.71 43.29 49.69 40.65 52.97 40.65C56.25 40.65 59.24 43.29 59.89 42.63C60.54 41.97 57.91 38.99 57.91 35.71Z" fill="#271B3D"/>
<g id="Group_7">
<path id="Vector_14" d="M66.0295 48.7586C67.3417 47.4464 67.7279 45.7052 66.8922 44.8695C66.0564 44.0338 64.3152 44.42 63.0031 45.7322C61.6909 47.0443 61.3047 48.7855 62.1404 49.6212C62.9761 50.457 64.7173 50.0707 66.0295 48.7586Z" fill="#271B3D"/>
<path id="Vector_15" d="M70.6859 53.4353C71.5451 52.5762 71.7983 51.4365 71.2516 50.8897C70.7049 50.343 69.5652 50.5963 68.706 51.4554C67.8469 52.3146 67.5936 53.4543 68.1403 54.001C68.6871 54.5477 69.8268 54.2945 70.6859 53.4353Z" fill="#271B3D"/>
<path id="Vector_16" d="M74.4677 57.1995C75.0886 56.5786 75.2722 55.7555 74.8778 55.361C74.4834 54.9666 73.6603 55.1502 73.0393 55.7711C72.4184 56.3921 72.2348 57.2152 72.6292 57.6096C73.0236 58.0041 73.8468 57.8204 74.4677 57.1995Z" fill="#271B3D"/>
</g>
</g>
</g>
<g id="Group_8">
<path id="Vector_17" d="M39.3001 89.11C43.0004 89.11 46.0001 86.1103 46.0001 82.41C46.0001 78.7097 43.0004 75.71 39.3001 75.71C35.5998 75.71 32.6001 78.7097 32.6001 82.41C32.6001 86.1103 35.5998 89.11 39.3001 89.11Z" fill="#DCDCDE"/>
<path id="Vector_18" d="M60.6402 89.11C64.3405 89.11 67.3402 86.1103 67.3402 82.41C67.3402 78.7097 64.3405 75.71 60.6402 75.71C56.9399 75.71 53.9402 78.7097 53.9402 82.41C53.9402 86.1103 56.9399 89.11 60.6402 89.11Z" fill="#DFD1FB"/>
<path id="Vector_19" d="M81.98 89.11C85.6803 89.11 88.68 86.1103 88.68 82.41C88.68 78.7097 85.6803 75.71 81.98 75.71C78.2797 75.71 75.28 78.7097 75.28 82.41C75.28 86.1103 78.2797 89.11 81.98 89.11Z" fill="#BEA0F2"/>
</g>
<path id="Vector_20" d="M13.0201 43.23H0.0700684V56.18H13.0201V43.23Z" fill="#DCDCDE"/>
</g>
<defs>
<clipPath id="clip0_3551_284196">
<rect width="159.97" height="89.12" fill="white"/>
</clipPath>
</defs>
</svg>
