<svg width="278" height="248" viewBox="0 0 278 248" fill="none" xmlns="http://www.w3.org/2000/svg">
<g clip-path="url(#clip0_1098_21376)">
<path d="M346.028 92.5025C367.308 73.0208 353.409 28.7225 314.997 -6.44322C276.576 -41.6172 228.188 -54.3337 206.908 -34.8602C193.52 -22.604 194.059 -0.508283 205.875 22.9438C146.192 -15.2059 83.1954 -24.7001 52.1281 3.73331C21.0698 32.1667 31.4405 89.8392 73.112 144.487C47.486 133.669 23.3595 133.167 9.97181 145.432C-11.3084 164.914 2.59108 209.212 41.0032 244.378C79.4153 279.543 127.812 292.268 149.083 272.786C162.471 260.53 161.932 238.435 150.116 214.983C209.799 253.132 272.796 262.626 303.863 234.185C334.921 205.751 324.55 148.079 282.879 93.4314C308.505 104.249 332.632 104.742 346.019 92.4861L346.028 92.5025Z" fill="#DFD1FB" fill-opacity="0.3"/>
<path d="M250.456 139H205.082V149.044H250.456V139Z" fill="#271B3D"/>
<path d="M250.456 149.044H205.082V165.783H250.456V149.044Z" fill="#BEA0F2"/>
<path d="M243.469 142.348L246.817 145.696" stroke="white" stroke-width="0.568" stroke-miterlimit="10"/>
<path d="M246.817 142.348L243.469 145.696" stroke="white" stroke-width="0.568" stroke-miterlimit="10"/>
<path d="M216.974 225.041H250.453V208.301H216.974V225.041Z" fill="#BEA0F2"/>
<path d="M141.998 225.041H175.477V208.301H141.998V225.041Z" fill="#BEA0F2"/>
<path d="M179.488 225.041H212.967V208.301H179.488V225.041Z" fill="#BEA0F2"/>
<path d="M196.217 204.706H229.696V187.966H196.217V204.706Z" fill="#BEA0F2"/>
<path d="M233.713 204.706H250.453V187.966H233.713V204.706Z" fill="#BEA0F2"/>
<path d="M158.955 200.313C169.504 204.28 175.497 197.605 175.497 197.605L148.382 187.407L174.767 175.445C174.767 175.445 168.349 169.178 158.081 173.835C154.188 175.599 147.063 180.166 140.632 184.494L128.399 179.894C128.938 176.309 126.926 172.703 123.4 171.377C119.349 169.854 114.813 171.91 113.29 175.964C111.767 180.015 113.822 184.551 117.876 186.075C121.479 187.431 125.456 185.951 127.368 182.76C128.657 183.557 131.82 185.495 135.737 187.829C131.988 190.41 128.961 192.553 127.723 193.437C125.607 190.38 121.532 189.168 118.03 190.758C114.087 192.546 112.336 197.206 114.123 201.15C115.911 205.094 120.575 206.845 124.515 205.057C127.947 203.5 129.718 199.768 128.941 196.229L140.843 190.832C147.549 194.726 154.958 198.813 158.958 200.317L158.955 200.313ZM119.259 182.389C117.24 181.629 116.213 179.365 116.972 177.347C117.732 175.325 119.996 174.3 122.014 175.06C124.033 175.82 125.061 178.083 124.301 180.102C123.541 182.121 121.278 183.149 119.259 182.389ZM122.888 201.468C120.923 202.359 118.596 201.485 117.706 199.52C116.815 197.555 117.689 195.228 119.654 194.337C121.619 193.447 123.946 194.321 124.837 196.286C125.727 198.251 124.853 200.578 122.888 201.468Z" fill="#271B3D"/>
<path d="M201.242 178.043H208.704" stroke="#271B3D" stroke-width="0.8" stroke-miterlimit="10"/>
<path d="M211.895 178.043H219.354" stroke="#271B3D" stroke-width="0.8" stroke-miterlimit="10"/>
<path d="M222.544 178.043H230.007" stroke="#271B3D" stroke-width="0.8" stroke-miterlimit="10"/>
<path d="M233.197 178.043H240.656" stroke="#271B3D" stroke-width="0.8" stroke-miterlimit="10"/>
<path d="M243.054 178.043H250.516" stroke="#271B3D" stroke-width="0.8" stroke-miterlimit="10"/>
<path d="M190.592 178.043H198.051" stroke="#271B3D" stroke-width="0.8" stroke-miterlimit="10"/>
<path d="M179.939 178.043H187.398" stroke="#271B3D" stroke-width="0.8" stroke-miterlimit="10"/>
<path d="M138.702 147.349C138.702 146.543 138.314 145.8 137.658 145.189L132.713 147.37L137.631 149.537C138.301 148.922 138.702 148.166 138.702 147.349Z" fill="#271B3D"/>
<path d="M137.658 145.189C138.31 145.801 138.702 146.543 138.702 147.35C138.702 148.166 138.304 148.919 137.631 149.537L150.962 155.736H155.391V139H150.962L137.658 145.189Z" fill="#BEA0F2"/>
<path d="M151.039 139C149.643 139.759 148.565 140.354 148.565 142.078C148.565 143.23 149.154 144.201 150.199 144.719C149.161 145.243 148.572 146.224 148.565 147.37C148.572 148.512 149.158 149.493 150.199 150.021C149.154 150.538 148.565 151.509 148.565 152.662C148.565 154.385 149.643 154.98 151.039 155.739H195.763L198.663 151.086V143.654L195.763 139H151.039Z" fill="#271B3D"/>
<path d="M195.766 155.739L198.665 151.088V143.655L195.766 139H187.728L184.829 143.655V151.088L187.728 155.739H195.766Z" fill="#BEA0F2"/>
<path d="M191.745 150.396C192.864 150.396 193.771 149.028 193.771 147.34C193.771 145.652 192.864 144.283 191.745 144.283C190.627 144.283 189.72 145.652 189.72 147.34C189.72 149.028 190.627 150.396 191.745 150.396Z" fill="#271B3D"/>
<path d="M52 147.591H129.932" stroke="#271B3D" stroke-width="0.8" stroke-miterlimit="10"/>
</g>
<defs>
<clipPath id="clip0_1098_21376">
<rect width="278" height="248" rx="4" fill="white"/>
</clipPath>
</defs>
</svg>
