<svg width="216" height="136" viewBox="0 0 216 136" fill="none" xmlns="http://www.w3.org/2000/svg">
<g id="Layer_1" clip-path="url(#clip0_4824_30258)">
<g id="Group">
<path id="Vector" d="M20.9525 135.993C32.5242 135.993 41.905 126.674 41.905 115.178C41.905 103.682 32.5242 94.3627 20.9525 94.3627C9.38074 94.3627 0 103.682 0 115.178C0 126.674 9.38074 135.993 20.9525 135.993Z" fill="#271B3D"/>
<path id="Vector_2" d="M20.9525 135.993C26.7245 135.993 31.9462 133.676 35.7359 129.926C33.8337 122.573 27.9379 117.212 20.9525 117.212C13.9672 117.212 8.07131 122.573 6.16919 129.926C9.95885 133.676 15.1842 135.993 20.9525 135.993Z" fill="#BEA0F2"/>
<path id="Vector_3" d="M20.9524 114.816C25.1122 114.816 28.4843 111.466 28.4843 107.333C28.4843 103.201 25.1122 99.8506 20.9524 99.8506C16.7926 99.8506 13.4204 103.201 13.4204 107.333C13.4204 111.466 16.7926 114.816 20.9524 114.816Z" fill="#BEA0F2"/>
</g>
<g id="Group_2">
<path id="Vector_4" d="M193.437 136C191.52 136 189.961 134.472 189.931 132.572V60.7075C189.931 58.7853 191.502 57.225 193.437 57.225C195.372 57.225 196.942 58.7853 196.942 60.7075V132.579C196.942 134.472 195.354 136 193.437 136Z" fill="#BEA0F2"/>
<path id="Vector_5" d="M196.942 132.579V79.2817H189.931V132.572C189.961 134.469 191.52 136 193.437 136C195.354 136 196.942 134.476 196.942 132.579Z" fill="#271B3D"/>
</g>
<g id="Group_3">
<path id="Vector_6" d="M174.376 136C172.459 136 170.899 134.472 170.87 132.572V60.7075C170.87 58.7853 172.441 57.225 174.376 57.225C176.31 57.225 177.881 58.7853 177.881 60.7075V132.579C177.881 134.472 176.292 136 174.376 136Z" fill="#BEA0F2"/>
<path id="Vector_7" d="M177.881 132.579V94.1274H170.87V132.572C170.899 134.469 172.459 136 174.376 136C176.292 136 177.881 134.476 177.881 132.579Z" fill="#271B3D"/>
</g>
<g id="Group_4">
<path id="Vector_8" d="M212.494 136C210.578 136 209.018 134.472 208.989 132.572V60.7075C208.989 58.7853 210.56 57.225 212.494 57.225C214.429 57.225 216 58.7853 216 60.7075V132.579C216 134.472 214.411 136 212.494 136Z" fill="#BEA0F2"/>
<path id="Vector_9" d="M216 132.579V98.7791H208.989V132.572C209.018 134.469 210.578 136 212.494 136C214.411 136 216 134.476 216 132.579Z" fill="#271B3D"/>
</g>
<path id="Vector_10" d="M167.798 32.4354V24.6307L161.301 23.7836C160.711 21.0759 159.64 18.5455 158.175 16.2938L162.161 11.1317L156.612 5.61844L151.415 9.57873C149.149 8.11625 146.606 7.04834 143.869 6.47276L143.024 0.0219116H135.167L134.315 6.47638C131.589 7.05558 129.042 8.11987 126.775 9.58235L121.579 5.62206L116.029 11.1353L120.016 16.2975C118.544 18.5491 117.469 21.0759 116.889 23.7873L110.392 24.6343V32.4391L116.889 33.2861C117.472 35.9939 118.544 38.5243 120.016 40.7759L116.029 45.9381L121.579 51.4513L126.775 47.4911C129.042 48.9535 131.585 50.0214 134.315 50.597L135.167 57.0515H143.024L143.876 50.597C146.602 50.0178 149.149 48.9535 151.415 47.4911L156.612 51.4513L162.161 45.9381L158.175 40.7759C159.647 38.5243 160.722 35.9975 161.301 33.2861L167.798 32.4391V32.4354ZM139.099 36.6455C134.253 36.6455 130.321 32.7395 130.321 27.9249C130.321 23.1103 134.253 19.2043 139.099 19.2043C143.945 19.2043 147.877 23.1103 147.877 27.9249C147.877 32.7395 143.945 36.6455 139.099 36.6455Z" fill="#BEA0F2"/>
<g id="Group_5">
<path id="Vector_11" d="M97.613 0H9.37571L0.182129 57.1201H22.8363L22.7489 84.7914L40.6295 57.1201H88.4194L97.613 0Z" fill="#271B3D"/>
<g id="Group_6">
<path id="Vector_12" d="M34.7344 31.552C36.5094 31.552 37.9484 30.1225 37.9484 28.3591C37.9484 26.5958 36.5094 25.1663 34.7344 25.1663C32.9594 25.1663 31.5205 26.5958 31.5205 28.3591C31.5205 30.1225 32.9594 31.552 34.7344 31.552Z" fill="white"/>
<path id="Vector_13" d="M48.8975 31.552C50.6725 31.552 52.1114 30.1225 52.1114 28.3591C52.1114 26.5958 50.6725 25.1663 48.8975 25.1663C47.1225 25.1663 45.6836 26.5958 45.6836 28.3591C45.6836 30.1225 47.1225 31.552 48.8975 31.552Z" fill="white"/>
<path id="Vector_14" d="M63.0606 31.552C64.8356 31.552 66.2745 30.1225 66.2745 28.3591C66.2745 26.5958 64.8356 25.1663 63.0606 25.1663C61.2856 25.1663 59.8467 26.5958 59.8467 28.3591C59.8467 30.1225 61.2856 31.552 63.0606 31.552Z" fill="white"/>
</g>
</g>
<g id="Group_7">
<path id="Vector_15" d="M71.1472 104.017C77.2763 104.017 82.2648 108.969 82.2648 115.062C82.2648 121.154 77.2799 126.107 71.1472 126.107C65.0145 126.107 60.0296 121.154 60.0296 115.062C60.0296 108.969 65.0145 104.017 71.1472 104.017ZM71.1472 94.1274C59.5086 94.1274 50.0781 103.5 50.0781 115.058C50.0781 126.617 59.5122 135.989 71.1472 135.989C82.7822 135.989 92.2163 126.617 92.2163 115.058C92.2163 103.5 82.7822 94.1274 71.1472 94.1274Z" fill="#271B3D"/>
<path id="Vector_16" d="M60.7219 96.875L65.7359 105.422C67.3393 104.531 69.1831 104.017 71.1471 104.017V94.1274C67.3538 94.1274 63.7974 95.1301 60.7219 96.8714V96.875Z" fill="#BEA0F2"/>
</g>
<g id="Group_8">
<path id="Vector_17" d="M121.346 94.1274C109.707 94.1274 100.277 103.5 100.277 115.058C100.277 126.617 109.711 135.989 121.346 135.989C132.981 135.989 142.415 126.617 142.415 115.058C142.415 103.5 132.981 94.1274 121.346 94.1274Z" fill="#BEA0F2"/>
<path id="Vector (Stroke)" fill-rule="evenodd" clip-rule="evenodd" d="M130.941 103.841L118.228 126.872L111.452 115.078L112.357 114.568L118.21 124.755L130.028 103.346L130.941 103.841Z" fill="white"/>
</g>
</g>
<defs>
<clipPath id="clip0_4824_30258">
<rect width="216" height="136" fill="white"/>
</clipPath>
</defs>
</svg>
