<svg width="216" height="136" viewBox="0 0 216 136" fill="none" xmlns="http://www.w3.org/2000/svg">
<path d="M209.249 86.6924H173.087C169.359 86.6924 166.336 89.6934 166.336 93.3953V129.297C166.336 132.999 169.359 136 173.087 136H209.249C212.978 136 216 132.999 216 129.297V93.3953C216 89.6934 212.978 86.6924 209.249 86.6924Z" fill="#BEA0F2"/>
<path d="M190.12 120.091L187.869 114.687H176.556L174.304 120.091H173.178L181.631 99.9536H182.786L191.239 120.091H190.113H190.12ZM182.214 101.071L176.924 113.783H187.504L182.214 101.071Z" fill="#271B3D"/>
<path d="M203.988 120.091V118.312C202.618 119.791 200.978 120.457 198.909 120.457C196.325 120.457 193.768 118.706 193.768 115.595C193.768 112.484 196.293 110.733 198.909 110.733C200.978 110.733 202.618 111.399 203.988 112.878V109.587C203.988 107.232 202.104 105.962 199.852 105.962C197.936 105.962 196.507 106.628 195.138 108.255L194.438 107.651C195.866 105.991 197.389 105.145 199.852 105.145C202.741 105.145 204.898 106.595 204.898 109.554V120.091H203.988ZM203.988 117.404V113.779C202.862 112.3 201.069 111.544 199.153 111.544C196.478 111.544 194.773 113.323 194.773 115.588C194.773 117.852 196.475 119.632 199.153 119.632C201.069 119.632 202.862 118.876 203.988 117.396V117.404Z" fill="#271B3D"/>
<path d="M129.784 120.091L127.992 115.591H117.896L116.103 120.091H113.214L121.393 99.9536H124.527L132.677 120.091H129.788H129.784ZM122.942 102.522L118.654 113.392H127.259L122.942 102.522Z" fill="#271B3D"/>
<path d="M144.413 120.091V118.431C143.229 119.758 141.524 120.453 139.549 120.453C137.086 120.453 134.441 118.793 134.441 115.624C134.441 112.455 137.057 110.824 139.549 110.824C141.557 110.824 143.229 111.457 144.413 112.784V110.158C144.413 108.226 142.832 107.109 140.704 107.109C138.941 107.109 137.512 107.713 136.204 109.131L135.14 107.561C136.722 105.929 138.605 105.145 141.01 105.145C144.144 105.145 146.698 106.534 146.698 110.064V120.088H144.417L144.413 120.091ZM144.413 117.013V114.235C143.531 113.056 141.979 112.455 140.398 112.455C138.237 112.455 136.747 113.783 136.747 115.624C136.747 117.465 138.237 118.825 140.398 118.825C141.979 118.825 143.531 118.221 144.413 117.013Z" fill="#271B3D"/>
<path d="M215.92 0H112.507V10.8519H215.92V0Z" fill="#271B3D"/>
<path d="M215.92 20.6909H112.507V31.5428H215.92V20.6909Z" fill="#271B3D"/>
<path d="M180.655 43.3752H112.507V54.2272H180.655V43.3752Z" fill="#271B3D"/>
<path d="M90.3437 124.11H0V129.536H90.3437V124.11Z" fill="#271B3D"/>
<path d="M21.9448 121.024V132.625C21.9448 135.107 24.1091 135.92 26.7396 135.92C29.3702 135.92 31.5345 135.107 31.5345 132.625V121.024C31.5345 118.543 29.3702 117.729 26.7396 117.729C24.1091 117.729 21.9448 118.543 21.9448 121.024Z" fill="#BEA0F2"/>
<path d="M90.3437 102.305H0V107.731H90.3437V102.305Z" fill="#271B3D"/>
<path d="M60.5037 99.2192V110.82C60.5037 113.301 62.6679 114.115 65.2985 114.115C67.9291 114.115 70.0933 113.301 70.0933 110.82V99.2192C70.0933 96.7377 67.9291 95.9238 65.2985 95.9238C62.6679 95.9238 60.5037 96.7377 60.5037 99.2192Z" fill="#BEA0F2"/>
<path d="M112.762 50.4471C108.415 50.4471 104.451 46.9672 103.581 47.8354C102.71 48.6999 106.211 52.6355 106.211 56.951C106.211 61.2664 102.706 65.2021 103.581 66.0666C104.455 66.9311 108.415 63.4549 112.762 63.4549C117.109 63.4549 121.073 66.9348 121.944 66.0666C122.814 65.2021 119.313 61.2664 119.313 56.951C119.313 52.6355 122.818 48.6999 121.944 47.8354C121.069 46.9708 117.109 50.4471 112.762 50.4471Z" fill="#BEA0F2"/>
<path d="M128.603 72.343C130.222 70.7354 130.699 68.6031 129.669 67.5803C128.639 66.5575 126.491 67.0317 124.872 68.6392C123.253 70.2468 122.775 72.3792 123.805 73.4019C124.836 74.4247 126.983 73.9506 128.603 72.343Z" fill="#BEA0F2"/>
<path d="M133.861 77.5667C134.968 76.4676 135.295 75.0098 134.59 74.3106C133.886 73.6113 132.418 73.9354 131.311 75.0344C130.204 76.1335 129.877 77.5913 130.581 78.2905C131.286 78.9898 132.754 78.6657 133.861 77.5667Z" fill="#BEA0F2"/>
<path d="M88.9409 89.9298H2.84547C1.95282 89.9298 1.22412 89.21 1.22412 88.3201V2.8431C1.22412 1.95686 1.94917 1.2334 2.84547 1.2334H88.9409C89.8335 1.2334 90.5622 1.95324 90.5622 2.8431V88.3201C90.5622 89.2064 89.8372 89.9298 88.9409 89.9298ZM2.84547 1.59513C2.15321 1.59513 1.58847 2.15581 1.58847 2.8431V88.3201C1.58847 89.0074 2.15321 89.5681 2.84547 89.5681H88.9409C89.6331 89.5681 90.1979 89.0074 90.1979 88.3201V2.8431C90.1979 2.15581 89.6331 1.59513 88.9409 1.59513H2.84547Z" fill="#271B3D"/>
<path d="M91.7829 1.42703C91.7829 0.638902 91.1394 0 90.3456 0C89.5517 0 88.9082 0.638902 88.9082 1.42703C88.9082 2.21515 89.5517 2.85406 90.3456 2.85406C91.1394 2.85406 91.7829 2.21515 91.7829 1.42703Z" fill="#271B3D"/>
<path d="M2.8747 1.42703C2.8747 0.638902 2.23118 0 1.43735 0C0.643524 0 0 0.638902 0 1.42703C0 2.21515 0.643524 2.85406 1.43735 2.85406C2.23118 2.85406 2.8747 2.21515 2.8747 1.42703Z" fill="#271B3D"/>
<path d="M91.7829 89.7146C91.7829 88.9265 91.1394 88.2876 90.3456 88.2876C89.5517 88.2876 88.9082 88.9265 88.9082 89.7146C88.9082 90.5027 89.5517 91.1417 90.3456 91.1417C91.1394 91.1417 91.7829 90.5027 91.7829 89.7146Z" fill="#271B3D"/>
<path d="M2.8747 89.7146C2.8747 88.9265 2.23118 88.2876 1.43735 88.2876C0.643524 88.2876 0 88.9265 0 89.7146C0 90.5027 0.643524 91.1417 1.43735 91.1417C2.23118 91.1417 2.8747 90.5027 2.8747 89.7146Z" fill="#271B3D"/>
<path d="M150.997 128.59H109.312V129.536H150.997V128.59Z" fill="#271B3D"/>
<g clip-path="url(#clip0_4824_29746)">
<path d="M34.0241 4.98413C28.7538 4.98413 24.1391 13.0249 21.6276 25.012C20.0688 13.0249 17.2109 4.98413 13.9324 4.98413C8.99608 4.98413 5 23.2855 5 45.8539C5 68.4223 8.99608 86.7237 13.9324 86.7237C17.1986 86.7237 20.0564 78.6829 21.6153 66.6958C24.1267 78.6829 28.7414 86.7237 34.0118 86.7237C38.7873 86.7237 43.0184 80.1382 45.6412 70.0009C49.8105 80.1382 56.5284 86.7237 64.0999 86.7237C76.7438 86.7237 86.9876 68.4223 86.9876 45.8539C86.9876 23.2855 76.7562 4.98413 64.1122 4.98413C56.5284 4.98413 49.8105 11.5697 45.6536 21.7069C43.0308 11.5697 38.7996 4.98413 34.0241 4.98413Z" fill="#BEA0F2"/>
</g>
<defs>
<clipPath id="clip0_4824_29746">
<rect width="82" height="81.7396" fill="white" transform="translate(5 4.98413)"/>
</clipPath>
</defs>
</svg>
