<svg width="40" height="40" viewBox="0 0 40 40" fill="none" xmlns="http://www.w3.org/2000/svg">
<path d="M0 4C0 1.79086 1.79086 0 4 0H36C38.2091 0 40 1.79086 40 4V36C40 38.2091 38.2091 40 36 40H4C1.79086 40 0 38.2091 0 36V4Z" fill="#F0F0F0"/>
<path d="M14 23H21L23 21H14V23ZM14 19H20V17H14V19ZM12 15V25H19L17 27H10V13H30V16H28V15H12ZM30.9 20.3C30.9833 20.3833 31.025 20.475 31.025 20.575C31.025 20.675 30.9833 20.7667 30.9 20.85L30 21.75L28.25 20L29.15 19.1C29.2333 19.0167 29.325 18.975 29.425 18.975C29.525 18.975 29.6167 19.0167 29.7 19.1L30.9 20.3ZM21 29V27.25L27.65 20.6L29.4 22.35L22.75 29H21Z" fill="#2F2F2F"/>
</svg>
