<svg width="40" height="40" viewBox="0 0 40 40" fill="none" xmlns="http://www.w3.org/2000/svg">
<path d="M0 4C0 1.79086 1.79086 0 4 0H36C38.2091 0 40 1.79086 40 4V36C40 38.2091 38.2091 40 36 40H4C1.79086 40 0 38.2091 0 36V4Z" fill="#F0F0F0"/>
<path d="M21.7499 20.7117C21.0513 20.7117 20.4599 20.4697 19.9759 19.9857C19.4919 19.5017 19.2499 18.9104 19.2499 18.2117C19.2499 17.5131 19.4919 16.9217 19.9759 16.4377C20.4599 15.9537 21.0513 15.7117 21.7499 15.7117C22.4486 15.7117 23.0399 15.9537 23.5239 16.4377C24.0079 16.9217 24.2499 17.5131 24.2499 18.2117C24.2499 18.9104 24.0079 19.5017 23.5239 19.9857C23.0399 20.4697 22.4486 20.7117 21.7499 20.7117ZM15.1537 23.808C14.6567 23.808 14.2312 23.631 13.8772 23.277C13.5232 22.923 13.3462 22.4974 13.3462 22.0002V14.4232C13.3462 13.9262 13.5232 13.5007 13.8772 13.1467C14.2312 12.7927 14.6567 12.6157 15.1537 12.6157H28.3459C28.8431 12.6157 29.2687 12.7927 29.6227 13.1467C29.9767 13.5007 30.1537 13.9262 30.1537 14.4232V22.0002C30.1537 22.4974 29.9767 22.923 29.6227 23.277C29.2687 23.631 28.8431 23.808 28.3459 23.808H15.1537ZM16.6537 22.308H26.8462C26.8462 21.8093 27.0232 21.3833 27.3772 21.03C27.7312 20.6768 28.1567 20.5002 28.6537 20.5002V15.9232C28.155 15.9232 27.7291 15.7462 27.3759 15.3922C27.0228 15.0382 26.8462 14.6127 26.8462 14.1157H16.6537C16.6537 14.6144 16.4767 15.0403 16.1227 15.3935C15.7687 15.7466 15.3432 15.9232 14.8462 15.9232V20.5002C15.3449 20.5002 15.7708 20.6772 16.1239 21.0312C16.4771 21.3852 16.6537 21.8108 16.6537 22.308ZM27.1729 27.308H11.6539C11.1568 27.308 10.7312 27.131 10.3772 26.777C10.0232 26.423 9.84619 25.9974 9.84619 25.5002V15.5965H11.3462V25.5002C11.3462 25.5771 11.3782 25.6476 11.4422 25.7117C11.5064 25.7759 11.5769 25.808 11.6539 25.808H27.1729V27.308ZM15.1537 22.308H14.8462V14.1157H15.1537C15.0704 14.1157 14.9983 14.1461 14.9374 14.207C14.8766 14.2678 14.8462 14.3399 14.8462 14.4232V22.0002C14.8462 22.0836 14.8766 22.1556 14.9374 22.2165C14.9983 22.2775 15.0704 22.308 15.1537 22.308Z" fill="#2F2F2F"/>
</svg>
